<?xml version="1.0" encoding="UTF-8" standalone="no"?>
<!DOCTYPE svg PUBLIC "-//W3C//DTD SVG 1.1//EN"
 "http://www.w3.org/Graphics/SVG/1.1/DTD/svg11.dtd">
<!-- Generated by graphviz version 2.40.1 (20161225.0304)
 -->
<!-- Title: Domain/Game/Actors/Actor.h Pages: 1 -->
<!--zoomable 240 -->
<svg id="main" version="1.1" xmlns="http://www.w3.org/2000/svg" xmlns:xlink="http://www.w3.org/1999/xlink" xml:space="preserve" onload="init(evt)">
<style type="text/css"><![CDATA[
.edge:hover path { stroke: red; }
.edge:hover polygon { stroke: red; fill: red; }
]]></style>
<script type="text/javascript"><![CDATA[
var edges = document.getElementsByTagName('g');
if (edges && edges.length) {
  for (var i=0;i<edges.length;i++) {
    if (edges[i].id.substr(0,4)=='edge') {
      edges[i].setAttribute('class','edge');
    }
  }
}
]]></script>
        <defs>
                <circle id="rim" cx="0" cy="0" r="7"/>
                <circle id="rim2" cx="0" cy="0" r="3.5"/>
                <g id="zoomPlus">
                        <use xlink:href="#rim" fill="#404040">
                                <set attributeName="fill" to="#808080" begin="zoomplus.mouseover" end="zoomplus.mouseout"/>
                        </use>
                        <path d="M-4,0h8M0,-4v8" fill="none" stroke="white" stroke-width="1.5" pointer-events="none"/>
                </g>
                <g id="zoomMin">
                        <use xlink:href="#rim" fill="#404040">
                                <set attributeName="fill" to="#808080" begin="zoomminus.mouseover" end="zoomminus.mouseout"/>
                        </use>
                        <path d="M-4,0h8" fill="none" stroke="white" stroke-width="1.5" pointer-events="none"/>
                </g>
                <g id="dirArrow">
                        <path fill="none" stroke="white" stroke-width="1.5" d="M0,-3.0v7 M-2.5,-0.5L0,-3.0L2.5,-0.5"/>
                </g>
               <g id="resetDef">
                       <use xlink:href="#rim2" fill="#404040">
                               <set attributeName="fill" to="#808080" begin="reset.mouseover" end="reset.mouseout"/>
                       </use>
               </g>
        </defs>

<script type="text/javascript">
var viewWidth = 782;
var viewHeight = 240;
var sectionId = 'dynsection-1';
</script>
<script xlink:href="svgpan.js"/>
<svg id="graph" class="graph">
<g id="viewport">
<title>Domain/Game/Actors/Actor.h</title>
<polygon fill="#ffffff" stroke="transparent" points="-4,4 -4,-236 778,-236 778,4 -4,4"/>
<!-- Node8 -->
<g id="node1" class="node">
<title>Node8</title>
<polygon fill="#bfbfbf" stroke="#000000" points="202,-201.5 202,-231.5 313,-231.5 313,-201.5 202,-201.5"/>
<text text-anchor="start" x="210" y="-219.5" font-family="Helvetica,sans-Serif" font-size="10.00" fill="#000000">Domain/Game/Actors</text>
<text text-anchor="middle" x="257.5" y="-208.5" font-family="Helvetica,sans-Serif" font-size="10.00" fill="#000000">/Actor.h</text>
</g>
<!-- Node9 -->
<g id="node2" class="node">
<title>Node9</title>
<g id="a_node2"><a xlink:href="Actor_8cpp.html" target="_top" xlink:title="Domain/Game/Actors\l/Actor.cpp">
<polygon fill="#ffffff" stroke="#000000" points="0,-67.5 0,-97.5 111,-97.5 111,-67.5 0,-67.5"/>
<text text-anchor="start" x="8" y="-85.5" font-family="Helvetica,sans-Serif" font-size="10.00" fill="#000000">Domain/Game/Actors</text>
<text text-anchor="middle" x="55.5" y="-74.5" font-family="Helvetica,sans-Serif" font-size="10.00" fill="#000000">/Actor.cpp</text>
</a>
</g>
</g>
<!-- Node8&#45;&gt;Node9 -->
<g id="edge1" class="edge">
<title>Node8&#45;&gt;Node9</title>
<path fill="none" stroke="#191970" d="M192.1215,-198.9177C169.1231,-190.8447 143.9383,-179.7206 123.5,-165 97.7452,-146.4502 76.0568,-115.8717 64.4937,-97.6108"/>
<polygon fill="#191970" stroke="#191970" points="191.2297,-202.3107 201.8239,-202.1924 193.4683,-195.6782 191.2297,-202.3107"/>
</g>
<!-- Node10 -->
<g id="node3" class="node">
<title>Node10</title>
<g id="a_node3"><a xlink:href="Bullet_8h.html" target="_top" xlink:title="Domain/Game/Actors\l/Bullet.h">
<polygon fill="#ffffff" stroke="#000000" points="133,-134.5 133,-164.5 244,-164.5 244,-134.5 133,-134.5"/>
<text text-anchor="start" x="141" y="-152.5" font-family="Helvetica,sans-Serif" font-size="10.00" fill="#000000">Domain/Game/Actors</text>
<text text-anchor="middle" x="188.5" y="-141.5" font-family="Helvetica,sans-Serif" font-size="10.00" fill="#000000">/Bullet.h</text>
</a>
</g>
</g>
<!-- Node8&#45;&gt;Node10 -->
<g id="edge2" class="edge">
<title>Node8&#45;&gt;Node10</title>
<path fill="none" stroke="#191970" d="M234.546,-194.2113C224.5457,-184.5009 213.0824,-173.3698 204.0952,-164.6432"/>
<polygon fill="#191970" stroke="#191970" points="232.2303,-196.8413 241.8428,-201.2967 237.1068,-191.8193 232.2303,-196.8413"/>
</g>
<!-- Node13 -->
<g id="node6" class="node">
<title>Node13</title>
<g id="a_node6"><a xlink:href="GunShip_8h.html" target="_top" xlink:title="Domain/Game/Actors\l/GunShip.h">
<polygon fill="#ffffff" stroke="#000000" points="267,-134.5 267,-164.5 378,-164.5 378,-134.5 267,-134.5"/>
<text text-anchor="start" x="275" y="-152.5" font-family="Helvetica,sans-Serif" font-size="10.00" fill="#000000">Domain/Game/Actors</text>
<text text-anchor="middle" x="322.5" y="-141.5" font-family="Helvetica,sans-Serif" font-size="10.00" fill="#000000">/GunShip.h</text>
</a>
</g>
</g>
<!-- Node8&#45;&gt;Node13 -->
<g id="edge6" class="edge">
<title>Node8&#45;&gt;Node13</title>
<path fill="none" stroke="#191970" d="M279.4008,-193.9253C288.7555,-184.2828 299.4257,-173.2843 307.8089,-164.6432"/>
<polygon fill="#191970" stroke="#191970" points="276.7006,-191.6821 272.2495,-201.2967 281.7248,-196.5564 276.7006,-191.6821"/>
</g>
<!-- Node15 -->
<g id="node8" class="node">
<title>Node15</title>
<g id="a_node8"><a xlink:href="Rock_8h.html" target="_top" xlink:title="Domain/Game/Actors\l/Rock.h">
<polygon fill="#ffffff" stroke="#000000" points="465,-134.5 465,-164.5 576,-164.5 576,-134.5 465,-134.5"/>
<text text-anchor="start" x="473" y="-152.5" font-family="Helvetica,sans-Serif" font-size="10.00" fill="#000000">Domain/Game/Actors</text>
<text text-anchor="middle" x="520.5" y="-141.5" font-family="Helvetica,sans-Serif" font-size="10.00" fill="#000000">/Rock.h</text>
</a>
</g>
</g>
<!-- Node8&#45;&gt;Node15 -->
<g id="edge9" class="edge">
<title>Node8&#45;&gt;Node15</title>
<path fill="none" stroke="#191970" d="M323.2149,-199.7589C366.8176,-188.651 423.4179,-174.2319 464.8049,-163.6885"/>
<polygon fill="#191970" stroke="#191970" points="322.102,-196.4306 313.2755,-202.291 323.8301,-203.2139 322.102,-196.4306"/>
</g>
<!-- Node10&#45;&gt;Node9 -->
<g id="edge3" class="edge">
<title>Node10&#45;&gt;Node9</title>
<path fill="none" stroke="#191970" d="M149.6187,-129.9132C129.2357,-119.645 104.6428,-107.2561 85.7083,-97.7177"/>
<polygon fill="#191970" stroke="#191970" points="148.1467,-133.0906 158.6522,-134.4639 151.2961,-126.8391 148.1467,-133.0906"/>
</g>
<!-- Node11 -->
<g id="node4" class="node">
<title>Node11</title>
<g id="a_node4"><a xlink:href="Bullet_8cpp.html" target="_top" xlink:title="Domain/Game/Actors\l/Bullet.cpp">
<polygon fill="#ffffff" stroke="#000000" points="129,-67.5 129,-97.5 240,-97.5 240,-67.5 129,-67.5"/>
<text text-anchor="start" x="137" y="-85.5" font-family="Helvetica,sans-Serif" font-size="10.00" fill="#000000">Domain/Game/Actors</text>
<text text-anchor="middle" x="184.5" y="-74.5" font-family="Helvetica,sans-Serif" font-size="10.00" fill="#000000">/Bullet.cpp</text>
</a>
</g>
</g>
<!-- Node10&#45;&gt;Node11 -->
<g id="edge4" class="edge">
<title>Node10&#45;&gt;Node11</title>
<path fill="none" stroke="#191970" d="M186.9791,-124.0249C186.4479,-115.128 185.8689,-105.4287 185.4041,-97.6432"/>
<polygon fill="#191970" stroke="#191970" points="183.5025,-124.5231 187.5923,-134.2967 190.4901,-124.1058 183.5025,-124.5231"/>
</g>
<!-- Node12 -->
<g id="node5" class="node">
<title>Node12</title>
<g id="a_node5"><a xlink:href="Game_8cpp.html" target="_top" xlink:title="Domain/Game/Game.cpp">
<polygon fill="#ffffff" stroke="#000000" points="258.5,-73 258.5,-92 386.5,-92 386.5,-73 258.5,-73"/>
<text text-anchor="middle" x="322.5" y="-80" font-family="Helvetica,sans-Serif" font-size="10.00" fill="#000000">Domain/Game/Game.cpp</text>
</a>
</g>
</g>
<!-- Node10&#45;&gt;Node12 -->
<g id="edge5" class="edge">
<title>Node10&#45;&gt;Node12</title>
<path fill="none" stroke="#191970" d="M227.7596,-129.8702C252.6176,-117.4412 283.6627,-101.9187 303.2922,-92.1039"/>
<polygon fill="#191970" stroke="#191970" points="225.9512,-126.8612 218.5722,-134.4639 229.0818,-133.1222 225.9512,-126.8612"/>
</g>
<!-- Node13&#45;&gt;Node12 -->
<g id="edge8" class="edge">
<title>Node13&#45;&gt;Node12</title>
<path fill="none" stroke="#191970" d="M322.5,-124.1199C322.5,-112.9072 322.5,-100.4031 322.5,-92.055"/>
<polygon fill="#191970" stroke="#191970" points="319.0001,-124.2966 322.5,-134.2967 326.0001,-124.2967 319.0001,-124.2966"/>
</g>
<!-- Node14 -->
<g id="node7" class="node">
<title>Node14</title>
<g id="a_node7"><a xlink:href="GunShip_8cpp.html" target="_top" xlink:title="Domain/Game/Actors\l/GunShip.cpp">
<polygon fill="#ffffff" stroke="#000000" points="405,-67.5 405,-97.5 516,-97.5 516,-67.5 405,-67.5"/>
<text text-anchor="start" x="413" y="-85.5" font-family="Helvetica,sans-Serif" font-size="10.00" fill="#000000">Domain/Game/Actors</text>
<text text-anchor="middle" x="460.5" y="-74.5" font-family="Helvetica,sans-Serif" font-size="10.00" fill="#000000">/GunShip.cpp</text>
</a>
</g>
</g>
<!-- Node13&#45;&gt;Node14 -->
<g id="edge7" class="edge">
<title>Node13&#45;&gt;Node14</title>
<path fill="none" stroke="#191970" d="M362.5575,-130.0518C383.7623,-119.7567 409.4212,-107.2991 429.156,-97.7177"/>
<polygon fill="#191970" stroke="#191970" points="360.9371,-126.9478 353.4699,-134.4639 363.9944,-133.2448 360.9371,-126.9478"/>
</g>
<!-- Node15&#45;&gt;Node12 -->
<g id="edge13" class="edge">
<title>Node15&#45;&gt;Node12</title>
<path fill="none" stroke="#191970" d="M466.3079,-131.1623C428.8667,-118.4928 380.5887,-102.1563 350.5902,-92.0053"/>
<polygon fill="#191970" stroke="#191970" points="465.4707,-134.5739 476.0649,-134.4639 467.7144,-127.9432 465.4707,-134.5739"/>
</g>
<!-- Node16 -->
<g id="node9" class="node">
<title>Node16</title>
<g id="a_node9"><a xlink:href="LongRock_8h.html" target="_top" xlink:title="Domain/Game/Actors\l/LongRock.h">
<polygon fill="#ffffff" stroke="#000000" points="534,-67.5 534,-97.5 645,-97.5 645,-67.5 534,-67.5"/>
<text text-anchor="start" x="542" y="-85.5" font-family="Helvetica,sans-Serif" font-size="10.00" fill="#000000">Domain/Game/Actors</text>
<text text-anchor="middle" x="589.5" y="-74.5" font-family="Helvetica,sans-Serif" font-size="10.00" fill="#000000">/LongRock.h</text>
</a>
</g>
</g>
<!-- Node15&#45;&gt;Node16 -->
<g id="edge10" class="edge">
<title>Node15&#45;&gt;Node16</title>
<path fill="none" stroke="#191970" d="M543.454,-127.2113C553.4543,-117.5009 564.9176,-106.3698 573.9048,-97.6432"/>
<polygon fill="#191970" stroke="#191970" points="540.8932,-124.8193 536.1572,-134.2967 545.7697,-129.8413 540.8932,-124.8193"/>
</g>
<!-- Node18 -->
<g id="node11" class="node">
<title>Node18</title>
<g id="a_node11"><a xlink:href="Rock_8cpp.html" target="_top" xlink:title="Domain/Game/Actors\l/Rock.cpp">
<polygon fill="#ffffff" stroke="#000000" points="663,-67.5 663,-97.5 774,-97.5 774,-67.5 663,-67.5"/>
<text text-anchor="start" x="671" y="-85.5" font-family="Helvetica,sans-Serif" font-size="10.00" fill="#000000">Domain/Game/Actors</text>
<text text-anchor="middle" x="718.5" y="-74.5" font-family="Helvetica,sans-Serif" font-size="10.00" fill="#000000">/Rock.cpp</text>
</a>
</g>
</g>
<!-- Node15&#45;&gt;Node18 -->
<g id="edge12" class="edge">
<title>Node15&#45;&gt;Node18</title>
<path fill="none" stroke="#191970" d="M574.7602,-131.1392C605.8961,-120.6033 644.5087,-107.5375 673.8711,-97.6017"/>
<polygon fill="#191970" stroke="#191970" points="573.2856,-127.9432 564.9351,-134.4639 575.5293,-134.5739 573.2856,-127.9432"/>
</g>
<!-- Node17 -->
<g id="node10" class="node">
<title>Node17</title>
<g id="a_node10"><a xlink:href="LongRock_8cpp.html" target="_top" xlink:title="Domain/Game/Actors\l/LongRock.cpp">
<polygon fill="#ffffff" stroke="#000000" points="534,-.5 534,-30.5 645,-30.5 645,-.5 534,-.5"/>
<text text-anchor="start" x="542" y="-18.5" font-family="Helvetica,sans-Serif" font-size="10.00" fill="#000000">Domain/Game/Actors</text>
<text text-anchor="middle" x="589.5" y="-7.5" font-family="Helvetica,sans-Serif" font-size="10.00" fill="#000000">/LongRock.cpp</text>
</a>
</g>
</g>
<!-- Node16&#45;&gt;Node17 -->
<g id="edge11" class="edge">
<title>Node16&#45;&gt;Node17</title>
<path fill="none" stroke="#191970" d="M589.5,-57.0249C589.5,-48.128 589.5,-38.4287 589.5,-30.6432"/>
<polygon fill="#191970" stroke="#191970" points="586.0001,-57.2966 589.5,-67.2967 593.0001,-57.2967 586.0001,-57.2966"/>
</g>
</g>
</svg>
        <g id="navigator" transform="translate(0 0)" fill="#404254">
                <rect fill="#f2f5e9" fill-opacity="0.5" stroke="#606060" stroke-width=".5" x="0" y="0" width="60" height="60"/>
                <use id="zoomplus" xlink:href="#zoomPlus" x="17" y="9" onmousedown="handleZoom(evt,'in')"/>
                <use id="zoomminus" xlink:href="#zoomMin" x="42" y="9" onmousedown="handleZoom(evt,'out')"/>
                <use id="reset" xlink:href="#resetDef" x="30" y="36" onmousedown="handleReset()"/>
                <g id="arrowUp" xlink:href="#dirArrow" transform="translate(30 24)" onmousedown="handlePan(0,-1)">
                  <use xlink:href="#rim" fill="#404040">
                        <set attributeName="fill" to="#808080" begin="arrowUp.mouseover" end="arrowUp.mouseout"/>
                  </use>
                  <path fill="none" stroke="white" stroke-width="1.5" d="M0,-3.0v7 M-2.5,-0.5L0,-3.0L2.5,-0.5"/>
                </g>
                <g id="arrowRight" xlink:href="#dirArrow" transform="rotate(90) translate(36 -43)" onmousedown="handlePan(1,0)">
                  <use xlink:href="#rim" fill="#404040">
                        <set attributeName="fill" to="#808080" begin="arrowRight.mouseover" end="arrowRight.mouseout"/>
                  </use>
                  <path fill="none" stroke="white" stroke-width="1.5" d="M0,-3.0v7 M-2.5,-0.5L0,-3.0L2.5,-0.5"/>
                </g>
                <g id="arrowDown" xlink:href="#dirArrow" transform="rotate(180) translate(-30 -48)" onmousedown="handlePan(0,1)">
                  <use xlink:href="#rim" fill="#404040">
                        <set attributeName="fill" to="#808080" begin="arrowDown.mouseover" end="arrowDown.mouseout"/>
                  </use>
                  <path fill="none" stroke="white" stroke-width="1.5" d="M0,-3.0v7 M-2.5,-0.5L0,-3.0L2.5,-0.5"/>
                </g>
                <g id="arrowLeft" xlink:href="#dirArrow" transform="rotate(270) translate(-36 17)" onmousedown="handlePan(-1,0)">
                  <use xlink:href="#rim" fill="#404040">
                        <set attributeName="fill" to="#808080" begin="arrowLeft.mouseover" end="arrowLeft.mouseout"/>
                  </use>
                  <path fill="none" stroke="white" stroke-width="1.5" d="M0,-3.0v7 M-2.5,-0.5L0,-3.0L2.5,-0.5"/>
                </g>
        </g>
        <svg viewBox="0 0 15 15" width="100%" height="30px" preserveAspectRatio="xMaxYMin meet">
         <g id="arrow_out" transform="scale(0.3 0.3)">
          <a xlink:href="Actor_8h__dep__incl_org.svg" target="_base">
           <rect id="button" ry="5" rx="5" y="6" x="6" height="38" width="38"
                fill="#f2f5e9" fill-opacity="0.5" stroke="#606060" stroke-width="1.0"/>
           <path id="arrow"
             d="M 11.500037,31.436501 C 11.940474,20.09759 22.043105,11.32322 32.158766,21.979434 L 37.068811,17.246167 C 37.068811,17.246167 37.088388,32 37.088388,32 L 22.160133,31.978069 C 22.160133,31.978069 26.997745,27.140456 26.997745,27.140456 C 18.528582,18.264221 13.291696,25.230495 11.500037,31.436501 z"
             style="fill:#404040;"/>
          </a>
         </g>
        </svg>
</svg>
