<?xml version="1.0" encoding="UTF-8" standalone="no"?>
<!DOCTYPE svg PUBLIC "-//W3C//DTD SVG 1.1//EN"
 "http://www.w3.org/Graphics/SVG/1.1/DTD/svg11.dtd">
<!-- Generated by graphviz version 2.40.1 (20161225.0304)
 -->
<!-- Title: Domain/Net/Authentication/Authenticator.cpp Pages: 1 -->
<svg width="582pt" height="240pt"
 viewBox="0.00 0.00 581.55 240.00" xmlns="http://www.w3.org/2000/svg" xmlns:xlink="http://www.w3.org/1999/xlink">
<g id="graph0" class="graph" transform="scale(1 1) rotate(0) translate(4 236)">
<title>Domain/Net/Authentication/Authenticator.cpp</title>
<polygon fill="#ffffff" stroke="transparent" points="-4,4 -4,-236 577.5494,-236 577.5494,4 -4,4"/>
<!-- Node0 -->
<g id="node1" class="node">
<title>Node0</title>
<polygon fill="#bfbfbf" stroke="#000000" points="177.0494,-201.5 177.0494,-231.5 311.0494,-231.5 311.0494,-201.5 177.0494,-201.5"/>
<text text-anchor="start" x="185.0494" y="-219.5" font-family="Helvetica,sans-Serif" font-size="10.00" fill="#000000">Domain/Net/Authentication</text>
<text text-anchor="middle" x="244.0494" y="-208.5" font-family="Helvetica,sans-Serif" font-size="10.00" fill="#000000">/Authenticator.cpp</text>
</g>
<!-- Node1 -->
<g id="node2" class="node">
<title>Node1</title>
<g id="a_node2"><a xlink:href="Authenticator_8h.html" target="_top" xlink:title="Asteroids/Domain/Net\l/Authentication/Authenticator.h">
<polygon fill="#ffffff" stroke="#000000" points="116.5494,-134.5 116.5494,-164.5 267.5494,-164.5 267.5494,-134.5 116.5494,-134.5"/>
<text text-anchor="start" x="124.5494" y="-152.5" font-family="Helvetica,sans-Serif" font-size="10.00" fill="#000000">Asteroids/Domain/Net</text>
<text text-anchor="middle" x="192.0494" y="-141.5" font-family="Helvetica,sans-Serif" font-size="10.00" fill="#000000">/Authentication/Authenticator.h</text>
</a>
</g>
</g>
<!-- Node0&#45;&gt;Node1 -->
<g id="edge1" class="edge">
<title>Node0&#45;&gt;Node1</title>
<path fill="none" stroke="#191970" d="M232.2498,-201.2967C225.6678,-192.816 217.3342,-182.0785 209.9635,-172.5817"/>
<polygon fill="#191970" stroke="#191970" points="212.6986,-170.3971 203.8023,-164.6432 207.1686,-174.689 212.6986,-170.3971"/>
</g>
<!-- Node3 -->
<g id="node4" class="node">
<title>Node3</title>
<g id="a_node4"><a xlink:href="AuthenticationInterface_8h.html" target="_top" xlink:title="Asteroids/Domain/Net\l/Authentication/Authentication\lInterface.h">
<polygon fill="#ffffff" stroke="#000000" points="16.5494,-56.5 16.5494,-97.5 163.5494,-97.5 163.5494,-56.5 16.5494,-56.5"/>
<text text-anchor="start" x="24.5494" y="-85.5" font-family="Helvetica,sans-Serif" font-size="10.00" fill="#000000">Asteroids/Domain/Net</text>
<text text-anchor="start" x="24.5494" y="-74.5" font-family="Helvetica,sans-Serif" font-size="10.00" fill="#000000">/Authentication/Authentication</text>
<text text-anchor="middle" x="90.0494" y="-63.5" font-family="Helvetica,sans-Serif" font-size="10.00" fill="#000000">Interface.h</text>
</a>
</g>
</g>
<!-- Node0&#45;&gt;Node3 -->
<g id="edge9" class="edge">
<title>Node0&#45;&gt;Node3</title>
<path fill="none" stroke="#191970" d="M177.0195,-205.6885C151.6475,-198.2982 124.668,-185.8739 107.0494,-165 93.7316,-149.2214 89.6526,-126.1566 88.8129,-107.5984"/>
<polygon fill="#191970" stroke="#191970" points="92.3117,-107.4946 88.6443,-97.5548 85.3127,-107.6122 92.3117,-107.4946"/>
</g>
<!-- Node6 -->
<g id="node7" class="node">
<title>Node6</title>
<g id="a_node7"><a xlink:href="AUTH__ATTEMPT_8h.html" target="_top" xlink:title="Asteroids/Domain/Net\l/Messages/AUTH_ATTEMPT.h">
<polygon fill="#ffffff" stroke="#000000" points="418.5494,-62 418.5494,-92 573.5494,-92 573.5494,-62 418.5494,-62"/>
<text text-anchor="start" x="426.5494" y="-80" font-family="Helvetica,sans-Serif" font-size="10.00" fill="#000000">Asteroids/Domain/Net</text>
<text text-anchor="middle" x="496.0494" y="-69" font-family="Helvetica,sans-Serif" font-size="10.00" fill="#000000">/Messages/AUTH_ATTEMPT.h</text>
</a>
</g>
</g>
<!-- Node0&#45;&gt;Node6 -->
<g id="edge10" class="edge">
<title>Node0&#45;&gt;Node6</title>
<path fill="none" stroke="#191970" d="M271.4975,-201.3055C317.1316,-176.0438 408.6187,-125.3991 459.6061,-97.1739"/>
<polygon fill="#191970" stroke="#191970" points="461.5813,-100.0811 468.6351,-92.1758 458.1911,-93.9568 461.5813,-100.0811"/>
</g>
<!-- Node7 -->
<g id="node8" class="node">
<title>Node7</title>
<g id="a_node8"><a xlink:href="AUTH__STATE_8h.html" target="_top" xlink:title="Asteroids/Domain/Net\l/Messages/AUTH_STATE.h">
<polygon fill="#ffffff" stroke="#000000" points="220.5494,-62 220.5494,-92 361.5494,-92 361.5494,-62 220.5494,-62"/>
<text text-anchor="start" x="228.5494" y="-80" font-family="Helvetica,sans-Serif" font-size="10.00" fill="#000000">Asteroids/Domain/Net</text>
<text text-anchor="middle" x="291.0494" y="-69" font-family="Helvetica,sans-Serif" font-size="10.00" fill="#000000">/Messages/AUTH_STATE.h</text>
</a>
</g>
</g>
<!-- Node0&#45;&gt;Node7 -->
<g id="edge13" class="edge">
<title>Node0&#45;&gt;Node7</title>
<path fill="none" stroke="#191970" d="M255.8324,-201.1014C262.7695,-191.2786 271.1234,-177.9923 276.0494,-165 283.7753,-144.623 287.5395,-120.0816 289.3631,-102.0982"/>
<polygon fill="#191970" stroke="#191970" points="292.853,-102.3662 290.247,-92.0968 285.8802,-101.7499 292.853,-102.3662"/>
</g>
<!-- Node2 -->
<g id="node3" class="node">
<title>Node2</title>
<g id="a_node3"><a xlink:href="ForwardDeclarations_8h.html" target="_top" xlink:title="Asteroids/ForwardDeclarations.h">
<polygon fill="#ffffff" stroke="#000000" points="132.5494,-.5 132.5494,-19.5 291.5494,-19.5 291.5494,-.5 132.5494,-.5"/>
<text text-anchor="middle" x="212.0494" y="-7.5" font-family="Helvetica,sans-Serif" font-size="10.00" fill="#000000">Asteroids/ForwardDeclarations.h</text>
</a>
</g>
</g>
<!-- Node1&#45;&gt;Node2 -->
<g id="edge2" class="edge">
<title>Node1&#45;&gt;Node2</title>
<path fill="none" stroke="#191970" d="M194.2278,-134.3055C197.8583,-108.9831 205.1454,-58.1556 209.1862,-29.9709"/>
<polygon fill="#191970" stroke="#191970" points="212.6988,-30.1322 210.6535,-19.7366 205.7696,-29.1387 212.6988,-30.1322"/>
</g>
<!-- Node1&#45;&gt;Node3 -->
<g id="edge3" class="edge">
<title>Node1&#45;&gt;Node3</title>
<path fill="none" stroke="#191970" d="M170.9149,-134.478C158.33,-125.5328 141.9988,-113.9248 127.3105,-103.4846"/>
<polygon fill="#191970" stroke="#191970" points="129.0715,-100.4422 118.8929,-97.5015 125.016,-106.1478 129.0715,-100.4422"/>
</g>
<!-- Node4 -->
<g id="node5" class="node">
<title>Node4</title>
<polygon fill="#ffffff" stroke="#bfbfbf" points="23.0494,-.5 23.0494,-19.5 75.0494,-19.5 75.0494,-.5 23.0494,-.5"/>
<text text-anchor="middle" x="49.0494" y="-7.5" font-family="Helvetica,sans-Serif" font-size="10.00" fill="#000000">memory</text>
</g>
<!-- Node1&#45;&gt;Node4 -->
<g id="edge8" class="edge">
<title>Node1&#45;&gt;Node4</title>
<path fill="none" stroke="#191970" d="M116.2532,-137.8703C71.3647,-129.2616 20.6622,-115.9199 7.0494,-98 -4.2421,-83.1358 .2995,-73.4035 7.0494,-56 11.4352,-44.692 20.0396,-34.463 28.3243,-26.5381"/>
<polygon fill="#191970" stroke="#191970" points="30.8795,-28.9494 36.0214,-19.6859 26.225,-23.721 30.8795,-28.9494"/>
</g>
<!-- Node5 -->
<g id="node6" class="node">
<title>Node5</title>
<polygon fill="#ffffff" stroke="#bfbfbf" points="349.5494,-.5 349.5494,-19.5 390.5494,-19.5 390.5494,-.5 349.5494,-.5"/>
<text text-anchor="middle" x="370.0494" y="-7.5" font-family="Helvetica,sans-Serif" font-size="10.00" fill="#000000">string</text>
</g>
<!-- Node1&#45;&gt;Node5 -->
<g id="edge7" class="edge">
<title>Node1&#45;&gt;Node5</title>
<path fill="none" stroke="#191970" d="M267.8353,-137.057C310.6654,-128.3096 358.1642,-115.1151 371.0494,-98 385.7904,-78.4199 381.6653,-48.8262 376.5294,-29.4557"/>
<polygon fill="#191970" stroke="#191970" points="379.8121,-28.2157 373.6047,-19.6297 373.103,-30.2126 379.8121,-28.2157"/>
</g>
<!-- Node3&#45;&gt;Node2 -->
<g id="edge4" class="edge">
<title>Node3&#45;&gt;Node2</title>
<path fill="none" stroke="#191970" d="M127.6489,-56.3511C146.4342,-46.0346 168.7093,-33.8015 185.6576,-24.4939"/>
<polygon fill="#191970" stroke="#191970" points="187.3889,-27.5362 194.4693,-19.6546 184.0193,-21.4005 187.3889,-27.5362"/>
</g>
<!-- Node3&#45;&gt;Node4 -->
<g id="edge5" class="edge">
<title>Node3&#45;&gt;Node4</title>
<path fill="none" stroke="#191970" d="M77.3015,-56.168C71.8464,-47.2536 65.5324,-36.9356 60.2587,-28.3177"/>
<polygon fill="#191970" stroke="#191970" points="63.2396,-26.4833 55.0345,-19.7805 57.2688,-30.137 63.2396,-26.4833"/>
</g>
<!-- Node3&#45;&gt;Node5 -->
<g id="edge6" class="edge">
<title>Node3&#45;&gt;Node5</title>
<path fill="none" stroke="#191970" d="M163.6161,-59.3965C220.9746,-45.6715 297.701,-27.3119 339.5933,-17.2877"/>
<polygon fill="#191970" stroke="#191970" points="340.5494,-20.6578 349.4603,-14.9267 338.9204,-13.85 340.5494,-20.6578"/>
</g>
<!-- Node6&#45;&gt;Node2 -->
<g id="edge11" class="edge">
<title>Node6&#45;&gt;Node2</title>
<path fill="none" stroke="#191970" d="M432.3143,-61.9639C380.861,-49.8253 309.4705,-32.9831 262.0743,-21.8016"/>
<polygon fill="#191970" stroke="#191970" points="262.877,-18.395 252.3405,-19.5053 261.2696,-25.208 262.877,-18.395"/>
</g>
<!-- Node6&#45;&gt;Node5 -->
<g id="edge12" class="edge">
<title>Node6&#45;&gt;Node5</title>
<path fill="none" stroke="#191970" d="M467.7725,-61.9639C446.6314,-50.7222 417.9036,-35.4463 397.071,-24.3686"/>
<polygon fill="#191970" stroke="#191970" points="398.5831,-21.2087 388.1105,-19.6039 395.2966,-27.3892 398.5831,-21.2087"/>
</g>
<!-- Node7&#45;&gt;Node2 -->
<g id="edge14" class="edge">
<title>Node7&#45;&gt;Node2</title>
<path fill="none" stroke="#191970" d="M273.1231,-61.7967C260.5755,-51.1551 243.8383,-36.9602 231.0586,-26.1217"/>
<polygon fill="#191970" stroke="#191970" points="233.2061,-23.3538 223.3157,-19.555 228.6784,-28.6924 233.2061,-23.3538"/>
</g>
<!-- Node7&#45;&gt;Node5 -->
<g id="edge15" class="edge">
<title>Node7&#45;&gt;Node5</title>
<path fill="none" stroke="#191970" d="M308.9757,-61.7967C321.5233,-51.1551 338.2605,-36.9602 351.0403,-26.1217"/>
<polygon fill="#191970" stroke="#191970" points="353.4204,-28.6924 358.7831,-19.555 348.8927,-23.3538 353.4204,-28.6924"/>
</g>
</g>
</svg>
