<?xml version="1.0" encoding="UTF-8" standalone="no"?>
<!DOCTYPE svg PUBLIC "-//W3C//DTD SVG 1.1//EN"
 "http://www.w3.org/Graphics/SVG/1.1/DTD/svg11.dtd">
<!-- Generated by graphviz version 2.40.1 (20161225.0304)
 -->
<!-- Title: Domain/Net/Authentication/Authenticator.h Pages: 1 -->
<svg width="374pt" height="162pt"
 viewBox="0.00 0.00 374.00 162.00" xmlns="http://www.w3.org/2000/svg" xmlns:xlink="http://www.w3.org/1999/xlink">
<g id="graph0" class="graph" transform="scale(1 1) rotate(0) translate(4 158)">
<title>Domain/Net/Authentication/Authenticator.h</title>
<polygon fill="#ffffff" stroke="transparent" points="-4,4 -4,-158 370,-158 370,4 -4,4"/>
<!-- Node5 -->
<g id="node1" class="node">
<title>Node5</title>
<polygon fill="#bfbfbf" stroke="#000000" points="75,-123.5 75,-153.5 209,-153.5 209,-123.5 75,-123.5"/>
<text text-anchor="start" x="83" y="-141.5" font-family="Helvetica,sans-Serif" font-size="10.00" fill="#000000">Domain/Net/Authentication</text>
<text text-anchor="middle" x="142" y="-130.5" font-family="Helvetica,sans-Serif" font-size="10.00" fill="#000000">/Authenticator.h</text>
</g>
<!-- Node6 -->
<g id="node2" class="node">
<title>Node6</title>
<g id="a_node2"><a xlink:href="Authenticator_8cpp.html" target="_top" xlink:title="Domain/Net/Authentication\l/Authenticator.cpp">
<polygon fill="#ffffff" stroke="#000000" points="0,-56.5 0,-86.5 134,-86.5 134,-56.5 0,-56.5"/>
<text text-anchor="start" x="8" y="-74.5" font-family="Helvetica,sans-Serif" font-size="10.00" fill="#000000">Domain/Net/Authentication</text>
<text text-anchor="middle" x="67" y="-63.5" font-family="Helvetica,sans-Serif" font-size="10.00" fill="#000000">/Authenticator.cpp</text>
</a>
</g>
</g>
<!-- Node5&#45;&gt;Node6 -->
<g id="edge1" class="edge">
<title>Node5&#45;&gt;Node6</title>
<path fill="none" stroke="#191970" d="M117.3692,-116.4965C106.4246,-106.7193 93.8157,-95.4554 83.9513,-86.6432"/>
<polygon fill="#191970" stroke="#191970" points="115.1919,-119.2447 124.9813,-123.2967 119.8555,-114.0243 115.1919,-119.2447"/>
</g>
<!-- Node7 -->
<g id="node3" class="node">
<title>Node7</title>
<g id="a_node3"><a xlink:href="NetFactory_8h.html" target="_top" xlink:title="Domain/Net/NetFactory.h">
<polygon fill="#ffffff" stroke="#000000" points="152.5,-62 152.5,-81 281.5,-81 281.5,-62 152.5,-62"/>
<text text-anchor="middle" x="217" y="-69" font-family="Helvetica,sans-Serif" font-size="10.00" fill="#000000">Domain/Net/NetFactory.h</text>
</a>
</g>
</g>
<!-- Node5&#45;&gt;Node7 -->
<g id="edge2" class="edge">
<title>Node5&#45;&gt;Node7</title>
<path fill="none" stroke="#191970" d="M166.5814,-116.5406C180.0266,-104.5296 195.9959,-90.2637 206.3041,-81.055"/>
<polygon fill="#191970" stroke="#191970" points="164.1445,-114.0243 159.0187,-123.2967 168.8081,-119.2447 164.1445,-114.0243"/>
</g>
<!-- Node8 -->
<g id="node4" class="node">
<title>Node8</title>
<g id="a_node4"><a xlink:href="Factory_8cpp.html" target="_top" xlink:title="Domain/Factory/Factory.cpp">
<polygon fill="#ffffff" stroke="#000000" points="66.5,-.5 66.5,-19.5 207.5,-19.5 207.5,-.5 66.5,-.5"/>
<text text-anchor="middle" x="137" y="-7.5" font-family="Helvetica,sans-Serif" font-size="10.00" fill="#000000">Domain/Factory/Factory.cpp</text>
</a>
</g>
</g>
<!-- Node7&#45;&gt;Node8 -->
<g id="edge3" class="edge">
<title>Node7&#45;&gt;Node8</title>
<path fill="none" stroke="#191970" d="M196.381,-55.6491C181.5164,-44.222 161.943,-29.1749 149.4122,-19.5419"/>
<polygon fill="#191970" stroke="#191970" points="194.4387,-58.5707 204.5,-61.8906 198.7051,-53.021 194.4387,-58.5707"/>
</g>
<!-- Node9 -->
<g id="node5" class="node">
<title>Node9</title>
<g id="a_node5"><a xlink:href="NetFactory_8cpp.html" target="_top" xlink:title="Domain/Net/NetFactory.cpp">
<polygon fill="#ffffff" stroke="#000000" points="226,-.5 226,-19.5 366,-19.5 366,-.5 226,-.5"/>
<text text-anchor="middle" x="296" y="-7.5" font-family="Helvetica,sans-Serif" font-size="10.00" fill="#000000">Domain/Net/NetFactory.cpp</text>
</a>
</g>
</g>
<!-- Node7&#45;&gt;Node9 -->
<g id="edge4" class="edge">
<title>Node7&#45;&gt;Node9</title>
<path fill="none" stroke="#191970" d="M237.3613,-55.6491C252.04,-44.222 271.3688,-29.1749 283.7429,-19.5419"/>
<polygon fill="#191970" stroke="#191970" points="235.0846,-52.9859 229.3438,-61.8906 239.3846,-58.5095 235.0846,-52.9859"/>
</g>
</g>
</svg>
