<?xml version="1.0" encoding="UTF-8" standalone="no"?>
<!DOCTYPE svg PUBLIC "-//W3C//DTD SVG 1.1//EN"
 "http://www.w3.org/Graphics/SVG/1.1/DTD/svg11.dtd">
<!-- Generated by graphviz version 2.40.1 (20161225.0304)
 -->
<!-- Title: Asteroids::Domain::Store::StoreFactory Pages: 1 -->
<svg width="165pt" height="259pt"
 viewBox="0.00 0.00 165.00 259.00" xmlns="http://www.w3.org/2000/svg" xmlns:xlink="http://www.w3.org/1999/xlink">
<g id="graph0" class="graph" transform="scale(1 1) rotate(0) translate(4 255)">
<title>Asteroids::Domain::Store::StoreFactory</title>
<polygon fill="#ffffff" stroke="transparent" points="-4,4 -4,-255 161,-255 161,4 -4,4"/>
<!-- Node0 -->
<g id="node1" class="node">
<title>Node0</title>
<polygon fill="#bfbfbf" stroke="#000000" points="0,-.5 0,-112.5 157,-112.5 157,-.5 0,-.5"/>
<text text-anchor="start" x="8" y="-100.5" font-family="Helvetica,sans-Serif" font-size="10.00" fill="#000000">Asteroids::Domain::</text>
<text text-anchor="middle" x="78.5" y="-89.5" font-family="Helvetica,sans-Serif" font-size="10.00" fill="#000000">Store::StoreFactory</text>
<polyline fill="none" stroke="#000000" points="0,-82.5 157,-82.5 "/>
<text text-anchor="start" x="8" y="-70.5" font-family="Helvetica,sans-Serif" font-size="10.00" fill="#000000">&#45; _factory</text>
<polyline fill="none" stroke="#000000" points="0,-63.5 157,-63.5 "/>
<text text-anchor="start" x="8" y="-51.5" font-family="Helvetica,sans-Serif" font-size="10.00" fill="#000000">+ StoreFactory()</text>
<text text-anchor="start" x="8" y="-40.5" font-family="Helvetica,sans-Serif" font-size="10.00" fill="#000000">+ createPaymentHelper()</text>
<text text-anchor="start" x="8" y="-29.5" font-family="Helvetica,sans-Serif" font-size="10.00" fill="#000000">+ createPaymentResultDetails()</text>
<text text-anchor="start" x="8" y="-18.5" font-family="Helvetica,sans-Serif" font-size="10.00" fill="#000000">+ createPowerUpAddedInfo()</text>
<text text-anchor="start" x="8" y="-7.5" font-family="Helvetica,sans-Serif" font-size="10.00" fill="#000000">+ createStore()</text>
</g>
<!-- Node1 -->
<g id="node2" class="node">
<title>Node1</title>
<g id="a_node2"><a xlink:href="classAsteroids_1_1Domain_1_1Store_1_1StoreFactoryInterface.html" target="_top" xlink:title="Creates things inside the Store package. ">
<polygon fill="#ffffff" stroke="#000000" points="0,-149.5 0,-250.5 157,-250.5 157,-149.5 0,-149.5"/>
<text text-anchor="start" x="8" y="-238.5" font-family="Helvetica,sans-Serif" font-size="10.00" fill="#000000">Asteroids::Domain::</text>
<text text-anchor="middle" x="78.5" y="-227.5" font-family="Helvetica,sans-Serif" font-size="10.00" fill="#000000">Store::StoreFactoryInterface</text>
<polyline fill="none" stroke="#000000" points="0,-220.5 157,-220.5 "/>
<text text-anchor="middle" x="78.5" y="-208.5" font-family="Helvetica,sans-Serif" font-size="10.00" fill="#000000"> </text>
<polyline fill="none" stroke="#000000" points="0,-201.5 157,-201.5 "/>
<text text-anchor="start" x="8" y="-189.5" font-family="Helvetica,sans-Serif" font-size="10.00" fill="#000000">+ createPaymentHelper()</text>
<text text-anchor="start" x="8" y="-178.5" font-family="Helvetica,sans-Serif" font-size="10.00" fill="#000000">+ createPaymentResultDetails()</text>
<text text-anchor="start" x="8" y="-167.5" font-family="Helvetica,sans-Serif" font-size="10.00" fill="#000000">+ createPowerUpAddedInfo()</text>
<text text-anchor="start" x="8" y="-156.5" font-family="Helvetica,sans-Serif" font-size="10.00" fill="#000000">+ createStore()</text>
</a>
</g>
</g>
<!-- Node1&#45;&gt;Node0 -->
<g id="edge1" class="edge">
<title>Node1&#45;&gt;Node0</title>
<path fill="none" stroke="#191970" d="M78.5,-139.3006C78.5,-130.5766 78.5,-121.6293 78.5,-112.9913"/>
<polygon fill="none" stroke="#191970" points="75.0001,-139.4072 78.5,-149.4073 82.0001,-139.4073 75.0001,-139.4072"/>
</g>
</g>
</svg>
