<?xml version="1.0" encoding="UTF-8" standalone="no"?>
<!DOCTYPE svg PUBLIC "-//W3C//DTD SVG 1.1//EN"
 "http://www.w3.org/Graphics/SVG/1.1/DTD/svg11.dtd">
<!-- Generated by graphviz version 2.40.1 (20161225.0304)
 -->
<!-- Title: Asteroids::UI::ClientTextUI::ClientTextUI::run Pages: 1 -->
<!--zoomable 807 -->
<svg id="main" version="1.1" xmlns="http://www.w3.org/2000/svg" xmlns:xlink="http://www.w3.org/1999/xlink" xml:space="preserve" onload="init(evt)">
<style type="text/css"><![CDATA[
.edge:hover path { stroke: red; }
.edge:hover polygon { stroke: red; fill: red; }
]]></style>
<script type="text/javascript"><![CDATA[
var edges = document.getElementsByTagName('g');
if (edges && edges.length) {
  for (var i=0;i<edges.length;i++) {
    if (edges[i].id.substr(0,4)=='edge') {
      edges[i].setAttribute('class','edge');
    }
  }
}
]]></script>
        <defs>
                <circle id="rim" cx="0" cy="0" r="7"/>
                <circle id="rim2" cx="0" cy="0" r="3.5"/>
                <g id="zoomPlus">
                        <use xlink:href="#rim" fill="#404040">
                                <set attributeName="fill" to="#808080" begin="zoomplus.mouseover" end="zoomplus.mouseout"/>
                        </use>
                        <path d="M-4,0h8M0,-4v8" fill="none" stroke="white" stroke-width="1.5" pointer-events="none"/>
                </g>
                <g id="zoomMin">
                        <use xlink:href="#rim" fill="#404040">
                                <set attributeName="fill" to="#808080" begin="zoomminus.mouseover" end="zoomminus.mouseout"/>
                        </use>
                        <path d="M-4,0h8" fill="none" stroke="white" stroke-width="1.5" pointer-events="none"/>
                </g>
                <g id="dirArrow">
                        <path fill="none" stroke="white" stroke-width="1.5" d="M0,-3.0v7 M-2.5,-0.5L0,-3.0L2.5,-0.5"/>
                </g>
               <g id="resetDef">
                       <use xlink:href="#rim2" fill="#404040">
                               <set attributeName="fill" to="#808080" begin="reset.mouseover" end="reset.mouseout"/>
                       </use>
               </g>
        </defs>

<script type="text/javascript">
var viewWidth = 1605;
var viewHeight = 807;
var sectionId = 'dynsection-32';
</script>
<script xlink:href="svgpan.js"/>
<svg id="graph" class="graph">
<g id="viewport">
<title>Asteroids::UI::ClientTextUI::ClientTextUI::run</title>
<polygon fill="#ffffff" stroke="transparent" points="-4,4 -4,-803.0397 1601,-803.0397 1601,4 -4,4"/>
<!-- Node139 -->
<g id="node1" class="node">
<title>Node139</title>
<polygon fill="#bfbfbf" stroke="#000000" points="0,-414.5397 0,-444.5397 125,-444.5397 125,-414.5397 0,-414.5397"/>
<text text-anchor="start" x="8" y="-432.5397" font-family="Helvetica,sans-Serif" font-size="10.00" fill="#000000">Asteroids::UI::ClientText</text>
<text text-anchor="middle" x="62.5" y="-421.5397" font-family="Helvetica,sans-Serif" font-size="10.00" fill="#000000">UI::ClientTextUI::run</text>
</g>
<!-- Node140 -->
<g id="node2" class="node">
<title>Node140</title>
<g id="a_node2"><a xlink:href="classAsteroids_1_1UI_1_1ClientTextUI_1_1ClientTextUI.html#ac3cec81751843b8e8fa503af51b17546" target="_top" xlink:title="Asteroids::UI::ClientText\lUI::ClientTextUI::demand\l_authentication">
<polygon fill="#ffffff" stroke="#000000" points="1024.5,-708.0397 1024.5,-749.0397 1153.5,-749.0397 1153.5,-708.0397 1024.5,-708.0397"/>
<text text-anchor="start" x="1032.5" y="-737.0397" font-family="Helvetica,sans-Serif" font-size="10.00" fill="#000000">Asteroids::UI::ClientText</text>
<text text-anchor="start" x="1032.5" y="-726.0397" font-family="Helvetica,sans-Serif" font-size="10.00" fill="#000000">UI::ClientTextUI::demand</text>
<text text-anchor="middle" x="1089" y="-715.0397" font-family="Helvetica,sans-Serif" font-size="10.00" fill="#000000">_authentication</text>
</a>
</g>
</g>
<!-- Node139&#45;&gt;Node140 -->
<g id="edge1" class="edge">
<title>Node139&#45;&gt;Node140</title>
<path fill="none" stroke="#191970" d="M70.4448,-444.6615C101.8304,-502.1025 223.3808,-703.5397 384.5,-703.5397 384.5,-703.5397 384.5,-703.5397 731.5,-703.5397 829.1986,-703.5397 941.5504,-712.9459 1013.8207,-720.2189"/>
<polygon fill="#191970" stroke="#191970" points="1013.8828,-723.7433 1024.1861,-721.2751 1014.5925,-716.7793 1013.8828,-723.7433"/>
</g>
<!-- Node143 -->
<g id="node5" class="node">
<title>Node143</title>
<g id="a_node5"><a xlink:href="classAsteroids_1_1UI_1_1ClientTextUI_1_1ClientTextUI.html#a41f904ea570af3e3a8c4d70da8411ef3" target="_top" xlink:title="Asteroids::UI::ClientText\lUI::ClientTextUI::print">
<polygon fill="#ffffff" stroke="#000000" points="1443.5,-334.5397 1443.5,-364.5397 1568.5,-364.5397 1568.5,-334.5397 1443.5,-334.5397"/>
<text text-anchor="start" x="1451.5" y="-352.5397" font-family="Helvetica,sans-Serif" font-size="10.00" fill="#000000">Asteroids::UI::ClientText</text>
<text text-anchor="middle" x="1506" y="-341.5397" font-family="Helvetica,sans-Serif" font-size="10.00" fill="#000000">UI::ClientTextUI::print</text>
</a>
</g>
</g>
<!-- Node139&#45;&gt;Node143 -->
<g id="edge36" class="edge">
<title>Node139&#45;&gt;Node143</title>
<path fill="none" stroke="#191970" d="M66.1877,-414.4981C85.2598,-340.7091 179.8073,-20.5397 384.5,-20.5397 384.5,-20.5397 384.5,-20.5397 1089,-20.5397 1218.1652,-20.5397 1274.1536,35.8982 1379,-39.5397 1403.754,-57.3505 1473.1906,-254.0512 1497.4804,-324.5684"/>
<polygon fill="#191970" stroke="#191970" points="1494.2946,-326.0678 1500.8521,-334.3895 1500.9153,-323.7949 1494.2946,-326.0678"/>
</g>
<!-- Node144 -->
<g id="node6" class="node">
<title>Node144</title>
<g id="a_node6"><a xlink:href="classAsteroids_1_1UI_1_1ClientTextUI_1_1ClientTextUI.html#a67521714973f97f76618f9598d34d3b8" target="_top" xlink:title="Asteroids::UI::ClientText\lUI::ClientTextUI::main\l_menu_loop">
<polygon fill="#ffffff" stroke="#000000" points="161,-409.0397 161,-450.0397 286,-450.0397 286,-409.0397 161,-409.0397"/>
<text text-anchor="start" x="169" y="-438.0397" font-family="Helvetica,sans-Serif" font-size="10.00" fill="#000000">Asteroids::UI::ClientText</text>
<text text-anchor="start" x="169" y="-427.0397" font-family="Helvetica,sans-Serif" font-size="10.00" fill="#000000">UI::ClientTextUI::main</text>
<text text-anchor="middle" x="223.5" y="-416.0397" font-family="Helvetica,sans-Serif" font-size="10.00" fill="#000000">_menu_loop</text>
</a>
</g>
</g>
<!-- Node139&#45;&gt;Node144 -->
<g id="edge6" class="edge">
<title>Node139&#45;&gt;Node144</title>
<path fill="none" stroke="#191970" d="M125.2078,-429.5397C133.6481,-429.5397 142.3631,-429.5397 150.9559,-429.5397"/>
<polygon fill="#191970" stroke="#191970" points="150.9634,-433.0398 160.9633,-429.5397 150.9633,-426.0398 150.9634,-433.0398"/>
</g>
<!-- Node141 -->
<g id="node3" class="node">
<title>Node141</title>
<g id="a_node3"><a xlink:href="classAsteroids_1_1UI_1_1ClientTextUI_1_1ClientTextUI.html#a96251b4d6623fda575f39b84677b0ed5" target="_top" xlink:title="Asteroids::UI::ClientText\lUI::ClientTextUI::do_authentication">
<polygon fill="#ffffff" stroke="#000000" points="1202,-757.5397 1202,-787.5397 1373,-787.5397 1373,-757.5397 1202,-757.5397"/>
<text text-anchor="start" x="1210" y="-775.5397" font-family="Helvetica,sans-Serif" font-size="10.00" fill="#000000">Asteroids::UI::ClientText</text>
<text text-anchor="middle" x="1287.5" y="-764.5397" font-family="Helvetica,sans-Serif" font-size="10.00" fill="#000000">UI::ClientTextUI::do_authentication</text>
</a>
</g>
</g>
<!-- Node140&#45;&gt;Node141 -->
<g id="edge2" class="edge">
<title>Node140&#45;&gt;Node141</title>
<path fill="none" stroke="#191970" d="M1153.7217,-742.8861C1171.6552,-746.8613 1191.3069,-751.2173 1209.8941,-755.3374"/>
<polygon fill="#191970" stroke="#191970" points="1209.2759,-758.7853 1219.7964,-757.5324 1210.7908,-751.9511 1209.2759,-758.7853"/>
</g>
<!-- Node140&#45;&gt;Node143 -->
<g id="edge5" class="edge">
<title>Node140&#45;&gt;Node143</title>
<path fill="none" stroke="#191970" d="M1153.6222,-732.318C1228.1517,-735.323 1344.8205,-735.4443 1379,-709.5397 1434.8811,-667.1876 1485.1485,-448.9073 1500.906,-374.455"/>
<polygon fill="#191970" stroke="#191970" points="1504.3558,-375.0566 1502.977,-364.5519 1497.5041,-373.6237 1504.3558,-375.0566"/>
</g>
<!-- Node142 -->
<g id="node4" class="node">
<title>Node142</title>
<g id="a_node4"><a xlink:href="classAsteroids_1_1Domain_1_1Net_1_1Authentication_1_1AuthenticationInterface.html#a2358abf451a5aa6df9d29e9dfda2898c" target="_top" xlink:title="Asteroids::Domain::\lNet::Authentication\l::AuthenticationInterface\l::attemptLogin">
<polygon fill="#ffffff" stroke="#000000" points="1444.5,-746.5397 1444.5,-798.5397 1567.5,-798.5397 1567.5,-746.5397 1444.5,-746.5397"/>
<text text-anchor="start" x="1452.5" y="-786.5397" font-family="Helvetica,sans-Serif" font-size="10.00" fill="#000000">Asteroids::Domain::</text>
<text text-anchor="start" x="1452.5" y="-775.5397" font-family="Helvetica,sans-Serif" font-size="10.00" fill="#000000">Net::Authentication</text>
<text text-anchor="start" x="1452.5" y="-764.5397" font-family="Helvetica,sans-Serif" font-size="10.00" fill="#000000">::AuthenticationInterface</text>
<text text-anchor="middle" x="1506" y="-753.5397" font-family="Helvetica,sans-Serif" font-size="10.00" fill="#000000">::attemptLogin</text>
</a>
</g>
</g>
<!-- Node141&#45;&gt;Node142 -->
<g id="edge3" class="edge">
<title>Node141&#45;&gt;Node142</title>
<path fill="none" stroke="#191970" d="M1373.2299,-772.5397C1393.4904,-772.5397 1414.8838,-772.5397 1434.4408,-772.5397"/>
<polygon fill="#191970" stroke="#191970" points="1434.4848,-776.0398 1444.4847,-772.5397 1434.4847,-769.0398 1434.4848,-776.0398"/>
</g>
<!-- Node141&#45;&gt;Node143 -->
<g id="edge4" class="edge">
<title>Node141&#45;&gt;Node143</title>
<path fill="none" stroke="#191970" d="M1357.5228,-757.4853C1365.449,-753.5951 1372.8662,-748.6998 1379,-742.5397 1406.2033,-715.2202 1477.3366,-456.4192 1499.3858,-374.3674"/>
<polygon fill="#191970" stroke="#191970" points="1502.7871,-375.196 1501.9944,-364.6308 1496.0256,-373.3843 1502.7871,-375.196"/>
</g>
<!-- Node144&#45;&gt;Node143 -->
<g id="edge18" class="edge">
<title>Node144&#45;&gt;Node143</title>
<path fill="none" stroke="#191970" d="M239.9603,-450.1555C284.3585,-503.2486 412.7274,-640.5397 553,-640.5397 553,-640.5397 553,-640.5397 1089,-640.5397 1218.6712,-640.5397 1272.8939,-683.079 1379,-608.5397 1460.0846,-551.578 1491.6959,-427.9413 1501.8713,-374.7283"/>
<polygon fill="#191970" stroke="#191970" points="1505.3352,-375.2422 1503.6783,-364.7777 1498.4478,-373.9914 1505.3352,-375.2422"/>
</g>
<!-- Node145 -->
<g id="node7" class="node">
<title>Node145</title>
<g id="a_node7"><a xlink:href="classAsteroids_1_1UI_1_1ClientTextUI_1_1ClientTextUI.html#ac6ed983203b9d88a3a7d532eeceac524" target="_top" xlink:title="Asteroids::UI::ClientText\lUI::ClientTextUI::find\l_friends_on_social_media">
<polygon fill="#ffffff" stroke="#000000" points="488.5,-435.0397 488.5,-476.0397 617.5,-476.0397 617.5,-435.0397 488.5,-435.0397"/>
<text text-anchor="start" x="496.5" y="-464.0397" font-family="Helvetica,sans-Serif" font-size="10.00" fill="#000000">Asteroids::UI::ClientText</text>
<text text-anchor="start" x="496.5" y="-453.0397" font-family="Helvetica,sans-Serif" font-size="10.00" fill="#000000">UI::ClientTextUI::find</text>
<text text-anchor="middle" x="553" y="-442.0397" font-family="Helvetica,sans-Serif" font-size="10.00" fill="#000000">_friends_on_social_media</text>
</a>
</g>
</g>
<!-- Node144&#45;&gt;Node145 -->
<g id="edge7" class="edge">
<title>Node144&#45;&gt;Node145</title>
<path fill="none" stroke="#191970" d="M286.252,-434.4913C340.8571,-438.8001 420.1081,-445.0536 478.0364,-449.6245"/>
<polygon fill="#191970" stroke="#191970" points="477.9857,-453.1313 488.2301,-450.4289 478.5364,-446.153 477.9857,-453.1313"/>
</g>
<!-- Node146 -->
<g id="node8" class="node">
<title>Node146</title>
<g id="a_node8"><a xlink:href="classAsteroids_1_1UI_1_1ClientTextUI_1_1ClientTextUI.html#a9d9c6942f7cf39ddb177df02fbe3e742" target="_top" xlink:title="Asteroids::UI::ClientText\lUI::ClientTextUI::main_menu">
<polygon fill="#ffffff" stroke="#000000" points="659,-195.5397 659,-225.5397 804,-225.5397 804,-195.5397 659,-195.5397"/>
<text text-anchor="start" x="667" y="-213.5397" font-family="Helvetica,sans-Serif" font-size="10.00" fill="#000000">Asteroids::UI::ClientText</text>
<text text-anchor="middle" x="731.5" y="-202.5397" font-family="Helvetica,sans-Serif" font-size="10.00" fill="#000000">UI::ClientTextUI::main_menu</text>
</a>
</g>
</g>
<!-- Node144&#45;&gt;Node146 -->
<g id="edge9" class="edge">
<title>Node144&#45;&gt;Node146</title>
<path fill="none" stroke="#191970" d="M265.4758,-408.9701C282.8784,-400.5836 303.3269,-390.9106 322,-382.5397 452.2318,-324.1586 608.2008,-260.2893 684.6187,-229.3837"/>
<polygon fill="#191970" stroke="#191970" points="686.0182,-232.5932 693.9791,-225.6021 683.3961,-226.1028 686.0182,-232.5932"/>
</g>
<!-- Node147 -->
<g id="node9" class="node">
<title>Node147</title>
<g id="a_node9"><a xlink:href="classAsteroids_1_1UI_1_1ClientTextUI_1_1ClientTextUI.html#aa0cb16ae0f3edc7efed1ec8c5d7bf94d" target="_top" xlink:title="Asteroids::UI::ClientText\lUI::ClientTextUI::play_game">
<polygon fill="#ffffff" stroke="#000000" points="1018,-538.5397 1018,-568.5397 1160,-568.5397 1160,-538.5397 1018,-538.5397"/>
<text text-anchor="start" x="1026" y="-556.5397" font-family="Helvetica,sans-Serif" font-size="10.00" fill="#000000">Asteroids::UI::ClientText</text>
<text text-anchor="middle" x="1089" y="-545.5397" font-family="Helvetica,sans-Serif" font-size="10.00" fill="#000000">UI::ClientTextUI::play_game</text>
</a>
</g>
</g>
<!-- Node144&#45;&gt;Node147 -->
<g id="edge11" class="edge">
<title>Node144&#45;&gt;Node147</title>
<path fill="none" stroke="#191970" d="M263.6586,-450.1385C324.553,-479.4122 444.6464,-529.5397 553,-529.5397 553,-529.5397 553,-529.5397 731.5,-529.5397 826.558,-529.5397 935.515,-538.0914 1007.9067,-544.9853"/>
<polygon fill="#191970" stroke="#191970" points="1007.5839,-548.4703 1017.8736,-545.946 1008.2556,-541.5026 1007.5839,-548.4703"/>
</g>
<!-- Node152 -->
<g id="node14" class="node">
<title>Node152</title>
<g id="a_node14"><a xlink:href="classAsteroids_1_1UI_1_1ClientTextUI_1_1ClientTextUI.html#a27ec39f73edbb3688a3ebe67533abf5a" target="_top" xlink:title="Asteroids::UI::ClientText\lUI::ClientTextUI::review\l_game_history">
<polygon fill="#ffffff" stroke="#000000" points="1026.5,-87.0397 1026.5,-128.0397 1151.5,-128.0397 1151.5,-87.0397 1026.5,-87.0397"/>
<text text-anchor="start" x="1034.5" y="-116.0397" font-family="Helvetica,sans-Serif" font-size="10.00" fill="#000000">Asteroids::UI::ClientText</text>
<text text-anchor="start" x="1034.5" y="-105.0397" font-family="Helvetica,sans-Serif" font-size="10.00" fill="#000000">UI::ClientTextUI::review</text>
<text text-anchor="middle" x="1089" y="-94.0397" font-family="Helvetica,sans-Serif" font-size="10.00" fill="#000000">_game_history</text>
</a>
</g>
</g>
<!-- Node144&#45;&gt;Node152 -->
<g id="edge19" class="edge">
<title>Node144&#45;&gt;Node152</title>
<path fill="none" stroke="#191970" d="M232.5612,-408.7405C264.8427,-338.2165 381.5388,-112.5397 553,-112.5397 553,-112.5397 553,-112.5397 731.5,-112.5397 830.0054,-112.5397 943.7634,-110.6183 1016.01,-109.1577"/>
<polygon fill="#191970" stroke="#191970" points="1016.4351,-112.6498 1026.3613,-108.9458 1016.2918,-105.6513 1016.4351,-112.6498"/>
</g>
<!-- Node155 -->
<g id="node17" class="node">
<title>Node155</title>
<g id="a_node17"><a xlink:href="classAsteroids_1_1UI_1_1ClientTextUI_1_1ClientTextUI.html#ae228a731be242ef0cf88005c2c03acee" target="_top" xlink:title="Asteroids::UI::ClientText\lUI::ClientTextUI::store">
<polygon fill="#ffffff" stroke="#000000" points="322,-391.5397 322,-421.5397 447,-421.5397 447,-391.5397 322,-391.5397"/>
<text text-anchor="start" x="330" y="-409.5397" font-family="Helvetica,sans-Serif" font-size="10.00" fill="#000000">Asteroids::UI::ClientText</text>
<text text-anchor="middle" x="384.5" y="-398.5397" font-family="Helvetica,sans-Serif" font-size="10.00" fill="#000000">UI::ClientTextUI::store</text>
</a>
</g>
</g>
<!-- Node144&#45;&gt;Node155 -->
<g id="edge24" class="edge">
<title>Node144&#45;&gt;Node155</title>
<path fill="none" stroke="#191970" d="M286.2078,-420.5815C294.6481,-419.3757 303.3631,-418.1307 311.9559,-416.9032"/>
<polygon fill="#191970" stroke="#191970" points="312.5588,-420.3527 321.9633,-415.4735 311.5688,-413.423 312.5588,-420.3527"/>
</g>
<!-- Node145&#45;&gt;Node143 -->
<g id="edge8" class="edge">
<title>Node145&#45;&gt;Node143</title>
<path fill="none" stroke="#191970" d="M617.6552,-452.3581C689.3369,-449.1094 808.3995,-444.5397 911,-444.5397 911,-444.5397 911,-444.5397 1089,-444.5397 1218.3295,-444.5397 1255.3013,-458.2857 1379,-420.5397 1415.1501,-409.5087 1452.427,-387.1182 1477.1643,-370.4151"/>
<polygon fill="#191970" stroke="#191970" points="1479.4323,-373.103 1485.6854,-364.5502 1475.4636,-367.3368 1479.4323,-373.103"/>
</g>
<!-- Node146&#45;&gt;Node143 -->
<g id="edge10" class="edge">
<title>Node146&#45;&gt;Node143</title>
<path fill="none" stroke="#191970" d="M804.1236,-198.7466C951.4691,-176.2087 1279.9574,-133.4308 1379,-182.5397 1439.3618,-212.4693 1478.7982,-286.3333 1496.0353,-325.0175"/>
<polygon fill="#191970" stroke="#191970" points="1492.9471,-326.6948 1500.1236,-334.489 1499.3739,-323.9207 1492.9471,-326.6948"/>
</g>
<!-- Node147&#45;&gt;Node143 -->
<g id="edge17" class="edge">
<title>Node147&#45;&gt;Node143</title>
<path fill="none" stroke="#191970" d="M1121.3012,-568.6813C1177.901,-592.7942 1296.7899,-632.4591 1379,-583.5397 1456.7139,-537.2958 1489.8195,-425.0651 1501.11,-374.7157"/>
<polygon fill="#191970" stroke="#191970" points="1504.5869,-375.1929 1503.252,-364.6825 1497.7412,-373.7313 1504.5869,-375.1929"/>
</g>
<!-- Node148 -->
<g id="node10" class="node">
<title>Node148</title>
<g id="a_node10"><a xlink:href="classAsteroids_1_1UI_1_1ClientTextUI_1_1ClientTextUI.html#a68028ff6a5b6d38321496c83ff872158" target="_top" xlink:title="Asteroids::UI::ClientText\lUI::ClientTextUI::draw_game">
<polygon fill="#ffffff" stroke="#000000" points="1215,-669.5397 1215,-699.5397 1360,-699.5397 1360,-669.5397 1215,-669.5397"/>
<text text-anchor="start" x="1223" y="-687.5397" font-family="Helvetica,sans-Serif" font-size="10.00" fill="#000000">Asteroids::UI::ClientText</text>
<text text-anchor="middle" x="1287.5" y="-676.5397" font-family="Helvetica,sans-Serif" font-size="10.00" fill="#000000">UI::ClientTextUI::draw_game</text>
</a>
</g>
</g>
<!-- Node147&#45;&gt;Node148 -->
<g id="edge12" class="edge">
<title>Node147&#45;&gt;Node148</title>
<path fill="none" stroke="#191970" d="M1111.7705,-568.5671C1147.3481,-592.0465 1216.1935,-637.4811 1256.3408,-663.9762"/>
<polygon fill="#191970" stroke="#191970" points="1254.416,-666.8994 1264.6902,-669.4864 1258.2717,-661.057 1254.416,-666.8994"/>
</g>
<!-- Node150 -->
<g id="node12" class="node">
<title>Node150</title>
<g id="a_node12"><a xlink:href="classAsteroids_1_1UI_1_1ClientTextUI_1_1ClientTextUI.html#aaea5f1fccb9aa46a331b15ad2274b319" target="_top" xlink:title="Asteroids::UI::ClientText\lUI::ClientTextUI::handle\l_game_input">
<polygon fill="#ffffff" stroke="#000000" points="1225,-473.0397 1225,-514.0397 1350,-514.0397 1350,-473.0397 1225,-473.0397"/>
<text text-anchor="start" x="1233" y="-502.0397" font-family="Helvetica,sans-Serif" font-size="10.00" fill="#000000">Asteroids::UI::ClientText</text>
<text text-anchor="start" x="1233" y="-491.0397" font-family="Helvetica,sans-Serif" font-size="10.00" fill="#000000">UI::ClientTextUI::handle</text>
<text text-anchor="middle" x="1287.5" y="-480.0397" font-family="Helvetica,sans-Serif" font-size="10.00" fill="#000000">_game_input</text>
</a>
</g>
</g>
<!-- Node147&#45;&gt;Node150 -->
<g id="edge14" class="edge">
<title>Node147&#45;&gt;Node150</title>
<path fill="none" stroke="#191970" d="M1138.8337,-538.4766C1161.9499,-531.4894 1189.8676,-523.0508 1215.2389,-515.3819"/>
<polygon fill="#191970" stroke="#191970" points="1216.2631,-518.7288 1224.8227,-512.485 1214.2377,-512.0282 1216.2631,-518.7288"/>
</g>
<!-- Node151 -->
<g id="node13" class="node">
<title>Node151</title>
<g id="a_node13"><a xlink:href="classAsteroids_1_1UI_1_1ClientTextUI_1_1ClientTextUI.html#a681a6bfc7d4438a4eb3cc146c9117125" target="_top" xlink:title="Asteroids::UI::ClientText\lUI::ClientTextUI::initialize\l_display_grid">
<polygon fill="#ffffff" stroke="#000000" points="1222.5,-533.0397 1222.5,-574.0397 1352.5,-574.0397 1352.5,-533.0397 1222.5,-533.0397"/>
<text text-anchor="start" x="1230.5" y="-562.0397" font-family="Helvetica,sans-Serif" font-size="10.00" fill="#000000">Asteroids::UI::ClientText</text>
<text text-anchor="start" x="1230.5" y="-551.0397" font-family="Helvetica,sans-Serif" font-size="10.00" fill="#000000">UI::ClientTextUI::initialize</text>
<text text-anchor="middle" x="1287.5" y="-540.0397" font-family="Helvetica,sans-Serif" font-size="10.00" fill="#000000">_display_grid</text>
</a>
</g>
</g>
<!-- Node147&#45;&gt;Node151 -->
<g id="edge16" class="edge">
<title>Node147&#45;&gt;Node151</title>
<path fill="none" stroke="#191970" d="M1160.1024,-553.5397C1176.8691,-553.5397 1194.8042,-553.5397 1211.7668,-553.5397"/>
<polygon fill="#191970" stroke="#191970" points="1212.1836,-557.0398 1222.1836,-553.5397 1212.1836,-550.0398 1212.1836,-557.0398"/>
</g>
<!-- Node149 -->
<g id="node11" class="node">
<title>Node149</title>
<g id="a_node11"><a xlink:href="classAsteroids_1_1UI_1_1ClientTextUI_1_1ClientTextUI.html#a6157c8167618db7195c35479096620ec" target="_top" xlink:title="Asteroids::UI::ClientText\lUI::ClientTextUI::draw_actor">
<polygon fill="#ffffff" stroke="#000000" points="1434.5,-669.5397 1434.5,-699.5397 1577.5,-699.5397 1577.5,-669.5397 1434.5,-669.5397"/>
<text text-anchor="start" x="1442.5" y="-687.5397" font-family="Helvetica,sans-Serif" font-size="10.00" fill="#000000">Asteroids::UI::ClientText</text>
<text text-anchor="middle" x="1506" y="-676.5397" font-family="Helvetica,sans-Serif" font-size="10.00" fill="#000000">UI::ClientTextUI::draw_actor</text>
</a>
</g>
</g>
<!-- Node148&#45;&gt;Node149 -->
<g id="edge13" class="edge">
<title>Node148&#45;&gt;Node149</title>
<path fill="none" stroke="#191970" d="M1360.2573,-684.5397C1380.7411,-684.5397 1403.1586,-684.5397 1424.1361,-684.5397"/>
<polygon fill="#191970" stroke="#191970" points="1424.3037,-688.0398 1434.3036,-684.5397 1424.3036,-681.0398 1424.3037,-688.0398"/>
</g>
<!-- Node150&#45;&gt;Node143 -->
<g id="edge15" class="edge">
<title>Node150&#45;&gt;Node143</title>
<path fill="none" stroke="#191970" d="M1349.8916,-473.0025C1359.903,-468.7727 1369.941,-463.9369 1379,-458.5397 1419.9936,-434.1167 1460.6565,-396.1716 1484.5428,-372.1044"/>
<polygon fill="#191970" stroke="#191970" points="1487.1887,-374.405 1491.6877,-364.8128 1482.1889,-369.5058 1487.1887,-374.405"/>
</g>
<!-- Node152&#45;&gt;Node143 -->
<g id="edge20" class="edge">
<title>Node152&#45;&gt;Node143</title>
<path fill="none" stroke="#191970" d="M1151.6113,-108.811C1225.3707,-111.3783 1342.5028,-119.1308 1379,-142.5397 1446.6824,-185.9506 1484.0043,-279.5616 1498.6388,-324.4863"/>
<polygon fill="#191970" stroke="#191970" points="1495.3865,-325.8116 1501.725,-334.3013 1502.0642,-323.7119 1495.3865,-325.8116"/>
</g>
<!-- Node153 -->
<g id="node15" class="node">
<title>Node153</title>
<g id="a_node15"><a xlink:href="classAsteroids_1_1UI_1_1ClientTextUI_1_1ClientTextUI.html#ab0a3f9e22046b77a85dc7771d3502365" target="_top" xlink:title="Asteroids::UI::ClientText\lUI::ClientTextUI::share\l_game_history_entry_to_social_media">
<polygon fill="#ffffff" stroke="#000000" points="1196,-49.0397 1196,-90.0397 1379,-90.0397 1379,-49.0397 1196,-49.0397"/>
<text text-anchor="start" x="1204" y="-78.0397" font-family="Helvetica,sans-Serif" font-size="10.00" fill="#000000">Asteroids::UI::ClientText</text>
<text text-anchor="start" x="1204" y="-67.0397" font-family="Helvetica,sans-Serif" font-size="10.00" fill="#000000">UI::ClientTextUI::share</text>
<text text-anchor="middle" x="1287.5" y="-56.0397" font-family="Helvetica,sans-Serif" font-size="10.00" fill="#000000">_game_history_entry_to_social_media</text>
</a>
</g>
</g>
<!-- Node152&#45;&gt;Node153 -->
<g id="edge21" class="edge">
<title>Node152&#45;&gt;Node153</title>
<path fill="none" stroke="#191970" d="M1151.5342,-95.5685C1162.5432,-93.4609 1174.2537,-91.2191 1186.0063,-88.9693"/>
<polygon fill="#191970" stroke="#191970" points="1186.7103,-92.3981 1195.8738,-87.0803 1185.394,-85.523 1186.7103,-92.3981"/>
</g>
<!-- Node153&#45;&gt;Node143 -->
<g id="edge22" class="edge">
<title>Node153&#45;&gt;Node143</title>
<path fill="none" stroke="#191970" d="M1357.5707,-90.0524C1365.3015,-94.0885 1372.6571,-98.8753 1379,-104.5397 1448.4134,-166.5281 1485.6075,-275.5029 1499.5126,-324.4702"/>
<polygon fill="#191970" stroke="#191970" points="1496.1727,-325.5249 1502.2009,-334.2376 1502.9217,-323.6673 1496.1727,-325.5249"/>
</g>
<!-- Node154 -->
<g id="node16" class="node">
<title>Node154</title>
<g id="a_node16"><a xlink:href="classAsteroids_1_1Domain_1_1Net_1_1ClientServerCommunicatorInterface.html#a99c8f2baa739330f44096da950a1d145" target="_top" xlink:title="Asteroids::Domain::\lNet::ClientServerCommunicator\lInterface::notifyServerOfGameHistory\lEntrySocialMediaShare">
<polygon fill="#ffffff" stroke="#000000" points="1415,-43.5397 1415,-95.5397 1597,-95.5397 1597,-43.5397 1415,-43.5397"/>
<text text-anchor="start" x="1423" y="-83.5397" font-family="Helvetica,sans-Serif" font-size="10.00" fill="#000000">Asteroids::Domain::</text>
<text text-anchor="start" x="1423" y="-72.5397" font-family="Helvetica,sans-Serif" font-size="10.00" fill="#000000">Net::ClientServerCommunicator</text>
<text text-anchor="start" x="1423" y="-61.5397" font-family="Helvetica,sans-Serif" font-size="10.00" fill="#000000">Interface::notifyServerOfGameHistory</text>
<text text-anchor="middle" x="1506" y="-50.5397" font-family="Helvetica,sans-Serif" font-size="10.00" fill="#000000">EntrySocialMediaShare</text>
</a>
</g>
</g>
<!-- Node153&#45;&gt;Node154 -->
<g id="edge23" class="edge">
<title>Node153&#45;&gt;Node154</title>
<path fill="none" stroke="#191970" d="M1379.214,-69.5397C1387.6919,-69.5397 1396.3146,-69.5397 1404.8705,-69.5397"/>
<polygon fill="#191970" stroke="#191970" points="1404.871,-73.0398 1414.871,-69.5397 1404.8709,-66.0398 1404.871,-73.0398"/>
</g>
<!-- Node155&#45;&gt;Node143 -->
<g id="edge25" class="edge">
<title>Node155&#45;&gt;Node143</title>
<path fill="none" stroke="#191970" d="M447.1864,-406.5397C516.6811,-406.5397 632.099,-406.5397 731.5,-406.5397 731.5,-406.5397 731.5,-406.5397 1089,-406.5397 1210.8226,-406.5397 1350.8352,-382.3638 1433.675,-365.5015"/>
<polygon fill="#191970" stroke="#191970" points="1434.3989,-368.926 1443.489,-363.4835 1432.9889,-362.0694 1434.3989,-368.926"/>
</g>
<!-- Node156 -->
<g id="node18" class="node">
<title>Node156</title>
<g id="a_node18"><a xlink:href="classAsteroids_1_1UI_1_1ClientTextUI_1_1ClientTextUI.html#a66aab545b0cd59af6bec829a1b82be89" target="_top" xlink:title="Asteroids::UI::ClientText\lUI::ClientTextUI::store_loop">
<polygon fill="#ffffff" stroke="#000000" points="483,-347.5397 483,-377.5397 623,-377.5397 623,-347.5397 483,-347.5397"/>
<text text-anchor="start" x="491" y="-365.5397" font-family="Helvetica,sans-Serif" font-size="10.00" fill="#000000">Asteroids::UI::ClientText</text>
<text text-anchor="middle" x="553" y="-354.5397" font-family="Helvetica,sans-Serif" font-size="10.00" fill="#000000">UI::ClientTextUI::store_loop</text>
</a>
</g>
</g>
<!-- Node155&#45;&gt;Node156 -->
<g id="edge26" class="edge">
<title>Node155&#45;&gt;Node156</title>
<path fill="none" stroke="#191970" d="M442.0169,-391.5205C456.0375,-387.8593 471.1602,-383.9104 485.595,-380.141"/>
<polygon fill="#191970" stroke="#191970" points="486.6652,-383.479 495.4565,-377.5659 484.8966,-376.7061 486.6652,-383.479"/>
</g>
<!-- Node156&#45;&gt;Node143 -->
<g id="edge27" class="edge">
<title>Node156&#45;&gt;Node143</title>
<path fill="none" stroke="#191970" d="M623.3013,-364.4135C695.4842,-366.174 811.0754,-368.5397 911,-368.5397 911,-368.5397 911,-368.5397 1089,-368.5397 1209.7027,-368.5397 1349.8545,-360.4974 1433.0575,-354.8775"/>
<polygon fill="#191970" stroke="#191970" points="1433.4272,-358.3605 1443.1656,-354.1877 1432.9505,-351.3767 1433.4272,-358.3605"/>
</g>
<!-- Node157 -->
<g id="node19" class="node">
<title>Node157</title>
<g id="a_node19"><a xlink:href="classAsteroids_1_1UI_1_1ClientTextUI_1_1ClientTextUI.html#a9175792a129c214f55dd0bda9ac36b33" target="_top" xlink:title="Asteroids::UI::ClientText\lUI::ClientTextUI::store\l_offer_available_items">
<polygon fill="#ffffff" stroke="#000000" points="669,-299.0397 669,-340.0397 794,-340.0397 794,-299.0397 669,-299.0397"/>
<text text-anchor="start" x="677" y="-328.0397" font-family="Helvetica,sans-Serif" font-size="10.00" fill="#000000">Asteroids::UI::ClientText</text>
<text text-anchor="start" x="677" y="-317.0397" font-family="Helvetica,sans-Serif" font-size="10.00" fill="#000000">UI::ClientTextUI::store</text>
<text text-anchor="middle" x="731.5" y="-306.0397" font-family="Helvetica,sans-Serif" font-size="10.00" fill="#000000">_offer_available_items</text>
</a>
</g>
</g>
<!-- Node156&#45;&gt;Node157 -->
<g id="edge28" class="edge">
<title>Node156&#45;&gt;Node157</title>
<path fill="none" stroke="#191970" d="M615.4306,-347.5004C629.4805,-344.1159 644.5079,-340.4958 658.9324,-337.021"/>
<polygon fill="#191970" stroke="#191970" points="659.9007,-340.3879 668.8029,-334.6432 658.2613,-333.5826 659.9007,-340.3879"/>
</g>
<!-- Node157&#45;&gt;Node143 -->
<g id="edge29" class="edge">
<title>Node157&#45;&gt;Node143</title>
<path fill="none" stroke="#191970" d="M794.2245,-321.9693C936.2695,-327.4714 1281.8894,-340.8589 1433.1196,-346.7167"/>
<polygon fill="#191970" stroke="#191970" points="1433.1033,-350.2186 1443.2313,-347.1084 1433.3743,-343.2239 1433.1033,-350.2186"/>
</g>
<!-- Node158 -->
<g id="node20" class="node">
<title>Node158</title>
<g id="a_node20"><a xlink:href="classAsteroids_1_1UI_1_1ClientTextUI_1_1ClientTextUI.html#a469a7cd3423794fa0ca7c34d95db5a10" target="_top" xlink:title="Asteroids::UI::ClientText\lUI::ClientTextUI::purchasing\l_store_item">
<polygon fill="#ffffff" stroke="#000000" points="840,-242.0397 840,-283.0397 982,-283.0397 982,-242.0397 840,-242.0397"/>
<text text-anchor="start" x="848" y="-271.0397" font-family="Helvetica,sans-Serif" font-size="10.00" fill="#000000">Asteroids::UI::ClientText</text>
<text text-anchor="start" x="848" y="-260.0397" font-family="Helvetica,sans-Serif" font-size="10.00" fill="#000000">UI::ClientTextUI::purchasing</text>
<text text-anchor="middle" x="911" y="-249.0397" font-family="Helvetica,sans-Serif" font-size="10.00" fill="#000000">_store_item</text>
</a>
</g>
</g>
<!-- Node157&#45;&gt;Node158 -->
<g id="edge30" class="edge">
<title>Node157&#45;&gt;Node158</title>
<path fill="none" stroke="#191970" d="M794.0284,-299.6839C807.7571,-295.3244 822.4244,-290.6668 836.5687,-286.1753"/>
<polygon fill="#191970" stroke="#191970" points="837.7876,-289.4605 846.2593,-283.0981 835.669,-282.7888 837.7876,-289.4605"/>
</g>
<!-- Node158&#45;&gt;Node143 -->
<g id="edge35" class="edge">
<title>Node158&#45;&gt;Node143</title>
<path fill="none" stroke="#191970" d="M960.24,-241.9844C1048.2949,-208.4933 1236.8207,-151.7775 1379,-213.5397 1431.588,-236.3838 1472.3007,-292.9203 1492.3281,-325.4526"/>
<polygon fill="#191970" stroke="#191970" points="1489.5042,-327.5496 1497.6457,-334.3295 1495.5092,-323.9523 1489.5042,-327.5496"/>
</g>
<!-- Node159 -->
<g id="node21" class="node">
<title>Node159</title>
<g id="a_node21"><a xlink:href="classAsteroids_1_1UI_1_1ClientTextUI_1_1ClientTextUI.html#a4613a9af03e06c960c467b0b6be44db9" target="_top" xlink:title="Asteroids::UI::ClientText\lUI::ClientTextUI::pay_for\l_store_item">
<polygon fill="#ffffff" stroke="#000000" points="1025.5,-242.0397 1025.5,-283.0397 1152.5,-283.0397 1152.5,-242.0397 1025.5,-242.0397"/>
<text text-anchor="start" x="1033.5" y="-271.0397" font-family="Helvetica,sans-Serif" font-size="10.00" fill="#000000">Asteroids::UI::ClientText</text>
<text text-anchor="start" x="1033.5" y="-260.0397" font-family="Helvetica,sans-Serif" font-size="10.00" fill="#000000">UI::ClientTextUI::pay_for</text>
<text text-anchor="middle" x="1089" y="-249.0397" font-family="Helvetica,sans-Serif" font-size="10.00" fill="#000000">_store_item</text>
</a>
</g>
</g>
<!-- Node158&#45;&gt;Node159 -->
<g id="edge31" class="edge">
<title>Node158&#45;&gt;Node159</title>
<path fill="none" stroke="#191970" d="M982.1177,-262.5397C993.0904,-262.5397 1004.4414,-262.5397 1015.4657,-262.5397"/>
<polygon fill="#191970" stroke="#191970" points="1015.4781,-266.0398 1025.478,-262.5397 1015.478,-259.0398 1015.4781,-266.0398"/>
</g>
<!-- Node159&#45;&gt;Node143 -->
<g id="edge34" class="edge">
<title>Node159&#45;&gt;Node143</title>
<path fill="none" stroke="#191970" d="M1152.6207,-273.0647C1211.551,-283.1262 1301.5191,-299.2819 1379,-316.5397 1399.4488,-321.0944 1421.5948,-326.6353 1441.5798,-331.866"/>
<polygon fill="#191970" stroke="#191970" points="1440.9435,-335.3178 1451.5055,-334.4844 1442.7291,-328.5494 1440.9435,-335.3178"/>
</g>
<!-- Node160 -->
<g id="node22" class="node">
<title>Node160</title>
<g id="a_node22"><a xlink:href="classAsteroids_1_1UI_1_1ClientTextUI_1_1ClientTextUI.html#a02d420d49c44459fe7a2af9b0000adf9" target="_top" xlink:title="Asteroids::UI::ClientText\lUI::ClientTextUI::pay_for\l_store_item_with_credit_card">
<polygon fill="#ffffff" stroke="#000000" points="1215.5,-223.0397 1215.5,-264.0397 1359.5,-264.0397 1359.5,-223.0397 1215.5,-223.0397"/>
<text text-anchor="start" x="1223.5" y="-252.0397" font-family="Helvetica,sans-Serif" font-size="10.00" fill="#000000">Asteroids::UI::ClientText</text>
<text text-anchor="start" x="1223.5" y="-241.0397" font-family="Helvetica,sans-Serif" font-size="10.00" fill="#000000">UI::ClientTextUI::pay_for</text>
<text text-anchor="middle" x="1287.5" y="-230.0397" font-family="Helvetica,sans-Serif" font-size="10.00" fill="#000000">_store_item_with_credit_card</text>
</a>
</g>
</g>
<!-- Node159&#45;&gt;Node160 -->
<g id="edge32" class="edge">
<title>Node159&#45;&gt;Node160</title>
<path fill="none" stroke="#191970" d="M1152.6257,-256.4496C1169.3096,-254.8527 1187.542,-253.1075 1205.0553,-251.4312"/>
<polygon fill="#191970" stroke="#191970" points="1205.6457,-254.8907 1215.2666,-250.4538 1204.9786,-247.9226 1205.6457,-254.8907"/>
</g>
<!-- Node160&#45;&gt;Node143 -->
<g id="edge33" class="edge">
<title>Node160&#45;&gt;Node143</title>
<path fill="none" stroke="#191970" d="M1345.1392,-264.131C1356.4883,-268.5923 1368.2161,-273.495 1379,-278.5397 1411.6047,-293.7921 1447.262,-314.0636 1472.471,-329.0405"/>
<polygon fill="#191970" stroke="#191970" points="1470.8824,-332.1687 1481.2607,-334.2997 1474.4765,-326.1618 1470.8824,-332.1687"/>
</g>
</g>
</svg>
        <g id="navigator" transform="translate(0 0)" fill="#404254">
                <rect fill="#f2f5e9" fill-opacity="0.5" stroke="#606060" stroke-width=".5" x="0" y="0" width="60" height="60"/>
                <use id="zoomplus" xlink:href="#zoomPlus" x="17" y="9" onmousedown="handleZoom(evt,'in')"/>
                <use id="zoomminus" xlink:href="#zoomMin" x="42" y="9" onmousedown="handleZoom(evt,'out')"/>
                <use id="reset" xlink:href="#resetDef" x="30" y="36" onmousedown="handleReset()"/>
                <g id="arrowUp" xlink:href="#dirArrow" transform="translate(30 24)" onmousedown="handlePan(0,-1)">
                  <use xlink:href="#rim" fill="#404040">
                        <set attributeName="fill" to="#808080" begin="arrowUp.mouseover" end="arrowUp.mouseout"/>
                  </use>
                  <path fill="none" stroke="white" stroke-width="1.5" d="M0,-3.0v7 M-2.5,-0.5L0,-3.0L2.5,-0.5"/>
                </g>
                <g id="arrowRight" xlink:href="#dirArrow" transform="rotate(90) translate(36 -43)" onmousedown="handlePan(1,0)">
                  <use xlink:href="#rim" fill="#404040">
                        <set attributeName="fill" to="#808080" begin="arrowRight.mouseover" end="arrowRight.mouseout"/>
                  </use>
                  <path fill="none" stroke="white" stroke-width="1.5" d="M0,-3.0v7 M-2.5,-0.5L0,-3.0L2.5,-0.5"/>
                </g>
                <g id="arrowDown" xlink:href="#dirArrow" transform="rotate(180) translate(-30 -48)" onmousedown="handlePan(0,1)">
                  <use xlink:href="#rim" fill="#404040">
                        <set attributeName="fill" to="#808080" begin="arrowDown.mouseover" end="arrowDown.mouseout"/>
                  </use>
                  <path fill="none" stroke="white" stroke-width="1.5" d="M0,-3.0v7 M-2.5,-0.5L0,-3.0L2.5,-0.5"/>
                </g>
                <g id="arrowLeft" xlink:href="#dirArrow" transform="rotate(270) translate(-36 17)" onmousedown="handlePan(-1,0)">
                  <use xlink:href="#rim" fill="#404040">
                        <set attributeName="fill" to="#808080" begin="arrowLeft.mouseover" end="arrowLeft.mouseout"/>
                  </use>
                  <path fill="none" stroke="white" stroke-width="1.5" d="M0,-3.0v7 M-2.5,-0.5L0,-3.0L2.5,-0.5"/>
                </g>
        </g>
        <svg viewBox="0 0 15 15" width="100%" height="30px" preserveAspectRatio="xMaxYMin meet">
         <g id="arrow_out" transform="scale(0.3 0.3)">
          <a xlink:href="classAsteroids_1_1UI_1_1ClientTextUI_1_1ClientTextUI_a835f455a627e77a5ef99661350281ec3_cgraph_org.svg" target="_base">
           <rect id="button" ry="5" rx="5" y="6" x="6" height="38" width="38"
                fill="#f2f5e9" fill-opacity="0.5" stroke="#606060" stroke-width="1.0"/>
           <path id="arrow"
             d="M 11.500037,31.436501 C 11.940474,20.09759 22.043105,11.32322 32.158766,21.979434 L 37.068811,17.246167 C 37.068811,17.246167 37.088388,32 37.088388,32 L 22.160133,31.978069 C 22.160133,31.978069 26.997745,27.140456 26.997745,27.140456 C 18.528582,18.264221 13.291696,25.230495 11.500037,31.436501 z"
             style="fill:#404040;"/>
          </a>
         </g>
        </svg>
</svg>
