<?xml version="1.0" encoding="UTF-8" standalone="no"?>
<!DOCTYPE svg PUBLIC "-//W3C//DTD SVG 1.1//EN"
 "http://www.w3.org/Graphics/SVG/1.1/DTD/svg11.dtd">
<!-- Generated by graphviz version 2.40.1 (20161225.0304)
 -->
<!-- Title: Asteroids::UI::ClientTextUI::ClientTextUI::pay_for_store_item_with_credit_card Pages: 1 -->
<svg width="1313pt" height="50pt"
 viewBox="0.00 0.00 1313.00 50.00" xmlns="http://www.w3.org/2000/svg" xmlns:xlink="http://www.w3.org/1999/xlink">
<g id="graph0" class="graph" transform="scale(1 1) rotate(0) translate(4 46)">
<title>Asteroids::UI::ClientTextUI::ClientTextUI::pay_for_store_item_with_credit_card</title>
<polygon fill="#ffffff" stroke="transparent" points="-4,4 -4,-46 1309,-46 1309,4 -4,4"/>
<!-- Node84 -->
<g id="node1" class="node">
<title>Node84</title>
<polygon fill="#bfbfbf" stroke="#000000" points="0,-.5 0,-41.5 144,-41.5 144,-.5 0,-.5"/>
<text text-anchor="start" x="8" y="-29.5" font-family="Helvetica,sans-Serif" font-size="10.00" fill="#000000">Asteroids::UI::ClientText</text>
<text text-anchor="start" x="8" y="-18.5" font-family="Helvetica,sans-Serif" font-size="10.00" fill="#000000">UI::ClientTextUI::pay_for</text>
<text text-anchor="middle" x="72" y="-7.5" font-family="Helvetica,sans-Serif" font-size="10.00" fill="#000000">_store_item_with_credit_card</text>
</g>
<!-- Node85 -->
<g id="node2" class="node">
<title>Node85</title>
<g id="a_node2"><a xlink:href="classAsteroids_1_1UI_1_1ClientTextUI_1_1ClientTextUI.html#a4613a9af03e06c960c467b0b6be44db9" target="_top" xlink:title="Asteroids::UI::ClientText\lUI::ClientTextUI::pay_for\l_store_item">
<polygon fill="#ffffff" stroke="#000000" points="180,-.5 180,-41.5 307,-41.5 307,-.5 180,-.5"/>
<text text-anchor="start" x="188" y="-29.5" font-family="Helvetica,sans-Serif" font-size="10.00" fill="#000000">Asteroids::UI::ClientText</text>
<text text-anchor="start" x="188" y="-18.5" font-family="Helvetica,sans-Serif" font-size="10.00" fill="#000000">UI::ClientTextUI::pay_for</text>
<text text-anchor="middle" x="243.5" y="-7.5" font-family="Helvetica,sans-Serif" font-size="10.00" fill="#000000">_store_item</text>
</a>
</g>
</g>
<!-- Node84&#45;&gt;Node85 -->
<g id="edge1" class="edge">
<title>Node84&#45;&gt;Node85</title>
<path fill="none" stroke="#191970" d="M154.2608,-21C162.8377,-21 171.4612,-21 179.7873,-21"/>
<polygon fill="#191970" stroke="#191970" points="154.2344,-17.5001 144.2344,-21 154.2343,-24.5001 154.2344,-17.5001"/>
</g>
<!-- Node86 -->
<g id="node3" class="node">
<title>Node86</title>
<g id="a_node3"><a xlink:href="classAsteroids_1_1UI_1_1ClientTextUI_1_1ClientTextUI.html#a469a7cd3423794fa0ca7c34d95db5a10" target="_top" xlink:title="Asteroids::UI::ClientText\lUI::ClientTextUI::purchasing\l_store_item">
<polygon fill="#ffffff" stroke="#000000" points="343,-.5 343,-41.5 485,-41.5 485,-.5 343,-.5"/>
<text text-anchor="start" x="351" y="-29.5" font-family="Helvetica,sans-Serif" font-size="10.00" fill="#000000">Asteroids::UI::ClientText</text>
<text text-anchor="start" x="351" y="-18.5" font-family="Helvetica,sans-Serif" font-size="10.00" fill="#000000">UI::ClientTextUI::purchasing</text>
<text text-anchor="middle" x="414" y="-7.5" font-family="Helvetica,sans-Serif" font-size="10.00" fill="#000000">_store_item</text>
</a>
</g>
</g>
<!-- Node85&#45;&gt;Node86 -->
<g id="edge2" class="edge">
<title>Node85&#45;&gt;Node86</title>
<path fill="none" stroke="#191970" d="M317.5868,-21C325.9559,-21 334.471,-21 342.802,-21"/>
<polygon fill="#191970" stroke="#191970" points="317.473,-17.5001 307.473,-21 317.473,-24.5001 317.473,-17.5001"/>
</g>
<!-- Node87 -->
<g id="node4" class="node">
<title>Node87</title>
<g id="a_node4"><a xlink:href="classAsteroids_1_1UI_1_1ClientTextUI_1_1ClientTextUI.html#a9175792a129c214f55dd0bda9ac36b33" target="_top" xlink:title="Asteroids::UI::ClientText\lUI::ClientTextUI::store\l_offer_available_items">
<polygon fill="#ffffff" stroke="#000000" points="521,-.5 521,-41.5 646,-41.5 646,-.5 521,-.5"/>
<text text-anchor="start" x="529" y="-29.5" font-family="Helvetica,sans-Serif" font-size="10.00" fill="#000000">Asteroids::UI::ClientText</text>
<text text-anchor="start" x="529" y="-18.5" font-family="Helvetica,sans-Serif" font-size="10.00" fill="#000000">UI::ClientTextUI::store</text>
<text text-anchor="middle" x="583.5" y="-7.5" font-family="Helvetica,sans-Serif" font-size="10.00" fill="#000000">_offer_available_items</text>
</a>
</g>
</g>
<!-- Node86&#45;&gt;Node87 -->
<g id="edge3" class="edge">
<title>Node86&#45;&gt;Node87</title>
<path fill="none" stroke="#191970" d="M495.6573,-21C504.1082,-21 512.6002,-21 520.7965,-21"/>
<polygon fill="#191970" stroke="#191970" points="495.392,-17.5001 485.392,-21 495.392,-24.5001 495.392,-17.5001"/>
</g>
<!-- Node88 -->
<g id="node5" class="node">
<title>Node88</title>
<g id="a_node5"><a xlink:href="classAsteroids_1_1UI_1_1ClientTextUI_1_1ClientTextUI.html#a66aab545b0cd59af6bec829a1b82be89" target="_top" xlink:title="Asteroids::UI::ClientText\lUI::ClientTextUI::store_loop">
<polygon fill="#ffffff" stroke="#000000" points="682,-6 682,-36 822,-36 822,-6 682,-6"/>
<text text-anchor="start" x="690" y="-24" font-family="Helvetica,sans-Serif" font-size="10.00" fill="#000000">Asteroids::UI::ClientText</text>
<text text-anchor="middle" x="752" y="-13" font-family="Helvetica,sans-Serif" font-size="10.00" fill="#000000">UI::ClientTextUI::store_loop</text>
</a>
</g>
</g>
<!-- Node87&#45;&gt;Node88 -->
<g id="edge4" class="edge">
<title>Node87&#45;&gt;Node88</title>
<path fill="none" stroke="#191970" d="M656.4276,-21C664.8587,-21 673.4439,-21 681.8371,-21"/>
<polygon fill="#191970" stroke="#191970" points="656.2432,-17.5001 646.2432,-21 656.2431,-24.5001 656.2432,-17.5001"/>
</g>
<!-- Node89 -->
<g id="node6" class="node">
<title>Node89</title>
<g id="a_node6"><a xlink:href="classAsteroids_1_1UI_1_1ClientTextUI_1_1ClientTextUI.html#ae228a731be242ef0cf88005c2c03acee" target="_top" xlink:title="Asteroids::UI::ClientText\lUI::ClientTextUI::store">
<polygon fill="#ffffff" stroke="#000000" points="858,-6 858,-36 983,-36 983,-6 858,-6"/>
<text text-anchor="start" x="866" y="-24" font-family="Helvetica,sans-Serif" font-size="10.00" fill="#000000">Asteroids::UI::ClientText</text>
<text text-anchor="middle" x="920.5" y="-13" font-family="Helvetica,sans-Serif" font-size="10.00" fill="#000000">UI::ClientTextUI::store</text>
</a>
</g>
</g>
<!-- Node88&#45;&gt;Node89 -->
<g id="edge5" class="edge">
<title>Node88&#45;&gt;Node89</title>
<path fill="none" stroke="#191970" d="M832.7184,-21C841.1475,-21 849.6239,-21 857.8092,-21"/>
<polygon fill="#191970" stroke="#191970" points="832.4829,-17.5001 822.4829,-21 832.4828,-24.5001 832.4829,-17.5001"/>
</g>
<!-- Node90 -->
<g id="node7" class="node">
<title>Node90</title>
<g id="a_node7"><a xlink:href="classAsteroids_1_1UI_1_1ClientTextUI_1_1ClientTextUI.html#a67521714973f97f76618f9598d34d3b8" target="_top" xlink:title="Asteroids::UI::ClientText\lUI::ClientTextUI::main\l_menu_loop">
<polygon fill="#ffffff" stroke="#000000" points="1019,-.5 1019,-41.5 1144,-41.5 1144,-.5 1019,-.5"/>
<text text-anchor="start" x="1027" y="-29.5" font-family="Helvetica,sans-Serif" font-size="10.00" fill="#000000">Asteroids::UI::ClientText</text>
<text text-anchor="start" x="1027" y="-18.5" font-family="Helvetica,sans-Serif" font-size="10.00" fill="#000000">UI::ClientTextUI::main</text>
<text text-anchor="middle" x="1081.5" y="-7.5" font-family="Helvetica,sans-Serif" font-size="10.00" fill="#000000">_menu_loop</text>
</a>
</g>
</g>
<!-- Node89&#45;&gt;Node90 -->
<g id="edge6" class="edge">
<title>Node89&#45;&gt;Node90</title>
<path fill="none" stroke="#191970" d="M993.2184,-21C1001.8129,-21 1010.5268,-21 1018.9633,-21"/>
<polygon fill="#191970" stroke="#191970" points="993.2078,-17.5001 983.2078,-21 993.2078,-24.5001 993.2078,-17.5001"/>
</g>
<!-- Node91 -->
<g id="node8" class="node">
<title>Node91</title>
<g id="a_node8"><a xlink:href="classAsteroids_1_1UI_1_1ClientTextUI_1_1ClientTextUI.html#a835f455a627e77a5ef99661350281ec3" target="_top" xlink:title="Begin the user interface. ">
<polygon fill="#ffffff" stroke="#000000" points="1180,-6 1180,-36 1305,-36 1305,-6 1180,-6"/>
<text text-anchor="start" x="1188" y="-24" font-family="Helvetica,sans-Serif" font-size="10.00" fill="#000000">Asteroids::UI::ClientText</text>
<text text-anchor="middle" x="1242.5" y="-13" font-family="Helvetica,sans-Serif" font-size="10.00" fill="#000000">UI::ClientTextUI::run</text>
</a>
</g>
</g>
<!-- Node90&#45;&gt;Node91 -->
<g id="edge7" class="edge">
<title>Node90&#45;&gt;Node91</title>
<path fill="none" stroke="#191970" d="M1154.2184,-21C1162.8129,-21 1171.5268,-21 1179.9633,-21"/>
<polygon fill="#191970" stroke="#191970" points="1154.2078,-17.5001 1144.2078,-21 1154.2078,-24.5001 1154.2078,-17.5001"/>
</g>
</g>
</svg>
