<?xml version="1.0" encoding="UTF-8" standalone="no"?>
<!DOCTYPE svg PUBLIC "-//W3C//DTD SVG 1.1//EN"
 "http://www.w3.org/Graphics/SVG/1.1/DTD/svg11.dtd">
<!-- Generated by graphviz version 2.40.1 (20161225.0304)
 -->
<!-- Title: Asteroids::UI::ClientTextUI::ClientTextUI::store_offer_available_items Pages: 1 -->
<svg width="792pt" height="50pt"
 viewBox="0.00 0.00 792.00 50.00" xmlns="http://www.w3.org/2000/svg" xmlns:xlink="http://www.w3.org/1999/xlink">
<g id="graph0" class="graph" transform="scale(1 1) rotate(0) translate(4 46)">
<title>Asteroids::UI::ClientTextUI::ClientTextUI::store_offer_available_items</title>
<polygon fill="#ffffff" stroke="transparent" points="-4,4 -4,-46 788,-46 788,4 -4,4"/>
<!-- Node194 -->
<g id="node1" class="node">
<title>Node194</title>
<polygon fill="#bfbfbf" stroke="#000000" points="0,-.5 0,-41.5 125,-41.5 125,-.5 0,-.5"/>
<text text-anchor="start" x="8" y="-29.5" font-family="Helvetica,sans-Serif" font-size="10.00" fill="#000000">Asteroids::UI::ClientText</text>
<text text-anchor="start" x="8" y="-18.5" font-family="Helvetica,sans-Serif" font-size="10.00" fill="#000000">UI::ClientTextUI::store</text>
<text text-anchor="middle" x="62.5" y="-7.5" font-family="Helvetica,sans-Serif" font-size="10.00" fill="#000000">_offer_available_items</text>
</g>
<!-- Node195 -->
<g id="node2" class="node">
<title>Node195</title>
<g id="a_node2"><a xlink:href="classAsteroids_1_1UI_1_1ClientTextUI_1_1ClientTextUI.html#a66aab545b0cd59af6bec829a1b82be89" target="_top" xlink:title="Asteroids::UI::ClientText\lUI::ClientTextUI::store_loop">
<polygon fill="#ffffff" stroke="#000000" points="161,-6 161,-36 301,-36 301,-6 161,-6"/>
<text text-anchor="start" x="169" y="-24" font-family="Helvetica,sans-Serif" font-size="10.00" fill="#000000">Asteroids::UI::ClientText</text>
<text text-anchor="middle" x="231" y="-13" font-family="Helvetica,sans-Serif" font-size="10.00" fill="#000000">UI::ClientTextUI::store_loop</text>
</a>
</g>
</g>
<!-- Node194&#45;&gt;Node195 -->
<g id="edge1" class="edge">
<title>Node194&#45;&gt;Node195</title>
<path fill="none" stroke="#191970" d="M135.4276,-21C143.8587,-21 152.4439,-21 160.8371,-21"/>
<polygon fill="#191970" stroke="#191970" points="135.2432,-17.5001 125.2432,-21 135.2431,-24.5001 135.2432,-17.5001"/>
</g>
<!-- Node196 -->
<g id="node3" class="node">
<title>Node196</title>
<g id="a_node3"><a xlink:href="classAsteroids_1_1UI_1_1ClientTextUI_1_1ClientTextUI.html#ae228a731be242ef0cf88005c2c03acee" target="_top" xlink:title="Asteroids::UI::ClientText\lUI::ClientTextUI::store">
<polygon fill="#ffffff" stroke="#000000" points="337,-6 337,-36 462,-36 462,-6 337,-6"/>
<text text-anchor="start" x="345" y="-24" font-family="Helvetica,sans-Serif" font-size="10.00" fill="#000000">Asteroids::UI::ClientText</text>
<text text-anchor="middle" x="399.5" y="-13" font-family="Helvetica,sans-Serif" font-size="10.00" fill="#000000">UI::ClientTextUI::store</text>
</a>
</g>
</g>
<!-- Node195&#45;&gt;Node196 -->
<g id="edge2" class="edge">
<title>Node195&#45;&gt;Node196</title>
<path fill="none" stroke="#191970" d="M311.7184,-21C320.1475,-21 328.6239,-21 336.8092,-21"/>
<polygon fill="#191970" stroke="#191970" points="311.4829,-17.5001 301.4829,-21 311.4828,-24.5001 311.4829,-17.5001"/>
</g>
<!-- Node197 -->
<g id="node4" class="node">
<title>Node197</title>
<g id="a_node4"><a xlink:href="classAsteroids_1_1UI_1_1ClientTextUI_1_1ClientTextUI.html#a67521714973f97f76618f9598d34d3b8" target="_top" xlink:title="Asteroids::UI::ClientText\lUI::ClientTextUI::main\l_menu_loop">
<polygon fill="#ffffff" stroke="#000000" points="498,-.5 498,-41.5 623,-41.5 623,-.5 498,-.5"/>
<text text-anchor="start" x="506" y="-29.5" font-family="Helvetica,sans-Serif" font-size="10.00" fill="#000000">Asteroids::UI::ClientText</text>
<text text-anchor="start" x="506" y="-18.5" font-family="Helvetica,sans-Serif" font-size="10.00" fill="#000000">UI::ClientTextUI::main</text>
<text text-anchor="middle" x="560.5" y="-7.5" font-family="Helvetica,sans-Serif" font-size="10.00" fill="#000000">_menu_loop</text>
</a>
</g>
</g>
<!-- Node196&#45;&gt;Node197 -->
<g id="edge3" class="edge">
<title>Node196&#45;&gt;Node197</title>
<path fill="none" stroke="#191970" d="M472.2184,-21C480.8129,-21 489.5268,-21 497.9633,-21"/>
<polygon fill="#191970" stroke="#191970" points="472.2078,-17.5001 462.2078,-21 472.2078,-24.5001 472.2078,-17.5001"/>
</g>
<!-- Node198 -->
<g id="node5" class="node">
<title>Node198</title>
<g id="a_node5"><a xlink:href="classAsteroids_1_1UI_1_1ClientTextUI_1_1ClientTextUI.html#a835f455a627e77a5ef99661350281ec3" target="_top" xlink:title="Begin the user interface. ">
<polygon fill="#ffffff" stroke="#000000" points="659,-6 659,-36 784,-36 784,-6 659,-6"/>
<text text-anchor="start" x="667" y="-24" font-family="Helvetica,sans-Serif" font-size="10.00" fill="#000000">Asteroids::UI::ClientText</text>
<text text-anchor="middle" x="721.5" y="-13" font-family="Helvetica,sans-Serif" font-size="10.00" fill="#000000">UI::ClientTextUI::run</text>
</a>
</g>
</g>
<!-- Node197&#45;&gt;Node198 -->
<g id="edge4" class="edge">
<title>Node197&#45;&gt;Node198</title>
<path fill="none" stroke="#191970" d="M633.2184,-21C641.8129,-21 650.5268,-21 658.9633,-21"/>
<polygon fill="#191970" stroke="#191970" points="633.2078,-17.5001 623.2078,-21 633.2078,-24.5001 633.2078,-17.5001"/>
</g>
</g>
</svg>
