<?xml version="1.0" encoding="UTF-8" standalone="no"?>
<!DOCTYPE svg PUBLIC "-//W3C//DTD SVG 1.1//EN"
 "http://www.w3.org/Graphics/SVG/1.1/DTD/svg11.dtd">
<!-- Generated by graphviz version 2.40.1 (20161225.0304)
 -->
<!-- Title: Asteroids::Domain::Net::Authentication::Authenticator Pages: 1 -->
<svg width="131pt" height="237pt"
 viewBox="0.00 0.00 131.00 237.00" xmlns="http://www.w3.org/2000/svg" xmlns:xlink="http://www.w3.org/1999/xlink">
<g id="graph0" class="graph" transform="scale(1 1) rotate(0) translate(4 233)">
<title>Asteroids::Domain::Net::Authentication::Authenticator</title>
<polygon fill="#ffffff" stroke="transparent" points="-4,4 -4,-233 127,-233 127,4 -4,4"/>
<!-- Node2 -->
<g id="node1" class="node">
<title>Node2</title>
<polygon fill="#bfbfbf" stroke="#000000" points="6.5,-.5 6.5,-112.5 116.5,-112.5 116.5,-.5 6.5,-.5"/>
<text text-anchor="start" x="14.5" y="-100.5" font-family="Helvetica,sans-Serif" font-size="10.00" fill="#000000">Asteroids::Domain::</text>
<text text-anchor="start" x="14.5" y="-89.5" font-family="Helvetica,sans-Serif" font-size="10.00" fill="#000000">Net::Authentication</text>
<text text-anchor="middle" x="61.5" y="-78.5" font-family="Helvetica,sans-Serif" font-size="10.00" fill="#000000">::Authenticator</text>
<polyline fill="none" stroke="#000000" points="6.5,-71.5 116.5,-71.5 "/>
<text text-anchor="middle" x="61.5" y="-59.5" font-family="Helvetica,sans-Serif" font-size="10.00" fill="#000000"> </text>
<polyline fill="none" stroke="#000000" points="6.5,-52.5 116.5,-52.5 "/>
<text text-anchor="start" x="14.5" y="-40.5" font-family="Helvetica,sans-Serif" font-size="10.00" fill="#000000">+ Authenticator()</text>
<text text-anchor="start" x="14.5" y="-29.5" font-family="Helvetica,sans-Serif" font-size="10.00" fill="#000000">+ attemptLogin()</text>
<text text-anchor="start" x="14.5" y="-18.5" font-family="Helvetica,sans-Serif" font-size="10.00" fill="#000000">+ reset()</text>
<text text-anchor="start" x="14.5" y="-7.5" font-family="Helvetica,sans-Serif" font-size="10.00" fill="#000000">&#45; sendAuthToServer()</text>
</g>
<!-- Node3 -->
<g id="node2" class="node">
<title>Node3</title>
<g id="a_node2"><a xlink:href="classAsteroids_1_1Domain_1_1Net_1_1Authentication_1_1AuthenticationInterface.html" target="_top" xlink:title="Main interface for client to authenticate with server. ">
<polygon fill="#ffffff" stroke="#000000" points="0,-149.5 0,-228.5 123,-228.5 123,-149.5 0,-149.5"/>
<text text-anchor="start" x="8" y="-216.5" font-family="Helvetica,sans-Serif" font-size="10.00" fill="#000000">Asteroids::Domain::</text>
<text text-anchor="start" x="8" y="-205.5" font-family="Helvetica,sans-Serif" font-size="10.00" fill="#000000">Net::Authentication</text>
<text text-anchor="middle" x="61.5" y="-194.5" font-family="Helvetica,sans-Serif" font-size="10.00" fill="#000000">::AuthenticationInterface</text>
<polyline fill="none" stroke="#000000" points="0,-187.5 123,-187.5 "/>
<text text-anchor="middle" x="61.5" y="-175.5" font-family="Helvetica,sans-Serif" font-size="10.00" fill="#000000"> </text>
<polyline fill="none" stroke="#000000" points="0,-168.5 123,-168.5 "/>
<text text-anchor="start" x="8" y="-156.5" font-family="Helvetica,sans-Serif" font-size="10.00" fill="#000000">+ attemptLogin()</text>
</a>
</g>
</g>
<!-- Node3&#45;&gt;Node2 -->
<g id="edge1" class="edge">
<title>Node3&#45;&gt;Node2</title>
<path fill="none" stroke="#191970" d="M61.5,-139.0556C61.5,-130.5106 61.5,-121.5797 61.5,-112.8811"/>
<polygon fill="none" stroke="#191970" points="58.0001,-139.2456 61.5,-149.2456 65.0001,-139.2457 58.0001,-139.2456"/>
</g>
</g>
</svg>
