<?xml version="1.0" encoding="UTF-8" standalone="no"?>
<!DOCTYPE svg PUBLIC "-//W3C//DTD SVG 1.1//EN"
 "http://www.w3.org/Graphics/SVG/1.1/DTD/svg11.dtd">
<!-- Generated by graphviz version 2.40.1 (20161225.0304)
 -->
<!-- Title: Asteroids::Domain::Game::GameHistory Pages: 1 -->
<svg width="153pt" height="193pt"
 viewBox="0.00 0.00 153.00 193.00" xmlns="http://www.w3.org/2000/svg" xmlns:xlink="http://www.w3.org/1999/xlink">
<g id="graph0" class="graph" transform="scale(1 1) rotate(0) translate(4 189)">
<title>Asteroids::Domain::Game::GameHistory</title>
<polygon fill="#ffffff" stroke="transparent" points="-4,4 -4,-189 149,-189 149,4 -4,4"/>
<!-- Node2 -->
<g id="node1" class="node">
<title>Node2</title>
<polygon fill="#bfbfbf" stroke="#000000" points="19,-.5 19,-79.5 126,-79.5 126,-.5 19,-.5"/>
<text text-anchor="start" x="27" y="-67.5" font-family="Helvetica,sans-Serif" font-size="10.00" fill="#000000">Asteroids::Domain::</text>
<text text-anchor="middle" x="72.5" y="-56.5" font-family="Helvetica,sans-Serif" font-size="10.00" fill="#000000">Game::GameHistory</text>
<polyline fill="none" stroke="#000000" points="19,-49.5 126,-49.5 "/>
<text text-anchor="middle" x="72.5" y="-37.5" font-family="Helvetica,sans-Serif" font-size="10.00" fill="#000000"> </text>
<polyline fill="none" stroke="#000000" points="19,-30.5 126,-30.5 "/>
<text text-anchor="start" x="27" y="-18.5" font-family="Helvetica,sans-Serif" font-size="10.00" fill="#000000">+ GameHistory()</text>
<text text-anchor="start" x="27" y="-7.5" font-family="Helvetica,sans-Serif" font-size="10.00" fill="#000000">+ get_history()</text>
</g>
<!-- Node3 -->
<g id="node2" class="node">
<title>Node3</title>
<g id="a_node2"><a xlink:href="classAsteroids_1_1Domain_1_1Game_1_1GameHistoryInterface.html" target="_top" xlink:title="{Asteroids::Domain::\lGame::GameHistoryInterface\n||+ get_history()\l}">
<polygon fill="#ffffff" stroke="#000000" points="0,-116.5 0,-184.5 145,-184.5 145,-116.5 0,-116.5"/>
<text text-anchor="start" x="8" y="-172.5" font-family="Helvetica,sans-Serif" font-size="10.00" fill="#000000">Asteroids::Domain::</text>
<text text-anchor="middle" x="72.5" y="-161.5" font-family="Helvetica,sans-Serif" font-size="10.00" fill="#000000">Game::GameHistoryInterface</text>
<polyline fill="none" stroke="#000000" points="0,-154.5 145,-154.5 "/>
<text text-anchor="middle" x="72.5" y="-142.5" font-family="Helvetica,sans-Serif" font-size="10.00" fill="#000000"> </text>
<polyline fill="none" stroke="#000000" points="0,-135.5 145,-135.5 "/>
<text text-anchor="start" x="8" y="-123.5" font-family="Helvetica,sans-Serif" font-size="10.00" fill="#000000">+ get_history()</text>
</a>
</g>
</g>
<!-- Node3&#45;&gt;Node2 -->
<g id="edge1" class="edge">
<title>Node3&#45;&gt;Node2</title>
<path fill="none" stroke="#191970" d="M72.5,-106.3044C72.5,-97.4634 72.5,-88.2287 72.5,-79.5566"/>
<polygon fill="none" stroke="#191970" points="69.0001,-106.4447 72.5,-116.4447 76.0001,-106.4447 69.0001,-106.4447"/>
</g>
</g>
</svg>
