<?xml version="1.0" encoding="UTF-8" standalone="no"?>
<!DOCTYPE svg PUBLIC "-//W3C//DTD SVG 1.1//EN"
 "http://www.w3.org/Graphics/SVG/1.1/DTD/svg11.dtd">
<!-- Generated by graphviz version 2.40.1 (20161225.0304)
 -->
<!-- Title: Asteroids::Domain::Game::Game::initialize_random_rocks Pages: 1 -->
<svg width="793pt" height="88pt"
 viewBox="0.00 0.00 793.00 88.00" xmlns="http://www.w3.org/2000/svg" xmlns:xlink="http://www.w3.org/1999/xlink">
<g id="graph0" class="graph" transform="scale(1 1) rotate(0) translate(4 84)">
<title>Asteroids::Domain::Game::Game::initialize_random_rocks</title>
<polygon fill="#ffffff" stroke="transparent" points="-4,4 -4,-84 789,-84 789,4 -4,4"/>
<!-- Node45 -->
<g id="node1" class="node">
<title>Node45</title>
<polygon fill="#bfbfbf" stroke="#000000" points="0,-19 0,-60 116,-60 116,-19 0,-19"/>
<text text-anchor="start" x="8" y="-48" font-family="Helvetica,sans-Serif" font-size="10.00" fill="#000000">Asteroids::Domain::</text>
<text text-anchor="start" x="8" y="-37" font-family="Helvetica,sans-Serif" font-size="10.00" fill="#000000">Game::Game::initialize</text>
<text text-anchor="middle" x="58" y="-26" font-family="Helvetica,sans-Serif" font-size="10.00" fill="#000000">_random_rocks</text>
</g>
<!-- Node46 -->
<g id="node2" class="node">
<title>Node46</title>
<g id="a_node2"><a xlink:href="classAsteroids_1_1Domain_1_1Game_1_1Game.html#aa242712e038fce29760d53eb1d57c9fb" target="_top" xlink:title="Asteroids::Domain::\lGame::Game::start_round">
<polygon fill="#ffffff" stroke="#000000" points="152,-24.5 152,-54.5 282,-54.5 282,-24.5 152,-24.5"/>
<text text-anchor="start" x="160" y="-42.5" font-family="Helvetica,sans-Serif" font-size="10.00" fill="#000000">Asteroids::Domain::</text>
<text text-anchor="middle" x="217" y="-31.5" font-family="Helvetica,sans-Serif" font-size="10.00" fill="#000000">Game::Game::start_round</text>
</a>
</g>
</g>
<!-- Node45&#45;&gt;Node46 -->
<g id="edge1" class="edge">
<title>Node45&#45;&gt;Node46</title>
<path fill="none" stroke="#191970" d="M126.5081,-39.5C134.965,-39.5 143.591,-39.5 151.9935,-39.5"/>
<polygon fill="#191970" stroke="#191970" points="126.3029,-36.0001 116.3029,-39.5 126.3028,-43.0001 126.3029,-36.0001"/>
</g>
<!-- Node47 -->
<g id="node3" class="node">
<title>Node47</title>
<g id="a_node3"><a xlink:href="classAsteroids_1_1Domain_1_1Game_1_1Game.html#a824018131c10d49c8addd305ff36209b" target="_top" xlink:title="Asteroids::Domain::\lGame::Game::start">
<polygon fill="#ffffff" stroke="#000000" points="328.5,-49.5 328.5,-79.5 432.5,-79.5 432.5,-49.5 328.5,-49.5"/>
<text text-anchor="start" x="336.5" y="-67.5" font-family="Helvetica,sans-Serif" font-size="10.00" fill="#000000">Asteroids::Domain::</text>
<text text-anchor="middle" x="380.5" y="-56.5" font-family="Helvetica,sans-Serif" font-size="10.00" fill="#000000">Game::Game::start</text>
</a>
</g>
</g>
<!-- Node46&#45;&gt;Node47 -->
<g id="edge2" class="edge">
<title>Node46&#45;&gt;Node47</title>
<path fill="none" stroke="#191970" d="M292.2937,-51.0128C304.5249,-52.883 316.95,-54.7829 328.4648,-56.5435"/>
<polygon fill="#191970" stroke="#191970" points="292.5035,-47.5043 282.0893,-49.4525 291.4454,-54.4239 292.5035,-47.5043"/>
</g>
<!-- Node48 -->
<g id="node4" class="node">
<title>Node48</title>
<g id="a_node4"><a xlink:href="classAsteroids_1_1Domain_1_1Game_1_1Game.html#ac3e1c5498adb64ea278d1a4b69db412b" target="_top" xlink:title="Asteroids::Domain::\lGame::Game::win_round">
<polygon fill="#ffffff" stroke="#000000" points="318,-.5 318,-30.5 443,-30.5 443,-.5 318,-.5"/>
<text text-anchor="start" x="326" y="-18.5" font-family="Helvetica,sans-Serif" font-size="10.00" fill="#000000">Asteroids::Domain::</text>
<text text-anchor="middle" x="380.5" y="-7.5" font-family="Helvetica,sans-Serif" font-size="10.00" fill="#000000">Game::Game::win_round</text>
</a>
</g>
</g>
<!-- Node46&#45;&gt;Node48 -->
<g id="edge3" class="edge">
<title>Node46&#45;&gt;Node48</title>
<path fill="none" stroke="#191970" d="M292.0986,-28.4764C300.683,-27.2163 309.3658,-25.9417 317.7652,-24.7088"/>
<polygon fill="#191970" stroke="#191970" points="291.475,-25.0303 282.0893,-29.9456 292.4916,-31.9561 291.475,-25.0303"/>
</g>
<!-- Node49 -->
<g id="node5" class="node">
<title>Node49</title>
<g id="a_node5"><a xlink:href="classAsteroids_1_1Domain_1_1Game_1_1Game.html#abf55b1a7206729ce7e384bc8e6cb73d0" target="_top" xlink:title="Asteroids::Domain::\lGame::Game::maybe_win_round">
<polygon fill="#ffffff" stroke="#000000" points="479,-.5 479,-30.5 639,-30.5 639,-.5 479,-.5"/>
<text text-anchor="start" x="487" y="-18.5" font-family="Helvetica,sans-Serif" font-size="10.00" fill="#000000">Asteroids::Domain::</text>
<text text-anchor="middle" x="559" y="-7.5" font-family="Helvetica,sans-Serif" font-size="10.00" fill="#000000">Game::Game::maybe_win_round</text>
</a>
</g>
</g>
<!-- Node48&#45;&gt;Node49 -->
<g id="edge4" class="edge">
<title>Node48&#45;&gt;Node49</title>
<path fill="none" stroke="#191970" d="M453.3421,-15.5C461.7716,-15.5 470.4033,-15.5 478.9224,-15.5"/>
<polygon fill="#191970" stroke="#191970" points="453.1815,-12.0001 443.1814,-15.5 453.1814,-19.0001 453.1815,-12.0001"/>
</g>
<!-- Node50 -->
<g id="node6" class="node">
<title>Node50</title>
<g id="a_node6"><a xlink:href="classAsteroids_1_1Domain_1_1Game_1_1Game.html#aa63114be578393b0113f116798346ac4" target="_top" xlink:title="Asteroids::Domain::\lGame::Game::update">
<polygon fill="#ffffff" stroke="#000000" points="675,-.5 675,-30.5 785,-30.5 785,-.5 675,-.5"/>
<text text-anchor="start" x="683" y="-18.5" font-family="Helvetica,sans-Serif" font-size="10.00" fill="#000000">Asteroids::Domain::</text>
<text text-anchor="middle" x="730" y="-7.5" font-family="Helvetica,sans-Serif" font-size="10.00" fill="#000000">Game::Game::update</text>
</a>
</g>
</g>
<!-- Node49&#45;&gt;Node50 -->
<g id="edge5" class="edge">
<title>Node49&#45;&gt;Node50</title>
<path fill="none" stroke="#191970" d="M649.3583,-15.5C657.9673,-15.5 666.5105,-15.5 674.6371,-15.5"/>
<polygon fill="#191970" stroke="#191970" points="649.2427,-12.0001 639.2427,-15.5 649.2427,-19.0001 649.2427,-12.0001"/>
</g>
</g>
</svg>
