<?xml version="1.0" encoding="UTF-8" standalone="no"?>
<!DOCTYPE svg PUBLIC "-//W3C//DTD SVG 1.1//EN"
 "http://www.w3.org/Graphics/SVG/1.1/DTD/svg11.dtd">
<!-- Generated by graphviz version 2.40.1 (20161225.0304)
 -->
<!-- Title: Asteroids::Domain::Game::Actors::Actor::check_collision Pages: 1 -->
<svg width="550pt" height="110pt"
 viewBox="0.00 0.00 550.00 110.00" xmlns="http://www.w3.org/2000/svg" xmlns:xlink="http://www.w3.org/1999/xlink">
<g id="graph0" class="graph" transform="scale(1 1) rotate(0) translate(4 106)">
<title>Asteroids::Domain::Game::Actors::Actor::check_collision</title>
<polygon fill="#ffffff" stroke="transparent" points="-4,4 -4,-106 546,-106 546,4 -4,4"/>
<!-- Node23 -->
<g id="node1" class="node">
<title>Node23</title>
<polygon fill="#bfbfbf" stroke="#000000" points="0,-30.5 0,-71.5 107,-71.5 107,-30.5 0,-30.5"/>
<text text-anchor="start" x="8" y="-59.5" font-family="Helvetica,sans-Serif" font-size="10.00" fill="#000000">Asteroids::Domain::</text>
<text text-anchor="start" x="8" y="-48.5" font-family="Helvetica,sans-Serif" font-size="10.00" fill="#000000">Game::Actors::Actor</text>
<text text-anchor="middle" x="53.5" y="-37.5" font-family="Helvetica,sans-Serif" font-size="10.00" fill="#000000">::check_collision</text>
</g>
<!-- Node24 -->
<g id="node2" class="node">
<title>Node24</title>
<g id="a_node2"><a xlink:href="classAsteroids_1_1Domain_1_1Game_1_1Actors_1_1Actor.html#a80d8992f00d8e0056d0287e6076c22a4" target="_top" xlink:title="Asteroids::Domain::\lGame::Actors::Actor\l::check_collision">
<polygon fill="#ffffff" stroke="#000000" points="143,-30.5 143,-71.5 250,-71.5 250,-30.5 143,-30.5"/>
<text text-anchor="start" x="151" y="-59.5" font-family="Helvetica,sans-Serif" font-size="10.00" fill="#000000">Asteroids::Domain::</text>
<text text-anchor="start" x="151" y="-48.5" font-family="Helvetica,sans-Serif" font-size="10.00" fill="#000000">Game::Actors::Actor</text>
<text text-anchor="middle" x="196.5" y="-37.5" font-family="Helvetica,sans-Serif" font-size="10.00" fill="#000000">::check_collision</text>
</a>
</g>
</g>
<!-- Node23&#45;&gt;Node24 -->
<g id="edge1" class="edge">
<title>Node23&#45;&gt;Node24</title>
<path fill="none" stroke="#191970" d="M107.1548,-51C115.3808,-51 123.9436,-51 132.3684,-51"/>
<polygon fill="#191970" stroke="#191970" points="132.5445,-54.5001 142.5445,-51 132.5445,-47.5001 132.5445,-54.5001"/>
</g>
<!-- Node25 -->
<g id="node3" class="node">
<title>Node25</title>
<g id="a_node3"><a xlink:href="classAsteroids_1_1Domain_1_1Game_1_1Actors_1_1Rect.html#acc14c3d293e2bfd3b55aa6e727457bf0" target="_top" xlink:title="Asteroids::Domain::\lGame::Actors::Rect::\lcollides_with_rect">
<polygon fill="#ffffff" stroke="#000000" points="286,-60.5 286,-101.5 396,-101.5 396,-60.5 286,-60.5"/>
<text text-anchor="start" x="294" y="-89.5" font-family="Helvetica,sans-Serif" font-size="10.00" fill="#000000">Asteroids::Domain::</text>
<text text-anchor="start" x="294" y="-78.5" font-family="Helvetica,sans-Serif" font-size="10.00" fill="#000000">Game::Actors::Rect::</text>
<text text-anchor="middle" x="341" y="-67.5" font-family="Helvetica,sans-Serif" font-size="10.00" fill="#000000">collides_with_rect</text>
</a>
</g>
</g>
<!-- Node24&#45;&gt;Node25 -->
<g id="edge2" class="edge">
<title>Node24&#45;&gt;Node25</title>
<path fill="none" stroke="#191970" d="M250.3065,-62.1709C258.6114,-63.8951 267.2648,-65.6917 275.7864,-67.4608"/>
<polygon fill="#191970" stroke="#191970" points="275.1979,-70.9132 285.7006,-69.5192 276.6209,-64.0594 275.1979,-70.9132"/>
</g>
<!-- Node27 -->
<g id="node5" class="node">
<title>Node27</title>
<g id="a_node5"><a xlink:href="classAsteroids_1_1Domain_1_1Game_1_1Actors_1_1Actor.html#a445d9ee9ca02625b5385727aa4cbab1b" target="_top" xlink:title="Asteroids::Domain::\lGame::Actors::Actor\l::get_rect">
<polygon fill="#ffffff" stroke="#000000" points="287.5,-.5 287.5,-41.5 394.5,-41.5 394.5,-.5 287.5,-.5"/>
<text text-anchor="start" x="295.5" y="-29.5" font-family="Helvetica,sans-Serif" font-size="10.00" fill="#000000">Asteroids::Domain::</text>
<text text-anchor="start" x="295.5" y="-18.5" font-family="Helvetica,sans-Serif" font-size="10.00" fill="#000000">Game::Actors::Actor</text>
<text text-anchor="middle" x="341" y="-7.5" font-family="Helvetica,sans-Serif" font-size="10.00" fill="#000000">::get_rect</text>
</a>
</g>
</g>
<!-- Node24&#45;&gt;Node27 -->
<g id="edge4" class="edge">
<title>Node24&#45;&gt;Node27</title>
<path fill="none" stroke="#191970" d="M250.3065,-39.8291C259.0515,-38.0135 268.1828,-36.1177 277.1398,-34.2582"/>
<polygon fill="#191970" stroke="#191970" points="278.0689,-37.64 287.1486,-32.1802 276.6459,-30.7862 278.0689,-37.64"/>
</g>
<!-- Node26 -->
<g id="node4" class="node">
<title>Node26</title>
<g id="a_node4"><a xlink:href="classAsteroids_1_1Domain_1_1Game_1_1Actors_1_1Rect.html#a9e3bfefa639425d77c9f417061b4867e" target="_top" xlink:title="Asteroids::Domain::\lGame::Actors::Rect::\lis_point_within">
<polygon fill="#ffffff" stroke="#000000" points="432,-60.5 432,-101.5 542,-101.5 542,-60.5 432,-60.5"/>
<text text-anchor="start" x="440" y="-89.5" font-family="Helvetica,sans-Serif" font-size="10.00" fill="#000000">Asteroids::Domain::</text>
<text text-anchor="start" x="440" y="-78.5" font-family="Helvetica,sans-Serif" font-size="10.00" fill="#000000">Game::Actors::Rect::</text>
<text text-anchor="middle" x="487" y="-67.5" font-family="Helvetica,sans-Serif" font-size="10.00" fill="#000000">is_point_within</text>
</a>
</g>
</g>
<!-- Node25&#45;&gt;Node26 -->
<g id="edge3" class="edge">
<title>Node25&#45;&gt;Node26</title>
<path fill="none" stroke="#191970" d="M396.1963,-81C404.4633,-81 413.0546,-81 421.5101,-81"/>
<polygon fill="#191970" stroke="#191970" points="421.7256,-84.5001 431.7256,-81 421.7256,-77.5001 421.7256,-84.5001"/>
</g>
</g>
</svg>
