<?xml version="1.0" encoding="UTF-8" standalone="no"?>
<!DOCTYPE svg PUBLIC "-//W3C//DTD SVG 1.1//EN"
 "http://www.w3.org/Graphics/SVG/1.1/DTD/svg11.dtd">
<!-- Generated by graphviz version 2.40.1 (20161225.0304)
 -->
<!-- Title: Asteroids::UI::ClientTextUI::ClientTextUI::store Pages: 1 -->
<svg width="1152pt" height="230pt"
 viewBox="0.00 0.00 1152.00 230.00" xmlns="http://www.w3.org/2000/svg" xmlns:xlink="http://www.w3.org/1999/xlink">
<g id="graph0" class="graph" transform="scale(1 1) rotate(0) translate(4 226)">
<title>Asteroids::UI::ClientTextUI::ClientTextUI::store</title>
<polygon fill="#ffffff" stroke="transparent" points="-4,4 -4,-226 1148,-226 1148,4 -4,4"/>
<!-- Node169 -->
<g id="node1" class="node">
<title>Node169</title>
<polygon fill="#bfbfbf" stroke="#000000" points="0,-185 0,-215 125,-215 125,-185 0,-185"/>
<text text-anchor="start" x="8" y="-203" font-family="Helvetica,sans-Serif" font-size="10.00" fill="#000000">Asteroids::UI::ClientText</text>
<text text-anchor="middle" x="62.5" y="-192" font-family="Helvetica,sans-Serif" font-size="10.00" fill="#000000">UI::ClientTextUI::store</text>
</g>
<!-- Node170 -->
<g id="node2" class="node">
<title>Node170</title>
<g id="a_node2"><a xlink:href="classAsteroids_1_1UI_1_1ClientTextUI_1_1ClientTextUI.html#a41f904ea570af3e3a8c4d70da8411ef3" target="_top" xlink:title="Asteroids::UI::ClientText\lUI::ClientTextUI::print">
<polygon fill="#ffffff" stroke="#000000" points="1019,-112 1019,-142 1144,-142 1144,-112 1019,-112"/>
<text text-anchor="start" x="1027" y="-130" font-family="Helvetica,sans-Serif" font-size="10.00" fill="#000000">Asteroids::UI::ClientText</text>
<text text-anchor="middle" x="1081.5" y="-119" font-family="Helvetica,sans-Serif" font-size="10.00" fill="#000000">UI::ClientTextUI::print</text>
</a>
</g>
</g>
<!-- Node169&#45;&gt;Node170 -->
<g id="edge1" class="edge">
<title>Node169&#45;&gt;Node170</title>
<path fill="none" stroke="#191970" d="M125.1518,-206.5412C192.7615,-213.0262 303.6375,-222 399.5,-222 399.5,-222 399.5,-222 739.5,-222 849.3967,-222 879.0424,-214.6384 983,-179 1006.2656,-171.0242 1030.7266,-158.1381 1049.4525,-147.1895"/>
<polygon fill="#191970" stroke="#191970" points="1051.358,-150.1283 1058.1541,-142.0004 1047.7727,-144.1162 1051.358,-150.1283"/>
</g>
<!-- Node171 -->
<g id="node3" class="node">
<title>Node171</title>
<g id="a_node3"><a xlink:href="classAsteroids_1_1UI_1_1ClientTextUI_1_1ClientTextUI.html#a66aab545b0cd59af6bec829a1b82be89" target="_top" xlink:title="Asteroids::UI::ClientText\lUI::ClientTextUI::store_loop">
<polygon fill="#ffffff" stroke="#000000" points="161,-163 161,-193 301,-193 301,-163 161,-163"/>
<text text-anchor="start" x="169" y="-181" font-family="Helvetica,sans-Serif" font-size="10.00" fill="#000000">Asteroids::UI::ClientText</text>
<text text-anchor="middle" x="231" y="-170" font-family="Helvetica,sans-Serif" font-size="10.00" fill="#000000">UI::ClientTextUI::store_loop</text>
</a>
</g>
</g>
<!-- Node169&#45;&gt;Node171 -->
<g id="edge2" class="edge">
<title>Node169&#45;&gt;Node171</title>
<path fill="none" stroke="#191970" d="M125.2432,-191.808C133.5824,-190.7192 142.223,-189.5911 150.8073,-188.4703"/>
<polygon fill="#191970" stroke="#191970" points="151.3745,-191.926 160.8371,-187.1607 150.4681,-184.9849 151.3745,-191.926"/>
</g>
<!-- Node171&#45;&gt;Node170 -->
<g id="edge3" class="edge">
<title>Node171&#45;&gt;Node170</title>
<path fill="none" stroke="#191970" d="M301.2311,-179.9729C369.5912,-181.7217 476.4168,-184 569,-184 569,-184 569,-184 739.5,-184 836.8897,-184 947.7827,-161.2326 1016.2105,-144.4759"/>
<polygon fill="#191970" stroke="#191970" points="1017.1279,-147.8545 1025.9916,-142.0506 1015.4432,-141.0602 1017.1279,-147.8545"/>
</g>
<!-- Node172 -->
<g id="node4" class="node">
<title>Node172</title>
<g id="a_node4"><a xlink:href="classAsteroids_1_1UI_1_1ClientTextUI_1_1ClientTextUI.html#a9175792a129c214f55dd0bda9ac36b33" target="_top" xlink:title="Asteroids::UI::ClientText\lUI::ClientTextUI::store\l_offer_available_items">
<polygon fill="#ffffff" stroke="#000000" points="337,-114.5 337,-155.5 462,-155.5 462,-114.5 337,-114.5"/>
<text text-anchor="start" x="345" y="-143.5" font-family="Helvetica,sans-Serif" font-size="10.00" fill="#000000">Asteroids::UI::ClientText</text>
<text text-anchor="start" x="345" y="-132.5" font-family="Helvetica,sans-Serif" font-size="10.00" fill="#000000">UI::ClientTextUI::store</text>
<text text-anchor="middle" x="399.5" y="-121.5" font-family="Helvetica,sans-Serif" font-size="10.00" fill="#000000">_offer_available_items</text>
</a>
</g>
</g>
<!-- Node171&#45;&gt;Node172 -->
<g id="edge4" class="edge">
<title>Node171&#45;&gt;Node172</title>
<path fill="none" stroke="#191970" d="M289.9331,-162.9607C301.9147,-159.9031 314.6493,-156.6533 327.0371,-153.492"/>
<polygon fill="#191970" stroke="#191970" points="328.0526,-156.8451 336.8766,-150.9811 326.3216,-150.0625 328.0526,-156.8451"/>
</g>
<!-- Node172&#45;&gt;Node170 -->
<g id="edge5" class="edge">
<title>Node172&#45;&gt;Node170</title>
<path fill="none" stroke="#191970" d="M462.1145,-135.263C568.9633,-135.5566 793.3608,-135.4993 983,-131 991.3625,-130.8016 1000.1222,-130.5332 1008.8226,-130.2286"/>
<polygon fill="#191970" stroke="#191970" points="1009.1163,-133.7203 1018.9815,-129.8566 1008.8601,-126.725 1009.1163,-133.7203"/>
</g>
<!-- Node173 -->
<g id="node5" class="node">
<title>Node173</title>
<g id="a_node5"><a xlink:href="classAsteroids_1_1UI_1_1ClientTextUI_1_1ClientTextUI.html#a469a7cd3423794fa0ca7c34d95db5a10" target="_top" xlink:title="Asteroids::UI::ClientText\lUI::ClientTextUI::purchasing\l_store_item">
<polygon fill="#ffffff" stroke="#000000" points="498,-76.5 498,-117.5 640,-117.5 640,-76.5 498,-76.5"/>
<text text-anchor="start" x="506" y="-105.5" font-family="Helvetica,sans-Serif" font-size="10.00" fill="#000000">Asteroids::UI::ClientText</text>
<text text-anchor="start" x="506" y="-94.5" font-family="Helvetica,sans-Serif" font-size="10.00" fill="#000000">UI::ClientTextUI::purchasing</text>
<text text-anchor="middle" x="569" y="-83.5" font-family="Helvetica,sans-Serif" font-size="10.00" fill="#000000">_store_item</text>
</a>
</g>
</g>
<!-- Node172&#45;&gt;Node173 -->
<g id="edge6" class="edge">
<title>Node172&#45;&gt;Node173</title>
<path fill="none" stroke="#191970" d="M462.134,-120.9582C470.5618,-119.0688 479.3033,-117.109 487.9922,-115.161"/>
<polygon fill="#191970" stroke="#191970" points="488.7684,-118.574 497.7605,-112.9711 487.237,-111.7435 488.7684,-118.574"/>
</g>
<!-- Node173&#45;&gt;Node170 -->
<g id="edge11" class="edge">
<title>Node173&#45;&gt;Node170</title>
<path fill="none" stroke="#191970" d="M640.2609,-101.1714C737.4852,-106.8625 910.7842,-117.0069 1008.7687,-122.7426"/>
<polygon fill="#191970" stroke="#191970" points="1008.6943,-126.2441 1018.8818,-123.3345 1009.1035,-119.2561 1008.6943,-126.2441"/>
</g>
<!-- Node174 -->
<g id="node6" class="node">
<title>Node174</title>
<g id="a_node6"><a xlink:href="classAsteroids_1_1UI_1_1ClientTextUI_1_1ClientTextUI.html#a4613a9af03e06c960c467b0b6be44db9" target="_top" xlink:title="Asteroids::UI::ClientText\lUI::ClientTextUI::pay_for\l_store_item">
<polygon fill="#ffffff" stroke="#000000" points="676,-38.5 676,-79.5 803,-79.5 803,-38.5 676,-38.5"/>
<text text-anchor="start" x="684" y="-67.5" font-family="Helvetica,sans-Serif" font-size="10.00" fill="#000000">Asteroids::UI::ClientText</text>
<text text-anchor="start" x="684" y="-56.5" font-family="Helvetica,sans-Serif" font-size="10.00" fill="#000000">UI::ClientTextUI::pay_for</text>
<text text-anchor="middle" x="739.5" y="-45.5" font-family="Helvetica,sans-Serif" font-size="10.00" fill="#000000">_store_item</text>
</a>
</g>
</g>
<!-- Node173&#45;&gt;Node174 -->
<g id="edge7" class="edge">
<title>Node173&#45;&gt;Node174</title>
<path fill="none" stroke="#191970" d="M640.3194,-81.1048C648.7803,-79.2191 657.4293,-77.2914 665.9208,-75.3989"/>
<polygon fill="#191970" stroke="#191970" points="666.797,-78.7895 675.7962,-73.1979 665.2742,-71.9572 666.797,-78.7895"/>
</g>
<!-- Node174&#45;&gt;Node170 -->
<g id="edge10" class="edge">
<title>Node174&#45;&gt;Node170</title>
<path fill="none" stroke="#191970" d="M803.1538,-64.9689C852.6297,-70.3707 922.7459,-79.7001 983,-94 999.1217,-97.8261 1016.3585,-103.1563 1031.8335,-108.4183"/>
<polygon fill="#191970" stroke="#191970" points="1031.1241,-111.8768 1041.7189,-111.8497 1033.4196,-105.2639 1031.1241,-111.8768"/>
</g>
<!-- Node175 -->
<g id="node7" class="node">
<title>Node175</title>
<g id="a_node7"><a xlink:href="classAsteroids_1_1UI_1_1ClientTextUI_1_1ClientTextUI.html#a02d420d49c44459fe7a2af9b0000adf9" target="_top" xlink:title="Asteroids::UI::ClientText\lUI::ClientTextUI::pay_for\l_store_item_with_credit_card">
<polygon fill="#ffffff" stroke="#000000" points="839,-.5 839,-41.5 983,-41.5 983,-.5 839,-.5"/>
<text text-anchor="start" x="847" y="-29.5" font-family="Helvetica,sans-Serif" font-size="10.00" fill="#000000">Asteroids::UI::ClientText</text>
<text text-anchor="start" x="847" y="-18.5" font-family="Helvetica,sans-Serif" font-size="10.00" fill="#000000">UI::ClientTextUI::pay_for</text>
<text text-anchor="middle" x="911" y="-7.5" font-family="Helvetica,sans-Serif" font-size="10.00" fill="#000000">_store_item_with_credit_card</text>
</a>
</g>
</g>
<!-- Node174&#45;&gt;Node175 -->
<g id="edge8" class="edge">
<title>Node174&#45;&gt;Node175</title>
<path fill="none" stroke="#191970" d="M803.3603,-44.8502C811.6427,-43.015 820.217,-41.1152 828.7453,-39.2255"/>
<polygon fill="#191970" stroke="#191970" points="829.7091,-42.5969 838.7152,-37.0165 828.1948,-35.7627 829.7091,-42.5969"/>
</g>
<!-- Node175&#45;&gt;Node170 -->
<g id="edge9" class="edge">
<title>Node175&#45;&gt;Node170</title>
<path fill="none" stroke="#191970" d="M956.567,-41.6784C965.48,-46.1325 974.6479,-51.0103 983,-56 1008.2223,-71.0682 1035.177,-90.7741 1054.5017,-105.6015"/>
<polygon fill="#191970" stroke="#191970" points="1052.4996,-108.4778 1062.5493,-111.8327 1056.7852,-102.943 1052.4996,-108.4778"/>
</g>
</g>
</svg>
