<?xml version="1.0" encoding="UTF-8" standalone="no"?>
<!DOCTYPE svg PUBLIC "-//W3C//DTD SVG 1.1//EN"
 "http://www.w3.org/Graphics/SVG/1.1/DTD/svg11.dtd">
<!-- Generated by graphviz version 2.40.1 (20161225.0304)
 -->
<!-- Title: Asteroids::UI::ClientTextUI::DisplayGrid Pages: 1 -->
<svg width="229pt" height="678pt"
 viewBox="0.00 0.00 229.00 678.00" xmlns="http://www.w3.org/2000/svg" xmlns:xlink="http://www.w3.org/1999/xlink">
<g id="graph0" class="graph" transform="scale(1 1) rotate(0) translate(4 674)">
<title>Asteroids::UI::ClientTextUI::DisplayGrid</title>
<polygon fill="#ffffff" stroke="transparent" points="-4,4 -4,-674 225,-674 225,4 -4,4"/>
<!-- Node1 -->
<g id="node1" class="node">
<title>Node1</title>
<polygon fill="#bfbfbf" stroke="#000000" points="49,-.5 49,-321.5 176,-321.5 176,-.5 49,-.5"/>
<text text-anchor="start" x="57" y="-309.5" font-family="Helvetica,sans-Serif" font-size="10.00" fill="#000000">Asteroids::UI::ClientText</text>
<text text-anchor="middle" x="112.5" y="-298.5" font-family="Helvetica,sans-Serif" font-size="10.00" fill="#000000">UI::DisplayGrid</text>
<polyline fill="none" stroke="#000000" points="49,-291.5 176,-291.5 "/>
<text text-anchor="start" x="57" y="-279.5" font-family="Helvetica,sans-Serif" font-size="10.00" fill="#000000">&#45; _height</text>
<text text-anchor="start" x="57" y="-268.5" font-family="Helvetica,sans-Serif" font-size="10.00" fill="#000000">&#45; _source_height</text>
<text text-anchor="start" x="57" y="-257.5" font-family="Helvetica,sans-Serif" font-size="10.00" fill="#000000">&#45; _source_width</text>
<text text-anchor="start" x="57" y="-246.5" font-family="Helvetica,sans-Serif" font-size="10.00" fill="#000000">&#45; _translation_ratio</text>
<text text-anchor="start" x="57" y="-235.5" font-family="Helvetica,sans-Serif" font-size="10.00" fill="#000000">&#45; _unused_height</text>
<text text-anchor="start" x="57" y="-224.5" font-family="Helvetica,sans-Serif" font-size="10.00" fill="#000000">&#45; _unused_source_height</text>
<text text-anchor="start" x="57" y="-213.5" font-family="Helvetica,sans-Serif" font-size="10.00" fill="#000000">&#45; _unused_source_width</text>
<text text-anchor="start" x="57" y="-202.5" font-family="Helvetica,sans-Serif" font-size="10.00" fill="#000000">&#45; _unused_width</text>
<text text-anchor="start" x="57" y="-191.5" font-family="Helvetica,sans-Serif" font-size="10.00" fill="#000000">&#45; _width</text>
<polyline fill="none" stroke="#000000" points="49,-184.5 176,-184.5 "/>
<text text-anchor="start" x="57" y="-172.5" font-family="Helvetica,sans-Serif" font-size="10.00" fill="#000000">+ DisplayGrid()</text>
<text text-anchor="start" x="57" y="-161.5" font-family="Helvetica,sans-Serif" font-size="10.00" fill="#000000">+ clear()</text>
<text text-anchor="start" x="57" y="-150.5" font-family="Helvetica,sans-Serif" font-size="10.00" fill="#000000">+ draw_filled_polygon()</text>
<text text-anchor="start" x="57" y="-139.5" font-family="Helvetica,sans-Serif" font-size="10.00" fill="#000000">+ draw_polygon()</text>
<text text-anchor="start" x="57" y="-128.5" font-family="Helvetica,sans-Serif" font-size="10.00" fill="#000000">+ print()</text>
<text text-anchor="start" x="57" y="-117.5" font-family="Helvetica,sans-Serif" font-size="10.00" fill="#000000">+ render()</text>
<text text-anchor="start" x="57" y="-106.5" font-family="Helvetica,sans-Serif" font-size="10.00" fill="#000000">+ reset()</text>
<text text-anchor="start" x="57" y="-95.5" font-family="Helvetica,sans-Serif" font-size="10.00" fill="#000000">+ set_footer_text()</text>
<text text-anchor="start" x="57" y="-84.5" font-family="Helvetica,sans-Serif" font-size="10.00" fill="#000000">+ set_grid_pixel()</text>
<text text-anchor="start" x="57" y="-73.5" font-family="Helvetica,sans-Serif" font-size="10.00" fill="#000000">+ set_header_text()</text>
<text text-anchor="start" x="57" y="-62.5" font-family="Helvetica,sans-Serif" font-size="10.00" fill="#000000">+ set_pixel()</text>
<text text-anchor="start" x="57" y="-51.5" font-family="Helvetica,sans-Serif" font-size="10.00" fill="#000000">&#45; add_border()</text>
<text text-anchor="start" x="57" y="-40.5" font-family="Helvetica,sans-Serif" font-size="10.00" fill="#000000">&#45; calculate_translation()</text>
<text text-anchor="start" x="57" y="-29.5" font-family="Helvetica,sans-Serif" font-size="10.00" fill="#000000">&#45; clear_grid()</text>
<text text-anchor="start" x="57" y="-18.5" font-family="Helvetica,sans-Serif" font-size="10.00" fill="#000000">&#45; init()</text>
<text text-anchor="start" x="57" y="-7.5" font-family="Helvetica,sans-Serif" font-size="10.00" fill="#000000">&#45; translate_source_point()</text>
</g>
<!-- Node2 -->
<g id="node2" class="node">
<title>Node2</title>
<polygon fill="#ffffff" stroke="#bfbfbf" points="0,-380.5 0,-448.5 119,-448.5 119,-380.5 0,-380.5"/>
<text text-anchor="start" x="8" y="-436.5" font-family="Helvetica,sans-Serif" font-size="10.00" fill="#000000">std::vector&lt; std::vector</text>
<text text-anchor="middle" x="59.5" y="-425.5" font-family="Helvetica,sans-Serif" font-size="10.00" fill="#000000">&lt; bool &gt; &gt;</text>
<polyline fill="none" stroke="#bfbfbf" points="0,-418.5 119,-418.5 "/>
<text text-anchor="start" x="8" y="-406.5" font-family="Helvetica,sans-Serif" font-size="10.00" fill="#000000">+ elements</text>
<polyline fill="none" stroke="#bfbfbf" points="0,-399.5 119,-399.5 "/>
<text text-anchor="middle" x="59.5" y="-387.5" font-family="Helvetica,sans-Serif" font-size="10.00" fill="#000000"> </text>
</g>
<!-- Node2&#45;&gt;Node1 -->
<g id="edge1" class="edge">
<title>Node2&#45;&gt;Node1</title>
<path fill="none" stroke="#404040" d="M66.6478,-380.3119C69.4044,-367.127 72.7753,-351.0039 76.4263,-333.5411"/>
<polygon fill="none" stroke="#404040" points="76.4723,-333.3209 73.7849,-326.6293 78.9281,-321.5749 81.6155,-328.2665 76.4723,-333.3209"/>
<text text-anchor="middle" x="85.5" y="-348.5" font-family="Helvetica,sans-Serif" font-size="10.00" fill="#000000"> &#45;grid</text>
</g>
<!-- Node3 -->
<g id="node3" class="node">
<title>Node3</title>
<g id="a_node3"><a xlink:title="STL class. ">
<polygon fill="#ffffff" stroke="#bfbfbf" points="11,-502 11,-559 98,-559 98,-502 11,-502"/>
<text text-anchor="middle" x="54.5" y="-547" font-family="Helvetica,sans-Serif" font-size="10.00" fill="#000000">std::vector&lt; T &gt;</text>
<polyline fill="none" stroke="#bfbfbf" points="11,-540 98,-540 "/>
<text text-anchor="middle" x="54.5" y="-528" font-family="Helvetica,sans-Serif" font-size="10.00" fill="#000000"> </text>
<polyline fill="none" stroke="#bfbfbf" points="11,-521 98,-521 "/>
<text text-anchor="middle" x="54.5" y="-509" font-family="Helvetica,sans-Serif" font-size="10.00" fill="#000000"> </text>
</a>
</g>
</g>
<!-- Node3&#45;&gt;Node2 -->
<g id="edge2" class="edge">
<title>Node3&#45;&gt;Node2</title>
<path fill="none" stroke="#ffa500" d="M56.1781,-491.569C56.7778,-477.6554 57.4485,-462.0944 58.0294,-448.6178"/>
<polygon fill="#ffa500" stroke="#ffa500" points="52.6699,-491.6844 55.736,-501.8258 59.6634,-491.9859 52.6699,-491.6844"/>
<text text-anchor="middle" x="109.5" y="-470" font-family="Helvetica,sans-Serif" font-size="10.00" fill="#000000"> &lt; std::vector&lt; bool &gt; &gt;</text>
</g>
<!-- Node4 -->
<g id="node4" class="node">
<title>Node4</title>
<polygon fill="#ffffff" stroke="#bfbfbf" points="40,-612.5 40,-669.5 69,-669.5 69,-612.5 40,-612.5"/>
<text text-anchor="middle" x="54.5" y="-657.5" font-family="Helvetica,sans-Serif" font-size="10.00" fill="#000000">T</text>
<polyline fill="none" stroke="#bfbfbf" points="40,-650.5 69,-650.5 "/>
<text text-anchor="middle" x="54.5" y="-638.5" font-family="Helvetica,sans-Serif" font-size="10.00" fill="#000000"> </text>
<polyline fill="none" stroke="#bfbfbf" points="40,-631.5 69,-631.5 "/>
<text text-anchor="middle" x="54.5" y="-619.5" font-family="Helvetica,sans-Serif" font-size="10.00" fill="#000000"> </text>
</g>
<!-- Node4&#45;&gt;Node3 -->
<g id="edge3" class="edge">
<title>Node4&#45;&gt;Node3</title>
<path fill="none" stroke="#404040" d="M54.5,-612.2559C54.5,-599.7224 54.5,-584.8039 54.5,-571.1631"/>
<polygon fill="none" stroke="#404040" points="54.5001,-571.1002 50.5,-565.1002 54.5,-559.1002 58.5,-565.1002 54.5001,-571.1002"/>
<text text-anchor="middle" x="79" y="-586" font-family="Helvetica,sans-Serif" font-size="10.00" fill="#000000"> +elements</text>
</g>
<!-- Node5 -->
<g id="node5" class="node">
<title>Node5</title>
<g id="a_node5"><a xlink:title="STL class. ">
<polygon fill="#ffffff" stroke="#bfbfbf" points="140.5,-386 140.5,-443 200.5,-443 200.5,-386 140.5,-386"/>
<text text-anchor="middle" x="170.5" y="-431" font-family="Helvetica,sans-Serif" font-size="10.00" fill="#000000">std::string</text>
<polyline fill="none" stroke="#bfbfbf" points="140.5,-424 200.5,-424 "/>
<text text-anchor="middle" x="170.5" y="-412" font-family="Helvetica,sans-Serif" font-size="10.00" fill="#000000"> </text>
<polyline fill="none" stroke="#bfbfbf" points="140.5,-405 200.5,-405 "/>
<text text-anchor="middle" x="170.5" y="-393" font-family="Helvetica,sans-Serif" font-size="10.00" fill="#000000"> </text>
</a>
</g>
</g>
<!-- Node5&#45;&gt;Node1 -->
<g id="edge4" class="edge">
<title>Node5&#45;&gt;Node1</title>
<path fill="none" stroke="#404040" d="M163.9594,-385.9131C160.7399,-371.8416 156.5688,-353.6112 151.9952,-333.6211"/>
<polygon fill="none" stroke="#404040" points="151.9364,-333.3638 146.6989,-328.4071 149.2599,-321.6661 154.4974,-326.6228 151.9364,-333.3638"/>
<text text-anchor="middle" x="188.5" y="-354" font-family="Helvetica,sans-Serif" font-size="10.00" fill="#000000"> &#45;_footer_text</text>
<text text-anchor="middle" x="188.5" y="-343" font-family="Helvetica,sans-Serif" font-size="10.00" fill="#000000">&#45;_header_text</text>
</g>
<!-- Node6 -->
<g id="node6" class="node">
<title>Node6</title>
<g id="a_node6"><a xlink:title="STL class. ">
<polygon fill="#ffffff" stroke="#bfbfbf" points="126,-496.5 126,-564.5 221,-564.5 221,-496.5 126,-496.5"/>
<text text-anchor="start" x="134" y="-552.5" font-family="Helvetica,sans-Serif" font-size="10.00" fill="#000000">std::basic_string&lt;</text>
<text text-anchor="middle" x="173.5" y="-541.5" font-family="Helvetica,sans-Serif" font-size="10.00" fill="#000000"> char &gt;</text>
<polyline fill="none" stroke="#bfbfbf" points="126,-534.5 221,-534.5 "/>
<text text-anchor="middle" x="173.5" y="-522.5" font-family="Helvetica,sans-Serif" font-size="10.00" fill="#000000"> </text>
<polyline fill="none" stroke="#bfbfbf" points="126,-515.5 221,-515.5 "/>
<text text-anchor="middle" x="173.5" y="-503.5" font-family="Helvetica,sans-Serif" font-size="10.00" fill="#000000"> </text>
</a>
</g>
</g>
<!-- Node6&#45;&gt;Node5 -->
<g id="edge5" class="edge">
<title>Node6&#45;&gt;Node5</title>
<path fill="none" stroke="#191970" d="M172.3527,-486.1387C171.9816,-471.7904 171.58,-456.2617 171.2459,-443.3418"/>
<polygon fill="none" stroke="#191970" points="168.8587,-486.4174 172.6161,-496.3236 175.8563,-486.2364 168.8587,-486.4174"/>
</g>
</g>
</svg>
