<?xml version="1.0" encoding="UTF-8" standalone="no"?>
<!DOCTYPE svg PUBLIC "-//W3C//DTD SVG 1.1//EN"
 "http://www.w3.org/Graphics/SVG/1.1/DTD/svg11.dtd">
<!-- Generated by graphviz version 2.40.1 (20161225.0304)
 -->
<!-- Title: Asteroids::UI::ServerTextUI::ServerTextUI::do_review_flagged_user Pages: 1 -->
<svg width="656pt" height="50pt"
 viewBox="0.00 0.00 656.00 50.00" xmlns="http://www.w3.org/2000/svg" xmlns:xlink="http://www.w3.org/1999/xlink">
<g id="graph0" class="graph" transform="scale(1 1) rotate(0) translate(4 46)">
<title>Asteroids::UI::ServerTextUI::ServerTextUI::do_review_flagged_user</title>
<polygon fill="#ffffff" stroke="transparent" points="-4,4 -4,-46 652,-46 652,4 -4,4"/>
<!-- Node14 -->
<g id="node1" class="node">
<title>Node14</title>
<polygon fill="#bfbfbf" stroke="#000000" points="0,-.5 0,-41.5 142,-41.5 142,-.5 0,-.5"/>
<text text-anchor="start" x="8" y="-29.5" font-family="Helvetica,sans-Serif" font-size="10.00" fill="#000000">Asteroids::UI::ServerText</text>
<text text-anchor="start" x="8" y="-18.5" font-family="Helvetica,sans-Serif" font-size="10.00" fill="#000000">UI::ServerTextUI::do_review</text>
<text text-anchor="middle" x="71" y="-7.5" font-family="Helvetica,sans-Serif" font-size="10.00" fill="#000000">_flagged_user</text>
</g>
<!-- Node15 -->
<g id="node2" class="node">
<title>Node15</title>
<g id="a_node2"><a xlink:href="classAsteroids_1_1UI_1_1ServerTextUI_1_1ServerTextUI.html#a5518087c5d0ab9fd8c24c1b6948ee11b" target="_top" xlink:title="Asteroids::UI::ServerText\lUI::ServerTextUI::do_review\l_flagged_users">
<polygon fill="#ffffff" stroke="#000000" points="178,-.5 178,-41.5 320,-41.5 320,-.5 178,-.5"/>
<text text-anchor="start" x="186" y="-29.5" font-family="Helvetica,sans-Serif" font-size="10.00" fill="#000000">Asteroids::UI::ServerText</text>
<text text-anchor="start" x="186" y="-18.5" font-family="Helvetica,sans-Serif" font-size="10.00" fill="#000000">UI::ServerTextUI::do_review</text>
<text text-anchor="middle" x="249" y="-7.5" font-family="Helvetica,sans-Serif" font-size="10.00" fill="#000000">_flagged_users</text>
</a>
</g>
</g>
<!-- Node14&#45;&gt;Node15 -->
<g id="edge1" class="edge">
<title>Node14&#45;&gt;Node15</title>
<path fill="none" stroke="#191970" d="M152.1702,-21C160.7888,-21 169.506,-21 177.9953,-21"/>
<polygon fill="#191970" stroke="#191970" points="152.1177,-17.5001 142.1177,-21 152.1177,-24.5001 152.1177,-17.5001"/>
</g>
<!-- Node16 -->
<g id="node3" class="node">
<title>Node16</title>
<g id="a_node3"><a xlink:href="classAsteroids_1_1UI_1_1ServerTextUI_1_1ServerTextUI.html#aae7cc1a6a551fc4dbd5ac7270f1d3e94" target="_top" xlink:title="Asteroids::UI::ServerText\lUI::ServerTextUI::main\l_menu_loop">
<polygon fill="#ffffff" stroke="#000000" points="356,-.5 356,-41.5 484,-41.5 484,-.5 356,-.5"/>
<text text-anchor="start" x="364" y="-29.5" font-family="Helvetica,sans-Serif" font-size="10.00" fill="#000000">Asteroids::UI::ServerText</text>
<text text-anchor="start" x="364" y="-18.5" font-family="Helvetica,sans-Serif" font-size="10.00" fill="#000000">UI::ServerTextUI::main</text>
<text text-anchor="middle" x="420" y="-7.5" font-family="Helvetica,sans-Serif" font-size="10.00" fill="#000000">_menu_loop</text>
</a>
</g>
</g>
<!-- Node15&#45;&gt;Node16 -->
<g id="edge2" class="edge">
<title>Node15&#45;&gt;Node16</title>
<path fill="none" stroke="#191970" d="M330.0909,-21C338.6994,-21 347.3676,-21 355.7453,-21"/>
<polygon fill="#191970" stroke="#191970" points="330.0339,-17.5001 320.0338,-21 330.0338,-24.5001 330.0339,-17.5001"/>
</g>
<!-- Node17 -->
<g id="node4" class="node">
<title>Node17</title>
<g id="a_node4"><a xlink:href="classAsteroids_1_1UI_1_1ServerTextUI_1_1ServerTextUI.html#a92fb489434b5bd2a9e91f5d77c9832ac" target="_top" xlink:title="Asteroids::UI::ServerText\lUI::ServerTextUI::run">
<polygon fill="#ffffff" stroke="#000000" points="520,-6 520,-36 648,-36 648,-6 520,-6"/>
<text text-anchor="start" x="528" y="-24" font-family="Helvetica,sans-Serif" font-size="10.00" fill="#000000">Asteroids::UI::ServerText</text>
<text text-anchor="middle" x="584" y="-13" font-family="Helvetica,sans-Serif" font-size="10.00" fill="#000000">UI::ServerTextUI::run</text>
</a>
</g>
</g>
<!-- Node16&#45;&gt;Node17 -->
<g id="edge3" class="edge">
<title>Node16&#45;&gt;Node17</title>
<path fill="none" stroke="#191970" d="M494.5641,-21C503.0037,-21 511.5492,-21 519.8391,-21"/>
<polygon fill="#191970" stroke="#191970" points="494.3465,-17.5001 484.3464,-21 494.3464,-24.5001 494.3465,-17.5001"/>
</g>
</g>
</svg>
