<?xml version="1.0" encoding="UTF-8" standalone="no"?>
<!DOCTYPE svg PUBLIC "-//W3C//DTD SVG 1.1//EN"
 "http://www.w3.org/Graphics/SVG/1.1/DTD/svg11.dtd">
<!-- Generated by graphviz version 2.40.1 (20161225.0304)
 -->
<!-- Title: Asteroids::UI::ClientTextUI::DisplayGrid::clear_grid Pages: 1 -->
<svg width="665pt" height="100pt"
 viewBox="0.00 0.00 665.00 99.50" xmlns="http://www.w3.org/2000/svg" xmlns:xlink="http://www.w3.org/1999/xlink">
<g id="graph0" class="graph" transform="scale(1 1) rotate(0) translate(4 95.5)">
<title>Asteroids::UI::ClientTextUI::DisplayGrid::clear_grid</title>
<polygon fill="#ffffff" stroke="transparent" points="-4,4 -4,-95.5 661,-95.5 661,4 -4,4"/>
<!-- Node31 -->
<g id="node1" class="node">
<title>Node31</title>
<polygon fill="#bfbfbf" stroke="#000000" points="0,-27.5 0,-57.5 132,-57.5 132,-27.5 0,-27.5"/>
<text text-anchor="start" x="8" y="-45.5" font-family="Helvetica,sans-Serif" font-size="10.00" fill="#000000">Asteroids::UI::ClientText</text>
<text text-anchor="middle" x="66" y="-34.5" font-family="Helvetica,sans-Serif" font-size="10.00" fill="#000000">UI::DisplayGrid::clear_grid</text>
</g>
<!-- Node32 -->
<g id="node2" class="node">
<title>Node32</title>
<g id="a_node2"><a xlink:href="classAsteroids_1_1UI_1_1ClientTextUI_1_1DisplayGrid.html#a8c7048980c9b3443b5cfa20dd16c6935" target="_top" xlink:title="Asteroids::UI::ClientText\lUI::DisplayGrid::add_border">
<polygon fill="#ffffff" stroke="#000000" points="168,-27.5 168,-57.5 306,-57.5 306,-27.5 168,-27.5"/>
<text text-anchor="start" x="176" y="-45.5" font-family="Helvetica,sans-Serif" font-size="10.00" fill="#000000">Asteroids::UI::ClientText</text>
<text text-anchor="middle" x="237" y="-34.5" font-family="Helvetica,sans-Serif" font-size="10.00" fill="#000000">UI::DisplayGrid::add_border</text>
</a>
</g>
</g>
<!-- Node31&#45;&gt;Node32 -->
<g id="edge1" class="edge">
<title>Node31&#45;&gt;Node32</title>
<path fill="none" stroke="#191970" d="M132.1131,-42.5C140.5569,-42.5 149.267,-42.5 157.8899,-42.5"/>
<polygon fill="#191970" stroke="#191970" points="157.9513,-46.0001 167.9512,-42.5 157.9512,-39.0001 157.9513,-46.0001"/>
</g>
<!-- Node33 -->
<g id="node3" class="node">
<title>Node33</title>
<g id="a_node3"><a xlink:href="classAsteroids_1_1UI_1_1ClientTextUI_1_1DisplayGrid.html#a3f77a0874f78d753020e8ba12081bd85" target="_top" xlink:title="Asteroids::UI::ClientText\lUI::DisplayGrid::set_pixel">
<polygon fill="#ffffff" stroke="#000000" points="342,-27.5 342,-57.5 471,-57.5 471,-27.5 342,-27.5"/>
<text text-anchor="start" x="350" y="-45.5" font-family="Helvetica,sans-Serif" font-size="10.00" fill="#000000">Asteroids::UI::ClientText</text>
<text text-anchor="middle" x="406.5" y="-34.5" font-family="Helvetica,sans-Serif" font-size="10.00" fill="#000000">UI::DisplayGrid::set_pixel</text>
</a>
</g>
</g>
<!-- Node32&#45;&gt;Node33 -->
<g id="edge2" class="edge">
<title>Node32&#45;&gt;Node33</title>
<path fill="none" stroke="#191970" d="M306.4312,-42.5C314.7509,-42.5 323.2743,-42.5 331.6663,-42.5"/>
<polygon fill="#191970" stroke="#191970" points="331.8148,-46.0001 341.8148,-42.5 331.8148,-39.0001 331.8148,-46.0001"/>
</g>
<!-- Node34 -->
<g id="node4" class="node">
<title>Node34</title>
<g id="a_node4"><a xlink:href="classAsteroids_1_1UI_1_1ClientTextUI_1_1DisplayGrid.html#ae831e34de9c3fe439b09ed2543e30dee" target="_top" xlink:title="Asteroids::UI::ClientText\lUI::DisplayGrid::translate\l_source_point">
<polygon fill="#ffffff" stroke="#000000" points="518,-50 518,-91 646,-91 646,-50 518,-50"/>
<text text-anchor="start" x="526" y="-79" font-family="Helvetica,sans-Serif" font-size="10.00" fill="#000000">Asteroids::UI::ClientText</text>
<text text-anchor="start" x="526" y="-68" font-family="Helvetica,sans-Serif" font-size="10.00" fill="#000000">UI::DisplayGrid::translate</text>
<text text-anchor="middle" x="582" y="-57" font-family="Helvetica,sans-Serif" font-size="10.00" fill="#000000">_source_point</text>
</a>
</g>
</g>
<!-- Node33&#45;&gt;Node34 -->
<g id="edge3" class="edge">
<title>Node33&#45;&gt;Node34</title>
<path fill="none" stroke="#191970" d="M471.3511,-52.8466C483.1751,-54.7331 495.5955,-56.7147 507.6688,-58.6409"/>
<polygon fill="#191970" stroke="#191970" points="507.2815,-62.1233 517.708,-60.2426 508.3844,-55.2107 507.2815,-62.1233"/>
</g>
<!-- Node35 -->
<g id="node5" class="node">
<title>Node35</title>
<g id="a_node5"><a xlink:href="classAsteroids_1_1UI_1_1ClientTextUI_1_1DisplayGrid.html#acd82bd351302d1423b4e30f3312f7398" target="_top" xlink:title="Asteroids::UI::ClientText\lUI::DisplayGrid::set_grid_pixel">
<polygon fill="#ffffff" stroke="#000000" points="507,-.5 507,-30.5 657,-30.5 657,-.5 507,-.5"/>
<text text-anchor="start" x="515" y="-18.5" font-family="Helvetica,sans-Serif" font-size="10.00" fill="#000000">Asteroids::UI::ClientText</text>
<text text-anchor="middle" x="582" y="-7.5" font-family="Helvetica,sans-Serif" font-size="10.00" fill="#000000">UI::DisplayGrid::set_grid_pixel</text>
</a>
</g>
</g>
<!-- Node33&#45;&gt;Node35 -->
<g id="edge4" class="edge">
<title>Node33&#45;&gt;Node35</title>
<path fill="none" stroke="#191970" d="M471.3511,-32.5229C479.6325,-31.2488 488.2064,-29.9298 496.7488,-28.6156"/>
<polygon fill="#191970" stroke="#191970" points="497.3913,-32.058 506.7428,-27.078 496.3268,-25.1394 497.3913,-32.058"/>
</g>
</g>
</svg>
