<?xml version="1.0" encoding="UTF-8" standalone="no"?>
<!DOCTYPE svg PUBLIC "-//W3C//DTD SVG 1.1//EN"
 "http://www.w3.org/Graphics/SVG/1.1/DTD/svg11.dtd">
<!-- Generated by graphviz version 2.40.1 (20161225.0304)
 -->
<!-- Title: Asteroids::Domain::Game::Actors::Rect::update_dimensions Pages: 1 -->
<svg width="1256pt" height="350pt"
 viewBox="0.00 0.00 1256.00 350.00" xmlns="http://www.w3.org/2000/svg" xmlns:xlink="http://www.w3.org/1999/xlink">
<g id="graph0" class="graph" transform="scale(1 1) rotate(0) translate(4 346)">
<title>Asteroids::Domain::Game::Actors::Rect::update_dimensions</title>
<polygon fill="#ffffff" stroke="transparent" points="-4,4 -4,-346 1252,-346 1252,4 -4,4"/>
<!-- Node67 -->
<g id="node1" class="node">
<title>Node67</title>
<polygon fill="#bfbfbf" stroke="#000000" points="0,-120.5 0,-161.5 110,-161.5 110,-120.5 0,-120.5"/>
<text text-anchor="start" x="8" y="-149.5" font-family="Helvetica,sans-Serif" font-size="10.00" fill="#000000">Asteroids::Domain::</text>
<text text-anchor="start" x="8" y="-138.5" font-family="Helvetica,sans-Serif" font-size="10.00" fill="#000000">Game::Actors::Rect::</text>
<text text-anchor="middle" x="55" y="-127.5" font-family="Helvetica,sans-Serif" font-size="10.00" fill="#000000">update_dimensions</text>
</g>
<!-- Node68 -->
<g id="node2" class="node">
<title>Node68</title>
<g id="a_node2"><a xlink:href="classAsteroids_1_1Domain_1_1Game_1_1Actors_1_1Rect.html#a0ab06f4fe6e0dbd681c89397f22aa08f" target="_top" xlink:title="Asteroids::Domain::\lGame::Actors::Rect::\ladd_offset">
<polygon fill="#ffffff" stroke="#000000" points="146,-150.5 146,-191.5 256,-191.5 256,-150.5 146,-150.5"/>
<text text-anchor="start" x="154" y="-179.5" font-family="Helvetica,sans-Serif" font-size="10.00" fill="#000000">Asteroids::Domain::</text>
<text text-anchor="start" x="154" y="-168.5" font-family="Helvetica,sans-Serif" font-size="10.00" fill="#000000">Game::Actors::Rect::</text>
<text text-anchor="middle" x="201" y="-157.5" font-family="Helvetica,sans-Serif" font-size="10.00" fill="#000000">add_offset</text>
</a>
</g>
</g>
<!-- Node67&#45;&gt;Node68 -->
<g id="edge1" class="edge">
<title>Node67&#45;&gt;Node68</title>
<path fill="none" stroke="#191970" d="M120.1314,-154.3832C128.6759,-156.1389 137.3658,-157.9245 145.7256,-159.6422"/>
<polygon fill="#191970" stroke="#191970" points="120.6962,-150.9262 110.1963,-152.3417 119.2872,-157.7829 120.6962,-150.9262"/>
</g>
<!-- Node90 -->
<g id="node24" class="node">
<title>Node90</title>
<g id="a_node24"><a xlink:href="classAsteroids_1_1Domain_1_1Game_1_1Actors_1_1Rect.html#a687d0848c13d1b8dfbd2f896636b4145" target="_top" xlink:title="Create a rect from polygon points. ">
<polygon fill="#ffffff" stroke="#000000" points="146,-90.5 146,-131.5 256,-131.5 256,-90.5 146,-90.5"/>
<text text-anchor="start" x="154" y="-119.5" font-family="Helvetica,sans-Serif" font-size="10.00" fill="#000000">Asteroids::Domain::</text>
<text text-anchor="start" x="154" y="-108.5" font-family="Helvetica,sans-Serif" font-size="10.00" fill="#000000">Game::Actors::Rect::</text>
<text text-anchor="middle" x="201" y="-97.5" font-family="Helvetica,sans-Serif" font-size="10.00" fill="#000000">consume_polygon</text>
</a>
</g>
</g>
<!-- Node67&#45;&gt;Node90 -->
<g id="edge23" class="edge">
<title>Node67&#45;&gt;Node90</title>
<path fill="none" stroke="#191970" d="M120.1314,-127.6168C128.6759,-125.8611 137.3658,-124.0755 145.7256,-122.3578"/>
<polygon fill="#191970" stroke="#191970" points="119.2872,-124.2171 110.1963,-129.6583 120.6962,-131.0738 119.2872,-124.2171"/>
</g>
<!-- Node69 -->
<g id="node3" class="node">
<title>Node69</title>
<g id="a_node3"><a xlink:href="classAsteroids_1_1Domain_1_1Game_1_1Actors_1_1Actor.html#a4bb89af7457ff402fa5a4a11d62ab4ca" target="_top" xlink:title="Asteroids::Domain::\lGame::Actors::Actor\l::update_rect">
<polygon fill="#ffffff" stroke="#000000" points="292,-120.5 292,-161.5 399,-161.5 399,-120.5 292,-120.5"/>
<text text-anchor="start" x="300" y="-149.5" font-family="Helvetica,sans-Serif" font-size="10.00" fill="#000000">Asteroids::Domain::</text>
<text text-anchor="start" x="300" y="-138.5" font-family="Helvetica,sans-Serif" font-size="10.00" fill="#000000">Game::Actors::Actor</text>
<text text-anchor="middle" x="345.5" y="-127.5" font-family="Helvetica,sans-Serif" font-size="10.00" fill="#000000">::update_rect</text>
</a>
</g>
</g>
<!-- Node68&#45;&gt;Node69 -->
<g id="edge2" class="edge">
<title>Node68&#45;&gt;Node69</title>
<path fill="none" stroke="#191970" d="M265.9877,-157.5077C274.5389,-155.7324 283.2271,-153.9286 291.5667,-152.1972"/>
<polygon fill="#191970" stroke="#191970" points="265.1212,-154.1129 256.0415,-159.5727 266.5442,-160.9668 265.1212,-154.1129"/>
</g>
<!-- Node70 -->
<g id="node4" class="node">
<title>Node70</title>
<g id="a_node4"><a xlink:href="classAsteroids_1_1Domain_1_1Game_1_1Actors_1_1Actor.html#aafec1372aa2f5b203112aae5f6b16310" target="_top" xlink:title="Asteroids::Domain::\lGame::Actors::Actor\l::apply_vector_to_position">
<polygon fill="#ffffff" stroke="#000000" points="435,-210.5 435,-251.5 566,-251.5 566,-210.5 435,-210.5"/>
<text text-anchor="start" x="443" y="-239.5" font-family="Helvetica,sans-Serif" font-size="10.00" fill="#000000">Asteroids::Domain::</text>
<text text-anchor="start" x="443" y="-228.5" font-family="Helvetica,sans-Serif" font-size="10.00" fill="#000000">Game::Actors::Actor</text>
<text text-anchor="middle" x="500.5" y="-217.5" font-family="Helvetica,sans-Serif" font-size="10.00" fill="#000000">::apply_vector_to_position</text>
</a>
</g>
</g>
<!-- Node69&#45;&gt;Node70 -->
<g id="edge3" class="edge">
<title>Node69&#45;&gt;Node70</title>
<path fill="none" stroke="#191970" d="M389.9271,-166.7964C413.7846,-180.6491 442.789,-197.4904 465.1053,-210.4483"/>
<polygon fill="#191970" stroke="#191970" points="391.4655,-163.6425 381.0601,-161.6478 387.9505,-169.696 391.4655,-163.6425"/>
</g>
<!-- Node74 -->
<g id="node8" class="node">
<title>Node74</title>
<g id="a_node8"><a xlink:href="classAsteroids_1_1Domain_1_1Game_1_1Actors_1_1Actor.html#a224abd0a9dff102361ce2a305ba4734f" target="_top" xlink:title="Asteroids::Domain::\lGame::Actors::Actor\l::set_polygon">
<polygon fill="#ffffff" stroke="#000000" points="447,-120.5 447,-161.5 554,-161.5 554,-120.5 447,-120.5"/>
<text text-anchor="start" x="455" y="-149.5" font-family="Helvetica,sans-Serif" font-size="10.00" fill="#000000">Asteroids::Domain::</text>
<text text-anchor="start" x="455" y="-138.5" font-family="Helvetica,sans-Serif" font-size="10.00" fill="#000000">Game::Actors::Actor</text>
<text text-anchor="middle" x="500.5" y="-127.5" font-family="Helvetica,sans-Serif" font-size="10.00" fill="#000000">::set_polygon</text>
</a>
</g>
</g>
<!-- Node69&#45;&gt;Node74 -->
<g id="edge7" class="edge">
<title>Node69&#45;&gt;Node74</title>
<path fill="none" stroke="#191970" d="M409.5447,-141C421.9359,-141 434.8005,-141 446.8186,-141"/>
<polygon fill="#191970" stroke="#191970" points="409.2765,-137.5001 399.2765,-141 409.2764,-144.5001 409.2765,-137.5001"/>
</g>
<!-- Node89 -->
<g id="node23" class="node">
<title>Node89</title>
<g id="a_node23"><a xlink:href="classAsteroids_1_1Domain_1_1Game_1_1Actors_1_1Actor.html#aa572cc87c0d07330348c811d778aa314" target="_top" xlink:title="Asteroids::Domain::\lGame::Actors::Actor\l::set_position">
<polygon fill="#ffffff" stroke="#000000" points="447,-60.5 447,-101.5 554,-101.5 554,-60.5 447,-60.5"/>
<text text-anchor="start" x="455" y="-89.5" font-family="Helvetica,sans-Serif" font-size="10.00" fill="#000000">Asteroids::Domain::</text>
<text text-anchor="start" x="455" y="-78.5" font-family="Helvetica,sans-Serif" font-size="10.00" fill="#000000">Game::Actors::Actor</text>
<text text-anchor="middle" x="500.5" y="-67.5" font-family="Helvetica,sans-Serif" font-size="10.00" fill="#000000">::set_position</text>
</a>
</g>
</g>
<!-- Node69&#45;&gt;Node89 -->
<g id="edge22" class="edge">
<title>Node69&#45;&gt;Node89</title>
<path fill="none" stroke="#191970" d="M408.1726,-116.7397C421.1563,-111.7137 434.7169,-106.4644 447.3221,-101.585"/>
<polygon fill="#191970" stroke="#191970" points="406.9044,-113.4774 398.8422,-120.3514 409.4314,-120.0054 406.9044,-113.4774"/>
</g>
<!-- Node71 -->
<g id="node5" class="node">
<title>Node71</title>
<g id="a_node5"><a xlink:href="classAsteroids_1_1Domain_1_1Game_1_1Actors_1_1Actor.html#a5a53ac407eec2feb06f167d1a496bbe5" target="_top" xlink:title="Asteroids::Domain::\lGame::Actors::Actor\l::update">
<polygon fill="#ffffff" stroke="#000000" points="612.5,-240.5 612.5,-281.5 719.5,-281.5 719.5,-240.5 612.5,-240.5"/>
<text text-anchor="start" x="620.5" y="-269.5" font-family="Helvetica,sans-Serif" font-size="10.00" fill="#000000">Asteroids::Domain::</text>
<text text-anchor="start" x="620.5" y="-258.5" font-family="Helvetica,sans-Serif" font-size="10.00" fill="#000000">Game::Actors::Actor</text>
<text text-anchor="middle" x="666" y="-247.5" font-family="Helvetica,sans-Serif" font-size="10.00" fill="#000000">::update</text>
</a>
</g>
</g>
<!-- Node70&#45;&gt;Node71 -->
<g id="edge4" class="edge">
<title>Node70&#45;&gt;Node71</title>
<path fill="none" stroke="#191970" d="M576.4743,-244.7718C588.5663,-246.9637 600.8526,-249.1908 612.291,-251.2642"/>
<polygon fill="#191970" stroke="#191970" points="576.8495,-241.2828 566.3855,-242.943 575.6009,-248.1706 576.8495,-241.2828"/>
</g>
<!-- Node72 -->
<g id="node6" class="node">
<title>Node72</title>
<g id="a_node6"><a xlink:href="classAsteroids_1_1Domain_1_1Game_1_1Actors_1_1Bullet.html#a06eb5b7aa30c8547159696c82fd2f642" target="_top" xlink:title="Asteroids::Domain::\lGame::Actors::Bullet\l::update">
<polygon fill="#ffffff" stroke="#000000" points="779,-300.5 779,-341.5 887,-341.5 887,-300.5 779,-300.5"/>
<text text-anchor="start" x="787" y="-329.5" font-family="Helvetica,sans-Serif" font-size="10.00" fill="#000000">Asteroids::Domain::</text>
<text text-anchor="start" x="787" y="-318.5" font-family="Helvetica,sans-Serif" font-size="10.00" fill="#000000">Game::Actors::Bullet</text>
<text text-anchor="middle" x="833" y="-307.5" font-family="Helvetica,sans-Serif" font-size="10.00" fill="#000000">::update</text>
</a>
</g>
</g>
<!-- Node71&#45;&gt;Node72 -->
<g id="edge5" class="edge">
<title>Node71&#45;&gt;Node72</title>
<path fill="none" stroke="#191970" d="M729.2193,-283.7135C745.5371,-289.5762 762.9549,-295.8341 778.7691,-301.5158"/>
<polygon fill="#191970" stroke="#191970" points="730.3536,-280.4021 719.7591,-280.3146 727.9867,-286.9898 730.3536,-280.4021"/>
</g>
<!-- Node73 -->
<g id="node7" class="node">
<title>Node73</title>
<g id="a_node7"><a xlink:href="classAsteroids_1_1Domain_1_1Game_1_1Actors_1_1GunShip.html#a4b37d42d9758c701d75e6a91dda71a5b" target="_top" xlink:title="Asteroids::Domain::\lGame::Actors::GunShip\l::update">
<polygon fill="#ffffff" stroke="#000000" points="772.5,-240.5 772.5,-281.5 893.5,-281.5 893.5,-240.5 772.5,-240.5"/>
<text text-anchor="start" x="780.5" y="-269.5" font-family="Helvetica,sans-Serif" font-size="10.00" fill="#000000">Asteroids::Domain::</text>
<text text-anchor="start" x="780.5" y="-258.5" font-family="Helvetica,sans-Serif" font-size="10.00" fill="#000000">Game::Actors::GunShip</text>
<text text-anchor="middle" x="833" y="-247.5" font-family="Helvetica,sans-Serif" font-size="10.00" fill="#000000">::update</text>
</a>
</g>
</g>
<!-- Node71&#45;&gt;Node73 -->
<g id="edge6" class="edge">
<title>Node71&#45;&gt;Node73</title>
<path fill="none" stroke="#191970" d="M729.7789,-261C743.7626,-261 758.529,-261 772.3845,-261"/>
<polygon fill="#191970" stroke="#191970" points="729.7591,-257.5001 719.7591,-261 729.7591,-264.5001 729.7591,-257.5001"/>
</g>
<!-- Node75 -->
<g id="node9" class="node">
<title>Node75</title>
<g id="a_node9"><a xlink:href="classAsteroids_1_1Domain_1_1Game_1_1Actors_1_1LongRock.html#ac2469234e9ea81472af9e7297ff8a75a" target="_top" xlink:title="Asteroids::Domain::\lGame::Actors::LongRock\l::initialize_polygon">
<polygon fill="#ffffff" stroke="#000000" points="602,-180.5 602,-221.5 730,-221.5 730,-180.5 602,-180.5"/>
<text text-anchor="start" x="610" y="-209.5" font-family="Helvetica,sans-Serif" font-size="10.00" fill="#000000">Asteroids::Domain::</text>
<text text-anchor="start" x="610" y="-198.5" font-family="Helvetica,sans-Serif" font-size="10.00" fill="#000000">Game::Actors::LongRock</text>
<text text-anchor="middle" x="666" y="-187.5" font-family="Helvetica,sans-Serif" font-size="10.00" fill="#000000">::initialize_polygon</text>
</a>
</g>
</g>
<!-- Node74&#45;&gt;Node75 -->
<g id="edge8" class="edge">
<title>Node74&#45;&gt;Node75</title>
<path fill="none" stroke="#191970" d="M563.9206,-163.9924C578.8922,-169.4201 594.7579,-175.1721 609.4051,-180.4822"/>
<polygon fill="#191970" stroke="#191970" points="564.8273,-160.5982 554.2331,-160.4803 562.4414,-167.1791 564.8273,-160.5982"/>
</g>
<!-- Node77 -->
<g id="node11" class="node">
<title>Node77</title>
<g id="a_node11"><a xlink:href="classAsteroids_1_1Domain_1_1Game_1_1Actors_1_1Rock.html#aa2a9c917715b56e4584f514c930c4690" target="_top" xlink:title="Asteroids::Domain::\lGame::Actors::Rock::\linitialize_polygon">
<polygon fill="#ffffff" stroke="#000000" points="609.5,-120.5 609.5,-161.5 722.5,-161.5 722.5,-120.5 609.5,-120.5"/>
<text text-anchor="start" x="617.5" y="-149.5" font-family="Helvetica,sans-Serif" font-size="10.00" fill="#000000">Asteroids::Domain::</text>
<text text-anchor="start" x="617.5" y="-138.5" font-family="Helvetica,sans-Serif" font-size="10.00" fill="#000000">Game::Actors::Rock::</text>
<text text-anchor="middle" x="666" y="-127.5" font-family="Helvetica,sans-Serif" font-size="10.00" fill="#000000">initialize_polygon</text>
</a>
</g>
</g>
<!-- Node74&#45;&gt;Node77 -->
<g id="edge10" class="edge">
<title>Node74&#45;&gt;Node77</title>
<path fill="none" stroke="#191970" d="M564.3486,-141C579.1943,-141 594.8974,-141 609.4051,-141"/>
<polygon fill="#191970" stroke="#191970" points="564.2331,-137.5001 554.2331,-141 564.2331,-144.5001 564.2331,-137.5001"/>
</g>
<!-- Node81 -->
<g id="node15" class="node">
<title>Node81</title>
<g id="a_node15"><a xlink:href="classAsteroids_1_1Domain_1_1Game_1_1Actors_1_1Bullet.html#ae02bb0b6f3886f31ffdf1e51b1735035" target="_top" xlink:title="Asteroids::Domain::\lGame::Actors::Bullet\l::initialize_polygon">
<polygon fill="#ffffff" stroke="#000000" points="612,-60.5 612,-101.5 720,-101.5 720,-60.5 612,-60.5"/>
<text text-anchor="start" x="620" y="-89.5" font-family="Helvetica,sans-Serif" font-size="10.00" fill="#000000">Asteroids::Domain::</text>
<text text-anchor="start" x="620" y="-78.5" font-family="Helvetica,sans-Serif" font-size="10.00" fill="#000000">Game::Actors::Bullet</text>
<text text-anchor="middle" x="666" y="-67.5" font-family="Helvetica,sans-Serif" font-size="10.00" fill="#000000">::initialize_polygon</text>
</a>
</g>
</g>
<!-- Node74&#45;&gt;Node81 -->
<g id="edge14" class="edge">
<title>Node74&#45;&gt;Node81</title>
<path fill="none" stroke="#191970" d="M563.9458,-117.9985C579.7884,-112.2549 596.6308,-106.1489 611.9702,-100.5879"/>
<polygon fill="#191970" stroke="#191970" points="562.4414,-114.8209 554.2331,-121.5197 564.8273,-121.4018 562.4414,-114.8209"/>
</g>
<!-- Node85 -->
<g id="node19" class="node">
<title>Node85</title>
<g id="a_node19"><a xlink:href="classAsteroids_1_1Domain_1_1Game_1_1Actors_1_1GunShip.html#a4947769593f504d4342abcec5a01330b" target="_top" xlink:title="Asteroids::Domain::\lGame::Actors::GunShip\l::initialize_polygon">
<polygon fill="#ffffff" stroke="#000000" points="605.5,-.5 605.5,-41.5 726.5,-41.5 726.5,-.5 605.5,-.5"/>
<text text-anchor="start" x="613.5" y="-29.5" font-family="Helvetica,sans-Serif" font-size="10.00" fill="#000000">Asteroids::Domain::</text>
<text text-anchor="start" x="613.5" y="-18.5" font-family="Helvetica,sans-Serif" font-size="10.00" fill="#000000">Game::Actors::GunShip</text>
<text text-anchor="middle" x="666" y="-7.5" font-family="Helvetica,sans-Serif" font-size="10.00" fill="#000000">::initialize_polygon</text>
</a>
</g>
</g>
<!-- Node74&#45;&gt;Node85 -->
<g id="edge18" class="edge">
<title>Node74&#45;&gt;Node85</title>
<path fill="none" stroke="#191970" d="M561.9073,-114.4116C563.3188,-113.3124 564.6863,-112.1755 566,-111 589.175,-90.2628 578.9168,-71.8393 602,-51 605.8256,-47.5463 610.1185,-44.4184 614.6225,-41.6022"/>
<polygon fill="#191970" stroke="#191970" points="559.6381,-111.7257 553.4115,-120.2978 563.6247,-117.4797 559.6381,-111.7257"/>
</g>
<!-- Node76 -->
<g id="node10" class="node">
<title>Node76</title>
<g id="a_node10"><a xlink:href="classAsteroids_1_1Domain_1_1Game_1_1Actors_1_1LongRock.html#a076888291134eee7db8c6a94ebc0ad8d" target="_top" xlink:title="Asteroids::Domain::\lGame::Actors::LongRock\l::LongRock">
<polygon fill="#ffffff" stroke="#000000" points="769,-180.5 769,-221.5 897,-221.5 897,-180.5 769,-180.5"/>
<text text-anchor="start" x="777" y="-209.5" font-family="Helvetica,sans-Serif" font-size="10.00" fill="#000000">Asteroids::Domain::</text>
<text text-anchor="start" x="777" y="-198.5" font-family="Helvetica,sans-Serif" font-size="10.00" fill="#000000">Game::Actors::LongRock</text>
<text text-anchor="middle" x="833" y="-187.5" font-family="Helvetica,sans-Serif" font-size="10.00" fill="#000000">::LongRock</text>
</a>
</g>
</g>
<!-- Node75&#45;&gt;Node76 -->
<g id="edge9" class="edge">
<title>Node75&#45;&gt;Node76</title>
<path fill="none" stroke="#191970" d="M740.3145,-201C749.8181,-201 759.4823,-201 768.8066,-201"/>
<polygon fill="#191970" stroke="#191970" points="740.089,-197.5001 730.089,-201 740.0889,-204.5001 740.089,-197.5001"/>
</g>
<!-- Node78 -->
<g id="node12" class="node">
<title>Node78</title>
<g id="a_node12"><a xlink:href="classAsteroids_1_1Domain_1_1Game_1_1Actors_1_1Rock.html#aab44647e08659d563aeb28d51868fb86" target="_top" xlink:title="Asteroids::Domain::\lGame::Actors::Rock::reset">
<polygon fill="#ffffff" stroke="#000000" points="766,-126 766,-156 900,-156 900,-126 766,-126"/>
<text text-anchor="start" x="774" y="-144" font-family="Helvetica,sans-Serif" font-size="10.00" fill="#000000">Asteroids::Domain::</text>
<text text-anchor="middle" x="833" y="-133" font-family="Helvetica,sans-Serif" font-size="10.00" fill="#000000">Game::Actors::Rock::reset</text>
</a>
</g>
</g>
<!-- Node77&#45;&gt;Node78 -->
<g id="edge11" class="edge">
<title>Node77&#45;&gt;Node78</title>
<path fill="none" stroke="#191970" d="M732.8163,-141C743.6884,-141 754.9538,-141 765.8341,-141"/>
<polygon fill="#191970" stroke="#191970" points="732.5386,-137.5001 722.5386,-141 732.5385,-144.5001 732.5386,-137.5001"/>
</g>
<!-- Node79 -->
<g id="node13" class="node">
<title>Node79</title>
<g id="a_node13"><a xlink:href="classAsteroids_1_1Domain_1_1Game_1_1Actors_1_1Rock.html#a8bdb717103786b8a2e30ea29db791078" target="_top" xlink:title="Asteroids::Domain::\lGame::Actors::Rock::init">
<polygon fill="#ffffff" stroke="#000000" points="943.5,-126 943.5,-156 1068.5,-156 1068.5,-126 943.5,-126"/>
<text text-anchor="start" x="951.5" y="-144" font-family="Helvetica,sans-Serif" font-size="10.00" fill="#000000">Asteroids::Domain::</text>
<text text-anchor="middle" x="1006" y="-133" font-family="Helvetica,sans-Serif" font-size="10.00" fill="#000000">Game::Actors::Rock::init</text>
</a>
</g>
</g>
<!-- Node78&#45;&gt;Node79 -->
<g id="edge12" class="edge">
<title>Node78&#45;&gt;Node79</title>
<path fill="none" stroke="#191970" d="M910.4186,-141C921.4311,-141 932.6422,-141 943.3271,-141"/>
<polygon fill="#191970" stroke="#191970" points="910.3817,-137.5001 900.3817,-141 910.3817,-144.5001 910.3817,-137.5001"/>
</g>
<!-- Node80 -->
<g id="node14" class="node">
<title>Node80</title>
<g id="a_node14"><a xlink:href="classAsteroids_1_1Domain_1_1Game_1_1Actors_1_1Rock.html#aef8f46670fe5751800b9d76079adb5e5" target="_top" xlink:title="Asteroids::Domain::\lGame::Actors::Rock::Rock">
<polygon fill="#ffffff" stroke="#000000" points="1112,-126 1112,-156 1248,-156 1248,-126 1112,-126"/>
<text text-anchor="start" x="1120" y="-144" font-family="Helvetica,sans-Serif" font-size="10.00" fill="#000000">Asteroids::Domain::</text>
<text text-anchor="middle" x="1180" y="-133" font-family="Helvetica,sans-Serif" font-size="10.00" fill="#000000">Game::Actors::Rock::Rock</text>
</a>
</g>
</g>
<!-- Node79&#45;&gt;Node80 -->
<g id="edge13" class="edge">
<title>Node79&#45;&gt;Node80</title>
<path fill="none" stroke="#191970" d="M1079.1397,-141C1090.0243,-141 1101.206,-141 1111.9795,-141"/>
<polygon fill="#191970" stroke="#191970" points="1078.818,-137.5001 1068.818,-141 1078.818,-144.5001 1078.818,-137.5001"/>
</g>
<!-- Node82 -->
<g id="node16" class="node">
<title>Node82</title>
<g id="a_node16"><a xlink:href="classAsteroids_1_1Domain_1_1Game_1_1Actors_1_1Bullet.html#ae3837ed471d290688f684e8187e6865e" target="_top" xlink:title="Asteroids::Domain::\lGame::Actors::Bullet\l::reset">
<polygon fill="#ffffff" stroke="#000000" points="779,-60.5 779,-101.5 887,-101.5 887,-60.5 779,-60.5"/>
<text text-anchor="start" x="787" y="-89.5" font-family="Helvetica,sans-Serif" font-size="10.00" fill="#000000">Asteroids::Domain::</text>
<text text-anchor="start" x="787" y="-78.5" font-family="Helvetica,sans-Serif" font-size="10.00" fill="#000000">Game::Actors::Bullet</text>
<text text-anchor="middle" x="833" y="-67.5" font-family="Helvetica,sans-Serif" font-size="10.00" fill="#000000">::reset</text>
</a>
</g>
</g>
<!-- Node81&#45;&gt;Node82 -->
<g id="edge15" class="edge">
<title>Node81&#45;&gt;Node82</title>
<path fill="none" stroke="#191970" d="M730.5267,-81C746.4638,-81 763.3745,-81 778.7664,-81"/>
<polygon fill="#191970" stroke="#191970" points="730.2201,-77.5001 720.2201,-81 730.2201,-84.5001 730.2201,-77.5001"/>
</g>
<!-- Node83 -->
<g id="node17" class="node">
<title>Node83</title>
<g id="a_node17"><a xlink:href="classAsteroids_1_1Domain_1_1Game_1_1Actors_1_1Bullet.html#a1c7b384d298439c581d97f996f067985" target="_top" xlink:title="Asteroids::Domain::\lGame::Actors::Bullet::init">
<polygon fill="#ffffff" stroke="#000000" points="942.5,-66 942.5,-96 1069.5,-96 1069.5,-66 942.5,-66"/>
<text text-anchor="start" x="950.5" y="-84" font-family="Helvetica,sans-Serif" font-size="10.00" fill="#000000">Asteroids::Domain::</text>
<text text-anchor="middle" x="1006" y="-73" font-family="Helvetica,sans-Serif" font-size="10.00" fill="#000000">Game::Actors::Bullet::init</text>
</a>
</g>
</g>
<!-- Node82&#45;&gt;Node83 -->
<g id="edge16" class="edge">
<title>Node82&#45;&gt;Node83</title>
<path fill="none" stroke="#191970" d="M897.2661,-81C911.959,-81 927.57,-81 942.2415,-81"/>
<polygon fill="#191970" stroke="#191970" points="897.2637,-77.5001 887.2636,-81 897.2636,-84.5001 897.2637,-77.5001"/>
</g>
<!-- Node84 -->
<g id="node18" class="node">
<title>Node84</title>
<g id="a_node18"><a xlink:href="classAsteroids_1_1Domain_1_1Game_1_1Actors_1_1Bullet.html#a48557011de2d1939a8b5f7fe7e9fccda" target="_top" xlink:title="Asteroids::Domain::\lGame::Actors::Bullet\l::Bullet">
<polygon fill="#ffffff" stroke="#000000" points="1126,-60.5 1126,-101.5 1234,-101.5 1234,-60.5 1126,-60.5"/>
<text text-anchor="start" x="1134" y="-89.5" font-family="Helvetica,sans-Serif" font-size="10.00" fill="#000000">Asteroids::Domain::</text>
<text text-anchor="start" x="1134" y="-78.5" font-family="Helvetica,sans-Serif" font-size="10.00" fill="#000000">Game::Actors::Bullet</text>
<text text-anchor="middle" x="1180" y="-67.5" font-family="Helvetica,sans-Serif" font-size="10.00" fill="#000000">::Bullet</text>
</a>
</g>
</g>
<!-- Node83&#45;&gt;Node84 -->
<g id="edge17" class="edge">
<title>Node83&#45;&gt;Node84</title>
<path fill="none" stroke="#191970" d="M1079.8611,-81C1095.323,-81 1111.3517,-81 1125.9326,-81"/>
<polygon fill="#191970" stroke="#191970" points="1079.8032,-77.5001 1069.8032,-81 1079.8031,-84.5001 1079.8032,-77.5001"/>
</g>
<!-- Node86 -->
<g id="node20" class="node">
<title>Node86</title>
<g id="a_node20"><a xlink:href="classAsteroids_1_1Domain_1_1Game_1_1Actors_1_1GunShip.html#a753c275a7840962c92cfe4843bcbd6ac" target="_top" xlink:title="Asteroids::Domain::\lGame::Actors::GunShip\l::reset">
<polygon fill="#ffffff" stroke="#000000" points="772.5,-.5 772.5,-41.5 893.5,-41.5 893.5,-.5 772.5,-.5"/>
<text text-anchor="start" x="780.5" y="-29.5" font-family="Helvetica,sans-Serif" font-size="10.00" fill="#000000">Asteroids::Domain::</text>
<text text-anchor="start" x="780.5" y="-18.5" font-family="Helvetica,sans-Serif" font-size="10.00" fill="#000000">Game::Actors::GunShip</text>
<text text-anchor="middle" x="833" y="-7.5" font-family="Helvetica,sans-Serif" font-size="10.00" fill="#000000">::reset</text>
</a>
</g>
</g>
<!-- Node85&#45;&gt;Node86 -->
<g id="edge19" class="edge">
<title>Node85&#45;&gt;Node86</title>
<path fill="none" stroke="#191970" d="M736.9773,-21C748.7268,-21 760.8148,-21 772.282,-21"/>
<polygon fill="#191970" stroke="#191970" points="736.7633,-17.5001 726.7632,-21 736.7632,-24.5001 736.7633,-17.5001"/>
</g>
<!-- Node87 -->
<g id="node21" class="node">
<title>Node87</title>
<g id="a_node21"><a xlink:href="classAsteroids_1_1Domain_1_1Game_1_1Actors_1_1GunShip.html#ad5c14269f0503e045f03f265f9019e95" target="_top" xlink:title="Asteroids::Domain::\lGame::Actors::GunShip::init">
<polygon fill="#ffffff" stroke="#000000" points="936,-6 936,-36 1076,-36 1076,-6 936,-6"/>
<text text-anchor="start" x="944" y="-24" font-family="Helvetica,sans-Serif" font-size="10.00" fill="#000000">Asteroids::Domain::</text>
<text text-anchor="middle" x="1006" y="-13" font-family="Helvetica,sans-Serif" font-size="10.00" fill="#000000">Game::Actors::GunShip::init</text>
</a>
</g>
</g>
<!-- Node86&#45;&gt;Node87 -->
<g id="edge20" class="edge">
<title>Node86&#45;&gt;Node87</title>
<path fill="none" stroke="#191970" d="M903.5637,-21C914.1818,-21 925.1318,-21 935.7434,-21"/>
<polygon fill="#191970" stroke="#191970" points="903.507,-17.5001 893.507,-21 903.507,-24.5001 903.507,-17.5001"/>
</g>
<!-- Node88 -->
<g id="node22" class="node">
<title>Node88</title>
<g id="a_node22"><a xlink:href="classAsteroids_1_1Domain_1_1Game_1_1Actors_1_1GunShip.html#a4e6a5de697b5a88bf3942165397cd27b" target="_top" xlink:title="Asteroids::Domain::\lGame::Actors::GunShip\l::GunShip">
<polygon fill="#ffffff" stroke="#000000" points="1119.5,-.5 1119.5,-41.5 1240.5,-41.5 1240.5,-.5 1119.5,-.5"/>
<text text-anchor="start" x="1127.5" y="-29.5" font-family="Helvetica,sans-Serif" font-size="10.00" fill="#000000">Asteroids::Domain::</text>
<text text-anchor="start" x="1127.5" y="-18.5" font-family="Helvetica,sans-Serif" font-size="10.00" fill="#000000">Game::Actors::GunShip</text>
<text text-anchor="middle" x="1180" y="-7.5" font-family="Helvetica,sans-Serif" font-size="10.00" fill="#000000">::GunShip</text>
</a>
</g>
</g>
<!-- Node87&#45;&gt;Node88 -->
<g id="edge21" class="edge">
<title>Node87&#45;&gt;Node88</title>
<path fill="none" stroke="#191970" d="M1086.1975,-21C1097.3482,-21 1108.6489,-21 1119.3608,-21"/>
<polygon fill="#191970" stroke="#191970" points="1086.0204,-17.5001 1076.0203,-21 1086.0203,-24.5001 1086.0204,-17.5001"/>
</g>
<!-- Node90&#45;&gt;Node69 -->
<g id="edge24" class="edge">
<title>Node90&#45;&gt;Node69</title>
<path fill="none" stroke="#191970" d="M265.9877,-124.4923C274.5389,-126.2676 283.2271,-128.0714 291.5667,-129.8028"/>
<polygon fill="#191970" stroke="#191970" points="266.5442,-121.0332 256.0415,-122.4273 265.1212,-127.8871 266.5442,-121.0332"/>
</g>
</g>
</svg>
