<?xml version="1.0" encoding="UTF-8" standalone="no"?>
<!DOCTYPE svg PUBLIC "-//W3C//DTD SVG 1.1//EN"
 "http://www.w3.org/Graphics/SVG/1.1/DTD/svg11.dtd">
<!-- Generated by graphviz version 2.40.1 (20161225.0304)
 -->
<!-- Title: Asteroids::Domain::Net::Messages::AUTH_ATTEMPT Pages: 1 -->
<svg width="144pt" height="354pt"
 viewBox="0.00 0.00 144.00 354.00" xmlns="http://www.w3.org/2000/svg" xmlns:xlink="http://www.w3.org/1999/xlink">
<g id="graph0" class="graph" transform="scale(1 1) rotate(0) translate(4 350)">
<title>Asteroids::Domain::Net::Messages::AUTH_ATTEMPT</title>
<polygon fill="#ffffff" stroke="transparent" points="-4,4 -4,-350 140,-350 140,4 -4,4"/>
<!-- Node1 -->
<g id="node1" class="node">
<title>Node1</title>
<polygon fill="#bfbfbf" stroke="#000000" points="0,-.5 0,-123.5 136,-123.5 136,-.5 0,-.5"/>
<text text-anchor="start" x="8" y="-111.5" font-family="Helvetica,sans-Serif" font-size="10.00" fill="#000000">Asteroids::Domain::</text>
<text text-anchor="start" x="8" y="-100.5" font-family="Helvetica,sans-Serif" font-size="10.00" fill="#000000">Net::Messages::AUTH</text>
<text text-anchor="middle" x="68" y="-89.5" font-family="Helvetica,sans-Serif" font-size="10.00" fill="#000000">_ATTEMPT</text>
<polyline fill="none" stroke="#000000" points="0,-82.5 136,-82.5 "/>
<text text-anchor="start" x="8" y="-70.5" font-family="Helvetica,sans-Serif" font-size="10.00" fill="#000000">+ DEFAULT_PASSWORD</text>
<text text-anchor="start" x="8" y="-59.5" font-family="Helvetica,sans-Serif" font-size="10.00" fill="#000000">+ DEFAULT_USERNAME</text>
<polyline fill="none" stroke="#000000" points="0,-52.5 136,-52.5 "/>
<text text-anchor="start" x="8" y="-40.5" font-family="Helvetica,sans-Serif" font-size="10.00" fill="#000000">+ AUTH_ATTEMPT()</text>
<text text-anchor="start" x="8" y="-29.5" font-family="Helvetica,sans-Serif" font-size="10.00" fill="#000000">+ reset()</text>
<text text-anchor="start" x="8" y="-18.5" font-family="Helvetica,sans-Serif" font-size="10.00" fill="#000000">+ setPassword()</text>
<text text-anchor="start" x="8" y="-7.5" font-family="Helvetica,sans-Serif" font-size="10.00" fill="#000000">+ setUsername()</text>
</g>
<!-- Node2 -->
<g id="node2" class="node">
<title>Node2</title>
<g id="a_node2"><a xlink:title="STL class. ">
<polygon fill="#ffffff" stroke="#bfbfbf" points="38,-182.5 38,-239.5 98,-239.5 98,-182.5 38,-182.5"/>
<text text-anchor="middle" x="68" y="-227.5" font-family="Helvetica,sans-Serif" font-size="10.00" fill="#000000">std::string</text>
<polyline fill="none" stroke="#bfbfbf" points="38,-220.5 98,-220.5 "/>
<text text-anchor="middle" x="68" y="-208.5" font-family="Helvetica,sans-Serif" font-size="10.00" fill="#000000"> </text>
<polyline fill="none" stroke="#bfbfbf" points="38,-201.5 98,-201.5 "/>
<text text-anchor="middle" x="68" y="-189.5" font-family="Helvetica,sans-Serif" font-size="10.00" fill="#000000"> </text>
</a>
</g>
</g>
<!-- Node2&#45;&gt;Node1 -->
<g id="edge1" class="edge">
<title>Node2&#45;&gt;Node1</title>
<path fill="none" stroke="#404040" d="M68,-182.2713C68,-168.8656 68,-152.2317 68,-135.6537"/>
<polygon fill="none" stroke="#404040" points="68.0001,-135.6392 64,-129.6392 68,-123.6392 72,-129.6391 68.0001,-135.6392"/>
<text text-anchor="middle" x="95.5" y="-156" font-family="Helvetica,sans-Serif" font-size="10.00" fill="#000000"> &#45;_username</text>
<text text-anchor="middle" x="95.5" y="-145" font-family="Helvetica,sans-Serif" font-size="10.00" fill="#000000">&#45;_password</text>
</g>
<!-- Node3 -->
<g id="node3" class="node">
<title>Node3</title>
<g id="a_node3"><a xlink:title="STL class. ">
<polygon fill="#ffffff" stroke="#bfbfbf" points="20.5,-277.5 20.5,-345.5 115.5,-345.5 115.5,-277.5 20.5,-277.5"/>
<text text-anchor="start" x="28.5" y="-333.5" font-family="Helvetica,sans-Serif" font-size="10.00" fill="#000000">std::basic_string&lt;</text>
<text text-anchor="middle" x="68" y="-322.5" font-family="Helvetica,sans-Serif" font-size="10.00" fill="#000000"> char &gt;</text>
<polyline fill="none" stroke="#bfbfbf" points="20.5,-315.5 115.5,-315.5 "/>
<text text-anchor="middle" x="68" y="-303.5" font-family="Helvetica,sans-Serif" font-size="10.00" fill="#000000"> </text>
<polyline fill="none" stroke="#bfbfbf" points="20.5,-296.5 115.5,-296.5 "/>
<text text-anchor="middle" x="68" y="-284.5" font-family="Helvetica,sans-Serif" font-size="10.00" fill="#000000"> </text>
</a>
</g>
</g>
<!-- Node3&#45;&gt;Node2 -->
<g id="edge2" class="edge">
<title>Node3&#45;&gt;Node2</title>
<path fill="none" stroke="#191970" d="M68,-267.4301C68,-258.0073 68,-248.2901 68,-239.6312"/>
<polygon fill="none" stroke="#191970" points="64.5001,-267.4752 68,-277.4753 71.5001,-267.4753 64.5001,-267.4752"/>
</g>
</g>
</svg>
