<?xml version="1.0" encoding="UTF-8" standalone="no"?>
<!DOCTYPE svg PUBLIC "-//W3C//DTD SVG 1.1//EN"
 "http://www.w3.org/Graphics/SVG/1.1/DTD/svg11.dtd">
<!-- Generated by graphviz version 2.40.1 (20161225.0304)
 -->
<!-- Title: Asteroids::Domain::Factory::Factory::this_pointer Pages: 1 -->
<svg width="319pt" height="160pt"
 viewBox="0.00 0.00 319.00 159.50" xmlns="http://www.w3.org/2000/svg" xmlns:xlink="http://www.w3.org/1999/xlink">
<g id="graph0" class="graph" transform="scale(1 1) rotate(0) translate(4 155.5)">
<title>Asteroids::Domain::Factory::Factory::this_pointer</title>
<polygon fill="#ffffff" stroke="transparent" points="-4,4 -4,-155.5 315,-155.5 315,4 -4,4"/>
<!-- Node22 -->
<g id="node1" class="node">
<title>Node22</title>
<polygon fill="#bfbfbf" stroke="#000000" points="0,-50 0,-91 110,-91 110,-50 0,-50"/>
<text text-anchor="start" x="8" y="-79" font-family="Helvetica,sans-Serif" font-size="10.00" fill="#000000">Asteroids::Domain::</text>
<text text-anchor="start" x="8" y="-68" font-family="Helvetica,sans-Serif" font-size="10.00" fill="#000000">Factory::Factory::this</text>
<text text-anchor="middle" x="55" y="-57" font-family="Helvetica,sans-Serif" font-size="10.00" fill="#000000">_pointer</text>
</g>
<!-- Node23 -->
<g id="node2" class="node">
<title>Node23</title>
<g id="a_node2"><a xlink:href="classAsteroids_1_1Domain_1_1Factory_1_1Factory.html#a7d3fd1dd5d6f0e44de2b4a57985b623b" target="_top" xlink:title="Asteroids::Domain::\lFactory::Factory::createServer\lFactory">
<polygon fill="#ffffff" stroke="#000000" points="153.5,-110 153.5,-151 303.5,-151 303.5,-110 153.5,-110"/>
<text text-anchor="start" x="161.5" y="-139" font-family="Helvetica,sans-Serif" font-size="10.00" fill="#000000">Asteroids::Domain::</text>
<text text-anchor="start" x="161.5" y="-128" font-family="Helvetica,sans-Serif" font-size="10.00" fill="#000000">Factory::Factory::createServer</text>
<text text-anchor="middle" x="228.5" y="-117" font-family="Helvetica,sans-Serif" font-size="10.00" fill="#000000">Factory</text>
</a>
</g>
</g>
<!-- Node22&#45;&gt;Node23 -->
<g id="edge1" class="edge">
<title>Node22&#45;&gt;Node23</title>
<path fill="none" stroke="#191970" d="M120.2168,-93.0534C136.2784,-98.6078 153.3913,-104.5258 169.158,-109.9783"/>
<polygon fill="#191970" stroke="#191970" points="120.9683,-89.6099 110.3735,-89.6493 118.6804,-96.2255 120.9683,-89.6099"/>
</g>
<!-- Node24 -->
<g id="node3" class="node">
<title>Node24</title>
<g id="a_node3"><a xlink:href="classAsteroids_1_1Domain_1_1Factory_1_1Factory.html#abc6cc7d441ceeca66671c79cff1e0c99" target="_top" xlink:title="Asteroids::Domain::\lFactory::Factory::createStore\lFactory">
<polygon fill="#ffffff" stroke="#000000" points="156,-50 156,-91 301,-91 301,-50 156,-50"/>
<text text-anchor="start" x="164" y="-79" font-family="Helvetica,sans-Serif" font-size="10.00" fill="#000000">Asteroids::Domain::</text>
<text text-anchor="start" x="164" y="-68" font-family="Helvetica,sans-Serif" font-size="10.00" fill="#000000">Factory::Factory::createStore</text>
<text text-anchor="middle" x="228.5" y="-57" font-family="Helvetica,sans-Serif" font-size="10.00" fill="#000000">Factory</text>
</a>
</g>
</g>
<!-- Node22&#45;&gt;Node24 -->
<g id="edge2" class="edge">
<title>Node22&#45;&gt;Node24</title>
<path fill="none" stroke="#191970" d="M120.3997,-70.5C131.9934,-70.5 144.1297,-70.5 155.908,-70.5"/>
<polygon fill="#191970" stroke="#191970" points="120.3735,-67.0001 110.3735,-70.5 120.3735,-74.0001 120.3735,-67.0001"/>
</g>
<!-- Node25 -->
<g id="node4" class="node">
<title>Node25</title>
<g id="a_node4"><a xlink:href="classAsteroids_1_1Domain_1_1Factory_1_1Factory.html#acb69fddf282eda975e582394dde7e7f6" target="_top" xlink:title="Asteroids::Domain::\lFactory::Factory::createUIFactory">
<polygon fill="#ffffff" stroke="#000000" points="146,-.5 146,-30.5 311,-30.5 311,-.5 146,-.5"/>
<text text-anchor="start" x="154" y="-18.5" font-family="Helvetica,sans-Serif" font-size="10.00" fill="#000000">Asteroids::Domain::</text>
<text text-anchor="middle" x="228.5" y="-7.5" font-family="Helvetica,sans-Serif" font-size="10.00" fill="#000000">Factory::Factory::createUIFactory</text>
</a>
</g>
</g>
<!-- Node22&#45;&gt;Node25 -->
<g id="edge3" class="edge">
<title>Node22&#45;&gt;Node25</title>
<path fill="none" stroke="#191970" d="M120.0373,-48.847C128.755,-46.0068 137.5877,-43.1608 146,-40.5 156.4166,-37.2052 167.6009,-33.7567 178.268,-30.5099"/>
<polygon fill="#191970" stroke="#191970" points="118.6883,-45.6057 110.2719,-52.0412 120.8645,-52.2589 118.6883,-45.6057"/>
</g>
</g>
</svg>
