<?xml version="1.0" encoding="UTF-8" standalone="no"?>
<!DOCTYPE svg PUBLIC "-//W3C//DTD SVG 1.1//EN"
 "http://www.w3.org/Graphics/SVG/1.1/DTD/svg11.dtd">
<!-- Generated by graphviz version 2.40.1 (20161225.0304)
 -->
<!-- Title: Asteroids::Domain::Game::Actors::Bullet::reset Pages: 1 -->
<svg width="838pt" height="140pt"
 viewBox="0.00 0.00 838.00 140.00" xmlns="http://www.w3.org/2000/svg" xmlns:xlink="http://www.w3.org/1999/xlink">
<g id="graph0" class="graph" transform="scale(1 1) rotate(0) translate(4 136)">
<title>Asteroids::Domain::Game::Actors::Bullet::reset</title>
<polygon fill="#ffffff" stroke="transparent" points="-4,4 -4,-136 834,-136 834,4 -4,4"/>
<!-- Node39 -->
<g id="node1" class="node">
<title>Node39</title>
<polygon fill="#bfbfbf" stroke="#000000" points="0,-30.5 0,-71.5 108,-71.5 108,-30.5 0,-30.5"/>
<text text-anchor="start" x="8" y="-59.5" font-family="Helvetica,sans-Serif" font-size="10.00" fill="#000000">Asteroids::Domain::</text>
<text text-anchor="start" x="8" y="-48.5" font-family="Helvetica,sans-Serif" font-size="10.00" fill="#000000">Game::Actors::Bullet</text>
<text text-anchor="middle" x="54" y="-37.5" font-family="Helvetica,sans-Serif" font-size="10.00" fill="#000000">::reset</text>
</g>
<!-- Node40 -->
<g id="node2" class="node">
<title>Node40</title>
<g id="a_node2"><a xlink:href="classAsteroids_1_1Domain_1_1Game_1_1Actors_1_1Bullet.html#ae02bb0b6f3886f31ffdf1e51b1735035" target="_top" xlink:title="Asteroids::Domain::\lGame::Actors::Bullet\l::initialize_polygon">
<polygon fill="#ffffff" stroke="#000000" points="144,-60.5 144,-101.5 252,-101.5 252,-60.5 144,-60.5"/>
<text text-anchor="start" x="152" y="-89.5" font-family="Helvetica,sans-Serif" font-size="10.00" fill="#000000">Asteroids::Domain::</text>
<text text-anchor="start" x="152" y="-78.5" font-family="Helvetica,sans-Serif" font-size="10.00" fill="#000000">Game::Actors::Bullet</text>
<text text-anchor="middle" x="198" y="-67.5" font-family="Helvetica,sans-Serif" font-size="10.00" fill="#000000">::initialize_polygon</text>
</a>
</g>
</g>
<!-- Node39&#45;&gt;Node40 -->
<g id="edge1" class="edge">
<title>Node39&#45;&gt;Node40</title>
<path fill="none" stroke="#191970" d="M108.03,-62.2562C116.4046,-64.001 125.1257,-65.8179 133.6995,-67.6041"/>
<polygon fill="#191970" stroke="#191970" points="133.1635,-71.0675 143.6672,-69.6807 134.5913,-64.2146 133.1635,-71.0675"/>
</g>
<!-- Node46 -->
<g id="node8" class="node">
<title>Node46</title>
<g id="a_node8"><a xlink:href="classAsteroids_1_1Domain_1_1Game_1_1Actors_1_1Actor.html#a538200753592ca63f7c3348fcece583f" target="_top" xlink:title="Asteroids::Domain::\lGame::Actors::Actor\l::reset">
<polygon fill="#ffffff" stroke="#000000" points="144.5,-.5 144.5,-41.5 251.5,-41.5 251.5,-.5 144.5,-.5"/>
<text text-anchor="start" x="152.5" y="-29.5" font-family="Helvetica,sans-Serif" font-size="10.00" fill="#000000">Asteroids::Domain::</text>
<text text-anchor="start" x="152.5" y="-18.5" font-family="Helvetica,sans-Serif" font-size="10.00" fill="#000000">Game::Actors::Actor</text>
<text text-anchor="middle" x="198" y="-7.5" font-family="Helvetica,sans-Serif" font-size="10.00" fill="#000000">::reset</text>
</a>
</g>
</g>
<!-- Node39&#45;&gt;Node46 -->
<g id="edge8" class="edge">
<title>Node39&#45;&gt;Node46</title>
<path fill="none" stroke="#191970" d="M108.03,-39.7438C116.6116,-37.9559 125.5571,-36.0923 134.335,-34.2635"/>
<polygon fill="#191970" stroke="#191970" points="135.0702,-37.6856 144.1461,-32.2196 133.6425,-30.8327 135.0702,-37.6856"/>
</g>
<!-- Node41 -->
<g id="node3" class="node">
<title>Node41</title>
<g id="a_node3"><a xlink:href="classAsteroids_1_1Domain_1_1Game_1_1Actors_1_1Actor.html#a224abd0a9dff102361ce2a305ba4734f" target="_top" xlink:title="Asteroids::Domain::\lGame::Actors::Actor\l::set_polygon">
<polygon fill="#ffffff" stroke="#000000" points="288,-60.5 288,-101.5 395,-101.5 395,-60.5 288,-60.5"/>
<text text-anchor="start" x="296" y="-89.5" font-family="Helvetica,sans-Serif" font-size="10.00" fill="#000000">Asteroids::Domain::</text>
<text text-anchor="start" x="296" y="-78.5" font-family="Helvetica,sans-Serif" font-size="10.00" fill="#000000">Game::Actors::Actor</text>
<text text-anchor="middle" x="341.5" y="-67.5" font-family="Helvetica,sans-Serif" font-size="10.00" fill="#000000">::set_polygon</text>
</a>
</g>
</g>
<!-- Node40&#45;&gt;Node41 -->
<g id="edge2" class="edge">
<title>Node40&#45;&gt;Node41</title>
<path fill="none" stroke="#191970" d="M252.2512,-81C260.4894,-81 269.0554,-81 277.4777,-81"/>
<polygon fill="#191970" stroke="#191970" points="277.6481,-84.5001 287.6481,-81 277.648,-77.5001 277.6481,-84.5001"/>
</g>
<!-- Node42 -->
<g id="node4" class="node">
<title>Node42</title>
<g id="a_node4"><a xlink:href="classAsteroids_1_1Domain_1_1Game_1_1Actors_1_1Actor.html#a4bb89af7457ff402fa5a4a11d62ab4ca" target="_top" xlink:title="Asteroids::Domain::\lGame::Actors::Actor\l::update_rect">
<polygon fill="#ffffff" stroke="#000000" points="431,-60.5 431,-101.5 538,-101.5 538,-60.5 431,-60.5"/>
<text text-anchor="start" x="439" y="-89.5" font-family="Helvetica,sans-Serif" font-size="10.00" fill="#000000">Asteroids::Domain::</text>
<text text-anchor="start" x="439" y="-78.5" font-family="Helvetica,sans-Serif" font-size="10.00" fill="#000000">Game::Actors::Actor</text>
<text text-anchor="middle" x="484.5" y="-67.5" font-family="Helvetica,sans-Serif" font-size="10.00" fill="#000000">::update_rect</text>
</a>
</g>
</g>
<!-- Node41&#45;&gt;Node42 -->
<g id="edge3" class="edge">
<title>Node41&#45;&gt;Node42</title>
<path fill="none" stroke="#191970" d="M395.1548,-81C403.3808,-81 411.9436,-81 420.3684,-81"/>
<polygon fill="#191970" stroke="#191970" points="420.5445,-84.5001 430.5445,-81 420.5445,-77.5001 420.5445,-84.5001"/>
</g>
<!-- Node43 -->
<g id="node5" class="node">
<title>Node43</title>
<g id="a_node5"><a xlink:href="classAsteroids_1_1Domain_1_1Game_1_1Actors_1_1Rect.html#a0ab06f4fe6e0dbd681c89397f22aa08f" target="_top" xlink:title="Asteroids::Domain::\lGame::Actors::Rect::\ladd_offset">
<polygon fill="#ffffff" stroke="#000000" points="574,-90.5 574,-131.5 684,-131.5 684,-90.5 574,-90.5"/>
<text text-anchor="start" x="582" y="-119.5" font-family="Helvetica,sans-Serif" font-size="10.00" fill="#000000">Asteroids::Domain::</text>
<text text-anchor="start" x="582" y="-108.5" font-family="Helvetica,sans-Serif" font-size="10.00" fill="#000000">Game::Actors::Rect::</text>
<text text-anchor="middle" x="629" y="-97.5" font-family="Helvetica,sans-Serif" font-size="10.00" fill="#000000">add_offset</text>
</a>
</g>
</g>
<!-- Node42&#45;&gt;Node43 -->
<g id="edge4" class="edge">
<title>Node42&#45;&gt;Node43</title>
<path fill="none" stroke="#191970" d="M538.3065,-92.1709C546.6114,-93.8951 555.2648,-95.6917 563.7864,-97.4608"/>
<polygon fill="#191970" stroke="#191970" points="563.1979,-100.9132 573.7006,-99.5192 564.6209,-94.0594 563.1979,-100.9132"/>
</g>
<!-- Node45 -->
<g id="node7" class="node">
<title>Node45</title>
<g id="a_node7"><a xlink:href="classAsteroids_1_1Domain_1_1Game_1_1Actors_1_1Rect.html#a687d0848c13d1b8dfbd2f896636b4145" target="_top" xlink:title="Create a rect from polygon points. ">
<polygon fill="#ffffff" stroke="#000000" points="574,-30.5 574,-71.5 684,-71.5 684,-30.5 574,-30.5"/>
<text text-anchor="start" x="582" y="-59.5" font-family="Helvetica,sans-Serif" font-size="10.00" fill="#000000">Asteroids::Domain::</text>
<text text-anchor="start" x="582" y="-48.5" font-family="Helvetica,sans-Serif" font-size="10.00" fill="#000000">Game::Actors::Rect::</text>
<text text-anchor="middle" x="629" y="-37.5" font-family="Helvetica,sans-Serif" font-size="10.00" fill="#000000">consume_polygon</text>
</a>
</g>
</g>
<!-- Node42&#45;&gt;Node45 -->
<g id="edge6" class="edge">
<title>Node42&#45;&gt;Node45</title>
<path fill="none" stroke="#191970" d="M538.3065,-69.8291C546.6114,-68.1049 555.2648,-66.3083 563.7864,-64.5392"/>
<polygon fill="#191970" stroke="#191970" points="564.6209,-67.9406 573.7006,-62.4808 563.1979,-61.0868 564.6209,-67.9406"/>
</g>
<!-- Node44 -->
<g id="node6" class="node">
<title>Node44</title>
<g id="a_node6"><a xlink:href="classAsteroids_1_1Domain_1_1Game_1_1Actors_1_1Rect.html#a40c593b8be9c243d6cdc30e2f8ee67df" target="_top" xlink:title="Asteroids::Domain::\lGame::Actors::Rect::\lupdate_dimensions">
<polygon fill="#ffffff" stroke="#000000" points="720,-60.5 720,-101.5 830,-101.5 830,-60.5 720,-60.5"/>
<text text-anchor="start" x="728" y="-89.5" font-family="Helvetica,sans-Serif" font-size="10.00" fill="#000000">Asteroids::Domain::</text>
<text text-anchor="start" x="728" y="-78.5" font-family="Helvetica,sans-Serif" font-size="10.00" fill="#000000">Game::Actors::Rect::</text>
<text text-anchor="middle" x="775" y="-67.5" font-family="Helvetica,sans-Serif" font-size="10.00" fill="#000000">update_dimensions</text>
</a>
</g>
</g>
<!-- Node43&#45;&gt;Node44 -->
<g id="edge5" class="edge">
<title>Node43&#45;&gt;Node44</title>
<path fill="none" stroke="#191970" d="M684.1963,-99.6583C692.5541,-97.9409 701.2434,-96.1555 709.7888,-94.3996"/>
<polygon fill="#191970" stroke="#191970" points="710.6347,-97.7989 719.7256,-92.3578 709.2258,-90.9422 710.6347,-97.7989"/>
</g>
<!-- Node45&#45;&gt;Node44 -->
<g id="edge7" class="edge">
<title>Node45&#45;&gt;Node44</title>
<path fill="none" stroke="#191970" d="M684.1963,-62.3417C692.5541,-64.0591 701.2434,-65.8445 709.7888,-67.6004"/>
<polygon fill="#191970" stroke="#191970" points="709.2258,-71.0578 719.7256,-69.6422 710.6347,-64.2011 709.2258,-71.0578"/>
</g>
<!-- Node47 -->
<g id="node9" class="node">
<title>Node47</title>
<g id="a_node9"><a xlink:href="classAsteroids_1_1Domain_1_1Game_1_1Actors_1_1Actor.html#a3678c27cfb63d8b4eb9b0aa64e352ee1" target="_top" xlink:title="Asteroids::Domain::\lGame::Actors::Actor\l::clear_input">
<polygon fill="#ffffff" stroke="#000000" points="288,-.5 288,-41.5 395,-41.5 395,-.5 288,-.5"/>
<text text-anchor="start" x="296" y="-29.5" font-family="Helvetica,sans-Serif" font-size="10.00" fill="#000000">Asteroids::Domain::</text>
<text text-anchor="start" x="296" y="-18.5" font-family="Helvetica,sans-Serif" font-size="10.00" fill="#000000">Game::Actors::Actor</text>
<text text-anchor="middle" x="341.5" y="-7.5" font-family="Helvetica,sans-Serif" font-size="10.00" fill="#000000">::clear_input</text>
</a>
</g>
</g>
<!-- Node46&#45;&gt;Node47 -->
<g id="edge9" class="edge">
<title>Node46&#45;&gt;Node47</title>
<path fill="none" stroke="#191970" d="M251.8424,-21C260.3022,-21 269.1169,-21 277.7739,-21"/>
<polygon fill="#191970" stroke="#191970" points="277.8332,-24.5001 287.8331,-21 277.8331,-17.5001 277.8332,-24.5001"/>
</g>
</g>
</svg>
