<?xml version="1.0" encoding="UTF-8" standalone="no"?>
<!DOCTYPE svg PUBLIC "-//W3C//DTD SVG 1.1//EN"
 "http://www.w3.org/Graphics/SVG/1.1/DTD/svg11.dtd">
<!-- Generated by graphviz version 2.40.1 (20161225.0304)
 -->
<!-- Title: Asteroids::Domain::Game::Game Pages: 1 -->
<!--zoomable 1118 -->
<svg id="main" version="1.1" xmlns="http://www.w3.org/2000/svg" xmlns:xlink="http://www.w3.org/1999/xlink" xml:space="preserve" onload="init(evt)">
<style type="text/css"><![CDATA[
.edge:hover path { stroke: red; }
.edge:hover polygon { stroke: red; fill: red; }
]]></style>
<script type="text/javascript"><![CDATA[
var edges = document.getElementsByTagName('g');
if (edges && edges.length) {
  for (var i=0;i<edges.length;i++) {
    if (edges[i].id.substr(0,4)=='edge') {
      edges[i].setAttribute('class','edge');
    }
  }
}
]]></script>
        <defs>
                <circle id="rim" cx="0" cy="0" r="7"/>
                <circle id="rim2" cx="0" cy="0" r="3.5"/>
                <g id="zoomPlus">
                        <use xlink:href="#rim" fill="#404040">
                                <set attributeName="fill" to="#808080" begin="zoomplus.mouseover" end="zoomplus.mouseout"/>
                        </use>
                        <path d="M-4,0h8M0,-4v8" fill="none" stroke="white" stroke-width="1.5" pointer-events="none"/>
                </g>
                <g id="zoomMin">
                        <use xlink:href="#rim" fill="#404040">
                                <set attributeName="fill" to="#808080" begin="zoomminus.mouseover" end="zoomminus.mouseout"/>
                        </use>
                        <path d="M-4,0h8" fill="none" stroke="white" stroke-width="1.5" pointer-events="none"/>
                </g>
                <g id="dirArrow">
                        <path fill="none" stroke="white" stroke-width="1.5" d="M0,-3.0v7 M-2.5,-0.5L0,-3.0L2.5,-0.5"/>
                </g>
               <g id="resetDef">
                       <use xlink:href="#rim2" fill="#404040">
                               <set attributeName="fill" to="#808080" begin="reset.mouseover" end="reset.mouseout"/>
                       </use>
               </g>
        </defs>

<script type="text/javascript">
var viewWidth = 1156;
var viewHeight = 1118;
var sectionId = 'dynsection-1';
</script>
<script xlink:href="svgpan.js"/>
<svg id="graph" class="graph">
<g id="viewport">
<title>Asteroids::Domain::Game::Game</title>
<polygon fill="#ffffff" stroke="transparent" points="-4,4 -4,-1114 1151.5,-1114 1151.5,4 -4,4"/>
<!-- Node2 -->
<g id="node1" class="node">
<title>Node2</title>
<polygon fill="#bfbfbf" stroke="#000000" points="353,-.5 353,-464.5 501,-464.5 501,-.5 353,-.5"/>
<text text-anchor="start" x="361" y="-452.5" font-family="Helvetica,sans-Serif" font-size="10.00" fill="#000000">Asteroids::Domain::</text>
<text text-anchor="middle" x="427" y="-441.5" font-family="Helvetica,sans-Serif" font-size="10.00" fill="#000000">Game::Game</text>
<polyline fill="none" stroke="#000000" points="353,-434.5 501,-434.5 "/>
<text text-anchor="start" x="361" y="-422.5" font-family="Helvetica,sans-Serif" font-size="10.00" fill="#000000">&#45; _board_height</text>
<text text-anchor="start" x="361" y="-411.5" font-family="Helvetica,sans-Serif" font-size="10.00" fill="#000000">&#45; _board_width</text>
<text text-anchor="start" x="361" y="-400.5" font-family="Helvetica,sans-Serif" font-size="10.00" fill="#000000">&#45; _is_active</text>
<text text-anchor="start" x="361" y="-389.5" font-family="Helvetica,sans-Serif" font-size="10.00" fill="#000000">&#45; _is_round_active</text>
<text text-anchor="start" x="361" y="-378.5" font-family="Helvetica,sans-Serif" font-size="10.00" fill="#000000">&#45; _last_time_ms</text>
<text text-anchor="start" x="361" y="-367.5" font-family="Helvetica,sans-Serif" font-size="10.00" fill="#000000">&#45; _player</text>
<text text-anchor="start" x="361" y="-356.5" font-family="Helvetica,sans-Serif" font-size="10.00" fill="#000000">&#45; _player_score</text>
<text text-anchor="start" x="361" y="-345.5" font-family="Helvetica,sans-Serif" font-size="10.00" fill="#000000">&#45; _round_number</text>
<text text-anchor="start" x="361" y="-334.5" font-family="Helvetica,sans-Serif" font-size="10.00" fill="#000000">&#45; _ticks_per_second</text>
<polyline fill="none" stroke="#000000" points="353,-327.5 501,-327.5 "/>
<text text-anchor="start" x="361" y="-315.5" font-family="Helvetica,sans-Serif" font-size="10.00" fill="#000000">+ Game()</text>
<text text-anchor="start" x="361" y="-304.5" font-family="Helvetica,sans-Serif" font-size="10.00" fill="#000000">+ get_actors()</text>
<text text-anchor="start" x="361" y="-293.5" font-family="Helvetica,sans-Serif" font-size="10.00" fill="#000000">+ get_board_height()</text>
<text text-anchor="start" x="361" y="-282.5" font-family="Helvetica,sans-Serif" font-size="10.00" fill="#000000">+ get_board_width()</text>
<text text-anchor="start" x="361" y="-271.5" font-family="Helvetica,sans-Serif" font-size="10.00" fill="#000000">+ get_player()</text>
<text text-anchor="start" x="361" y="-260.5" font-family="Helvetica,sans-Serif" font-size="10.00" fill="#000000">+ get_round()</text>
<text text-anchor="start" x="361" y="-249.5" font-family="Helvetica,sans-Serif" font-size="10.00" fill="#000000">+ get_score()</text>
<text text-anchor="start" x="361" y="-238.5" font-family="Helvetica,sans-Serif" font-size="10.00" fill="#000000">+ get_ticks_per_second()</text>
<text text-anchor="start" x="361" y="-227.5" font-family="Helvetica,sans-Serif" font-size="10.00" fill="#000000">+ is_active()</text>
<text text-anchor="start" x="361" y="-216.5" font-family="Helvetica,sans-Serif" font-size="10.00" fill="#000000">+ quit()</text>
<text text-anchor="start" x="361" y="-205.5" font-family="Helvetica,sans-Serif" font-size="10.00" fill="#000000">+ reset()</text>
<text text-anchor="start" x="361" y="-194.5" font-family="Helvetica,sans-Serif" font-size="10.00" fill="#000000">+ start()</text>
<text text-anchor="start" x="361" y="-183.5" font-family="Helvetica,sans-Serif" font-size="10.00" fill="#000000">+ update()</text>
<text text-anchor="start" x="361" y="-172.5" font-family="Helvetica,sans-Serif" font-size="10.00" fill="#000000">+ wait_for_frames_per</text>
<text text-anchor="start" x="361" y="-161.5" font-family="Helvetica,sans-Serif" font-size="10.00" fill="#000000">_second()</text>
<text text-anchor="start" x="361" y="-150.5" font-family="Helvetica,sans-Serif" font-size="10.00" fill="#000000">&#45; calculate_ticks_since</text>
<text text-anchor="start" x="361" y="-139.5" font-family="Helvetica,sans-Serif" font-size="10.00" fill="#000000">_last_update()</text>
<text text-anchor="start" x="361" y="-128.5" font-family="Helvetica,sans-Serif" font-size="10.00" fill="#000000">&#45; get_current_timestamp</text>
<text text-anchor="start" x="361" y="-117.5" font-family="Helvetica,sans-Serif" font-size="10.00" fill="#000000">_ticks()</text>
<text text-anchor="start" x="361" y="-106.5" font-family="Helvetica,sans-Serif" font-size="10.00" fill="#000000">&#45; get_random_board_position()</text>
<text text-anchor="start" x="361" y="-95.5" font-family="Helvetica,sans-Serif" font-size="10.00" fill="#000000">&#45; init()</text>
<text text-anchor="start" x="361" y="-84.5" font-family="Helvetica,sans-Serif" font-size="10.00" fill="#000000">&#45; initialize_random_rocks()</text>
<text text-anchor="start" x="361" y="-73.5" font-family="Helvetica,sans-Serif" font-size="10.00" fill="#000000">&#45; keep_actors_in_bounds()</text>
<text text-anchor="start" x="361" y="-62.5" font-family="Helvetica,sans-Serif" font-size="10.00" fill="#000000">&#45; lose_round()</text>
<text text-anchor="start" x="361" y="-51.5" font-family="Helvetica,sans-Serif" font-size="10.00" fill="#000000">&#45; maybe_lose_round()</text>
<text text-anchor="start" x="361" y="-40.5" font-family="Helvetica,sans-Serif" font-size="10.00" fill="#000000">&#45; maybe_win_round()</text>
<text text-anchor="start" x="361" y="-29.5" font-family="Helvetica,sans-Serif" font-size="10.00" fill="#000000">&#45; randomly_place_player()</text>
<text text-anchor="start" x="361" y="-18.5" font-family="Helvetica,sans-Serif" font-size="10.00" fill="#000000">&#45; start_round()</text>
<text text-anchor="start" x="361" y="-7.5" font-family="Helvetica,sans-Serif" font-size="10.00" fill="#000000">&#45; win_round()</text>
</g>
<!-- Node3 -->
<g id="node2" class="node">
<title>Node3</title>
<g id="a_node2"><a xlink:href="classAsteroids_1_1Domain_1_1Game_1_1GameInterface.html" target="_top" xlink:title="Interface that allows users to control the main client game. ">
<polygon fill="#ffffff" stroke="#000000" points="0,-512.5 0,-712.5 114,-712.5 114,-512.5 0,-512.5"/>
<text text-anchor="start" x="8" y="-700.5" font-family="Helvetica,sans-Serif" font-size="10.00" fill="#000000">Asteroids::Domain::</text>
<text text-anchor="middle" x="57" y="-689.5" font-family="Helvetica,sans-Serif" font-size="10.00" fill="#000000">Game::GameInterface</text>
<polyline fill="none" stroke="#000000" points="0,-682.5 114,-682.5 "/>
<text text-anchor="middle" x="57" y="-670.5" font-family="Helvetica,sans-Serif" font-size="10.00" fill="#000000"> </text>
<polyline fill="none" stroke="#000000" points="0,-663.5 114,-663.5 "/>
<text text-anchor="start" x="8" y="-651.5" font-family="Helvetica,sans-Serif" font-size="10.00" fill="#000000">+ get_actors()</text>
<text text-anchor="start" x="8" y="-640.5" font-family="Helvetica,sans-Serif" font-size="10.00" fill="#000000">+ get_board_height()</text>
<text text-anchor="start" x="8" y="-629.5" font-family="Helvetica,sans-Serif" font-size="10.00" fill="#000000">+ get_board_width()</text>
<text text-anchor="start" x="8" y="-618.5" font-family="Helvetica,sans-Serif" font-size="10.00" fill="#000000">+ get_player()</text>
<text text-anchor="start" x="8" y="-607.5" font-family="Helvetica,sans-Serif" font-size="10.00" fill="#000000">+ get_round()</text>
<text text-anchor="start" x="8" y="-596.5" font-family="Helvetica,sans-Serif" font-size="10.00" fill="#000000">+ get_score()</text>
<text text-anchor="start" x="8" y="-585.5" font-family="Helvetica,sans-Serif" font-size="10.00" fill="#000000">+ is_active()</text>
<text text-anchor="start" x="8" y="-574.5" font-family="Helvetica,sans-Serif" font-size="10.00" fill="#000000">+ quit()</text>
<text text-anchor="start" x="8" y="-563.5" font-family="Helvetica,sans-Serif" font-size="10.00" fill="#000000">+ reset()</text>
<text text-anchor="start" x="8" y="-552.5" font-family="Helvetica,sans-Serif" font-size="10.00" fill="#000000">+ start()</text>
<text text-anchor="start" x="8" y="-541.5" font-family="Helvetica,sans-Serif" font-size="10.00" fill="#000000">+ update()</text>
<text text-anchor="start" x="8" y="-530.5" font-family="Helvetica,sans-Serif" font-size="10.00" fill="#000000">+ wait_for_frames_per</text>
<text text-anchor="start" x="8" y="-519.5" font-family="Helvetica,sans-Serif" font-size="10.00" fill="#000000">_second()</text>
</a>
</g>
</g>
<!-- Node3&#45;&gt;Node2 -->
<g id="edge1" class="edge">
<title>Node3&#45;&gt;Node2</title>
<path fill="none" stroke="#191970" d="M120.4973,-514.9853C121.3294,-513.9798 122.1638,-512.9843 123,-512 193.7874,-428.6748 288.1164,-345.4397 352.8195,-291.7564"/>
<polygon fill="none" stroke="#191970" points="117.6978,-512.8816 114.169,-522.8716 123.1574,-517.2627 117.6978,-512.8816"/>
</g>
<!-- Node4 -->
<g id="node3" class="node">
<title>Node4</title>
<polygon fill="#ffffff" stroke="#bfbfbf" points="431.5,-578.5 431.5,-646.5 580.5,-646.5 580.5,-578.5 431.5,-578.5"/>
<text text-anchor="start" x="439.5" y="-634.5" font-family="Helvetica,sans-Serif" font-size="10.00" fill="#000000">std::unique_ptr&lt; Asteroids</text>
<text text-anchor="middle" x="506" y="-623.5" font-family="Helvetica,sans-Serif" font-size="10.00" fill="#000000">::Domain::Game::Randomer &gt;</text>
<polyline fill="none" stroke="#bfbfbf" points="431.5,-616.5 580.5,-616.5 "/>
<text text-anchor="middle" x="506" y="-604.5" font-family="Helvetica,sans-Serif" font-size="10.00" fill="#000000"> </text>
<polyline fill="none" stroke="#bfbfbf" points="431.5,-597.5 580.5,-597.5 "/>
<text text-anchor="start" x="439.5" y="-585.5" font-family="Helvetica,sans-Serif" font-size="10.00" fill="#000000">+ operator&#45;&gt;()</text>
</g>
<!-- Node4&#45;&gt;Node2 -->
<g id="edge2" class="edge">
<title>Node4&#45;&gt;Node2</title>
<path fill="none" stroke="#404040" d="M498.9198,-578.4431C493.7148,-553.4067 486.1222,-516.8853 477.7987,-476.8484"/>
<polygon fill="none" stroke="#404040" points="477.7567,-476.6456 472.6191,-471.5854 475.3141,-464.8969 480.4516,-469.9571 477.7567,-476.6456"/>
<text text-anchor="middle" x="506" y="-486" font-family="Helvetica,sans-Serif" font-size="10.00" fill="#000000"> &#45;_randomer</text>
</g>
<!-- Node5 -->
<g id="node4" class="node">
<title>Node5</title>
<g id="a_node4"><a xlink:href="classAsteroids_1_1Domain_1_1Game_1_1Randomer.html" target="_top" xlink:title="Helper class to generate random numbers for the Game. ">
<polygon fill="#ffffff" stroke="#000000" points="387,-799 387,-922 491,-922 491,-799 387,-799"/>
<text text-anchor="start" x="395" y="-910" font-family="Helvetica,sans-Serif" font-size="10.00" fill="#000000">Asteroids::Domain::</text>
<text text-anchor="middle" x="439" y="-899" font-family="Helvetica,sans-Serif" font-size="10.00" fill="#000000">Game::Randomer</text>
<polyline fill="none" stroke="#000000" points="387,-892 491,-892 "/>
<text text-anchor="start" x="395" y="-880" font-family="Helvetica,sans-Serif" font-size="10.00" fill="#000000">&#45; _random_engine</text>
<polyline fill="none" stroke="#000000" points="387,-873 491,-873 "/>
<text text-anchor="start" x="395" y="-861" font-family="Helvetica,sans-Serif" font-size="10.00" fill="#000000">+ Randomer()</text>
<text text-anchor="start" x="395" y="-850" font-family="Helvetica,sans-Serif" font-size="10.00" fill="#000000">+ get_double()</text>
<text text-anchor="start" x="395" y="-839" font-family="Helvetica,sans-Serif" font-size="10.00" fill="#000000">+ get_double()</text>
<text text-anchor="start" x="395" y="-828" font-family="Helvetica,sans-Serif" font-size="10.00" fill="#000000">+ reset()</text>
<text text-anchor="start" x="395" y="-817" font-family="Helvetica,sans-Serif" font-size="10.00" fill="#000000">+ roll_bool()</text>
<text text-anchor="start" x="395" y="-806" font-family="Helvetica,sans-Serif" font-size="10.00" fill="#000000">&#45; init()</text>
</a>
</g>
</g>
<!-- Node5&#45;&gt;Node4 -->
<g id="edge3" class="edge">
<title>Node5&#45;&gt;Node4</title>
<path fill="none" stroke="#404040" d="M455.6479,-798.878C467.4139,-755.3263 482.9301,-697.8931 493.6122,-658.3533"/>
<polygon fill="none" stroke="#404040" points="493.6328,-658.2767 491.3362,-651.4411 496.7626,-646.692 499.0593,-653.5276 493.6328,-658.2767"/>
<text text-anchor="middle" x="482.5" y="-745" font-family="Helvetica,sans-Serif" font-size="10.00" fill="#000000"> +ptr</text>
</g>
<!-- Node6 -->
<g id="node5" class="node">
<title>Node6</title>
<g id="a_node5"><a xlink:title="STL class. ">
<polygon fill="#ffffff" stroke="#bfbfbf" points="673.5,-832 673.5,-889 778.5,-889 778.5,-832 673.5,-832"/>
<text text-anchor="middle" x="726" y="-877" font-family="Helvetica,sans-Serif" font-size="10.00" fill="#000000">std::unique_ptr&lt; T &gt;</text>
<polyline fill="none" stroke="#bfbfbf" points="673.5,-870 778.5,-870 "/>
<text text-anchor="middle" x="726" y="-858" font-family="Helvetica,sans-Serif" font-size="10.00" fill="#000000"> </text>
<polyline fill="none" stroke="#bfbfbf" points="673.5,-851 778.5,-851 "/>
<text text-anchor="start" x="681.5" y="-839" font-family="Helvetica,sans-Serif" font-size="10.00" fill="#000000">+ operator&#45;&gt;()</text>
</a>
</g>
</g>
<!-- Node6&#45;&gt;Node4 -->
<g id="edge4" class="edge">
<title>Node6&#45;&gt;Node4</title>
<path fill="none" stroke="#ffa500" d="M703.2506,-823.3827C692.802,-808.8365 679.3168,-793.0259 664,-782 644.8316,-768.2015 632.8233,-778.2657 614,-764 602.8017,-755.5131 556.9328,-688.5739 528.6969,-646.5617"/>
<polygon fill="#ffa500" stroke="#ffa500" points="700.475,-825.5226 709.0426,-831.7555 706.2319,-821.5403 700.475,-825.5226"/>
<text text-anchor="start" x="614" y="-750.5" font-family="Helvetica,sans-Serif" font-size="10.00" fill="#000000"> &lt; Asteroids::Domain</text>
<text text-anchor="middle" x="661" y="-739.5" font-family="Helvetica,sans-Serif" font-size="10.00" fill="#000000">::Game::Randomer &gt;</text>
</g>
<!-- Node11 -->
<g id="node10" class="node">
<title>Node11</title>
<polygon fill="#ffffff" stroke="#bfbfbf" points="598.5,-578.5 598.5,-646.5 799.5,-646.5 799.5,-578.5 598.5,-578.5"/>
<text text-anchor="start" x="606.5" y="-634.5" font-family="Helvetica,sans-Serif" font-size="10.00" fill="#000000">std::unique_ptr&lt; Asteroids</text>
<text text-anchor="middle" x="699" y="-623.5" font-family="Helvetica,sans-Serif" font-size="10.00" fill="#000000">::Domain::Game::GameFactoryInterface &gt;</text>
<polyline fill="none" stroke="#bfbfbf" points="598.5,-616.5 799.5,-616.5 "/>
<text text-anchor="middle" x="699" y="-604.5" font-family="Helvetica,sans-Serif" font-size="10.00" fill="#000000"> </text>
<polyline fill="none" stroke="#bfbfbf" points="598.5,-597.5 799.5,-597.5 "/>
<text text-anchor="start" x="606.5" y="-585.5" font-family="Helvetica,sans-Serif" font-size="10.00" fill="#000000">+ operator&#45;&gt;()</text>
</g>
<!-- Node6&#45;&gt;Node11 -->
<g id="edge13" class="edge">
<title>Node6&#45;&gt;Node11</title>
<path fill="none" stroke="#ffa500" d="M721.7593,-821.548C716.5287,-773.5046 707.7196,-692.5914 702.7339,-646.7961"/>
<polygon fill="#ffa500" stroke="#ffa500" points="718.2881,-822.0035 722.8499,-831.5659 725.247,-821.2458 718.2881,-822.0035"/>
<text text-anchor="start" x="714" y="-750.5" font-family="Helvetica,sans-Serif" font-size="10.00" fill="#000000"> &lt; Asteroids::Domain</text>
<text text-anchor="middle" x="786.5" y="-739.5" font-family="Helvetica,sans-Serif" font-size="10.00" fill="#000000">::Game::GameFactoryInterface &gt;</text>
</g>
<!-- Node13 -->
<g id="node12" class="node">
<title>Node13</title>
<polygon fill="#ffffff" stroke="#bfbfbf" points="822.5,-578.5 822.5,-646.5 965.5,-646.5 965.5,-578.5 822.5,-578.5"/>
<text text-anchor="start" x="830.5" y="-634.5" font-family="Helvetica,sans-Serif" font-size="10.00" fill="#000000">std::unique_ptr&lt; Asteroids</text>
<text text-anchor="middle" x="894" y="-623.5" font-family="Helvetica,sans-Serif" font-size="10.00" fill="#000000">::Domain::Factory::Factory &gt;</text>
<polyline fill="none" stroke="#bfbfbf" points="822.5,-616.5 965.5,-616.5 "/>
<text text-anchor="middle" x="894" y="-604.5" font-family="Helvetica,sans-Serif" font-size="10.00" fill="#000000"> </text>
<polyline fill="none" stroke="#bfbfbf" points="822.5,-597.5 965.5,-597.5 "/>
<text text-anchor="start" x="830.5" y="-585.5" font-family="Helvetica,sans-Serif" font-size="10.00" fill="#000000">+ operator&#45;&gt;()</text>
</g>
<!-- Node6&#45;&gt;Node13 -->
<g id="edge18" class="edge">
<title>Node6&#45;&gt;Node13</title>
<path fill="none" stroke="#ffa500" d="M787.2418,-830.988C814.4511,-814.8548 844.4559,-792.3361 863,-764 886.228,-728.5067 892.5925,-679.116 894.0613,-646.5026"/>
<polygon fill="#ffa500" stroke="#ffa500" points="785.4482,-827.9819 778.5239,-836.0009 788.9376,-834.0502 785.4482,-827.9819"/>
<text text-anchor="start" x="877" y="-750.5" font-family="Helvetica,sans-Serif" font-size="10.00" fill="#000000"> &lt; Asteroids::Domain</text>
<text text-anchor="middle" x="924" y="-739.5" font-family="Helvetica,sans-Serif" font-size="10.00" fill="#000000">::Factory::Factory &gt;</text>
</g>
<!-- Node7 -->
<g id="node6" class="node">
<title>Node7</title>
<polygon fill="#ffffff" stroke="#bfbfbf" points="593.5,-1019.5 593.5,-1076.5 622.5,-1076.5 622.5,-1019.5 593.5,-1019.5"/>
<text text-anchor="middle" x="608" y="-1064.5" font-family="Helvetica,sans-Serif" font-size="10.00" fill="#000000">T</text>
<polyline fill="none" stroke="#bfbfbf" points="593.5,-1057.5 622.5,-1057.5 "/>
<text text-anchor="middle" x="608" y="-1045.5" font-family="Helvetica,sans-Serif" font-size="10.00" fill="#000000"> </text>
<polyline fill="none" stroke="#bfbfbf" points="593.5,-1038.5 622.5,-1038.5 "/>
<text text-anchor="middle" x="608" y="-1026.5" font-family="Helvetica,sans-Serif" font-size="10.00" fill="#000000"> </text>
</g>
<!-- Node7&#45;&gt;Node6 -->
<g id="edge5" class="edge">
<title>Node7&#45;&gt;Node6</title>
<path fill="none" stroke="#404040" d="M622.7062,-1024.6321C642.3869,-993.3598 677.5633,-937.4651 701.3348,-899.6926"/>
<polygon fill="none" stroke="#404040" points="701.6235,-899.2338 701.4339,-892.0251 708.0152,-889.0776 708.2047,-896.2862 701.6235,-899.2338"/>
<text text-anchor="middle" x="673.5" y="-960" font-family="Helvetica,sans-Serif" font-size="10.00" fill="#000000"> +ptr</text>
</g>
<!-- Node9 -->
<g id="node8" class="node">
<title>Node9</title>
<g id="a_node8"><a xlink:title="STL class. ">
<polygon fill="#ffffff" stroke="#bfbfbf" points="281.5,-832 281.5,-889 368.5,-889 368.5,-832 281.5,-832"/>
<text text-anchor="middle" x="325" y="-877" font-family="Helvetica,sans-Serif" font-size="10.00" fill="#000000">std::vector&lt; T &gt;</text>
<polyline fill="none" stroke="#bfbfbf" points="281.5,-870 368.5,-870 "/>
<text text-anchor="middle" x="325" y="-858" font-family="Helvetica,sans-Serif" font-size="10.00" fill="#000000"> </text>
<polyline fill="none" stroke="#bfbfbf" points="281.5,-851 368.5,-851 "/>
<text text-anchor="middle" x="325" y="-839" font-family="Helvetica,sans-Serif" font-size="10.00" fill="#000000"> </text>
</a>
</g>
</g>
<!-- Node7&#45;&gt;Node9 -->
<g id="edge8" class="edge">
<title>Node7&#45;&gt;Node9</title>
<path fill="none" stroke="#404040" d="M593.2911,-1044.0195C554.4201,-1032.9176 447.2136,-998.4609 378,-939 365.3038,-928.0928 354.3248,-913.4487 345.7047,-899.7638"/>
<polygon fill="none" stroke="#404040" points="345.4746,-899.3794 338.9603,-896.2868 339.3096,-889.0841 345.8238,-892.1768 345.4746,-899.3794"/>
<text text-anchor="middle" x="440.5" y="-960" font-family="Helvetica,sans-Serif" font-size="10.00" fill="#000000"> +elements</text>
</g>
<!-- Node8 -->
<g id="node7" class="node">
<title>Node8</title>
<polygon fill="#ffffff" stroke="#bfbfbf" points="282.5,-573 282.5,-652 413.5,-652 413.5,-573 282.5,-573"/>
<text text-anchor="start" x="290.5" y="-640" font-family="Helvetica,sans-Serif" font-size="10.00" fill="#000000">std::vector&lt; std::shared</text>
<text text-anchor="start" x="290.5" y="-629" font-family="Helvetica,sans-Serif" font-size="10.00" fill="#000000">_ptr&lt; Asteroids::Domain</text>
<text text-anchor="middle" x="348" y="-618" font-family="Helvetica,sans-Serif" font-size="10.00" fill="#000000">::Game::Actors::Rock &gt; &gt;</text>
<polyline fill="none" stroke="#bfbfbf" points="282.5,-611 413.5,-611 "/>
<text text-anchor="start" x="290.5" y="-599" font-family="Helvetica,sans-Serif" font-size="10.00" fill="#000000">+ elements</text>
<polyline fill="none" stroke="#bfbfbf" points="282.5,-592 413.5,-592 "/>
<text text-anchor="middle" x="348" y="-580" font-family="Helvetica,sans-Serif" font-size="10.00" fill="#000000"> </text>
</g>
<!-- Node8&#45;&gt;Node2 -->
<g id="edge6" class="edge">
<title>Node8&#45;&gt;Node2</title>
<path fill="none" stroke="#404040" d="M356.2308,-572.9087C361.3659,-548.2086 368.4525,-514.1209 376.1694,-477.0014"/>
<polygon fill="none" stroke="#404040" points="376.2528,-476.5999 373.5579,-469.9114 378.6954,-464.8512 381.3904,-471.5397 376.2528,-476.5999"/>
<text text-anchor="middle" x="391" y="-486" font-family="Helvetica,sans-Serif" font-size="10.00" fill="#000000"> &#45;_rocks</text>
</g>
<!-- Node9&#45;&gt;Node8 -->
<g id="edge7" class="edge">
<title>Node9&#45;&gt;Node8</title>
<path fill="none" stroke="#ffa500" d="M326.2805,-821.789C327.3324,-796.0221 329.1271,-761.4387 332,-731 334.4872,-704.6486 338.4657,-675.1517 341.8331,-652.1789"/>
<polygon fill="#ffa500" stroke="#ffa500" points="322.7785,-821.7748 325.8871,-831.9033 329.7732,-822.0469 322.7785,-821.7748"/>
<text text-anchor="start" x="332" y="-756" font-family="Helvetica,sans-Serif" font-size="10.00" fill="#000000"> &lt; std::shared_ptr&lt;</text>
<text text-anchor="start" x="332" y="-745" font-family="Helvetica,sans-Serif" font-size="10.00" fill="#000000"> Asteroids::Domain::</text>
<text text-anchor="middle" x="386.5" y="-734" font-family="Helvetica,sans-Serif" font-size="10.00" fill="#000000">Game::Actors::Rock &gt; &gt;</text>
</g>
<!-- Node10 -->
<g id="node9" class="node">
<title>Node10</title>
<polygon fill="#ffffff" stroke="#bfbfbf" points="132,-573 132,-652 264,-652 264,-573 132,-573"/>
<text text-anchor="start" x="140" y="-640" font-family="Helvetica,sans-Serif" font-size="10.00" fill="#000000">std::vector&lt; std::shared</text>
<text text-anchor="start" x="140" y="-629" font-family="Helvetica,sans-Serif" font-size="10.00" fill="#000000">_ptr&lt; Asteroids::Domain</text>
<text text-anchor="middle" x="198" y="-618" font-family="Helvetica,sans-Serif" font-size="10.00" fill="#000000">::Game::Actors::Bullet &gt; &gt;</text>
<polyline fill="none" stroke="#bfbfbf" points="132,-611 264,-611 "/>
<text text-anchor="start" x="140" y="-599" font-family="Helvetica,sans-Serif" font-size="10.00" fill="#000000">+ elements</text>
<polyline fill="none" stroke="#bfbfbf" points="132,-592 264,-592 "/>
<text text-anchor="middle" x="198" y="-580" font-family="Helvetica,sans-Serif" font-size="10.00" fill="#000000"> </text>
</g>
<!-- Node9&#45;&gt;Node10 -->
<g id="edge10" class="edge">
<title>Node9&#45;&gt;Node10</title>
<path fill="none" stroke="#ffa500" d="M273.0999,-827.845C251.4802,-811.4236 228.3459,-789.5594 215,-764 196.8694,-729.2771 194.0204,-684.067 194.8434,-652.1008"/>
<polygon fill="#ffa500" stroke="#ffa500" points="271.1589,-830.7622 281.2882,-833.8685 275.3069,-825.1235 271.1589,-830.7622"/>
<text text-anchor="start" x="215" y="-756" font-family="Helvetica,sans-Serif" font-size="10.00" fill="#000000"> &lt; std::shared_ptr&lt;</text>
<text text-anchor="start" x="215" y="-745" font-family="Helvetica,sans-Serif" font-size="10.00" fill="#000000"> Asteroids::Domain::</text>
<text text-anchor="middle" x="270" y="-734" font-family="Helvetica,sans-Serif" font-size="10.00" fill="#000000">Game::Actors::Bullet &gt; &gt;</text>
</g>
<!-- Node10&#45;&gt;Node2 -->
<g id="edge9" class="edge">
<title>Node10&#45;&gt;Node2</title>
<path fill="none" stroke="#404040" d="M221.859,-572.9087C251.1754,-524.2613 302.4361,-439.1999 346.3799,-366.28"/>
<polygon fill="none" stroke="#404040" points="346.613,-365.8932 346.284,-358.6896 352.8069,-355.6152 353.1359,-362.8188 346.613,-365.8932"/>
<text text-anchor="middle" x="293" y="-486" font-family="Helvetica,sans-Serif" font-size="10.00" fill="#000000"> &#45;_bullets</text>
</g>
<!-- Node11&#45;&gt;Node2 -->
<g id="edge11" class="edge">
<title>Node11&#45;&gt;Node2</title>
<path fill="none" stroke="#404040" d="M674.6224,-578.4431C637.5458,-526.6449 565.2802,-425.6856 508.3449,-346.1436"/>
<polygon fill="none" stroke="#404040" points="508.1122,-345.8185 501.3673,-343.2678 501.1276,-336.0606 507.8725,-338.6113 508.1122,-345.8185"/>
<text text-anchor="middle" x="646.5" y="-486" font-family="Helvetica,sans-Serif" font-size="10.00" fill="#000000"> &#45;_game_factory</text>
</g>
<!-- Node12 -->
<g id="node11" class="node">
<title>Node12</title>
<g id="a_node11"><a xlink:href="classAsteroids_1_1Domain_1_1Game_1_1GameFactoryInterface.html" target="_top" xlink:title="Create things inside the Game package. ">
<polygon fill="#ffffff" stroke="#000000" points="509,-815.5 509,-905.5 655,-905.5 655,-815.5 509,-815.5"/>
<text text-anchor="start" x="517" y="-893.5" font-family="Helvetica,sans-Serif" font-size="10.00" fill="#000000">Asteroids::Domain::</text>
<text text-anchor="middle" x="582" y="-882.5" font-family="Helvetica,sans-Serif" font-size="10.00" fill="#000000">Game::GameFactoryInterface</text>
<polyline fill="none" stroke="#000000" points="509,-875.5 655,-875.5 "/>
<text text-anchor="middle" x="582" y="-863.5" font-family="Helvetica,sans-Serif" font-size="10.00" fill="#000000"> </text>
<polyline fill="none" stroke="#000000" points="509,-856.5 655,-856.5 "/>
<text text-anchor="start" x="517" y="-844.5" font-family="Helvetica,sans-Serif" font-size="10.00" fill="#000000">+ createGame()</text>
<text text-anchor="start" x="517" y="-833.5" font-family="Helvetica,sans-Serif" font-size="10.00" fill="#000000">+ createGameHistory()</text>
<text text-anchor="start" x="517" y="-822.5" font-family="Helvetica,sans-Serif" font-size="10.00" fill="#000000">+ createRandomer()</text>
</a>
</g>
</g>
<!-- Node12&#45;&gt;Node11 -->
<g id="edge12" class="edge">
<title>Node12&#45;&gt;Node11</title>
<path fill="none" stroke="#404040" d="M564.2742,-815.2015C557.0323,-789.3103 553.0323,-756.9353 566,-731 571.9628,-719.0743 579.7522,-721.53 590,-713 611.8603,-694.804 635.1572,-673.5917 654.5776,-655.3572"/>
<polygon fill="none" stroke="#404040" points="654.766,-655.1795 656.3829,-648.152 663.4918,-646.9417 661.8748,-653.9692 654.766,-655.1795"/>
<text text-anchor="middle" x="576.5" y="-745" font-family="Helvetica,sans-Serif" font-size="10.00" fill="#000000"> +ptr</text>
</g>
<!-- Node13&#45;&gt;Node2 -->
<g id="edge14" class="edge">
<title>Node13&#45;&gt;Node2</title>
<path fill="none" stroke="#404040" d="M868.2896,-578.1473C852.3117,-557.854 830.732,-532.2542 809,-512 714.455,-423.884 591.9009,-338.5457 511.4361,-285.8293"/>
<polygon fill="none" stroke="#404040" points="511.3979,-285.8044 504.1871,-285.8754 501.3482,-279.2467 508.559,-279.1756 511.3979,-285.8044"/>
<text text-anchor="middle" x="801" y="-486" font-family="Helvetica,sans-Serif" font-size="10.00" fill="#000000"> &#45;_factory</text>
</g>
<!-- Node14 -->
<g id="node13" class="node">
<title>Node14</title>
<g id="a_node13"><a xlink:href="classAsteroids_1_1Domain_1_1Factory_1_1Factory.html" target="_top" xlink:title="Implementation of FactoryInterface. ">
<polygon fill="#ffffff" stroke="#000000" points="925,-782.5 925,-938.5 1097,-938.5 1097,-782.5 925,-782.5"/>
<text text-anchor="start" x="933" y="-926.5" font-family="Helvetica,sans-Serif" font-size="10.00" fill="#000000">Asteroids::Domain::</text>
<text text-anchor="middle" x="1011" y="-915.5" font-family="Helvetica,sans-Serif" font-size="10.00" fill="#000000">Factory::Factory</text>
<polyline fill="none" stroke="#000000" points="925,-908.5 1097,-908.5 "/>
<text text-anchor="middle" x="1011" y="-896.5" font-family="Helvetica,sans-Serif" font-size="10.00" fill="#000000"> </text>
<polyline fill="none" stroke="#000000" points="925,-889.5 1097,-889.5 "/>
<text text-anchor="start" x="933" y="-877.5" font-family="Helvetica,sans-Serif" font-size="10.00" fill="#000000">+ Factory()</text>
<text text-anchor="start" x="933" y="-866.5" font-family="Helvetica,sans-Serif" font-size="10.00" fill="#000000">+ createGameFactory()</text>
<text text-anchor="start" x="933" y="-855.5" font-family="Helvetica,sans-Serif" font-size="10.00" fill="#000000">+ createNetworkFactory()</text>
<text text-anchor="start" x="933" y="-844.5" font-family="Helvetica,sans-Serif" font-size="10.00" fill="#000000">+ createServerFactory()</text>
<text text-anchor="start" x="933" y="-833.5" font-family="Helvetica,sans-Serif" font-size="10.00" fill="#000000">+ createStoreFactory()</text>
<text text-anchor="start" x="933" y="-822.5" font-family="Helvetica,sans-Serif" font-size="10.00" fill="#000000">+ createTechnicalServicesFactory()</text>
<text text-anchor="start" x="933" y="-811.5" font-family="Helvetica,sans-Serif" font-size="10.00" fill="#000000">+ createUIFactory()</text>
<text text-anchor="start" x="933" y="-800.5" font-family="Helvetica,sans-Serif" font-size="10.00" fill="#000000">+ reset()</text>
<text text-anchor="start" x="933" y="-789.5" font-family="Helvetica,sans-Serif" font-size="10.00" fill="#000000">&#45; this_pointer()</text>
</a>
</g>
</g>
<!-- Node14&#45;&gt;Node13 -->
<g id="edge15" class="edge">
<title>Node14&#45;&gt;Node13</title>
<path fill="none" stroke="#404040" d="M1004.2592,-782.2544C1000.9855,-764.8824 996.1459,-746.915 989,-731 976.5811,-703.3412 956.1528,-676.6222 937.4154,-655.5787"/>
<polygon fill="none" stroke="#404040" points="937.3311,-655.4864 930.3314,-653.7528 929.2395,-646.6248 936.2392,-648.3584 937.3311,-655.4864"/>
<text text-anchor="middle" x="1009.5" y="-745" font-family="Helvetica,sans-Serif" font-size="10.00" fill="#000000"> +ptr</text>
</g>
<!-- Node15 -->
<g id="node14" class="node">
<title>Node15</title>
<g id="a_node14"><a xlink:href="classAsteroids_1_1Domain_1_1Factory_1_1FactoryInterface.html" target="_top" xlink:title="The main FactoryInterface is responsible for generating other factories of subpackages. ">
<polygon fill="#ffffff" stroke="#000000" points="844,-986.5 844,-1109.5 1016,-1109.5 1016,-986.5 844,-986.5"/>
<text text-anchor="start" x="852" y="-1097.5" font-family="Helvetica,sans-Serif" font-size="10.00" fill="#000000">Asteroids::Domain::</text>
<text text-anchor="middle" x="930" y="-1086.5" font-family="Helvetica,sans-Serif" font-size="10.00" fill="#000000">Factory::FactoryInterface</text>
<polyline fill="none" stroke="#000000" points="844,-1079.5 1016,-1079.5 "/>
<text text-anchor="middle" x="930" y="-1067.5" font-family="Helvetica,sans-Serif" font-size="10.00" fill="#000000"> </text>
<polyline fill="none" stroke="#000000" points="844,-1060.5 1016,-1060.5 "/>
<text text-anchor="start" x="852" y="-1048.5" font-family="Helvetica,sans-Serif" font-size="10.00" fill="#000000">+ createGameFactory()</text>
<text text-anchor="start" x="852" y="-1037.5" font-family="Helvetica,sans-Serif" font-size="10.00" fill="#000000">+ createNetworkFactory()</text>
<text text-anchor="start" x="852" y="-1026.5" font-family="Helvetica,sans-Serif" font-size="10.00" fill="#000000">+ createServerFactory()</text>
<text text-anchor="start" x="852" y="-1015.5" font-family="Helvetica,sans-Serif" font-size="10.00" fill="#000000">+ createStoreFactory()</text>
<text text-anchor="start" x="852" y="-1004.5" font-family="Helvetica,sans-Serif" font-size="10.00" fill="#000000">+ createTechnicalServicesFactory()</text>
<text text-anchor="start" x="852" y="-993.5" font-family="Helvetica,sans-Serif" font-size="10.00" fill="#000000">+ createUIFactory()</text>
</a>
</g>
</g>
<!-- Node15&#45;&gt;Node14 -->
<g id="edge16" class="edge">
<title>Node15&#45;&gt;Node14</title>
<path fill="none" stroke="#191970" d="M960.7148,-976.901C966.1226,-964.383 971.7779,-951.2919 977.2629,-938.5951"/>
<polygon fill="none" stroke="#191970" points="957.3874,-975.7777 956.6346,-986.3458 963.8135,-978.5538 957.3874,-975.7777"/>
</g>
<!-- Node16 -->
<g id="node15" class="node">
<title>Node16</title>
<polygon fill="#ffffff" stroke="#bfbfbf" points="1034.5,-1014 1034.5,-1082 1147.5,-1082 1147.5,-1014 1034.5,-1014"/>
<text text-anchor="start" x="1042.5" y="-1070" font-family="Helvetica,sans-Serif" font-size="10.00" fill="#000000">std::enable_shared</text>
<text text-anchor="middle" x="1091" y="-1059" font-family="Helvetica,sans-Serif" font-size="10.00" fill="#000000">_from_this&lt; Factory &gt;</text>
<polyline fill="none" stroke="#bfbfbf" points="1034.5,-1052 1147.5,-1052 "/>
<text text-anchor="middle" x="1091" y="-1040" font-family="Helvetica,sans-Serif" font-size="10.00" fill="#000000"> </text>
<polyline fill="none" stroke="#bfbfbf" points="1034.5,-1033 1147.5,-1033 "/>
<text text-anchor="middle" x="1091" y="-1021" font-family="Helvetica,sans-Serif" font-size="10.00" fill="#000000"> </text>
</g>
<!-- Node16&#45;&gt;Node14 -->
<g id="edge17" class="edge">
<title>Node16&#45;&gt;Node14</title>
<path fill="none" stroke="#191970" d="M1072.3783,-1004.3554C1064.0267,-984.7813 1053.9143,-961.0804 1044.328,-938.6125"/>
<polygon fill="none" stroke="#191970" points="1069.1831,-1005.7854 1076.3268,-1013.6096 1075.6215,-1003.0383 1069.1831,-1005.7854"/>
</g>
</g>
</svg>
        <g id="navigator" transform="translate(0 0)" fill="#404254">
                <rect fill="#f2f5e9" fill-opacity="0.5" stroke="#606060" stroke-width=".5" x="0" y="0" width="60" height="60"/>
                <use id="zoomplus" xlink:href="#zoomPlus" x="17" y="9" onmousedown="handleZoom(evt,'in')"/>
                <use id="zoomminus" xlink:href="#zoomMin" x="42" y="9" onmousedown="handleZoom(evt,'out')"/>
                <use id="reset" xlink:href="#resetDef" x="30" y="36" onmousedown="handleReset()"/>
                <g id="arrowUp" xlink:href="#dirArrow" transform="translate(30 24)" onmousedown="handlePan(0,-1)">
                  <use xlink:href="#rim" fill="#404040">
                        <set attributeName="fill" to="#808080" begin="arrowUp.mouseover" end="arrowUp.mouseout"/>
                  </use>
                  <path fill="none" stroke="white" stroke-width="1.5" d="M0,-3.0v7 M-2.5,-0.5L0,-3.0L2.5,-0.5"/>
                </g>
                <g id="arrowRight" xlink:href="#dirArrow" transform="rotate(90) translate(36 -43)" onmousedown="handlePan(1,0)">
                  <use xlink:href="#rim" fill="#404040">
                        <set attributeName="fill" to="#808080" begin="arrowRight.mouseover" end="arrowRight.mouseout"/>
                  </use>
                  <path fill="none" stroke="white" stroke-width="1.5" d="M0,-3.0v7 M-2.5,-0.5L0,-3.0L2.5,-0.5"/>
                </g>
                <g id="arrowDown" xlink:href="#dirArrow" transform="rotate(180) translate(-30 -48)" onmousedown="handlePan(0,1)">
                  <use xlink:href="#rim" fill="#404040">
                        <set attributeName="fill" to="#808080" begin="arrowDown.mouseover" end="arrowDown.mouseout"/>
                  </use>
                  <path fill="none" stroke="white" stroke-width="1.5" d="M0,-3.0v7 M-2.5,-0.5L0,-3.0L2.5,-0.5"/>
                </g>
                <g id="arrowLeft" xlink:href="#dirArrow" transform="rotate(270) translate(-36 17)" onmousedown="handlePan(-1,0)">
                  <use xlink:href="#rim" fill="#404040">
                        <set attributeName="fill" to="#808080" begin="arrowLeft.mouseover" end="arrowLeft.mouseout"/>
                  </use>
                  <path fill="none" stroke="white" stroke-width="1.5" d="M0,-3.0v7 M-2.5,-0.5L0,-3.0L2.5,-0.5"/>
                </g>
        </g>
        <svg viewBox="0 0 15 15" width="100%" height="30px" preserveAspectRatio="xMaxYMin meet">
         <g id="arrow_out" transform="scale(0.3 0.3)">
          <a xlink:href="classAsteroids_1_1Domain_1_1Game_1_1Game__coll__graph_org.svg" target="_base">
           <rect id="button" ry="5" rx="5" y="6" x="6" height="38" width="38"
                fill="#f2f5e9" fill-opacity="0.5" stroke="#606060" stroke-width="1.0"/>
           <path id="arrow"
             d="M 11.500037,31.436501 C 11.940474,20.09759 22.043105,11.32322 32.158766,21.979434 L 37.068811,17.246167 C 37.068811,17.246167 37.088388,32 37.088388,32 L 22.160133,31.978069 C 22.160133,31.978069 26.997745,27.140456 26.997745,27.140456 C 18.528582,18.264221 13.291696,25.230495 11.500037,31.436501 z"
             style="fill:#404040;"/>
          </a>
         </g>
        </svg>
</svg>
