<?xml version="1.0" encoding="UTF-8" standalone="no"?>
<!DOCTYPE svg PUBLIC "-//W3C//DTD SVG 1.1//EN"
 "http://www.w3.org/Graphics/SVG/1.1/DTD/svg11.dtd">
<!-- Generated by graphviz version 2.40.1 (20161225.0304)
 -->
<!-- Title: Asteroids::UI::ClientTextUI::ClientTextUI::draw_actor Pages: 1 -->
<svg width="832pt" height="50pt"
 viewBox="0.00 0.00 832.00 50.00" xmlns="http://www.w3.org/2000/svg" xmlns:xlink="http://www.w3.org/1999/xlink">
<g id="graph0" class="graph" transform="scale(1 1) rotate(0) translate(4 46)">
<title>Asteroids::UI::ClientTextUI::ClientTextUI::draw_actor</title>
<polygon fill="#ffffff" stroke="transparent" points="-4,4 -4,-46 828,-46 828,4 -4,4"/>
<!-- Node17 -->
<g id="node1" class="node">
<title>Node17</title>
<polygon fill="#bfbfbf" stroke="#000000" points="0,-6 0,-36 143,-36 143,-6 0,-6"/>
<text text-anchor="start" x="8" y="-24" font-family="Helvetica,sans-Serif" font-size="10.00" fill="#000000">Asteroids::UI::ClientText</text>
<text text-anchor="middle" x="71.5" y="-13" font-family="Helvetica,sans-Serif" font-size="10.00" fill="#000000">UI::ClientTextUI::draw_actor</text>
</g>
<!-- Node18 -->
<g id="node2" class="node">
<title>Node18</title>
<g id="a_node2"><a xlink:href="classAsteroids_1_1UI_1_1ClientTextUI_1_1ClientTextUI.html#a68028ff6a5b6d38321496c83ff872158" target="_top" xlink:title="Asteroids::UI::ClientText\lUI::ClientTextUI::draw_game">
<polygon fill="#ffffff" stroke="#000000" points="179,-6 179,-36 324,-36 324,-6 179,-6"/>
<text text-anchor="start" x="187" y="-24" font-family="Helvetica,sans-Serif" font-size="10.00" fill="#000000">Asteroids::UI::ClientText</text>
<text text-anchor="middle" x="251.5" y="-13" font-family="Helvetica,sans-Serif" font-size="10.00" fill="#000000">UI::ClientTextUI::draw_game</text>
</a>
</g>
</g>
<!-- Node17&#45;&gt;Node18 -->
<g id="edge1" class="edge">
<title>Node17&#45;&gt;Node18</title>
<path fill="none" stroke="#191970" d="M153.1692,-21C161.7532,-21 170.4393,-21 178.9113,-21"/>
<polygon fill="#191970" stroke="#191970" points="153.158,-17.5001 143.158,-21 153.1579,-24.5001 153.158,-17.5001"/>
</g>
<!-- Node19 -->
<g id="node3" class="node">
<title>Node19</title>
<g id="a_node3"><a xlink:href="classAsteroids_1_1UI_1_1ClientTextUI_1_1ClientTextUI.html#aa0cb16ae0f3edc7efed1ec8c5d7bf94d" target="_top" xlink:title="Asteroids::UI::ClientText\lUI::ClientTextUI::play_game">
<polygon fill="#ffffff" stroke="#000000" points="360,-6 360,-36 502,-36 502,-6 360,-6"/>
<text text-anchor="start" x="368" y="-24" font-family="Helvetica,sans-Serif" font-size="10.00" fill="#000000">Asteroids::UI::ClientText</text>
<text text-anchor="middle" x="431" y="-13" font-family="Helvetica,sans-Serif" font-size="10.00" fill="#000000">UI::ClientTextUI::play_game</text>
</a>
</g>
</g>
<!-- Node18&#45;&gt;Node19 -->
<g id="edge2" class="edge">
<title>Node18&#45;&gt;Node19</title>
<path fill="none" stroke="#191970" d="M334.5288,-21C343.0044,-21 351.5604,-21 359.8922,-21"/>
<polygon fill="#191970" stroke="#191970" points="334.2508,-17.5001 324.2508,-21 334.2507,-24.5001 334.2508,-17.5001"/>
</g>
<!-- Node20 -->
<g id="node4" class="node">
<title>Node20</title>
<g id="a_node4"><a xlink:href="classAsteroids_1_1UI_1_1ClientTextUI_1_1ClientTextUI.html#a67521714973f97f76618f9598d34d3b8" target="_top" xlink:title="Asteroids::UI::ClientText\lUI::ClientTextUI::main\l_menu_loop">
<polygon fill="#ffffff" stroke="#000000" points="538,-.5 538,-41.5 663,-41.5 663,-.5 538,-.5"/>
<text text-anchor="start" x="546" y="-29.5" font-family="Helvetica,sans-Serif" font-size="10.00" fill="#000000">Asteroids::UI::ClientText</text>
<text text-anchor="start" x="546" y="-18.5" font-family="Helvetica,sans-Serif" font-size="10.00" fill="#000000">UI::ClientTextUI::main</text>
<text text-anchor="middle" x="600.5" y="-7.5" font-family="Helvetica,sans-Serif" font-size="10.00" fill="#000000">_menu_loop</text>
</a>
</g>
</g>
<!-- Node19&#45;&gt;Node20 -->
<g id="edge3" class="edge">
<title>Node19&#45;&gt;Node20</title>
<path fill="none" stroke="#191970" d="M512.6573,-21C521.1082,-21 529.6002,-21 537.7965,-21"/>
<polygon fill="#191970" stroke="#191970" points="512.392,-17.5001 502.392,-21 512.392,-24.5001 512.392,-17.5001"/>
</g>
<!-- Node21 -->
<g id="node5" class="node">
<title>Node21</title>
<g id="a_node5"><a xlink:href="classAsteroids_1_1UI_1_1ClientTextUI_1_1ClientTextUI.html#a835f455a627e77a5ef99661350281ec3" target="_top" xlink:title="Begin the user interface. ">
<polygon fill="#ffffff" stroke="#000000" points="699,-6 699,-36 824,-36 824,-6 699,-6"/>
<text text-anchor="start" x="707" y="-24" font-family="Helvetica,sans-Serif" font-size="10.00" fill="#000000">Asteroids::UI::ClientText</text>
<text text-anchor="middle" x="761.5" y="-13" font-family="Helvetica,sans-Serif" font-size="10.00" fill="#000000">UI::ClientTextUI::run</text>
</a>
</g>
</g>
<!-- Node20&#45;&gt;Node21 -->
<g id="edge4" class="edge">
<title>Node20&#45;&gt;Node21</title>
<path fill="none" stroke="#191970" d="M673.2184,-21C681.8129,-21 690.5268,-21 698.9633,-21"/>
<polygon fill="#191970" stroke="#191970" points="673.2078,-17.5001 663.2078,-21 673.2078,-24.5001 673.2078,-17.5001"/>
</g>
</g>
</svg>
