<?xml version="1.0" encoding="UTF-8" standalone="no"?>
<!DOCTYPE svg PUBLIC "-//W3C//DTD SVG 1.1//EN"
 "http://www.w3.org/Graphics/SVG/1.1/DTD/svg11.dtd">
<!-- Generated by graphviz version 2.40.1 (20161225.0304)
 -->
<!-- Title: Asteroids::UI::ServerTextUI::ServerTextUI::run Pages: 1 -->
<svg width="695pt" height="220pt"
 viewBox="0.00 0.00 695.00 219.50" xmlns="http://www.w3.org/2000/svg" xmlns:xlink="http://www.w3.org/1999/xlink">
<g id="graph0" class="graph" transform="scale(1 1) rotate(0) translate(4 215.5)">
<title>Asteroids::UI::ServerTextUI::ServerTextUI::run</title>
<polygon fill="#ffffff" stroke="transparent" points="-4,4 -4,-215.5 691,-215.5 691,4 -4,4"/>
<!-- Node40 -->
<g id="node1" class="node">
<title>Node40</title>
<polygon fill="#bfbfbf" stroke="#000000" points="0,-85.5 0,-115.5 128,-115.5 128,-85.5 0,-85.5"/>
<text text-anchor="start" x="8" y="-103.5" font-family="Helvetica,sans-Serif" font-size="10.00" fill="#000000">Asteroids::UI::ServerText</text>
<text text-anchor="middle" x="64" y="-92.5" font-family="Helvetica,sans-Serif" font-size="10.00" fill="#000000">UI::ServerTextUI::run</text>
</g>
<!-- Node41 -->
<g id="node2" class="node">
<title>Node41</title>
<g id="a_node2"><a xlink:href="classAsteroids_1_1UI_1_1ServerTextUI_1_1ServerTextUI.html#aae7cc1a6a551fc4dbd5ac7270f1d3e94" target="_top" xlink:title="Asteroids::UI::ServerText\lUI::ServerTextUI::main\l_menu_loop">
<polygon fill="#ffffff" stroke="#000000" points="164,-80 164,-121 292,-121 292,-80 164,-80"/>
<text text-anchor="start" x="172" y="-109" font-family="Helvetica,sans-Serif" font-size="10.00" fill="#000000">Asteroids::UI::ServerText</text>
<text text-anchor="start" x="172" y="-98" font-family="Helvetica,sans-Serif" font-size="10.00" fill="#000000">UI::ServerTextUI::main</text>
<text text-anchor="middle" x="228" y="-87" font-family="Helvetica,sans-Serif" font-size="10.00" fill="#000000">_menu_loop</text>
</a>
</g>
</g>
<!-- Node40&#45;&gt;Node41 -->
<g id="edge1" class="edge">
<title>Node40&#45;&gt;Node41</title>
<path fill="none" stroke="#191970" d="M128.3464,-100.5C136.6401,-100.5 145.1868,-100.5 153.6248,-100.5"/>
<polygon fill="#191970" stroke="#191970" points="153.8392,-104.0001 163.8391,-100.5 153.8391,-97.0001 153.8392,-104.0001"/>
</g>
<!-- Node42 -->
<g id="node3" class="node">
<title>Node42</title>
<g id="a_node3"><a xlink:href="classAsteroids_1_1UI_1_1ServerTextUI_1_1ServerTextUI.html#a35d6eb54e2eabfff2cc1ee47a6c228c6" target="_top" xlink:title="Asteroids::UI::ServerText\lUI::ServerTextUI::do_apply\l_updates">
<polygon fill="#ffffff" stroke="#000000" points="333.5,-170 333.5,-211 470.5,-211 470.5,-170 333.5,-170"/>
<text text-anchor="start" x="341.5" y="-199" font-family="Helvetica,sans-Serif" font-size="10.00" fill="#000000">Asteroids::UI::ServerText</text>
<text text-anchor="start" x="341.5" y="-188" font-family="Helvetica,sans-Serif" font-size="10.00" fill="#000000">UI::ServerTextUI::do_apply</text>
<text text-anchor="middle" x="402" y="-177" font-family="Helvetica,sans-Serif" font-size="10.00" fill="#000000">_updates</text>
</a>
</g>
</g>
<!-- Node41&#45;&gt;Node42 -->
<g id="edge2" class="edge">
<title>Node41&#45;&gt;Node42</title>
<path fill="none" stroke="#191970" d="M259.7121,-121.2573C279.029,-133.4606 304.4483,-148.7494 328,-160.5 331.5276,-162.26 335.1845,-163.9992 338.8987,-165.7004"/>
<polygon fill="#191970" stroke="#191970" points="337.6482,-168.9748 348.2075,-169.8414 340.4933,-162.579 337.6482,-168.9748"/>
</g>
<!-- Node43 -->
<g id="node4" class="node">
<title>Node43</title>
<g id="a_node4"><a xlink:href="classAsteroids_1_1UI_1_1ServerTextUI_1_1ServerTextUI.html#a6713eb173fef32a2fc96932b96ce2dea" target="_top" xlink:title="Asteroids::UI::ServerText\lUI::ServerTextUI::do_process\l_credit_card_payment">
<polygon fill="#ffffff" stroke="#000000" points="328,-110 328,-151 476,-151 476,-110 328,-110"/>
<text text-anchor="start" x="336" y="-139" font-family="Helvetica,sans-Serif" font-size="10.00" fill="#000000">Asteroids::UI::ServerText</text>
<text text-anchor="start" x="336" y="-128" font-family="Helvetica,sans-Serif" font-size="10.00" fill="#000000">UI::ServerTextUI::do_process</text>
<text text-anchor="middle" x="402" y="-117" font-family="Helvetica,sans-Serif" font-size="10.00" fill="#000000">_credit_card_payment</text>
</a>
</g>
</g>
<!-- Node41&#45;&gt;Node43 -->
<g id="edge3" class="edge">
<title>Node41&#45;&gt;Node43</title>
<path fill="none" stroke="#191970" d="M292.2968,-111.5857C300.6466,-113.0253 309.2963,-114.5166 317.908,-116.0014"/>
<polygon fill="#191970" stroke="#191970" points="317.5304,-119.4878 327.9797,-117.7379 318.7198,-112.5896 317.5304,-119.4878"/>
</g>
<!-- Node46 -->
<g id="node7" class="node">
<title>Node46</title>
<g id="a_node7"><a xlink:href="classAsteroids_1_1UI_1_1ServerTextUI_1_1ServerTextUI.html#a5518087c5d0ab9fd8c24c1b6948ee11b" target="_top" xlink:title="Asteroids::UI::ServerText\lUI::ServerTextUI::do_review\l_flagged_users">
<polygon fill="#ffffff" stroke="#000000" points="331,-50 331,-91 473,-91 473,-50 331,-50"/>
<text text-anchor="start" x="339" y="-79" font-family="Helvetica,sans-Serif" font-size="10.00" fill="#000000">Asteroids::UI::ServerText</text>
<text text-anchor="start" x="339" y="-68" font-family="Helvetica,sans-Serif" font-size="10.00" fill="#000000">UI::ServerTextUI::do_review</text>
<text text-anchor="middle" x="402" y="-57" font-family="Helvetica,sans-Serif" font-size="10.00" fill="#000000">_flagged_users</text>
</a>
</g>
</g>
<!-- Node41&#45;&gt;Node46 -->
<g id="edge6" class="edge">
<title>Node41&#45;&gt;Node46</title>
<path fill="none" stroke="#191970" d="M292.2968,-89.4143C301.6374,-87.8039 311.3533,-86.1287 320.9714,-84.4704"/>
<polygon fill="#191970" stroke="#191970" points="321.6794,-87.9001 330.9393,-82.7518 320.49,-81.0019 321.6794,-87.9001"/>
</g>
<!-- Node48 -->
<g id="node9" class="node">
<title>Node48</title>
<g id="a_node9"><a xlink:href="classAsteroids_1_1UI_1_1ServerTextUI_1_1ServerTextUI.html#afc4ba344c4244c2650ade2148e08d5f2" target="_top" xlink:title="Asteroids::UI::ServerText\lUI::ServerTextUI::main_menu">
<polygon fill="#ffffff" stroke="#000000" points="328,-.5 328,-30.5 476,-30.5 476,-.5 328,-.5"/>
<text text-anchor="start" x="336" y="-18.5" font-family="Helvetica,sans-Serif" font-size="10.00" fill="#000000">Asteroids::UI::ServerText</text>
<text text-anchor="middle" x="402" y="-7.5" font-family="Helvetica,sans-Serif" font-size="10.00" fill="#000000">UI::ServerTextUI::main_menu</text>
</a>
</g>
</g>
<!-- Node41&#45;&gt;Node48 -->
<g id="edge8" class="edge">
<title>Node41&#45;&gt;Node48</title>
<path fill="none" stroke="#191970" d="M258.5832,-79.8006C277.9136,-67.3181 303.7425,-51.7164 328,-40.5 332.7253,-38.3151 337.6975,-36.2232 342.7364,-34.2457"/>
<polygon fill="#191970" stroke="#191970" points="344.3327,-37.3848 352.4611,-30.5893 341.8691,-30.8326 344.3327,-37.3848"/>
</g>
<!-- Node44 -->
<g id="node5" class="node">
<title>Node44</title>
<g id="a_node5"><a xlink:href="classAsteroids_1_1TechnicalServices_1_1Financial_1_1CreditCardProcessorInterface.html#a605de1c4a264b4f9ae94ed13dd5fe1c0" target="_top" xlink:title="Asteroids::TechnicalServices\l::Financial::CreditCardProcessor\lInterface::authorizePayment">
<polygon fill="#ffffff" stroke="#000000" points="520,-170 520,-211 679,-211 679,-170 520,-170"/>
<text text-anchor="start" x="528" y="-199" font-family="Helvetica,sans-Serif" font-size="10.00" fill="#000000">Asteroids::TechnicalServices</text>
<text text-anchor="start" x="528" y="-188" font-family="Helvetica,sans-Serif" font-size="10.00" fill="#000000">::Financial::CreditCardProcessor</text>
<text text-anchor="middle" x="599.5" y="-177" font-family="Helvetica,sans-Serif" font-size="10.00" fill="#000000">Interface::authorizePayment</text>
</a>
</g>
</g>
<!-- Node43&#45;&gt;Node44 -->
<g id="edge4" class="edge">
<title>Node43&#45;&gt;Node44</title>
<path fill="none" stroke="#191970" d="M469.692,-151.0647C486.494,-156.1691 504.6316,-161.6792 521.8686,-166.9158"/>
<polygon fill="#191970" stroke="#191970" points="521.3109,-170.4042 531.8965,-169.9622 523.3457,-163.7065 521.3109,-170.4042"/>
</g>
<!-- Node45 -->
<g id="node6" class="node">
<title>Node45</title>
<g id="a_node6"><a xlink:href="classAsteroids_1_1TechnicalServices_1_1Financial_1_1CreditCardProcessorInterface.html#a8dcf97d20a9de55d04e0f84b4a788f78" target="_top" xlink:title="Asteroids::TechnicalServices\l::Financial::CreditCardProcessor\lInterface::get_processor_description">
<polygon fill="#ffffff" stroke="#000000" points="512,-110 512,-151 687,-151 687,-110 512,-110"/>
<text text-anchor="start" x="520" y="-139" font-family="Helvetica,sans-Serif" font-size="10.00" fill="#000000">Asteroids::TechnicalServices</text>
<text text-anchor="start" x="520" y="-128" font-family="Helvetica,sans-Serif" font-size="10.00" fill="#000000">::Financial::CreditCardProcessor</text>
<text text-anchor="middle" x="599.5" y="-117" font-family="Helvetica,sans-Serif" font-size="10.00" fill="#000000">Interface::get_processor_description</text>
</a>
</g>
</g>
<!-- Node43&#45;&gt;Node45 -->
<g id="edge5" class="edge">
<title>Node43&#45;&gt;Node45</title>
<path fill="none" stroke="#191970" d="M476.1036,-130.5C484.4428,-130.5 493.0325,-130.5 501.6135,-130.5"/>
<polygon fill="#191970" stroke="#191970" points="501.6673,-134.0001 511.6673,-130.5 501.6672,-127.0001 501.6673,-134.0001"/>
</g>
<!-- Node47 -->
<g id="node8" class="node">
<title>Node47</title>
<g id="a_node8"><a xlink:href="classAsteroids_1_1UI_1_1ServerTextUI_1_1ServerTextUI.html#af85d5a35efcb8c75fe7b5419da0d6f93" target="_top" xlink:title="Asteroids::UI::ServerText\lUI::ServerTextUI::do_review\l_flagged_user">
<polygon fill="#ffffff" stroke="#000000" points="528.5,-50 528.5,-91 670.5,-91 670.5,-50 528.5,-50"/>
<text text-anchor="start" x="536.5" y="-79" font-family="Helvetica,sans-Serif" font-size="10.00" fill="#000000">Asteroids::UI::ServerText</text>
<text text-anchor="start" x="536.5" y="-68" font-family="Helvetica,sans-Serif" font-size="10.00" fill="#000000">UI::ServerTextUI::do_review</text>
<text text-anchor="middle" x="599.5" y="-57" font-family="Helvetica,sans-Serif" font-size="10.00" fill="#000000">_flagged_user</text>
</a>
</g>
</g>
<!-- Node46&#45;&gt;Node47 -->
<g id="edge7" class="edge">
<title>Node46&#45;&gt;Node47</title>
<path fill="none" stroke="#191970" d="M473.023,-70.5C487.6691,-70.5 503.2006,-70.5 518.1796,-70.5"/>
<polygon fill="#191970" stroke="#191970" points="518.4438,-74.0001 528.4438,-70.5 518.4437,-67.0001 518.4438,-74.0001"/>
</g>
</g>
</svg>
