<?xml version="1.0" encoding="UTF-8" standalone="no"?>
<!DOCTYPE svg PUBLIC "-//W3C//DTD SVG 1.1//EN"
 "http://www.w3.org/Graphics/SVG/1.1/DTD/svg11.dtd">
<!-- Generated by graphviz version 2.40.1 (20161225.0304)
 -->
<!-- Title: Asteroids::TechnicalServices::Financial::CreditCardProcessorInterface::get_processor_description Pages: 1 -->
<svg width="695pt" height="50pt"
 viewBox="0.00 0.00 695.00 50.00" xmlns="http://www.w3.org/2000/svg" xmlns:xlink="http://www.w3.org/1999/xlink">
<g id="graph0" class="graph" transform="scale(1 1) rotate(0) translate(4 46)">
<title>Asteroids::TechnicalServices::Financial::CreditCardProcessorInterface::get_processor_description</title>
<polygon fill="#ffffff" stroke="transparent" points="-4,4 -4,-46 691,-46 691,4 -4,4"/>
<!-- Node6 -->
<g id="node1" class="node">
<title>Node6</title>
<polygon fill="#bfbfbf" stroke="#000000" points="0,-.5 0,-41.5 175,-41.5 175,-.5 0,-.5"/>
<text text-anchor="start" x="8" y="-29.5" font-family="Helvetica,sans-Serif" font-size="10.00" fill="#000000">Asteroids::TechnicalServices</text>
<text text-anchor="start" x="8" y="-18.5" font-family="Helvetica,sans-Serif" font-size="10.00" fill="#000000">::Financial::CreditCardProcessor</text>
<text text-anchor="middle" x="87.5" y="-7.5" font-family="Helvetica,sans-Serif" font-size="10.00" fill="#000000">Interface::get_processor_description</text>
</g>
<!-- Node7 -->
<g id="node2" class="node">
<title>Node7</title>
<g id="a_node2"><a xlink:href="classAsteroids_1_1UI_1_1ServerTextUI_1_1ServerTextUI.html#a6713eb173fef32a2fc96932b96ce2dea" target="_top" xlink:title="Asteroids::UI::ServerText\lUI::ServerTextUI::do_process\l_credit_card_payment">
<polygon fill="#ffffff" stroke="#000000" points="211,-.5 211,-41.5 359,-41.5 359,-.5 211,-.5"/>
<text text-anchor="start" x="219" y="-29.5" font-family="Helvetica,sans-Serif" font-size="10.00" fill="#000000">Asteroids::UI::ServerText</text>
<text text-anchor="start" x="219" y="-18.5" font-family="Helvetica,sans-Serif" font-size="10.00" fill="#000000">UI::ServerTextUI::do_process</text>
<text text-anchor="middle" x="285" y="-7.5" font-family="Helvetica,sans-Serif" font-size="10.00" fill="#000000">_credit_card_payment</text>
</a>
</g>
</g>
<!-- Node6&#45;&gt;Node7 -->
<g id="edge1" class="edge">
<title>Node6&#45;&gt;Node7</title>
<path fill="none" stroke="#191970" d="M185.3081,-21C193.8704,-21 202.4421,-21 210.7657,-21"/>
<polygon fill="#191970" stroke="#191970" points="185.2766,-17.5001 175.2765,-21 185.2765,-24.5001 185.2766,-17.5001"/>
</g>
<!-- Node8 -->
<g id="node3" class="node">
<title>Node8</title>
<g id="a_node3"><a xlink:href="classAsteroids_1_1UI_1_1ServerTextUI_1_1ServerTextUI.html#aae7cc1a6a551fc4dbd5ac7270f1d3e94" target="_top" xlink:title="Asteroids::UI::ServerText\lUI::ServerTextUI::main\l_menu_loop">
<polygon fill="#ffffff" stroke="#000000" points="395,-.5 395,-41.5 523,-41.5 523,-.5 395,-.5"/>
<text text-anchor="start" x="403" y="-29.5" font-family="Helvetica,sans-Serif" font-size="10.00" fill="#000000">Asteroids::UI::ServerText</text>
<text text-anchor="start" x="403" y="-18.5" font-family="Helvetica,sans-Serif" font-size="10.00" fill="#000000">UI::ServerTextUI::main</text>
<text text-anchor="middle" x="459" y="-7.5" font-family="Helvetica,sans-Serif" font-size="10.00" fill="#000000">_menu_loop</text>
</a>
</g>
</g>
<!-- Node7&#45;&gt;Node8 -->
<g id="edge2" class="edge">
<title>Node7&#45;&gt;Node8</title>
<path fill="none" stroke="#191970" d="M369.17,-21C377.8281,-21 386.5236,-21 394.913,-21"/>
<polygon fill="#191970" stroke="#191970" points="369.044,-17.5001 359.044,-21 369.0439,-24.5001 369.044,-17.5001"/>
</g>
<!-- Node9 -->
<g id="node4" class="node">
<title>Node9</title>
<g id="a_node4"><a xlink:href="classAsteroids_1_1UI_1_1ServerTextUI_1_1ServerTextUI.html#a92fb489434b5bd2a9e91f5d77c9832ac" target="_top" xlink:title="Asteroids::UI::ServerText\lUI::ServerTextUI::run">
<polygon fill="#ffffff" stroke="#000000" points="559,-6 559,-36 687,-36 687,-6 559,-6"/>
<text text-anchor="start" x="567" y="-24" font-family="Helvetica,sans-Serif" font-size="10.00" fill="#000000">Asteroids::UI::ServerText</text>
<text text-anchor="middle" x="623" y="-13" font-family="Helvetica,sans-Serif" font-size="10.00" fill="#000000">UI::ServerTextUI::run</text>
</a>
</g>
</g>
<!-- Node8&#45;&gt;Node9 -->
<g id="edge3" class="edge">
<title>Node8&#45;&gt;Node9</title>
<path fill="none" stroke="#191970" d="M533.5641,-21C542.0037,-21 550.5492,-21 558.8391,-21"/>
<polygon fill="#191970" stroke="#191970" points="533.3465,-17.5001 523.3464,-21 533.3464,-24.5001 533.3465,-17.5001"/>
</g>
</g>
</svg>
