<?xml version="1.0" encoding="UTF-8" standalone="no"?>
<!DOCTYPE svg PUBLIC "-//W3C//DTD SVG 1.1//EN"
 "http://www.w3.org/Graphics/SVG/1.1/DTD/svg11.dtd">
<!-- Generated by graphviz version 2.40.1 (20161225.0304)
 -->
<!-- Title: Asteroids::Domain::Game::GAME_HISTORY_ENTRY::GAME_HISTORY_ENTRY Pages: 1 -->
<svg width="584pt" height="110pt"
 viewBox="0.00 0.00 584.00 110.00" xmlns="http://www.w3.org/2000/svg" xmlns:xlink="http://www.w3.org/1999/xlink">
<g id="graph0" class="graph" transform="scale(1 1) rotate(0) translate(4 106)">
<title>Asteroids::Domain::Game::GAME_HISTORY_ENTRY::GAME_HISTORY_ENTRY</title>
<polygon fill="#ffffff" stroke="transparent" points="-4,4 -4,-106 580,-106 580,4 -4,4"/>
<!-- Node0 -->
<g id="node1" class="node">
<title>Node0</title>
<polygon fill="#bfbfbf" stroke="#000000" points="0,-30.5 0,-71.5 168,-71.5 168,-30.5 0,-30.5"/>
<text text-anchor="start" x="8" y="-59.5" font-family="Helvetica,sans-Serif" font-size="10.00" fill="#000000">Asteroids::Domain::</text>
<text text-anchor="start" x="8" y="-48.5" font-family="Helvetica,sans-Serif" font-size="10.00" fill="#000000">Game::GAME_HISTORY_ENTRY</text>
<text text-anchor="middle" x="84" y="-37.5" font-family="Helvetica,sans-Serif" font-size="10.00" fill="#000000">::GAME_HISTORY_ENTRY</text>
</g>
<!-- Node1 -->
<g id="node2" class="node">
<title>Node1</title>
<g id="a_node2"><a xlink:href="classAsteroids_1_1Domain_1_1Game_1_1GAME__HISTORY__ENTRY.html#a022471c5c4f1a5d7a3f18f0f6866c9a8" target="_top" xlink:title="Asteroids::Domain::\lGame::GAME_HISTORY_ENTRY\l::reset">
<polygon fill="#ffffff" stroke="#000000" points="204,-30.5 204,-71.5 372,-71.5 372,-30.5 204,-30.5"/>
<text text-anchor="start" x="212" y="-59.5" font-family="Helvetica,sans-Serif" font-size="10.00" fill="#000000">Asteroids::Domain::</text>
<text text-anchor="start" x="212" y="-48.5" font-family="Helvetica,sans-Serif" font-size="10.00" fill="#000000">Game::GAME_HISTORY_ENTRY</text>
<text text-anchor="middle" x="288" y="-37.5" font-family="Helvetica,sans-Serif" font-size="10.00" fill="#000000">::reset</text>
</a>
</g>
</g>
<!-- Node0&#45;&gt;Node1 -->
<g id="edge1" class="edge">
<title>Node0&#45;&gt;Node1</title>
<path fill="none" stroke="#191970" d="M168.1524,-51C176.5014,-51 185.0151,-51 193.4602,-51"/>
<polygon fill="#191970" stroke="#191970" points="193.7118,-54.5001 203.7117,-51 193.7117,-47.5001 193.7118,-54.5001"/>
</g>
<!-- Node2 -->
<g id="node3" class="node">
<title>Node2</title>
<g id="a_node3"><a xlink:href="classAsteroids_1_1Domain_1_1Game_1_1GAME__HISTORY__ENTRY.html#adb0e9c9f31373615343821a552366b37" target="_top" xlink:title="Asteroids::Domain::\lGame::GAME_HISTORY_ENTRY\l::set_date">
<polygon fill="#ffffff" stroke="#000000" points="408,-60.5 408,-101.5 576,-101.5 576,-60.5 408,-60.5"/>
<text text-anchor="start" x="416" y="-89.5" font-family="Helvetica,sans-Serif" font-size="10.00" fill="#000000">Asteroids::Domain::</text>
<text text-anchor="start" x="416" y="-78.5" font-family="Helvetica,sans-Serif" font-size="10.00" fill="#000000">Game::GAME_HISTORY_ENTRY</text>
<text text-anchor="middle" x="492" y="-67.5" font-family="Helvetica,sans-Serif" font-size="10.00" fill="#000000">::set_date</text>
</a>
</g>
</g>
<!-- Node1&#45;&gt;Node2 -->
<g id="edge2" class="edge">
<title>Node1&#45;&gt;Node2</title>
<path fill="none" stroke="#191970" d="M372.1524,-63.3754C380.5932,-64.6166 389.2022,-65.8827 397.7386,-67.138"/>
<polygon fill="#191970" stroke="#191970" points="397.3089,-70.6124 407.7117,-68.6047 398.3274,-63.6869 397.3089,-70.6124"/>
</g>
<!-- Node3 -->
<g id="node4" class="node">
<title>Node3</title>
<g id="a_node4"><a xlink:href="classAsteroids_1_1Domain_1_1Game_1_1GAME__HISTORY__ENTRY.html#a156c3017d2c591e7eaef0522a7e5249d" target="_top" xlink:title="Asteroids::Domain::\lGame::GAME_HISTORY_ENTRY\l::set_score">
<polygon fill="#ffffff" stroke="#000000" points="408,-.5 408,-41.5 576,-41.5 576,-.5 408,-.5"/>
<text text-anchor="start" x="416" y="-29.5" font-family="Helvetica,sans-Serif" font-size="10.00" fill="#000000">Asteroids::Domain::</text>
<text text-anchor="start" x="416" y="-18.5" font-family="Helvetica,sans-Serif" font-size="10.00" fill="#000000">Game::GAME_HISTORY_ENTRY</text>
<text text-anchor="middle" x="492" y="-7.5" font-family="Helvetica,sans-Serif" font-size="10.00" fill="#000000">::set_score</text>
</a>
</g>
</g>
<!-- Node1&#45;&gt;Node3 -->
<g id="edge3" class="edge">
<title>Node1&#45;&gt;Node3</title>
<path fill="none" stroke="#191970" d="M372.1524,-38.6246C380.5932,-37.3834 389.2022,-36.1173 397.7386,-34.862"/>
<polygon fill="#191970" stroke="#191970" points="398.3274,-38.3131 407.7117,-33.3953 397.3089,-31.3876 398.3274,-38.3131"/>
</g>
</g>
</svg>
