<?xml version="1.0" encoding="UTF-8" standalone="no"?>
<!DOCTYPE svg PUBLIC "-//W3C//DTD SVG 1.1//EN"
 "http://www.w3.org/Graphics/SVG/1.1/DTD/svg11.dtd">
<!-- Generated by graphviz version 2.40.1 (20161225.0304)
 -->
<!-- Title: Asteroids::Domain::Game::Actors::Vector::update Pages: 1 -->
<svg width="268pt" height="110pt"
 viewBox="0.00 0.00 268.00 110.00" xmlns="http://www.w3.org/2000/svg" xmlns:xlink="http://www.w3.org/1999/xlink">
<g id="graph0" class="graph" transform="scale(1 1) rotate(0) translate(4 106)">
<title>Asteroids::Domain::Game::Actors::Vector::update</title>
<polygon fill="#ffffff" stroke="transparent" points="-4,4 -4,-106 264,-106 264,4 -4,4"/>
<!-- Node35 -->
<g id="node1" class="node">
<title>Node35</title>
<polygon fill="#bfbfbf" stroke="#000000" points="0,-30.5 0,-71.5 112,-71.5 112,-30.5 0,-30.5"/>
<text text-anchor="start" x="8" y="-59.5" font-family="Helvetica,sans-Serif" font-size="10.00" fill="#000000">Asteroids::Domain::</text>
<text text-anchor="start" x="8" y="-48.5" font-family="Helvetica,sans-Serif" font-size="10.00" fill="#000000">Game::Actors::Vector</text>
<text text-anchor="middle" x="56" y="-37.5" font-family="Helvetica,sans-Serif" font-size="10.00" fill="#000000">::update</text>
</g>
<!-- Node36 -->
<g id="node2" class="node">
<title>Node36</title>
<g id="a_node2"><a xlink:href="classAsteroids_1_1Domain_1_1Game_1_1Actors_1_1Vector.html#a1191bc524d82418f4f7ebbf782374b65" target="_top" xlink:title="Asteroids::Domain::\lGame::Actors::Vector\l::apply_limits">
<polygon fill="#ffffff" stroke="#000000" points="148,-60.5 148,-101.5 260,-101.5 260,-60.5 148,-60.5"/>
<text text-anchor="start" x="156" y="-89.5" font-family="Helvetica,sans-Serif" font-size="10.00" fill="#000000">Asteroids::Domain::</text>
<text text-anchor="start" x="156" y="-78.5" font-family="Helvetica,sans-Serif" font-size="10.00" fill="#000000">Game::Actors::Vector</text>
<text text-anchor="middle" x="204" y="-67.5" font-family="Helvetica,sans-Serif" font-size="10.00" fill="#000000">::apply_limits</text>
</a>
</g>
</g>
<!-- Node35&#45;&gt;Node36 -->
<g id="edge1" class="edge">
<title>Node35&#45;&gt;Node36</title>
<path fill="none" stroke="#191970" d="M112.3747,-62.4273C120.712,-64.1173 129.3663,-65.8716 137.8799,-67.5973"/>
<polygon fill="#191970" stroke="#191970" points="137.2861,-71.048 147.7821,-69.6045 138.6768,-64.1875 137.2861,-71.048"/>
</g>
<!-- Node37 -->
<g id="node3" class="node">
<title>Node37</title>
<g id="a_node3"><a xlink:href="classAsteroids_1_1Domain_1_1Game_1_1Actors_1_1Vector.html#a7432d5e9efef0bbf2d64a53c410e2855" target="_top" xlink:title="Asteroids::Domain::\lGame::Actors::Vector\l::dampen">
<polygon fill="#ffffff" stroke="#000000" points="148,-.5 148,-41.5 260,-41.5 260,-.5 148,-.5"/>
<text text-anchor="start" x="156" y="-29.5" font-family="Helvetica,sans-Serif" font-size="10.00" fill="#000000">Asteroids::Domain::</text>
<text text-anchor="start" x="156" y="-18.5" font-family="Helvetica,sans-Serif" font-size="10.00" fill="#000000">Game::Actors::Vector</text>
<text text-anchor="middle" x="204" y="-7.5" font-family="Helvetica,sans-Serif" font-size="10.00" fill="#000000">::dampen</text>
</a>
</g>
</g>
<!-- Node35&#45;&gt;Node37 -->
<g id="edge2" class="edge">
<title>Node35&#45;&gt;Node37</title>
<path fill="none" stroke="#191970" d="M112.3747,-39.5727C120.712,-37.8827 129.3663,-36.1284 137.8799,-34.4027"/>
<polygon fill="#191970" stroke="#191970" points="138.6768,-37.8125 147.7821,-32.3955 137.2861,-30.952 138.6768,-37.8125"/>
</g>
</g>
</svg>
