<?xml version="1.0" encoding="UTF-8" standalone="no"?>
<!DOCTYPE svg PUBLIC "-//W3C//DTD SVG 1.1//EN"
 "http://www.w3.org/Graphics/SVG/1.1/DTD/svg11.dtd">
<!-- Generated by graphviz version 2.40.1 (20161225.0304)
 -->
<!-- Title: Asteroids::Domain::Game::Game::get_current_timestamp_ticks Pages: 1 -->
<svg width="599pt" height="74pt"
 viewBox="0.00 0.00 599.00 74.00" xmlns="http://www.w3.org/2000/svg" xmlns:xlink="http://www.w3.org/1999/xlink">
<g id="graph0" class="graph" transform="scale(1 1) rotate(0) translate(4 70)">
<title>Asteroids::Domain::Game::Game::get_current_timestamp_ticks</title>
<polygon fill="#ffffff" stroke="transparent" points="-4,4 -4,-70 595,-70 595,4 -4,4"/>
<!-- Node18 -->
<g id="node1" class="node">
<title>Node18</title>
<polygon fill="#bfbfbf" stroke="#000000" points="0,-24.5 0,-65.5 130,-65.5 130,-24.5 0,-24.5"/>
<text text-anchor="start" x="8" y="-53.5" font-family="Helvetica,sans-Serif" font-size="10.00" fill="#000000">Asteroids::Domain::</text>
<text text-anchor="start" x="8" y="-42.5" font-family="Helvetica,sans-Serif" font-size="10.00" fill="#000000">Game::Game::get_current</text>
<text text-anchor="middle" x="65" y="-31.5" font-family="Helvetica,sans-Serif" font-size="10.00" fill="#000000">_timestamp_ticks</text>
</g>
<!-- Node19 -->
<g id="node2" class="node">
<title>Node19</title>
<g id="a_node2"><a xlink:href="classAsteroids_1_1Domain_1_1Game_1_1Game.html#af8a67c4af1521c3184e873f79aad17f3" target="_top" xlink:title="Asteroids::Domain::\lGame::Game::calculate\l_ticks_since_last_update">
<polygon fill="#ffffff" stroke="#000000" points="166,-24.5 166,-65.5 293,-65.5 293,-24.5 166,-24.5"/>
<text text-anchor="start" x="174" y="-53.5" font-family="Helvetica,sans-Serif" font-size="10.00" fill="#000000">Asteroids::Domain::</text>
<text text-anchor="start" x="174" y="-42.5" font-family="Helvetica,sans-Serif" font-size="10.00" fill="#000000">Game::Game::calculate</text>
<text text-anchor="middle" x="229.5" y="-31.5" font-family="Helvetica,sans-Serif" font-size="10.00" fill="#000000">_ticks_since_last_update</text>
</a>
</g>
</g>
<!-- Node18&#45;&gt;Node19 -->
<g id="edge1" class="edge">
<title>Node18&#45;&gt;Node19</title>
<path fill="none" stroke="#191970" d="M140.0352,-45C148.6321,-45 157.3348,-45 165.7639,-45"/>
<polygon fill="#191970" stroke="#191970" points="140.0148,-41.5001 130.0148,-45 140.0147,-48.5001 140.0148,-41.5001"/>
</g>
<!-- Node20 -->
<g id="node3" class="node">
<title>Node20</title>
<g id="a_node3"><a xlink:href="classAsteroids_1_1Domain_1_1Game_1_1Game.html#aa63114be578393b0113f116798346ac4" target="_top" xlink:title="Asteroids::Domain::\lGame::Game::update">
<polygon fill="#ffffff" stroke="#000000" points="481,-30 481,-60 591,-60 591,-30 481,-30"/>
<text text-anchor="start" x="489" y="-48" font-family="Helvetica,sans-Serif" font-size="10.00" fill="#000000">Asteroids::Domain::</text>
<text text-anchor="middle" x="536" y="-37" font-family="Helvetica,sans-Serif" font-size="10.00" fill="#000000">Game::Game::update</text>
</a>
</g>
</g>
<!-- Node19&#45;&gt;Node20 -->
<g id="edge2" class="edge">
<title>Node19&#45;&gt;Node20</title>
<path fill="none" stroke="#191970" d="M303.2895,-49.9467C311.9531,-50.3802 320.67,-50.7491 329,-51 380.5322,-52.5523 393.4724,-52.6969 445,-51 456.5518,-50.6196 468.915,-49.9682 480.6876,-49.2314"/>
<polygon fill="#191970" stroke="#191970" points="303.3412,-46.4447 293.1702,-49.4113 302.9713,-53.4349 303.3412,-46.4447"/>
</g>
<!-- Node21 -->
<g id="node4" class="node">
<title>Node21</title>
<g id="a_node4"><a xlink:href="classAsteroids_1_1Domain_1_1Game_1_1Game.html#ab586cddf7972dbb9313ad3b241b550b4" target="_top" xlink:title="Implement GameInterface methods. ">
<polygon fill="#ffffff" stroke="#000000" points="329,-.5 329,-41.5 445,-41.5 445,-.5 329,-.5"/>
<text text-anchor="start" x="337" y="-29.5" font-family="Helvetica,sans-Serif" font-size="10.00" fill="#000000">Asteroids::Domain::</text>
<text text-anchor="start" x="337" y="-18.5" font-family="Helvetica,sans-Serif" font-size="10.00" fill="#000000">Game::Game::wait_for</text>
<text text-anchor="middle" x="387" y="-7.5" font-family="Helvetica,sans-Serif" font-size="10.00" fill="#000000">_frames_per_second</text>
</a>
</g>
</g>
<!-- Node19&#45;&gt;Node21 -->
<g id="edge3" class="edge">
<title>Node19&#45;&gt;Node21</title>
<path fill="none" stroke="#191970" d="M303.135,-33.7794C311.7301,-32.4697 320.4067,-31.1475 328.7531,-29.8757"/>
<polygon fill="#191970" stroke="#191970" points="302.4659,-30.3409 293.1073,-35.3075 303.5205,-37.261 302.4659,-30.3409"/>
</g>
<!-- Node21&#45;&gt;Node20 -->
<g id="edge4" class="edge">
<title>Node21&#45;&gt;Node20</title>
<path fill="none" stroke="#191970" d="M455.071,-31.9644C463.69,-33.3528 472.4247,-34.7597 480.809,-36.1102"/>
<polygon fill="#191970" stroke="#191970" points="455.4633,-28.4826 445.0339,-30.3477 454.3501,-35.3935 455.4633,-28.4826"/>
</g>
</g>
</svg>
