<?xml version="1.0" encoding="UTF-8" standalone="no"?>
<!DOCTYPE svg PUBLIC "-//W3C//DTD SVG 1.1//EN"
 "http://www.w3.org/Graphics/SVG/1.1/DTD/svg11.dtd">
<!-- Generated by graphviz version 2.40.1 (20161225.0304)
 -->
<!-- Title: Asteroids::TechnicalServices::Persistence::Databaser Pages: 1 -->
<svg width="172pt" height="237pt"
 viewBox="0.00 0.00 172.00 237.00" xmlns="http://www.w3.org/2000/svg" xmlns:xlink="http://www.w3.org/1999/xlink">
<g id="graph0" class="graph" transform="scale(1 1) rotate(0) translate(4 233)">
<title>Asteroids::TechnicalServices::Persistence::Databaser</title>
<polygon fill="#ffffff" stroke="transparent" points="-4,4 -4,-233 168,-233 168,4 -4,4"/>
<!-- Node0 -->
<g id="node1" class="node">
<title>Node0</title>
<polygon fill="#bfbfbf" stroke="#000000" points="10,-.5 10,-101.5 154,-101.5 154,-.5 10,-.5"/>
<text text-anchor="start" x="18" y="-89.5" font-family="Helvetica,sans-Serif" font-size="10.00" fill="#000000">Asteroids::TechnicalServices</text>
<text text-anchor="middle" x="82" y="-78.5" font-family="Helvetica,sans-Serif" font-size="10.00" fill="#000000">::Persistence::Databaser</text>
<polyline fill="none" stroke="#000000" points="10,-71.5 154,-71.5 "/>
<text text-anchor="middle" x="82" y="-59.5" font-family="Helvetica,sans-Serif" font-size="10.00" fill="#000000"> </text>
<polyline fill="none" stroke="#000000" points="10,-52.5 154,-52.5 "/>
<text text-anchor="start" x="18" y="-40.5" font-family="Helvetica,sans-Serif" font-size="10.00" fill="#000000">+ Databaser()</text>
<text text-anchor="start" x="18" y="-29.5" font-family="Helvetica,sans-Serif" font-size="10.00" fill="#000000">+ close()</text>
<text text-anchor="start" x="18" y="-18.5" font-family="Helvetica,sans-Serif" font-size="10.00" fill="#000000">+ connect()</text>
<text text-anchor="start" x="18" y="-7.5" font-family="Helvetica,sans-Serif" font-size="10.00" fill="#000000">+ query()</text>
</g>
<!-- Node1 -->
<g id="node2" class="node">
<title>Node1</title>
<g id="a_node2"><a xlink:href="classAsteroids_1_1TechnicalServices_1_1Persistence_1_1DatabaserInterface.html" target="_top" xlink:title="The Databaser interface allows us to connect to and manipulate a database. ">
<polygon fill="#ffffff" stroke="#000000" points="0,-138.5 0,-228.5 164,-228.5 164,-138.5 0,-138.5"/>
<text text-anchor="start" x="8" y="-216.5" font-family="Helvetica,sans-Serif" font-size="10.00" fill="#000000">Asteroids::TechnicalServices</text>
<text text-anchor="middle" x="82" y="-205.5" font-family="Helvetica,sans-Serif" font-size="10.00" fill="#000000">::Persistence::DatabaserInterface</text>
<polyline fill="none" stroke="#000000" points="0,-198.5 164,-198.5 "/>
<text text-anchor="middle" x="82" y="-186.5" font-family="Helvetica,sans-Serif" font-size="10.00" fill="#000000"> </text>
<polyline fill="none" stroke="#000000" points="0,-179.5 164,-179.5 "/>
<text text-anchor="start" x="8" y="-167.5" font-family="Helvetica,sans-Serif" font-size="10.00" fill="#000000">+ close()</text>
<text text-anchor="start" x="8" y="-156.5" font-family="Helvetica,sans-Serif" font-size="10.00" fill="#000000">+ connect()</text>
<text text-anchor="start" x="8" y="-145.5" font-family="Helvetica,sans-Serif" font-size="10.00" fill="#000000">+ query()</text>
</a>
</g>
</g>
<!-- Node1&#45;&gt;Node0 -->
<g id="edge1" class="edge">
<title>Node1&#45;&gt;Node0</title>
<path fill="none" stroke="#191970" d="M82,-128.2098C82,-119.5051 82,-110.5409 82,-101.9407"/>
<polygon fill="none" stroke="#191970" points="78.5001,-128.2716 82,-138.2716 85.5001,-128.2716 78.5001,-128.2716"/>
</g>
</g>
</svg>
