<?xml version="1.0" encoding="UTF-8" standalone="no"?>
<!DOCTYPE svg PUBLIC "-//W3C//DTD SVG 1.1//EN"
 "http://www.w3.org/Graphics/SVG/1.1/DTD/svg11.dtd">
<!-- Generated by graphviz version 2.40.1 (20161225.0304)
 -->
<!-- Title: Asteroids::UI::ServerTextUI::ServerTextUI::do_process_credit_card_payment Pages: 1 -->
<svg width="367pt" height="110pt"
 viewBox="0.00 0.00 367.00 110.00" xmlns="http://www.w3.org/2000/svg" xmlns:xlink="http://www.w3.org/1999/xlink">
<g id="graph0" class="graph" transform="scale(1 1) rotate(0) translate(4 106)">
<title>Asteroids::UI::ServerTextUI::ServerTextUI::do_process_credit_card_payment</title>
<polygon fill="#ffffff" stroke="transparent" points="-4,4 -4,-106 363,-106 363,4 -4,4"/>
<!-- Node7 -->
<g id="node1" class="node">
<title>Node7</title>
<polygon fill="#bfbfbf" stroke="#000000" points="0,-30.5 0,-71.5 148,-71.5 148,-30.5 0,-30.5"/>
<text text-anchor="start" x="8" y="-59.5" font-family="Helvetica,sans-Serif" font-size="10.00" fill="#000000">Asteroids::UI::ServerText</text>
<text text-anchor="start" x="8" y="-48.5" font-family="Helvetica,sans-Serif" font-size="10.00" fill="#000000">UI::ServerTextUI::do_process</text>
<text text-anchor="middle" x="74" y="-37.5" font-family="Helvetica,sans-Serif" font-size="10.00" fill="#000000">_credit_card_payment</text>
</g>
<!-- Node8 -->
<g id="node2" class="node">
<title>Node8</title>
<g id="a_node2"><a xlink:href="classAsteroids_1_1TechnicalServices_1_1Financial_1_1CreditCardProcessorInterface.html#a605de1c4a264b4f9ae94ed13dd5fe1c0" target="_top" xlink:title="Asteroids::TechnicalServices\l::Financial::CreditCardProcessor\lInterface::authorizePayment">
<polygon fill="#ffffff" stroke="#000000" points="192,-60.5 192,-101.5 351,-101.5 351,-60.5 192,-60.5"/>
<text text-anchor="start" x="200" y="-89.5" font-family="Helvetica,sans-Serif" font-size="10.00" fill="#000000">Asteroids::TechnicalServices</text>
<text text-anchor="start" x="200" y="-78.5" font-family="Helvetica,sans-Serif" font-size="10.00" fill="#000000">::Financial::CreditCardProcessor</text>
<text text-anchor="middle" x="271.5" y="-67.5" font-family="Helvetica,sans-Serif" font-size="10.00" fill="#000000">Interface::authorizePayment</text>
</a>
</g>
</g>
<!-- Node7&#45;&gt;Node8 -->
<g id="edge1" class="edge">
<title>Node7&#45;&gt;Node8</title>
<path fill="none" stroke="#191970" d="M148.1036,-62.2562C158.9979,-63.9111 170.3197,-65.6308 181.4912,-67.3278"/>
<polygon fill="#191970" stroke="#191970" points="181.2796,-70.8357 191.6918,-68.8772 182.3309,-63.9151 181.2796,-70.8357"/>
</g>
<!-- Node9 -->
<g id="node3" class="node">
<title>Node9</title>
<g id="a_node3"><a xlink:href="classAsteroids_1_1TechnicalServices_1_1Financial_1_1CreditCardProcessorInterface.html#a8dcf97d20a9de55d04e0f84b4a788f78" target="_top" xlink:title="Asteroids::TechnicalServices\l::Financial::CreditCardProcessor\lInterface::get_processor_description">
<polygon fill="#ffffff" stroke="#000000" points="184,-.5 184,-41.5 359,-41.5 359,-.5 184,-.5"/>
<text text-anchor="start" x="192" y="-29.5" font-family="Helvetica,sans-Serif" font-size="10.00" fill="#000000">Asteroids::TechnicalServices</text>
<text text-anchor="start" x="192" y="-18.5" font-family="Helvetica,sans-Serif" font-size="10.00" fill="#000000">::Financial::CreditCardProcessor</text>
<text text-anchor="middle" x="271.5" y="-7.5" font-family="Helvetica,sans-Serif" font-size="10.00" fill="#000000">Interface::get_processor_description</text>
</a>
</g>
</g>
<!-- Node7&#45;&gt;Node9 -->
<g id="edge2" class="edge">
<title>Node7&#45;&gt;Node9</title>
<path fill="none" stroke="#191970" d="M148.1036,-39.7438C156.4428,-38.477 165.0325,-37.1723 173.6135,-35.8688"/>
<polygon fill="#191970" stroke="#191970" points="174.3063,-39.3038 183.6673,-34.3417 173.255,-32.3832 174.3063,-39.3038"/>
</g>
</g>
</svg>
