<?xml version="1.0" encoding="UTF-8" standalone="no"?>
<!DOCTYPE svg PUBLIC "-//W3C//DTD SVG 1.1//EN"
 "http://www.w3.org/Graphics/SVG/1.1/DTD/svg11.dtd">
<!-- Generated by graphviz version 2.40.1 (20161225.0304)
 -->
<!-- Title: Asteroids::UI::ClientTextUI::ClientTextUI::do_authentication Pages: 1 -->
<svg width="340pt" height="110pt"
 viewBox="0.00 0.00 340.00 110.00" xmlns="http://www.w3.org/2000/svg" xmlns:xlink="http://www.w3.org/1999/xlink">
<g id="graph0" class="graph" transform="scale(1 1) rotate(0) translate(4 106)">
<title>Asteroids::UI::ClientTextUI::ClientTextUI::do_authentication</title>
<polygon fill="#ffffff" stroke="transparent" points="-4,4 -4,-106 336,-106 336,4 -4,4"/>
<!-- Node10 -->
<g id="node1" class="node">
<title>Node10</title>
<polygon fill="#bfbfbf" stroke="#000000" points="0,-30.5 0,-60.5 171,-60.5 171,-30.5 0,-30.5"/>
<text text-anchor="start" x="8" y="-48.5" font-family="Helvetica,sans-Serif" font-size="10.00" fill="#000000">Asteroids::UI::ClientText</text>
<text text-anchor="middle" x="85.5" y="-37.5" font-family="Helvetica,sans-Serif" font-size="10.00" fill="#000000">UI::ClientTextUI::do_authentication</text>
</g>
<!-- Node11 -->
<g id="node2" class="node">
<title>Node11</title>
<g id="a_node2"><a xlink:href="classAsteroids_1_1Domain_1_1Net_1_1Authentication_1_1AuthenticationInterface.html#a2358abf451a5aa6df9d29e9dfda2898c" target="_top" xlink:title="Asteroids::Domain::\lNet::Authentication\l::AuthenticationInterface\l::attemptLogin">
<polygon fill="#ffffff" stroke="#000000" points="208,-49.5 208,-101.5 331,-101.5 331,-49.5 208,-49.5"/>
<text text-anchor="start" x="216" y="-89.5" font-family="Helvetica,sans-Serif" font-size="10.00" fill="#000000">Asteroids::Domain::</text>
<text text-anchor="start" x="216" y="-78.5" font-family="Helvetica,sans-Serif" font-size="10.00" fill="#000000">Net::Authentication</text>
<text text-anchor="start" x="216" y="-67.5" font-family="Helvetica,sans-Serif" font-size="10.00" fill="#000000">::AuthenticationInterface</text>
<text text-anchor="middle" x="269.5" y="-56.5" font-family="Helvetica,sans-Serif" font-size="10.00" fill="#000000">::attemptLogin</text>
</a>
</g>
</g>
<!-- Node10&#45;&gt;Node11 -->
<g id="edge1" class="edge">
<title>Node10&#45;&gt;Node11</title>
<path fill="none" stroke="#191970" d="M171.036,-59.4461C179.9399,-60.8978 188.9249,-62.3628 197.6552,-63.7862"/>
<polygon fill="#191970" stroke="#191970" points="197.3339,-67.2799 207.7668,-65.4348 198.4604,-60.3712 197.3339,-67.2799"/>
</g>
<!-- Node12 -->
<g id="node3" class="node">
<title>Node12</title>
<g id="a_node3"><a xlink:href="classAsteroids_1_1UI_1_1ClientTextUI_1_1ClientTextUI.html#a41f904ea570af3e3a8c4d70da8411ef3" target="_top" xlink:title="Asteroids::UI::ClientText\lUI::ClientTextUI::print">
<polygon fill="#ffffff" stroke="#000000" points="207,-.5 207,-30.5 332,-30.5 332,-.5 207,-.5"/>
<text text-anchor="start" x="215" y="-18.5" font-family="Helvetica,sans-Serif" font-size="10.00" fill="#000000">Asteroids::UI::ClientText</text>
<text text-anchor="middle" x="269.5" y="-7.5" font-family="Helvetica,sans-Serif" font-size="10.00" fill="#000000">UI::ClientTextUI::print</text>
</a>
</g>
</g>
<!-- Node10&#45;&gt;Node12 -->
<g id="edge2" class="edge">
<title>Node10&#45;&gt;Node12</title>
<path fill="none" stroke="#191970" d="M171.036,-31.5539C179.7375,-30.1352 188.5165,-28.7038 197.0596,-27.3109"/>
<polygon fill="#191970" stroke="#191970" points="197.6549,-30.7602 206.9613,-25.6965 196.5284,-23.8514 197.6549,-30.7602"/>
</g>
</g>
</svg>
