<?xml version="1.0" encoding="UTF-8" standalone="no"?>
<!DOCTYPE svg PUBLIC "-//W3C//DTD SVG 1.1//EN"
 "http://www.w3.org/Graphics/SVG/1.1/DTD/svg11.dtd">
<!-- Generated by graphviz version 2.40.1 (20161225.0304)
 -->
<!-- Title: Asteroids::UI::ServerTextUI::ServerTextUI::main_menu_loop Pages: 1 -->
<!--zoomable 220 -->
<svg id="main" version="1.1" xmlns="http://www.w3.org/2000/svg" xmlns:xlink="http://www.w3.org/1999/xlink" xml:space="preserve" onload="init(evt)">
<style type="text/css"><![CDATA[
.edge:hover path { stroke: red; }
.edge:hover polygon { stroke: red; fill: red; }
]]></style>
<script type="text/javascript"><![CDATA[
var edges = document.getElementsByTagName('g');
if (edges && edges.length) {
  for (var i=0;i<edges.length;i++) {
    if (edges[i].id.substr(0,4)=='edge') {
      edges[i].setAttribute('class','edge');
    }
  }
}
]]></script>
        <defs>
                <circle id="rim" cx="0" cy="0" r="7"/>
                <circle id="rim2" cx="0" cy="0" r="3.5"/>
                <g id="zoomPlus">
                        <use xlink:href="#rim" fill="#404040">
                                <set attributeName="fill" to="#808080" begin="zoomplus.mouseover" end="zoomplus.mouseout"/>
                        </use>
                        <path d="M-4,0h8M0,-4v8" fill="none" stroke="white" stroke-width="1.5" pointer-events="none"/>
                </g>
                <g id="zoomMin">
                        <use xlink:href="#rim" fill="#404040">
                                <set attributeName="fill" to="#808080" begin="zoomminus.mouseover" end="zoomminus.mouseout"/>
                        </use>
                        <path d="M-4,0h8" fill="none" stroke="white" stroke-width="1.5" pointer-events="none"/>
                </g>
                <g id="dirArrow">
                        <path fill="none" stroke="white" stroke-width="1.5" d="M0,-3.0v7 M-2.5,-0.5L0,-3.0L2.5,-0.5"/>
                </g>
               <g id="resetDef">
                       <use xlink:href="#rim2" fill="#404040">
                               <set attributeName="fill" to="#808080" begin="reset.mouseover" end="reset.mouseout"/>
                       </use>
               </g>
        </defs>

<script type="text/javascript">
var viewWidth = 531;
var viewHeight = 220;
var sectionId = 'dynsection-11';
</script>
<script xlink:href="svgpan.js"/>
<svg id="graph" class="graph">
<g id="viewport">
<title>Asteroids::UI::ServerTextUI::ServerTextUI::main_menu_loop</title>
<polygon fill="#ffffff" stroke="transparent" points="-4,4 -4,-215.5 527,-215.5 527,4 -4,4"/>
<!-- Node30 -->
<g id="node1" class="node">
<title>Node30</title>
<polygon fill="#bfbfbf" stroke="#000000" points="0,-80 0,-121 128,-121 128,-80 0,-80"/>
<text text-anchor="start" x="8" y="-109" font-family="Helvetica,sans-Serif" font-size="10.00" fill="#000000">Asteroids::UI::ServerText</text>
<text text-anchor="start" x="8" y="-98" font-family="Helvetica,sans-Serif" font-size="10.00" fill="#000000">UI::ServerTextUI::main</text>
<text text-anchor="middle" x="64" y="-87" font-family="Helvetica,sans-Serif" font-size="10.00" fill="#000000">_menu_loop</text>
</g>
<!-- Node31 -->
<g id="node2" class="node">
<title>Node31</title>
<g id="a_node2"><a xlink:href="classAsteroids_1_1UI_1_1ServerTextUI_1_1ServerTextUI.html#a35d6eb54e2eabfff2cc1ee47a6c228c6" target="_top" xlink:title="Asteroids::UI::ServerText\lUI::ServerTextUI::do_apply\l_updates">
<polygon fill="#ffffff" stroke="#000000" points="169.5,-170 169.5,-211 306.5,-211 306.5,-170 169.5,-170"/>
<text text-anchor="start" x="177.5" y="-199" font-family="Helvetica,sans-Serif" font-size="10.00" fill="#000000">Asteroids::UI::ServerText</text>
<text text-anchor="start" x="177.5" y="-188" font-family="Helvetica,sans-Serif" font-size="10.00" fill="#000000">UI::ServerTextUI::do_apply</text>
<text text-anchor="middle" x="238" y="-177" font-family="Helvetica,sans-Serif" font-size="10.00" fill="#000000">_updates</text>
</a>
</g>
</g>
<!-- Node30&#45;&gt;Node31 -->
<g id="edge1" class="edge">
<title>Node30&#45;&gt;Node31</title>
<path fill="none" stroke="#191970" d="M95.7121,-121.2573C115.029,-133.4606 140.4483,-148.7494 164,-160.5 167.5276,-162.26 171.1845,-163.9992 174.8987,-165.7004"/>
<polygon fill="#191970" stroke="#191970" points="173.6482,-168.9748 184.2075,-169.8414 176.4933,-162.579 173.6482,-168.9748"/>
</g>
<!-- Node32 -->
<g id="node3" class="node">
<title>Node32</title>
<g id="a_node3"><a xlink:href="classAsteroids_1_1UI_1_1ServerTextUI_1_1ServerTextUI.html#a6713eb173fef32a2fc96932b96ce2dea" target="_top" xlink:title="Asteroids::UI::ServerText\lUI::ServerTextUI::do_process\l_credit_card_payment">
<polygon fill="#ffffff" stroke="#000000" points="164,-110 164,-151 312,-151 312,-110 164,-110"/>
<text text-anchor="start" x="172" y="-139" font-family="Helvetica,sans-Serif" font-size="10.00" fill="#000000">Asteroids::UI::ServerText</text>
<text text-anchor="start" x="172" y="-128" font-family="Helvetica,sans-Serif" font-size="10.00" fill="#000000">UI::ServerTextUI::do_process</text>
<text text-anchor="middle" x="238" y="-117" font-family="Helvetica,sans-Serif" font-size="10.00" fill="#000000">_credit_card_payment</text>
</a>
</g>
</g>
<!-- Node30&#45;&gt;Node32 -->
<g id="edge2" class="edge">
<title>Node30&#45;&gt;Node32</title>
<path fill="none" stroke="#191970" d="M128.2968,-111.5857C136.6466,-113.0253 145.2963,-114.5166 153.908,-116.0014"/>
<polygon fill="#191970" stroke="#191970" points="153.5304,-119.4878 163.9797,-117.7379 154.7198,-112.5896 153.5304,-119.4878"/>
</g>
<!-- Node35 -->
<g id="node6" class="node">
<title>Node35</title>
<g id="a_node6"><a xlink:href="classAsteroids_1_1UI_1_1ServerTextUI_1_1ServerTextUI.html#a5518087c5d0ab9fd8c24c1b6948ee11b" target="_top" xlink:title="Asteroids::UI::ServerText\lUI::ServerTextUI::do_review\l_flagged_users">
<polygon fill="#ffffff" stroke="#000000" points="167,-50 167,-91 309,-91 309,-50 167,-50"/>
<text text-anchor="start" x="175" y="-79" font-family="Helvetica,sans-Serif" font-size="10.00" fill="#000000">Asteroids::UI::ServerText</text>
<text text-anchor="start" x="175" y="-68" font-family="Helvetica,sans-Serif" font-size="10.00" fill="#000000">UI::ServerTextUI::do_review</text>
<text text-anchor="middle" x="238" y="-57" font-family="Helvetica,sans-Serif" font-size="10.00" fill="#000000">_flagged_users</text>
</a>
</g>
</g>
<!-- Node30&#45;&gt;Node35 -->
<g id="edge5" class="edge">
<title>Node30&#45;&gt;Node35</title>
<path fill="none" stroke="#191970" d="M128.2968,-89.4143C137.6374,-87.8039 147.3533,-86.1287 156.9714,-84.4704"/>
<polygon fill="#191970" stroke="#191970" points="157.6794,-87.9001 166.9393,-82.7518 156.49,-81.0019 157.6794,-87.9001"/>
</g>
<!-- Node37 -->
<g id="node8" class="node">
<title>Node37</title>
<g id="a_node8"><a xlink:href="classAsteroids_1_1UI_1_1ServerTextUI_1_1ServerTextUI.html#afc4ba344c4244c2650ade2148e08d5f2" target="_top" xlink:title="Asteroids::UI::ServerText\lUI::ServerTextUI::main_menu">
<polygon fill="#ffffff" stroke="#000000" points="164,-.5 164,-30.5 312,-30.5 312,-.5 164,-.5"/>
<text text-anchor="start" x="172" y="-18.5" font-family="Helvetica,sans-Serif" font-size="10.00" fill="#000000">Asteroids::UI::ServerText</text>
<text text-anchor="middle" x="238" y="-7.5" font-family="Helvetica,sans-Serif" font-size="10.00" fill="#000000">UI::ServerTextUI::main_menu</text>
</a>
</g>
</g>
<!-- Node30&#45;&gt;Node37 -->
<g id="edge7" class="edge">
<title>Node30&#45;&gt;Node37</title>
<path fill="none" stroke="#191970" d="M94.5832,-79.8006C113.9136,-67.3181 139.7425,-51.7164 164,-40.5 168.7253,-38.3151 173.6975,-36.2232 178.7364,-34.2457"/>
<polygon fill="#191970" stroke="#191970" points="180.3327,-37.3848 188.4611,-30.5893 177.8691,-30.8326 180.3327,-37.3848"/>
</g>
<!-- Node33 -->
<g id="node4" class="node">
<title>Node33</title>
<g id="a_node4"><a xlink:href="classAsteroids_1_1TechnicalServices_1_1Financial_1_1CreditCardProcessorInterface.html#a605de1c4a264b4f9ae94ed13dd5fe1c0" target="_top" xlink:title="Asteroids::TechnicalServices\l::Financial::CreditCardProcessor\lInterface::authorizePayment">
<polygon fill="#ffffff" stroke="#000000" points="356,-170 356,-211 515,-211 515,-170 356,-170"/>
<text text-anchor="start" x="364" y="-199" font-family="Helvetica,sans-Serif" font-size="10.00" fill="#000000">Asteroids::TechnicalServices</text>
<text text-anchor="start" x="364" y="-188" font-family="Helvetica,sans-Serif" font-size="10.00" fill="#000000">::Financial::CreditCardProcessor</text>
<text text-anchor="middle" x="435.5" y="-177" font-family="Helvetica,sans-Serif" font-size="10.00" fill="#000000">Interface::authorizePayment</text>
</a>
</g>
</g>
<!-- Node32&#45;&gt;Node33 -->
<g id="edge3" class="edge">
<title>Node32&#45;&gt;Node33</title>
<path fill="none" stroke="#191970" d="M305.692,-151.0647C322.494,-156.1691 340.6316,-161.6792 357.8686,-166.9158"/>
<polygon fill="#191970" stroke="#191970" points="357.3109,-170.4042 367.8965,-169.9622 359.3457,-163.7065 357.3109,-170.4042"/>
</g>
<!-- Node34 -->
<g id="node5" class="node">
<title>Node34</title>
<g id="a_node5"><a xlink:href="classAsteroids_1_1TechnicalServices_1_1Financial_1_1CreditCardProcessorInterface.html#a8dcf97d20a9de55d04e0f84b4a788f78" target="_top" xlink:title="Asteroids::TechnicalServices\l::Financial::CreditCardProcessor\lInterface::get_processor_description">
<polygon fill="#ffffff" stroke="#000000" points="348,-110 348,-151 523,-151 523,-110 348,-110"/>
<text text-anchor="start" x="356" y="-139" font-family="Helvetica,sans-Serif" font-size="10.00" fill="#000000">Asteroids::TechnicalServices</text>
<text text-anchor="start" x="356" y="-128" font-family="Helvetica,sans-Serif" font-size="10.00" fill="#000000">::Financial::CreditCardProcessor</text>
<text text-anchor="middle" x="435.5" y="-117" font-family="Helvetica,sans-Serif" font-size="10.00" fill="#000000">Interface::get_processor_description</text>
</a>
</g>
</g>
<!-- Node32&#45;&gt;Node34 -->
<g id="edge4" class="edge">
<title>Node32&#45;&gt;Node34</title>
<path fill="none" stroke="#191970" d="M312.1036,-130.5C320.4428,-130.5 329.0325,-130.5 337.6135,-130.5"/>
<polygon fill="#191970" stroke="#191970" points="337.6673,-134.0001 347.6673,-130.5 337.6672,-127.0001 337.6673,-134.0001"/>
</g>
<!-- Node36 -->
<g id="node7" class="node">
<title>Node36</title>
<g id="a_node7"><a xlink:href="classAsteroids_1_1UI_1_1ServerTextUI_1_1ServerTextUI.html#af85d5a35efcb8c75fe7b5419da0d6f93" target="_top" xlink:title="Asteroids::UI::ServerText\lUI::ServerTextUI::do_review\l_flagged_user">
<polygon fill="#ffffff" stroke="#000000" points="364.5,-50 364.5,-91 506.5,-91 506.5,-50 364.5,-50"/>
<text text-anchor="start" x="372.5" y="-79" font-family="Helvetica,sans-Serif" font-size="10.00" fill="#000000">Asteroids::UI::ServerText</text>
<text text-anchor="start" x="372.5" y="-68" font-family="Helvetica,sans-Serif" font-size="10.00" fill="#000000">UI::ServerTextUI::do_review</text>
<text text-anchor="middle" x="435.5" y="-57" font-family="Helvetica,sans-Serif" font-size="10.00" fill="#000000">_flagged_user</text>
</a>
</g>
</g>
<!-- Node35&#45;&gt;Node36 -->
<g id="edge6" class="edge">
<title>Node35&#45;&gt;Node36</title>
<path fill="none" stroke="#191970" d="M309.023,-70.5C323.6691,-70.5 339.2006,-70.5 354.1796,-70.5"/>
<polygon fill="#191970" stroke="#191970" points="354.4438,-74.0001 364.4438,-70.5 354.4437,-67.0001 354.4438,-74.0001"/>
</g>
</g>
</svg>
        <g id="navigator" transform="translate(0 0)" fill="#404254">
                <rect fill="#f2f5e9" fill-opacity="0.5" stroke="#606060" stroke-width=".5" x="0" y="0" width="60" height="60"/>
                <use id="zoomplus" xlink:href="#zoomPlus" x="17" y="9" onmousedown="handleZoom(evt,'in')"/>
                <use id="zoomminus" xlink:href="#zoomMin" x="42" y="9" onmousedown="handleZoom(evt,'out')"/>
                <use id="reset" xlink:href="#resetDef" x="30" y="36" onmousedown="handleReset()"/>
                <g id="arrowUp" xlink:href="#dirArrow" transform="translate(30 24)" onmousedown="handlePan(0,-1)">
                  <use xlink:href="#rim" fill="#404040">
                        <set attributeName="fill" to="#808080" begin="arrowUp.mouseover" end="arrowUp.mouseout"/>
                  </use>
                  <path fill="none" stroke="white" stroke-width="1.5" d="M0,-3.0v7 M-2.5,-0.5L0,-3.0L2.5,-0.5"/>
                </g>
                <g id="arrowRight" xlink:href="#dirArrow" transform="rotate(90) translate(36 -43)" onmousedown="handlePan(1,0)">
                  <use xlink:href="#rim" fill="#404040">
                        <set attributeName="fill" to="#808080" begin="arrowRight.mouseover" end="arrowRight.mouseout"/>
                  </use>
                  <path fill="none" stroke="white" stroke-width="1.5" d="M0,-3.0v7 M-2.5,-0.5L0,-3.0L2.5,-0.5"/>
                </g>
                <g id="arrowDown" xlink:href="#dirArrow" transform="rotate(180) translate(-30 -48)" onmousedown="handlePan(0,1)">
                  <use xlink:href="#rim" fill="#404040">
                        <set attributeName="fill" to="#808080" begin="arrowDown.mouseover" end="arrowDown.mouseout"/>
                  </use>
                  <path fill="none" stroke="white" stroke-width="1.5" d="M0,-3.0v7 M-2.5,-0.5L0,-3.0L2.5,-0.5"/>
                </g>
                <g id="arrowLeft" xlink:href="#dirArrow" transform="rotate(270) translate(-36 17)" onmousedown="handlePan(-1,0)">
                  <use xlink:href="#rim" fill="#404040">
                        <set attributeName="fill" to="#808080" begin="arrowLeft.mouseover" end="arrowLeft.mouseout"/>
                  </use>
                  <path fill="none" stroke="white" stroke-width="1.5" d="M0,-3.0v7 M-2.5,-0.5L0,-3.0L2.5,-0.5"/>
                </g>
        </g>
        <svg viewBox="0 0 15 15" width="100%" height="30px" preserveAspectRatio="xMaxYMin meet">
         <g id="arrow_out" transform="scale(0.3 0.3)">
          <a xlink:href="classAsteroids_1_1UI_1_1ServerTextUI_1_1ServerTextUI_aae7cc1a6a551fc4dbd5ac7270f1d3e94_cgraph_org.svg" target="_base">
           <rect id="button" ry="5" rx="5" y="6" x="6" height="38" width="38"
                fill="#f2f5e9" fill-opacity="0.5" stroke="#606060" stroke-width="1.0"/>
           <path id="arrow"
             d="M 11.500037,31.436501 C 11.940474,20.09759 22.043105,11.32322 32.158766,21.979434 L 37.068811,17.246167 C 37.068811,17.246167 37.088388,32 37.088388,32 L 22.160133,31.978069 C 22.160133,31.978069 26.997745,27.140456 26.997745,27.140456 C 18.528582,18.264221 13.291696,25.230495 11.500037,31.436501 z"
             style="fill:#404040;"/>
          </a>
         </g>
        </svg>
</svg>
