<?xml version="1.0" encoding="UTF-8" standalone="no"?>
<!DOCTYPE svg PUBLIC "-//W3C//DTD SVG 1.1//EN"
 "http://www.w3.org/Graphics/SVG/1.1/DTD/svg11.dtd">
<!-- Generated by graphviz version 2.40.1 (20161225.0304)
 -->
<!-- Title: Asteroids::Domain::Game::Actors::Bullet::update Pages: 1 -->
<svg width="862pt" height="200pt"
 viewBox="0.00 0.00 862.00 200.00" xmlns="http://www.w3.org/2000/svg" xmlns:xlink="http://www.w3.org/1999/xlink">
<g id="graph0" class="graph" transform="scale(1 1) rotate(0) translate(4 196)">
<title>Asteroids::Domain::Game::Actors::Bullet::update</title>
<polygon fill="#ffffff" stroke="transparent" points="-4,4 -4,-196 858,-196 858,4 -4,4"/>
<!-- Node51 -->
<g id="node1" class="node">
<title>Node51</title>
<polygon fill="#bfbfbf" stroke="#000000" points="0,-60.5 0,-101.5 108,-101.5 108,-60.5 0,-60.5"/>
<text text-anchor="start" x="8" y="-89.5" font-family="Helvetica,sans-Serif" font-size="10.00" fill="#000000">Asteroids::Domain::</text>
<text text-anchor="start" x="8" y="-78.5" font-family="Helvetica,sans-Serif" font-size="10.00" fill="#000000">Game::Actors::Bullet</text>
<text text-anchor="middle" x="54" y="-67.5" font-family="Helvetica,sans-Serif" font-size="10.00" fill="#000000">::update</text>
</g>
<!-- Node52 -->
<g id="node2" class="node">
<title>Node52</title>
<g id="a_node2"><a xlink:href="classAsteroids_1_1Domain_1_1Game_1_1Actors_1_1Bullet.html#aa5772b07856c5191c8ccdf5d0df568e8" target="_top" xlink:title="Asteroids::Domain::\lGame::Actors::Bullet\l::maybe_die">
<polygon fill="#ffffff" stroke="#000000" points="144,-90.5 144,-131.5 252,-131.5 252,-90.5 144,-90.5"/>
<text text-anchor="start" x="152" y="-119.5" font-family="Helvetica,sans-Serif" font-size="10.00" fill="#000000">Asteroids::Domain::</text>
<text text-anchor="start" x="152" y="-108.5" font-family="Helvetica,sans-Serif" font-size="10.00" fill="#000000">Game::Actors::Bullet</text>
<text text-anchor="middle" x="198" y="-97.5" font-family="Helvetica,sans-Serif" font-size="10.00" fill="#000000">::maybe_die</text>
</a>
</g>
</g>
<!-- Node51&#45;&gt;Node52 -->
<g id="edge1" class="edge">
<title>Node51&#45;&gt;Node52</title>
<path fill="none" stroke="#191970" d="M108.03,-92.2562C116.4046,-94.001 125.1257,-95.8179 133.6995,-97.6041"/>
<polygon fill="#191970" stroke="#191970" points="133.1635,-101.0675 143.6672,-99.6807 134.5913,-94.2146 133.1635,-101.0675"/>
</g>
<!-- Node55 -->
<g id="node5" class="node">
<title>Node55</title>
<g id="a_node5"><a xlink:href="classAsteroids_1_1Domain_1_1Game_1_1Actors_1_1Actor.html#a5a53ac407eec2feb06f167d1a496bbe5" target="_top" xlink:title="Asteroids::Domain::\lGame::Actors::Actor\l::update">
<polygon fill="#ffffff" stroke="#000000" points="144.5,-30.5 144.5,-71.5 251.5,-71.5 251.5,-30.5 144.5,-30.5"/>
<text text-anchor="start" x="152.5" y="-59.5" font-family="Helvetica,sans-Serif" font-size="10.00" fill="#000000">Asteroids::Domain::</text>
<text text-anchor="start" x="152.5" y="-48.5" font-family="Helvetica,sans-Serif" font-size="10.00" fill="#000000">Game::Actors::Actor</text>
<text text-anchor="middle" x="198" y="-37.5" font-family="Helvetica,sans-Serif" font-size="10.00" fill="#000000">::update</text>
</a>
</g>
</g>
<!-- Node51&#45;&gt;Node55 -->
<g id="edge4" class="edge">
<title>Node51&#45;&gt;Node55</title>
<path fill="none" stroke="#191970" d="M108.03,-69.7438C116.6116,-67.9559 125.5571,-66.0923 134.335,-64.2635"/>
<polygon fill="#191970" stroke="#191970" points="135.0702,-67.6856 144.1461,-62.2196 133.6425,-60.8327 135.0702,-67.6856"/>
</g>
<!-- Node53 -->
<g id="node3" class="node">
<title>Node53</title>
<g id="a_node3"><a xlink:href="classAsteroids_1_1Domain_1_1Game_1_1Actors_1_1Actor.html#afb9985ff7dea1fe2d21b365a7aec8a45" target="_top" xlink:title="Asteroids::Domain::\lGame::Actors::Actor\l::deleteme">
<polygon fill="#ffffff" stroke="#000000" points="300,-150.5 300,-191.5 407,-191.5 407,-150.5 300,-150.5"/>
<text text-anchor="start" x="308" y="-179.5" font-family="Helvetica,sans-Serif" font-size="10.00" fill="#000000">Asteroids::Domain::</text>
<text text-anchor="start" x="308" y="-168.5" font-family="Helvetica,sans-Serif" font-size="10.00" fill="#000000">Game::Actors::Actor</text>
<text text-anchor="middle" x="353.5" y="-157.5" font-family="Helvetica,sans-Serif" font-size="10.00" fill="#000000">::deleteme</text>
</a>
</g>
</g>
<!-- Node52&#45;&gt;Node53 -->
<g id="edge2" class="edge">
<title>Node52&#45;&gt;Node53</title>
<path fill="none" stroke="#191970" d="M251.5143,-131.6486C264.1685,-136.5313 277.7744,-141.7811 290.795,-146.8051"/>
<polygon fill="#191970" stroke="#191970" points="289.561,-150.0805 300.1506,-150.415 292.081,-143.5498 289.561,-150.0805"/>
</g>
<!-- Node54 -->
<g id="node4" class="node">
<title>Node54</title>
<g id="a_node4"><a xlink:href="classAsteroids_1_1Domain_1_1Game_1_1Actors_1_1Actor.html#a4e096daf30dca67bcd500fcae7e80979" target="_top" xlink:title="Asteroids::Domain::\lGame::Actors::Actor\l::get_lifetime_ticks">
<polygon fill="#ffffff" stroke="#000000" points="300,-90.5 300,-131.5 407,-131.5 407,-90.5 300,-90.5"/>
<text text-anchor="start" x="308" y="-119.5" font-family="Helvetica,sans-Serif" font-size="10.00" fill="#000000">Asteroids::Domain::</text>
<text text-anchor="start" x="308" y="-108.5" font-family="Helvetica,sans-Serif" font-size="10.00" fill="#000000">Game::Actors::Actor</text>
<text text-anchor="middle" x="353.5" y="-97.5" font-family="Helvetica,sans-Serif" font-size="10.00" fill="#000000">::get_lifetime_ticks</text>
</a>
</g>
</g>
<!-- Node52&#45;&gt;Node54 -->
<g id="edge3" class="edge">
<title>Node52&#45;&gt;Node54</title>
<path fill="none" stroke="#191970" d="M252.3864,-111C264.4288,-111 277.2956,-111 289.6755,-111"/>
<polygon fill="#191970" stroke="#191970" points="289.9313,-114.5001 299.9313,-111 289.9313,-107.5001 289.9313,-114.5001"/>
</g>
<!-- Node56 -->
<g id="node6" class="node">
<title>Node56</title>
<g id="a_node6"><a xlink:href="classAsteroids_1_1Domain_1_1Game_1_1Actors_1_1Actor.html#aafec1372aa2f5b203112aae5f6b16310" target="_top" xlink:title="Asteroids::Domain::\lGame::Actors::Actor\l::apply_vector_to_position">
<polygon fill="#ffffff" stroke="#000000" points="288,-30.5 288,-71.5 419,-71.5 419,-30.5 288,-30.5"/>
<text text-anchor="start" x="296" y="-59.5" font-family="Helvetica,sans-Serif" font-size="10.00" fill="#000000">Asteroids::Domain::</text>
<text text-anchor="start" x="296" y="-48.5" font-family="Helvetica,sans-Serif" font-size="10.00" fill="#000000">Game::Actors::Actor</text>
<text text-anchor="middle" x="353.5" y="-37.5" font-family="Helvetica,sans-Serif" font-size="10.00" fill="#000000">::apply_vector_to_position</text>
</a>
</g>
</g>
<!-- Node55&#45;&gt;Node56 -->
<g id="edge5" class="edge">
<title>Node55&#45;&gt;Node56</title>
<path fill="none" stroke="#191970" d="M251.5143,-51C259.9125,-51 268.7298,-51 277.517,-51"/>
<polygon fill="#191970" stroke="#191970" points="277.7917,-54.5001 287.7917,-51 277.7917,-47.5001 277.7917,-54.5001"/>
</g>
<!-- Node57 -->
<g id="node7" class="node">
<title>Node57</title>
<g id="a_node7"><a xlink:href="classAsteroids_1_1Domain_1_1Game_1_1Actors_1_1Actor.html#a4bb89af7457ff402fa5a4a11d62ab4ca" target="_top" xlink:title="Asteroids::Domain::\lGame::Actors::Actor\l::update_rect">
<polygon fill="#ffffff" stroke="#000000" points="455,-30.5 455,-71.5 562,-71.5 562,-30.5 455,-30.5"/>
<text text-anchor="start" x="463" y="-59.5" font-family="Helvetica,sans-Serif" font-size="10.00" fill="#000000">Asteroids::Domain::</text>
<text text-anchor="start" x="463" y="-48.5" font-family="Helvetica,sans-Serif" font-size="10.00" fill="#000000">Game::Actors::Actor</text>
<text text-anchor="middle" x="508.5" y="-37.5" font-family="Helvetica,sans-Serif" font-size="10.00" fill="#000000">::update_rect</text>
</a>
</g>
</g>
<!-- Node56&#45;&gt;Node57 -->
<g id="edge6" class="edge">
<title>Node56&#45;&gt;Node57</title>
<path fill="none" stroke="#191970" d="M419.234,-51C427.6809,-51 436.3189,-51 444.7336,-51"/>
<polygon fill="#191970" stroke="#191970" points="444.8593,-54.5001 454.8593,-51 444.8593,-47.5001 444.8593,-54.5001"/>
</g>
<!-- Node58 -->
<g id="node8" class="node">
<title>Node58</title>
<g id="a_node8"><a xlink:href="classAsteroids_1_1Domain_1_1Game_1_1Actors_1_1Rect.html#a0ab06f4fe6e0dbd681c89397f22aa08f" target="_top" xlink:title="Asteroids::Domain::\lGame::Actors::Rect::\ladd_offset">
<polygon fill="#ffffff" stroke="#000000" points="598,-60.5 598,-101.5 708,-101.5 708,-60.5 598,-60.5"/>
<text text-anchor="start" x="606" y="-89.5" font-family="Helvetica,sans-Serif" font-size="10.00" fill="#000000">Asteroids::Domain::</text>
<text text-anchor="start" x="606" y="-78.5" font-family="Helvetica,sans-Serif" font-size="10.00" fill="#000000">Game::Actors::Rect::</text>
<text text-anchor="middle" x="653" y="-67.5" font-family="Helvetica,sans-Serif" font-size="10.00" fill="#000000">add_offset</text>
</a>
</g>
</g>
<!-- Node57&#45;&gt;Node58 -->
<g id="edge7" class="edge">
<title>Node57&#45;&gt;Node58</title>
<path fill="none" stroke="#191970" d="M562.3065,-62.1709C570.6114,-63.8951 579.2648,-65.6917 587.7864,-67.4608"/>
<polygon fill="#191970" stroke="#191970" points="587.1979,-70.9132 597.7006,-69.5192 588.6209,-64.0594 587.1979,-70.9132"/>
</g>
<!-- Node60 -->
<g id="node10" class="node">
<title>Node60</title>
<g id="a_node10"><a xlink:href="classAsteroids_1_1Domain_1_1Game_1_1Actors_1_1Rect.html#a687d0848c13d1b8dfbd2f896636b4145" target="_top" xlink:title="Create a rect from polygon points. ">
<polygon fill="#ffffff" stroke="#000000" points="598,-.5 598,-41.5 708,-41.5 708,-.5 598,-.5"/>
<text text-anchor="start" x="606" y="-29.5" font-family="Helvetica,sans-Serif" font-size="10.00" fill="#000000">Asteroids::Domain::</text>
<text text-anchor="start" x="606" y="-18.5" font-family="Helvetica,sans-Serif" font-size="10.00" fill="#000000">Game::Actors::Rect::</text>
<text text-anchor="middle" x="653" y="-7.5" font-family="Helvetica,sans-Serif" font-size="10.00" fill="#000000">consume_polygon</text>
</a>
</g>
</g>
<!-- Node57&#45;&gt;Node60 -->
<g id="edge9" class="edge">
<title>Node57&#45;&gt;Node60</title>
<path fill="none" stroke="#191970" d="M562.3065,-39.8291C570.6114,-38.1049 579.2648,-36.3083 587.7864,-34.5392"/>
<polygon fill="#191970" stroke="#191970" points="588.6209,-37.9406 597.7006,-32.4808 587.1979,-31.0868 588.6209,-37.9406"/>
</g>
<!-- Node59 -->
<g id="node9" class="node">
<title>Node59</title>
<g id="a_node9"><a xlink:href="classAsteroids_1_1Domain_1_1Game_1_1Actors_1_1Rect.html#a40c593b8be9c243d6cdc30e2f8ee67df" target="_top" xlink:title="Asteroids::Domain::\lGame::Actors::Rect::\lupdate_dimensions">
<polygon fill="#ffffff" stroke="#000000" points="744,-30.5 744,-71.5 854,-71.5 854,-30.5 744,-30.5"/>
<text text-anchor="start" x="752" y="-59.5" font-family="Helvetica,sans-Serif" font-size="10.00" fill="#000000">Asteroids::Domain::</text>
<text text-anchor="start" x="752" y="-48.5" font-family="Helvetica,sans-Serif" font-size="10.00" fill="#000000">Game::Actors::Rect::</text>
<text text-anchor="middle" x="799" y="-37.5" font-family="Helvetica,sans-Serif" font-size="10.00" fill="#000000">update_dimensions</text>
</a>
</g>
</g>
<!-- Node58&#45;&gt;Node59 -->
<g id="edge8" class="edge">
<title>Node58&#45;&gt;Node59</title>
<path fill="none" stroke="#191970" d="M708.1963,-69.6583C716.5541,-67.9409 725.2434,-66.1555 733.7888,-64.3996"/>
<polygon fill="#191970" stroke="#191970" points="734.6347,-67.7989 743.7256,-62.3578 733.2258,-60.9422 734.6347,-67.7989"/>
</g>
<!-- Node60&#45;&gt;Node59 -->
<g id="edge10" class="edge">
<title>Node60&#45;&gt;Node59</title>
<path fill="none" stroke="#191970" d="M708.1963,-32.3417C716.5541,-34.0591 725.2434,-35.8445 733.7888,-37.6004"/>
<polygon fill="#191970" stroke="#191970" points="733.2258,-41.0578 743.7256,-39.6422 734.6347,-34.2011 733.2258,-41.0578"/>
</g>
</g>
</svg>
