<?xml version="1.0" encoding="UTF-8" standalone="no"?>
<!DOCTYPE svg PUBLIC "-//W3C//DTD SVG 1.1//EN"
 "http://www.w3.org/Graphics/SVG/1.1/DTD/svg11.dtd">
<!-- Generated by graphviz version 2.40.1 (20161225.0304)
 -->
<!-- Title: Asteroids::Domain::Game::Actors::Actor::clear_input Pages: 1 -->
<!--zoomable 215 -->
<svg id="main" version="1.1" xmlns="http://www.w3.org/2000/svg" xmlns:xlink="http://www.w3.org/1999/xlink" xml:space="preserve" onload="init(evt)">
<style type="text/css"><![CDATA[
.edge:hover path { stroke: red; }
.edge:hover polygon { stroke: red; fill: red; }
]]></style>
<script type="text/javascript"><![CDATA[
var edges = document.getElementsByTagName('g');
if (edges && edges.length) {
  for (var i=0;i<edges.length;i++) {
    if (edges[i].id.substr(0,4)=='edge') {
      edges[i].setAttribute('class','edge');
    }
  }
}
]]></script>
        <defs>
                <circle id="rim" cx="0" cy="0" r="7"/>
                <circle id="rim2" cx="0" cy="0" r="3.5"/>
                <g id="zoomPlus">
                        <use xlink:href="#rim" fill="#404040">
                                <set attributeName="fill" to="#808080" begin="zoomplus.mouseover" end="zoomplus.mouseout"/>
                        </use>
                        <path d="M-4,0h8M0,-4v8" fill="none" stroke="white" stroke-width="1.5" pointer-events="none"/>
                </g>
                <g id="zoomMin">
                        <use xlink:href="#rim" fill="#404040">
                                <set attributeName="fill" to="#808080" begin="zoomminus.mouseover" end="zoomminus.mouseout"/>
                        </use>
                        <path d="M-4,0h8" fill="none" stroke="white" stroke-width="1.5" pointer-events="none"/>
                </g>
                <g id="dirArrow">
                        <path fill="none" stroke="white" stroke-width="1.5" d="M0,-3.0v7 M-2.5,-0.5L0,-3.0L2.5,-0.5"/>
                </g>
               <g id="resetDef">
                       <use xlink:href="#rim2" fill="#404040">
                               <set attributeName="fill" to="#808080" begin="reset.mouseover" end="reset.mouseout"/>
                       </use>
               </g>
        </defs>

<script type="text/javascript">
var viewWidth = 776;
var viewHeight = 215;
var sectionId = 'dynsection-9';
</script>
<script xlink:href="svgpan.js"/>
<svg id="graph" class="graph">
<g id="viewport">
<title>Asteroids::Domain::Game::Actors::Actor::clear_input</title>
<polygon fill="#ffffff" stroke="transparent" points="-4,4 -4,-210.5 772,-210.5 772,4 -4,4"/>
<!-- Node30 -->
<g id="node1" class="node">
<title>Node30</title>
<polygon fill="#bfbfbf" stroke="#000000" points="0,-80 0,-121 107,-121 107,-80 0,-80"/>
<text text-anchor="start" x="8" y="-109" font-family="Helvetica,sans-Serif" font-size="10.00" fill="#000000">Asteroids::Domain::</text>
<text text-anchor="start" x="8" y="-98" font-family="Helvetica,sans-Serif" font-size="10.00" fill="#000000">Game::Actors::Actor</text>
<text text-anchor="middle" x="53.5" y="-87" font-family="Helvetica,sans-Serif" font-size="10.00" fill="#000000">::clear_input</text>
</g>
<!-- Node31 -->
<g id="node2" class="node">
<title>Node31</title>
<g id="a_node2"><a xlink:href="classAsteroids_1_1Domain_1_1Game_1_1Actors_1_1Actor.html#a538200753592ca63f7c3348fcece583f" target="_top" xlink:title="Asteroids::Domain::\lGame::Actors::Actor\l::reset">
<polygon fill="#ffffff" stroke="#000000" points="143,-80 143,-121 250,-121 250,-80 143,-80"/>
<text text-anchor="start" x="151" y="-109" font-family="Helvetica,sans-Serif" font-size="10.00" fill="#000000">Asteroids::Domain::</text>
<text text-anchor="start" x="151" y="-98" font-family="Helvetica,sans-Serif" font-size="10.00" fill="#000000">Game::Actors::Actor</text>
<text text-anchor="middle" x="196.5" y="-87" font-family="Helvetica,sans-Serif" font-size="10.00" fill="#000000">::reset</text>
</a>
</g>
</g>
<!-- Node30&#45;&gt;Node31 -->
<g id="edge1" class="edge">
<title>Node30&#45;&gt;Node31</title>
<path fill="none" stroke="#191970" d="M117.3238,-100.5C125.7452,-100.5 134.3103,-100.5 142.5445,-100.5"/>
<polygon fill="#191970" stroke="#191970" points="117.1548,-97.0001 107.1548,-100.5 117.1547,-104.0001 117.1548,-97.0001"/>
</g>
<!-- Node32 -->
<g id="node3" class="node">
<title>Node32</title>
<g id="a_node3"><a xlink:href="classAsteroids_1_1Domain_1_1Game_1_1Actors_1_1Actor.html#a5f59fc92345120fdc67675ec0884b137" target="_top" xlink:title="Asteroids::Domain::\lGame::Actors::Actor::init">
<polygon fill="#ffffff" stroke="#000000" points="290.5,-170.5 290.5,-200.5 415.5,-200.5 415.5,-170.5 290.5,-170.5"/>
<text text-anchor="start" x="298.5" y="-188.5" font-family="Helvetica,sans-Serif" font-size="10.00" fill="#000000">Asteroids::Domain::</text>
<text text-anchor="middle" x="353" y="-177.5" font-family="Helvetica,sans-Serif" font-size="10.00" fill="#000000">Game::Actors::Actor::init</text>
</a>
</g>
</g>
<!-- Node31&#45;&gt;Node32 -->
<g id="edge2" class="edge">
<title>Node31&#45;&gt;Node32</title>
<path fill="none" stroke="#191970" d="M232.1687,-127.2089C248.1129,-138.4013 267.461,-150.9927 286,-160.5 292.9598,-164.0692 300.5518,-167.3957 308.0432,-170.3829"/>
<polygon fill="#191970" stroke="#191970" points="233.8623,-124.1179 223.6878,-121.1632 229.799,-129.8179 233.8623,-124.1179"/>
</g>
<!-- Node34 -->
<g id="node5" class="node">
<title>Node34</title>
<g id="a_node5"><a xlink:href="classAsteroids_1_1Domain_1_1Game_1_1Actors_1_1Bullet.html#ae3837ed471d290688f684e8187e6865e" target="_top" xlink:title="Asteroids::Domain::\lGame::Actors::Bullet\l::reset">
<polygon fill="#ffffff" stroke="#000000" points="299,-110 299,-151 407,-151 407,-110 299,-110"/>
<text text-anchor="start" x="307" y="-139" font-family="Helvetica,sans-Serif" font-size="10.00" fill="#000000">Asteroids::Domain::</text>
<text text-anchor="start" x="307" y="-128" font-family="Helvetica,sans-Serif" font-size="10.00" fill="#000000">Game::Actors::Bullet</text>
<text text-anchor="middle" x="353" y="-117" font-family="Helvetica,sans-Serif" font-size="10.00" fill="#000000">::reset</text>
</a>
</g>
</g>
<!-- Node31&#45;&gt;Node34 -->
<g id="edge4" class="edge">
<title>Node31&#45;&gt;Node34</title>
<path fill="none" stroke="#191970" d="M260.428,-112.7546C273.1575,-115.1947 286.4104,-117.7352 298.7768,-120.1058"/>
<polygon fill="#191970" stroke="#191970" points="260.8386,-109.2696 250.3584,-110.8243 259.5206,-116.1444 260.8386,-109.2696"/>
</g>
<!-- Node37 -->
<g id="node8" class="node">
<title>Node37</title>
<g id="a_node8"><a xlink:href="classAsteroids_1_1Domain_1_1Game_1_1Actors_1_1GunShip.html#a753c275a7840962c92cfe4843bcbd6ac" target="_top" xlink:title="Asteroids::Domain::\lGame::Actors::GunShip\l::reset">
<polygon fill="#ffffff" stroke="#000000" points="292.5,-50 292.5,-91 413.5,-91 413.5,-50 292.5,-50"/>
<text text-anchor="start" x="300.5" y="-79" font-family="Helvetica,sans-Serif" font-size="10.00" fill="#000000">Asteroids::Domain::</text>
<text text-anchor="start" x="300.5" y="-68" font-family="Helvetica,sans-Serif" font-size="10.00" fill="#000000">Game::Actors::GunShip</text>
<text text-anchor="middle" x="353" y="-57" font-family="Helvetica,sans-Serif" font-size="10.00" fill="#000000">::reset</text>
</a>
</g>
</g>
<!-- Node31&#45;&gt;Node37 -->
<g id="edge7" class="edge">
<title>Node31&#45;&gt;Node37</title>
<path fill="none" stroke="#191970" d="M260.3511,-88.2602C270.917,-86.2348 281.8457,-84.1398 292.3303,-82.13"/>
<polygon fill="#191970" stroke="#191970" points="259.5206,-84.8556 250.3584,-90.1757 260.8386,-91.7304 259.5206,-84.8556"/>
</g>
<!-- Node40 -->
<g id="node11" class="node">
<title>Node40</title>
<g id="a_node11"><a xlink:href="classAsteroids_1_1Domain_1_1Game_1_1Actors_1_1Rock.html#aab44647e08659d563aeb28d51868fb86" target="_top" xlink:title="Asteroids::Domain::\lGame::Actors::Rock::reset">
<polygon fill="#ffffff" stroke="#000000" points="286,-.5 286,-30.5 420,-30.5 420,-.5 286,-.5"/>
<text text-anchor="start" x="294" y="-18.5" font-family="Helvetica,sans-Serif" font-size="10.00" fill="#000000">Asteroids::Domain::</text>
<text text-anchor="middle" x="353" y="-7.5" font-family="Helvetica,sans-Serif" font-size="10.00" fill="#000000">Game::Actors::Rock::reset</text>
</a>
</g>
</g>
<!-- Node31&#45;&gt;Node40 -->
<g id="edge10" class="edge">
<title>Node31&#45;&gt;Node40</title>
<path fill="none" stroke="#191970" d="M232.1687,-73.7911C248.1129,-62.5987 267.461,-50.0073 286,-40.5 292.9598,-36.9308 300.5518,-33.6043 308.0432,-30.6171"/>
<polygon fill="#191970" stroke="#191970" points="229.799,-71.1821 223.6878,-79.8368 233.8623,-76.8821 229.799,-71.1821"/>
</g>
<!-- Node33 -->
<g id="node4" class="node">
<title>Node33</title>
<g id="a_node4"><a xlink:href="classAsteroids_1_1Domain_1_1Game_1_1Actors_1_1Actor.html#a7be8857a93e88d79c6cf1bcc4b1dcdb4" target="_top" xlink:title="Asteroids::Domain::\lGame::Actors::Actor\l::Actor">
<polygon fill="#ffffff" stroke="#000000" points="472.5,-165 472.5,-206 579.5,-206 579.5,-165 472.5,-165"/>
<text text-anchor="start" x="480.5" y="-194" font-family="Helvetica,sans-Serif" font-size="10.00" fill="#000000">Asteroids::Domain::</text>
<text text-anchor="start" x="480.5" y="-183" font-family="Helvetica,sans-Serif" font-size="10.00" fill="#000000">Game::Actors::Actor</text>
<text text-anchor="middle" x="526" y="-172" font-family="Helvetica,sans-Serif" font-size="10.00" fill="#000000">::Actor</text>
</a>
</g>
</g>
<!-- Node32&#45;&gt;Node33 -->
<g id="edge3" class="edge">
<title>Node32&#45;&gt;Node33</title>
<path fill="none" stroke="#191970" d="M426.0219,-185.5C441.5167,-185.5 457.603,-185.5 472.2257,-185.5"/>
<polygon fill="#191970" stroke="#191970" points="425.9464,-182.0001 415.9464,-185.5 425.9463,-189.0001 425.9464,-182.0001"/>
</g>
<!-- Node35 -->
<g id="node6" class="node">
<title>Node35</title>
<g id="a_node6"><a xlink:href="classAsteroids_1_1Domain_1_1Game_1_1Actors_1_1Bullet.html#a1c7b384d298439c581d97f996f067985" target="_top" xlink:title="Asteroids::Domain::\lGame::Actors::Bullet::init">
<polygon fill="#ffffff" stroke="#000000" points="462.5,-115.5 462.5,-145.5 589.5,-145.5 589.5,-115.5 462.5,-115.5"/>
<text text-anchor="start" x="470.5" y="-133.5" font-family="Helvetica,sans-Serif" font-size="10.00" fill="#000000">Asteroids::Domain::</text>
<text text-anchor="middle" x="526" y="-122.5" font-family="Helvetica,sans-Serif" font-size="10.00" fill="#000000">Game::Actors::Bullet::init</text>
</a>
</g>
</g>
<!-- Node34&#45;&gt;Node35 -->
<g id="edge5" class="edge">
<title>Node34&#45;&gt;Node35</title>
<path fill="none" stroke="#191970" d="M417.2661,-130.5C431.959,-130.5 447.57,-130.5 462.2415,-130.5"/>
<polygon fill="#191970" stroke="#191970" points="417.2637,-127.0001 407.2636,-130.5 417.2636,-134.0001 417.2637,-127.0001"/>
</g>
<!-- Node36 -->
<g id="node7" class="node">
<title>Node36</title>
<g id="a_node7"><a xlink:href="classAsteroids_1_1Domain_1_1Game_1_1Actors_1_1Bullet.html#a48557011de2d1939a8b5f7fe7e9fccda" target="_top" xlink:title="Asteroids::Domain::\lGame::Actors::Bullet\l::Bullet">
<polygon fill="#ffffff" stroke="#000000" points="646,-110 646,-151 754,-151 754,-110 646,-110"/>
<text text-anchor="start" x="654" y="-139" font-family="Helvetica,sans-Serif" font-size="10.00" fill="#000000">Asteroids::Domain::</text>
<text text-anchor="start" x="654" y="-128" font-family="Helvetica,sans-Serif" font-size="10.00" fill="#000000">Game::Actors::Bullet</text>
<text text-anchor="middle" x="700" y="-117" font-family="Helvetica,sans-Serif" font-size="10.00" fill="#000000">::Bullet</text>
</a>
</g>
</g>
<!-- Node35&#45;&gt;Node36 -->
<g id="edge6" class="edge">
<title>Node35&#45;&gt;Node36</title>
<path fill="none" stroke="#191970" d="M599.8611,-130.5C615.323,-130.5 631.3517,-130.5 645.9326,-130.5"/>
<polygon fill="#191970" stroke="#191970" points="599.8032,-127.0001 589.8032,-130.5 599.8031,-134.0001 599.8032,-127.0001"/>
</g>
<!-- Node38 -->
<g id="node9" class="node">
<title>Node38</title>
<g id="a_node9"><a xlink:href="classAsteroids_1_1Domain_1_1Game_1_1Actors_1_1GunShip.html#ad5c14269f0503e045f03f265f9019e95" target="_top" xlink:title="Asteroids::Domain::\lGame::Actors::GunShip::init">
<polygon fill="#ffffff" stroke="#000000" points="456,-55.5 456,-85.5 596,-85.5 596,-55.5 456,-55.5"/>
<text text-anchor="start" x="464" y="-73.5" font-family="Helvetica,sans-Serif" font-size="10.00" fill="#000000">Asteroids::Domain::</text>
<text text-anchor="middle" x="526" y="-62.5" font-family="Helvetica,sans-Serif" font-size="10.00" fill="#000000">Game::Actors::GunShip::init</text>
</a>
</g>
</g>
<!-- Node37&#45;&gt;Node38 -->
<g id="edge8" class="edge">
<title>Node37&#45;&gt;Node38</title>
<path fill="none" stroke="#191970" d="M423.5637,-70.5C434.1818,-70.5 445.1318,-70.5 455.7434,-70.5"/>
<polygon fill="#191970" stroke="#191970" points="423.507,-67.0001 413.507,-70.5 423.507,-74.0001 423.507,-67.0001"/>
</g>
<!-- Node39 -->
<g id="node10" class="node">
<title>Node39</title>
<g id="a_node10"><a xlink:href="classAsteroids_1_1Domain_1_1Game_1_1Actors_1_1GunShip.html#a4e6a5de697b5a88bf3942165397cd27b" target="_top" xlink:title="Asteroids::Domain::\lGame::Actors::GunShip\l::GunShip">
<polygon fill="#ffffff" stroke="#000000" points="639.5,-50 639.5,-91 760.5,-91 760.5,-50 639.5,-50"/>
<text text-anchor="start" x="647.5" y="-79" font-family="Helvetica,sans-Serif" font-size="10.00" fill="#000000">Asteroids::Domain::</text>
<text text-anchor="start" x="647.5" y="-68" font-family="Helvetica,sans-Serif" font-size="10.00" fill="#000000">Game::Actors::GunShip</text>
<text text-anchor="middle" x="700" y="-57" font-family="Helvetica,sans-Serif" font-size="10.00" fill="#000000">::GunShip</text>
</a>
</g>
</g>
<!-- Node38&#45;&gt;Node39 -->
<g id="edge9" class="edge">
<title>Node38&#45;&gt;Node39</title>
<path fill="none" stroke="#191970" d="M606.1975,-70.5C617.3482,-70.5 628.6489,-70.5 639.3608,-70.5"/>
<polygon fill="#191970" stroke="#191970" points="606.0204,-67.0001 596.0203,-70.5 606.0203,-74.0001 606.0204,-67.0001"/>
</g>
<!-- Node41 -->
<g id="node12" class="node">
<title>Node41</title>
<g id="a_node12"><a xlink:href="classAsteroids_1_1Domain_1_1Game_1_1Actors_1_1Rock.html#a8bdb717103786b8a2e30ea29db791078" target="_top" xlink:title="Asteroids::Domain::\lGame::Actors::Rock::init">
<polygon fill="#ffffff" stroke="#000000" points="463.5,-.5 463.5,-30.5 588.5,-30.5 588.5,-.5 463.5,-.5"/>
<text text-anchor="start" x="471.5" y="-18.5" font-family="Helvetica,sans-Serif" font-size="10.00" fill="#000000">Asteroids::Domain::</text>
<text text-anchor="middle" x="526" y="-7.5" font-family="Helvetica,sans-Serif" font-size="10.00" fill="#000000">Game::Actors::Rock::init</text>
</a>
</g>
</g>
<!-- Node40&#45;&gt;Node41 -->
<g id="edge11" class="edge">
<title>Node40&#45;&gt;Node41</title>
<path fill="none" stroke="#191970" d="M430.4186,-15.5C441.4311,-15.5 452.6422,-15.5 463.3271,-15.5"/>
<polygon fill="#191970" stroke="#191970" points="430.3817,-12.0001 420.3817,-15.5 430.3817,-19.0001 430.3817,-12.0001"/>
</g>
<!-- Node42 -->
<g id="node13" class="node">
<title>Node42</title>
<g id="a_node13"><a xlink:href="classAsteroids_1_1Domain_1_1Game_1_1Actors_1_1Rock.html#aef8f46670fe5751800b9d76079adb5e5" target="_top" xlink:title="Asteroids::Domain::\lGame::Actors::Rock::Rock">
<polygon fill="#ffffff" stroke="#000000" points="632,-.5 632,-30.5 768,-30.5 768,-.5 632,-.5"/>
<text text-anchor="start" x="640" y="-18.5" font-family="Helvetica,sans-Serif" font-size="10.00" fill="#000000">Asteroids::Domain::</text>
<text text-anchor="middle" x="700" y="-7.5" font-family="Helvetica,sans-Serif" font-size="10.00" fill="#000000">Game::Actors::Rock::Rock</text>
</a>
</g>
</g>
<!-- Node41&#45;&gt;Node42 -->
<g id="edge12" class="edge">
<title>Node41&#45;&gt;Node42</title>
<path fill="none" stroke="#191970" d="M599.1397,-15.5C610.0243,-15.5 621.206,-15.5 631.9795,-15.5"/>
<polygon fill="#191970" stroke="#191970" points="598.818,-12.0001 588.818,-15.5 598.818,-19.0001 598.818,-12.0001"/>
</g>
</g>
</svg>
        <g id="navigator" transform="translate(0 0)" fill="#404254">
                <rect fill="#f2f5e9" fill-opacity="0.5" stroke="#606060" stroke-width=".5" x="0" y="0" width="60" height="60"/>
                <use id="zoomplus" xlink:href="#zoomPlus" x="17" y="9" onmousedown="handleZoom(evt,'in')"/>
                <use id="zoomminus" xlink:href="#zoomMin" x="42" y="9" onmousedown="handleZoom(evt,'out')"/>
                <use id="reset" xlink:href="#resetDef" x="30" y="36" onmousedown="handleReset()"/>
                <g id="arrowUp" xlink:href="#dirArrow" transform="translate(30 24)" onmousedown="handlePan(0,-1)">
                  <use xlink:href="#rim" fill="#404040">
                        <set attributeName="fill" to="#808080" begin="arrowUp.mouseover" end="arrowUp.mouseout"/>
                  </use>
                  <path fill="none" stroke="white" stroke-width="1.5" d="M0,-3.0v7 M-2.5,-0.5L0,-3.0L2.5,-0.5"/>
                </g>
                <g id="arrowRight" xlink:href="#dirArrow" transform="rotate(90) translate(36 -43)" onmousedown="handlePan(1,0)">
                  <use xlink:href="#rim" fill="#404040">
                        <set attributeName="fill" to="#808080" begin="arrowRight.mouseover" end="arrowRight.mouseout"/>
                  </use>
                  <path fill="none" stroke="white" stroke-width="1.5" d="M0,-3.0v7 M-2.5,-0.5L0,-3.0L2.5,-0.5"/>
                </g>
                <g id="arrowDown" xlink:href="#dirArrow" transform="rotate(180) translate(-30 -48)" onmousedown="handlePan(0,1)">
                  <use xlink:href="#rim" fill="#404040">
                        <set attributeName="fill" to="#808080" begin="arrowDown.mouseover" end="arrowDown.mouseout"/>
                  </use>
                  <path fill="none" stroke="white" stroke-width="1.5" d="M0,-3.0v7 M-2.5,-0.5L0,-3.0L2.5,-0.5"/>
                </g>
                <g id="arrowLeft" xlink:href="#dirArrow" transform="rotate(270) translate(-36 17)" onmousedown="handlePan(-1,0)">
                  <use xlink:href="#rim" fill="#404040">
                        <set attributeName="fill" to="#808080" begin="arrowLeft.mouseover" end="arrowLeft.mouseout"/>
                  </use>
                  <path fill="none" stroke="white" stroke-width="1.5" d="M0,-3.0v7 M-2.5,-0.5L0,-3.0L2.5,-0.5"/>
                </g>
        </g>
        <svg viewBox="0 0 15 15" width="100%" height="30px" preserveAspectRatio="xMaxYMin meet">
         <g id="arrow_out" transform="scale(0.3 0.3)">
          <a xlink:href="classAsteroids_1_1Domain_1_1Game_1_1Actors_1_1Actor_a3678c27cfb63d8b4eb9b0aa64e352ee1_icgraph_org.svg" target="_base">
           <rect id="button" ry="5" rx="5" y="6" x="6" height="38" width="38"
                fill="#f2f5e9" fill-opacity="0.5" stroke="#606060" stroke-width="1.0"/>
           <path id="arrow"
             d="M 11.500037,31.436501 C 11.940474,20.09759 22.043105,11.32322 32.158766,21.979434 L 37.068811,17.246167 C 37.068811,17.246167 37.088388,32 37.088388,32 L 22.160133,31.978069 C 22.160133,31.978069 26.997745,27.140456 26.997745,27.140456 C 18.528582,18.264221 13.291696,25.230495 11.500037,31.436501 z"
             style="fill:#404040;"/>
          </a>
         </g>
        </svg>
</svg>
