<?xml version="1.0" encoding="UTF-8" standalone="no"?>
<!DOCTYPE svg PUBLIC "-//W3C//DTD SVG 1.1//EN"
 "http://www.w3.org/Graphics/SVG/1.1/DTD/svg11.dtd">
<!-- Generated by graphviz version 2.40.1 (20161225.0304)
 -->
<!-- Title: Asteroids::UI::ClientTextUI::ClientTextUI::share_game_history_entry_to_social_media Pages: 1 -->
<svg width="409pt" height="110pt"
 viewBox="0.00 0.00 409.00 110.00" xmlns="http://www.w3.org/2000/svg" xmlns:xlink="http://www.w3.org/1999/xlink">
<g id="graph0" class="graph" transform="scale(1 1) rotate(0) translate(4 106)">
<title>Asteroids::UI::ClientTextUI::ClientTextUI::share_game_history_entry_to_social_media</title>
<polygon fill="#ffffff" stroke="transparent" points="-4,4 -4,-106 405,-106 405,4 -4,4"/>
<!-- Node162 -->
<g id="node1" class="node">
<title>Node162</title>
<polygon fill="#bfbfbf" stroke="#000000" points="0,-25 0,-66 183,-66 183,-25 0,-25"/>
<text text-anchor="start" x="8" y="-54" font-family="Helvetica,sans-Serif" font-size="10.00" fill="#000000">Asteroids::UI::ClientText</text>
<text text-anchor="start" x="8" y="-43" font-family="Helvetica,sans-Serif" font-size="10.00" fill="#000000">UI::ClientTextUI::share</text>
<text text-anchor="middle" x="91.5" y="-32" font-family="Helvetica,sans-Serif" font-size="10.00" fill="#000000">_game_history_entry_to_social_media</text>
</g>
<!-- Node163 -->
<g id="node2" class="node">
<title>Node163</title>
<g id="a_node2"><a xlink:href="classAsteroids_1_1Domain_1_1Net_1_1ClientServerCommunicatorInterface.html#a99c8f2baa739330f44096da950a1d145" target="_top" xlink:title="Asteroids::Domain::\lNet::ClientServerCommunicator\lInterface::notifyServerOfGameHistory\lEntrySocialMediaShare">
<polygon fill="#ffffff" stroke="#000000" points="219,-49.5 219,-101.5 401,-101.5 401,-49.5 219,-49.5"/>
<text text-anchor="start" x="227" y="-89.5" font-family="Helvetica,sans-Serif" font-size="10.00" fill="#000000">Asteroids::Domain::</text>
<text text-anchor="start" x="227" y="-78.5" font-family="Helvetica,sans-Serif" font-size="10.00" fill="#000000">Net::ClientServerCommunicator</text>
<text text-anchor="start" x="227" y="-67.5" font-family="Helvetica,sans-Serif" font-size="10.00" fill="#000000">Interface::notifyServerOfGameHistory</text>
<text text-anchor="middle" x="310" y="-56.5" font-family="Helvetica,sans-Serif" font-size="10.00" fill="#000000">EntrySocialMediaShare</text>
</a>
</g>
</g>
<!-- Node162&#45;&gt;Node163 -->
<g id="edge1" class="edge">
<title>Node162&#45;&gt;Node163</title>
<path fill="none" stroke="#191970" d="M183.214,-58.0923C191.6919,-59.2563 200.3146,-60.4402 208.8705,-61.6149"/>
<polygon fill="#191970" stroke="#191970" points="208.4878,-65.0952 218.871,-62.988 209.44,-58.1602 208.4878,-65.0952"/>
</g>
<!-- Node164 -->
<g id="node3" class="node">
<title>Node164</title>
<g id="a_node3"><a xlink:href="classAsteroids_1_1UI_1_1ClientTextUI_1_1ClientTextUI.html#a41f904ea570af3e3a8c4d70da8411ef3" target="_top" xlink:title="Asteroids::UI::ClientText\lUI::ClientTextUI::print">
<polygon fill="#ffffff" stroke="#000000" points="247.5,-.5 247.5,-30.5 372.5,-30.5 372.5,-.5 247.5,-.5"/>
<text text-anchor="start" x="255.5" y="-18.5" font-family="Helvetica,sans-Serif" font-size="10.00" fill="#000000">Asteroids::UI::ClientText</text>
<text text-anchor="middle" x="310" y="-7.5" font-family="Helvetica,sans-Serif" font-size="10.00" fill="#000000">UI::ClientTextUI::print</text>
</a>
</g>
</g>
<!-- Node162&#45;&gt;Node164 -->
<g id="edge2" class="edge">
<title>Node162&#45;&gt;Node164</title>
<path fill="none" stroke="#191970" d="M183.214,-32.9077C201.2749,-30.4279 219.9923,-27.858 237.3219,-25.4787"/>
<polygon fill="#191970" stroke="#191970" points="237.9186,-28.9297 247.3495,-24.1019 236.9664,-21.9947 237.9186,-28.9297"/>
</g>
</g>
</svg>
