<?xml version="1.0" encoding="UTF-8" standalone="no"?>
<!DOCTYPE svg PUBLIC "-//W3C//DTD SVG 1.1//EN"
 "http://www.w3.org/Graphics/SVG/1.1/DTD/svg11.dtd">
<!-- Generated by graphviz version 2.40.1 (20161225.0304)
 -->
<!-- Title: Asteroids::UI::ClientTextUI::ClientTextUI::main_menu Pages: 1 -->
<svg width="475pt" height="50pt"
 viewBox="0.00 0.00 475.00 50.00" xmlns="http://www.w3.org/2000/svg" xmlns:xlink="http://www.w3.org/1999/xlink">
<g id="graph0" class="graph" transform="scale(1 1) rotate(0) translate(4 46)">
<title>Asteroids::UI::ClientTextUI::ClientTextUI::main_menu</title>
<polygon fill="#ffffff" stroke="transparent" points="-4,4 -4,-46 471,-46 471,4 -4,4"/>
<!-- Node49 -->
<g id="node1" class="node">
<title>Node49</title>
<polygon fill="#bfbfbf" stroke="#000000" points="0,-6 0,-36 145,-36 145,-6 0,-6"/>
<text text-anchor="start" x="8" y="-24" font-family="Helvetica,sans-Serif" font-size="10.00" fill="#000000">Asteroids::UI::ClientText</text>
<text text-anchor="middle" x="72.5" y="-13" font-family="Helvetica,sans-Serif" font-size="10.00" fill="#000000">UI::ClientTextUI::main_menu</text>
</g>
<!-- Node50 -->
<g id="node2" class="node">
<title>Node50</title>
<g id="a_node2"><a xlink:href="classAsteroids_1_1UI_1_1ClientTextUI_1_1ClientTextUI.html#a67521714973f97f76618f9598d34d3b8" target="_top" xlink:title="Asteroids::UI::ClientText\lUI::ClientTextUI::main\l_menu_loop">
<polygon fill="#ffffff" stroke="#000000" points="181,-.5 181,-41.5 306,-41.5 306,-.5 181,-.5"/>
<text text-anchor="start" x="189" y="-29.5" font-family="Helvetica,sans-Serif" font-size="10.00" fill="#000000">Asteroids::UI::ClientText</text>
<text text-anchor="start" x="189" y="-18.5" font-family="Helvetica,sans-Serif" font-size="10.00" fill="#000000">UI::ClientTextUI::main</text>
<text text-anchor="middle" x="243.5" y="-7.5" font-family="Helvetica,sans-Serif" font-size="10.00" fill="#000000">_menu_loop</text>
</a>
</g>
</g>
<!-- Node49&#45;&gt;Node50 -->
<g id="edge1" class="edge">
<title>Node49&#45;&gt;Node50</title>
<path fill="none" stroke="#191970" d="M155.1413,-21C163.7972,-21 172.4921,-21 180.8707,-21"/>
<polygon fill="#191970" stroke="#191970" points="155.0194,-17.5001 145.0194,-21 155.0194,-24.5001 155.0194,-17.5001"/>
</g>
<!-- Node51 -->
<g id="node3" class="node">
<title>Node51</title>
<g id="a_node3"><a xlink:href="classAsteroids_1_1UI_1_1ClientTextUI_1_1ClientTextUI.html#a835f455a627e77a5ef99661350281ec3" target="_top" xlink:title="Begin the user interface. ">
<polygon fill="#ffffff" stroke="#000000" points="342,-6 342,-36 467,-36 467,-6 342,-6"/>
<text text-anchor="start" x="350" y="-24" font-family="Helvetica,sans-Serif" font-size="10.00" fill="#000000">Asteroids::UI::ClientText</text>
<text text-anchor="middle" x="404.5" y="-13" font-family="Helvetica,sans-Serif" font-size="10.00" fill="#000000">UI::ClientTextUI::run</text>
</a>
</g>
</g>
<!-- Node50&#45;&gt;Node51 -->
<g id="edge2" class="edge">
<title>Node50&#45;&gt;Node51</title>
<path fill="none" stroke="#191970" d="M316.2184,-21C324.8129,-21 333.5268,-21 341.9633,-21"/>
<polygon fill="#191970" stroke="#191970" points="316.2078,-17.5001 306.2078,-21 316.2078,-24.5001 316.2078,-17.5001"/>
</g>
</g>
</svg>
