<?xml version="1.0" encoding="UTF-8" standalone="no"?>
<!DOCTYPE svg PUBLIC "-//W3C//DTD SVG 1.1//EN"
 "http://www.w3.org/Graphics/SVG/1.1/DTD/svg11.dtd">
<!-- Generated by graphviz version 2.40.1 (20161225.0304)
 -->
<!-- Title: Asteroids::UI::ClientTextUI::DisplayGrid::calculate_translation Pages: 1 -->
<svg width="636pt" height="50pt"
 viewBox="0.00 0.00 636.00 50.00" xmlns="http://www.w3.org/2000/svg" xmlns:xlink="http://www.w3.org/1999/xlink">
<g id="graph0" class="graph" transform="scale(1 1) rotate(0) translate(4 46)">
<title>Asteroids::UI::ClientTextUI::DisplayGrid::calculate_translation</title>
<polygon fill="#ffffff" stroke="transparent" points="-4,4 -4,-46 632,-46 632,4 -4,4"/>
<!-- Node21 -->
<g id="node1" class="node">
<title>Node21</title>
<polygon fill="#bfbfbf" stroke="#000000" points="0,-.5 0,-41.5 129,-41.5 129,-.5 0,-.5"/>
<text text-anchor="start" x="8" y="-29.5" font-family="Helvetica,sans-Serif" font-size="10.00" fill="#000000">Asteroids::UI::ClientText</text>
<text text-anchor="start" x="8" y="-18.5" font-family="Helvetica,sans-Serif" font-size="10.00" fill="#000000">UI::DisplayGrid::calculate</text>
<text text-anchor="middle" x="64.5" y="-7.5" font-family="Helvetica,sans-Serif" font-size="10.00" fill="#000000">_translation</text>
</g>
<!-- Node22 -->
<g id="node2" class="node">
<title>Node22</title>
<g id="a_node2"><a xlink:href="classAsteroids_1_1UI_1_1ClientTextUI_1_1DisplayGrid.html#a118e0cad34b68aae5b178bd8e2b344c5" target="_top" xlink:title="Asteroids::UI::ClientText\lUI::DisplayGrid::reset">
<polygon fill="#ffffff" stroke="#000000" points="165,-6 165,-36 290,-36 290,-6 165,-6"/>
<text text-anchor="start" x="173" y="-24" font-family="Helvetica,sans-Serif" font-size="10.00" fill="#000000">Asteroids::UI::ClientText</text>
<text text-anchor="middle" x="227.5" y="-13" font-family="Helvetica,sans-Serif" font-size="10.00" fill="#000000">UI::DisplayGrid::reset</text>
</a>
</g>
</g>
<!-- Node21&#45;&gt;Node22 -->
<g id="edge1" class="edge">
<title>Node21&#45;&gt;Node22</title>
<path fill="none" stroke="#191970" d="M139.648,-21C148.1152,-21 156.6744,-21 164.957,-21"/>
<polygon fill="#191970" stroke="#191970" points="139.3903,-17.5001 129.3903,-21 139.3902,-24.5001 139.3903,-17.5001"/>
</g>
<!-- Node23 -->
<g id="node3" class="node">
<title>Node23</title>
<g id="a_node3"><a xlink:href="classAsteroids_1_1UI_1_1ClientTextUI_1_1DisplayGrid.html#a56b4a0b5f6d69ac13c3c7212db3e77b0" target="_top" xlink:title="Asteroids::UI::ClientText\lUI::DisplayGrid::init">
<polygon fill="#ffffff" stroke="#000000" points="326,-6 326,-36 451,-36 451,-6 326,-6"/>
<text text-anchor="start" x="334" y="-24" font-family="Helvetica,sans-Serif" font-size="10.00" fill="#000000">Asteroids::UI::ClientText</text>
<text text-anchor="middle" x="388.5" y="-13" font-family="Helvetica,sans-Serif" font-size="10.00" fill="#000000">UI::DisplayGrid::init</text>
</a>
</g>
</g>
<!-- Node22&#45;&gt;Node23 -->
<g id="edge2" class="edge">
<title>Node22&#45;&gt;Node23</title>
<path fill="none" stroke="#191970" d="M300.2184,-21C308.8129,-21 317.5268,-21 325.9633,-21"/>
<polygon fill="#191970" stroke="#191970" points="300.2078,-17.5001 290.2078,-21 300.2078,-24.5001 300.2078,-17.5001"/>
</g>
<!-- Node24 -->
<g id="node4" class="node">
<title>Node24</title>
<g id="a_node4"><a xlink:href="classAsteroids_1_1UI_1_1ClientTextUI_1_1DisplayGrid.html#a186316077596113cfd3cbb5d0be4922e" target="_top" xlink:title="Asteroids::UI::ClientText\lUI::DisplayGrid::DisplayGrid">
<polygon fill="#ffffff" stroke="#000000" points="487,-6 487,-36 628,-36 628,-6 487,-6"/>
<text text-anchor="start" x="495" y="-24" font-family="Helvetica,sans-Serif" font-size="10.00" fill="#000000">Asteroids::UI::ClientText</text>
<text text-anchor="middle" x="557.5" y="-13" font-family="Helvetica,sans-Serif" font-size="10.00" fill="#000000">UI::DisplayGrid::DisplayGrid</text>
</a>
</g>
</g>
<!-- Node23&#45;&gt;Node24 -->
<g id="edge3" class="edge">
<title>Node23&#45;&gt;Node24</title>
<path fill="none" stroke="#191970" d="M461.5608,-21C469.9478,-21 478.4879,-21 486.8424,-21"/>
<polygon fill="#191970" stroke="#191970" points="461.4294,-17.5001 451.4294,-21 461.4293,-24.5001 461.4294,-17.5001"/>
</g>
</g>
</svg>
