<?xml version="1.0" encoding="UTF-8" standalone="no"?>
<!DOCTYPE svg PUBLIC "-//W3C//DTD SVG 1.1//EN"
 "http://www.w3.org/Graphics/SVG/1.1/DTD/svg11.dtd">
<!-- Generated by graphviz version 2.40.1 (20161225.0304)
 -->
<!-- Title: Asteroids::Domain::Game::Actors::Rect::reset Pages: 1 -->
<svg width="307pt" height="39pt"
 viewBox="0.00 0.00 307.00 39.00" xmlns="http://www.w3.org/2000/svg" xmlns:xlink="http://www.w3.org/1999/xlink">
<g id="graph0" class="graph" transform="scale(1 1) rotate(0) translate(4 35)">
<title>Asteroids::Domain::Game::Actors::Rect::reset</title>
<polygon fill="#ffffff" stroke="transparent" points="-4,4 -4,-35 303,-35 303,4 -4,4"/>
<!-- Node62 -->
<g id="node1" class="node">
<title>Node62</title>
<polygon fill="#bfbfbf" stroke="#000000" points="0,-.5 0,-30.5 132,-30.5 132,-.5 0,-.5"/>
<text text-anchor="start" x="8" y="-18.5" font-family="Helvetica,sans-Serif" font-size="10.00" fill="#000000">Asteroids::Domain::</text>
<text text-anchor="middle" x="66" y="-7.5" font-family="Helvetica,sans-Serif" font-size="10.00" fill="#000000">Game::Actors::Rect::reset</text>
</g>
<!-- Node63 -->
<g id="node2" class="node">
<title>Node63</title>
<g id="a_node2"><a xlink:href="classAsteroids_1_1Domain_1_1Game_1_1Actors_1_1Rect.html#a4e018b8938b343f70672695b58e5fa96" target="_top" xlink:title="Asteroids::Domain::\lGame::Actors::Rect::Rect">
<polygon fill="#ffffff" stroke="#000000" points="168,-.5 168,-30.5 299,-30.5 299,-.5 168,-.5"/>
<text text-anchor="start" x="176" y="-18.5" font-family="Helvetica,sans-Serif" font-size="10.00" fill="#000000">Asteroids::Domain::</text>
<text text-anchor="middle" x="233.5" y="-7.5" font-family="Helvetica,sans-Serif" font-size="10.00" fill="#000000">Game::Actors::Rect::Rect</text>
</a>
</g>
</g>
<!-- Node62&#45;&gt;Node63 -->
<g id="edge1" class="edge">
<title>Node62&#45;&gt;Node63</title>
<path fill="none" stroke="#191970" d="M142.4473,-15.5C150.9077,-15.5 159.4684,-15.5 167.7803,-15.5"/>
<polygon fill="#191970" stroke="#191970" points="142.2005,-12.0001 132.2004,-15.5 142.2004,-19.0001 142.2005,-12.0001"/>
</g>
</g>
</svg>
