<?xml version="1.0" encoding="UTF-8" standalone="no"?>
<!DOCTYPE svg PUBLIC "-//W3C//DTD SVG 1.1//EN"
 "http://www.w3.org/Graphics/SVG/1.1/DTD/svg11.dtd">
<!-- Generated by graphviz version 2.40.1 (20161225.0304)
 -->
<!-- Title: Asteroids::Domain::Game::Randomer::Randomer Pages: 1 -->
<svg width="460pt" height="39pt"
 viewBox="0.00 0.00 460.00 39.00" xmlns="http://www.w3.org/2000/svg" xmlns:xlink="http://www.w3.org/1999/xlink">
<g id="graph0" class="graph" transform="scale(1 1) rotate(0) translate(4 35)">
<title>Asteroids::Domain::Game::Randomer::Randomer</title>
<polygon fill="#ffffff" stroke="transparent" points="-4,4 -4,-35 456,-35 456,4 -4,4"/>
<!-- Node0 -->
<g id="node1" class="node">
<title>Node0</title>
<polygon fill="#bfbfbf" stroke="#000000" points="0,-.5 0,-30.5 145,-30.5 145,-.5 0,-.5"/>
<text text-anchor="start" x="8" y="-18.5" font-family="Helvetica,sans-Serif" font-size="10.00" fill="#000000">Asteroids::Domain::</text>
<text text-anchor="middle" x="72.5" y="-7.5" font-family="Helvetica,sans-Serif" font-size="10.00" fill="#000000">Game::Randomer::Randomer</text>
</g>
<!-- Node1 -->
<g id="node2" class="node">
<title>Node1</title>
<g id="a_node2"><a xlink:href="classAsteroids_1_1Domain_1_1Game_1_1Randomer.html#aaef0f9e57c6743748a2f0b2d944345ee" target="_top" xlink:title="Asteroids::Domain::\lGame::Randomer::init">
<polygon fill="#ffffff" stroke="#000000" points="181,-.5 181,-30.5 294,-30.5 294,-.5 181,-.5"/>
<text text-anchor="start" x="189" y="-18.5" font-family="Helvetica,sans-Serif" font-size="10.00" fill="#000000">Asteroids::Domain::</text>
<text text-anchor="middle" x="237.5" y="-7.5" font-family="Helvetica,sans-Serif" font-size="10.00" fill="#000000">Game::Randomer::init</text>
</a>
</g>
</g>
<!-- Node0&#45;&gt;Node1 -->
<g id="edge1" class="edge">
<title>Node0&#45;&gt;Node1</title>
<path fill="none" stroke="#191970" d="M145.3517,-15.5C153.8215,-15.5 162.4289,-15.5 170.8101,-15.5"/>
<polygon fill="#191970" stroke="#191970" points="170.8968,-19.0001 180.8967,-15.5 170.8967,-12.0001 170.8968,-19.0001"/>
</g>
<!-- Node2 -->
<g id="node3" class="node">
<title>Node2</title>
<g id="a_node3"><a xlink:href="classAsteroids_1_1Domain_1_1Game_1_1Randomer.html#af57f0a4d202d7d2b314964231bf5c5b3" target="_top" xlink:title="Asteroids::Domain::\lGame::Randomer::reset">
<polygon fill="#ffffff" stroke="#000000" points="330,-.5 330,-30.5 452,-30.5 452,-.5 330,-.5"/>
<text text-anchor="start" x="338" y="-18.5" font-family="Helvetica,sans-Serif" font-size="10.00" fill="#000000">Asteroids::Domain::</text>
<text text-anchor="middle" x="391" y="-7.5" font-family="Helvetica,sans-Serif" font-size="10.00" fill="#000000">Game::Randomer::reset</text>
</a>
</g>
</g>
<!-- Node1&#45;&gt;Node2 -->
<g id="edge2" class="edge">
<title>Node1&#45;&gt;Node2</title>
<path fill="none" stroke="#191970" d="M294.2216,-15.5C302.5698,-15.5 311.2578,-15.5 319.8518,-15.5"/>
<polygon fill="#191970" stroke="#191970" points="319.871,-19.0001 329.871,-15.5 319.871,-12.0001 319.871,-19.0001"/>
</g>
</g>
</svg>
