<?xml version="1.0" encoding="UTF-8" standalone="no"?>
<!DOCTYPE svg PUBLIC "-//W3C//DTD SVG 1.1//EN"
 "http://www.w3.org/Graphics/SVG/1.1/DTD/svg11.dtd">
<!-- Generated by graphviz version 2.40.1 (20161225.0304)
 -->
<!-- Title: Asteroids::Domain::Game::Game::maybe_win_round Pages: 1 -->
<svg width="815pt" height="50pt"
 viewBox="0.00 0.00 815.00 50.00" xmlns="http://www.w3.org/2000/svg" xmlns:xlink="http://www.w3.org/1999/xlink">
<g id="graph0" class="graph" transform="scale(1 1) rotate(0) translate(4 46)">
<title>Asteroids::Domain::Game::Game::maybe_win_round</title>
<polygon fill="#ffffff" stroke="transparent" points="-4,4 -4,-46 811,-46 811,4 -4,4"/>
<!-- Node67 -->
<g id="node1" class="node">
<title>Node67</title>
<polygon fill="#bfbfbf" stroke="#000000" points="0,-6 0,-36 160,-36 160,-6 0,-6"/>
<text text-anchor="start" x="8" y="-24" font-family="Helvetica,sans-Serif" font-size="10.00" fill="#000000">Asteroids::Domain::</text>
<text text-anchor="middle" x="80" y="-13" font-family="Helvetica,sans-Serif" font-size="10.00" fill="#000000">Game::Game::maybe_win_round</text>
</g>
<!-- Node68 -->
<g id="node2" class="node">
<title>Node68</title>
<g id="a_node2"><a xlink:href="classAsteroids_1_1Domain_1_1Game_1_1Game.html#ac3e1c5498adb64ea278d1a4b69db412b" target="_top" xlink:title="Asteroids::Domain::\lGame::Game::win_round">
<polygon fill="#ffffff" stroke="#000000" points="196,-6 196,-36 321,-36 321,-6 196,-6"/>
<text text-anchor="start" x="204" y="-24" font-family="Helvetica,sans-Serif" font-size="10.00" fill="#000000">Asteroids::Domain::</text>
<text text-anchor="middle" x="258.5" y="-13" font-family="Helvetica,sans-Serif" font-size="10.00" fill="#000000">Game::Game::win_round</text>
</a>
</g>
</g>
<!-- Node67&#45;&gt;Node68 -->
<g id="edge1" class="edge">
<title>Node67&#45;&gt;Node68</title>
<path fill="none" stroke="#191970" d="M160.1126,-21C168.6125,-21 177.2241,-21 185.6347,-21"/>
<polygon fill="#191970" stroke="#191970" points="185.773,-24.5001 195.773,-21 185.773,-17.5001 185.773,-24.5001"/>
</g>
<!-- Node69 -->
<g id="node3" class="node">
<title>Node69</title>
<g id="a_node3"><a xlink:href="classAsteroids_1_1Domain_1_1Game_1_1Game.html#aa242712e038fce29760d53eb1d57c9fb" target="_top" xlink:title="Asteroids::Domain::\lGame::Game::start_round">
<polygon fill="#ffffff" stroke="#000000" points="357,-6 357,-36 487,-36 487,-6 357,-6"/>
<text text-anchor="start" x="365" y="-24" font-family="Helvetica,sans-Serif" font-size="10.00" fill="#000000">Asteroids::Domain::</text>
<text text-anchor="middle" x="422" y="-13" font-family="Helvetica,sans-Serif" font-size="10.00" fill="#000000">Game::Game::start_round</text>
</a>
</g>
</g>
<!-- Node68&#45;&gt;Node69 -->
<g id="edge2" class="edge">
<title>Node68&#45;&gt;Node69</title>
<path fill="none" stroke="#191970" d="M321.2458,-21C329.6602,-21 338.3591,-21 346.9582,-21"/>
<polygon fill="#191970" stroke="#191970" points="346.9842,-24.5001 356.9841,-21 346.9841,-17.5001 346.9842,-24.5001"/>
</g>
<!-- Node70 -->
<g id="node4" class="node">
<title>Node70</title>
<g id="a_node4"><a xlink:href="classAsteroids_1_1Domain_1_1Game_1_1Game.html#ad3a7040e8cc0b14228f46577ecf2bc78" target="_top" xlink:title="Asteroids::Domain::\lGame::Game::initialize\l_random_rocks">
<polygon fill="#ffffff" stroke="#000000" points="523,-.5 523,-41.5 639,-41.5 639,-.5 523,-.5"/>
<text text-anchor="start" x="531" y="-29.5" font-family="Helvetica,sans-Serif" font-size="10.00" fill="#000000">Asteroids::Domain::</text>
<text text-anchor="start" x="531" y="-18.5" font-family="Helvetica,sans-Serif" font-size="10.00" fill="#000000">Game::Game::initialize</text>
<text text-anchor="middle" x="581" y="-7.5" font-family="Helvetica,sans-Serif" font-size="10.00" fill="#000000">_random_rocks</text>
</a>
</g>
</g>
<!-- Node69&#45;&gt;Node70 -->
<g id="edge3" class="edge">
<title>Node69&#45;&gt;Node70</title>
<path fill="none" stroke="#191970" d="M487.1302,-21C495.5442,-21 504.1804,-21 512.6446,-21"/>
<polygon fill="#191970" stroke="#191970" points="512.8573,-24.5001 522.8573,-21 512.8573,-17.5001 512.8573,-24.5001"/>
</g>
<!-- Node71 -->
<g id="node5" class="node">
<title>Node71</title>
<g id="a_node5"><a xlink:href="classAsteroids_1_1Domain_1_1Game_1_1Game.html#a798922774fed23c593a476338acf7100" target="_top" xlink:title="Asteroids::Domain::\lGame::Game::get_random\l_board_position">
<polygon fill="#ffffff" stroke="#000000" points="675,-.5 675,-41.5 807,-41.5 807,-.5 675,-.5"/>
<text text-anchor="start" x="683" y="-29.5" font-family="Helvetica,sans-Serif" font-size="10.00" fill="#000000">Asteroids::Domain::</text>
<text text-anchor="start" x="683" y="-18.5" font-family="Helvetica,sans-Serif" font-size="10.00" fill="#000000">Game::Game::get_random</text>
<text text-anchor="middle" x="741" y="-7.5" font-family="Helvetica,sans-Serif" font-size="10.00" fill="#000000">_board_position</text>
</a>
</g>
</g>
<!-- Node70&#45;&gt;Node71 -->
<g id="edge4" class="edge">
<title>Node70&#45;&gt;Node71</title>
<path fill="none" stroke="#191970" d="M639.2163,-21C647.5651,-21 656.2565,-21 664.8874,-21"/>
<polygon fill="#191970" stroke="#191970" points="664.9675,-24.5001 674.9674,-21 664.9674,-17.5001 664.9675,-24.5001"/>
</g>
</g>
</svg>
