<?xml version="1.0" encoding="UTF-8" standalone="no"?>
<!DOCTYPE svg PUBLIC "-//W3C//DTD SVG 1.1//EN"
 "http://www.w3.org/Graphics/SVG/1.1/DTD/svg11.dtd">
<!-- Generated by graphviz version 2.40.1 (20161225.0304)
 -->
<!-- Title: Asteroids::Domain::Game::Actors::Rock::initialize_polygon Pages: 1 -->
<!--zoomable 110 -->
<svg id="main" version="1.1" xmlns="http://www.w3.org/2000/svg" xmlns:xlink="http://www.w3.org/1999/xlink" xml:space="preserve" onload="init(evt)">
<style type="text/css"><![CDATA[
.edge:hover path { stroke: red; }
.edge:hover polygon { stroke: red; fill: red; }
]]></style>
<script type="text/javascript"><![CDATA[
var edges = document.getElementsByTagName('g');
if (edges && edges.length) {
  for (var i=0;i<edges.length;i++) {
    if (edges[i].id.substr(0,4)=='edge') {
      edges[i].setAttribute('class','edge');
    }
  }
}
]]></script>
        <defs>
                <circle id="rim" cx="0" cy="0" r="7"/>
                <circle id="rim2" cx="0" cy="0" r="3.5"/>
                <g id="zoomPlus">
                        <use xlink:href="#rim" fill="#404040">
                                <set attributeName="fill" to="#808080" begin="zoomplus.mouseover" end="zoomplus.mouseout"/>
                        </use>
                        <path d="M-4,0h8M0,-4v8" fill="none" stroke="white" stroke-width="1.5" pointer-events="none"/>
                </g>
                <g id="zoomMin">
                        <use xlink:href="#rim" fill="#404040">
                                <set attributeName="fill" to="#808080" begin="zoomminus.mouseover" end="zoomminus.mouseout"/>
                        </use>
                        <path d="M-4,0h8" fill="none" stroke="white" stroke-width="1.5" pointer-events="none"/>
                </g>
                <g id="dirArrow">
                        <path fill="none" stroke="white" stroke-width="1.5" d="M0,-3.0v7 M-2.5,-0.5L0,-3.0L2.5,-0.5"/>
                </g>
               <g id="resetDef">
                       <use xlink:href="#rim2" fill="#404040">
                               <set attributeName="fill" to="#808080" begin="reset.mouseover" end="reset.mouseout"/>
                       </use>
               </g>
        </defs>

<script type="text/javascript">
var viewWidth = 699;
var viewHeight = 110;
var sectionId = 'dynsection-5';
</script>
<script xlink:href="svgpan.js"/>
<svg id="graph" class="graph">
<g id="viewport">
<title>Asteroids::Domain::Game::Actors::Rock::initialize_polygon</title>
<polygon fill="#ffffff" stroke="transparent" points="-4,4 -4,-106 695,-106 695,4 -4,4"/>
<!-- Node24 -->
<g id="node1" class="node">
<title>Node24</title>
<polygon fill="#bfbfbf" stroke="#000000" points="0,-30.5 0,-71.5 113,-71.5 113,-30.5 0,-30.5"/>
<text text-anchor="start" x="8" y="-59.5" font-family="Helvetica,sans-Serif" font-size="10.00" fill="#000000">Asteroids::Domain::</text>
<text text-anchor="start" x="8" y="-48.5" font-family="Helvetica,sans-Serif" font-size="10.00" fill="#000000">Game::Actors::Rock::</text>
<text text-anchor="middle" x="56.5" y="-37.5" font-family="Helvetica,sans-Serif" font-size="10.00" fill="#000000">initialize_polygon</text>
</g>
<!-- Node25 -->
<g id="node2" class="node">
<title>Node25</title>
<g id="a_node2"><a xlink:href="classAsteroids_1_1Domain_1_1Game_1_1Actors_1_1Actor.html#a224abd0a9dff102361ce2a305ba4734f" target="_top" xlink:title="Asteroids::Domain::\lGame::Actors::Actor\l::set_polygon">
<polygon fill="#ffffff" stroke="#000000" points="149,-30.5 149,-71.5 256,-71.5 256,-30.5 149,-30.5"/>
<text text-anchor="start" x="157" y="-59.5" font-family="Helvetica,sans-Serif" font-size="10.00" fill="#000000">Asteroids::Domain::</text>
<text text-anchor="start" x="157" y="-48.5" font-family="Helvetica,sans-Serif" font-size="10.00" fill="#000000">Game::Actors::Actor</text>
<text text-anchor="middle" x="202.5" y="-37.5" font-family="Helvetica,sans-Serif" font-size="10.00" fill="#000000">::set_polygon</text>
</a>
</g>
</g>
<!-- Node24&#45;&gt;Node25 -->
<g id="edge1" class="edge">
<title>Node24&#45;&gt;Node25</title>
<path fill="none" stroke="#191970" d="M113.3655,-51C121.6762,-51 130.2806,-51 138.718,-51"/>
<polygon fill="#191970" stroke="#191970" points="138.8961,-54.5001 148.8961,-51 138.8961,-47.5001 138.8961,-54.5001"/>
</g>
<!-- Node26 -->
<g id="node3" class="node">
<title>Node26</title>
<g id="a_node3"><a xlink:href="classAsteroids_1_1Domain_1_1Game_1_1Actors_1_1Actor.html#a4bb89af7457ff402fa5a4a11d62ab4ca" target="_top" xlink:title="Asteroids::Domain::\lGame::Actors::Actor\l::update_rect">
<polygon fill="#ffffff" stroke="#000000" points="292,-30.5 292,-71.5 399,-71.5 399,-30.5 292,-30.5"/>
<text text-anchor="start" x="300" y="-59.5" font-family="Helvetica,sans-Serif" font-size="10.00" fill="#000000">Asteroids::Domain::</text>
<text text-anchor="start" x="300" y="-48.5" font-family="Helvetica,sans-Serif" font-size="10.00" fill="#000000">Game::Actors::Actor</text>
<text text-anchor="middle" x="345.5" y="-37.5" font-family="Helvetica,sans-Serif" font-size="10.00" fill="#000000">::update_rect</text>
</a>
</g>
</g>
<!-- Node25&#45;&gt;Node26 -->
<g id="edge2" class="edge">
<title>Node25&#45;&gt;Node26</title>
<path fill="none" stroke="#191970" d="M256.1548,-51C264.3808,-51 272.9436,-51 281.3684,-51"/>
<polygon fill="#191970" stroke="#191970" points="281.5445,-54.5001 291.5445,-51 281.5445,-47.5001 281.5445,-54.5001"/>
</g>
<!-- Node27 -->
<g id="node4" class="node">
<title>Node27</title>
<g id="a_node4"><a xlink:href="classAsteroids_1_1Domain_1_1Game_1_1Actors_1_1Rect.html#a0ab06f4fe6e0dbd681c89397f22aa08f" target="_top" xlink:title="Asteroids::Domain::\lGame::Actors::Rect::\ladd_offset">
<polygon fill="#ffffff" stroke="#000000" points="435,-60.5 435,-101.5 545,-101.5 545,-60.5 435,-60.5"/>
<text text-anchor="start" x="443" y="-89.5" font-family="Helvetica,sans-Serif" font-size="10.00" fill="#000000">Asteroids::Domain::</text>
<text text-anchor="start" x="443" y="-78.5" font-family="Helvetica,sans-Serif" font-size="10.00" fill="#000000">Game::Actors::Rect::</text>
<text text-anchor="middle" x="490" y="-67.5" font-family="Helvetica,sans-Serif" font-size="10.00" fill="#000000">add_offset</text>
</a>
</g>
</g>
<!-- Node26&#45;&gt;Node27 -->
<g id="edge3" class="edge">
<title>Node26&#45;&gt;Node27</title>
<path fill="none" stroke="#191970" d="M399.3065,-62.1709C407.6114,-63.8951 416.2648,-65.6917 424.7864,-67.4608"/>
<polygon fill="#191970" stroke="#191970" points="424.1979,-70.9132 434.7006,-69.5192 425.6209,-64.0594 424.1979,-70.9132"/>
</g>
<!-- Node29 -->
<g id="node6" class="node">
<title>Node29</title>
<g id="a_node6"><a xlink:href="classAsteroids_1_1Domain_1_1Game_1_1Actors_1_1Rect.html#a687d0848c13d1b8dfbd2f896636b4145" target="_top" xlink:title="Create a rect from polygon points. ">
<polygon fill="#ffffff" stroke="#000000" points="435,-.5 435,-41.5 545,-41.5 545,-.5 435,-.5"/>
<text text-anchor="start" x="443" y="-29.5" font-family="Helvetica,sans-Serif" font-size="10.00" fill="#000000">Asteroids::Domain::</text>
<text text-anchor="start" x="443" y="-18.5" font-family="Helvetica,sans-Serif" font-size="10.00" fill="#000000">Game::Actors::Rect::</text>
<text text-anchor="middle" x="490" y="-7.5" font-family="Helvetica,sans-Serif" font-size="10.00" fill="#000000">consume_polygon</text>
</a>
</g>
</g>
<!-- Node26&#45;&gt;Node29 -->
<g id="edge5" class="edge">
<title>Node26&#45;&gt;Node29</title>
<path fill="none" stroke="#191970" d="M399.3065,-39.8291C407.6114,-38.1049 416.2648,-36.3083 424.7864,-34.5392"/>
<polygon fill="#191970" stroke="#191970" points="425.6209,-37.9406 434.7006,-32.4808 424.1979,-31.0868 425.6209,-37.9406"/>
</g>
<!-- Node28 -->
<g id="node5" class="node">
<title>Node28</title>
<g id="a_node5"><a xlink:href="classAsteroids_1_1Domain_1_1Game_1_1Actors_1_1Rect.html#a40c593b8be9c243d6cdc30e2f8ee67df" target="_top" xlink:title="Asteroids::Domain::\lGame::Actors::Rect::\lupdate_dimensions">
<polygon fill="#ffffff" stroke="#000000" points="581,-30.5 581,-71.5 691,-71.5 691,-30.5 581,-30.5"/>
<text text-anchor="start" x="589" y="-59.5" font-family="Helvetica,sans-Serif" font-size="10.00" fill="#000000">Asteroids::Domain::</text>
<text text-anchor="start" x="589" y="-48.5" font-family="Helvetica,sans-Serif" font-size="10.00" fill="#000000">Game::Actors::Rect::</text>
<text text-anchor="middle" x="636" y="-37.5" font-family="Helvetica,sans-Serif" font-size="10.00" fill="#000000">update_dimensions</text>
</a>
</g>
</g>
<!-- Node27&#45;&gt;Node28 -->
<g id="edge4" class="edge">
<title>Node27&#45;&gt;Node28</title>
<path fill="none" stroke="#191970" d="M545.1963,-69.6583C553.5541,-67.9409 562.2434,-66.1555 570.7888,-64.3996"/>
<polygon fill="#191970" stroke="#191970" points="571.6347,-67.7989 580.7256,-62.3578 570.2258,-60.9422 571.6347,-67.7989"/>
</g>
<!-- Node29&#45;&gt;Node28 -->
<g id="edge6" class="edge">
<title>Node29&#45;&gt;Node28</title>
<path fill="none" stroke="#191970" d="M545.1963,-32.3417C553.5541,-34.0591 562.2434,-35.8445 570.7888,-37.6004"/>
<polygon fill="#191970" stroke="#191970" points="570.2258,-41.0578 580.7256,-39.6422 571.6347,-34.2011 570.2258,-41.0578"/>
</g>
</g>
</svg>
        <g id="navigator" transform="translate(0 0)" fill="#404254">
                <rect fill="#f2f5e9" fill-opacity="0.5" stroke="#606060" stroke-width=".5" x="0" y="0" width="60" height="60"/>
                <use id="zoomplus" xlink:href="#zoomPlus" x="17" y="9" onmousedown="handleZoom(evt,'in')"/>
                <use id="zoomminus" xlink:href="#zoomMin" x="42" y="9" onmousedown="handleZoom(evt,'out')"/>
                <use id="reset" xlink:href="#resetDef" x="30" y="36" onmousedown="handleReset()"/>
                <g id="arrowUp" xlink:href="#dirArrow" transform="translate(30 24)" onmousedown="handlePan(0,-1)">
                  <use xlink:href="#rim" fill="#404040">
                        <set attributeName="fill" to="#808080" begin="arrowUp.mouseover" end="arrowUp.mouseout"/>
                  </use>
                  <path fill="none" stroke="white" stroke-width="1.5" d="M0,-3.0v7 M-2.5,-0.5L0,-3.0L2.5,-0.5"/>
                </g>
                <g id="arrowRight" xlink:href="#dirArrow" transform="rotate(90) translate(36 -43)" onmousedown="handlePan(1,0)">
                  <use xlink:href="#rim" fill="#404040">
                        <set attributeName="fill" to="#808080" begin="arrowRight.mouseover" end="arrowRight.mouseout"/>
                  </use>
                  <path fill="none" stroke="white" stroke-width="1.5" d="M0,-3.0v7 M-2.5,-0.5L0,-3.0L2.5,-0.5"/>
                </g>
                <g id="arrowDown" xlink:href="#dirArrow" transform="rotate(180) translate(-30 -48)" onmousedown="handlePan(0,1)">
                  <use xlink:href="#rim" fill="#404040">
                        <set attributeName="fill" to="#808080" begin="arrowDown.mouseover" end="arrowDown.mouseout"/>
                  </use>
                  <path fill="none" stroke="white" stroke-width="1.5" d="M0,-3.0v7 M-2.5,-0.5L0,-3.0L2.5,-0.5"/>
                </g>
                <g id="arrowLeft" xlink:href="#dirArrow" transform="rotate(270) translate(-36 17)" onmousedown="handlePan(-1,0)">
                  <use xlink:href="#rim" fill="#404040">
                        <set attributeName="fill" to="#808080" begin="arrowLeft.mouseover" end="arrowLeft.mouseout"/>
                  </use>
                  <path fill="none" stroke="white" stroke-width="1.5" d="M0,-3.0v7 M-2.5,-0.5L0,-3.0L2.5,-0.5"/>
                </g>
        </g>
        <svg viewBox="0 0 15 15" width="100%" height="30px" preserveAspectRatio="xMaxYMin meet">
         <g id="arrow_out" transform="scale(0.3 0.3)">
          <a xlink:href="classAsteroids_1_1Domain_1_1Game_1_1Actors_1_1Rock_aa2a9c917715b56e4584f514c930c4690_cgraph_org.svg" target="_base">
           <rect id="button" ry="5" rx="5" y="6" x="6" height="38" width="38"
                fill="#f2f5e9" fill-opacity="0.5" stroke="#606060" stroke-width="1.0"/>
           <path id="arrow"
             d="M 11.500037,31.436501 C 11.940474,20.09759 22.043105,11.32322 32.158766,21.979434 L 37.068811,17.246167 C 37.068811,17.246167 37.088388,32 37.088388,32 L 22.160133,31.978069 C 22.160133,31.978069 26.997745,27.140456 26.997745,27.140456 C 18.528582,18.264221 13.291696,25.230495 11.500037,31.436501 z"
             style="fill:#404040;"/>
          </a>
         </g>
        </svg>
</svg>
