<?xml version="1.0" encoding="UTF-8" standalone="no"?>
<!DOCTYPE svg PUBLIC "-//W3C//DTD SVG 1.1//EN"
 "http://www.w3.org/Graphics/SVG/1.1/DTD/svg11.dtd">
<!-- Generated by graphviz version 2.40.1 (20161225.0304)
 -->
<!-- Title: Asteroids::Domain::Game::Actors::LongRock Pages: 1 -->
<!--zoomable 1440 -->
<svg id="main" version="1.1" xmlns="http://www.w3.org/2000/svg" xmlns:xlink="http://www.w3.org/1999/xlink" xml:space="preserve" onload="init(evt)">
<style type="text/css"><![CDATA[
.edge:hover path { stroke: red; }
.edge:hover polygon { stroke: red; fill: red; }
]]></style>
<script type="text/javascript"><![CDATA[
var edges = document.getElementsByTagName('g');
if (edges && edges.length) {
  for (var i=0;i<edges.length;i++) {
    if (edges[i].id.substr(0,4)=='edge') {
      edges[i].setAttribute('class','edge');
    }
  }
}
]]></script>
        <defs>
                <circle id="rim" cx="0" cy="0" r="7"/>
                <circle id="rim2" cx="0" cy="0" r="3.5"/>
                <g id="zoomPlus">
                        <use xlink:href="#rim" fill="#404040">
                                <set attributeName="fill" to="#808080" begin="zoomplus.mouseover" end="zoomplus.mouseout"/>
                        </use>
                        <path d="M-4,0h8M0,-4v8" fill="none" stroke="white" stroke-width="1.5" pointer-events="none"/>
                </g>
                <g id="zoomMin">
                        <use xlink:href="#rim" fill="#404040">
                                <set attributeName="fill" to="#808080" begin="zoomminus.mouseover" end="zoomminus.mouseout"/>
                        </use>
                        <path d="M-4,0h8" fill="none" stroke="white" stroke-width="1.5" pointer-events="none"/>
                </g>
                <g id="dirArrow">
                        <path fill="none" stroke="white" stroke-width="1.5" d="M0,-3.0v7 M-2.5,-0.5L0,-3.0L2.5,-0.5"/>
                </g>
               <g id="resetDef">
                       <use xlink:href="#rim2" fill="#404040">
                               <set attributeName="fill" to="#808080" begin="reset.mouseover" end="reset.mouseout"/>
                       </use>
               </g>
        </defs>

<script type="text/javascript">
var viewWidth = 810;
var viewHeight = 1440;
var sectionId = 'dynsection-1';
</script>
<script xlink:href="svgpan.js"/>
<svg id="graph" class="graph">
<g id="viewport">
<title>Asteroids::Domain::Game::Actors::LongRock</title>
<polygon fill="#ffffff" stroke="transparent" points="-4,4 -4,-1436 805.5,-1436 805.5,4 -4,4"/>
<!-- Node4 -->
<g id="node1" class="node">
<title>Node4</title>
<polygon fill="#bfbfbf" stroke="#000000" points="299.5,-.5 299.5,-79.5 427.5,-79.5 427.5,-.5 299.5,-.5"/>
<text text-anchor="start" x="307.5" y="-67.5" font-family="Helvetica,sans-Serif" font-size="10.00" fill="#000000">Asteroids::Domain::</text>
<text text-anchor="middle" x="363.5" y="-56.5" font-family="Helvetica,sans-Serif" font-size="10.00" fill="#000000">Game::Actors::LongRock</text>
<polyline fill="none" stroke="#000000" points="299.5,-49.5 427.5,-49.5 "/>
<text text-anchor="middle" x="363.5" y="-37.5" font-family="Helvetica,sans-Serif" font-size="10.00" fill="#000000"> </text>
<polyline fill="none" stroke="#000000" points="299.5,-30.5 427.5,-30.5 "/>
<text text-anchor="start" x="307.5" y="-18.5" font-family="Helvetica,sans-Serif" font-size="10.00" fill="#000000">+ LongRock()</text>
<text text-anchor="start" x="307.5" y="-7.5" font-family="Helvetica,sans-Serif" font-size="10.00" fill="#000000">&#45; initialize_polygon()</text>
</g>
<!-- Node5 -->
<g id="node2" class="node">
<title>Node5</title>
<g id="a_node2"><a xlink:href="classAsteroids_1_1Domain_1_1Game_1_1Actors_1_1Rock.html" target="_top" xlink:title="A rock is an actor that floats within the game; Can be shot by player; Can smash player. ">
<polygon fill="#ffffff" stroke="#000000" points="310,-117.5 310,-218.5 417,-218.5 417,-117.5 310,-117.5"/>
<text text-anchor="start" x="318" y="-206.5" font-family="Helvetica,sans-Serif" font-size="10.00" fill="#000000">Asteroids::Domain::</text>
<text text-anchor="middle" x="363.5" y="-195.5" font-family="Helvetica,sans-Serif" font-size="10.00" fill="#000000">Game::Actors::Rock</text>
<polyline fill="none" stroke="#000000" points="310,-188.5 417,-188.5 "/>
<text text-anchor="middle" x="363.5" y="-176.5" font-family="Helvetica,sans-Serif" font-size="10.00" fill="#000000"> </text>
<polyline fill="none" stroke="#000000" points="310,-169.5 417,-169.5 "/>
<text text-anchor="start" x="318" y="-157.5" font-family="Helvetica,sans-Serif" font-size="10.00" fill="#000000">+ Rock()</text>
<text text-anchor="start" x="318" y="-146.5" font-family="Helvetica,sans-Serif" font-size="10.00" fill="#000000">+ reset()</text>
<text text-anchor="start" x="318" y="-135.5" font-family="Helvetica,sans-Serif" font-size="10.00" fill="#000000"># init()</text>
<text text-anchor="start" x="318" y="-124.5" font-family="Helvetica,sans-Serif" font-size="10.00" fill="#000000"># initialize_polygon()</text>
</a>
</g>
</g>
<!-- Node5&#45;&gt;Node4 -->
<g id="edge1" class="edge">
<title>Node5&#45;&gt;Node4</title>
<path fill="none" stroke="#191970" d="M363.5,-107.2732C363.5,-97.8606 363.5,-88.3534 363.5,-79.5688"/>
<polygon fill="none" stroke="#191970" points="360.0001,-107.411 363.5,-117.411 367.0001,-107.411 360.0001,-107.411"/>
</g>
<!-- Node6 -->
<g id="node3" class="node">
<title>Node6</title>
<g id="a_node3"><a xlink:href="classAsteroids_1_1Domain_1_1Game_1_1Actors_1_1Actor.html" target="_top" xlink:title="Implementation of ActorInterface. ">
<polygon fill="#ffffff" stroke="#000000" points="295,-256.5 295,-786.5 432,-786.5 432,-256.5 295,-256.5"/>
<text text-anchor="start" x="303" y="-774.5" font-family="Helvetica,sans-Serif" font-size="10.00" fill="#000000">Asteroids::Domain::</text>
<text text-anchor="middle" x="363.5" y="-763.5" font-family="Helvetica,sans-Serif" font-size="10.00" fill="#000000">Game::Actors::Actor</text>
<polyline fill="none" stroke="#000000" points="295,-756.5 432,-756.5 "/>
<text text-anchor="start" x="303" y="-744.5" font-family="Helvetica,sans-Serif" font-size="10.00" fill="#000000"># _input_down</text>
<text text-anchor="start" x="303" y="-733.5" font-family="Helvetica,sans-Serif" font-size="10.00" fill="#000000"># _input_fire</text>
<text text-anchor="start" x="303" y="-722.5" font-family="Helvetica,sans-Serif" font-size="10.00" fill="#000000"># _input_left</text>
<text text-anchor="start" x="303" y="-711.5" font-family="Helvetica,sans-Serif" font-size="10.00" fill="#000000"># _input_right</text>
<text text-anchor="start" x="303" y="-700.5" font-family="Helvetica,sans-Serif" font-size="10.00" fill="#000000"># _input_up</text>
<text text-anchor="start" x="303" y="-689.5" font-family="Helvetica,sans-Serif" font-size="10.00" fill="#000000">&#45; _bullet_speed</text>
<text text-anchor="start" x="303" y="-678.5" font-family="Helvetica,sans-Serif" font-size="10.00" fill="#000000">&#45; _lifetime_ticks</text>
<text text-anchor="start" x="303" y="-667.5" font-family="Helvetica,sans-Serif" font-size="10.00" fill="#000000">&#45; _pos_x</text>
<text text-anchor="start" x="303" y="-656.5" font-family="Helvetica,sans-Serif" font-size="10.00" fill="#000000">&#45; _pos_y</text>
<text text-anchor="start" x="303" y="-645.5" font-family="Helvetica,sans-Serif" font-size="10.00" fill="#000000">&#45; _rotation_radians</text>
<text text-anchor="start" x="303" y="-634.5" font-family="Helvetica,sans-Serif" font-size="10.00" fill="#000000">&#45; _wants_to_be_deleted</text>
<polyline fill="none" stroke="#000000" points="295,-627.5 432,-627.5 "/>
<text text-anchor="start" x="303" y="-615.5" font-family="Helvetica,sans-Serif" font-size="10.00" fill="#000000">+ Actor()</text>
<text text-anchor="start" x="303" y="-604.5" font-family="Helvetica,sans-Serif" font-size="10.00" fill="#000000">+ adjust_rotation()</text>
<text text-anchor="start" x="303" y="-593.5" font-family="Helvetica,sans-Serif" font-size="10.00" fill="#000000">+ check_collision()</text>
<text text-anchor="start" x="303" y="-582.5" font-family="Helvetica,sans-Serif" font-size="10.00" fill="#000000">+ check_collision()</text>
<text text-anchor="start" x="303" y="-571.5" font-family="Helvetica,sans-Serif" font-size="10.00" fill="#000000">+ clear_input()</text>
<text text-anchor="start" x="303" y="-560.5" font-family="Helvetica,sans-Serif" font-size="10.00" fill="#000000">+ get_fired_bullets()</text>
<text text-anchor="start" x="303" y="-549.5" font-family="Helvetica,sans-Serif" font-size="10.00" fill="#000000">+ get_lifetime_ticks()</text>
<text text-anchor="start" x="303" y="-538.5" font-family="Helvetica,sans-Serif" font-size="10.00" fill="#000000">+ get_polygon()</text>
<text text-anchor="start" x="303" y="-527.5" font-family="Helvetica,sans-Serif" font-size="10.00" fill="#000000">+ get_position()</text>
<text text-anchor="start" x="303" y="-516.5" font-family="Helvetica,sans-Serif" font-size="10.00" fill="#000000">+ get_rect()</text>
<text text-anchor="start" x="303" y="-505.5" font-family="Helvetica,sans-Serif" font-size="10.00" fill="#000000">+ get_rotated_polygon()</text>
<text text-anchor="start" x="303" y="-494.5" font-family="Helvetica,sans-Serif" font-size="10.00" fill="#000000">+ get_rotation()</text>
<text text-anchor="start" x="303" y="-483.5" font-family="Helvetica,sans-Serif" font-size="10.00" fill="#000000">+ get_x()</text>
<text text-anchor="start" x="303" y="-472.5" font-family="Helvetica,sans-Serif" font-size="10.00" fill="#000000">+ get_y()</text>
<text text-anchor="start" x="303" y="-461.5" font-family="Helvetica,sans-Serif" font-size="10.00" fill="#000000">+ reset()</text>
<text text-anchor="start" x="303" y="-450.5" font-family="Helvetica,sans-Serif" font-size="10.00" fill="#000000">+ rotate_polygon()</text>
<text text-anchor="start" x="303" y="-439.5" font-family="Helvetica,sans-Serif" font-size="10.00" fill="#000000">+ set_input_down()</text>
<text text-anchor="start" x="303" y="-428.5" font-family="Helvetica,sans-Serif" font-size="10.00" fill="#000000">+ set_input_fire()</text>
<text text-anchor="start" x="303" y="-417.5" font-family="Helvetica,sans-Serif" font-size="10.00" fill="#000000">+ set_input_left()</text>
<text text-anchor="start" x="303" y="-406.5" font-family="Helvetica,sans-Serif" font-size="10.00" fill="#000000">+ set_input_right()</text>
<text text-anchor="start" x="303" y="-395.5" font-family="Helvetica,sans-Serif" font-size="10.00" fill="#000000">+ set_input_up()</text>
<text text-anchor="start" x="303" y="-384.5" font-family="Helvetica,sans-Serif" font-size="10.00" fill="#000000">+ set_polygon()</text>
<text text-anchor="start" x="303" y="-373.5" font-family="Helvetica,sans-Serif" font-size="10.00" fill="#000000">+ set_position()</text>
<text text-anchor="start" x="303" y="-362.5" font-family="Helvetica,sans-Serif" font-size="10.00" fill="#000000">+ set_rotation()</text>
<text text-anchor="start" x="303" y="-351.5" font-family="Helvetica,sans-Serif" font-size="10.00" fill="#000000">+ set_velocity()</text>
<text text-anchor="start" x="303" y="-340.5" font-family="Helvetica,sans-Serif" font-size="10.00" fill="#000000">+ update()</text>
<text text-anchor="start" x="303" y="-329.5" font-family="Helvetica,sans-Serif" font-size="10.00" fill="#000000">+ wants_to_be_deleted()</text>
<text text-anchor="start" x="303" y="-318.5" font-family="Helvetica,sans-Serif" font-size="10.00" fill="#000000"># deleteme()</text>
<text text-anchor="start" x="303" y="-307.5" font-family="Helvetica,sans-Serif" font-size="10.00" fill="#000000"># fire_bullet()</text>
<text text-anchor="start" x="303" y="-296.5" font-family="Helvetica,sans-Serif" font-size="10.00" fill="#000000"># set_bullet_speed()</text>
<text text-anchor="start" x="303" y="-285.5" font-family="Helvetica,sans-Serif" font-size="10.00" fill="#000000"># update_rect()</text>
<text text-anchor="start" x="303" y="-274.5" font-family="Helvetica,sans-Serif" font-size="10.00" fill="#000000">&#45; apply_vector_to_position()</text>
<text text-anchor="start" x="303" y="-263.5" font-family="Helvetica,sans-Serif" font-size="10.00" fill="#000000">&#45; init()</text>
</a>
</g>
</g>
<!-- Node6&#45;&gt;Node5 -->
<g id="edge2" class="edge">
<title>Node6&#45;&gt;Node5</title>
<path fill="none" stroke="#191970" d="M363.5,-246.2312C363.5,-236.3645 363.5,-227.0995 363.5,-218.6391"/>
<polygon fill="none" stroke="#191970" points="360.0001,-246.2911 363.5,-256.2911 367.0001,-246.2911 360.0001,-246.2911"/>
</g>
<!-- Node7 -->
<g id="node4" class="node">
<title>Node7</title>
<g id="a_node4"><a xlink:href="classAsteroids_1_1Domain_1_1Game_1_1Actors_1_1ActorInterface.html" target="_top" xlink:title="Main superclass for game board actors. ">
<polygon fill="#ffffff" stroke="#000000" points="0,-845.5 0,-1023.5 145,-1023.5 145,-845.5 0,-845.5"/>
<text text-anchor="start" x="8" y="-1011.5" font-family="Helvetica,sans-Serif" font-size="10.00" fill="#000000">Asteroids::Domain::</text>
<text text-anchor="middle" x="72.5" y="-1000.5" font-family="Helvetica,sans-Serif" font-size="10.00" fill="#000000">Game::Actors::ActorInterface</text>
<polyline fill="none" stroke="#000000" points="0,-993.5 145,-993.5 "/>
<text text-anchor="middle" x="72.5" y="-981.5" font-family="Helvetica,sans-Serif" font-size="10.00" fill="#000000"> </text>
<polyline fill="none" stroke="#000000" points="0,-974.5 145,-974.5 "/>
<text text-anchor="start" x="8" y="-962.5" font-family="Helvetica,sans-Serif" font-size="10.00" fill="#000000">+ clear_input()</text>
<text text-anchor="start" x="8" y="-951.5" font-family="Helvetica,sans-Serif" font-size="10.00" fill="#000000">+ get_polygon()</text>
<text text-anchor="start" x="8" y="-940.5" font-family="Helvetica,sans-Serif" font-size="10.00" fill="#000000">+ get_rotated_polygon()</text>
<text text-anchor="start" x="8" y="-929.5" font-family="Helvetica,sans-Serif" font-size="10.00" fill="#000000">+ get_x()</text>
<text text-anchor="start" x="8" y="-918.5" font-family="Helvetica,sans-Serif" font-size="10.00" fill="#000000">+ get_y()</text>
<text text-anchor="start" x="8" y="-907.5" font-family="Helvetica,sans-Serif" font-size="10.00" fill="#000000">+ set_input_down()</text>
<text text-anchor="start" x="8" y="-896.5" font-family="Helvetica,sans-Serif" font-size="10.00" fill="#000000">+ set_input_fire()</text>
<text text-anchor="start" x="8" y="-885.5" font-family="Helvetica,sans-Serif" font-size="10.00" fill="#000000">+ set_input_left()</text>
<text text-anchor="start" x="8" y="-874.5" font-family="Helvetica,sans-Serif" font-size="10.00" fill="#000000">+ set_input_right()</text>
<text text-anchor="start" x="8" y="-863.5" font-family="Helvetica,sans-Serif" font-size="10.00" fill="#000000">+ set_input_up()</text>
<text text-anchor="start" x="8" y="-852.5" font-family="Helvetica,sans-Serif" font-size="10.00" fill="#000000">+ set_position()</text>
</a>
</g>
</g>
<!-- Node7&#45;&gt;Node6 -->
<g id="edge3" class="edge">
<title>Node7&#45;&gt;Node6</title>
<path fill="none" stroke="#191970" d="M141.1566,-837.0595C187.5659,-771.1934 248.6029,-684.5671 294.9828,-618.7426"/>
<polygon fill="none" stroke="#191970" points="138.1832,-835.203 135.2844,-845.3936 143.9054,-839.2349 138.1832,-835.203"/>
</g>
<!-- Node8 -->
<g id="node5" class="node">
<title>Node8</title>
<g id="a_node5"><a xlink:href="classAsteroids_1_1Domain_1_1Game_1_1Actors_1_1Rect.html" target="_top" xlink:title="Convenience class to help manage actor rectangle boundaries and collisions. ">
<polygon fill="#ffffff" stroke="#000000" points="163.5,-834.5 163.5,-1034.5 279.5,-1034.5 279.5,-834.5 163.5,-834.5"/>
<text text-anchor="start" x="171.5" y="-1022.5" font-family="Helvetica,sans-Serif" font-size="10.00" fill="#000000">Asteroids::Domain::</text>
<text text-anchor="middle" x="221.5" y="-1011.5" font-family="Helvetica,sans-Serif" font-size="10.00" fill="#000000">Game::Actors::Rect</text>
<polyline fill="none" stroke="#000000" points="163.5,-1004.5 279.5,-1004.5 "/>
<text text-anchor="start" x="171.5" y="-992.5" font-family="Helvetica,sans-Serif" font-size="10.00" fill="#000000">+ height</text>
<text text-anchor="start" x="171.5" y="-981.5" font-family="Helvetica,sans-Serif" font-size="10.00" fill="#000000">+ width</text>
<text text-anchor="start" x="171.5" y="-970.5" font-family="Helvetica,sans-Serif" font-size="10.00" fill="#000000">+ x1</text>
<text text-anchor="start" x="171.5" y="-959.5" font-family="Helvetica,sans-Serif" font-size="10.00" fill="#000000">+ x2</text>
<text text-anchor="start" x="171.5" y="-948.5" font-family="Helvetica,sans-Serif" font-size="10.00" fill="#000000">+ y1</text>
<text text-anchor="start" x="171.5" y="-937.5" font-family="Helvetica,sans-Serif" font-size="10.00" fill="#000000">+ y2</text>
<polyline fill="none" stroke="#000000" points="163.5,-930.5 279.5,-930.5 "/>
<text text-anchor="start" x="171.5" y="-918.5" font-family="Helvetica,sans-Serif" font-size="10.00" fill="#000000">+ Rect()</text>
<text text-anchor="start" x="171.5" y="-907.5" font-family="Helvetica,sans-Serif" font-size="10.00" fill="#000000">+ add_offset()</text>
<text text-anchor="start" x="171.5" y="-896.5" font-family="Helvetica,sans-Serif" font-size="10.00" fill="#000000">+ collides_with_rect()</text>
<text text-anchor="start" x="171.5" y="-885.5" font-family="Helvetica,sans-Serif" font-size="10.00" fill="#000000">+ is_point_within()</text>
<text text-anchor="start" x="171.5" y="-874.5" font-family="Helvetica,sans-Serif" font-size="10.00" fill="#000000">+ reset()</text>
<text text-anchor="start" x="171.5" y="-863.5" font-family="Helvetica,sans-Serif" font-size="10.00" fill="#000000">+ to_string()</text>
<text text-anchor="start" x="171.5" y="-852.5" font-family="Helvetica,sans-Serif" font-size="10.00" fill="#000000">+ update_dimensions()</text>
<text text-anchor="start" x="171.5" y="-841.5" font-family="Helvetica,sans-Serif" font-size="10.00" fill="#000000">+ consume_polygon()</text>
</a>
</g>
</g>
<!-- Node8&#45;&gt;Node6 -->
<g id="edge4" class="edge">
<title>Node8&#45;&gt;Node6</title>
<path fill="none" stroke="#404040" d="M255.9648,-834.2607C266.5941,-803.3461 278.7249,-768.0641 290.918,-732.6011"/>
<polygon fill="none" stroke="#404040" points="290.9754,-732.4341 289.1436,-725.4595 294.8772,-721.0861 296.7089,-728.0607 290.9754,-732.4341"/>
<text text-anchor="middle" x="277.5" y="-808" font-family="Helvetica,sans-Serif" font-size="10.00" fill="#000000"> &#45;_rect</text>
</g>
<!-- Node9 -->
<g id="node6" class="node">
<title>Node9</title>
<polygon fill="#ffffff" stroke="#bfbfbf" points="297.5,-895 297.5,-974 429.5,-974 429.5,-895 297.5,-895"/>
<text text-anchor="start" x="305.5" y="-962" font-family="Helvetica,sans-Serif" font-size="10.00" fill="#000000">std::vector&lt; std::shared</text>
<text text-anchor="start" x="305.5" y="-951" font-family="Helvetica,sans-Serif" font-size="10.00" fill="#000000">_ptr&lt; Asteroids::Domain</text>
<text text-anchor="middle" x="363.5" y="-940" font-family="Helvetica,sans-Serif" font-size="10.00" fill="#000000">::Game::Actors::Bullet &gt; &gt;</text>
<polyline fill="none" stroke="#bfbfbf" points="297.5,-933 429.5,-933 "/>
<text text-anchor="start" x="305.5" y="-921" font-family="Helvetica,sans-Serif" font-size="10.00" fill="#000000">+ elements</text>
<polyline fill="none" stroke="#bfbfbf" points="297.5,-914 429.5,-914 "/>
<text text-anchor="middle" x="363.5" y="-902" font-family="Helvetica,sans-Serif" font-size="10.00" fill="#000000"> </text>
</g>
<!-- Node9&#45;&gt;Node6 -->
<g id="edge5" class="edge">
<title>Node9&#45;&gt;Node6</title>
<path fill="none" stroke="#404040" d="M363.5,-894.8998C363.5,-870.3967 363.5,-836.5293 363.5,-799.1138"/>
<polygon fill="none" stroke="#404040" points="363.5001,-798.8486 359.5,-792.8486 363.5,-786.8486 367.5,-792.8485 363.5001,-798.8486"/>
<text text-anchor="middle" x="395.5" y="-808" font-family="Helvetica,sans-Serif" font-size="10.00" fill="#000000"> &#45;_fired_bullets</text>
</g>
<!-- Node10 -->
<g id="node7" class="node">
<title>Node10</title>
<g id="a_node7"><a xlink:title="STL class. ">
<polygon fill="#ffffff" stroke="#bfbfbf" points="454,-1187 454,-1244 541,-1244 541,-1187 454,-1187"/>
<text text-anchor="middle" x="497.5" y="-1232" font-family="Helvetica,sans-Serif" font-size="10.00" fill="#000000">std::vector&lt; T &gt;</text>
<polyline fill="none" stroke="#bfbfbf" points="454,-1225 541,-1225 "/>
<text text-anchor="middle" x="497.5" y="-1213" font-family="Helvetica,sans-Serif" font-size="10.00" fill="#000000"> </text>
<polyline fill="none" stroke="#bfbfbf" points="454,-1206 541,-1206 "/>
<text text-anchor="middle" x="497.5" y="-1194" font-family="Helvetica,sans-Serif" font-size="10.00" fill="#000000"> </text>
</a>
</g>
</g>
<!-- Node10&#45;&gt;Node9 -->
<g id="edge6" class="edge">
<title>Node10&#45;&gt;Node9</title>
<path fill="none" stroke="#ffa500" d="M456.5322,-1179.8063C431.819,-1155.8454 402.0144,-1122.139 385.5,-1086 369.2616,-1050.4649 364.418,-1005.7859 363.2372,-974.1812"/>
<polygon fill="#ffa500" stroke="#ffa500" points="454.3584,-1182.569 464.018,-1186.9215 459.181,-1177.4953 454.3584,-1182.569"/>
<text text-anchor="start" x="385.5" y="-1078" font-family="Helvetica,sans-Serif" font-size="10.00" fill="#000000"> &lt; std::shared_ptr&lt;</text>
<text text-anchor="start" x="385.5" y="-1067" font-family="Helvetica,sans-Serif" font-size="10.00" fill="#000000"> Asteroids::Domain::</text>
<text text-anchor="middle" x="440.5" y="-1056" font-family="Helvetica,sans-Serif" font-size="10.00" fill="#000000">Game::Actors::Bullet &gt; &gt;</text>
</g>
<!-- Node15 -->
<g id="node12" class="node">
<title>Node15</title>
<polygon fill="#ffffff" stroke="#bfbfbf" points="448,-900.5 448,-968.5 555,-968.5 555,-900.5 448,-900.5"/>
<text text-anchor="start" x="456" y="-956.5" font-family="Helvetica,sans-Serif" font-size="10.00" fill="#000000">std::vector&lt; std::pair</text>
<text text-anchor="middle" x="501.5" y="-945.5" font-family="Helvetica,sans-Serif" font-size="10.00" fill="#000000">&lt; double, double &gt; &gt;</text>
<polyline fill="none" stroke="#bfbfbf" points="448,-938.5 555,-938.5 "/>
<text text-anchor="start" x="456" y="-926.5" font-family="Helvetica,sans-Serif" font-size="10.00" fill="#000000">+ elements</text>
<polyline fill="none" stroke="#bfbfbf" points="448,-919.5 555,-919.5 "/>
<text text-anchor="middle" x="501.5" y="-907.5" font-family="Helvetica,sans-Serif" font-size="10.00" fill="#000000"> </text>
</g>
<!-- Node10&#45;&gt;Node15 -->
<g id="edge13" class="edge">
<title>Node10&#45;&gt;Node15</title>
<path fill="none" stroke="#ffa500" d="M498.0529,-1176.6602C498.8388,-1121.4485 500.2664,-1021.1579 501.014,-968.644"/>
<polygon fill="#ffa500" stroke="#ffa500" points="494.5521,-1176.6998 497.9093,-1186.7486 501.5513,-1176.7995 494.5521,-1176.6998"/>
<text text-anchor="start" x="500.5" y="-1072.5" font-family="Helvetica,sans-Serif" font-size="10.00" fill="#000000"> &lt; std::pair&lt; double,</text>
<text text-anchor="middle" x="544.5" y="-1061.5" font-family="Helvetica,sans-Serif" font-size="10.00" fill="#000000"> double &gt; &gt;</text>
</g>
<!-- Node11 -->
<g id="node8" class="node">
<title>Node11</title>
<polygon fill="#ffffff" stroke="#bfbfbf" points="540,-1374.5 540,-1431.5 569,-1431.5 569,-1374.5 540,-1374.5"/>
<text text-anchor="middle" x="554.5" y="-1419.5" font-family="Helvetica,sans-Serif" font-size="10.00" fill="#000000">T</text>
<polyline fill="none" stroke="#bfbfbf" points="540,-1412.5 569,-1412.5 "/>
<text text-anchor="middle" x="554.5" y="-1400.5" font-family="Helvetica,sans-Serif" font-size="10.00" fill="#000000"> </text>
<polyline fill="none" stroke="#bfbfbf" points="540,-1393.5 569,-1393.5 "/>
<text text-anchor="middle" x="554.5" y="-1381.5" font-family="Helvetica,sans-Serif" font-size="10.00" fill="#000000"> </text>
</g>
<!-- Node11&#45;&gt;Node10 -->
<g id="edge7" class="edge">
<title>Node11&#45;&gt;Node10</title>
<path fill="none" stroke="#404040" d="M539.9976,-1378.6906C536.1785,-1371.5577 532.3377,-1363.6221 529.5,-1356 517.3348,-1323.3236 508.9308,-1284.5821 503.7985,-1256.0652"/>
<polygon fill="none" stroke="#404040" points="503.7793,-1255.954 498.8149,-1250.7239 501.7333,-1244.1297 506.6978,-1249.3599 503.7793,-1255.954"/>
<text text-anchor="middle" x="554" y="-1348" font-family="Helvetica,sans-Serif" font-size="10.00" fill="#000000"> +elements</text>
</g>
<!-- Node14 -->
<g id="node11" class="node">
<title>Node14</title>
<g id="a_node11"><a xlink:title="STL class. ">
<polygon fill="#ffffff" stroke="#bfbfbf" points="559,-1187 559,-1244 664,-1244 664,-1187 559,-1187"/>
<text text-anchor="middle" x="611.5" y="-1232" font-family="Helvetica,sans-Serif" font-size="10.00" fill="#000000">std::unique_ptr&lt; T &gt;</text>
<polyline fill="none" stroke="#bfbfbf" points="559,-1225 664,-1225 "/>
<text text-anchor="middle" x="611.5" y="-1213" font-family="Helvetica,sans-Serif" font-size="10.00" fill="#000000"> </text>
<polyline fill="none" stroke="#bfbfbf" points="559,-1206 664,-1206 "/>
<text text-anchor="start" x="567" y="-1194" font-family="Helvetica,sans-Serif" font-size="10.00" fill="#000000">+ operator&#45;&gt;()</text>
</a>
</g>
</g>
<!-- Node11&#45;&gt;Node14 -->
<g id="edge11" class="edge">
<title>Node11&#45;&gt;Node14</title>
<path fill="none" stroke="#404040" d="M569.1062,-1377.1533C572.5222,-1370.4109 575.9139,-1363.0537 578.5,-1356 590.5209,-1323.2121 599.2341,-1284.4806 604.6781,-1255.9958"/>
<polygon fill="none" stroke="#404040" points="604.7002,-1255.876 601.8568,-1249.2492 606.8804,-1244.0757 609.7237,-1250.7026 604.7002,-1255.876"/>
<text text-anchor="middle" x="592" y="-1348" font-family="Helvetica,sans-Serif" font-size="10.00" fill="#000000"> +ptr</text>
</g>
<!-- Node12 -->
<g id="node9" class="node">
<title>Node12</title>
<polygon fill="#ffffff" stroke="#bfbfbf" points="573,-895 573,-974 704,-974 704,-895 573,-895"/>
<text text-anchor="start" x="581" y="-962" font-family="Helvetica,sans-Serif" font-size="10.00" fill="#000000">std::unique_ptr&lt; Asteroids</text>
<text text-anchor="start" x="581" y="-951" font-family="Helvetica,sans-Serif" font-size="10.00" fill="#000000">::Domain::Game::Actors::</text>
<text text-anchor="middle" x="638.5" y="-940" font-family="Helvetica,sans-Serif" font-size="10.00" fill="#000000">Vector &gt;</text>
<polyline fill="none" stroke="#bfbfbf" points="573,-933 704,-933 "/>
<text text-anchor="middle" x="638.5" y="-921" font-family="Helvetica,sans-Serif" font-size="10.00" fill="#000000"> </text>
<polyline fill="none" stroke="#bfbfbf" points="573,-914 704,-914 "/>
<text text-anchor="start" x="581" y="-902" font-family="Helvetica,sans-Serif" font-size="10.00" fill="#000000">+ operator&#45;&gt;()</text>
</g>
<!-- Node12&#45;&gt;Node6 -->
<g id="edge8" class="edge">
<title>Node12&#45;&gt;Node6</title>
<path fill="none" stroke="#404040" d="M612.1318,-894.8998C572.6264,-835.5698 496.5643,-721.3385 438.9234,-634.7722"/>
<polygon fill="none" stroke="#404040" points="438.8176,-634.6133 432.1627,-631.8361 432.1668,-624.625 438.8216,-627.4022 438.8176,-634.6133"/>
<text text-anchor="middle" x="578" y="-808" font-family="Helvetica,sans-Serif" font-size="10.00" fill="#000000"> #_vector</text>
</g>
<!-- Node13 -->
<g id="node10" class="node">
<title>Node13</title>
<g id="a_node10"><a xlink:href="classAsteroids_1_1Domain_1_1Game_1_1Actors_1_1Vector.html" target="_top" xlink:title="Simple class to store 2D vector and rotation, to lend physics to game actors. ">
<polygon fill="#ffffff" stroke="#000000" points="689.5,-1104.5 689.5,-1326.5 801.5,-1326.5 801.5,-1104.5 689.5,-1104.5"/>
<text text-anchor="start" x="697.5" y="-1314.5" font-family="Helvetica,sans-Serif" font-size="10.00" fill="#000000">Asteroids::Domain::</text>
<text text-anchor="middle" x="745.5" y="-1303.5" font-family="Helvetica,sans-Serif" font-size="10.00" fill="#000000">Game::Actors::Vector</text>
<polyline fill="none" stroke="#000000" points="689.5,-1296.5 801.5,-1296.5 "/>
<text text-anchor="start" x="697.5" y="-1284.5" font-family="Helvetica,sans-Serif" font-size="10.00" fill="#000000">&#45; _r</text>
<text text-anchor="start" x="697.5" y="-1273.5" font-family="Helvetica,sans-Serif" font-size="10.00" fill="#000000">&#45; _x</text>
<text text-anchor="start" x="697.5" y="-1262.5" font-family="Helvetica,sans-Serif" font-size="10.00" fill="#000000">&#45; _y</text>
<polyline fill="none" stroke="#000000" points="689.5,-1255.5 801.5,-1255.5 "/>
<text text-anchor="start" x="697.5" y="-1243.5" font-family="Helvetica,sans-Serif" font-size="10.00" fill="#000000">+ Vector()</text>
<text text-anchor="start" x="697.5" y="-1232.5" font-family="Helvetica,sans-Serif" font-size="10.00" fill="#000000">+ adjust()</text>
<text text-anchor="start" x="697.5" y="-1221.5" font-family="Helvetica,sans-Serif" font-size="10.00" fill="#000000">+ get_linear()</text>
<text text-anchor="start" x="697.5" y="-1210.5" font-family="Helvetica,sans-Serif" font-size="10.00" fill="#000000">+ get_rotated_linear()</text>
<text text-anchor="start" x="697.5" y="-1199.5" font-family="Helvetica,sans-Serif" font-size="10.00" fill="#000000">+ get_rotational()</text>
<text text-anchor="start" x="697.5" y="-1188.5" font-family="Helvetica,sans-Serif" font-size="10.00" fill="#000000">+ get_x()</text>
<text text-anchor="start" x="697.5" y="-1177.5" font-family="Helvetica,sans-Serif" font-size="10.00" fill="#000000">+ get_y()</text>
<text text-anchor="start" x="697.5" y="-1166.5" font-family="Helvetica,sans-Serif" font-size="10.00" fill="#000000">+ reset()</text>
<text text-anchor="start" x="697.5" y="-1155.5" font-family="Helvetica,sans-Serif" font-size="10.00" fill="#000000">+ set()</text>
<text text-anchor="start" x="697.5" y="-1144.5" font-family="Helvetica,sans-Serif" font-size="10.00" fill="#000000">+ update()</text>
<text text-anchor="start" x="697.5" y="-1133.5" font-family="Helvetica,sans-Serif" font-size="10.00" fill="#000000">+ rotate_velocity()</text>
<text text-anchor="start" x="697.5" y="-1122.5" font-family="Helvetica,sans-Serif" font-size="10.00" fill="#000000">&#45; apply_limits()</text>
<text text-anchor="start" x="697.5" y="-1111.5" font-family="Helvetica,sans-Serif" font-size="10.00" fill="#000000">&#45; dampen()</text>
</a>
</g>
</g>
<!-- Node13&#45;&gt;Node12 -->
<g id="edge9" class="edge">
<title>Node13&#45;&gt;Node12</title>
<path fill="none" stroke="#404040" d="M737.8196,-1104.3722C734.5231,-1086.8111 729.9157,-1069.1376 723.5,-1053 713.6532,-1028.2322 697.531,-1003.7957 681.9596,-983.6063"/>
<polygon fill="none" stroke="#404040" points="681.8425,-983.4586 674.9811,-981.2403 674.3897,-974.0535 681.2511,-976.2717 681.8425,-983.4586"/>
<text text-anchor="middle" x="744" y="-1067" font-family="Helvetica,sans-Serif" font-size="10.00" fill="#000000"> +ptr</text>
</g>
<!-- Node14&#45;&gt;Node12 -->
<g id="edge10" class="edge">
<title>Node14&#45;&gt;Node12</title>
<path fill="none" stroke="#ffa500" d="M609.4655,-1176.7816C608.2737,-1143.7746 607.8018,-1095.1251 612.5,-1053 615.4649,-1026.4157 621.8869,-997.0441 627.6062,-974.1934"/>
<polygon fill="#ffa500" stroke="#ffa500" points="605.9741,-1177.0687 609.872,-1186.9204 612.9684,-1176.7881 605.9741,-1177.0687"/>
<text text-anchor="start" x="612.5" y="-1072.5" font-family="Helvetica,sans-Serif" font-size="10.00" fill="#000000"> &lt; Asteroids::Domain</text>
<text text-anchor="middle" x="668" y="-1061.5" font-family="Helvetica,sans-Serif" font-size="10.00" fill="#000000">::Game::Actors::Vector &gt;</text>
</g>
<!-- Node15&#45;&gt;Node6 -->
<g id="edge12" class="edge">
<title>Node15&#45;&gt;Node6</title>
<path fill="none" stroke="#404040" d="M490.0895,-900.3511C477.7535,-863.4324 457.0004,-801.3238 435.8286,-737.9616"/>
<polygon fill="none" stroke="#404040" points="435.8153,-737.9216 430.1199,-733.4986 432.0122,-726.5401 437.7076,-730.9632 435.8153,-737.9216"/>
<text text-anchor="middle" x="500" y="-808" font-family="Helvetica,sans-Serif" font-size="10.00" fill="#000000"> &#45;_polygon_points</text>
</g>
</g>
</svg>
        <g id="navigator" transform="translate(0 0)" fill="#404254">
                <rect fill="#f2f5e9" fill-opacity="0.5" stroke="#606060" stroke-width=".5" x="0" y="0" width="60" height="60"/>
                <use id="zoomplus" xlink:href="#zoomPlus" x="17" y="9" onmousedown="handleZoom(evt,'in')"/>
                <use id="zoomminus" xlink:href="#zoomMin" x="42" y="9" onmousedown="handleZoom(evt,'out')"/>
                <use id="reset" xlink:href="#resetDef" x="30" y="36" onmousedown="handleReset()"/>
                <g id="arrowUp" xlink:href="#dirArrow" transform="translate(30 24)" onmousedown="handlePan(0,-1)">
                  <use xlink:href="#rim" fill="#404040">
                        <set attributeName="fill" to="#808080" begin="arrowUp.mouseover" end="arrowUp.mouseout"/>
                  </use>
                  <path fill="none" stroke="white" stroke-width="1.5" d="M0,-3.0v7 M-2.5,-0.5L0,-3.0L2.5,-0.5"/>
                </g>
                <g id="arrowRight" xlink:href="#dirArrow" transform="rotate(90) translate(36 -43)" onmousedown="handlePan(1,0)">
                  <use xlink:href="#rim" fill="#404040">
                        <set attributeName="fill" to="#808080" begin="arrowRight.mouseover" end="arrowRight.mouseout"/>
                  </use>
                  <path fill="none" stroke="white" stroke-width="1.5" d="M0,-3.0v7 M-2.5,-0.5L0,-3.0L2.5,-0.5"/>
                </g>
                <g id="arrowDown" xlink:href="#dirArrow" transform="rotate(180) translate(-30 -48)" onmousedown="handlePan(0,1)">
                  <use xlink:href="#rim" fill="#404040">
                        <set attributeName="fill" to="#808080" begin="arrowDown.mouseover" end="arrowDown.mouseout"/>
                  </use>
                  <path fill="none" stroke="white" stroke-width="1.5" d="M0,-3.0v7 M-2.5,-0.5L0,-3.0L2.5,-0.5"/>
                </g>
                <g id="arrowLeft" xlink:href="#dirArrow" transform="rotate(270) translate(-36 17)" onmousedown="handlePan(-1,0)">
                  <use xlink:href="#rim" fill="#404040">
                        <set attributeName="fill" to="#808080" begin="arrowLeft.mouseover" end="arrowLeft.mouseout"/>
                  </use>
                  <path fill="none" stroke="white" stroke-width="1.5" d="M0,-3.0v7 M-2.5,-0.5L0,-3.0L2.5,-0.5"/>
                </g>
        </g>
        <svg viewBox="0 0 15 15" width="100%" height="30px" preserveAspectRatio="xMaxYMin meet">
         <g id="arrow_out" transform="scale(0.3 0.3)">
          <a xlink:href="classAsteroids_1_1Domain_1_1Game_1_1Actors_1_1LongRock__coll__graph_org.svg" target="_base">
           <rect id="button" ry="5" rx="5" y="6" x="6" height="38" width="38"
                fill="#f2f5e9" fill-opacity="0.5" stroke="#606060" stroke-width="1.0"/>
           <path id="arrow"
             d="M 11.500037,31.436501 C 11.940474,20.09759 22.043105,11.32322 32.158766,21.979434 L 37.068811,17.246167 C 37.068811,17.246167 37.088388,32 37.088388,32 L 22.160133,31.978069 C 22.160133,31.978069 26.997745,27.140456 26.997745,27.140456 C 18.528582,18.264221 13.291696,25.230495 11.500037,31.436501 z"
             style="fill:#404040;"/>
          </a>
         </g>
        </svg>
</svg>
