<?xml version="1.0" encoding="UTF-8" standalone="no"?>
<!DOCTYPE svg PUBLIC "-//W3C//DTD SVG 1.1//EN"
 "http://www.w3.org/Graphics/SVG/1.1/DTD/svg11.dtd">
<!-- Generated by graphviz version 2.40.1 (20161225.0304)
 -->
<!-- Title: Asteroids::Domain::Game::Game::win_round Pages: 1 -->
<svg width="619pt" height="50pt"
 viewBox="0.00 0.00 619.00 50.00" xmlns="http://www.w3.org/2000/svg" xmlns:xlink="http://www.w3.org/1999/xlink">
<g id="graph0" class="graph" transform="scale(1 1) rotate(0) translate(4 46)">
<title>Asteroids::Domain::Game::Game::win_round</title>
<polygon fill="#ffffff" stroke="transparent" points="-4,4 -4,-46 615,-46 615,4 -4,4"/>
<!-- Node121 -->
<g id="node1" class="node">
<title>Node121</title>
<polygon fill="#bfbfbf" stroke="#000000" points="0,-6 0,-36 125,-36 125,-6 0,-6"/>
<text text-anchor="start" x="8" y="-24" font-family="Helvetica,sans-Serif" font-size="10.00" fill="#000000">Asteroids::Domain::</text>
<text text-anchor="middle" x="62.5" y="-13" font-family="Helvetica,sans-Serif" font-size="10.00" fill="#000000">Game::Game::win_round</text>
</g>
<!-- Node122 -->
<g id="node2" class="node">
<title>Node122</title>
<g id="a_node2"><a xlink:href="classAsteroids_1_1Domain_1_1Game_1_1Game.html#aa242712e038fce29760d53eb1d57c9fb" target="_top" xlink:title="Asteroids::Domain::\lGame::Game::start_round">
<polygon fill="#ffffff" stroke="#000000" points="161,-6 161,-36 291,-36 291,-6 161,-6"/>
<text text-anchor="start" x="169" y="-24" font-family="Helvetica,sans-Serif" font-size="10.00" fill="#000000">Asteroids::Domain::</text>
<text text-anchor="middle" x="226" y="-13" font-family="Helvetica,sans-Serif" font-size="10.00" fill="#000000">Game::Game::start_round</text>
</a>
</g>
</g>
<!-- Node121&#45;&gt;Node122 -->
<g id="edge1" class="edge">
<title>Node121&#45;&gt;Node122</title>
<path fill="none" stroke="#191970" d="M125.2458,-21C133.6602,-21 142.3591,-21 150.9582,-21"/>
<polygon fill="#191970" stroke="#191970" points="150.9842,-24.5001 160.9841,-21 150.9841,-17.5001 150.9842,-24.5001"/>
</g>
<!-- Node123 -->
<g id="node3" class="node">
<title>Node123</title>
<g id="a_node3"><a xlink:href="classAsteroids_1_1Domain_1_1Game_1_1Game.html#ad3a7040e8cc0b14228f46577ecf2bc78" target="_top" xlink:title="Asteroids::Domain::\lGame::Game::initialize\l_random_rocks">
<polygon fill="#ffffff" stroke="#000000" points="327,-.5 327,-41.5 443,-41.5 443,-.5 327,-.5"/>
<text text-anchor="start" x="335" y="-29.5" font-family="Helvetica,sans-Serif" font-size="10.00" fill="#000000">Asteroids::Domain::</text>
<text text-anchor="start" x="335" y="-18.5" font-family="Helvetica,sans-Serif" font-size="10.00" fill="#000000">Game::Game::initialize</text>
<text text-anchor="middle" x="385" y="-7.5" font-family="Helvetica,sans-Serif" font-size="10.00" fill="#000000">_random_rocks</text>
</a>
</g>
</g>
<!-- Node122&#45;&gt;Node123 -->
<g id="edge2" class="edge">
<title>Node122&#45;&gt;Node123</title>
<path fill="none" stroke="#191970" d="M291.1302,-21C299.5442,-21 308.1804,-21 316.6446,-21"/>
<polygon fill="#191970" stroke="#191970" points="316.8573,-24.5001 326.8573,-21 316.8573,-17.5001 316.8573,-24.5001"/>
</g>
<!-- Node124 -->
<g id="node4" class="node">
<title>Node124</title>
<g id="a_node4"><a xlink:href="classAsteroids_1_1Domain_1_1Game_1_1Game.html#a798922774fed23c593a476338acf7100" target="_top" xlink:title="Asteroids::Domain::\lGame::Game::get_random\l_board_position">
<polygon fill="#ffffff" stroke="#000000" points="479,-.5 479,-41.5 611,-41.5 611,-.5 479,-.5"/>
<text text-anchor="start" x="487" y="-29.5" font-family="Helvetica,sans-Serif" font-size="10.00" fill="#000000">Asteroids::Domain::</text>
<text text-anchor="start" x="487" y="-18.5" font-family="Helvetica,sans-Serif" font-size="10.00" fill="#000000">Game::Game::get_random</text>
<text text-anchor="middle" x="545" y="-7.5" font-family="Helvetica,sans-Serif" font-size="10.00" fill="#000000">_board_position</text>
</a>
</g>
</g>
<!-- Node123&#45;&gt;Node124 -->
<g id="edge3" class="edge">
<title>Node123&#45;&gt;Node124</title>
<path fill="none" stroke="#191970" d="M443.2163,-21C451.5651,-21 460.2565,-21 468.8874,-21"/>
<polygon fill="#191970" stroke="#191970" points="468.9675,-24.5001 478.9674,-21 468.9674,-17.5001 468.9675,-24.5001"/>
</g>
</g>
</svg>
