<?xml version="1.0" encoding="UTF-8" standalone="no"?>
<!DOCTYPE svg PUBLIC "-//W3C//DTD SVG 1.1//EN"
 "http://www.w3.org/Graphics/SVG/1.1/DTD/svg11.dtd">
<!-- Generated by graphviz version 2.40.1 (20161225.0304)
 -->
<!-- Title: Asteroids::Domain::Server::ServerDaemon::apply_updates Pages: 1 -->
<svg width="312pt" height="110pt"
 viewBox="0.00 0.00 312.00 110.00" xmlns="http://www.w3.org/2000/svg" xmlns:xlink="http://www.w3.org/1999/xlink">
<g id="graph0" class="graph" transform="scale(1 1) rotate(0) translate(4 106)">
<title>Asteroids::Domain::Server::ServerDaemon::apply_updates</title>
<polygon fill="#ffffff" stroke="transparent" points="-4,4 -4,-106 308,-106 308,4 -4,4"/>
<!-- Node5 -->
<g id="node1" class="node">
<title>Node5</title>
<polygon fill="#bfbfbf" stroke="#000000" points="0,-30.5 0,-71.5 116,-71.5 116,-30.5 0,-30.5"/>
<text text-anchor="start" x="8" y="-59.5" font-family="Helvetica,sans-Serif" font-size="10.00" fill="#000000">Asteroids::Domain::</text>
<text text-anchor="start" x="8" y="-48.5" font-family="Helvetica,sans-Serif" font-size="10.00" fill="#000000">Server::ServerDaemon</text>
<text text-anchor="middle" x="58" y="-37.5" font-family="Helvetica,sans-Serif" font-size="10.00" fill="#000000">::apply_updates</text>
</g>
<!-- Node6 -->
<g id="node2" class="node">
<title>Node6</title>
<g id="a_node2"><a xlink:href="classAsteroids_1_1Domain_1_1Server_1_1ServerDaemon.html#a11925ed5e5c6951aceac9c823789476e" target="_top" xlink:title="Asteroids::Domain::\lServer::ServerDaemon\l::require_restart">
<polygon fill="#ffffff" stroke="#000000" points="170,-60.5 170,-101.5 286,-101.5 286,-60.5 170,-60.5"/>
<text text-anchor="start" x="178" y="-89.5" font-family="Helvetica,sans-Serif" font-size="10.00" fill="#000000">Asteroids::Domain::</text>
<text text-anchor="start" x="178" y="-78.5" font-family="Helvetica,sans-Serif" font-size="10.00" fill="#000000">Server::ServerDaemon</text>
<text text-anchor="middle" x="228" y="-67.5" font-family="Helvetica,sans-Serif" font-size="10.00" fill="#000000">::require_restart</text>
</a>
</g>
</g>
<!-- Node5&#45;&gt;Node6 -->
<g id="edge1" class="edge">
<title>Node5&#45;&gt;Node6</title>
<path fill="none" stroke="#191970" d="M116.0289,-61.2404C130.1744,-63.7367 145.4316,-66.4291 159.995,-68.9991"/>
<polygon fill="#191970" stroke="#191970" points="159.4881,-72.4637 169.9442,-70.7549 160.7046,-65.5702 159.4881,-72.4637"/>
</g>
<!-- Node7 -->
<g id="node3" class="node">
<title>Node7</title>
<g id="a_node3"><a xlink:href="classAsteroids_1_1Domain_1_1Server_1_1ServerUpdaterInterface.html#a361160b4683c46d96833943873de0c2c" target="_top" xlink:title="Asteroids::Domain::\lServer::ServerUpdaterInterface\l::update">
<polygon fill="#ffffff" stroke="#000000" points="152,-.5 152,-41.5 304,-41.5 304,-.5 152,-.5"/>
<text text-anchor="start" x="160" y="-29.5" font-family="Helvetica,sans-Serif" font-size="10.00" fill="#000000">Asteroids::Domain::</text>
<text text-anchor="start" x="160" y="-18.5" font-family="Helvetica,sans-Serif" font-size="10.00" fill="#000000">Server::ServerUpdaterInterface</text>
<text text-anchor="middle" x="228" y="-7.5" font-family="Helvetica,sans-Serif" font-size="10.00" fill="#000000">::update</text>
</a>
</g>
</g>
<!-- Node5&#45;&gt;Node7 -->
<g id="edge2" class="edge">
<title>Node5&#45;&gt;Node7</title>
<path fill="none" stroke="#191970" d="M116.0289,-40.7596C124.4152,-39.2797 133.1922,-37.7308 141.9838,-36.1793"/>
<polygon fill="#191970" stroke="#191970" points="142.6563,-39.6148 151.8959,-34.4301 141.4397,-32.7213 142.6563,-39.6148"/>
</g>
</g>
</svg>
