<?xml version="1.0" encoding="UTF-8" standalone="no"?>
<!DOCTYPE svg PUBLIC "-//W3C//DTD SVG 1.1//EN"
 "http://www.w3.org/Graphics/SVG/1.1/DTD/svg11.dtd">
<!-- Generated by graphviz version 2.40.1 (20161225.0304)
 -->
<!-- Title: Asteroids::Domain::Game::Actors::Rock Pages: 1 -->
<svg width="810pt" height="1323pt"
 viewBox="0.00 0.00 809.50 1323.00" xmlns="http://www.w3.org/2000/svg" xmlns:xlink="http://www.w3.org/1999/xlink">
<g id="graph0" class="graph" transform="scale(1 1) rotate(0) translate(4 1319)">
<title>Asteroids::Domain::Game::Actors::Rock</title>
<polygon fill="#ffffff" stroke="transparent" points="-4,4 -4,-1319 805.5,-1319 805.5,4 -4,4"/>
<!-- Node4 -->
<g id="node1" class="node">
<title>Node4</title>
<polygon fill="#bfbfbf" stroke="#000000" points="310,-.5 310,-101.5 417,-101.5 417,-.5 310,-.5"/>
<text text-anchor="start" x="318" y="-89.5" font-family="Helvetica,sans-Serif" font-size="10.00" fill="#000000">Asteroids::Domain::</text>
<text text-anchor="middle" x="363.5" y="-78.5" font-family="Helvetica,sans-Serif" font-size="10.00" fill="#000000">Game::Actors::Rock</text>
<polyline fill="none" stroke="#000000" points="310,-71.5 417,-71.5 "/>
<text text-anchor="middle" x="363.5" y="-59.5" font-family="Helvetica,sans-Serif" font-size="10.00" fill="#000000"> </text>
<polyline fill="none" stroke="#000000" points="310,-52.5 417,-52.5 "/>
<text text-anchor="start" x="318" y="-40.5" font-family="Helvetica,sans-Serif" font-size="10.00" fill="#000000">+ Rock()</text>
<text text-anchor="start" x="318" y="-29.5" font-family="Helvetica,sans-Serif" font-size="10.00" fill="#000000">+ reset()</text>
<text text-anchor="start" x="318" y="-18.5" font-family="Helvetica,sans-Serif" font-size="10.00" fill="#000000"># init()</text>
<text text-anchor="start" x="318" y="-7.5" font-family="Helvetica,sans-Serif" font-size="10.00" fill="#000000"># initialize_polygon()</text>
</g>
<!-- Node5 -->
<g id="node2" class="node">
<title>Node5</title>
<g id="a_node2"><a xlink:href="classAsteroids_1_1Domain_1_1Game_1_1Actors_1_1Actor.html" target="_top" xlink:title="Implementation of ActorInterface. ">
<polygon fill="#ffffff" stroke="#000000" points="295,-139.5 295,-669.5 432,-669.5 432,-139.5 295,-139.5"/>
<text text-anchor="start" x="303" y="-657.5" font-family="Helvetica,sans-Serif" font-size="10.00" fill="#000000">Asteroids::Domain::</text>
<text text-anchor="middle" x="363.5" y="-646.5" font-family="Helvetica,sans-Serif" font-size="10.00" fill="#000000">Game::Actors::Actor</text>
<polyline fill="none" stroke="#000000" points="295,-639.5 432,-639.5 "/>
<text text-anchor="start" x="303" y="-627.5" font-family="Helvetica,sans-Serif" font-size="10.00" fill="#000000"># _input_down</text>
<text text-anchor="start" x="303" y="-616.5" font-family="Helvetica,sans-Serif" font-size="10.00" fill="#000000"># _input_fire</text>
<text text-anchor="start" x="303" y="-605.5" font-family="Helvetica,sans-Serif" font-size="10.00" fill="#000000"># _input_left</text>
<text text-anchor="start" x="303" y="-594.5" font-family="Helvetica,sans-Serif" font-size="10.00" fill="#000000"># _input_right</text>
<text text-anchor="start" x="303" y="-583.5" font-family="Helvetica,sans-Serif" font-size="10.00" fill="#000000"># _input_up</text>
<text text-anchor="start" x="303" y="-572.5" font-family="Helvetica,sans-Serif" font-size="10.00" fill="#000000">&#45; _bullet_speed</text>
<text text-anchor="start" x="303" y="-561.5" font-family="Helvetica,sans-Serif" font-size="10.00" fill="#000000">&#45; _lifetime_ticks</text>
<text text-anchor="start" x="303" y="-550.5" font-family="Helvetica,sans-Serif" font-size="10.00" fill="#000000">&#45; _pos_x</text>
<text text-anchor="start" x="303" y="-539.5" font-family="Helvetica,sans-Serif" font-size="10.00" fill="#000000">&#45; _pos_y</text>
<text text-anchor="start" x="303" y="-528.5" font-family="Helvetica,sans-Serif" font-size="10.00" fill="#000000">&#45; _rotation_radians</text>
<text text-anchor="start" x="303" y="-517.5" font-family="Helvetica,sans-Serif" font-size="10.00" fill="#000000">&#45; _wants_to_be_deleted</text>
<polyline fill="none" stroke="#000000" points="295,-510.5 432,-510.5 "/>
<text text-anchor="start" x="303" y="-498.5" font-family="Helvetica,sans-Serif" font-size="10.00" fill="#000000">+ Actor()</text>
<text text-anchor="start" x="303" y="-487.5" font-family="Helvetica,sans-Serif" font-size="10.00" fill="#000000">+ adjust_rotation()</text>
<text text-anchor="start" x="303" y="-476.5" font-family="Helvetica,sans-Serif" font-size="10.00" fill="#000000">+ check_collision()</text>
<text text-anchor="start" x="303" y="-465.5" font-family="Helvetica,sans-Serif" font-size="10.00" fill="#000000">+ check_collision()</text>
<text text-anchor="start" x="303" y="-454.5" font-family="Helvetica,sans-Serif" font-size="10.00" fill="#000000">+ clear_input()</text>
<text text-anchor="start" x="303" y="-443.5" font-family="Helvetica,sans-Serif" font-size="10.00" fill="#000000">+ get_fired_bullets()</text>
<text text-anchor="start" x="303" y="-432.5" font-family="Helvetica,sans-Serif" font-size="10.00" fill="#000000">+ get_lifetime_ticks()</text>
<text text-anchor="start" x="303" y="-421.5" font-family="Helvetica,sans-Serif" font-size="10.00" fill="#000000">+ get_polygon()</text>
<text text-anchor="start" x="303" y="-410.5" font-family="Helvetica,sans-Serif" font-size="10.00" fill="#000000">+ get_position()</text>
<text text-anchor="start" x="303" y="-399.5" font-family="Helvetica,sans-Serif" font-size="10.00" fill="#000000">+ get_rect()</text>
<text text-anchor="start" x="303" y="-388.5" font-family="Helvetica,sans-Serif" font-size="10.00" fill="#000000">+ get_rotated_polygon()</text>
<text text-anchor="start" x="303" y="-377.5" font-family="Helvetica,sans-Serif" font-size="10.00" fill="#000000">+ get_rotation()</text>
<text text-anchor="start" x="303" y="-366.5" font-family="Helvetica,sans-Serif" font-size="10.00" fill="#000000">+ get_x()</text>
<text text-anchor="start" x="303" y="-355.5" font-family="Helvetica,sans-Serif" font-size="10.00" fill="#000000">+ get_y()</text>
<text text-anchor="start" x="303" y="-344.5" font-family="Helvetica,sans-Serif" font-size="10.00" fill="#000000">+ reset()</text>
<text text-anchor="start" x="303" y="-333.5" font-family="Helvetica,sans-Serif" font-size="10.00" fill="#000000">+ rotate_polygon()</text>
<text text-anchor="start" x="303" y="-322.5" font-family="Helvetica,sans-Serif" font-size="10.00" fill="#000000">+ set_input_down()</text>
<text text-anchor="start" x="303" y="-311.5" font-family="Helvetica,sans-Serif" font-size="10.00" fill="#000000">+ set_input_fire()</text>
<text text-anchor="start" x="303" y="-300.5" font-family="Helvetica,sans-Serif" font-size="10.00" fill="#000000">+ set_input_left()</text>
<text text-anchor="start" x="303" y="-289.5" font-family="Helvetica,sans-Serif" font-size="10.00" fill="#000000">+ set_input_right()</text>
<text text-anchor="start" x="303" y="-278.5" font-family="Helvetica,sans-Serif" font-size="10.00" fill="#000000">+ set_input_up()</text>
<text text-anchor="start" x="303" y="-267.5" font-family="Helvetica,sans-Serif" font-size="10.00" fill="#000000">+ set_polygon()</text>
<text text-anchor="start" x="303" y="-256.5" font-family="Helvetica,sans-Serif" font-size="10.00" fill="#000000">+ set_position()</text>
<text text-anchor="start" x="303" y="-245.5" font-family="Helvetica,sans-Serif" font-size="10.00" fill="#000000">+ set_rotation()</text>
<text text-anchor="start" x="303" y="-234.5" font-family="Helvetica,sans-Serif" font-size="10.00" fill="#000000">+ set_velocity()</text>
<text text-anchor="start" x="303" y="-223.5" font-family="Helvetica,sans-Serif" font-size="10.00" fill="#000000">+ update()</text>
<text text-anchor="start" x="303" y="-212.5" font-family="Helvetica,sans-Serif" font-size="10.00" fill="#000000">+ wants_to_be_deleted()</text>
<text text-anchor="start" x="303" y="-201.5" font-family="Helvetica,sans-Serif" font-size="10.00" fill="#000000"># deleteme()</text>
<text text-anchor="start" x="303" y="-190.5" font-family="Helvetica,sans-Serif" font-size="10.00" fill="#000000"># fire_bullet()</text>
<text text-anchor="start" x="303" y="-179.5" font-family="Helvetica,sans-Serif" font-size="10.00" fill="#000000"># set_bullet_speed()</text>
<text text-anchor="start" x="303" y="-168.5" font-family="Helvetica,sans-Serif" font-size="10.00" fill="#000000"># update_rect()</text>
<text text-anchor="start" x="303" y="-157.5" font-family="Helvetica,sans-Serif" font-size="10.00" fill="#000000">&#45; apply_vector_to_position()</text>
<text text-anchor="start" x="303" y="-146.5" font-family="Helvetica,sans-Serif" font-size="10.00" fill="#000000">&#45; init()</text>
</a>
</g>
</g>
<!-- Node5&#45;&gt;Node4 -->
<g id="edge1" class="edge">
<title>Node5&#45;&gt;Node4</title>
<path fill="none" stroke="#191970" d="M363.5,-129.2312C363.5,-119.3645 363.5,-110.0995 363.5,-101.6391"/>
<polygon fill="none" stroke="#191970" points="360.0001,-129.2911 363.5,-139.2911 367.0001,-129.2911 360.0001,-129.2911"/>
</g>
<!-- Node6 -->
<g id="node3" class="node">
<title>Node6</title>
<g id="a_node3"><a xlink:href="classAsteroids_1_1Domain_1_1Game_1_1Actors_1_1ActorInterface.html" target="_top" xlink:title="Main superclass for game board actors. ">
<polygon fill="#ffffff" stroke="#000000" points="0,-728.5 0,-906.5 145,-906.5 145,-728.5 0,-728.5"/>
<text text-anchor="start" x="8" y="-894.5" font-family="Helvetica,sans-Serif" font-size="10.00" fill="#000000">Asteroids::Domain::</text>
<text text-anchor="middle" x="72.5" y="-883.5" font-family="Helvetica,sans-Serif" font-size="10.00" fill="#000000">Game::Actors::ActorInterface</text>
<polyline fill="none" stroke="#000000" points="0,-876.5 145,-876.5 "/>
<text text-anchor="middle" x="72.5" y="-864.5" font-family="Helvetica,sans-Serif" font-size="10.00" fill="#000000"> </text>
<polyline fill="none" stroke="#000000" points="0,-857.5 145,-857.5 "/>
<text text-anchor="start" x="8" y="-845.5" font-family="Helvetica,sans-Serif" font-size="10.00" fill="#000000">+ clear_input()</text>
<text text-anchor="start" x="8" y="-834.5" font-family="Helvetica,sans-Serif" font-size="10.00" fill="#000000">+ get_polygon()</text>
<text text-anchor="start" x="8" y="-823.5" font-family="Helvetica,sans-Serif" font-size="10.00" fill="#000000">+ get_rotated_polygon()</text>
<text text-anchor="start" x="8" y="-812.5" font-family="Helvetica,sans-Serif" font-size="10.00" fill="#000000">+ get_x()</text>
<text text-anchor="start" x="8" y="-801.5" font-family="Helvetica,sans-Serif" font-size="10.00" fill="#000000">+ get_y()</text>
<text text-anchor="start" x="8" y="-790.5" font-family="Helvetica,sans-Serif" font-size="10.00" fill="#000000">+ set_input_down()</text>
<text text-anchor="start" x="8" y="-779.5" font-family="Helvetica,sans-Serif" font-size="10.00" fill="#000000">+ set_input_fire()</text>
<text text-anchor="start" x="8" y="-768.5" font-family="Helvetica,sans-Serif" font-size="10.00" fill="#000000">+ set_input_left()</text>
<text text-anchor="start" x="8" y="-757.5" font-family="Helvetica,sans-Serif" font-size="10.00" fill="#000000">+ set_input_right()</text>
<text text-anchor="start" x="8" y="-746.5" font-family="Helvetica,sans-Serif" font-size="10.00" fill="#000000">+ set_input_up()</text>
<text text-anchor="start" x="8" y="-735.5" font-family="Helvetica,sans-Serif" font-size="10.00" fill="#000000">+ set_position()</text>
</a>
</g>
</g>
<!-- Node6&#45;&gt;Node5 -->
<g id="edge2" class="edge">
<title>Node6&#45;&gt;Node5</title>
<path fill="none" stroke="#191970" d="M141.1566,-720.0595C187.5659,-654.1934 248.6029,-567.5671 294.9828,-501.7426"/>
<polygon fill="none" stroke="#191970" points="138.1832,-718.203 135.2844,-728.3936 143.9054,-722.2349 138.1832,-718.203"/>
</g>
<!-- Node7 -->
<g id="node4" class="node">
<title>Node7</title>
<g id="a_node4"><a xlink:href="classAsteroids_1_1Domain_1_1Game_1_1Actors_1_1Rect.html" target="_top" xlink:title="Convenience class to help manage actor rectangle boundaries and collisions. ">
<polygon fill="#ffffff" stroke="#000000" points="163.5,-717.5 163.5,-917.5 279.5,-917.5 279.5,-717.5 163.5,-717.5"/>
<text text-anchor="start" x="171.5" y="-905.5" font-family="Helvetica,sans-Serif" font-size="10.00" fill="#000000">Asteroids::Domain::</text>
<text text-anchor="middle" x="221.5" y="-894.5" font-family="Helvetica,sans-Serif" font-size="10.00" fill="#000000">Game::Actors::Rect</text>
<polyline fill="none" stroke="#000000" points="163.5,-887.5 279.5,-887.5 "/>
<text text-anchor="start" x="171.5" y="-875.5" font-family="Helvetica,sans-Serif" font-size="10.00" fill="#000000">+ height</text>
<text text-anchor="start" x="171.5" y="-864.5" font-family="Helvetica,sans-Serif" font-size="10.00" fill="#000000">+ width</text>
<text text-anchor="start" x="171.5" y="-853.5" font-family="Helvetica,sans-Serif" font-size="10.00" fill="#000000">+ x1</text>
<text text-anchor="start" x="171.5" y="-842.5" font-family="Helvetica,sans-Serif" font-size="10.00" fill="#000000">+ x2</text>
<text text-anchor="start" x="171.5" y="-831.5" font-family="Helvetica,sans-Serif" font-size="10.00" fill="#000000">+ y1</text>
<text text-anchor="start" x="171.5" y="-820.5" font-family="Helvetica,sans-Serif" font-size="10.00" fill="#000000">+ y2</text>
<polyline fill="none" stroke="#000000" points="163.5,-813.5 279.5,-813.5 "/>
<text text-anchor="start" x="171.5" y="-801.5" font-family="Helvetica,sans-Serif" font-size="10.00" fill="#000000">+ Rect()</text>
<text text-anchor="start" x="171.5" y="-790.5" font-family="Helvetica,sans-Serif" font-size="10.00" fill="#000000">+ add_offset()</text>
<text text-anchor="start" x="171.5" y="-779.5" font-family="Helvetica,sans-Serif" font-size="10.00" fill="#000000">+ collides_with_rect()</text>
<text text-anchor="start" x="171.5" y="-768.5" font-family="Helvetica,sans-Serif" font-size="10.00" fill="#000000">+ is_point_within()</text>
<text text-anchor="start" x="171.5" y="-757.5" font-family="Helvetica,sans-Serif" font-size="10.00" fill="#000000">+ reset()</text>
<text text-anchor="start" x="171.5" y="-746.5" font-family="Helvetica,sans-Serif" font-size="10.00" fill="#000000">+ to_string()</text>
<text text-anchor="start" x="171.5" y="-735.5" font-family="Helvetica,sans-Serif" font-size="10.00" fill="#000000">+ update_dimensions()</text>
<text text-anchor="start" x="171.5" y="-724.5" font-family="Helvetica,sans-Serif" font-size="10.00" fill="#000000">+ consume_polygon()</text>
</a>
</g>
</g>
<!-- Node7&#45;&gt;Node5 -->
<g id="edge3" class="edge">
<title>Node7&#45;&gt;Node5</title>
<path fill="none" stroke="#404040" d="M255.9648,-717.2607C266.5941,-686.3461 278.7249,-651.0641 290.918,-615.6011"/>
<polygon fill="none" stroke="#404040" points="290.9754,-615.4341 289.1436,-608.4595 294.8772,-604.0861 296.7089,-611.0607 290.9754,-615.4341"/>
<text text-anchor="middle" x="277.5" y="-691" font-family="Helvetica,sans-Serif" font-size="10.00" fill="#000000"> &#45;_rect</text>
</g>
<!-- Node8 -->
<g id="node5" class="node">
<title>Node8</title>
<polygon fill="#ffffff" stroke="#bfbfbf" points="297.5,-778 297.5,-857 429.5,-857 429.5,-778 297.5,-778"/>
<text text-anchor="start" x="305.5" y="-845" font-family="Helvetica,sans-Serif" font-size="10.00" fill="#000000">std::vector&lt; std::shared</text>
<text text-anchor="start" x="305.5" y="-834" font-family="Helvetica,sans-Serif" font-size="10.00" fill="#000000">_ptr&lt; Asteroids::Domain</text>
<text text-anchor="middle" x="363.5" y="-823" font-family="Helvetica,sans-Serif" font-size="10.00" fill="#000000">::Game::Actors::Bullet &gt; &gt;</text>
<polyline fill="none" stroke="#bfbfbf" points="297.5,-816 429.5,-816 "/>
<text text-anchor="start" x="305.5" y="-804" font-family="Helvetica,sans-Serif" font-size="10.00" fill="#000000">+ elements</text>
<polyline fill="none" stroke="#bfbfbf" points="297.5,-797 429.5,-797 "/>
<text text-anchor="middle" x="363.5" y="-785" font-family="Helvetica,sans-Serif" font-size="10.00" fill="#000000"> </text>
</g>
<!-- Node8&#45;&gt;Node5 -->
<g id="edge4" class="edge">
<title>Node8&#45;&gt;Node5</title>
<path fill="none" stroke="#404040" d="M363.5,-777.8998C363.5,-753.3967 363.5,-719.5293 363.5,-682.1138"/>
<polygon fill="none" stroke="#404040" points="363.5001,-681.8486 359.5,-675.8486 363.5,-669.8486 367.5,-675.8485 363.5001,-681.8486"/>
<text text-anchor="middle" x="395.5" y="-691" font-family="Helvetica,sans-Serif" font-size="10.00" fill="#000000"> &#45;_fired_bullets</text>
</g>
<!-- Node9 -->
<g id="node6" class="node">
<title>Node9</title>
<g id="a_node6"><a xlink:title="STL class. ">
<polygon fill="#ffffff" stroke="#bfbfbf" points="454,-1070 454,-1127 541,-1127 541,-1070 454,-1070"/>
<text text-anchor="middle" x="497.5" y="-1115" font-family="Helvetica,sans-Serif" font-size="10.00" fill="#000000">std::vector&lt; T &gt;</text>
<polyline fill="none" stroke="#bfbfbf" points="454,-1108 541,-1108 "/>
<text text-anchor="middle" x="497.5" y="-1096" font-family="Helvetica,sans-Serif" font-size="10.00" fill="#000000"> </text>
<polyline fill="none" stroke="#bfbfbf" points="454,-1089 541,-1089 "/>
<text text-anchor="middle" x="497.5" y="-1077" font-family="Helvetica,sans-Serif" font-size="10.00" fill="#000000"> </text>
</a>
</g>
</g>
<!-- Node9&#45;&gt;Node8 -->
<g id="edge5" class="edge">
<title>Node9&#45;&gt;Node8</title>
<path fill="none" stroke="#ffa500" d="M456.5322,-1062.8063C431.819,-1038.8454 402.0144,-1005.139 385.5,-969 369.2616,-933.4649 364.418,-888.7859 363.2372,-857.1812"/>
<polygon fill="#ffa500" stroke="#ffa500" points="454.3584,-1065.569 464.018,-1069.9215 459.181,-1060.4953 454.3584,-1065.569"/>
<text text-anchor="start" x="385.5" y="-961" font-family="Helvetica,sans-Serif" font-size="10.00" fill="#000000"> &lt; std::shared_ptr&lt;</text>
<text text-anchor="start" x="385.5" y="-950" font-family="Helvetica,sans-Serif" font-size="10.00" fill="#000000"> Asteroids::Domain::</text>
<text text-anchor="middle" x="440.5" y="-939" font-family="Helvetica,sans-Serif" font-size="10.00" fill="#000000">Game::Actors::Bullet &gt; &gt;</text>
</g>
<!-- Node14 -->
<g id="node11" class="node">
<title>Node14</title>
<polygon fill="#ffffff" stroke="#bfbfbf" points="448,-783.5 448,-851.5 555,-851.5 555,-783.5 448,-783.5"/>
<text text-anchor="start" x="456" y="-839.5" font-family="Helvetica,sans-Serif" font-size="10.00" fill="#000000">std::vector&lt; std::pair</text>
<text text-anchor="middle" x="501.5" y="-828.5" font-family="Helvetica,sans-Serif" font-size="10.00" fill="#000000">&lt; double, double &gt; &gt;</text>
<polyline fill="none" stroke="#bfbfbf" points="448,-821.5 555,-821.5 "/>
<text text-anchor="start" x="456" y="-809.5" font-family="Helvetica,sans-Serif" font-size="10.00" fill="#000000">+ elements</text>
<polyline fill="none" stroke="#bfbfbf" points="448,-802.5 555,-802.5 "/>
<text text-anchor="middle" x="501.5" y="-790.5" font-family="Helvetica,sans-Serif" font-size="10.00" fill="#000000"> </text>
</g>
<!-- Node9&#45;&gt;Node14 -->
<g id="edge12" class="edge">
<title>Node9&#45;&gt;Node14</title>
<path fill="none" stroke="#ffa500" d="M498.0529,-1059.6602C498.8388,-1004.4485 500.2664,-904.1579 501.014,-851.644"/>
<polygon fill="#ffa500" stroke="#ffa500" points="494.5521,-1059.6998 497.9093,-1069.7486 501.5513,-1059.7995 494.5521,-1059.6998"/>
<text text-anchor="start" x="500.5" y="-955.5" font-family="Helvetica,sans-Serif" font-size="10.00" fill="#000000"> &lt; std::pair&lt; double,</text>
<text text-anchor="middle" x="544.5" y="-944.5" font-family="Helvetica,sans-Serif" font-size="10.00" fill="#000000"> double &gt; &gt;</text>
</g>
<!-- Node10 -->
<g id="node7" class="node">
<title>Node10</title>
<polygon fill="#ffffff" stroke="#bfbfbf" points="540,-1257.5 540,-1314.5 569,-1314.5 569,-1257.5 540,-1257.5"/>
<text text-anchor="middle" x="554.5" y="-1302.5" font-family="Helvetica,sans-Serif" font-size="10.00" fill="#000000">T</text>
<polyline fill="none" stroke="#bfbfbf" points="540,-1295.5 569,-1295.5 "/>
<text text-anchor="middle" x="554.5" y="-1283.5" font-family="Helvetica,sans-Serif" font-size="10.00" fill="#000000"> </text>
<polyline fill="none" stroke="#bfbfbf" points="540,-1276.5 569,-1276.5 "/>
<text text-anchor="middle" x="554.5" y="-1264.5" font-family="Helvetica,sans-Serif" font-size="10.00" fill="#000000"> </text>
</g>
<!-- Node10&#45;&gt;Node9 -->
<g id="edge6" class="edge">
<title>Node10&#45;&gt;Node9</title>
<path fill="none" stroke="#404040" d="M539.9976,-1261.6906C536.1785,-1254.5577 532.3377,-1246.6221 529.5,-1239 517.3348,-1206.3236 508.9308,-1167.5821 503.7985,-1139.0652"/>
<polygon fill="none" stroke="#404040" points="503.7793,-1138.954 498.8149,-1133.7239 501.7333,-1127.1297 506.6978,-1132.3599 503.7793,-1138.954"/>
<text text-anchor="middle" x="554" y="-1231" font-family="Helvetica,sans-Serif" font-size="10.00" fill="#000000"> +elements</text>
</g>
<!-- Node13 -->
<g id="node10" class="node">
<title>Node13</title>
<g id="a_node10"><a xlink:title="STL class. ">
<polygon fill="#ffffff" stroke="#bfbfbf" points="559,-1070 559,-1127 664,-1127 664,-1070 559,-1070"/>
<text text-anchor="middle" x="611.5" y="-1115" font-family="Helvetica,sans-Serif" font-size="10.00" fill="#000000">std::unique_ptr&lt; T &gt;</text>
<polyline fill="none" stroke="#bfbfbf" points="559,-1108 664,-1108 "/>
<text text-anchor="middle" x="611.5" y="-1096" font-family="Helvetica,sans-Serif" font-size="10.00" fill="#000000"> </text>
<polyline fill="none" stroke="#bfbfbf" points="559,-1089 664,-1089 "/>
<text text-anchor="start" x="567" y="-1077" font-family="Helvetica,sans-Serif" font-size="10.00" fill="#000000">+ operator&#45;&gt;()</text>
</a>
</g>
</g>
<!-- Node10&#45;&gt;Node13 -->
<g id="edge10" class="edge">
<title>Node10&#45;&gt;Node13</title>
<path fill="none" stroke="#404040" d="M569.1062,-1260.1533C572.5222,-1253.4109 575.9139,-1246.0537 578.5,-1239 590.5209,-1206.2121 599.2341,-1167.4806 604.6781,-1138.9958"/>
<polygon fill="none" stroke="#404040" points="604.7002,-1138.876 601.8568,-1132.2492 606.8804,-1127.0757 609.7237,-1133.7026 604.7002,-1138.876"/>
<text text-anchor="middle" x="592" y="-1231" font-family="Helvetica,sans-Serif" font-size="10.00" fill="#000000"> +ptr</text>
</g>
<!-- Node11 -->
<g id="node8" class="node">
<title>Node11</title>
<polygon fill="#ffffff" stroke="#bfbfbf" points="573,-778 573,-857 704,-857 704,-778 573,-778"/>
<text text-anchor="start" x="581" y="-845" font-family="Helvetica,sans-Serif" font-size="10.00" fill="#000000">std::unique_ptr&lt; Asteroids</text>
<text text-anchor="start" x="581" y="-834" font-family="Helvetica,sans-Serif" font-size="10.00" fill="#000000">::Domain::Game::Actors::</text>
<text text-anchor="middle" x="638.5" y="-823" font-family="Helvetica,sans-Serif" font-size="10.00" fill="#000000">Vector &gt;</text>
<polyline fill="none" stroke="#bfbfbf" points="573,-816 704,-816 "/>
<text text-anchor="middle" x="638.5" y="-804" font-family="Helvetica,sans-Serif" font-size="10.00" fill="#000000"> </text>
<polyline fill="none" stroke="#bfbfbf" points="573,-797 704,-797 "/>
<text text-anchor="start" x="581" y="-785" font-family="Helvetica,sans-Serif" font-size="10.00" fill="#000000">+ operator&#45;&gt;()</text>
</g>
<!-- Node11&#45;&gt;Node5 -->
<g id="edge7" class="edge">
<title>Node11&#45;&gt;Node5</title>
<path fill="none" stroke="#404040" d="M612.1318,-777.8998C572.6264,-718.5698 496.5643,-604.3385 438.9234,-517.7722"/>
<polygon fill="none" stroke="#404040" points="438.8176,-517.6133 432.1627,-514.8361 432.1668,-507.625 438.8216,-510.4022 438.8176,-517.6133"/>
<text text-anchor="middle" x="578" y="-691" font-family="Helvetica,sans-Serif" font-size="10.00" fill="#000000"> #_vector</text>
</g>
<!-- Node12 -->
<g id="node9" class="node">
<title>Node12</title>
<g id="a_node9"><a xlink:href="classAsteroids_1_1Domain_1_1Game_1_1Actors_1_1Vector.html" target="_top" xlink:title="Simple class to store 2D vector and rotation, to lend physics to game actors. ">
<polygon fill="#ffffff" stroke="#000000" points="689.5,-987.5 689.5,-1209.5 801.5,-1209.5 801.5,-987.5 689.5,-987.5"/>
<text text-anchor="start" x="697.5" y="-1197.5" font-family="Helvetica,sans-Serif" font-size="10.00" fill="#000000">Asteroids::Domain::</text>
<text text-anchor="middle" x="745.5" y="-1186.5" font-family="Helvetica,sans-Serif" font-size="10.00" fill="#000000">Game::Actors::Vector</text>
<polyline fill="none" stroke="#000000" points="689.5,-1179.5 801.5,-1179.5 "/>
<text text-anchor="start" x="697.5" y="-1167.5" font-family="Helvetica,sans-Serif" font-size="10.00" fill="#000000">&#45; _r</text>
<text text-anchor="start" x="697.5" y="-1156.5" font-family="Helvetica,sans-Serif" font-size="10.00" fill="#000000">&#45; _x</text>
<text text-anchor="start" x="697.5" y="-1145.5" font-family="Helvetica,sans-Serif" font-size="10.00" fill="#000000">&#45; _y</text>
<polyline fill="none" stroke="#000000" points="689.5,-1138.5 801.5,-1138.5 "/>
<text text-anchor="start" x="697.5" y="-1126.5" font-family="Helvetica,sans-Serif" font-size="10.00" fill="#000000">+ Vector()</text>
<text text-anchor="start" x="697.5" y="-1115.5" font-family="Helvetica,sans-Serif" font-size="10.00" fill="#000000">+ adjust()</text>
<text text-anchor="start" x="697.5" y="-1104.5" font-family="Helvetica,sans-Serif" font-size="10.00" fill="#000000">+ get_linear()</text>
<text text-anchor="start" x="697.5" y="-1093.5" font-family="Helvetica,sans-Serif" font-size="10.00" fill="#000000">+ get_rotated_linear()</text>
<text text-anchor="start" x="697.5" y="-1082.5" font-family="Helvetica,sans-Serif" font-size="10.00" fill="#000000">+ get_rotational()</text>
<text text-anchor="start" x="697.5" y="-1071.5" font-family="Helvetica,sans-Serif" font-size="10.00" fill="#000000">+ get_x()</text>
<text text-anchor="start" x="697.5" y="-1060.5" font-family="Helvetica,sans-Serif" font-size="10.00" fill="#000000">+ get_y()</text>
<text text-anchor="start" x="697.5" y="-1049.5" font-family="Helvetica,sans-Serif" font-size="10.00" fill="#000000">+ reset()</text>
<text text-anchor="start" x="697.5" y="-1038.5" font-family="Helvetica,sans-Serif" font-size="10.00" fill="#000000">+ set()</text>
<text text-anchor="start" x="697.5" y="-1027.5" font-family="Helvetica,sans-Serif" font-size="10.00" fill="#000000">+ update()</text>
<text text-anchor="start" x="697.5" y="-1016.5" font-family="Helvetica,sans-Serif" font-size="10.00" fill="#000000">+ rotate_velocity()</text>
<text text-anchor="start" x="697.5" y="-1005.5" font-family="Helvetica,sans-Serif" font-size="10.00" fill="#000000">&#45; apply_limits()</text>
<text text-anchor="start" x="697.5" y="-994.5" font-family="Helvetica,sans-Serif" font-size="10.00" fill="#000000">&#45; dampen()</text>
</a>
</g>
</g>
<!-- Node12&#45;&gt;Node11 -->
<g id="edge8" class="edge">
<title>Node12&#45;&gt;Node11</title>
<path fill="none" stroke="#404040" d="M737.8196,-987.3722C734.5231,-969.8111 729.9157,-952.1376 723.5,-936 713.6532,-911.2322 697.531,-886.7957 681.9596,-866.6063"/>
<polygon fill="none" stroke="#404040" points="681.8425,-866.4586 674.9811,-864.2403 674.3897,-857.0535 681.2511,-859.2717 681.8425,-866.4586"/>
<text text-anchor="middle" x="744" y="-950" font-family="Helvetica,sans-Serif" font-size="10.00" fill="#000000"> +ptr</text>
</g>
<!-- Node13&#45;&gt;Node11 -->
<g id="edge9" class="edge">
<title>Node13&#45;&gt;Node11</title>
<path fill="none" stroke="#ffa500" d="M609.4655,-1059.7816C608.2737,-1026.7746 607.8018,-978.1251 612.5,-936 615.4649,-909.4157 621.8869,-880.0441 627.6062,-857.1934"/>
<polygon fill="#ffa500" stroke="#ffa500" points="605.9741,-1060.0687 609.872,-1069.9204 612.9684,-1059.7881 605.9741,-1060.0687"/>
<text text-anchor="start" x="612.5" y="-955.5" font-family="Helvetica,sans-Serif" font-size="10.00" fill="#000000"> &lt; Asteroids::Domain</text>
<text text-anchor="middle" x="668" y="-944.5" font-family="Helvetica,sans-Serif" font-size="10.00" fill="#000000">::Game::Actors::Vector &gt;</text>
</g>
<!-- Node14&#45;&gt;Node5 -->
<g id="edge11" class="edge">
<title>Node14&#45;&gt;Node5</title>
<path fill="none" stroke="#404040" d="M490.0895,-783.3511C477.7535,-746.4324 457.0004,-684.3238 435.8286,-620.9616"/>
<polygon fill="none" stroke="#404040" points="435.8153,-620.9216 430.1199,-616.4986 432.0122,-609.5401 437.7076,-613.9632 435.8153,-620.9216"/>
<text text-anchor="middle" x="500" y="-691" font-family="Helvetica,sans-Serif" font-size="10.00" fill="#000000"> &#45;_polygon_points</text>
</g>
</g>
</svg>
