<?xml version="1.0" encoding="UTF-8" standalone="no"?>
<!DOCTYPE svg PUBLIC "-//W3C//DTD SVG 1.1//EN"
 "http://www.w3.org/Graphics/SVG/1.1/DTD/svg11.dtd">
<!-- Generated by graphviz version 2.40.1 (20161225.0304)
 -->
<!-- Title: Asteroids::Domain::Net::Authentication::Authenticator::sendAuthToServer Pages: 1 -->
<svg width="326pt" height="61pt"
 viewBox="0.00 0.00 326.00 61.00" xmlns="http://www.w3.org/2000/svg" xmlns:xlink="http://www.w3.org/1999/xlink">
<g id="graph0" class="graph" transform="scale(1 1) rotate(0) translate(4 57)">
<title>Asteroids::Domain::Net::Authentication::Authenticator::sendAuthToServer</title>
<polygon fill="#ffffff" stroke="transparent" points="-4,4 -4,-57 322,-57 322,4 -4,4"/>
<!-- Node10 -->
<g id="node1" class="node">
<title>Node10</title>
<polygon fill="#bfbfbf" stroke="#000000" points="0,-.5 0,-52.5 139,-52.5 139,-.5 0,-.5"/>
<text text-anchor="start" x="8" y="-40.5" font-family="Helvetica,sans-Serif" font-size="10.00" fill="#000000">Asteroids::Domain::</text>
<text text-anchor="start" x="8" y="-29.5" font-family="Helvetica,sans-Serif" font-size="10.00" fill="#000000">Net::Authentication</text>
<text text-anchor="start" x="8" y="-18.5" font-family="Helvetica,sans-Serif" font-size="10.00" fill="#000000">::Authenticator::sendAuthTo</text>
<text text-anchor="middle" x="69.5" y="-7.5" font-family="Helvetica,sans-Serif" font-size="10.00" fill="#000000">Server</text>
</g>
<!-- Node11 -->
<g id="node2" class="node">
<title>Node11</title>
<g id="a_node2"><a xlink:href="classAsteroids_1_1Domain_1_1Net_1_1Authentication_1_1Authenticator.html#a1dd2c0964bae0658b8477c7d041f62d5" target="_top" xlink:title="Asteroids::Domain::\lNet::Authentication\l::Authenticator::attemptLogin">
<polygon fill="#ffffff" stroke="#000000" points="175,-6 175,-47 318,-47 318,-6 175,-6"/>
<text text-anchor="start" x="183" y="-35" font-family="Helvetica,sans-Serif" font-size="10.00" fill="#000000">Asteroids::Domain::</text>
<text text-anchor="start" x="183" y="-24" font-family="Helvetica,sans-Serif" font-size="10.00" fill="#000000">Net::Authentication</text>
<text text-anchor="middle" x="246.5" y="-13" font-family="Helvetica,sans-Serif" font-size="10.00" fill="#000000">::Authenticator::attemptLogin</text>
</a>
</g>
</g>
<!-- Node10&#45;&gt;Node11 -->
<g id="edge1" class="edge">
<title>Node10&#45;&gt;Node11</title>
<path fill="none" stroke="#191970" d="M149.4463,-26.5C157.9056,-26.5 166.4701,-26.5 174.8268,-26.5"/>
<polygon fill="#191970" stroke="#191970" points="149.201,-23.0001 139.201,-26.5 149.201,-30.0001 149.201,-23.0001"/>
</g>
</g>
</svg>
