<?xml version="1.0" encoding="UTF-8" standalone="no"?>
<!DOCTYPE svg PUBLIC "-//W3C//DTD SVG 1.1//EN"
 "http://www.w3.org/Graphics/SVG/1.1/DTD/svg11.dtd">
<!-- Generated by graphviz version 2.40.1 (20161225.0304)
 -->
<!-- Title: Asteroids::Domain::Game::Actors::GunShip::update Pages: 1 -->
<!--zoomable 320 -->
<svg id="main" version="1.1" xmlns="http://www.w3.org/2000/svg" xmlns:xlink="http://www.w3.org/1999/xlink" xml:space="preserve" onload="init(evt)">
<style type="text/css"><![CDATA[
.edge:hover path { stroke: red; }
.edge:hover polygon { stroke: red; fill: red; }
]]></style>
<script type="text/javascript"><![CDATA[
var edges = document.getElementsByTagName('g');
if (edges && edges.length) {
  for (var i=0;i<edges.length;i++) {
    if (edges[i].id.substr(0,4)=='edge') {
      edges[i].setAttribute('class','edge');
    }
  }
}
]]></script>
        <defs>
                <circle id="rim" cx="0" cy="0" r="7"/>
                <circle id="rim2" cx="0" cy="0" r="3.5"/>
                <g id="zoomPlus">
                        <use xlink:href="#rim" fill="#404040">
                                <set attributeName="fill" to="#808080" begin="zoomplus.mouseover" end="zoomplus.mouseout"/>
                        </use>
                        <path d="M-4,0h8M0,-4v8" fill="none" stroke="white" stroke-width="1.5" pointer-events="none"/>
                </g>
                <g id="zoomMin">
                        <use xlink:href="#rim" fill="#404040">
                                <set attributeName="fill" to="#808080" begin="zoomminus.mouseover" end="zoomminus.mouseout"/>
                        </use>
                        <path d="M-4,0h8" fill="none" stroke="white" stroke-width="1.5" pointer-events="none"/>
                </g>
                <g id="dirArrow">
                        <path fill="none" stroke="white" stroke-width="1.5" d="M0,-3.0v7 M-2.5,-0.5L0,-3.0L2.5,-0.5"/>
                </g>
               <g id="resetDef">
                       <use xlink:href="#rim2" fill="#404040">
                               <set attributeName="fill" to="#808080" begin="reset.mouseover" end="reset.mouseout"/>
                       </use>
               </g>
        </defs>

<script type="text/javascript">
var viewWidth = 893;
var viewHeight = 320;
var sectionId = 'dynsection-9';
</script>
<script xlink:href="svgpan.js"/>
<svg id="graph" class="graph">
<g id="viewport">
<title>Asteroids::Domain::Game::Actors::GunShip::update</title>
<polygon fill="#ffffff" stroke="transparent" points="-4,4 -4,-316 889,-316 889,4 -4,4"/>
<!-- Node51 -->
<g id="node1" class="node">
<title>Node51</title>
<polygon fill="#bfbfbf" stroke="#000000" points="0,-150.5 0,-191.5 121,-191.5 121,-150.5 0,-150.5"/>
<text text-anchor="start" x="8" y="-179.5" font-family="Helvetica,sans-Serif" font-size="10.00" fill="#000000">Asteroids::Domain::</text>
<text text-anchor="start" x="8" y="-168.5" font-family="Helvetica,sans-Serif" font-size="10.00" fill="#000000">Game::Actors::GunShip</text>
<text text-anchor="middle" x="60.5" y="-157.5" font-family="Helvetica,sans-Serif" font-size="10.00" fill="#000000">::update</text>
</g>
<!-- Node52 -->
<g id="node2" class="node">
<title>Node52</title>
<g id="a_node2"><a xlink:href="classAsteroids_1_1Domain_1_1Game_1_1Actors_1_1Actor.html#a5a53ac407eec2feb06f167d1a496bbe5" target="_top" xlink:title="Asteroids::Domain::\lGame::Actors::Actor\l::update">
<polygon fill="#ffffff" stroke="#000000" points="164,-201.5 164,-242.5 271,-242.5 271,-201.5 164,-201.5"/>
<text text-anchor="start" x="172" y="-230.5" font-family="Helvetica,sans-Serif" font-size="10.00" fill="#000000">Asteroids::Domain::</text>
<text text-anchor="start" x="172" y="-219.5" font-family="Helvetica,sans-Serif" font-size="10.00" fill="#000000">Game::Actors::Actor</text>
<text text-anchor="middle" x="217.5" y="-208.5" font-family="Helvetica,sans-Serif" font-size="10.00" fill="#000000">::update</text>
</a>
</g>
</g>
<!-- Node51&#45;&gt;Node52 -->
<g id="edge1" class="edge">
<title>Node51&#45;&gt;Node52</title>
<path fill="none" stroke="#191970" d="M121.2003,-190.7179C131.9689,-194.216 143.2091,-197.8673 154.0514,-201.3893"/>
<polygon fill="#191970" stroke="#191970" points="153.2796,-204.8186 163.8718,-204.5794 155.4423,-198.161 153.2796,-204.8186"/>
</g>
<!-- Node58 -->
<g id="node8" class="node">
<title>Node58</title>
<g id="a_node8"><a xlink:href="classAsteroids_1_1Domain_1_1Game_1_1Actors_1_1GunShip.html#aae99fa7e1cae7f17c81b68217ed2fa32" target="_top" xlink:title="Asteroids::Domain::\lGame::Actors::GunShip\l::use_input">
<polygon fill="#ffffff" stroke="#000000" points="157,-120.5 157,-161.5 278,-161.5 278,-120.5 157,-120.5"/>
<text text-anchor="start" x="165" y="-149.5" font-family="Helvetica,sans-Serif" font-size="10.00" fill="#000000">Asteroids::Domain::</text>
<text text-anchor="start" x="165" y="-138.5" font-family="Helvetica,sans-Serif" font-size="10.00" fill="#000000">Game::Actors::GunShip</text>
<text text-anchor="middle" x="217.5" y="-127.5" font-family="Helvetica,sans-Serif" font-size="10.00" fill="#000000">::use_input</text>
</a>
</g>
</g>
<!-- Node51&#45;&gt;Node58 -->
<g id="edge8" class="edge">
<title>Node51&#45;&gt;Node58</title>
<path fill="none" stroke="#191970" d="M121.2003,-159.4012C129.635,-157.7895 138.3591,-156.1225 146.9547,-154.48"/>
<polygon fill="#191970" stroke="#191970" points="147.7958,-157.8827 156.9611,-152.5679 146.4819,-151.0071 147.7958,-157.8827"/>
</g>
<!-- Node53 -->
<g id="node3" class="node">
<title>Node53</title>
<g id="a_node3"><a xlink:href="classAsteroids_1_1Domain_1_1Game_1_1Actors_1_1Actor.html#aafec1372aa2f5b203112aae5f6b16310" target="_top" xlink:title="Asteroids::Domain::\lGame::Actors::Actor\l::apply_vector_to_position">
<polygon fill="#ffffff" stroke="#000000" points="314,-231.5 314,-272.5 445,-272.5 445,-231.5 314,-231.5"/>
<text text-anchor="start" x="322" y="-260.5" font-family="Helvetica,sans-Serif" font-size="10.00" fill="#000000">Asteroids::Domain::</text>
<text text-anchor="start" x="322" y="-249.5" font-family="Helvetica,sans-Serif" font-size="10.00" fill="#000000">Game::Actors::Actor</text>
<text text-anchor="middle" x="379.5" y="-238.5" font-family="Helvetica,sans-Serif" font-size="10.00" fill="#000000">::apply_vector_to_position</text>
</a>
</g>
</g>
<!-- Node52&#45;&gt;Node53 -->
<g id="edge2" class="edge">
<title>Node52&#45;&gt;Node53</title>
<path fill="none" stroke="#191970" d="M271.4437,-231.9896C281.8733,-233.921 292.979,-235.9776 303.9508,-238.0094"/>
<polygon fill="#191970" stroke="#191970" points="303.4958,-241.4846 313.966,-239.8641 304.7705,-234.6016 303.4958,-241.4846"/>
</g>
<!-- Node54 -->
<g id="node4" class="node">
<title>Node54</title>
<g id="a_node4"><a xlink:href="classAsteroids_1_1Domain_1_1Game_1_1Actors_1_1Actor.html#a4bb89af7457ff402fa5a4a11d62ab4ca" target="_top" xlink:title="Asteroids::Domain::\lGame::Actors::Actor\l::update_rect">
<polygon fill="#ffffff" stroke="#000000" points="483.5,-240.5 483.5,-281.5 590.5,-281.5 590.5,-240.5 483.5,-240.5"/>
<text text-anchor="start" x="491.5" y="-269.5" font-family="Helvetica,sans-Serif" font-size="10.00" fill="#000000">Asteroids::Domain::</text>
<text text-anchor="start" x="491.5" y="-258.5" font-family="Helvetica,sans-Serif" font-size="10.00" fill="#000000">Game::Actors::Actor</text>
<text text-anchor="middle" x="537" y="-247.5" font-family="Helvetica,sans-Serif" font-size="10.00" fill="#000000">::update_rect</text>
</a>
</g>
</g>
<!-- Node53&#45;&gt;Node54 -->
<g id="edge3" class="edge">
<title>Node53&#45;&gt;Node54</title>
<path fill="none" stroke="#191970" d="M445.3816,-255.7647C454.5684,-256.2896 463.9954,-256.8283 473.1441,-257.3511"/>
<polygon fill="#191970" stroke="#191970" points="473.1439,-260.8567 483.3273,-257.933 473.5433,-253.8681 473.1439,-260.8567"/>
</g>
<!-- Node55 -->
<g id="node5" class="node">
<title>Node55</title>
<g id="a_node5"><a xlink:href="classAsteroids_1_1Domain_1_1Game_1_1Actors_1_1Rect.html#a0ab06f4fe6e0dbd681c89397f22aa08f" target="_top" xlink:title="Asteroids::Domain::\lGame::Actors::Rect::\ladd_offset">
<polygon fill="#ffffff" stroke="#000000" points="629,-270.5 629,-311.5 739,-311.5 739,-270.5 629,-270.5"/>
<text text-anchor="start" x="637" y="-299.5" font-family="Helvetica,sans-Serif" font-size="10.00" fill="#000000">Asteroids::Domain::</text>
<text text-anchor="start" x="637" y="-288.5" font-family="Helvetica,sans-Serif" font-size="10.00" fill="#000000">Game::Actors::Rect::</text>
<text text-anchor="middle" x="684" y="-277.5" font-family="Helvetica,sans-Serif" font-size="10.00" fill="#000000">add_offset</text>
</a>
</g>
</g>
<!-- Node54&#45;&gt;Node55 -->
<g id="edge4" class="edge">
<title>Node54&#45;&gt;Node55</title>
<path fill="none" stroke="#191970" d="M590.9027,-272.0005C599.929,-273.8426 609.3807,-275.7716 618.6569,-277.6647"/>
<polygon fill="#191970" stroke="#191970" points="618.1273,-281.1287 628.6253,-279.699 619.5271,-274.27 618.1273,-281.1287"/>
</g>
<!-- Node57 -->
<g id="node7" class="node">
<title>Node57</title>
<g id="a_node7"><a xlink:href="classAsteroids_1_1Domain_1_1Game_1_1Actors_1_1Rect.html#a687d0848c13d1b8dfbd2f896636b4145" target="_top" xlink:title="Create a rect from polygon points. ">
<polygon fill="#ffffff" stroke="#000000" points="629,-210.5 629,-251.5 739,-251.5 739,-210.5 629,-210.5"/>
<text text-anchor="start" x="637" y="-239.5" font-family="Helvetica,sans-Serif" font-size="10.00" fill="#000000">Asteroids::Domain::</text>
<text text-anchor="start" x="637" y="-228.5" font-family="Helvetica,sans-Serif" font-size="10.00" fill="#000000">Game::Actors::Rect::</text>
<text text-anchor="middle" x="684" y="-217.5" font-family="Helvetica,sans-Serif" font-size="10.00" fill="#000000">consume_polygon</text>
</a>
</g>
</g>
<!-- Node54&#45;&gt;Node57 -->
<g id="edge6" class="edge">
<title>Node54&#45;&gt;Node57</title>
<path fill="none" stroke="#191970" d="M590.9027,-249.9995C599.929,-248.1574 609.3807,-246.2284 618.6569,-244.3353"/>
<polygon fill="#191970" stroke="#191970" points="619.5271,-247.73 628.6253,-242.301 618.1273,-240.8713 619.5271,-247.73"/>
</g>
<!-- Node56 -->
<g id="node6" class="node">
<title>Node56</title>
<g id="a_node6"><a xlink:href="classAsteroids_1_1Domain_1_1Game_1_1Actors_1_1Rect.html#a40c593b8be9c243d6cdc30e2f8ee67df" target="_top" xlink:title="Asteroids::Domain::\lGame::Actors::Rect::\lupdate_dimensions">
<polygon fill="#ffffff" stroke="#000000" points="775,-240.5 775,-281.5 885,-281.5 885,-240.5 775,-240.5"/>
<text text-anchor="start" x="783" y="-269.5" font-family="Helvetica,sans-Serif" font-size="10.00" fill="#000000">Asteroids::Domain::</text>
<text text-anchor="start" x="783" y="-258.5" font-family="Helvetica,sans-Serif" font-size="10.00" fill="#000000">Game::Actors::Rect::</text>
<text text-anchor="middle" x="830" y="-247.5" font-family="Helvetica,sans-Serif" font-size="10.00" fill="#000000">update_dimensions</text>
</a>
</g>
</g>
<!-- Node55&#45;&gt;Node56 -->
<g id="edge5" class="edge">
<title>Node55&#45;&gt;Node56</title>
<path fill="none" stroke="#191970" d="M739.1963,-279.6583C747.5541,-277.9409 756.2434,-276.1555 764.7888,-274.3996"/>
<polygon fill="#191970" stroke="#191970" points="765.6347,-277.7989 774.7256,-272.3578 764.2258,-270.9422 765.6347,-277.7989"/>
</g>
<!-- Node57&#45;&gt;Node56 -->
<g id="edge7" class="edge">
<title>Node57&#45;&gt;Node56</title>
<path fill="none" stroke="#191970" d="M739.1963,-242.3417C747.5541,-244.0591 756.2434,-245.8445 764.7888,-247.6004"/>
<polygon fill="#191970" stroke="#191970" points="764.2258,-251.0578 774.7256,-249.6422 765.6347,-244.2011 764.2258,-251.0578"/>
</g>
<!-- Node59 -->
<g id="node9" class="node">
<title>Node59</title>
<g id="a_node9"><a xlink:href="classAsteroids_1_1Domain_1_1Game_1_1Actors_1_1Vector.html#a540d3867c26c3cc6dafeb7a055cd392d" target="_top" xlink:title="Asteroids::Domain::\lGame::Actors::Vector\l::rotate_velocity">
<polygon fill="#ffffff" stroke="#000000" points="481,-.5 481,-41.5 593,-41.5 593,-.5 481,-.5"/>
<text text-anchor="start" x="489" y="-29.5" font-family="Helvetica,sans-Serif" font-size="10.00" fill="#000000">Asteroids::Domain::</text>
<text text-anchor="start" x="489" y="-18.5" font-family="Helvetica,sans-Serif" font-size="10.00" fill="#000000">Game::Actors::Vector</text>
<text text-anchor="middle" x="537" y="-7.5" font-family="Helvetica,sans-Serif" font-size="10.00" fill="#000000">::rotate_velocity</text>
</a>
</g>
</g>
<!-- Node58&#45;&gt;Node59 -->
<g id="edge9" class="edge">
<title>Node58&#45;&gt;Node59</title>
<path fill="none" stroke="#191970" d="M233.0906,-120.3229C250.3559,-99.0957 280.2493,-66.9776 314,-51 363.0733,-27.7686 424.5932,-20.92 470.5796,-19.5128"/>
<polygon fill="#191970" stroke="#191970" points="470.8169,-23.0084 480.7348,-19.2821 470.6579,-16.0102 470.8169,-23.0084"/>
</g>
<!-- Node60 -->
<g id="node10" class="node">
<title>Node60</title>
<g id="a_node10"><a xlink:href="classAsteroids_1_1Domain_1_1Game_1_1Actors_1_1Actor.html#afa2ca9372ddf8f08de11682dae43840f" target="_top" xlink:title="Asteroids::Domain::\lGame::Actors::Actor\l::get_rotation">
<polygon fill="#ffffff" stroke="#000000" points="483.5,-180.5 483.5,-221.5 590.5,-221.5 590.5,-180.5 483.5,-180.5"/>
<text text-anchor="start" x="491.5" y="-209.5" font-family="Helvetica,sans-Serif" font-size="10.00" fill="#000000">Asteroids::Domain::</text>
<text text-anchor="start" x="491.5" y="-198.5" font-family="Helvetica,sans-Serif" font-size="10.00" fill="#000000">Game::Actors::Actor</text>
<text text-anchor="middle" x="537" y="-187.5" font-family="Helvetica,sans-Serif" font-size="10.00" fill="#000000">::get_rotation</text>
</a>
</g>
</g>
<!-- Node58&#45;&gt;Node60 -->
<g id="edge10" class="edge">
<title>Node58&#45;&gt;Node60</title>
<path fill="none" stroke="#191970" d="M278.0851,-161.5309C289.9014,-165.0521 302.2654,-168.4059 314,-171 367.08,-182.7342 428.3474,-190.576 473.216,-195.2897"/>
<polygon fill="#191970" stroke="#191970" points="473.0857,-198.7947 483.391,-196.3347 473.8009,-191.8313 473.0857,-198.7947"/>
</g>
<!-- Node61 -->
<g id="node11" class="node">
<title>Node61</title>
<g id="a_node11"><a xlink:href="classAsteroids_1_1Domain_1_1Game_1_1Actors_1_1Actor.html#ade49ee1d618ef27e07314794fcf25cf0" target="_top" xlink:title="Asteroids::Domain::\lGame::Actors::Actor\l::set_input_fire">
<polygon fill="#ffffff" stroke="#000000" points="326,-60.5 326,-101.5 433,-101.5 433,-60.5 326,-60.5"/>
<text text-anchor="start" x="334" y="-89.5" font-family="Helvetica,sans-Serif" font-size="10.00" fill="#000000">Asteroids::Domain::</text>
<text text-anchor="start" x="334" y="-78.5" font-family="Helvetica,sans-Serif" font-size="10.00" fill="#000000">Game::Actors::Actor</text>
<text text-anchor="middle" x="379.5" y="-67.5" font-family="Helvetica,sans-Serif" font-size="10.00" fill="#000000">::set_input_fire</text>
</a>
</g>
</g>
<!-- Node58&#45;&gt;Node61 -->
<g id="edge11" class="edge">
<title>Node58&#45;&gt;Node61</title>
<path fill="none" stroke="#191970" d="M273.2512,-120.3514C287.0829,-115.2285 302.0061,-109.7015 316.1712,-104.4551"/>
<polygon fill="#191970" stroke="#191970" points="317.6722,-107.6316 325.8341,-100.8763 315.241,-101.0674 317.6722,-107.6316"/>
</g>
<!-- Node62 -->
<g id="node12" class="node">
<title>Node62</title>
<g id="a_node12"><a xlink:href="classAsteroids_1_1Domain_1_1Game_1_1Actors_1_1Actor.html#ad108a838180454ac98facde4518d7660" target="_top" xlink:title="Asteroids::Domain::\lGame::Actors::Actor\l::fire_bullet">
<polygon fill="#ffffff" stroke="#000000" points="326,-120.5 326,-161.5 433,-161.5 433,-120.5 326,-120.5"/>
<text text-anchor="start" x="334" y="-149.5" font-family="Helvetica,sans-Serif" font-size="10.00" fill="#000000">Asteroids::Domain::</text>
<text text-anchor="start" x="334" y="-138.5" font-family="Helvetica,sans-Serif" font-size="10.00" fill="#000000">Game::Actors::Actor</text>
<text text-anchor="middle" x="379.5" y="-127.5" font-family="Helvetica,sans-Serif" font-size="10.00" fill="#000000">::fire_bullet</text>
</a>
</g>
</g>
<!-- Node58&#45;&gt;Node62 -->
<g id="edge12" class="edge">
<title>Node58&#45;&gt;Node62</title>
<path fill="none" stroke="#191970" d="M278.2837,-141C290.4884,-141 303.3472,-141 315.6526,-141"/>
<polygon fill="#191970" stroke="#191970" points="315.8323,-144.5001 325.8323,-141 315.8323,-137.5001 315.8323,-144.5001"/>
</g>
<!-- Node62&#45;&gt;Node59 -->
<g id="edge16" class="edge">
<title>Node62&#45;&gt;Node59</title>
<path fill="none" stroke="#191970" d="M432.4115,-120.2978C436.9009,-117.5132 441.1785,-114.4195 445,-111 468.175,-90.2628 458.4822,-72.449 481,-51 482.2354,-49.8233 483.5259,-48.6792 484.8604,-47.5682"/>
<polygon fill="#191970" stroke="#191970" points="486.9823,-50.3519 492.9069,-41.5684 482.798,-44.7402 486.9823,-50.3519"/>
</g>
<!-- Node62&#45;&gt;Node60 -->
<g id="edge13" class="edge">
<title>Node62&#45;&gt;Node60</title>
<path fill="none" stroke="#191970" d="M433.2621,-161.4808C446.3131,-166.4526 460.3857,-171.8136 473.8276,-176.9343"/>
<polygon fill="#191970" stroke="#191970" points="472.8894,-180.3222 483.4802,-180.6115 475.3814,-173.7808 472.8894,-180.3222"/>
</g>
<!-- Node63 -->
<g id="node13" class="node">
<title>Node63</title>
<g id="a_node13"><a xlink:href="classAsteroids_1_1Domain_1_1Game_1_1Actors_1_1Actor.html#a6b56087b412883601fce5af07d67bd50" target="_top" xlink:title="Asteroids::Domain::\lGame::Actors::Actor\l::get_x">
<polygon fill="#ffffff" stroke="#000000" points="483.5,-120.5 483.5,-161.5 590.5,-161.5 590.5,-120.5 483.5,-120.5"/>
<text text-anchor="start" x="491.5" y="-149.5" font-family="Helvetica,sans-Serif" font-size="10.00" fill="#000000">Asteroids::Domain::</text>
<text text-anchor="start" x="491.5" y="-138.5" font-family="Helvetica,sans-Serif" font-size="10.00" fill="#000000">Game::Actors::Actor</text>
<text text-anchor="middle" x="537" y="-127.5" font-family="Helvetica,sans-Serif" font-size="10.00" fill="#000000">::get_x</text>
</a>
</g>
</g>
<!-- Node62&#45;&gt;Node63 -->
<g id="edge14" class="edge">
<title>Node62&#45;&gt;Node63</title>
<path fill="none" stroke="#191970" d="M433.2621,-141C446.1864,-141 460.1125,-141 473.4359,-141"/>
<polygon fill="#191970" stroke="#191970" points="473.4803,-144.5001 483.4802,-141 473.4802,-137.5001 473.4803,-144.5001"/>
</g>
<!-- Node64 -->
<g id="node14" class="node">
<title>Node64</title>
<g id="a_node14"><a xlink:href="classAsteroids_1_1Domain_1_1Game_1_1Actors_1_1Actor.html#afa54aab6e7be56e04014dd3f80f0e7af" target="_top" xlink:title="Asteroids::Domain::\lGame::Actors::Actor\l::get_y">
<polygon fill="#ffffff" stroke="#000000" points="483.5,-60.5 483.5,-101.5 590.5,-101.5 590.5,-60.5 483.5,-60.5"/>
<text text-anchor="start" x="491.5" y="-89.5" font-family="Helvetica,sans-Serif" font-size="10.00" fill="#000000">Asteroids::Domain::</text>
<text text-anchor="start" x="491.5" y="-78.5" font-family="Helvetica,sans-Serif" font-size="10.00" fill="#000000">Game::Actors::Actor</text>
<text text-anchor="middle" x="537" y="-67.5" font-family="Helvetica,sans-Serif" font-size="10.00" fill="#000000">::get_y</text>
</a>
</g>
</g>
<!-- Node62&#45;&gt;Node64 -->
<g id="edge15" class="edge">
<title>Node62&#45;&gt;Node64</title>
<path fill="none" stroke="#191970" d="M433.2621,-120.5192C446.3131,-115.5474 460.3857,-110.1864 473.8276,-105.0657"/>
<polygon fill="#191970" stroke="#191970" points="475.3814,-108.2192 483.4802,-101.3885 472.8894,-101.6778 475.3814,-108.2192"/>
</g>
</g>
</svg>
        <g id="navigator" transform="translate(0 0)" fill="#404254">
                <rect fill="#f2f5e9" fill-opacity="0.5" stroke="#606060" stroke-width=".5" x="0" y="0" width="60" height="60"/>
                <use id="zoomplus" xlink:href="#zoomPlus" x="17" y="9" onmousedown="handleZoom(evt,'in')"/>
                <use id="zoomminus" xlink:href="#zoomMin" x="42" y="9" onmousedown="handleZoom(evt,'out')"/>
                <use id="reset" xlink:href="#resetDef" x="30" y="36" onmousedown="handleReset()"/>
                <g id="arrowUp" xlink:href="#dirArrow" transform="translate(30 24)" onmousedown="handlePan(0,-1)">
                  <use xlink:href="#rim" fill="#404040">
                        <set attributeName="fill" to="#808080" begin="arrowUp.mouseover" end="arrowUp.mouseout"/>
                  </use>
                  <path fill="none" stroke="white" stroke-width="1.5" d="M0,-3.0v7 M-2.5,-0.5L0,-3.0L2.5,-0.5"/>
                </g>
                <g id="arrowRight" xlink:href="#dirArrow" transform="rotate(90) translate(36 -43)" onmousedown="handlePan(1,0)">
                  <use xlink:href="#rim" fill="#404040">
                        <set attributeName="fill" to="#808080" begin="arrowRight.mouseover" end="arrowRight.mouseout"/>
                  </use>
                  <path fill="none" stroke="white" stroke-width="1.5" d="M0,-3.0v7 M-2.5,-0.5L0,-3.0L2.5,-0.5"/>
                </g>
                <g id="arrowDown" xlink:href="#dirArrow" transform="rotate(180) translate(-30 -48)" onmousedown="handlePan(0,1)">
                  <use xlink:href="#rim" fill="#404040">
                        <set attributeName="fill" to="#808080" begin="arrowDown.mouseover" end="arrowDown.mouseout"/>
                  </use>
                  <path fill="none" stroke="white" stroke-width="1.5" d="M0,-3.0v7 M-2.5,-0.5L0,-3.0L2.5,-0.5"/>
                </g>
                <g id="arrowLeft" xlink:href="#dirArrow" transform="rotate(270) translate(-36 17)" onmousedown="handlePan(-1,0)">
                  <use xlink:href="#rim" fill="#404040">
                        <set attributeName="fill" to="#808080" begin="arrowLeft.mouseover" end="arrowLeft.mouseout"/>
                  </use>
                  <path fill="none" stroke="white" stroke-width="1.5" d="M0,-3.0v7 M-2.5,-0.5L0,-3.0L2.5,-0.5"/>
                </g>
        </g>
        <svg viewBox="0 0 15 15" width="100%" height="30px" preserveAspectRatio="xMaxYMin meet">
         <g id="arrow_out" transform="scale(0.3 0.3)">
          <a xlink:href="classAsteroids_1_1Domain_1_1Game_1_1Actors_1_1GunShip_a4b37d42d9758c701d75e6a91dda71a5b_cgraph_org.svg" target="_base">
           <rect id="button" ry="5" rx="5" y="6" x="6" height="38" width="38"
                fill="#f2f5e9" fill-opacity="0.5" stroke="#606060" stroke-width="1.0"/>
           <path id="arrow"
             d="M 11.500037,31.436501 C 11.940474,20.09759 22.043105,11.32322 32.158766,21.979434 L 37.068811,17.246167 C 37.068811,17.246167 37.088388,32 37.088388,32 L 22.160133,31.978069 C 22.160133,31.978069 26.997745,27.140456 26.997745,27.140456 C 18.528582,18.264221 13.291696,25.230495 11.500037,31.436501 z"
             style="fill:#404040;"/>
          </a>
         </g>
        </svg>
</svg>
