<?xml version="1.0" encoding="UTF-8" standalone="no"?>
<!DOCTYPE svg PUBLIC "-//W3C//DTD SVG 1.1//EN"
 "http://www.w3.org/Graphics/SVG/1.1/DTD/svg11.dtd">
<!-- Generated by graphviz version 2.40.1 (20161225.0304)
 -->
<!-- Title: Asteroids::Domain::Game::Actors::Actor::update_rect Pages: 1 -->
<svg width="407pt" height="110pt"
 viewBox="0.00 0.00 407.00 110.00" xmlns="http://www.w3.org/2000/svg" xmlns:xlink="http://www.w3.org/1999/xlink">
<g id="graph0" class="graph" transform="scale(1 1) rotate(0) translate(4 106)">
<title>Asteroids::Domain::Game::Actors::Actor::update_rect</title>
<polygon fill="#ffffff" stroke="transparent" points="-4,4 -4,-106 403,-106 403,4 -4,4"/>
<!-- Node166 -->
<g id="node1" class="node">
<title>Node166</title>
<polygon fill="#bfbfbf" stroke="#000000" points="0,-30.5 0,-71.5 107,-71.5 107,-30.5 0,-30.5"/>
<text text-anchor="start" x="8" y="-59.5" font-family="Helvetica,sans-Serif" font-size="10.00" fill="#000000">Asteroids::Domain::</text>
<text text-anchor="start" x="8" y="-48.5" font-family="Helvetica,sans-Serif" font-size="10.00" fill="#000000">Game::Actors::Actor</text>
<text text-anchor="middle" x="53.5" y="-37.5" font-family="Helvetica,sans-Serif" font-size="10.00" fill="#000000">::update_rect</text>
</g>
<!-- Node167 -->
<g id="node2" class="node">
<title>Node167</title>
<g id="a_node2"><a xlink:href="classAsteroids_1_1Domain_1_1Game_1_1Actors_1_1Rect.html#a0ab06f4fe6e0dbd681c89397f22aa08f" target="_top" xlink:title="Asteroids::Domain::\lGame::Actors::Rect::\ladd_offset">
<polygon fill="#ffffff" stroke="#000000" points="143,-60.5 143,-101.5 253,-101.5 253,-60.5 143,-60.5"/>
<text text-anchor="start" x="151" y="-89.5" font-family="Helvetica,sans-Serif" font-size="10.00" fill="#000000">Asteroids::Domain::</text>
<text text-anchor="start" x="151" y="-78.5" font-family="Helvetica,sans-Serif" font-size="10.00" fill="#000000">Game::Actors::Rect::</text>
<text text-anchor="middle" x="198" y="-67.5" font-family="Helvetica,sans-Serif" font-size="10.00" fill="#000000">add_offset</text>
</a>
</g>
</g>
<!-- Node166&#45;&gt;Node167 -->
<g id="edge1" class="edge">
<title>Node166&#45;&gt;Node167</title>
<path fill="none" stroke="#191970" d="M107.3065,-62.1709C115.6114,-63.8951 124.2648,-65.6917 132.7864,-67.4608"/>
<polygon fill="#191970" stroke="#191970" points="132.1979,-70.9132 142.7006,-69.5192 133.6209,-64.0594 132.1979,-70.9132"/>
</g>
<!-- Node169 -->
<g id="node4" class="node">
<title>Node169</title>
<g id="a_node4"><a xlink:href="classAsteroids_1_1Domain_1_1Game_1_1Actors_1_1Rect.html#a687d0848c13d1b8dfbd2f896636b4145" target="_top" xlink:title="Create a rect from polygon points. ">
<polygon fill="#ffffff" stroke="#000000" points="143,-.5 143,-41.5 253,-41.5 253,-.5 143,-.5"/>
<text text-anchor="start" x="151" y="-29.5" font-family="Helvetica,sans-Serif" font-size="10.00" fill="#000000">Asteroids::Domain::</text>
<text text-anchor="start" x="151" y="-18.5" font-family="Helvetica,sans-Serif" font-size="10.00" fill="#000000">Game::Actors::Rect::</text>
<text text-anchor="middle" x="198" y="-7.5" font-family="Helvetica,sans-Serif" font-size="10.00" fill="#000000">consume_polygon</text>
</a>
</g>
</g>
<!-- Node166&#45;&gt;Node169 -->
<g id="edge3" class="edge">
<title>Node166&#45;&gt;Node169</title>
<path fill="none" stroke="#191970" d="M107.3065,-39.8291C115.6114,-38.1049 124.2648,-36.3083 132.7864,-34.5392"/>
<polygon fill="#191970" stroke="#191970" points="133.6209,-37.9406 142.7006,-32.4808 132.1979,-31.0868 133.6209,-37.9406"/>
</g>
<!-- Node168 -->
<g id="node3" class="node">
<title>Node168</title>
<g id="a_node3"><a xlink:href="classAsteroids_1_1Domain_1_1Game_1_1Actors_1_1Rect.html#a40c593b8be9c243d6cdc30e2f8ee67df" target="_top" xlink:title="Asteroids::Domain::\lGame::Actors::Rect::\lupdate_dimensions">
<polygon fill="#ffffff" stroke="#000000" points="289,-30.5 289,-71.5 399,-71.5 399,-30.5 289,-30.5"/>
<text text-anchor="start" x="297" y="-59.5" font-family="Helvetica,sans-Serif" font-size="10.00" fill="#000000">Asteroids::Domain::</text>
<text text-anchor="start" x="297" y="-48.5" font-family="Helvetica,sans-Serif" font-size="10.00" fill="#000000">Game::Actors::Rect::</text>
<text text-anchor="middle" x="344" y="-37.5" font-family="Helvetica,sans-Serif" font-size="10.00" fill="#000000">update_dimensions</text>
</a>
</g>
</g>
<!-- Node167&#45;&gt;Node168 -->
<g id="edge2" class="edge">
<title>Node167&#45;&gt;Node168</title>
<path fill="none" stroke="#191970" d="M253.1963,-69.6583C261.5541,-67.9409 270.2434,-66.1555 278.7888,-64.3996"/>
<polygon fill="#191970" stroke="#191970" points="279.6347,-67.7989 288.7256,-62.3578 278.2258,-60.9422 279.6347,-67.7989"/>
</g>
<!-- Node169&#45;&gt;Node168 -->
<g id="edge4" class="edge">
<title>Node169&#45;&gt;Node168</title>
<path fill="none" stroke="#191970" d="M253.1963,-32.3417C261.5541,-34.0591 270.2434,-35.8445 278.7888,-37.6004"/>
<polygon fill="#191970" stroke="#191970" points="278.2258,-41.0578 288.7256,-39.6422 279.6347,-34.2011 278.2258,-41.0578"/>
</g>
</g>
</svg>
