<?xml version="1.0" encoding="UTF-8" standalone="no"?>
<!DOCTYPE svg PUBLIC "-//W3C//DTD SVG 1.1//EN"
 "http://www.w3.org/Graphics/SVG/1.1/DTD/svg11.dtd">
<!-- Generated by graphviz version 2.40.1 (20161225.0304)
 -->
<!-- Title: Asteroids::Domain::Game::Actors::Vector::rotate_velocity Pages: 1 -->
<svg width="582pt" height="148pt"
 viewBox="0.00 0.00 582.00 148.00" xmlns="http://www.w3.org/2000/svg" xmlns:xlink="http://www.w3.org/1999/xlink">
<g id="graph0" class="graph" transform="scale(1 1) rotate(0) translate(4 144)">
<title>Asteroids::Domain::Game::Actors::Vector::rotate_velocity</title>
<polygon fill="#ffffff" stroke="transparent" points="-4,4 -4,-144 578,-144 578,4 -4,4"/>
<!-- Node27 -->
<g id="node1" class="node">
<title>Node27</title>
<polygon fill="#bfbfbf" stroke="#000000" points="0,-49.5 0,-90.5 112,-90.5 112,-49.5 0,-49.5"/>
<text text-anchor="start" x="8" y="-78.5" font-family="Helvetica,sans-Serif" font-size="10.00" fill="#000000">Asteroids::Domain::</text>
<text text-anchor="start" x="8" y="-67.5" font-family="Helvetica,sans-Serif" font-size="10.00" fill="#000000">Game::Actors::Vector</text>
<text text-anchor="middle" x="56" y="-56.5" font-family="Helvetica,sans-Serif" font-size="10.00" fill="#000000">::rotate_velocity</text>
</g>
<!-- Node28 -->
<g id="node2" class="node">
<title>Node28</title>
<g id="a_node2"><a xlink:href="classAsteroids_1_1Domain_1_1Game_1_1Actors_1_1Actor.html#ad108a838180454ac98facde4518d7660" target="_top" xlink:title="Asteroids::Domain::\lGame::Actors::Actor\l::fire_bullet">
<polygon fill="#ffffff" stroke="#000000" points="150.5,-98.5 150.5,-139.5 257.5,-139.5 257.5,-98.5 150.5,-98.5"/>
<text text-anchor="start" x="158.5" y="-127.5" font-family="Helvetica,sans-Serif" font-size="10.00" fill="#000000">Asteroids::Domain::</text>
<text text-anchor="start" x="158.5" y="-116.5" font-family="Helvetica,sans-Serif" font-size="10.00" fill="#000000">Game::Actors::Actor</text>
<text text-anchor="middle" x="204" y="-105.5" font-family="Helvetica,sans-Serif" font-size="10.00" fill="#000000">::fire_bullet</text>
</a>
</g>
</g>
<!-- Node27&#45;&gt;Node28 -->
<g id="edge1" class="edge">
<title>Node27&#45;&gt;Node28</title>
<path fill="none" stroke="#191970" d="M122.0925,-91.882C131.5024,-94.9974 141.0849,-98.17 150.2219,-101.1951"/>
<polygon fill="#191970" stroke="#191970" points="122.968,-88.485 112.3747,-88.6646 120.7678,-95.1303 122.968,-88.485"/>
</g>
<!-- Node29 -->
<g id="node3" class="node">
<title>Node29</title>
<g id="a_node3"><a xlink:href="classAsteroids_1_1Domain_1_1Game_1_1Actors_1_1GunShip.html#aae99fa7e1cae7f17c81b68217ed2fa32" target="_top" xlink:title="Asteroids::Domain::\lGame::Actors::GunShip\l::use_input">
<polygon fill="#ffffff" stroke="#000000" points="296,-73.5 296,-114.5 417,-114.5 417,-73.5 296,-73.5"/>
<text text-anchor="start" x="304" y="-102.5" font-family="Helvetica,sans-Serif" font-size="10.00" fill="#000000">Asteroids::Domain::</text>
<text text-anchor="start" x="304" y="-91.5" font-family="Helvetica,sans-Serif" font-size="10.00" fill="#000000">Game::Actors::GunShip</text>
<text text-anchor="middle" x="356.5" y="-80.5" font-family="Helvetica,sans-Serif" font-size="10.00" fill="#000000">::use_input</text>
</a>
</g>
</g>
<!-- Node27&#45;&gt;Node29 -->
<g id="edge5" class="edge">
<title>Node27&#45;&gt;Node29</title>
<path fill="none" stroke="#191970" d="M122.2658,-75.2924C174.1201,-79.4339 245.6357,-85.1456 295.9633,-89.1651"/>
<polygon fill="#191970" stroke="#191970" points="122.4162,-71.7934 112.1692,-74.4861 121.8588,-78.7712 122.4162,-71.7934"/>
</g>
<!-- Node31 -->
<g id="node5" class="node">
<title>Node31</title>
<g id="a_node5"><a xlink:href="classAsteroids_1_1Domain_1_1Game_1_1Actors_1_1Vector.html#a59d89995d9c975994f8c019f94ce674f" target="_top" xlink:title="Asteroids::Domain::\lGame::Actors::Vector\l::get_rotated_linear">
<polygon fill="#ffffff" stroke="#000000" points="148,-.5 148,-41.5 260,-41.5 260,-.5 148,-.5"/>
<text text-anchor="start" x="156" y="-29.5" font-family="Helvetica,sans-Serif" font-size="10.00" fill="#000000">Asteroids::Domain::</text>
<text text-anchor="start" x="156" y="-18.5" font-family="Helvetica,sans-Serif" font-size="10.00" fill="#000000">Game::Actors::Vector</text>
<text text-anchor="middle" x="204" y="-7.5" font-family="Helvetica,sans-Serif" font-size="10.00" fill="#000000">::get_rotated_linear</text>
</a>
</g>
</g>
<!-- Node27&#45;&gt;Node31 -->
<g id="edge4" class="edge">
<title>Node27&#45;&gt;Node31</title>
<path fill="none" stroke="#191970" d="M122.0025,-48.1478C130.6074,-45.2989 139.3581,-42.4017 147.7821,-39.6127"/>
<polygon fill="#191970" stroke="#191970" points="120.7678,-44.8697 112.3747,-51.3354 122.968,-51.515 120.7678,-44.8697"/>
</g>
<!-- Node28&#45;&gt;Node29 -->
<g id="edge2" class="edge">
<title>Node28&#45;&gt;Node29</title>
<path fill="none" stroke="#191970" d="M267.7615,-108.5473C277.0911,-107.0178 286.6773,-105.4464 295.9405,-103.9278"/>
<polygon fill="#191970" stroke="#191970" points="267.0678,-105.1142 257.7658,-110.1859 268.2003,-112.022 267.0678,-105.1142"/>
</g>
<!-- Node30 -->
<g id="node4" class="node">
<title>Node30</title>
<g id="a_node4"><a xlink:href="classAsteroids_1_1Domain_1_1Game_1_1Actors_1_1GunShip.html#a4b37d42d9758c701d75e6a91dda71a5b" target="_top" xlink:title="Asteroids::Domain::\lGame::Actors::GunShip\l::update">
<polygon fill="#ffffff" stroke="#000000" points="453,-73.5 453,-114.5 574,-114.5 574,-73.5 453,-73.5"/>
<text text-anchor="start" x="461" y="-102.5" font-family="Helvetica,sans-Serif" font-size="10.00" fill="#000000">Asteroids::Domain::</text>
<text text-anchor="start" x="461" y="-91.5" font-family="Helvetica,sans-Serif" font-size="10.00" fill="#000000">Game::Actors::GunShip</text>
<text text-anchor="middle" x="513.5" y="-80.5" font-family="Helvetica,sans-Serif" font-size="10.00" fill="#000000">::update</text>
</a>
</g>
</g>
<!-- Node29&#45;&gt;Node30 -->
<g id="edge3" class="edge">
<title>Node29&#45;&gt;Node30</title>
<path fill="none" stroke="#191970" d="M427.2098,-94C435.807,-94 444.5301,-94 452.9611,-94"/>
<polygon fill="#191970" stroke="#191970" points="427.2003,-90.5001 417.2003,-94 427.2003,-97.5001 427.2003,-90.5001"/>
</g>
</g>
</svg>
