<?xml version="1.0" encoding="UTF-8" standalone="no"?>
<!DOCTYPE svg PUBLIC "-//W3C//DTD SVG 1.1//EN"
 "http://www.w3.org/Graphics/SVG/1.1/DTD/svg11.dtd">
<!-- Generated by graphviz version 2.40.1 (20161225.0304)
 -->
<!-- Title: Asteroids::Domain::Game::Actors::Actor Pages: 1 -->
<!--zoomable 1184 -->
<svg id="main" version="1.1" xmlns="http://www.w3.org/2000/svg" xmlns:xlink="http://www.w3.org/1999/xlink" xml:space="preserve" onload="init(evt)">
<style type="text/css"><![CDATA[
.edge:hover path { stroke: red; }
.edge:hover polygon { stroke: red; fill: red; }
]]></style>
<script type="text/javascript"><![CDATA[
var edges = document.getElementsByTagName('g');
if (edges && edges.length) {
  for (var i=0;i<edges.length;i++) {
    if (edges[i].id.substr(0,4)=='edge') {
      edges[i].setAttribute('class','edge');
    }
  }
}
]]></script>
        <defs>
                <circle id="rim" cx="0" cy="0" r="7"/>
                <circle id="rim2" cx="0" cy="0" r="3.5"/>
                <g id="zoomPlus">
                        <use xlink:href="#rim" fill="#404040">
                                <set attributeName="fill" to="#808080" begin="zoomplus.mouseover" end="zoomplus.mouseout"/>
                        </use>
                        <path d="M-4,0h8M0,-4v8" fill="none" stroke="white" stroke-width="1.5" pointer-events="none"/>
                </g>
                <g id="zoomMin">
                        <use xlink:href="#rim" fill="#404040">
                                <set attributeName="fill" to="#808080" begin="zoomminus.mouseover" end="zoomminus.mouseout"/>
                        </use>
                        <path d="M-4,0h8" fill="none" stroke="white" stroke-width="1.5" pointer-events="none"/>
                </g>
                <g id="dirArrow">
                        <path fill="none" stroke="white" stroke-width="1.5" d="M0,-3.0v7 M-2.5,-0.5L0,-3.0L2.5,-0.5"/>
                </g>
               <g id="resetDef">
                       <use xlink:href="#rim2" fill="#404040">
                               <set attributeName="fill" to="#808080" begin="reset.mouseover" end="reset.mouseout"/>
                       </use>
               </g>
        </defs>

<script type="text/javascript">
var viewWidth = 810;
var viewHeight = 1184;
var sectionId = 'dynsection-1';
</script>
<script xlink:href="svgpan.js"/>
<svg id="graph" class="graph">
<g id="viewport">
<title>Asteroids::Domain::Game::Actors::Actor</title>
<polygon fill="#ffffff" stroke="transparent" points="-4,4 -4,-1180 805.5,-1180 805.5,4 -4,4"/>
<!-- Node6 -->
<g id="node1" class="node">
<title>Node6</title>
<polygon fill="#bfbfbf" stroke="#000000" points="295,-.5 295,-530.5 432,-530.5 432,-.5 295,-.5"/>
<text text-anchor="start" x="303" y="-518.5" font-family="Helvetica,sans-Serif" font-size="10.00" fill="#000000">Asteroids::Domain::</text>
<text text-anchor="middle" x="363.5" y="-507.5" font-family="Helvetica,sans-Serif" font-size="10.00" fill="#000000">Game::Actors::Actor</text>
<polyline fill="none" stroke="#000000" points="295,-500.5 432,-500.5 "/>
<text text-anchor="start" x="303" y="-488.5" font-family="Helvetica,sans-Serif" font-size="10.00" fill="#000000"># _input_down</text>
<text text-anchor="start" x="303" y="-477.5" font-family="Helvetica,sans-Serif" font-size="10.00" fill="#000000"># _input_fire</text>
<text text-anchor="start" x="303" y="-466.5" font-family="Helvetica,sans-Serif" font-size="10.00" fill="#000000"># _input_left</text>
<text text-anchor="start" x="303" y="-455.5" font-family="Helvetica,sans-Serif" font-size="10.00" fill="#000000"># _input_right</text>
<text text-anchor="start" x="303" y="-444.5" font-family="Helvetica,sans-Serif" font-size="10.00" fill="#000000"># _input_up</text>
<text text-anchor="start" x="303" y="-433.5" font-family="Helvetica,sans-Serif" font-size="10.00" fill="#000000">&#45; _bullet_speed</text>
<text text-anchor="start" x="303" y="-422.5" font-family="Helvetica,sans-Serif" font-size="10.00" fill="#000000">&#45; _lifetime_ticks</text>
<text text-anchor="start" x="303" y="-411.5" font-family="Helvetica,sans-Serif" font-size="10.00" fill="#000000">&#45; _pos_x</text>
<text text-anchor="start" x="303" y="-400.5" font-family="Helvetica,sans-Serif" font-size="10.00" fill="#000000">&#45; _pos_y</text>
<text text-anchor="start" x="303" y="-389.5" font-family="Helvetica,sans-Serif" font-size="10.00" fill="#000000">&#45; _rotation_radians</text>
<text text-anchor="start" x="303" y="-378.5" font-family="Helvetica,sans-Serif" font-size="10.00" fill="#000000">&#45; _wants_to_be_deleted</text>
<polyline fill="none" stroke="#000000" points="295,-371.5 432,-371.5 "/>
<text text-anchor="start" x="303" y="-359.5" font-family="Helvetica,sans-Serif" font-size="10.00" fill="#000000">+ Actor()</text>
<text text-anchor="start" x="303" y="-348.5" font-family="Helvetica,sans-Serif" font-size="10.00" fill="#000000">+ adjust_rotation()</text>
<text text-anchor="start" x="303" y="-337.5" font-family="Helvetica,sans-Serif" font-size="10.00" fill="#000000">+ check_collision()</text>
<text text-anchor="start" x="303" y="-326.5" font-family="Helvetica,sans-Serif" font-size="10.00" fill="#000000">+ check_collision()</text>
<text text-anchor="start" x="303" y="-315.5" font-family="Helvetica,sans-Serif" font-size="10.00" fill="#000000">+ clear_input()</text>
<text text-anchor="start" x="303" y="-304.5" font-family="Helvetica,sans-Serif" font-size="10.00" fill="#000000">+ get_fired_bullets()</text>
<text text-anchor="start" x="303" y="-293.5" font-family="Helvetica,sans-Serif" font-size="10.00" fill="#000000">+ get_lifetime_ticks()</text>
<text text-anchor="start" x="303" y="-282.5" font-family="Helvetica,sans-Serif" font-size="10.00" fill="#000000">+ get_polygon()</text>
<text text-anchor="start" x="303" y="-271.5" font-family="Helvetica,sans-Serif" font-size="10.00" fill="#000000">+ get_position()</text>
<text text-anchor="start" x="303" y="-260.5" font-family="Helvetica,sans-Serif" font-size="10.00" fill="#000000">+ get_rect()</text>
<text text-anchor="start" x="303" y="-249.5" font-family="Helvetica,sans-Serif" font-size="10.00" fill="#000000">+ get_rotated_polygon()</text>
<text text-anchor="start" x="303" y="-238.5" font-family="Helvetica,sans-Serif" font-size="10.00" fill="#000000">+ get_rotation()</text>
<text text-anchor="start" x="303" y="-227.5" font-family="Helvetica,sans-Serif" font-size="10.00" fill="#000000">+ get_x()</text>
<text text-anchor="start" x="303" y="-216.5" font-family="Helvetica,sans-Serif" font-size="10.00" fill="#000000">+ get_y()</text>
<text text-anchor="start" x="303" y="-205.5" font-family="Helvetica,sans-Serif" font-size="10.00" fill="#000000">+ reset()</text>
<text text-anchor="start" x="303" y="-194.5" font-family="Helvetica,sans-Serif" font-size="10.00" fill="#000000">+ rotate_polygon()</text>
<text text-anchor="start" x="303" y="-183.5" font-family="Helvetica,sans-Serif" font-size="10.00" fill="#000000">+ set_input_down()</text>
<text text-anchor="start" x="303" y="-172.5" font-family="Helvetica,sans-Serif" font-size="10.00" fill="#000000">+ set_input_fire()</text>
<text text-anchor="start" x="303" y="-161.5" font-family="Helvetica,sans-Serif" font-size="10.00" fill="#000000">+ set_input_left()</text>
<text text-anchor="start" x="303" y="-150.5" font-family="Helvetica,sans-Serif" font-size="10.00" fill="#000000">+ set_input_right()</text>
<text text-anchor="start" x="303" y="-139.5" font-family="Helvetica,sans-Serif" font-size="10.00" fill="#000000">+ set_input_up()</text>
<text text-anchor="start" x="303" y="-128.5" font-family="Helvetica,sans-Serif" font-size="10.00" fill="#000000">+ set_polygon()</text>
<text text-anchor="start" x="303" y="-117.5" font-family="Helvetica,sans-Serif" font-size="10.00" fill="#000000">+ set_position()</text>
<text text-anchor="start" x="303" y="-106.5" font-family="Helvetica,sans-Serif" font-size="10.00" fill="#000000">+ set_rotation()</text>
<text text-anchor="start" x="303" y="-95.5" font-family="Helvetica,sans-Serif" font-size="10.00" fill="#000000">+ set_velocity()</text>
<text text-anchor="start" x="303" y="-84.5" font-family="Helvetica,sans-Serif" font-size="10.00" fill="#000000">+ update()</text>
<text text-anchor="start" x="303" y="-73.5" font-family="Helvetica,sans-Serif" font-size="10.00" fill="#000000">+ wants_to_be_deleted()</text>
<text text-anchor="start" x="303" y="-62.5" font-family="Helvetica,sans-Serif" font-size="10.00" fill="#000000"># deleteme()</text>
<text text-anchor="start" x="303" y="-51.5" font-family="Helvetica,sans-Serif" font-size="10.00" fill="#000000"># fire_bullet()</text>
<text text-anchor="start" x="303" y="-40.5" font-family="Helvetica,sans-Serif" font-size="10.00" fill="#000000"># set_bullet_speed()</text>
<text text-anchor="start" x="303" y="-29.5" font-family="Helvetica,sans-Serif" font-size="10.00" fill="#000000"># update_rect()</text>
<text text-anchor="start" x="303" y="-18.5" font-family="Helvetica,sans-Serif" font-size="10.00" fill="#000000">&#45; apply_vector_to_position()</text>
<text text-anchor="start" x="303" y="-7.5" font-family="Helvetica,sans-Serif" font-size="10.00" fill="#000000">&#45; init()</text>
</g>
<!-- Node7 -->
<g id="node2" class="node">
<title>Node7</title>
<g id="a_node2"><a xlink:href="classAsteroids_1_1Domain_1_1Game_1_1Actors_1_1ActorInterface.html" target="_top" xlink:title="Main superclass for game board actors. ">
<polygon fill="#ffffff" stroke="#000000" points="0,-589.5 0,-767.5 145,-767.5 145,-589.5 0,-589.5"/>
<text text-anchor="start" x="8" y="-755.5" font-family="Helvetica,sans-Serif" font-size="10.00" fill="#000000">Asteroids::Domain::</text>
<text text-anchor="middle" x="72.5" y="-744.5" font-family="Helvetica,sans-Serif" font-size="10.00" fill="#000000">Game::Actors::ActorInterface</text>
<polyline fill="none" stroke="#000000" points="0,-737.5 145,-737.5 "/>
<text text-anchor="middle" x="72.5" y="-725.5" font-family="Helvetica,sans-Serif" font-size="10.00" fill="#000000"> </text>
<polyline fill="none" stroke="#000000" points="0,-718.5 145,-718.5 "/>
<text text-anchor="start" x="8" y="-706.5" font-family="Helvetica,sans-Serif" font-size="10.00" fill="#000000">+ clear_input()</text>
<text text-anchor="start" x="8" y="-695.5" font-family="Helvetica,sans-Serif" font-size="10.00" fill="#000000">+ get_polygon()</text>
<text text-anchor="start" x="8" y="-684.5" font-family="Helvetica,sans-Serif" font-size="10.00" fill="#000000">+ get_rotated_polygon()</text>
<text text-anchor="start" x="8" y="-673.5" font-family="Helvetica,sans-Serif" font-size="10.00" fill="#000000">+ get_x()</text>
<text text-anchor="start" x="8" y="-662.5" font-family="Helvetica,sans-Serif" font-size="10.00" fill="#000000">+ get_y()</text>
<text text-anchor="start" x="8" y="-651.5" font-family="Helvetica,sans-Serif" font-size="10.00" fill="#000000">+ set_input_down()</text>
<text text-anchor="start" x="8" y="-640.5" font-family="Helvetica,sans-Serif" font-size="10.00" fill="#000000">+ set_input_fire()</text>
<text text-anchor="start" x="8" y="-629.5" font-family="Helvetica,sans-Serif" font-size="10.00" fill="#000000">+ set_input_left()</text>
<text text-anchor="start" x="8" y="-618.5" font-family="Helvetica,sans-Serif" font-size="10.00" fill="#000000">+ set_input_right()</text>
<text text-anchor="start" x="8" y="-607.5" font-family="Helvetica,sans-Serif" font-size="10.00" fill="#000000">+ set_input_up()</text>
<text text-anchor="start" x="8" y="-596.5" font-family="Helvetica,sans-Serif" font-size="10.00" fill="#000000">+ set_position()</text>
</a>
</g>
</g>
<!-- Node7&#45;&gt;Node6 -->
<g id="edge1" class="edge">
<title>Node7&#45;&gt;Node6</title>
<path fill="none" stroke="#191970" d="M141.1566,-581.0595C187.5659,-515.1934 248.6029,-428.5671 294.9828,-362.7426"/>
<polygon fill="none" stroke="#191970" points="138.1832,-579.203 135.2844,-589.3936 143.9054,-583.2349 138.1832,-579.203"/>
</g>
<!-- Node8 -->
<g id="node3" class="node">
<title>Node8</title>
<g id="a_node3"><a xlink:href="classAsteroids_1_1Domain_1_1Game_1_1Actors_1_1Rect.html" target="_top" xlink:title="Convenience class to help manage actor rectangle boundaries and collisions. ">
<polygon fill="#ffffff" stroke="#000000" points="163.5,-578.5 163.5,-778.5 279.5,-778.5 279.5,-578.5 163.5,-578.5"/>
<text text-anchor="start" x="171.5" y="-766.5" font-family="Helvetica,sans-Serif" font-size="10.00" fill="#000000">Asteroids::Domain::</text>
<text text-anchor="middle" x="221.5" y="-755.5" font-family="Helvetica,sans-Serif" font-size="10.00" fill="#000000">Game::Actors::Rect</text>
<polyline fill="none" stroke="#000000" points="163.5,-748.5 279.5,-748.5 "/>
<text text-anchor="start" x="171.5" y="-736.5" font-family="Helvetica,sans-Serif" font-size="10.00" fill="#000000">+ height</text>
<text text-anchor="start" x="171.5" y="-725.5" font-family="Helvetica,sans-Serif" font-size="10.00" fill="#000000">+ width</text>
<text text-anchor="start" x="171.5" y="-714.5" font-family="Helvetica,sans-Serif" font-size="10.00" fill="#000000">+ x1</text>
<text text-anchor="start" x="171.5" y="-703.5" font-family="Helvetica,sans-Serif" font-size="10.00" fill="#000000">+ x2</text>
<text text-anchor="start" x="171.5" y="-692.5" font-family="Helvetica,sans-Serif" font-size="10.00" fill="#000000">+ y1</text>
<text text-anchor="start" x="171.5" y="-681.5" font-family="Helvetica,sans-Serif" font-size="10.00" fill="#000000">+ y2</text>
<polyline fill="none" stroke="#000000" points="163.5,-674.5 279.5,-674.5 "/>
<text text-anchor="start" x="171.5" y="-662.5" font-family="Helvetica,sans-Serif" font-size="10.00" fill="#000000">+ Rect()</text>
<text text-anchor="start" x="171.5" y="-651.5" font-family="Helvetica,sans-Serif" font-size="10.00" fill="#000000">+ add_offset()</text>
<text text-anchor="start" x="171.5" y="-640.5" font-family="Helvetica,sans-Serif" font-size="10.00" fill="#000000">+ collides_with_rect()</text>
<text text-anchor="start" x="171.5" y="-629.5" font-family="Helvetica,sans-Serif" font-size="10.00" fill="#000000">+ is_point_within()</text>
<text text-anchor="start" x="171.5" y="-618.5" font-family="Helvetica,sans-Serif" font-size="10.00" fill="#000000">+ reset()</text>
<text text-anchor="start" x="171.5" y="-607.5" font-family="Helvetica,sans-Serif" font-size="10.00" fill="#000000">+ to_string()</text>
<text text-anchor="start" x="171.5" y="-596.5" font-family="Helvetica,sans-Serif" font-size="10.00" fill="#000000">+ update_dimensions()</text>
<text text-anchor="start" x="171.5" y="-585.5" font-family="Helvetica,sans-Serif" font-size="10.00" fill="#000000">+ consume_polygon()</text>
</a>
</g>
</g>
<!-- Node8&#45;&gt;Node6 -->
<g id="edge2" class="edge">
<title>Node8&#45;&gt;Node6</title>
<path fill="none" stroke="#404040" d="M255.9648,-578.2607C266.5941,-547.3461 278.7249,-512.0641 290.918,-476.6011"/>
<polygon fill="none" stroke="#404040" points="290.9754,-476.4341 289.1436,-469.4595 294.8772,-465.0861 296.7089,-472.0607 290.9754,-476.4341"/>
<text text-anchor="middle" x="277.5" y="-552" font-family="Helvetica,sans-Serif" font-size="10.00" fill="#000000"> &#45;_rect</text>
</g>
<!-- Node9 -->
<g id="node4" class="node">
<title>Node9</title>
<polygon fill="#ffffff" stroke="#bfbfbf" points="297.5,-639 297.5,-718 429.5,-718 429.5,-639 297.5,-639"/>
<text text-anchor="start" x="305.5" y="-706" font-family="Helvetica,sans-Serif" font-size="10.00" fill="#000000">std::vector&lt; std::shared</text>
<text text-anchor="start" x="305.5" y="-695" font-family="Helvetica,sans-Serif" font-size="10.00" fill="#000000">_ptr&lt; Asteroids::Domain</text>
<text text-anchor="middle" x="363.5" y="-684" font-family="Helvetica,sans-Serif" font-size="10.00" fill="#000000">::Game::Actors::Bullet &gt; &gt;</text>
<polyline fill="none" stroke="#bfbfbf" points="297.5,-677 429.5,-677 "/>
<text text-anchor="start" x="305.5" y="-665" font-family="Helvetica,sans-Serif" font-size="10.00" fill="#000000">+ elements</text>
<polyline fill="none" stroke="#bfbfbf" points="297.5,-658 429.5,-658 "/>
<text text-anchor="middle" x="363.5" y="-646" font-family="Helvetica,sans-Serif" font-size="10.00" fill="#000000"> </text>
</g>
<!-- Node9&#45;&gt;Node6 -->
<g id="edge3" class="edge">
<title>Node9&#45;&gt;Node6</title>
<path fill="none" stroke="#404040" d="M363.5,-638.8998C363.5,-614.3967 363.5,-580.5293 363.5,-543.1138"/>
<polygon fill="none" stroke="#404040" points="363.5001,-542.8486 359.5,-536.8486 363.5,-530.8486 367.5,-536.8485 363.5001,-542.8486"/>
<text text-anchor="middle" x="395.5" y="-552" font-family="Helvetica,sans-Serif" font-size="10.00" fill="#000000"> &#45;_fired_bullets</text>
</g>
<!-- Node10 -->
<g id="node5" class="node">
<title>Node10</title>
<g id="a_node5"><a xlink:title="STL class. ">
<polygon fill="#ffffff" stroke="#bfbfbf" points="454,-931 454,-988 541,-988 541,-931 454,-931"/>
<text text-anchor="middle" x="497.5" y="-976" font-family="Helvetica,sans-Serif" font-size="10.00" fill="#000000">std::vector&lt; T &gt;</text>
<polyline fill="none" stroke="#bfbfbf" points="454,-969 541,-969 "/>
<text text-anchor="middle" x="497.5" y="-957" font-family="Helvetica,sans-Serif" font-size="10.00" fill="#000000"> </text>
<polyline fill="none" stroke="#bfbfbf" points="454,-950 541,-950 "/>
<text text-anchor="middle" x="497.5" y="-938" font-family="Helvetica,sans-Serif" font-size="10.00" fill="#000000"> </text>
</a>
</g>
</g>
<!-- Node10&#45;&gt;Node9 -->
<g id="edge4" class="edge">
<title>Node10&#45;&gt;Node9</title>
<path fill="none" stroke="#ffa500" d="M456.5322,-923.8063C431.819,-899.8454 402.0144,-866.139 385.5,-830 369.2616,-794.4649 364.418,-749.7859 363.2372,-718.1812"/>
<polygon fill="#ffa500" stroke="#ffa500" points="454.3584,-926.569 464.018,-930.9215 459.181,-921.4953 454.3584,-926.569"/>
<text text-anchor="start" x="385.5" y="-822" font-family="Helvetica,sans-Serif" font-size="10.00" fill="#000000"> &lt; std::shared_ptr&lt;</text>
<text text-anchor="start" x="385.5" y="-811" font-family="Helvetica,sans-Serif" font-size="10.00" fill="#000000"> Asteroids::Domain::</text>
<text text-anchor="middle" x="440.5" y="-800" font-family="Helvetica,sans-Serif" font-size="10.00" fill="#000000">Game::Actors::Bullet &gt; &gt;</text>
</g>
<!-- Node15 -->
<g id="node10" class="node">
<title>Node15</title>
<polygon fill="#ffffff" stroke="#bfbfbf" points="448,-644.5 448,-712.5 555,-712.5 555,-644.5 448,-644.5"/>
<text text-anchor="start" x="456" y="-700.5" font-family="Helvetica,sans-Serif" font-size="10.00" fill="#000000">std::vector&lt; std::pair</text>
<text text-anchor="middle" x="501.5" y="-689.5" font-family="Helvetica,sans-Serif" font-size="10.00" fill="#000000">&lt; double, double &gt; &gt;</text>
<polyline fill="none" stroke="#bfbfbf" points="448,-682.5 555,-682.5 "/>
<text text-anchor="start" x="456" y="-670.5" font-family="Helvetica,sans-Serif" font-size="10.00" fill="#000000">+ elements</text>
<polyline fill="none" stroke="#bfbfbf" points="448,-663.5 555,-663.5 "/>
<text text-anchor="middle" x="501.5" y="-651.5" font-family="Helvetica,sans-Serif" font-size="10.00" fill="#000000"> </text>
</g>
<!-- Node10&#45;&gt;Node15 -->
<g id="edge11" class="edge">
<title>Node10&#45;&gt;Node15</title>
<path fill="none" stroke="#ffa500" d="M498.0529,-920.6602C498.8388,-865.4485 500.2664,-765.1579 501.014,-712.644"/>
<polygon fill="#ffa500" stroke="#ffa500" points="494.5521,-920.6998 497.9093,-930.7486 501.5513,-920.7995 494.5521,-920.6998"/>
<text text-anchor="start" x="500.5" y="-816.5" font-family="Helvetica,sans-Serif" font-size="10.00" fill="#000000"> &lt; std::pair&lt; double,</text>
<text text-anchor="middle" x="544.5" y="-805.5" font-family="Helvetica,sans-Serif" font-size="10.00" fill="#000000"> double &gt; &gt;</text>
</g>
<!-- Node11 -->
<g id="node6" class="node">
<title>Node11</title>
<polygon fill="#ffffff" stroke="#bfbfbf" points="540,-1118.5 540,-1175.5 569,-1175.5 569,-1118.5 540,-1118.5"/>
<text text-anchor="middle" x="554.5" y="-1163.5" font-family="Helvetica,sans-Serif" font-size="10.00" fill="#000000">T</text>
<polyline fill="none" stroke="#bfbfbf" points="540,-1156.5 569,-1156.5 "/>
<text text-anchor="middle" x="554.5" y="-1144.5" font-family="Helvetica,sans-Serif" font-size="10.00" fill="#000000"> </text>
<polyline fill="none" stroke="#bfbfbf" points="540,-1137.5 569,-1137.5 "/>
<text text-anchor="middle" x="554.5" y="-1125.5" font-family="Helvetica,sans-Serif" font-size="10.00" fill="#000000"> </text>
</g>
<!-- Node11&#45;&gt;Node10 -->
<g id="edge5" class="edge">
<title>Node11&#45;&gt;Node10</title>
<path fill="none" stroke="#404040" d="M539.9976,-1122.6906C536.1785,-1115.5577 532.3377,-1107.6221 529.5,-1100 517.3348,-1067.3236 508.9308,-1028.5821 503.7985,-1000.0652"/>
<polygon fill="none" stroke="#404040" points="503.7793,-999.954 498.8149,-994.7239 501.7333,-988.1297 506.6978,-993.3599 503.7793,-999.954"/>
<text text-anchor="middle" x="554" y="-1092" font-family="Helvetica,sans-Serif" font-size="10.00" fill="#000000"> +elements</text>
</g>
<!-- Node14 -->
<g id="node9" class="node">
<title>Node14</title>
<g id="a_node9"><a xlink:title="STL class. ">
<polygon fill="#ffffff" stroke="#bfbfbf" points="559,-931 559,-988 664,-988 664,-931 559,-931"/>
<text text-anchor="middle" x="611.5" y="-976" font-family="Helvetica,sans-Serif" font-size="10.00" fill="#000000">std::unique_ptr&lt; T &gt;</text>
<polyline fill="none" stroke="#bfbfbf" points="559,-969 664,-969 "/>
<text text-anchor="middle" x="611.5" y="-957" font-family="Helvetica,sans-Serif" font-size="10.00" fill="#000000"> </text>
<polyline fill="none" stroke="#bfbfbf" points="559,-950 664,-950 "/>
<text text-anchor="start" x="567" y="-938" font-family="Helvetica,sans-Serif" font-size="10.00" fill="#000000">+ operator&#45;&gt;()</text>
</a>
</g>
</g>
<!-- Node11&#45;&gt;Node14 -->
<g id="edge9" class="edge">
<title>Node11&#45;&gt;Node14</title>
<path fill="none" stroke="#404040" d="M569.1062,-1121.1533C572.5222,-1114.4109 575.9139,-1107.0537 578.5,-1100 590.5209,-1067.2121 599.2341,-1028.4806 604.6781,-999.9958"/>
<polygon fill="none" stroke="#404040" points="604.7002,-999.876 601.8568,-993.2492 606.8804,-988.0757 609.7237,-994.7026 604.7002,-999.876"/>
<text text-anchor="middle" x="592" y="-1092" font-family="Helvetica,sans-Serif" font-size="10.00" fill="#000000"> +ptr</text>
</g>
<!-- Node12 -->
<g id="node7" class="node">
<title>Node12</title>
<polygon fill="#ffffff" stroke="#bfbfbf" points="573,-639 573,-718 704,-718 704,-639 573,-639"/>
<text text-anchor="start" x="581" y="-706" font-family="Helvetica,sans-Serif" font-size="10.00" fill="#000000">std::unique_ptr&lt; Asteroids</text>
<text text-anchor="start" x="581" y="-695" font-family="Helvetica,sans-Serif" font-size="10.00" fill="#000000">::Domain::Game::Actors::</text>
<text text-anchor="middle" x="638.5" y="-684" font-family="Helvetica,sans-Serif" font-size="10.00" fill="#000000">Vector &gt;</text>
<polyline fill="none" stroke="#bfbfbf" points="573,-677 704,-677 "/>
<text text-anchor="middle" x="638.5" y="-665" font-family="Helvetica,sans-Serif" font-size="10.00" fill="#000000"> </text>
<polyline fill="none" stroke="#bfbfbf" points="573,-658 704,-658 "/>
<text text-anchor="start" x="581" y="-646" font-family="Helvetica,sans-Serif" font-size="10.00" fill="#000000">+ operator&#45;&gt;()</text>
</g>
<!-- Node12&#45;&gt;Node6 -->
<g id="edge6" class="edge">
<title>Node12&#45;&gt;Node6</title>
<path fill="none" stroke="#404040" d="M612.1318,-638.8998C572.6264,-579.5698 496.5643,-465.3385 438.9234,-378.7722"/>
<polygon fill="none" stroke="#404040" points="438.8176,-378.6133 432.1627,-375.8361 432.1668,-368.625 438.8216,-371.4022 438.8176,-378.6133"/>
<text text-anchor="middle" x="578" y="-552" font-family="Helvetica,sans-Serif" font-size="10.00" fill="#000000"> #_vector</text>
</g>
<!-- Node13 -->
<g id="node8" class="node">
<title>Node13</title>
<g id="a_node8"><a xlink:href="classAsteroids_1_1Domain_1_1Game_1_1Actors_1_1Vector.html" target="_top" xlink:title="Simple class to store 2D vector and rotation, to lend physics to game actors. ">
<polygon fill="#ffffff" stroke="#000000" points="689.5,-848.5 689.5,-1070.5 801.5,-1070.5 801.5,-848.5 689.5,-848.5"/>
<text text-anchor="start" x="697.5" y="-1058.5" font-family="Helvetica,sans-Serif" font-size="10.00" fill="#000000">Asteroids::Domain::</text>
<text text-anchor="middle" x="745.5" y="-1047.5" font-family="Helvetica,sans-Serif" font-size="10.00" fill="#000000">Game::Actors::Vector</text>
<polyline fill="none" stroke="#000000" points="689.5,-1040.5 801.5,-1040.5 "/>
<text text-anchor="start" x="697.5" y="-1028.5" font-family="Helvetica,sans-Serif" font-size="10.00" fill="#000000">&#45; _r</text>
<text text-anchor="start" x="697.5" y="-1017.5" font-family="Helvetica,sans-Serif" font-size="10.00" fill="#000000">&#45; _x</text>
<text text-anchor="start" x="697.5" y="-1006.5" font-family="Helvetica,sans-Serif" font-size="10.00" fill="#000000">&#45; _y</text>
<polyline fill="none" stroke="#000000" points="689.5,-999.5 801.5,-999.5 "/>
<text text-anchor="start" x="697.5" y="-987.5" font-family="Helvetica,sans-Serif" font-size="10.00" fill="#000000">+ Vector()</text>
<text text-anchor="start" x="697.5" y="-976.5" font-family="Helvetica,sans-Serif" font-size="10.00" fill="#000000">+ adjust()</text>
<text text-anchor="start" x="697.5" y="-965.5" font-family="Helvetica,sans-Serif" font-size="10.00" fill="#000000">+ get_linear()</text>
<text text-anchor="start" x="697.5" y="-954.5" font-family="Helvetica,sans-Serif" font-size="10.00" fill="#000000">+ get_rotated_linear()</text>
<text text-anchor="start" x="697.5" y="-943.5" font-family="Helvetica,sans-Serif" font-size="10.00" fill="#000000">+ get_rotational()</text>
<text text-anchor="start" x="697.5" y="-932.5" font-family="Helvetica,sans-Serif" font-size="10.00" fill="#000000">+ get_x()</text>
<text text-anchor="start" x="697.5" y="-921.5" font-family="Helvetica,sans-Serif" font-size="10.00" fill="#000000">+ get_y()</text>
<text text-anchor="start" x="697.5" y="-910.5" font-family="Helvetica,sans-Serif" font-size="10.00" fill="#000000">+ reset()</text>
<text text-anchor="start" x="697.5" y="-899.5" font-family="Helvetica,sans-Serif" font-size="10.00" fill="#000000">+ set()</text>
<text text-anchor="start" x="697.5" y="-888.5" font-family="Helvetica,sans-Serif" font-size="10.00" fill="#000000">+ update()</text>
<text text-anchor="start" x="697.5" y="-877.5" font-family="Helvetica,sans-Serif" font-size="10.00" fill="#000000">+ rotate_velocity()</text>
<text text-anchor="start" x="697.5" y="-866.5" font-family="Helvetica,sans-Serif" font-size="10.00" fill="#000000">&#45; apply_limits()</text>
<text text-anchor="start" x="697.5" y="-855.5" font-family="Helvetica,sans-Serif" font-size="10.00" fill="#000000">&#45; dampen()</text>
</a>
</g>
</g>
<!-- Node13&#45;&gt;Node12 -->
<g id="edge7" class="edge">
<title>Node13&#45;&gt;Node12</title>
<path fill="none" stroke="#404040" d="M737.8196,-848.3722C734.5231,-830.8111 729.9157,-813.1376 723.5,-797 713.6532,-772.2322 697.531,-747.7957 681.9596,-727.6063"/>
<polygon fill="none" stroke="#404040" points="681.8425,-727.4586 674.9811,-725.2403 674.3897,-718.0535 681.2511,-720.2717 681.8425,-727.4586"/>
<text text-anchor="middle" x="744" y="-811" font-family="Helvetica,sans-Serif" font-size="10.00" fill="#000000"> +ptr</text>
</g>
<!-- Node14&#45;&gt;Node12 -->
<g id="edge8" class="edge">
<title>Node14&#45;&gt;Node12</title>
<path fill="none" stroke="#ffa500" d="M609.4655,-920.7816C608.2737,-887.7746 607.8018,-839.1251 612.5,-797 615.4649,-770.4157 621.8869,-741.0441 627.6062,-718.1934"/>
<polygon fill="#ffa500" stroke="#ffa500" points="605.9741,-921.0687 609.872,-930.9204 612.9684,-920.7881 605.9741,-921.0687"/>
<text text-anchor="start" x="612.5" y="-816.5" font-family="Helvetica,sans-Serif" font-size="10.00" fill="#000000"> &lt; Asteroids::Domain</text>
<text text-anchor="middle" x="668" y="-805.5" font-family="Helvetica,sans-Serif" font-size="10.00" fill="#000000">::Game::Actors::Vector &gt;</text>
</g>
<!-- Node15&#45;&gt;Node6 -->
<g id="edge10" class="edge">
<title>Node15&#45;&gt;Node6</title>
<path fill="none" stroke="#404040" d="M490.0895,-644.3511C477.7535,-607.4324 457.0004,-545.3238 435.8286,-481.9616"/>
<polygon fill="none" stroke="#404040" points="435.8153,-481.9216 430.1199,-477.4986 432.0122,-470.5401 437.7076,-474.9632 435.8153,-481.9216"/>
<text text-anchor="middle" x="500" y="-552" font-family="Helvetica,sans-Serif" font-size="10.00" fill="#000000"> &#45;_polygon_points</text>
</g>
</g>
</svg>
        <g id="navigator" transform="translate(0 0)" fill="#404254">
                <rect fill="#f2f5e9" fill-opacity="0.5" stroke="#606060" stroke-width=".5" x="0" y="0" width="60" height="60"/>
                <use id="zoomplus" xlink:href="#zoomPlus" x="17" y="9" onmousedown="handleZoom(evt,'in')"/>
                <use id="zoomminus" xlink:href="#zoomMin" x="42" y="9" onmousedown="handleZoom(evt,'out')"/>
                <use id="reset" xlink:href="#resetDef" x="30" y="36" onmousedown="handleReset()"/>
                <g id="arrowUp" xlink:href="#dirArrow" transform="translate(30 24)" onmousedown="handlePan(0,-1)">
                  <use xlink:href="#rim" fill="#404040">
                        <set attributeName="fill" to="#808080" begin="arrowUp.mouseover" end="arrowUp.mouseout"/>
                  </use>
                  <path fill="none" stroke="white" stroke-width="1.5" d="M0,-3.0v7 M-2.5,-0.5L0,-3.0L2.5,-0.5"/>
                </g>
                <g id="arrowRight" xlink:href="#dirArrow" transform="rotate(90) translate(36 -43)" onmousedown="handlePan(1,0)">
                  <use xlink:href="#rim" fill="#404040">
                        <set attributeName="fill" to="#808080" begin="arrowRight.mouseover" end="arrowRight.mouseout"/>
                  </use>
                  <path fill="none" stroke="white" stroke-width="1.5" d="M0,-3.0v7 M-2.5,-0.5L0,-3.0L2.5,-0.5"/>
                </g>
                <g id="arrowDown" xlink:href="#dirArrow" transform="rotate(180) translate(-30 -48)" onmousedown="handlePan(0,1)">
                  <use xlink:href="#rim" fill="#404040">
                        <set attributeName="fill" to="#808080" begin="arrowDown.mouseover" end="arrowDown.mouseout"/>
                  </use>
                  <path fill="none" stroke="white" stroke-width="1.5" d="M0,-3.0v7 M-2.5,-0.5L0,-3.0L2.5,-0.5"/>
                </g>
                <g id="arrowLeft" xlink:href="#dirArrow" transform="rotate(270) translate(-36 17)" onmousedown="handlePan(-1,0)">
                  <use xlink:href="#rim" fill="#404040">
                        <set attributeName="fill" to="#808080" begin="arrowLeft.mouseover" end="arrowLeft.mouseout"/>
                  </use>
                  <path fill="none" stroke="white" stroke-width="1.5" d="M0,-3.0v7 M-2.5,-0.5L0,-3.0L2.5,-0.5"/>
                </g>
        </g>
        <svg viewBox="0 0 15 15" width="100%" height="30px" preserveAspectRatio="xMaxYMin meet">
         <g id="arrow_out" transform="scale(0.3 0.3)">
          <a xlink:href="classAsteroids_1_1Domain_1_1Game_1_1Actors_1_1Actor__coll__graph_org.svg" target="_base">
           <rect id="button" ry="5" rx="5" y="6" x="6" height="38" width="38"
                fill="#f2f5e9" fill-opacity="0.5" stroke="#606060" stroke-width="1.0"/>
           <path id="arrow"
             d="M 11.500037,31.436501 C 11.940474,20.09759 22.043105,11.32322 32.158766,21.979434 L 37.068811,17.246167 C 37.068811,17.246167 37.088388,32 37.088388,32 L 22.160133,31.978069 C 22.160133,31.978069 26.997745,27.140456 26.997745,27.140456 C 18.528582,18.264221 13.291696,25.230495 11.500037,31.436501 z"
             style="fill:#404040;"/>
          </a>
         </g>
        </svg>
</svg>
