<?xml version="1.0" encoding="UTF-8" standalone="no"?>
<!DOCTYPE svg PUBLIC "-//W3C//DTD SVG 1.1//EN"
 "http://www.w3.org/Graphics/SVG/1.1/DTD/svg11.dtd">
<!-- Generated by graphviz version 2.40.1 (20161225.0304)
 -->
<!-- Title: Asteroids::Domain::Game::Actors::GunShip::reset Pages: 1 -->
<svg width="864pt" height="200pt"
 viewBox="0.00 0.00 864.00 200.00" xmlns="http://www.w3.org/2000/svg" xmlns:xlink="http://www.w3.org/1999/xlink">
<g id="graph0" class="graph" transform="scale(1 1) rotate(0) translate(4 196)">
<title>Asteroids::Domain::Game::Actors::GunShip::reset</title>
<polygon fill="#ffffff" stroke="transparent" points="-4,4 -4,-196 860,-196 860,4 -4,4"/>
<!-- Node38 -->
<g id="node1" class="node">
<title>Node38</title>
<polygon fill="#bfbfbf" stroke="#000000" points="0,-60.5 0,-101.5 121,-101.5 121,-60.5 0,-60.5"/>
<text text-anchor="start" x="8" y="-89.5" font-family="Helvetica,sans-Serif" font-size="10.00" fill="#000000">Asteroids::Domain::</text>
<text text-anchor="start" x="8" y="-78.5" font-family="Helvetica,sans-Serif" font-size="10.00" fill="#000000">Game::Actors::GunShip</text>
<text text-anchor="middle" x="60.5" y="-67.5" font-family="Helvetica,sans-Serif" font-size="10.00" fill="#000000">::reset</text>
</g>
<!-- Node39 -->
<g id="node2" class="node">
<title>Node39</title>
<g id="a_node2"><a xlink:href="classAsteroids_1_1Domain_1_1Game_1_1Actors_1_1GunShip.html#a4947769593f504d4342abcec5a01330b" target="_top" xlink:title="Asteroids::Domain::\lGame::Actors::GunShip\l::initialize_polygon">
<polygon fill="#ffffff" stroke="#000000" points="157,-120.5 157,-161.5 278,-161.5 278,-120.5 157,-120.5"/>
<text text-anchor="start" x="165" y="-149.5" font-family="Helvetica,sans-Serif" font-size="10.00" fill="#000000">Asteroids::Domain::</text>
<text text-anchor="start" x="165" y="-138.5" font-family="Helvetica,sans-Serif" font-size="10.00" fill="#000000">Game::Actors::GunShip</text>
<text text-anchor="middle" x="217.5" y="-127.5" font-family="Helvetica,sans-Serif" font-size="10.00" fill="#000000">::initialize_polygon</text>
</a>
</g>
</g>
<!-- Node38&#45;&gt;Node39 -->
<g id="edge1" class="edge">
<title>Node38&#45;&gt;Node39</title>
<path fill="none" stroke="#191970" d="M114.5305,-101.6486C127.3068,-106.5313 141.0439,-111.7811 154.1901,-116.8051"/>
<polygon fill="#191970" stroke="#191970" points="153.0454,-120.1145 163.636,-120.415 155.5443,-113.5757 153.0454,-120.1145"/>
</g>
<!-- Node45 -->
<g id="node8" class="node">
<title>Node45</title>
<g id="a_node8"><a xlink:href="classAsteroids_1_1Domain_1_1Game_1_1Actors_1_1Actor.html#a538200753592ca63f7c3348fcece583f" target="_top" xlink:title="Asteroids::Domain::\lGame::Actors::Actor\l::reset">
<polygon fill="#ffffff" stroke="#000000" points="164,-60.5 164,-101.5 271,-101.5 271,-60.5 164,-60.5"/>
<text text-anchor="start" x="172" y="-89.5" font-family="Helvetica,sans-Serif" font-size="10.00" fill="#000000">Asteroids::Domain::</text>
<text text-anchor="start" x="172" y="-78.5" font-family="Helvetica,sans-Serif" font-size="10.00" fill="#000000">Game::Actors::Actor</text>
<text text-anchor="middle" x="217.5" y="-67.5" font-family="Helvetica,sans-Serif" font-size="10.00" fill="#000000">::reset</text>
</a>
</g>
</g>
<!-- Node38&#45;&gt;Node45 -->
<g id="edge8" class="edge">
<title>Node38&#45;&gt;Node45</title>
<path fill="none" stroke="#191970" d="M121.2003,-81C131.859,-81 142.9798,-81 153.7194,-81"/>
<polygon fill="#191970" stroke="#191970" points="153.8718,-84.5001 163.8718,-81 153.8717,-77.5001 153.8718,-84.5001"/>
</g>
<!-- Node47 -->
<g id="node10" class="node">
<title>Node47</title>
<g id="a_node10"><a xlink:href="classAsteroids_1_1Domain_1_1Game_1_1Actors_1_1Actor.html#a4dddef94a025aca35e8592aa3aac71e5" target="_top" xlink:title="Asteroids::Domain::\lGame::Actors::Actor\l::set_bullet_speed">
<polygon fill="#ffffff" stroke="#000000" points="164,-.5 164,-41.5 271,-41.5 271,-.5 164,-.5"/>
<text text-anchor="start" x="172" y="-29.5" font-family="Helvetica,sans-Serif" font-size="10.00" fill="#000000">Asteroids::Domain::</text>
<text text-anchor="start" x="172" y="-18.5" font-family="Helvetica,sans-Serif" font-size="10.00" fill="#000000">Game::Actors::Actor</text>
<text text-anchor="middle" x="217.5" y="-7.5" font-family="Helvetica,sans-Serif" font-size="10.00" fill="#000000">::set_bullet_speed</text>
</a>
</g>
</g>
<!-- Node38&#45;&gt;Node47 -->
<g id="edge10" class="edge">
<title>Node38&#45;&gt;Node47</title>
<path fill="none" stroke="#191970" d="M114.5305,-60.3514C127.3782,-55.4415 141.1975,-50.1602 154.4104,-45.1107"/>
<polygon fill="#191970" stroke="#191970" points="155.8101,-48.3227 163.9018,-41.4834 153.3112,-41.7839 155.8101,-48.3227"/>
</g>
<!-- Node40 -->
<g id="node3" class="node">
<title>Node40</title>
<g id="a_node3"><a xlink:href="classAsteroids_1_1Domain_1_1Game_1_1Actors_1_1Actor.html#a224abd0a9dff102361ce2a305ba4734f" target="_top" xlink:title="Asteroids::Domain::\lGame::Actors::Actor\l::set_polygon">
<polygon fill="#ffffff" stroke="#000000" points="314,-120.5 314,-161.5 421,-161.5 421,-120.5 314,-120.5"/>
<text text-anchor="start" x="322" y="-149.5" font-family="Helvetica,sans-Serif" font-size="10.00" fill="#000000">Asteroids::Domain::</text>
<text text-anchor="start" x="322" y="-138.5" font-family="Helvetica,sans-Serif" font-size="10.00" fill="#000000">Game::Actors::Actor</text>
<text text-anchor="middle" x="367.5" y="-127.5" font-family="Helvetica,sans-Serif" font-size="10.00" fill="#000000">::set_polygon</text>
</a>
</g>
</g>
<!-- Node39&#45;&gt;Node40 -->
<g id="edge2" class="edge">
<title>Node39&#45;&gt;Node40</title>
<path fill="none" stroke="#191970" d="M278.0784,-141C286.5181,-141 295.2109,-141 303.7075,-141"/>
<polygon fill="#191970" stroke="#191970" points="303.9439,-144.5001 313.9438,-141 303.9438,-137.5001 303.9439,-144.5001"/>
</g>
<!-- Node41 -->
<g id="node4" class="node">
<title>Node41</title>
<g id="a_node4"><a xlink:href="classAsteroids_1_1Domain_1_1Game_1_1Actors_1_1Actor.html#a4bb89af7457ff402fa5a4a11d62ab4ca" target="_top" xlink:title="Asteroids::Domain::\lGame::Actors::Actor\l::update_rect">
<polygon fill="#ffffff" stroke="#000000" points="457,-120.5 457,-161.5 564,-161.5 564,-120.5 457,-120.5"/>
<text text-anchor="start" x="465" y="-149.5" font-family="Helvetica,sans-Serif" font-size="10.00" fill="#000000">Asteroids::Domain::</text>
<text text-anchor="start" x="465" y="-138.5" font-family="Helvetica,sans-Serif" font-size="10.00" fill="#000000">Game::Actors::Actor</text>
<text text-anchor="middle" x="510.5" y="-127.5" font-family="Helvetica,sans-Serif" font-size="10.00" fill="#000000">::update_rect</text>
</a>
</g>
</g>
<!-- Node40&#45;&gt;Node41 -->
<g id="edge3" class="edge">
<title>Node40&#45;&gt;Node41</title>
<path fill="none" stroke="#191970" d="M421.1548,-141C429.3808,-141 437.9436,-141 446.3684,-141"/>
<polygon fill="#191970" stroke="#191970" points="446.5445,-144.5001 456.5445,-141 446.5445,-137.5001 446.5445,-144.5001"/>
</g>
<!-- Node42 -->
<g id="node5" class="node">
<title>Node42</title>
<g id="a_node5"><a xlink:href="classAsteroids_1_1Domain_1_1Game_1_1Actors_1_1Rect.html#a0ab06f4fe6e0dbd681c89397f22aa08f" target="_top" xlink:title="Asteroids::Domain::\lGame::Actors::Rect::\ladd_offset">
<polygon fill="#ffffff" stroke="#000000" points="600,-150.5 600,-191.5 710,-191.5 710,-150.5 600,-150.5"/>
<text text-anchor="start" x="608" y="-179.5" font-family="Helvetica,sans-Serif" font-size="10.00" fill="#000000">Asteroids::Domain::</text>
<text text-anchor="start" x="608" y="-168.5" font-family="Helvetica,sans-Serif" font-size="10.00" fill="#000000">Game::Actors::Rect::</text>
<text text-anchor="middle" x="655" y="-157.5" font-family="Helvetica,sans-Serif" font-size="10.00" fill="#000000">add_offset</text>
</a>
</g>
</g>
<!-- Node41&#45;&gt;Node42 -->
<g id="edge4" class="edge">
<title>Node41&#45;&gt;Node42</title>
<path fill="none" stroke="#191970" d="M564.3065,-152.1709C572.6114,-153.8951 581.2648,-155.6917 589.7864,-157.4608"/>
<polygon fill="#191970" stroke="#191970" points="589.1979,-160.9132 599.7006,-159.5192 590.6209,-154.0594 589.1979,-160.9132"/>
</g>
<!-- Node44 -->
<g id="node7" class="node">
<title>Node44</title>
<g id="a_node7"><a xlink:href="classAsteroids_1_1Domain_1_1Game_1_1Actors_1_1Rect.html#a687d0848c13d1b8dfbd2f896636b4145" target="_top" xlink:title="Create a rect from polygon points. ">
<polygon fill="#ffffff" stroke="#000000" points="600,-90.5 600,-131.5 710,-131.5 710,-90.5 600,-90.5"/>
<text text-anchor="start" x="608" y="-119.5" font-family="Helvetica,sans-Serif" font-size="10.00" fill="#000000">Asteroids::Domain::</text>
<text text-anchor="start" x="608" y="-108.5" font-family="Helvetica,sans-Serif" font-size="10.00" fill="#000000">Game::Actors::Rect::</text>
<text text-anchor="middle" x="655" y="-97.5" font-family="Helvetica,sans-Serif" font-size="10.00" fill="#000000">consume_polygon</text>
</a>
</g>
</g>
<!-- Node41&#45;&gt;Node44 -->
<g id="edge6" class="edge">
<title>Node41&#45;&gt;Node44</title>
<path fill="none" stroke="#191970" d="M564.3065,-129.8291C572.6114,-128.1049 581.2648,-126.3083 589.7864,-124.5392"/>
<polygon fill="#191970" stroke="#191970" points="590.6209,-127.9406 599.7006,-122.4808 589.1979,-121.0868 590.6209,-127.9406"/>
</g>
<!-- Node43 -->
<g id="node6" class="node">
<title>Node43</title>
<g id="a_node6"><a xlink:href="classAsteroids_1_1Domain_1_1Game_1_1Actors_1_1Rect.html#a40c593b8be9c243d6cdc30e2f8ee67df" target="_top" xlink:title="Asteroids::Domain::\lGame::Actors::Rect::\lupdate_dimensions">
<polygon fill="#ffffff" stroke="#000000" points="746,-120.5 746,-161.5 856,-161.5 856,-120.5 746,-120.5"/>
<text text-anchor="start" x="754" y="-149.5" font-family="Helvetica,sans-Serif" font-size="10.00" fill="#000000">Asteroids::Domain::</text>
<text text-anchor="start" x="754" y="-138.5" font-family="Helvetica,sans-Serif" font-size="10.00" fill="#000000">Game::Actors::Rect::</text>
<text text-anchor="middle" x="801" y="-127.5" font-family="Helvetica,sans-Serif" font-size="10.00" fill="#000000">update_dimensions</text>
</a>
</g>
</g>
<!-- Node42&#45;&gt;Node43 -->
<g id="edge5" class="edge">
<title>Node42&#45;&gt;Node43</title>
<path fill="none" stroke="#191970" d="M710.1963,-159.6583C718.5541,-157.9409 727.2434,-156.1555 735.7888,-154.3996"/>
<polygon fill="#191970" stroke="#191970" points="736.6347,-157.7989 745.7256,-152.3578 735.2258,-150.9422 736.6347,-157.7989"/>
</g>
<!-- Node44&#45;&gt;Node43 -->
<g id="edge7" class="edge">
<title>Node44&#45;&gt;Node43</title>
<path fill="none" stroke="#191970" d="M710.1963,-122.3417C718.5541,-124.0591 727.2434,-125.8445 735.7888,-127.6004"/>
<polygon fill="#191970" stroke="#191970" points="735.2258,-131.0578 745.7256,-129.6422 736.6347,-124.2011 735.2258,-131.0578"/>
</g>
<!-- Node46 -->
<g id="node9" class="node">
<title>Node46</title>
<g id="a_node9"><a xlink:href="classAsteroids_1_1Domain_1_1Game_1_1Actors_1_1Actor.html#a3678c27cfb63d8b4eb9b0aa64e352ee1" target="_top" xlink:title="Asteroids::Domain::\lGame::Actors::Actor\l::clear_input">
<polygon fill="#ffffff" stroke="#000000" points="314,-60.5 314,-101.5 421,-101.5 421,-60.5 314,-60.5"/>
<text text-anchor="start" x="322" y="-89.5" font-family="Helvetica,sans-Serif" font-size="10.00" fill="#000000">Asteroids::Domain::</text>
<text text-anchor="start" x="322" y="-78.5" font-family="Helvetica,sans-Serif" font-size="10.00" fill="#000000">Game::Actors::Actor</text>
<text text-anchor="middle" x="367.5" y="-67.5" font-family="Helvetica,sans-Serif" font-size="10.00" fill="#000000">::clear_input</text>
</a>
</g>
</g>
<!-- Node45&#45;&gt;Node46 -->
<g id="edge9" class="edge">
<title>Node45&#45;&gt;Node46</title>
<path fill="none" stroke="#191970" d="M271.2298,-81C281.7411,-81 292.8601,-81 303.663,-81"/>
<polygon fill="#191970" stroke="#191970" points="303.8934,-84.5001 313.8934,-81 303.8934,-77.5001 303.8934,-84.5001"/>
</g>
</g>
</svg>
