<?xml version="1.0" encoding="UTF-8" standalone="no"?>
<!DOCTYPE svg PUBLIC "-//W3C//DTD SVG 1.1//EN"
 "http://www.w3.org/Graphics/SVG/1.1/DTD/svg11.dtd">
<!-- Generated by graphviz version 2.40.1 (20161225.0304)
 -->
<!-- Title: Asteroids::Domain::Game::Actors::GunShip Pages: 1 -->
<svg width="810pt" height="1356pt"
 viewBox="0.00 0.00 809.50 1356.00" xmlns="http://www.w3.org/2000/svg" xmlns:xlink="http://www.w3.org/1999/xlink">
<g id="graph0" class="graph" transform="scale(1 1) rotate(0) translate(4 1352)">
<title>Asteroids::Domain::Game::Actors::GunShip</title>
<polygon fill="#ffffff" stroke="transparent" points="-4,4 -4,-1352 805.5,-1352 805.5,4 -4,4"/>
<!-- Node3 -->
<g id="node1" class="node">
<title>Node3</title>
<polygon fill="#bfbfbf" stroke="#000000" points="303,-.5 303,-134.5 424,-134.5 424,-.5 303,-.5"/>
<text text-anchor="start" x="311" y="-122.5" font-family="Helvetica,sans-Serif" font-size="10.00" fill="#000000">Asteroids::Domain::</text>
<text text-anchor="middle" x="363.5" y="-111.5" font-family="Helvetica,sans-Serif" font-size="10.00" fill="#000000">Game::Actors::GunShip</text>
<polyline fill="none" stroke="#000000" points="303,-104.5 424,-104.5 "/>
<text text-anchor="middle" x="363.5" y="-92.5" font-family="Helvetica,sans-Serif" font-size="10.00" fill="#000000"> </text>
<polyline fill="none" stroke="#000000" points="303,-85.5 424,-85.5 "/>
<text text-anchor="start" x="311" y="-73.5" font-family="Helvetica,sans-Serif" font-size="10.00" fill="#000000">+ GunShip()</text>
<text text-anchor="start" x="311" y="-62.5" font-family="Helvetica,sans-Serif" font-size="10.00" fill="#000000">+ reset()</text>
<text text-anchor="start" x="311" y="-51.5" font-family="Helvetica,sans-Serif" font-size="10.00" fill="#000000">+ update()</text>
<text text-anchor="start" x="311" y="-40.5" font-family="Helvetica,sans-Serif" font-size="10.00" fill="#000000">&#45; fire_gun()</text>
<text text-anchor="start" x="311" y="-29.5" font-family="Helvetica,sans-Serif" font-size="10.00" fill="#000000">&#45; init()</text>
<text text-anchor="start" x="311" y="-18.5" font-family="Helvetica,sans-Serif" font-size="10.00" fill="#000000">&#45; initialize_polygon()</text>
<text text-anchor="start" x="311" y="-7.5" font-family="Helvetica,sans-Serif" font-size="10.00" fill="#000000">&#45; use_input()</text>
</g>
<!-- Node4 -->
<g id="node2" class="node">
<title>Node4</title>
<g id="a_node2"><a xlink:href="classAsteroids_1_1Domain_1_1Game_1_1Actors_1_1Actor.html" target="_top" xlink:title="Implementation of ActorInterface. ">
<polygon fill="#ffffff" stroke="#000000" points="295,-172.5 295,-702.5 432,-702.5 432,-172.5 295,-172.5"/>
<text text-anchor="start" x="303" y="-690.5" font-family="Helvetica,sans-Serif" font-size="10.00" fill="#000000">Asteroids::Domain::</text>
<text text-anchor="middle" x="363.5" y="-679.5" font-family="Helvetica,sans-Serif" font-size="10.00" fill="#000000">Game::Actors::Actor</text>
<polyline fill="none" stroke="#000000" points="295,-672.5 432,-672.5 "/>
<text text-anchor="start" x="303" y="-660.5" font-family="Helvetica,sans-Serif" font-size="10.00" fill="#000000"># _input_down</text>
<text text-anchor="start" x="303" y="-649.5" font-family="Helvetica,sans-Serif" font-size="10.00" fill="#000000"># _input_fire</text>
<text text-anchor="start" x="303" y="-638.5" font-family="Helvetica,sans-Serif" font-size="10.00" fill="#000000"># _input_left</text>
<text text-anchor="start" x="303" y="-627.5" font-family="Helvetica,sans-Serif" font-size="10.00" fill="#000000"># _input_right</text>
<text text-anchor="start" x="303" y="-616.5" font-family="Helvetica,sans-Serif" font-size="10.00" fill="#000000"># _input_up</text>
<text text-anchor="start" x="303" y="-605.5" font-family="Helvetica,sans-Serif" font-size="10.00" fill="#000000">&#45; _bullet_speed</text>
<text text-anchor="start" x="303" y="-594.5" font-family="Helvetica,sans-Serif" font-size="10.00" fill="#000000">&#45; _lifetime_ticks</text>
<text text-anchor="start" x="303" y="-583.5" font-family="Helvetica,sans-Serif" font-size="10.00" fill="#000000">&#45; _pos_x</text>
<text text-anchor="start" x="303" y="-572.5" font-family="Helvetica,sans-Serif" font-size="10.00" fill="#000000">&#45; _pos_y</text>
<text text-anchor="start" x="303" y="-561.5" font-family="Helvetica,sans-Serif" font-size="10.00" fill="#000000">&#45; _rotation_radians</text>
<text text-anchor="start" x="303" y="-550.5" font-family="Helvetica,sans-Serif" font-size="10.00" fill="#000000">&#45; _wants_to_be_deleted</text>
<polyline fill="none" stroke="#000000" points="295,-543.5 432,-543.5 "/>
<text text-anchor="start" x="303" y="-531.5" font-family="Helvetica,sans-Serif" font-size="10.00" fill="#000000">+ Actor()</text>
<text text-anchor="start" x="303" y="-520.5" font-family="Helvetica,sans-Serif" font-size="10.00" fill="#000000">+ adjust_rotation()</text>
<text text-anchor="start" x="303" y="-509.5" font-family="Helvetica,sans-Serif" font-size="10.00" fill="#000000">+ check_collision()</text>
<text text-anchor="start" x="303" y="-498.5" font-family="Helvetica,sans-Serif" font-size="10.00" fill="#000000">+ check_collision()</text>
<text text-anchor="start" x="303" y="-487.5" font-family="Helvetica,sans-Serif" font-size="10.00" fill="#000000">+ clear_input()</text>
<text text-anchor="start" x="303" y="-476.5" font-family="Helvetica,sans-Serif" font-size="10.00" fill="#000000">+ get_fired_bullets()</text>
<text text-anchor="start" x="303" y="-465.5" font-family="Helvetica,sans-Serif" font-size="10.00" fill="#000000">+ get_lifetime_ticks()</text>
<text text-anchor="start" x="303" y="-454.5" font-family="Helvetica,sans-Serif" font-size="10.00" fill="#000000">+ get_polygon()</text>
<text text-anchor="start" x="303" y="-443.5" font-family="Helvetica,sans-Serif" font-size="10.00" fill="#000000">+ get_position()</text>
<text text-anchor="start" x="303" y="-432.5" font-family="Helvetica,sans-Serif" font-size="10.00" fill="#000000">+ get_rect()</text>
<text text-anchor="start" x="303" y="-421.5" font-family="Helvetica,sans-Serif" font-size="10.00" fill="#000000">+ get_rotated_polygon()</text>
<text text-anchor="start" x="303" y="-410.5" font-family="Helvetica,sans-Serif" font-size="10.00" fill="#000000">+ get_rotation()</text>
<text text-anchor="start" x="303" y="-399.5" font-family="Helvetica,sans-Serif" font-size="10.00" fill="#000000">+ get_x()</text>
<text text-anchor="start" x="303" y="-388.5" font-family="Helvetica,sans-Serif" font-size="10.00" fill="#000000">+ get_y()</text>
<text text-anchor="start" x="303" y="-377.5" font-family="Helvetica,sans-Serif" font-size="10.00" fill="#000000">+ reset()</text>
<text text-anchor="start" x="303" y="-366.5" font-family="Helvetica,sans-Serif" font-size="10.00" fill="#000000">+ rotate_polygon()</text>
<text text-anchor="start" x="303" y="-355.5" font-family="Helvetica,sans-Serif" font-size="10.00" fill="#000000">+ set_input_down()</text>
<text text-anchor="start" x="303" y="-344.5" font-family="Helvetica,sans-Serif" font-size="10.00" fill="#000000">+ set_input_fire()</text>
<text text-anchor="start" x="303" y="-333.5" font-family="Helvetica,sans-Serif" font-size="10.00" fill="#000000">+ set_input_left()</text>
<text text-anchor="start" x="303" y="-322.5" font-family="Helvetica,sans-Serif" font-size="10.00" fill="#000000">+ set_input_right()</text>
<text text-anchor="start" x="303" y="-311.5" font-family="Helvetica,sans-Serif" font-size="10.00" fill="#000000">+ set_input_up()</text>
<text text-anchor="start" x="303" y="-300.5" font-family="Helvetica,sans-Serif" font-size="10.00" fill="#000000">+ set_polygon()</text>
<text text-anchor="start" x="303" y="-289.5" font-family="Helvetica,sans-Serif" font-size="10.00" fill="#000000">+ set_position()</text>
<text text-anchor="start" x="303" y="-278.5" font-family="Helvetica,sans-Serif" font-size="10.00" fill="#000000">+ set_rotation()</text>
<text text-anchor="start" x="303" y="-267.5" font-family="Helvetica,sans-Serif" font-size="10.00" fill="#000000">+ set_velocity()</text>
<text text-anchor="start" x="303" y="-256.5" font-family="Helvetica,sans-Serif" font-size="10.00" fill="#000000">+ update()</text>
<text text-anchor="start" x="303" y="-245.5" font-family="Helvetica,sans-Serif" font-size="10.00" fill="#000000">+ wants_to_be_deleted()</text>
<text text-anchor="start" x="303" y="-234.5" font-family="Helvetica,sans-Serif" font-size="10.00" fill="#000000"># deleteme()</text>
<text text-anchor="start" x="303" y="-223.5" font-family="Helvetica,sans-Serif" font-size="10.00" fill="#000000"># fire_bullet()</text>
<text text-anchor="start" x="303" y="-212.5" font-family="Helvetica,sans-Serif" font-size="10.00" fill="#000000"># set_bullet_speed()</text>
<text text-anchor="start" x="303" y="-201.5" font-family="Helvetica,sans-Serif" font-size="10.00" fill="#000000"># update_rect()</text>
<text text-anchor="start" x="303" y="-190.5" font-family="Helvetica,sans-Serif" font-size="10.00" fill="#000000">&#45; apply_vector_to_position()</text>
<text text-anchor="start" x="303" y="-179.5" font-family="Helvetica,sans-Serif" font-size="10.00" fill="#000000">&#45; init()</text>
</a>
</g>
</g>
<!-- Node4&#45;&gt;Node3 -->
<g id="edge1" class="edge">
<title>Node4&#45;&gt;Node3</title>
<path fill="none" stroke="#191970" d="M363.5,-161.9253C363.5,-152.359 363.5,-143.2216 363.5,-134.6609"/>
<polygon fill="none" stroke="#191970" points="360.0001,-162.0435 363.5,-172.0435 367.0001,-162.0436 360.0001,-162.0435"/>
</g>
<!-- Node5 -->
<g id="node3" class="node">
<title>Node5</title>
<g id="a_node3"><a xlink:href="classAsteroids_1_1Domain_1_1Game_1_1Actors_1_1ActorInterface.html" target="_top" xlink:title="Main superclass for game board actors. ">
<polygon fill="#ffffff" stroke="#000000" points="0,-761.5 0,-939.5 145,-939.5 145,-761.5 0,-761.5"/>
<text text-anchor="start" x="8" y="-927.5" font-family="Helvetica,sans-Serif" font-size="10.00" fill="#000000">Asteroids::Domain::</text>
<text text-anchor="middle" x="72.5" y="-916.5" font-family="Helvetica,sans-Serif" font-size="10.00" fill="#000000">Game::Actors::ActorInterface</text>
<polyline fill="none" stroke="#000000" points="0,-909.5 145,-909.5 "/>
<text text-anchor="middle" x="72.5" y="-897.5" font-family="Helvetica,sans-Serif" font-size="10.00" fill="#000000"> </text>
<polyline fill="none" stroke="#000000" points="0,-890.5 145,-890.5 "/>
<text text-anchor="start" x="8" y="-878.5" font-family="Helvetica,sans-Serif" font-size="10.00" fill="#000000">+ clear_input()</text>
<text text-anchor="start" x="8" y="-867.5" font-family="Helvetica,sans-Serif" font-size="10.00" fill="#000000">+ get_polygon()</text>
<text text-anchor="start" x="8" y="-856.5" font-family="Helvetica,sans-Serif" font-size="10.00" fill="#000000">+ get_rotated_polygon()</text>
<text text-anchor="start" x="8" y="-845.5" font-family="Helvetica,sans-Serif" font-size="10.00" fill="#000000">+ get_x()</text>
<text text-anchor="start" x="8" y="-834.5" font-family="Helvetica,sans-Serif" font-size="10.00" fill="#000000">+ get_y()</text>
<text text-anchor="start" x="8" y="-823.5" font-family="Helvetica,sans-Serif" font-size="10.00" fill="#000000">+ set_input_down()</text>
<text text-anchor="start" x="8" y="-812.5" font-family="Helvetica,sans-Serif" font-size="10.00" fill="#000000">+ set_input_fire()</text>
<text text-anchor="start" x="8" y="-801.5" font-family="Helvetica,sans-Serif" font-size="10.00" fill="#000000">+ set_input_left()</text>
<text text-anchor="start" x="8" y="-790.5" font-family="Helvetica,sans-Serif" font-size="10.00" fill="#000000">+ set_input_right()</text>
<text text-anchor="start" x="8" y="-779.5" font-family="Helvetica,sans-Serif" font-size="10.00" fill="#000000">+ set_input_up()</text>
<text text-anchor="start" x="8" y="-768.5" font-family="Helvetica,sans-Serif" font-size="10.00" fill="#000000">+ set_position()</text>
</a>
</g>
</g>
<!-- Node5&#45;&gt;Node4 -->
<g id="edge2" class="edge">
<title>Node5&#45;&gt;Node4</title>
<path fill="none" stroke="#191970" d="M141.1566,-753.0595C187.5659,-687.1934 248.6029,-600.5671 294.9828,-534.7426"/>
<polygon fill="none" stroke="#191970" points="138.1832,-751.203 135.2844,-761.3936 143.9054,-755.2349 138.1832,-751.203"/>
</g>
<!-- Node6 -->
<g id="node4" class="node">
<title>Node6</title>
<g id="a_node4"><a xlink:href="classAsteroids_1_1Domain_1_1Game_1_1Actors_1_1Rect.html" target="_top" xlink:title="Convenience class to help manage actor rectangle boundaries and collisions. ">
<polygon fill="#ffffff" stroke="#000000" points="163.5,-750.5 163.5,-950.5 279.5,-950.5 279.5,-750.5 163.5,-750.5"/>
<text text-anchor="start" x="171.5" y="-938.5" font-family="Helvetica,sans-Serif" font-size="10.00" fill="#000000">Asteroids::Domain::</text>
<text text-anchor="middle" x="221.5" y="-927.5" font-family="Helvetica,sans-Serif" font-size="10.00" fill="#000000">Game::Actors::Rect</text>
<polyline fill="none" stroke="#000000" points="163.5,-920.5 279.5,-920.5 "/>
<text text-anchor="start" x="171.5" y="-908.5" font-family="Helvetica,sans-Serif" font-size="10.00" fill="#000000">+ height</text>
<text text-anchor="start" x="171.5" y="-897.5" font-family="Helvetica,sans-Serif" font-size="10.00" fill="#000000">+ width</text>
<text text-anchor="start" x="171.5" y="-886.5" font-family="Helvetica,sans-Serif" font-size="10.00" fill="#000000">+ x1</text>
<text text-anchor="start" x="171.5" y="-875.5" font-family="Helvetica,sans-Serif" font-size="10.00" fill="#000000">+ x2</text>
<text text-anchor="start" x="171.5" y="-864.5" font-family="Helvetica,sans-Serif" font-size="10.00" fill="#000000">+ y1</text>
<text text-anchor="start" x="171.5" y="-853.5" font-family="Helvetica,sans-Serif" font-size="10.00" fill="#000000">+ y2</text>
<polyline fill="none" stroke="#000000" points="163.5,-846.5 279.5,-846.5 "/>
<text text-anchor="start" x="171.5" y="-834.5" font-family="Helvetica,sans-Serif" font-size="10.00" fill="#000000">+ Rect()</text>
<text text-anchor="start" x="171.5" y="-823.5" font-family="Helvetica,sans-Serif" font-size="10.00" fill="#000000">+ add_offset()</text>
<text text-anchor="start" x="171.5" y="-812.5" font-family="Helvetica,sans-Serif" font-size="10.00" fill="#000000">+ collides_with_rect()</text>
<text text-anchor="start" x="171.5" y="-801.5" font-family="Helvetica,sans-Serif" font-size="10.00" fill="#000000">+ is_point_within()</text>
<text text-anchor="start" x="171.5" y="-790.5" font-family="Helvetica,sans-Serif" font-size="10.00" fill="#000000">+ reset()</text>
<text text-anchor="start" x="171.5" y="-779.5" font-family="Helvetica,sans-Serif" font-size="10.00" fill="#000000">+ to_string()</text>
<text text-anchor="start" x="171.5" y="-768.5" font-family="Helvetica,sans-Serif" font-size="10.00" fill="#000000">+ update_dimensions()</text>
<text text-anchor="start" x="171.5" y="-757.5" font-family="Helvetica,sans-Serif" font-size="10.00" fill="#000000">+ consume_polygon()</text>
</a>
</g>
</g>
<!-- Node6&#45;&gt;Node4 -->
<g id="edge3" class="edge">
<title>Node6&#45;&gt;Node4</title>
<path fill="none" stroke="#404040" d="M255.9648,-750.2607C266.5941,-719.3461 278.7249,-684.0641 290.918,-648.6011"/>
<polygon fill="none" stroke="#404040" points="290.9754,-648.4341 289.1436,-641.4595 294.8772,-637.0861 296.7089,-644.0607 290.9754,-648.4341"/>
<text text-anchor="middle" x="277.5" y="-724" font-family="Helvetica,sans-Serif" font-size="10.00" fill="#000000"> &#45;_rect</text>
</g>
<!-- Node7 -->
<g id="node5" class="node">
<title>Node7</title>
<polygon fill="#ffffff" stroke="#bfbfbf" points="297.5,-811 297.5,-890 429.5,-890 429.5,-811 297.5,-811"/>
<text text-anchor="start" x="305.5" y="-878" font-family="Helvetica,sans-Serif" font-size="10.00" fill="#000000">std::vector&lt; std::shared</text>
<text text-anchor="start" x="305.5" y="-867" font-family="Helvetica,sans-Serif" font-size="10.00" fill="#000000">_ptr&lt; Asteroids::Domain</text>
<text text-anchor="middle" x="363.5" y="-856" font-family="Helvetica,sans-Serif" font-size="10.00" fill="#000000">::Game::Actors::Bullet &gt; &gt;</text>
<polyline fill="none" stroke="#bfbfbf" points="297.5,-849 429.5,-849 "/>
<text text-anchor="start" x="305.5" y="-837" font-family="Helvetica,sans-Serif" font-size="10.00" fill="#000000">+ elements</text>
<polyline fill="none" stroke="#bfbfbf" points="297.5,-830 429.5,-830 "/>
<text text-anchor="middle" x="363.5" y="-818" font-family="Helvetica,sans-Serif" font-size="10.00" fill="#000000"> </text>
</g>
<!-- Node7&#45;&gt;Node4 -->
<g id="edge4" class="edge">
<title>Node7&#45;&gt;Node4</title>
<path fill="none" stroke="#404040" d="M363.5,-810.8998C363.5,-786.3967 363.5,-752.5293 363.5,-715.1138"/>
<polygon fill="none" stroke="#404040" points="363.5001,-714.8486 359.5,-708.8486 363.5,-702.8486 367.5,-708.8485 363.5001,-714.8486"/>
<text text-anchor="middle" x="395.5" y="-724" font-family="Helvetica,sans-Serif" font-size="10.00" fill="#000000"> &#45;_fired_bullets</text>
</g>
<!-- Node8 -->
<g id="node6" class="node">
<title>Node8</title>
<g id="a_node6"><a xlink:title="STL class. ">
<polygon fill="#ffffff" stroke="#bfbfbf" points="454,-1103 454,-1160 541,-1160 541,-1103 454,-1103"/>
<text text-anchor="middle" x="497.5" y="-1148" font-family="Helvetica,sans-Serif" font-size="10.00" fill="#000000">std::vector&lt; T &gt;</text>
<polyline fill="none" stroke="#bfbfbf" points="454,-1141 541,-1141 "/>
<text text-anchor="middle" x="497.5" y="-1129" font-family="Helvetica,sans-Serif" font-size="10.00" fill="#000000"> </text>
<polyline fill="none" stroke="#bfbfbf" points="454,-1122 541,-1122 "/>
<text text-anchor="middle" x="497.5" y="-1110" font-family="Helvetica,sans-Serif" font-size="10.00" fill="#000000"> </text>
</a>
</g>
</g>
<!-- Node8&#45;&gt;Node7 -->
<g id="edge5" class="edge">
<title>Node8&#45;&gt;Node7</title>
<path fill="none" stroke="#ffa500" d="M456.5322,-1095.8063C431.819,-1071.8454 402.0144,-1038.139 385.5,-1002 369.2616,-966.4649 364.418,-921.7859 363.2372,-890.1812"/>
<polygon fill="#ffa500" stroke="#ffa500" points="454.3584,-1098.569 464.018,-1102.9215 459.181,-1093.4953 454.3584,-1098.569"/>
<text text-anchor="start" x="385.5" y="-994" font-family="Helvetica,sans-Serif" font-size="10.00" fill="#000000"> &lt; std::shared_ptr&lt;</text>
<text text-anchor="start" x="385.5" y="-983" font-family="Helvetica,sans-Serif" font-size="10.00" fill="#000000"> Asteroids::Domain::</text>
<text text-anchor="middle" x="440.5" y="-972" font-family="Helvetica,sans-Serif" font-size="10.00" fill="#000000">Game::Actors::Bullet &gt; &gt;</text>
</g>
<!-- Node13 -->
<g id="node11" class="node">
<title>Node13</title>
<polygon fill="#ffffff" stroke="#bfbfbf" points="448,-816.5 448,-884.5 555,-884.5 555,-816.5 448,-816.5"/>
<text text-anchor="start" x="456" y="-872.5" font-family="Helvetica,sans-Serif" font-size="10.00" fill="#000000">std::vector&lt; std::pair</text>
<text text-anchor="middle" x="501.5" y="-861.5" font-family="Helvetica,sans-Serif" font-size="10.00" fill="#000000">&lt; double, double &gt; &gt;</text>
<polyline fill="none" stroke="#bfbfbf" points="448,-854.5 555,-854.5 "/>
<text text-anchor="start" x="456" y="-842.5" font-family="Helvetica,sans-Serif" font-size="10.00" fill="#000000">+ elements</text>
<polyline fill="none" stroke="#bfbfbf" points="448,-835.5 555,-835.5 "/>
<text text-anchor="middle" x="501.5" y="-823.5" font-family="Helvetica,sans-Serif" font-size="10.00" fill="#000000"> </text>
</g>
<!-- Node8&#45;&gt;Node13 -->
<g id="edge12" class="edge">
<title>Node8&#45;&gt;Node13</title>
<path fill="none" stroke="#ffa500" d="M498.0529,-1092.6602C498.8388,-1037.4485 500.2664,-937.1579 501.014,-884.644"/>
<polygon fill="#ffa500" stroke="#ffa500" points="494.5521,-1092.6998 497.9093,-1102.7486 501.5513,-1092.7995 494.5521,-1092.6998"/>
<text text-anchor="start" x="500.5" y="-988.5" font-family="Helvetica,sans-Serif" font-size="10.00" fill="#000000"> &lt; std::pair&lt; double,</text>
<text text-anchor="middle" x="544.5" y="-977.5" font-family="Helvetica,sans-Serif" font-size="10.00" fill="#000000"> double &gt; &gt;</text>
</g>
<!-- Node9 -->
<g id="node7" class="node">
<title>Node9</title>
<polygon fill="#ffffff" stroke="#bfbfbf" points="540,-1290.5 540,-1347.5 569,-1347.5 569,-1290.5 540,-1290.5"/>
<text text-anchor="middle" x="554.5" y="-1335.5" font-family="Helvetica,sans-Serif" font-size="10.00" fill="#000000">T</text>
<polyline fill="none" stroke="#bfbfbf" points="540,-1328.5 569,-1328.5 "/>
<text text-anchor="middle" x="554.5" y="-1316.5" font-family="Helvetica,sans-Serif" font-size="10.00" fill="#000000"> </text>
<polyline fill="none" stroke="#bfbfbf" points="540,-1309.5 569,-1309.5 "/>
<text text-anchor="middle" x="554.5" y="-1297.5" font-family="Helvetica,sans-Serif" font-size="10.00" fill="#000000"> </text>
</g>
<!-- Node9&#45;&gt;Node8 -->
<g id="edge6" class="edge">
<title>Node9&#45;&gt;Node8</title>
<path fill="none" stroke="#404040" d="M539.9976,-1294.6906C536.1785,-1287.5577 532.3377,-1279.6221 529.5,-1272 517.3348,-1239.3236 508.9308,-1200.5821 503.7985,-1172.0652"/>
<polygon fill="none" stroke="#404040" points="503.7793,-1171.954 498.8149,-1166.7239 501.7333,-1160.1297 506.6978,-1165.3599 503.7793,-1171.954"/>
<text text-anchor="middle" x="554" y="-1264" font-family="Helvetica,sans-Serif" font-size="10.00" fill="#000000"> +elements</text>
</g>
<!-- Node12 -->
<g id="node10" class="node">
<title>Node12</title>
<g id="a_node10"><a xlink:title="STL class. ">
<polygon fill="#ffffff" stroke="#bfbfbf" points="559,-1103 559,-1160 664,-1160 664,-1103 559,-1103"/>
<text text-anchor="middle" x="611.5" y="-1148" font-family="Helvetica,sans-Serif" font-size="10.00" fill="#000000">std::unique_ptr&lt; T &gt;</text>
<polyline fill="none" stroke="#bfbfbf" points="559,-1141 664,-1141 "/>
<text text-anchor="middle" x="611.5" y="-1129" font-family="Helvetica,sans-Serif" font-size="10.00" fill="#000000"> </text>
<polyline fill="none" stroke="#bfbfbf" points="559,-1122 664,-1122 "/>
<text text-anchor="start" x="567" y="-1110" font-family="Helvetica,sans-Serif" font-size="10.00" fill="#000000">+ operator&#45;&gt;()</text>
</a>
</g>
</g>
<!-- Node9&#45;&gt;Node12 -->
<g id="edge10" class="edge">
<title>Node9&#45;&gt;Node12</title>
<path fill="none" stroke="#404040" d="M569.1062,-1293.1533C572.5222,-1286.4109 575.9139,-1279.0537 578.5,-1272 590.5209,-1239.2121 599.2341,-1200.4806 604.6781,-1171.9958"/>
<polygon fill="none" stroke="#404040" points="604.7002,-1171.876 601.8568,-1165.2492 606.8804,-1160.0757 609.7237,-1166.7026 604.7002,-1171.876"/>
<text text-anchor="middle" x="592" y="-1264" font-family="Helvetica,sans-Serif" font-size="10.00" fill="#000000"> +ptr</text>
</g>
<!-- Node10 -->
<g id="node8" class="node">
<title>Node10</title>
<polygon fill="#ffffff" stroke="#bfbfbf" points="573,-811 573,-890 704,-890 704,-811 573,-811"/>
<text text-anchor="start" x="581" y="-878" font-family="Helvetica,sans-Serif" font-size="10.00" fill="#000000">std::unique_ptr&lt; Asteroids</text>
<text text-anchor="start" x="581" y="-867" font-family="Helvetica,sans-Serif" font-size="10.00" fill="#000000">::Domain::Game::Actors::</text>
<text text-anchor="middle" x="638.5" y="-856" font-family="Helvetica,sans-Serif" font-size="10.00" fill="#000000">Vector &gt;</text>
<polyline fill="none" stroke="#bfbfbf" points="573,-849 704,-849 "/>
<text text-anchor="middle" x="638.5" y="-837" font-family="Helvetica,sans-Serif" font-size="10.00" fill="#000000"> </text>
<polyline fill="none" stroke="#bfbfbf" points="573,-830 704,-830 "/>
<text text-anchor="start" x="581" y="-818" font-family="Helvetica,sans-Serif" font-size="10.00" fill="#000000">+ operator&#45;&gt;()</text>
</g>
<!-- Node10&#45;&gt;Node4 -->
<g id="edge7" class="edge">
<title>Node10&#45;&gt;Node4</title>
<path fill="none" stroke="#404040" d="M612.1318,-810.8998C572.6264,-751.5698 496.5643,-637.3385 438.9234,-550.7722"/>
<polygon fill="none" stroke="#404040" points="438.8176,-550.6133 432.1627,-547.8361 432.1668,-540.625 438.8216,-543.4022 438.8176,-550.6133"/>
<text text-anchor="middle" x="578" y="-724" font-family="Helvetica,sans-Serif" font-size="10.00" fill="#000000"> #_vector</text>
</g>
<!-- Node11 -->
<g id="node9" class="node">
<title>Node11</title>
<g id="a_node9"><a xlink:href="classAsteroids_1_1Domain_1_1Game_1_1Actors_1_1Vector.html" target="_top" xlink:title="Simple class to store 2D vector and rotation, to lend physics to game actors. ">
<polygon fill="#ffffff" stroke="#000000" points="689.5,-1020.5 689.5,-1242.5 801.5,-1242.5 801.5,-1020.5 689.5,-1020.5"/>
<text text-anchor="start" x="697.5" y="-1230.5" font-family="Helvetica,sans-Serif" font-size="10.00" fill="#000000">Asteroids::Domain::</text>
<text text-anchor="middle" x="745.5" y="-1219.5" font-family="Helvetica,sans-Serif" font-size="10.00" fill="#000000">Game::Actors::Vector</text>
<polyline fill="none" stroke="#000000" points="689.5,-1212.5 801.5,-1212.5 "/>
<text text-anchor="start" x="697.5" y="-1200.5" font-family="Helvetica,sans-Serif" font-size="10.00" fill="#000000">&#45; _r</text>
<text text-anchor="start" x="697.5" y="-1189.5" font-family="Helvetica,sans-Serif" font-size="10.00" fill="#000000">&#45; _x</text>
<text text-anchor="start" x="697.5" y="-1178.5" font-family="Helvetica,sans-Serif" font-size="10.00" fill="#000000">&#45; _y</text>
<polyline fill="none" stroke="#000000" points="689.5,-1171.5 801.5,-1171.5 "/>
<text text-anchor="start" x="697.5" y="-1159.5" font-family="Helvetica,sans-Serif" font-size="10.00" fill="#000000">+ Vector()</text>
<text text-anchor="start" x="697.5" y="-1148.5" font-family="Helvetica,sans-Serif" font-size="10.00" fill="#000000">+ adjust()</text>
<text text-anchor="start" x="697.5" y="-1137.5" font-family="Helvetica,sans-Serif" font-size="10.00" fill="#000000">+ get_linear()</text>
<text text-anchor="start" x="697.5" y="-1126.5" font-family="Helvetica,sans-Serif" font-size="10.00" fill="#000000">+ get_rotated_linear()</text>
<text text-anchor="start" x="697.5" y="-1115.5" font-family="Helvetica,sans-Serif" font-size="10.00" fill="#000000">+ get_rotational()</text>
<text text-anchor="start" x="697.5" y="-1104.5" font-family="Helvetica,sans-Serif" font-size="10.00" fill="#000000">+ get_x()</text>
<text text-anchor="start" x="697.5" y="-1093.5" font-family="Helvetica,sans-Serif" font-size="10.00" fill="#000000">+ get_y()</text>
<text text-anchor="start" x="697.5" y="-1082.5" font-family="Helvetica,sans-Serif" font-size="10.00" fill="#000000">+ reset()</text>
<text text-anchor="start" x="697.5" y="-1071.5" font-family="Helvetica,sans-Serif" font-size="10.00" fill="#000000">+ set()</text>
<text text-anchor="start" x="697.5" y="-1060.5" font-family="Helvetica,sans-Serif" font-size="10.00" fill="#000000">+ update()</text>
<text text-anchor="start" x="697.5" y="-1049.5" font-family="Helvetica,sans-Serif" font-size="10.00" fill="#000000">+ rotate_velocity()</text>
<text text-anchor="start" x="697.5" y="-1038.5" font-family="Helvetica,sans-Serif" font-size="10.00" fill="#000000">&#45; apply_limits()</text>
<text text-anchor="start" x="697.5" y="-1027.5" font-family="Helvetica,sans-Serif" font-size="10.00" fill="#000000">&#45; dampen()</text>
</a>
</g>
</g>
<!-- Node11&#45;&gt;Node10 -->
<g id="edge8" class="edge">
<title>Node11&#45;&gt;Node10</title>
<path fill="none" stroke="#404040" d="M737.8196,-1020.3722C734.5231,-1002.8111 729.9157,-985.1376 723.5,-969 713.6532,-944.2322 697.531,-919.7957 681.9596,-899.6063"/>
<polygon fill="none" stroke="#404040" points="681.8425,-899.4586 674.9811,-897.2403 674.3897,-890.0535 681.2511,-892.2717 681.8425,-899.4586"/>
<text text-anchor="middle" x="744" y="-983" font-family="Helvetica,sans-Serif" font-size="10.00" fill="#000000"> +ptr</text>
</g>
<!-- Node12&#45;&gt;Node10 -->
<g id="edge9" class="edge">
<title>Node12&#45;&gt;Node10</title>
<path fill="none" stroke="#ffa500" d="M609.4655,-1092.7816C608.2737,-1059.7746 607.8018,-1011.1251 612.5,-969 615.4649,-942.4157 621.8869,-913.0441 627.6062,-890.1934"/>
<polygon fill="#ffa500" stroke="#ffa500" points="605.9741,-1093.0687 609.872,-1102.9204 612.9684,-1092.7881 605.9741,-1093.0687"/>
<text text-anchor="start" x="612.5" y="-988.5" font-family="Helvetica,sans-Serif" font-size="10.00" fill="#000000"> &lt; Asteroids::Domain</text>
<text text-anchor="middle" x="668" y="-977.5" font-family="Helvetica,sans-Serif" font-size="10.00" fill="#000000">::Game::Actors::Vector &gt;</text>
</g>
<!-- Node13&#45;&gt;Node4 -->
<g id="edge11" class="edge">
<title>Node13&#45;&gt;Node4</title>
<path fill="none" stroke="#404040" d="M490.0895,-816.3511C477.7535,-779.4324 457.0004,-717.3238 435.8286,-653.9616"/>
<polygon fill="none" stroke="#404040" points="435.8153,-653.9216 430.1199,-649.4986 432.0122,-642.5401 437.7076,-646.9632 435.8153,-653.9216"/>
<text text-anchor="middle" x="500" y="-724" font-family="Helvetica,sans-Serif" font-size="10.00" fill="#000000"> &#45;_polygon_points</text>
</g>
</g>
</svg>
