<?xml version="1.0" encoding="UTF-8" standalone="no"?>
<!DOCTYPE svg PUBLIC "-//W3C//DTD SVG 1.1//EN"
 "http://www.w3.org/Graphics/SVG/1.1/DTD/svg11.dtd">
<!-- Generated by graphviz version 2.40.1 (20161225.0304)
 -->
<!-- Title: Asteroids::Domain::Game::Game::start_round Pages: 1 -->
<svg width="458pt" height="50pt"
 viewBox="0.00 0.00 458.00 50.00" xmlns="http://www.w3.org/2000/svg" xmlns:xlink="http://www.w3.org/1999/xlink">
<g id="graph0" class="graph" transform="scale(1 1) rotate(0) translate(4 46)">
<title>Asteroids::Domain::Game::Game::start_round</title>
<polygon fill="#ffffff" stroke="transparent" points="-4,4 -4,-46 454,-46 454,4 -4,4"/>
<!-- Node93 -->
<g id="node1" class="node">
<title>Node93</title>
<polygon fill="#bfbfbf" stroke="#000000" points="0,-6 0,-36 130,-36 130,-6 0,-6"/>
<text text-anchor="start" x="8" y="-24" font-family="Helvetica,sans-Serif" font-size="10.00" fill="#000000">Asteroids::Domain::</text>
<text text-anchor="middle" x="65" y="-13" font-family="Helvetica,sans-Serif" font-size="10.00" fill="#000000">Game::Game::start_round</text>
</g>
<!-- Node94 -->
<g id="node2" class="node">
<title>Node94</title>
<g id="a_node2"><a xlink:href="classAsteroids_1_1Domain_1_1Game_1_1Game.html#ad3a7040e8cc0b14228f46577ecf2bc78" target="_top" xlink:title="Asteroids::Domain::\lGame::Game::initialize\l_random_rocks">
<polygon fill="#ffffff" stroke="#000000" points="166,-.5 166,-41.5 282,-41.5 282,-.5 166,-.5"/>
<text text-anchor="start" x="174" y="-29.5" font-family="Helvetica,sans-Serif" font-size="10.00" fill="#000000">Asteroids::Domain::</text>
<text text-anchor="start" x="174" y="-18.5" font-family="Helvetica,sans-Serif" font-size="10.00" fill="#000000">Game::Game::initialize</text>
<text text-anchor="middle" x="224" y="-7.5" font-family="Helvetica,sans-Serif" font-size="10.00" fill="#000000">_random_rocks</text>
</a>
</g>
</g>
<!-- Node93&#45;&gt;Node94 -->
<g id="edge1" class="edge">
<title>Node93&#45;&gt;Node94</title>
<path fill="none" stroke="#191970" d="M130.1302,-21C138.5442,-21 147.1804,-21 155.6446,-21"/>
<polygon fill="#191970" stroke="#191970" points="155.8573,-24.5001 165.8573,-21 155.8573,-17.5001 155.8573,-24.5001"/>
</g>
<!-- Node95 -->
<g id="node3" class="node">
<title>Node95</title>
<g id="a_node3"><a xlink:href="classAsteroids_1_1Domain_1_1Game_1_1Game.html#a798922774fed23c593a476338acf7100" target="_top" xlink:title="Asteroids::Domain::\lGame::Game::get_random\l_board_position">
<polygon fill="#ffffff" stroke="#000000" points="318,-.5 318,-41.5 450,-41.5 450,-.5 318,-.5"/>
<text text-anchor="start" x="326" y="-29.5" font-family="Helvetica,sans-Serif" font-size="10.00" fill="#000000">Asteroids::Domain::</text>
<text text-anchor="start" x="326" y="-18.5" font-family="Helvetica,sans-Serif" font-size="10.00" fill="#000000">Game::Game::get_random</text>
<text text-anchor="middle" x="384" y="-7.5" font-family="Helvetica,sans-Serif" font-size="10.00" fill="#000000">_board_position</text>
</a>
</g>
</g>
<!-- Node94&#45;&gt;Node95 -->
<g id="edge2" class="edge">
<title>Node94&#45;&gt;Node95</title>
<path fill="none" stroke="#191970" d="M282.2163,-21C290.5651,-21 299.2565,-21 307.8874,-21"/>
<polygon fill="#191970" stroke="#191970" points="307.9675,-24.5001 317.9674,-21 307.9674,-17.5001 307.9675,-24.5001"/>
</g>
</g>
</svg>
