<?xml version="1.0" encoding="UTF-8" standalone="no"?>
<!DOCTYPE svg PUBLIC "-//W3C//DTD SVG 1.1//EN"
 "http://www.w3.org/Graphics/SVG/1.1/DTD/svg11.dtd">
<!-- Generated by graphviz version 2.40.1 (20161225.0304)
 -->
<!-- Title: Asteroids::UI::ClientTextUI::DisplayGrid::reset Pages: 1 -->
<svg width="826pt" height="127pt"
 viewBox="0.00 0.00 826.00 126.50" xmlns="http://www.w3.org/2000/svg" xmlns:xlink="http://www.w3.org/1999/xlink">
<g id="graph0" class="graph" transform="scale(1 1) rotate(0) translate(4 122.5)">
<title>Asteroids::UI::ClientTextUI::DisplayGrid::reset</title>
<polygon fill="#ffffff" stroke="transparent" points="-4,4 -4,-122.5 822,-122.5 822,4 -4,4"/>
<!-- Node68 -->
<g id="node1" class="node">
<title>Node68</title>
<polygon fill="#bfbfbf" stroke="#000000" points="0,-54.5 0,-84.5 125,-84.5 125,-54.5 0,-54.5"/>
<text text-anchor="start" x="8" y="-72.5" font-family="Helvetica,sans-Serif" font-size="10.00" fill="#000000">Asteroids::UI::ClientText</text>
<text text-anchor="middle" x="62.5" y="-61.5" font-family="Helvetica,sans-Serif" font-size="10.00" fill="#000000">UI::DisplayGrid::reset</text>
</g>
<!-- Node69 -->
<g id="node2" class="node">
<title>Node69</title>
<g id="a_node2"><a xlink:href="classAsteroids_1_1UI_1_1ClientTextUI_1_1DisplayGrid.html#aba2b6b3d0cef0cff63f709207652cf44" target="_top" xlink:title="Asteroids::UI::ClientText\lUI::DisplayGrid::calculate\l_translation">
<polygon fill="#ffffff" stroke="#000000" points="162.5,-77 162.5,-118 291.5,-118 291.5,-77 162.5,-77"/>
<text text-anchor="start" x="170.5" y="-106" font-family="Helvetica,sans-Serif" font-size="10.00" fill="#000000">Asteroids::UI::ClientText</text>
<text text-anchor="start" x="170.5" y="-95" font-family="Helvetica,sans-Serif" font-size="10.00" fill="#000000">UI::DisplayGrid::calculate</text>
<text text-anchor="middle" x="227" y="-84" font-family="Helvetica,sans-Serif" font-size="10.00" fill="#000000">_translation</text>
</a>
</g>
</g>
<!-- Node68&#45;&gt;Node69 -->
<g id="edge1" class="edge">
<title>Node68&#45;&gt;Node69</title>
<path fill="none" stroke="#191970" d="M125.1597,-80.1655C133.9995,-81.6701 143.1599,-83.2293 152.1993,-84.768"/>
<polygon fill="#191970" stroke="#191970" points="151.8846,-88.2647 162.3302,-86.4924 153.0593,-81.3639 151.8846,-88.2647"/>
</g>
<!-- Node70 -->
<g id="node3" class="node">
<title>Node70</title>
<g id="a_node3"><a xlink:href="classAsteroids_1_1UI_1_1ClientTextUI_1_1DisplayGrid.html#aa5b4f98a3eae7f672021228e5f484f54" target="_top" xlink:title="Asteroids::UI::ClientText\lUI::DisplayGrid::clear_grid">
<polygon fill="#ffffff" stroke="#000000" points="161,-27.5 161,-57.5 293,-57.5 293,-27.5 161,-27.5"/>
<text text-anchor="start" x="169" y="-45.5" font-family="Helvetica,sans-Serif" font-size="10.00" fill="#000000">Asteroids::UI::ClientText</text>
<text text-anchor="middle" x="227" y="-34.5" font-family="Helvetica,sans-Serif" font-size="10.00" fill="#000000">UI::DisplayGrid::clear_grid</text>
</a>
</g>
</g>
<!-- Node68&#45;&gt;Node70 -->
<g id="edge2" class="edge">
<title>Node68&#45;&gt;Node70</title>
<path fill="none" stroke="#191970" d="M125.1597,-59.2154C133.5782,-57.8337 142.2874,-56.4042 150.906,-54.9896"/>
<polygon fill="#191970" stroke="#191970" points="151.6579,-58.4131 160.9589,-53.3396 150.5241,-51.5055 151.6579,-58.4131"/>
</g>
<!-- Node71 -->
<g id="node4" class="node">
<title>Node71</title>
<g id="a_node4"><a xlink:href="classAsteroids_1_1UI_1_1ClientTextUI_1_1DisplayGrid.html#a8c7048980c9b3443b5cfa20dd16c6935" target="_top" xlink:title="Asteroids::UI::ClientText\lUI::DisplayGrid::add_border">
<polygon fill="#ffffff" stroke="#000000" points="329,-27.5 329,-57.5 467,-57.5 467,-27.5 329,-27.5"/>
<text text-anchor="start" x="337" y="-45.5" font-family="Helvetica,sans-Serif" font-size="10.00" fill="#000000">Asteroids::UI::ClientText</text>
<text text-anchor="middle" x="398" y="-34.5" font-family="Helvetica,sans-Serif" font-size="10.00" fill="#000000">UI::DisplayGrid::add_border</text>
</a>
</g>
</g>
<!-- Node70&#45;&gt;Node71 -->
<g id="edge3" class="edge">
<title>Node70&#45;&gt;Node71</title>
<path fill="none" stroke="#191970" d="M293.1131,-42.5C301.5569,-42.5 310.267,-42.5 318.8899,-42.5"/>
<polygon fill="#191970" stroke="#191970" points="318.9513,-46.0001 328.9512,-42.5 318.9512,-39.0001 318.9513,-46.0001"/>
</g>
<!-- Node72 -->
<g id="node5" class="node">
<title>Node72</title>
<g id="a_node5"><a xlink:href="classAsteroids_1_1UI_1_1ClientTextUI_1_1DisplayGrid.html#a3f77a0874f78d753020e8ba12081bd85" target="_top" xlink:title="Asteroids::UI::ClientText\lUI::DisplayGrid::set_pixel">
<polygon fill="#ffffff" stroke="#000000" points="503,-27.5 503,-57.5 632,-57.5 632,-27.5 503,-27.5"/>
<text text-anchor="start" x="511" y="-45.5" font-family="Helvetica,sans-Serif" font-size="10.00" fill="#000000">Asteroids::UI::ClientText</text>
<text text-anchor="middle" x="567.5" y="-34.5" font-family="Helvetica,sans-Serif" font-size="10.00" fill="#000000">UI::DisplayGrid::set_pixel</text>
</a>
</g>
</g>
<!-- Node71&#45;&gt;Node72 -->
<g id="edge4" class="edge">
<title>Node71&#45;&gt;Node72</title>
<path fill="none" stroke="#191970" d="M467.4312,-42.5C475.7509,-42.5 484.2743,-42.5 492.6663,-42.5"/>
<polygon fill="#191970" stroke="#191970" points="492.8148,-46.0001 502.8148,-42.5 492.8148,-39.0001 492.8148,-46.0001"/>
</g>
<!-- Node73 -->
<g id="node6" class="node">
<title>Node73</title>
<g id="a_node6"><a xlink:href="classAsteroids_1_1UI_1_1ClientTextUI_1_1DisplayGrid.html#ae831e34de9c3fe439b09ed2543e30dee" target="_top" xlink:title="Asteroids::UI::ClientText\lUI::DisplayGrid::translate\l_source_point">
<polygon fill="#ffffff" stroke="#000000" points="679,-50 679,-91 807,-91 807,-50 679,-50"/>
<text text-anchor="start" x="687" y="-79" font-family="Helvetica,sans-Serif" font-size="10.00" fill="#000000">Asteroids::UI::ClientText</text>
<text text-anchor="start" x="687" y="-68" font-family="Helvetica,sans-Serif" font-size="10.00" fill="#000000">UI::DisplayGrid::translate</text>
<text text-anchor="middle" x="743" y="-57" font-family="Helvetica,sans-Serif" font-size="10.00" fill="#000000">_source_point</text>
</a>
</g>
</g>
<!-- Node72&#45;&gt;Node73 -->
<g id="edge5" class="edge">
<title>Node72&#45;&gt;Node73</title>
<path fill="none" stroke="#191970" d="M632.3511,-52.8466C644.1751,-54.7331 656.5955,-56.7147 668.6688,-58.6409"/>
<polygon fill="#191970" stroke="#191970" points="668.2815,-62.1233 678.708,-60.2426 669.3844,-55.2107 668.2815,-62.1233"/>
</g>
<!-- Node74 -->
<g id="node7" class="node">
<title>Node74</title>
<g id="a_node7"><a xlink:href="classAsteroids_1_1UI_1_1ClientTextUI_1_1DisplayGrid.html#acd82bd351302d1423b4e30f3312f7398" target="_top" xlink:title="Asteroids::UI::ClientText\lUI::DisplayGrid::set_grid_pixel">
<polygon fill="#ffffff" stroke="#000000" points="668,-.5 668,-30.5 818,-30.5 818,-.5 668,-.5"/>
<text text-anchor="start" x="676" y="-18.5" font-family="Helvetica,sans-Serif" font-size="10.00" fill="#000000">Asteroids::UI::ClientText</text>
<text text-anchor="middle" x="743" y="-7.5" font-family="Helvetica,sans-Serif" font-size="10.00" fill="#000000">UI::DisplayGrid::set_grid_pixel</text>
</a>
</g>
</g>
<!-- Node72&#45;&gt;Node74 -->
<g id="edge6" class="edge">
<title>Node72&#45;&gt;Node74</title>
<path fill="none" stroke="#191970" d="M632.3511,-32.5229C640.6325,-31.2488 649.2064,-29.9298 657.7488,-28.6156"/>
<polygon fill="#191970" stroke="#191970" points="658.3913,-32.058 667.7428,-27.078 657.3268,-25.1394 658.3913,-32.058"/>
</g>
</g>
</svg>
