<?xml version="1.0" encoding="UTF-8" standalone="no"?>
<!DOCTYPE svg PUBLIC "-//W3C//DTD SVG 1.1//EN"
 "http://www.w3.org/Graphics/SVG/1.1/DTD/svg11.dtd">
<!-- Generated by graphviz version 2.40.1 (20161225.0304)
 -->
<!-- Title: Asteroids::Domain::Store::PAYMENT_RESULT_DETAILS::PAYMENT_RESULT_DETAILS Pages: 1 -->
<svg width="367pt" height="61pt"
 viewBox="0.00 0.00 367.00 61.00" xmlns="http://www.w3.org/2000/svg" xmlns:xlink="http://www.w3.org/1999/xlink">
<g id="graph0" class="graph" transform="scale(1 1) rotate(0) translate(4 57)">
<title>Asteroids::Domain::Store::PAYMENT_RESULT_DETAILS::PAYMENT_RESULT_DETAILS</title>
<polygon fill="#ffffff" stroke="transparent" points="-4,4 -4,-57 363,-57 363,4 -4,4"/>
<!-- Node0 -->
<g id="node1" class="node">
<title>Node0</title>
<polygon fill="#bfbfbf" stroke="#000000" points="0,-.5 0,-52.5 164,-52.5 164,-.5 0,-.5"/>
<text text-anchor="start" x="8" y="-40.5" font-family="Helvetica,sans-Serif" font-size="10.00" fill="#000000">Asteroids::Domain::</text>
<text text-anchor="start" x="8" y="-29.5" font-family="Helvetica,sans-Serif" font-size="10.00" fill="#000000">Store::PAYMENT_RESULT</text>
<text text-anchor="start" x="8" y="-18.5" font-family="Helvetica,sans-Serif" font-size="10.00" fill="#000000">_DETAILS::PAYMENT_RESULT</text>
<text text-anchor="middle" x="82" y="-7.5" font-family="Helvetica,sans-Serif" font-size="10.00" fill="#000000">_DETAILS</text>
</g>
<!-- Node1 -->
<g id="node2" class="node">
<title>Node1</title>
<g id="a_node2"><a xlink:href="classAsteroids_1_1Domain_1_1Store_1_1PAYMENT__RESULT__DETAILS.html#aca004f43f5b89b0560525e60d171faf2" target="_top" xlink:title="Asteroids::Domain::\lStore::PAYMENT_RESULT\l_DETAILS::set_was_successful">
<polygon fill="#ffffff" stroke="#000000" points="200,-6 200,-47 359,-47 359,-6 200,-6"/>
<text text-anchor="start" x="208" y="-35" font-family="Helvetica,sans-Serif" font-size="10.00" fill="#000000">Asteroids::Domain::</text>
<text text-anchor="start" x="208" y="-24" font-family="Helvetica,sans-Serif" font-size="10.00" fill="#000000">Store::PAYMENT_RESULT</text>
<text text-anchor="middle" x="279.5" y="-13" font-family="Helvetica,sans-Serif" font-size="10.00" fill="#000000">_DETAILS::set_was_successful</text>
</a>
</g>
</g>
<!-- Node0&#45;&gt;Node1 -->
<g id="edge1" class="edge">
<title>Node0&#45;&gt;Node1</title>
<path fill="none" stroke="#191970" d="M164.042,-26.5C172.5736,-26.5 181.2765,-26.5 189.886,-26.5"/>
<polygon fill="#191970" stroke="#191970" points="189.9341,-30.0001 199.934,-26.5 189.934,-23.0001 189.9341,-30.0001"/>
</g>
</g>
</svg>
