<?xml version="1.0" encoding="UTF-8" standalone="no"?>
<!DOCTYPE svg PUBLIC "-//W3C//DTD SVG 1.1//EN"
 "http://www.w3.org/Graphics/SVG/1.1/DTD/svg11.dtd">
<!-- Generated by graphviz version 2.40.1 (20161225.0304)
 -->
<!-- Title: Asteroids::Domain::Server::ServerFactory::init Pages: 1 -->
<svg width="288pt" height="50pt"
 viewBox="0.00 0.00 288.00 50.00" xmlns="http://www.w3.org/2000/svg" xmlns:xlink="http://www.w3.org/1999/xlink">
<g id="graph0" class="graph" transform="scale(1 1) rotate(0) translate(4 46)">
<title>Asteroids::Domain::Server::ServerFactory::init</title>
<polygon fill="#ffffff" stroke="transparent" points="-4,4 -4,-46 284,-46 284,4 -4,4"/>
<!-- Node10 -->
<g id="node1" class="node">
<title>Node10</title>
<polygon fill="#bfbfbf" stroke="#000000" points="0,-6 0,-36 131,-36 131,-6 0,-6"/>
<text text-anchor="start" x="8" y="-24" font-family="Helvetica,sans-Serif" font-size="10.00" fill="#000000">Asteroids::Domain::</text>
<text text-anchor="middle" x="65.5" y="-13" font-family="Helvetica,sans-Serif" font-size="10.00" fill="#000000">Server::ServerFactory::init</text>
</g>
<!-- Node11 -->
<g id="node2" class="node">
<title>Node11</title>
<g id="a_node2"><a xlink:href="classAsteroids_1_1Domain_1_1Server_1_1ServerFactory.html#a7de2a922987247b12190afb667d64fe4" target="_top" xlink:title="Asteroids::Domain::\lServer::ServerFactory\l::ServerFactory">
<polygon fill="#ffffff" stroke="#000000" points="167,-.5 167,-41.5 280,-41.5 280,-.5 167,-.5"/>
<text text-anchor="start" x="175" y="-29.5" font-family="Helvetica,sans-Serif" font-size="10.00" fill="#000000">Asteroids::Domain::</text>
<text text-anchor="start" x="175" y="-18.5" font-family="Helvetica,sans-Serif" font-size="10.00" fill="#000000">Server::ServerFactory</text>
<text text-anchor="middle" x="223.5" y="-7.5" font-family="Helvetica,sans-Serif" font-size="10.00" fill="#000000">::ServerFactory</text>
</a>
</g>
</g>
<!-- Node10&#45;&gt;Node11 -->
<g id="edge1" class="edge">
<title>Node10&#45;&gt;Node11</title>
<path fill="none" stroke="#191970" d="M141.2225,-21C149.8584,-21 158.5465,-21 166.8733,-21"/>
<polygon fill="#191970" stroke="#191970" points="141.1336,-17.5001 131.1336,-21 141.1336,-24.5001 141.1336,-17.5001"/>
</g>
</g>
</svg>
