<?xml version="1.0" encoding="UTF-8" standalone="no"?>
<!DOCTYPE svg PUBLIC "-//W3C//DTD SVG 1.1//EN"
 "http://www.w3.org/Graphics/SVG/1.1/DTD/svg11.dtd">
<!-- Generated by graphviz version 2.40.1 (20161225.0304)
 -->
<!-- Title: Asteroids::UI::ClientTextUI::ClientTextUI::main_menu_loop Pages: 1 -->
<!--zoomable 677 -->
<svg id="main" version="1.1" xmlns="http://www.w3.org/2000/svg" xmlns:xlink="http://www.w3.org/1999/xlink" xml:space="preserve" onload="init(evt)">
<style type="text/css"><![CDATA[
.edge:hover path { stroke: red; }
.edge:hover polygon { stroke: red; fill: red; }
]]></style>
<script type="text/javascript"><![CDATA[
var edges = document.getElementsByTagName('g');
if (edges && edges.length) {
  for (var i=0;i<edges.length;i++) {
    if (edges[i].id.substr(0,4)=='edge') {
      edges[i].setAttribute('class','edge');
    }
  }
}
]]></script>
        <defs>
                <circle id="rim" cx="0" cy="0" r="7"/>
                <circle id="rim2" cx="0" cy="0" r="3.5"/>
                <g id="zoomPlus">
                        <use xlink:href="#rim" fill="#404040">
                                <set attributeName="fill" to="#808080" begin="zoomplus.mouseover" end="zoomplus.mouseout"/>
                        </use>
                        <path d="M-4,0h8M0,-4v8" fill="none" stroke="white" stroke-width="1.5" pointer-events="none"/>
                </g>
                <g id="zoomMin">
                        <use xlink:href="#rim" fill="#404040">
                                <set attributeName="fill" to="#808080" begin="zoomminus.mouseover" end="zoomminus.mouseout"/>
                        </use>
                        <path d="M-4,0h8" fill="none" stroke="white" stroke-width="1.5" pointer-events="none"/>
                </g>
                <g id="dirArrow">
                        <path fill="none" stroke="white" stroke-width="1.5" d="M0,-3.0v7 M-2.5,-0.5L0,-3.0L2.5,-0.5"/>
                </g>
               <g id="resetDef">
                       <use xlink:href="#rim2" fill="#404040">
                               <set attributeName="fill" to="#808080" begin="reset.mouseover" end="reset.mouseout"/>
                       </use>
               </g>
        </defs>

<script type="text/javascript">
var viewWidth = 1444;
var viewHeight = 677;
var sectionId = 'dynsection-18';
</script>
<script xlink:href="svgpan.js"/>
<svg id="graph" class="graph">
<g id="viewport">
<title>Asteroids::UI::ClientTextUI::ClientTextUI::main_menu_loop</title>
<polygon fill="#ffffff" stroke="transparent" points="-4,4 -4,-672.7631 1440,-672.7631 1440,4 -4,4"/>
<!-- Node52 -->
<g id="node1" class="node">
<title>Node52</title>
<polygon fill="#bfbfbf" stroke="#000000" points="0,-403 0,-444 125,-444 125,-403 0,-403"/>
<text text-anchor="start" x="8" y="-432" font-family="Helvetica,sans-Serif" font-size="10.00" fill="#000000">Asteroids::UI::ClientText</text>
<text text-anchor="start" x="8" y="-421" font-family="Helvetica,sans-Serif" font-size="10.00" fill="#000000">UI::ClientTextUI::main</text>
<text text-anchor="middle" x="62.5" y="-410" font-family="Helvetica,sans-Serif" font-size="10.00" fill="#000000">_menu_loop</text>
</g>
<!-- Node53 -->
<g id="node2" class="node">
<title>Node53</title>
<g id="a_node2"><a xlink:href="classAsteroids_1_1UI_1_1ClientTextUI_1_1ClientTextUI.html#ac6ed983203b9d88a3a7d532eeceac524" target="_top" xlink:title="Asteroids::UI::ClientText\lUI::ClientTextUI::find\l_friends_on_social_media">
<polygon fill="#ffffff" stroke="#000000" points="327.5,-511 327.5,-552 456.5,-552 456.5,-511 327.5,-511"/>
<text text-anchor="start" x="335.5" y="-540" font-family="Helvetica,sans-Serif" font-size="10.00" fill="#000000">Asteroids::UI::ClientText</text>
<text text-anchor="start" x="335.5" y="-529" font-family="Helvetica,sans-Serif" font-size="10.00" fill="#000000">UI::ClientTextUI::find</text>
<text text-anchor="middle" x="392" y="-518" font-family="Helvetica,sans-Serif" font-size="10.00" fill="#000000">_friends_on_social_media</text>
</a>
</g>
</g>
<!-- Node52&#45;&gt;Node53 -->
<g id="edge1" class="edge">
<title>Node52&#45;&gt;Node53</title>
<path fill="none" stroke="#191970" d="M125.252,-444.0682C180.5879,-462.2056 261.2339,-488.6389 319.3508,-507.6878"/>
<polygon fill="#191970" stroke="#191970" points="318.609,-511.1278 329.2017,-510.9166 320.7893,-504.476 318.609,-511.1278"/>
</g>
<!-- Node54 -->
<g id="node3" class="node">
<title>Node54</title>
<g id="a_node3"><a xlink:href="classAsteroids_1_1UI_1_1ClientTextUI_1_1ClientTextUI.html#a41f904ea570af3e3a8c4d70da8411ef3" target="_top" xlink:title="Asteroids::UI::ClientText\lUI::ClientTextUI::print">
<polygon fill="#ffffff" stroke="#000000" points="1282.5,-272.5 1282.5,-302.5 1407.5,-302.5 1407.5,-272.5 1282.5,-272.5"/>
<text text-anchor="start" x="1290.5" y="-290.5" font-family="Helvetica,sans-Serif" font-size="10.00" fill="#000000">Asteroids::UI::ClientText</text>
<text text-anchor="middle" x="1345" y="-279.5" font-family="Helvetica,sans-Serif" font-size="10.00" fill="#000000">UI::ClientTextUI::print</text>
</a>
</g>
</g>
<!-- Node52&#45;&gt;Node54 -->
<g id="edge12" class="edge">
<title>Node52&#45;&gt;Node54</title>
<path fill="none" stroke="#191970" d="M77.7334,-444.1719C120.5245,-499.625 248.1226,-647.5 392,-647.5 392,-647.5 392,-647.5 928,-647.5 1057.1652,-647.5 1114.3856,-705.6214 1218,-628.5 1271.264,-588.855 1322.6849,-384.3972 1339.3761,-312.5224"/>
<polygon fill="#191970" stroke="#191970" points="1342.841,-313.0714 1341.6676,-302.5418 1336.0186,-311.505 1342.841,-313.0714"/>
</g>
<!-- Node55 -->
<g id="node4" class="node">
<title>Node55</title>
<g id="a_node4"><a xlink:href="classAsteroids_1_1UI_1_1ClientTextUI_1_1ClientTextUI.html#a9d9c6942f7cf39ddb177df02fbe3e742" target="_top" xlink:title="Asteroids::UI::ClientText\lUI::ClientTextUI::main_menu">
<polygon fill="#ffffff" stroke="#000000" points="498,-359.5 498,-389.5 643,-389.5 643,-359.5 498,-359.5"/>
<text text-anchor="start" x="506" y="-377.5" font-family="Helvetica,sans-Serif" font-size="10.00" fill="#000000">Asteroids::UI::ClientText</text>
<text text-anchor="middle" x="570.5" y="-366.5" font-family="Helvetica,sans-Serif" font-size="10.00" fill="#000000">UI::ClientTextUI::main_menu</text>
</a>
</g>
</g>
<!-- Node52&#45;&gt;Node55 -->
<g id="edge3" class="edge">
<title>Node52&#45;&gt;Node55</title>
<path fill="none" stroke="#191970" d="M125.0453,-417.4671C216.3225,-408.6628 386.1774,-392.2791 487.719,-382.4848"/>
<polygon fill="#191970" stroke="#191970" points="488.3155,-385.9436 497.9332,-381.4996 487.6434,-378.9759 488.3155,-385.9436"/>
</g>
<!-- Node56 -->
<g id="node5" class="node">
<title>Node56</title>
<g id="a_node5"><a xlink:href="classAsteroids_1_1UI_1_1ClientTextUI_1_1ClientTextUI.html#aa0cb16ae0f3edc7efed1ec8c5d7bf94d" target="_top" xlink:title="Asteroids::UI::ClientText\lUI::ClientTextUI::play_game">
<polygon fill="#ffffff" stroke="#000000" points="857,-435.5 857,-465.5 999,-465.5 999,-435.5 857,-435.5"/>
<text text-anchor="start" x="865" y="-453.5" font-family="Helvetica,sans-Serif" font-size="10.00" fill="#000000">Asteroids::UI::ClientText</text>
<text text-anchor="middle" x="928" y="-442.5" font-family="Helvetica,sans-Serif" font-size="10.00" fill="#000000">UI::ClientTextUI::play_game</text>
</a>
</g>
</g>
<!-- Node52&#45;&gt;Node56 -->
<g id="edge5" class="edge">
<title>Node52&#45;&gt;Node56</title>
<path fill="none" stroke="#191970" d="M125.0482,-425.3165C191.3213,-427.0824 299.0267,-429.5 392,-429.5 392,-429.5 392,-429.5 570.5,-429.5 665.5081,-429.5 774.4747,-436.9827 846.8824,-443.0149"/>
<polygon fill="#191970" stroke="#191970" points="846.5928,-446.5028 856.8515,-443.8555 847.181,-439.5275 846.5928,-446.5028"/>
</g>
<!-- Node61 -->
<g id="node10" class="node">
<title>Node61</title>
<g id="a_node10"><a xlink:href="classAsteroids_1_1UI_1_1ClientTextUI_1_1ClientTextUI.html#a27ec39f73edbb3688a3ebe67533abf5a" target="_top" xlink:title="Asteroids::UI::ClientText\lUI::ClientTextUI::review\l_game_history">
<polygon fill="#ffffff" stroke="#000000" points="865.5,-44 865.5,-85 990.5,-85 990.5,-44 865.5,-44"/>
<text text-anchor="start" x="873.5" y="-73" font-family="Helvetica,sans-Serif" font-size="10.00" fill="#000000">Asteroids::UI::ClientText</text>
<text text-anchor="start" x="873.5" y="-62" font-family="Helvetica,sans-Serif" font-size="10.00" fill="#000000">UI::ClientTextUI::review</text>
<text text-anchor="middle" x="928" y="-51" font-family="Helvetica,sans-Serif" font-size="10.00" fill="#000000">_game_history</text>
</a>
</g>
</g>
<!-- Node52&#45;&gt;Node61 -->
<g id="edge13" class="edge">
<title>Node52&#45;&gt;Node61</title>
<path fill="none" stroke="#191970" d="M64.6913,-402.9722C70.8865,-354.7659 92.7678,-233.1528 161,-163.5 238.4484,-84.4391 281.3253,-70.5 392,-70.5 392,-70.5 392,-70.5 570.5,-70.5 669.0097,-70.5 782.7666,-68.1943 855.0118,-66.4416"/>
<polygon fill="#191970" stroke="#191970" points="855.4519,-69.9319 865.363,-66.1873 855.28,-62.934 855.4519,-69.9319"/>
</g>
<!-- Node64 -->
<g id="node13" class="node">
<title>Node64</title>
<g id="a_node13"><a xlink:href="classAsteroids_1_1UI_1_1ClientTextUI_1_1ClientTextUI.html#ae228a731be242ef0cf88005c2c03acee" target="_top" xlink:title="Asteroids::UI::ClientText\lUI::ClientTextUI::store">
<polygon fill="#ffffff" stroke="#000000" points="161,-173.5 161,-203.5 286,-203.5 286,-173.5 161,-173.5"/>
<text text-anchor="start" x="169" y="-191.5" font-family="Helvetica,sans-Serif" font-size="10.00" fill="#000000">Asteroids::UI::ClientText</text>
<text text-anchor="middle" x="223.5" y="-180.5" font-family="Helvetica,sans-Serif" font-size="10.00" fill="#000000">UI::ClientTextUI::store</text>
</a>
</g>
</g>
<!-- Node52&#45;&gt;Node64 -->
<g id="edge18" class="edge">
<title>Node52&#45;&gt;Node64</title>
<path fill="none" stroke="#191970" d="M76.7877,-402.6453C106.7293,-358.9417 175.8824,-258.004 207.3651,-212.0509"/>
<polygon fill="#191970" stroke="#191970" points="210.3721,-213.8545 213.1366,-203.6266 204.5973,-209.8981 210.3721,-213.8545"/>
</g>
<!-- Node53&#45;&gt;Node54 -->
<g id="edge2" class="edge">
<title>Node53&#45;&gt;Node54</title>
<path fill="none" stroke="#191970" d="M456.5549,-539.5988C528.1487,-547.8682 647.1347,-559.5 750,-559.5 750,-559.5 750,-559.5 928,-559.5 1057.1652,-559.5 1110.3488,-611.8784 1218,-540.5 1298.8795,-486.8727 1330.5473,-365.4577 1340.8017,-312.7294"/>
<polygon fill="#191970" stroke="#191970" points="1344.3037,-313.0382 1342.6748,-302.5694 1337.4197,-311.769 1344.3037,-313.0382"/>
</g>
<!-- Node55&#45;&gt;Node54 -->
<g id="edge4" class="edge">
<title>Node55&#45;&gt;Node54</title>
<path fill="none" stroke="#191970" d="M643.3973,-367.2282C763.3388,-355.1269 1009.7763,-329.6874 1218,-304.5 1235.538,-302.3785 1254.4164,-299.9374 1272.1158,-297.579"/>
<polygon fill="#191970" stroke="#191970" points="1272.9354,-301.0005 1282.3817,-296.203 1272.0054,-294.0625 1272.9354,-301.0005"/>
</g>
<!-- Node56&#45;&gt;Node54 -->
<g id="edge7" class="edge">
<title>Node56&#45;&gt;Node54</title>
<path fill="none" stroke="#191970" d="M979.8543,-435.4822C997.33,-430.5489 1016.9709,-425.1434 1035,-420.5 1115.9082,-399.6622 1141.8377,-411.846 1218,-377.5 1256.9536,-359.9336 1296.2393,-329.7307 1320.5851,-309.2039"/>
<polygon fill="#191970" stroke="#191970" points="1322.9257,-311.8076 1328.2467,-302.6458 1318.3737,-306.4897 1322.9257,-311.8076"/>
</g>
<!-- Node57 -->
<g id="node6" class="node">
<title>Node57</title>
<g id="a_node6"><a xlink:href="classAsteroids_1_1UI_1_1ClientTextUI_1_1ClientTextUI.html#a681a6bfc7d4438a4eb3cc146c9117125" target="_top" xlink:title="Asteroids::UI::ClientText\lUI::ClientTextUI::initialize\l_display_grid">
<polygon fill="#ffffff" stroke="#000000" points="1061.5,-490 1061.5,-531 1191.5,-531 1191.5,-490 1061.5,-490"/>
<text text-anchor="start" x="1069.5" y="-519" font-family="Helvetica,sans-Serif" font-size="10.00" fill="#000000">Asteroids::UI::ClientText</text>
<text text-anchor="start" x="1069.5" y="-508" font-family="Helvetica,sans-Serif" font-size="10.00" fill="#000000">UI::ClientTextUI::initialize</text>
<text text-anchor="middle" x="1126.5" y="-497" font-family="Helvetica,sans-Serif" font-size="10.00" fill="#000000">_display_grid</text>
</a>
</g>
</g>
<!-- Node56&#45;&gt;Node57 -->
<g id="edge6" class="edge">
<title>Node56&#45;&gt;Node57</title>
<path fill="none" stroke="#191970" d="M977.8337,-465.5631C1000.1383,-472.305 1026.9134,-480.3982 1051.5577,-487.8474"/>
<polygon fill="#191970" stroke="#191970" points="1050.6588,-491.232 1061.2438,-490.7752 1052.6842,-484.5315 1050.6588,-491.232"/>
</g>
<!-- Node58 -->
<g id="node7" class="node">
<title>Node58</title>
<g id="a_node7"><a xlink:href="classAsteroids_1_1UI_1_1ClientTextUI_1_1ClientTextUI.html#aaea5f1fccb9aa46a331b15ad2274b319" target="_top" xlink:title="Asteroids::UI::ClientText\lUI::ClientTextUI::handle\l_game_input">
<polygon fill="#ffffff" stroke="#000000" points="1064,-430 1064,-471 1189,-471 1189,-430 1064,-430"/>
<text text-anchor="start" x="1072" y="-459" font-family="Helvetica,sans-Serif" font-size="10.00" fill="#000000">Asteroids::UI::ClientText</text>
<text text-anchor="start" x="1072" y="-448" font-family="Helvetica,sans-Serif" font-size="10.00" fill="#000000">UI::ClientTextUI::handle</text>
<text text-anchor="middle" x="1126.5" y="-437" font-family="Helvetica,sans-Serif" font-size="10.00" fill="#000000">_game_input</text>
</a>
</g>
</g>
<!-- Node56&#45;&gt;Node58 -->
<g id="edge8" class="edge">
<title>Node56&#45;&gt;Node58</title>
<path fill="none" stroke="#191970" d="M999.1024,-450.5C1016.7712,-450.5 1035.7375,-450.5 1053.496,-450.5"/>
<polygon fill="#191970" stroke="#191970" points="1053.7935,-454.0001 1063.7934,-450.5 1053.7934,-447.0001 1053.7935,-454.0001"/>
</g>
<!-- Node59 -->
<g id="node8" class="node">
<title>Node59</title>
<g id="a_node8"><a xlink:href="classAsteroids_1_1UI_1_1ClientTextUI_1_1ClientTextUI.html#a68028ff6a5b6d38321496c83ff872158" target="_top" xlink:title="Asteroids::UI::ClientText\lUI::ClientTextUI::draw_game">
<polygon fill="#ffffff" stroke="#000000" points="1054,-588.5 1054,-618.5 1199,-618.5 1199,-588.5 1054,-588.5"/>
<text text-anchor="start" x="1062" y="-606.5" font-family="Helvetica,sans-Serif" font-size="10.00" fill="#000000">Asteroids::UI::ClientText</text>
<text text-anchor="middle" x="1126.5" y="-595.5" font-family="Helvetica,sans-Serif" font-size="10.00" fill="#000000">UI::ClientTextUI::draw_game</text>
</a>
</g>
</g>
<!-- Node56&#45;&gt;Node59 -->
<g id="edge10" class="edge">
<title>Node56&#45;&gt;Node59</title>
<path fill="none" stroke="#191970" d="M945.0006,-465.6786C965.7628,-484.0075 1002.1778,-515.4888 1035,-540.5 1054.3792,-555.2673 1076.9137,-570.8015 1094.7703,-582.7496"/>
<polygon fill="#191970" stroke="#191970" points="1092.8615,-585.6835 1103.1261,-588.3079 1096.7385,-579.8552 1092.8615,-585.6835"/>
</g>
<!-- Node58&#45;&gt;Node54 -->
<g id="edge9" class="edge">
<title>Node58&#45;&gt;Node54</title>
<path fill="none" stroke="#191970" d="M1189.2762,-430.5798C1199.2413,-426.2758 1209.1642,-421.2553 1218,-415.5 1262.9283,-386.2355 1304.5882,-338.8315 1327.241,-310.6614"/>
<polygon fill="#191970" stroke="#191970" points="1330.1783,-312.5899 1333.6436,-302.5778 1324.691,-308.2437 1330.1783,-312.5899"/>
</g>
<!-- Node60 -->
<g id="node9" class="node">
<title>Node60</title>
<g id="a_node9"><a xlink:href="classAsteroids_1_1UI_1_1ClientTextUI_1_1ClientTextUI.html#a6157c8167618db7195c35479096620ec" target="_top" xlink:title="Asteroids::UI::ClientText\lUI::ClientTextUI::draw_actor">
<polygon fill="#ffffff" stroke="#000000" points="1273.5,-588.5 1273.5,-618.5 1416.5,-618.5 1416.5,-588.5 1273.5,-588.5"/>
<text text-anchor="start" x="1281.5" y="-606.5" font-family="Helvetica,sans-Serif" font-size="10.00" fill="#000000">Asteroids::UI::ClientText</text>
<text text-anchor="middle" x="1345" y="-595.5" font-family="Helvetica,sans-Serif" font-size="10.00" fill="#000000">UI::ClientTextUI::draw_actor</text>
</a>
</g>
</g>
<!-- Node59&#45;&gt;Node60 -->
<g id="edge11" class="edge">
<title>Node59&#45;&gt;Node60</title>
<path fill="none" stroke="#191970" d="M1199.2573,-603.5C1219.7411,-603.5 1242.1586,-603.5 1263.1361,-603.5"/>
<polygon fill="#191970" stroke="#191970" points="1263.3037,-607.0001 1273.3036,-603.5 1263.3036,-600.0001 1263.3037,-607.0001"/>
</g>
<!-- Node61&#45;&gt;Node54 -->
<g id="edge14" class="edge">
<title>Node61&#45;&gt;Node54</title>
<path fill="none" stroke="#191970" d="M990.5464,-57.729C1052.7873,-54.1033 1148.7581,-57.2002 1218,-99.5 1281.1912,-138.1034 1320.062,-221.397 1336.2538,-262.9235"/>
<polygon fill="#191970" stroke="#191970" points="1332.9867,-264.1793 1339.7973,-272.2951 1339.5343,-261.7035 1332.9867,-264.1793"/>
</g>
<!-- Node62 -->
<g id="node11" class="node">
<title>Node62</title>
<g id="a_node11"><a xlink:href="classAsteroids_1_1UI_1_1ClientTextUI_1_1ClientTextUI.html#ab0a3f9e22046b77a85dc7771d3502365" target="_top" xlink:title="Asteroids::UI::ClientText\lUI::ClientTextUI::share\l_game_history_entry_to_social_media">
<polygon fill="#ffffff" stroke="#000000" points="1035,-6 1035,-47 1218,-47 1218,-6 1035,-6"/>
<text text-anchor="start" x="1043" y="-35" font-family="Helvetica,sans-Serif" font-size="10.00" fill="#000000">Asteroids::UI::ClientText</text>
<text text-anchor="start" x="1043" y="-24" font-family="Helvetica,sans-Serif" font-size="10.00" fill="#000000">UI::ClientTextUI::share</text>
<text text-anchor="middle" x="1126.5" y="-13" font-family="Helvetica,sans-Serif" font-size="10.00" fill="#000000">_game_history_entry_to_social_media</text>
</a>
</g>
</g>
<!-- Node61&#45;&gt;Node62 -->
<g id="edge15" class="edge">
<title>Node61&#45;&gt;Node62</title>
<path fill="none" stroke="#191970" d="M990.5342,-52.5287C1001.5432,-50.4212 1013.2537,-48.1794 1025.0063,-45.9295"/>
<polygon fill="#191970" stroke="#191970" points="1025.7103,-49.3584 1034.8738,-44.0405 1024.394,-42.4833 1025.7103,-49.3584"/>
</g>
<!-- Node62&#45;&gt;Node54 -->
<g id="edge16" class="edge">
<title>Node62&#45;&gt;Node54</title>
<path fill="none" stroke="#191970" d="M1196.3868,-47.2221C1204.1492,-51.2222 1211.5625,-55.9434 1218,-61.5 1283.2708,-117.8391 1321.9742,-216.4213 1337.3203,-262.4702"/>
<polygon fill="#191970" stroke="#191970" points="1334.0706,-263.7959 1340.4827,-272.2301 1340.7297,-261.6381 1334.0706,-263.7959"/>
</g>
<!-- Node63 -->
<g id="node12" class="node">
<title>Node63</title>
<g id="a_node12"><a xlink:href="classAsteroids_1_1Domain_1_1Net_1_1ClientServerCommunicatorInterface.html#a99c8f2baa739330f44096da950a1d145" target="_top" xlink:title="Asteroids::Domain::\lNet::ClientServerCommunicator\lInterface::notifyServerOfGameHistory\lEntrySocialMediaShare">
<polygon fill="#ffffff" stroke="#000000" points="1254,-.5 1254,-52.5 1436,-52.5 1436,-.5 1254,-.5"/>
<text text-anchor="start" x="1262" y="-40.5" font-family="Helvetica,sans-Serif" font-size="10.00" fill="#000000">Asteroids::Domain::</text>
<text text-anchor="start" x="1262" y="-29.5" font-family="Helvetica,sans-Serif" font-size="10.00" fill="#000000">Net::ClientServerCommunicator</text>
<text text-anchor="start" x="1262" y="-18.5" font-family="Helvetica,sans-Serif" font-size="10.00" fill="#000000">Interface::notifyServerOfGameHistory</text>
<text text-anchor="middle" x="1345" y="-7.5" font-family="Helvetica,sans-Serif" font-size="10.00" fill="#000000">EntrySocialMediaShare</text>
</a>
</g>
</g>
<!-- Node62&#45;&gt;Node63 -->
<g id="edge17" class="edge">
<title>Node62&#45;&gt;Node63</title>
<path fill="none" stroke="#191970" d="M1218.214,-26.5C1226.6919,-26.5 1235.3146,-26.5 1243.8705,-26.5"/>
<polygon fill="#191970" stroke="#191970" points="1243.871,-30.0001 1253.871,-26.5 1243.8709,-23.0001 1243.871,-30.0001"/>
</g>
<!-- Node64&#45;&gt;Node54 -->
<g id="edge19" class="edge">
<title>Node64&#45;&gt;Node54</title>
<path fill="none" stroke="#191970" d="M265.3357,-173.4129C329.9125,-151.5116 458.1718,-113.5 570.5,-113.5 570.5,-113.5 570.5,-113.5 928,-113.5 1057.6232,-113.5 1102.7591,-85.1561 1218,-144.5 1270.6165,-171.5952 1311.5302,-230.2828 1331.5302,-263.4348"/>
<polygon fill="#191970" stroke="#191970" points="1328.5192,-265.2192 1336.609,-272.0607 1334.5513,-261.6676 1328.5192,-265.2192"/>
</g>
<!-- Node65 -->
<g id="node14" class="node">
<title>Node65</title>
<g id="a_node14"><a xlink:href="classAsteroids_1_1UI_1_1ClientTextUI_1_1ClientTextUI.html#a66aab545b0cd59af6bec829a1b82be89" target="_top" xlink:title="Asteroids::UI::ClientText\lUI::ClientTextUI::store_loop">
<polygon fill="#ffffff" stroke="#000000" points="322,-173.5 322,-203.5 462,-203.5 462,-173.5 322,-173.5"/>
<text text-anchor="start" x="330" y="-191.5" font-family="Helvetica,sans-Serif" font-size="10.00" fill="#000000">Asteroids::UI::ClientText</text>
<text text-anchor="middle" x="392" y="-180.5" font-family="Helvetica,sans-Serif" font-size="10.00" fill="#000000">UI::ClientTextUI::store_loop</text>
</a>
</g>
</g>
<!-- Node64&#45;&gt;Node65 -->
<g id="edge20" class="edge">
<title>Node64&#45;&gt;Node65</title>
<path fill="none" stroke="#191970" d="M286.2432,-188.5C294.5824,-188.5 303.223,-188.5 311.8073,-188.5"/>
<polygon fill="#191970" stroke="#191970" points="311.8372,-192.0001 321.8371,-188.5 311.8371,-185.0001 311.8372,-192.0001"/>
</g>
<!-- Node65&#45;&gt;Node54 -->
<g id="edge21" class="edge">
<title>Node65&#45;&gt;Node54</title>
<path fill="none" stroke="#191970" d="M462.0861,-176.9452C534.0986,-166.0889 649.5572,-151.5 750,-151.5 750,-151.5 750,-151.5 928,-151.5 1057.6232,-151.5 1098.5422,-132.1809 1218,-182.5 1262.0119,-201.0391 1302.627,-240.0476 1325.5609,-264.9468"/>
<polygon fill="#191970" stroke="#191970" points="1323.0702,-267.411 1332.3675,-272.4914 1328.2676,-262.722 1323.0702,-267.411"/>
</g>
<!-- Node66 -->
<g id="node15" class="node">
<title>Node66</title>
<g id="a_node15"><a xlink:href="classAsteroids_1_1UI_1_1ClientTextUI_1_1ClientTextUI.html#a9175792a129c214f55dd0bda9ac36b33" target="_top" xlink:title="Asteroids::UI::ClientText\lUI::ClientTextUI::store\l_offer_available_items">
<polygon fill="#ffffff" stroke="#000000" points="508,-199 508,-240 633,-240 633,-199 508,-199"/>
<text text-anchor="start" x="516" y="-228" font-family="Helvetica,sans-Serif" font-size="10.00" fill="#000000">Asteroids::UI::ClientText</text>
<text text-anchor="start" x="516" y="-217" font-family="Helvetica,sans-Serif" font-size="10.00" fill="#000000">UI::ClientTextUI::store</text>
<text text-anchor="middle" x="570.5" y="-206" font-family="Helvetica,sans-Serif" font-size="10.00" fill="#000000">_offer_available_items</text>
</a>
</g>
</g>
<!-- Node65&#45;&gt;Node66 -->
<g id="edge22" class="edge">
<title>Node65&#45;&gt;Node66</title>
<path fill="none" stroke="#191970" d="M462.0356,-200.663C473.863,-202.7171 486.163,-204.8532 498.0505,-206.9177"/>
<polygon fill="#191970" stroke="#191970" points="497.4681,-210.3689 507.9195,-208.6317 498.6659,-203.4721 497.4681,-210.3689"/>
</g>
<!-- Node66&#45;&gt;Node54 -->
<g id="edge23" class="edge">
<title>Node66&#45;&gt;Node54</title>
<path fill="none" stroke="#191970" d="M633.2179,-238.6185C648.1192,-242.6654 664.0367,-246.5879 679,-249.5 914.8233,-295.3943 977.7691,-293.337 1218,-290.5 1235.5134,-290.2932 1254.3824,-289.926 1272.0806,-289.5178"/>
<polygon fill="#191970" stroke="#191970" points="1272.4328,-293.0105 1282.3467,-289.2737 1272.2663,-286.0125 1272.4328,-293.0105"/>
</g>
<!-- Node67 -->
<g id="node16" class="node">
<title>Node67</title>
<g id="a_node16"><a xlink:href="classAsteroids_1_1UI_1_1ClientTextUI_1_1ClientTextUI.html#a469a7cd3423794fa0ca7c34d95db5a10" target="_top" xlink:title="Asteroids::UI::ClientText\lUI::ClientTextUI::purchasing\l_store_item">
<polygon fill="#ffffff" stroke="#000000" points="679,-199 679,-240 821,-240 821,-199 679,-199"/>
<text text-anchor="start" x="687" y="-228" font-family="Helvetica,sans-Serif" font-size="10.00" fill="#000000">Asteroids::UI::ClientText</text>
<text text-anchor="start" x="687" y="-217" font-family="Helvetica,sans-Serif" font-size="10.00" fill="#000000">UI::ClientTextUI::purchasing</text>
<text text-anchor="middle" x="750" y="-206" font-family="Helvetica,sans-Serif" font-size="10.00" fill="#000000">_store_item</text>
</a>
</g>
</g>
<!-- Node66&#45;&gt;Node67 -->
<g id="edge24" class="edge">
<title>Node66&#45;&gt;Node67</title>
<path fill="none" stroke="#191970" d="M633.0284,-219.5C644.5691,-219.5 656.7731,-219.5 668.7721,-219.5"/>
<polygon fill="#191970" stroke="#191970" points="668.784,-223.0001 678.7839,-219.5 668.7839,-216.0001 668.784,-223.0001"/>
</g>
<!-- Node67&#45;&gt;Node54 -->
<g id="edge25" class="edge">
<title>Node67&#45;&gt;Node54</title>
<path fill="none" stroke="#191970" d="M821.035,-204.9517C914.2055,-188.7541 1081.8292,-169.6033 1218,-208.5 1256.8618,-219.6007 1295.4151,-246.4066 1319.6692,-265.7165"/>
<polygon fill="#191970" stroke="#191970" points="1317.6639,-268.5972 1327.6289,-272.196 1322.0832,-263.1684 1317.6639,-268.5972"/>
</g>
<!-- Node68 -->
<g id="node17" class="node">
<title>Node68</title>
<g id="a_node17"><a xlink:href="classAsteroids_1_1UI_1_1ClientTextUI_1_1ClientTextUI.html#a4613a9af03e06c960c467b0b6be44db9" target="_top" xlink:title="Asteroids::UI::ClientText\lUI::ClientTextUI::pay_for\l_store_item">
<polygon fill="#ffffff" stroke="#000000" points="864.5,-218 864.5,-259 991.5,-259 991.5,-218 864.5,-218"/>
<text text-anchor="start" x="872.5" y="-247" font-family="Helvetica,sans-Serif" font-size="10.00" fill="#000000">Asteroids::UI::ClientText</text>
<text text-anchor="start" x="872.5" y="-236" font-family="Helvetica,sans-Serif" font-size="10.00" fill="#000000">UI::ClientTextUI::pay_for</text>
<text text-anchor="middle" x="928" y="-225" font-family="Helvetica,sans-Serif" font-size="10.00" fill="#000000">_store_item</text>
</a>
</g>
</g>
<!-- Node67&#45;&gt;Node68 -->
<g id="edge26" class="edge">
<title>Node67&#45;&gt;Node68</title>
<path fill="none" stroke="#191970" d="M821.1177,-227.0912C832.0904,-228.2625 843.4414,-229.4741 854.4657,-230.6508"/>
<polygon fill="#191970" stroke="#191970" points="854.163,-234.1383 864.478,-231.7196 854.906,-227.1779 854.163,-234.1383"/>
</g>
<!-- Node68&#45;&gt;Node54 -->
<g id="edge27" class="edge">
<title>Node68&#45;&gt;Node54</title>
<path fill="none" stroke="#191970" d="M991.7171,-258.7478C1005.8421,-262.5658 1020.8276,-266.1068 1035,-268.5 1115.3305,-282.0648 1208.8212,-286.2362 1271.9569,-287.3769"/>
<polygon fill="#191970" stroke="#191970" points="1272.1569,-290.8805 1282.2114,-287.5404 1272.2685,-283.8814 1272.1569,-290.8805"/>
</g>
<!-- Node69 -->
<g id="node18" class="node">
<title>Node69</title>
<g id="a_node18"><a xlink:href="classAsteroids_1_1UI_1_1ClientTextUI_1_1ClientTextUI.html#a02d420d49c44459fe7a2af9b0000adf9" target="_top" xlink:title="Asteroids::UI::ClientText\lUI::ClientTextUI::pay_for\l_store_item_with_credit_card">
<polygon fill="#ffffff" stroke="#000000" points="1054.5,-218 1054.5,-259 1198.5,-259 1198.5,-218 1054.5,-218"/>
<text text-anchor="start" x="1062.5" y="-247" font-family="Helvetica,sans-Serif" font-size="10.00" fill="#000000">Asteroids::UI::ClientText</text>
<text text-anchor="start" x="1062.5" y="-236" font-family="Helvetica,sans-Serif" font-size="10.00" fill="#000000">UI::ClientTextUI::pay_for</text>
<text text-anchor="middle" x="1126.5" y="-225" font-family="Helvetica,sans-Serif" font-size="10.00" fill="#000000">_store_item_with_credit_card</text>
</a>
</g>
</g>
<!-- Node68&#45;&gt;Node69 -->
<g id="edge28" class="edge">
<title>Node68&#45;&gt;Node69</title>
<path fill="none" stroke="#191970" d="M991.6257,-238.5C1008.3096,-238.5 1026.542,-238.5 1044.0553,-238.5"/>
<polygon fill="#191970" stroke="#191970" points="1044.2667,-242.0001 1054.2666,-238.5 1044.2666,-235.0001 1044.2667,-242.0001"/>
</g>
<!-- Node69&#45;&gt;Node54 -->
<g id="edge29" class="edge">
<title>Node69&#45;&gt;Node54</title>
<path fill="none" stroke="#191970" d="M1198.6506,-254.6802C1222.3618,-259.9976 1248.7187,-265.9083 1272.4588,-271.2322"/>
<polygon fill="#191970" stroke="#191970" points="1271.934,-274.7013 1282.4575,-273.4745 1273.4658,-267.871 1271.934,-274.7013"/>
</g>
</g>
</svg>
        <g id="navigator" transform="translate(0 0)" fill="#404254">
                <rect fill="#f2f5e9" fill-opacity="0.5" stroke="#606060" stroke-width=".5" x="0" y="0" width="60" height="60"/>
                <use id="zoomplus" xlink:href="#zoomPlus" x="17" y="9" onmousedown="handleZoom(evt,'in')"/>
                <use id="zoomminus" xlink:href="#zoomMin" x="42" y="9" onmousedown="handleZoom(evt,'out')"/>
                <use id="reset" xlink:href="#resetDef" x="30" y="36" onmousedown="handleReset()"/>
                <g id="arrowUp" xlink:href="#dirArrow" transform="translate(30 24)" onmousedown="handlePan(0,-1)">
                  <use xlink:href="#rim" fill="#404040">
                        <set attributeName="fill" to="#808080" begin="arrowUp.mouseover" end="arrowUp.mouseout"/>
                  </use>
                  <path fill="none" stroke="white" stroke-width="1.5" d="M0,-3.0v7 M-2.5,-0.5L0,-3.0L2.5,-0.5"/>
                </g>
                <g id="arrowRight" xlink:href="#dirArrow" transform="rotate(90) translate(36 -43)" onmousedown="handlePan(1,0)">
                  <use xlink:href="#rim" fill="#404040">
                        <set attributeName="fill" to="#808080" begin="arrowRight.mouseover" end="arrowRight.mouseout"/>
                  </use>
                  <path fill="none" stroke="white" stroke-width="1.5" d="M0,-3.0v7 M-2.5,-0.5L0,-3.0L2.5,-0.5"/>
                </g>
                <g id="arrowDown" xlink:href="#dirArrow" transform="rotate(180) translate(-30 -48)" onmousedown="handlePan(0,1)">
                  <use xlink:href="#rim" fill="#404040">
                        <set attributeName="fill" to="#808080" begin="arrowDown.mouseover" end="arrowDown.mouseout"/>
                  </use>
                  <path fill="none" stroke="white" stroke-width="1.5" d="M0,-3.0v7 M-2.5,-0.5L0,-3.0L2.5,-0.5"/>
                </g>
                <g id="arrowLeft" xlink:href="#dirArrow" transform="rotate(270) translate(-36 17)" onmousedown="handlePan(-1,0)">
                  <use xlink:href="#rim" fill="#404040">
                        <set attributeName="fill" to="#808080" begin="arrowLeft.mouseover" end="arrowLeft.mouseout"/>
                  </use>
                  <path fill="none" stroke="white" stroke-width="1.5" d="M0,-3.0v7 M-2.5,-0.5L0,-3.0L2.5,-0.5"/>
                </g>
        </g>
        <svg viewBox="0 0 15 15" width="100%" height="30px" preserveAspectRatio="xMaxYMin meet">
         <g id="arrow_out" transform="scale(0.3 0.3)">
          <a xlink:href="classAsteroids_1_1UI_1_1ClientTextUI_1_1ClientTextUI_a67521714973f97f76618f9598d34d3b8_cgraph_org.svg" target="_base">
           <rect id="button" ry="5" rx="5" y="6" x="6" height="38" width="38"
                fill="#f2f5e9" fill-opacity="0.5" stroke="#606060" stroke-width="1.0"/>
           <path id="arrow"
             d="M 11.500037,31.436501 C 11.940474,20.09759 22.043105,11.32322 32.158766,21.979434 L 37.068811,17.246167 C 37.068811,17.246167 37.088388,32 37.088388,32 L 22.160133,31.978069 C 22.160133,31.978069 26.997745,27.140456 26.997745,27.140456 C 18.528582,18.264221 13.291696,25.230495 11.500037,31.436501 z"
             style="fill:#404040;"/>
          </a>
         </g>
        </svg>
</svg>
