<?xml version="1.0" encoding="UTF-8" standalone="no"?>
<!DOCTYPE svg PUBLIC "-//W3C//DTD SVG 1.1//EN"
 "http://www.w3.org/Graphics/SVG/1.1/DTD/svg11.dtd">
<!-- Generated by graphviz version 2.40.1 (20161225.0304)
 -->
<!-- Title: Asteroids::UI::ClientTextUI::DisplayGrid::clear Pages: 1 -->
<svg width="658pt" height="100pt"
 viewBox="0.00 0.00 658.00 99.50" xmlns="http://www.w3.org/2000/svg" xmlns:xlink="http://www.w3.org/1999/xlink">
<g id="graph0" class="graph" transform="scale(1 1) rotate(0) translate(4 95.5)">
<title>Asteroids::UI::ClientTextUI::DisplayGrid::clear</title>
<polygon fill="#ffffff" stroke="transparent" points="-4,4 -4,-95.5 654,-95.5 654,4 -4,4"/>
<!-- Node25 -->
<g id="node1" class="node">
<title>Node25</title>
<polygon fill="#bfbfbf" stroke="#000000" points="0,-27.5 0,-57.5 125,-57.5 125,-27.5 0,-27.5"/>
<text text-anchor="start" x="8" y="-45.5" font-family="Helvetica,sans-Serif" font-size="10.00" fill="#000000">Asteroids::UI::ClientText</text>
<text text-anchor="middle" x="62.5" y="-34.5" font-family="Helvetica,sans-Serif" font-size="10.00" fill="#000000">UI::DisplayGrid::clear</text>
</g>
<!-- Node26 -->
<g id="node2" class="node">
<title>Node26</title>
<g id="a_node2"><a xlink:href="classAsteroids_1_1UI_1_1ClientTextUI_1_1DisplayGrid.html#a8c7048980c9b3443b5cfa20dd16c6935" target="_top" xlink:title="Asteroids::UI::ClientText\lUI::DisplayGrid::add_border">
<polygon fill="#ffffff" stroke="#000000" points="161,-27.5 161,-57.5 299,-57.5 299,-27.5 161,-27.5"/>
<text text-anchor="start" x="169" y="-45.5" font-family="Helvetica,sans-Serif" font-size="10.00" fill="#000000">Asteroids::UI::ClientText</text>
<text text-anchor="middle" x="230" y="-34.5" font-family="Helvetica,sans-Serif" font-size="10.00" fill="#000000">UI::DisplayGrid::add_border</text>
</a>
</g>
</g>
<!-- Node25&#45;&gt;Node26 -->
<g id="edge1" class="edge">
<title>Node25&#45;&gt;Node26</title>
<path fill="none" stroke="#191970" d="M125.3474,-42.5C133.6875,-42.5 142.3232,-42.5 150.8937,-42.5"/>
<polygon fill="#191970" stroke="#191970" points="150.9034,-46.0001 160.9033,-42.5 150.9033,-39.0001 150.9034,-46.0001"/>
</g>
<!-- Node27 -->
<g id="node3" class="node">
<title>Node27</title>
<g id="a_node3"><a xlink:href="classAsteroids_1_1UI_1_1ClientTextUI_1_1DisplayGrid.html#a3f77a0874f78d753020e8ba12081bd85" target="_top" xlink:title="Asteroids::UI::ClientText\lUI::DisplayGrid::set_pixel">
<polygon fill="#ffffff" stroke="#000000" points="335,-27.5 335,-57.5 464,-57.5 464,-27.5 335,-27.5"/>
<text text-anchor="start" x="343" y="-45.5" font-family="Helvetica,sans-Serif" font-size="10.00" fill="#000000">Asteroids::UI::ClientText</text>
<text text-anchor="middle" x="399.5" y="-34.5" font-family="Helvetica,sans-Serif" font-size="10.00" fill="#000000">UI::DisplayGrid::set_pixel</text>
</a>
</g>
</g>
<!-- Node26&#45;&gt;Node27 -->
<g id="edge2" class="edge">
<title>Node26&#45;&gt;Node27</title>
<path fill="none" stroke="#191970" d="M299.4312,-42.5C307.7509,-42.5 316.2743,-42.5 324.6663,-42.5"/>
<polygon fill="#191970" stroke="#191970" points="324.8148,-46.0001 334.8148,-42.5 324.8148,-39.0001 324.8148,-46.0001"/>
</g>
<!-- Node28 -->
<g id="node4" class="node">
<title>Node28</title>
<g id="a_node4"><a xlink:href="classAsteroids_1_1UI_1_1ClientTextUI_1_1DisplayGrid.html#ae831e34de9c3fe439b09ed2543e30dee" target="_top" xlink:title="Asteroids::UI::ClientText\lUI::DisplayGrid::translate\l_source_point">
<polygon fill="#ffffff" stroke="#000000" points="511,-50 511,-91 639,-91 639,-50 511,-50"/>
<text text-anchor="start" x="519" y="-79" font-family="Helvetica,sans-Serif" font-size="10.00" fill="#000000">Asteroids::UI::ClientText</text>
<text text-anchor="start" x="519" y="-68" font-family="Helvetica,sans-Serif" font-size="10.00" fill="#000000">UI::DisplayGrid::translate</text>
<text text-anchor="middle" x="575" y="-57" font-family="Helvetica,sans-Serif" font-size="10.00" fill="#000000">_source_point</text>
</a>
</g>
</g>
<!-- Node27&#45;&gt;Node28 -->
<g id="edge3" class="edge">
<title>Node27&#45;&gt;Node28</title>
<path fill="none" stroke="#191970" d="M464.3511,-52.8466C476.1751,-54.7331 488.5955,-56.7147 500.6688,-58.6409"/>
<polygon fill="#191970" stroke="#191970" points="500.2815,-62.1233 510.708,-60.2426 501.3844,-55.2107 500.2815,-62.1233"/>
</g>
<!-- Node29 -->
<g id="node5" class="node">
<title>Node29</title>
<g id="a_node5"><a xlink:href="classAsteroids_1_1UI_1_1ClientTextUI_1_1DisplayGrid.html#acd82bd351302d1423b4e30f3312f7398" target="_top" xlink:title="Asteroids::UI::ClientText\lUI::DisplayGrid::set_grid_pixel">
<polygon fill="#ffffff" stroke="#000000" points="500,-.5 500,-30.5 650,-30.5 650,-.5 500,-.5"/>
<text text-anchor="start" x="508" y="-18.5" font-family="Helvetica,sans-Serif" font-size="10.00" fill="#000000">Asteroids::UI::ClientText</text>
<text text-anchor="middle" x="575" y="-7.5" font-family="Helvetica,sans-Serif" font-size="10.00" fill="#000000">UI::DisplayGrid::set_grid_pixel</text>
</a>
</g>
</g>
<!-- Node27&#45;&gt;Node29 -->
<g id="edge4" class="edge">
<title>Node27&#45;&gt;Node29</title>
<path fill="none" stroke="#191970" d="M464.3511,-32.5229C472.6325,-31.2488 481.2064,-29.9298 489.7488,-28.6156"/>
<polygon fill="#191970" stroke="#191970" points="490.3913,-32.058 499.7428,-27.078 489.3268,-25.1394 490.3913,-32.058"/>
</g>
</g>
</svg>
