<?xml version="1.0" encoding="UTF-8" standalone="no"?>
<!DOCTYPE svg PUBLIC "-//W3C//DTD SVG 1.1//EN"
 "http://www.w3.org/Graphics/SVG/1.1/DTD/svg11.dtd">
<!-- Generated by graphviz version 2.40.1 (20161225.0304)
 -->
<!-- Title: Asteroids::Domain::Net::Messages::AUTH_STATE::AUTH_STATE Pages: 1 -->
<svg width="465pt" height="50pt"
 viewBox="0.00 0.00 465.00 50.00" xmlns="http://www.w3.org/2000/svg" xmlns:xlink="http://www.w3.org/1999/xlink">
<g id="graph0" class="graph" transform="scale(1 1) rotate(0) translate(4 46)">
<title>Asteroids::Domain::Net::Messages::AUTH_STATE::AUTH_STATE</title>
<polygon fill="#ffffff" stroke="transparent" points="-4,4 -4,-46 461,-46 461,4 -4,4"/>
<!-- Node0 -->
<g id="node1" class="node">
<title>Node0</title>
<polygon fill="#bfbfbf" stroke="#000000" points="0,-.5 0,-41.5 125,-41.5 125,-.5 0,-.5"/>
<text text-anchor="start" x="8" y="-29.5" font-family="Helvetica,sans-Serif" font-size="10.00" fill="#000000">Asteroids::Domain::</text>
<text text-anchor="start" x="8" y="-18.5" font-family="Helvetica,sans-Serif" font-size="10.00" fill="#000000">Net::Messages::AUTH</text>
<text text-anchor="middle" x="62.5" y="-7.5" font-family="Helvetica,sans-Serif" font-size="10.00" fill="#000000">_STATE::AUTH_STATE</text>
</g>
<!-- Node1 -->
<g id="node2" class="node">
<title>Node1</title>
<g id="a_node2"><a xlink:href="classAsteroids_1_1Domain_1_1Net_1_1Messages_1_1AUTH__STATE.html#a87117d1188c07bea42ec44ed45125044" target="_top" xlink:title="Asteroids::Domain::\lNet::Messages::AUTH\l_STATE::reset">
<polygon fill="#ffffff" stroke="#000000" points="161,-.5 161,-41.5 278,-41.5 278,-.5 161,-.5"/>
<text text-anchor="start" x="169" y="-29.5" font-family="Helvetica,sans-Serif" font-size="10.00" fill="#000000">Asteroids::Domain::</text>
<text text-anchor="start" x="169" y="-18.5" font-family="Helvetica,sans-Serif" font-size="10.00" fill="#000000">Net::Messages::AUTH</text>
<text text-anchor="middle" x="219.5" y="-7.5" font-family="Helvetica,sans-Serif" font-size="10.00" fill="#000000">_STATE::reset</text>
</a>
</g>
</g>
<!-- Node0&#45;&gt;Node1 -->
<g id="edge1" class="edge">
<title>Node0&#45;&gt;Node1</title>
<path fill="none" stroke="#191970" d="M125.0017,-21C133.3912,-21 142.0354,-21 150.5285,-21"/>
<polygon fill="#191970" stroke="#191970" points="150.7861,-24.5001 160.7861,-21 150.786,-17.5001 150.7861,-24.5001"/>
</g>
<!-- Node2 -->
<g id="node3" class="node">
<title>Node2</title>
<g id="a_node3"><a xlink:href="classAsteroids_1_1Domain_1_1Net_1_1Messages_1_1AUTH__STATE.html#a7f307b3e98dee115df05cc6d574ed2d0" target="_top" xlink:title="Asteroids::Domain::\lNet::Messages::AUTH\l_STATE::setAuthSuccessful">
<polygon fill="#ffffff" stroke="#000000" points="314,-.5 314,-41.5 457,-41.5 457,-.5 314,-.5"/>
<text text-anchor="start" x="322" y="-29.5" font-family="Helvetica,sans-Serif" font-size="10.00" fill="#000000">Asteroids::Domain::</text>
<text text-anchor="start" x="322" y="-18.5" font-family="Helvetica,sans-Serif" font-size="10.00" fill="#000000">Net::Messages::AUTH</text>
<text text-anchor="middle" x="385.5" y="-7.5" font-family="Helvetica,sans-Serif" font-size="10.00" fill="#000000">_STATE::setAuthSuccessful</text>
</a>
</g>
</g>
<!-- Node1&#45;&gt;Node2 -->
<g id="edge2" class="edge">
<title>Node1&#45;&gt;Node2</title>
<path fill="none" stroke="#191970" d="M278.0254,-21C286.3447,-21 295.0243,-21 303.6867,-21"/>
<polygon fill="#191970" stroke="#191970" points="303.8251,-24.5001 313.825,-21 303.825,-17.5001 303.8251,-24.5001"/>
</g>
</g>
</svg>
