<?xml version="1.0" encoding="UTF-8" standalone="no"?>
<!DOCTYPE svg PUBLIC "-//W3C//DTD SVG 1.1//EN"
 "http://www.w3.org/Graphics/SVG/1.1/DTD/svg11.dtd">
<!-- Generated by graphviz version 2.40.1 (20161225.0304)
 -->
<!-- Title: Asteroids::UI::ClientTextUI::ClientTextUI::review_game_history Pages: 1 -->
<!--zoomable 110 -->
<svg id="main" version="1.1" xmlns="http://www.w3.org/2000/svg" xmlns:xlink="http://www.w3.org/1999/xlink" xml:space="preserve" onload="init(evt)">
<style type="text/css"><![CDATA[
.edge:hover path { stroke: red; }
.edge:hover polygon { stroke: red; fill: red; }
]]></style>
<script type="text/javascript"><![CDATA[
var edges = document.getElementsByTagName('g');
if (edges && edges.length) {
  for (var i=0;i<edges.length;i++) {
    if (edges[i].id.substr(0,4)=='edge') {
      edges[i].setAttribute('class','edge');
    }
  }
}
]]></script>
        <defs>
                <circle id="rim" cx="0" cy="0" r="7"/>
                <circle id="rim2" cx="0" cy="0" r="3.5"/>
                <g id="zoomPlus">
                        <use xlink:href="#rim" fill="#404040">
                                <set attributeName="fill" to="#808080" begin="zoomplus.mouseover" end="zoomplus.mouseout"/>
                        </use>
                        <path d="M-4,0h8M0,-4v8" fill="none" stroke="white" stroke-width="1.5" pointer-events="none"/>
                </g>
                <g id="zoomMin">
                        <use xlink:href="#rim" fill="#404040">
                                <set attributeName="fill" to="#808080" begin="zoomminus.mouseover" end="zoomminus.mouseout"/>
                        </use>
                        <path d="M-4,0h8" fill="none" stroke="white" stroke-width="1.5" pointer-events="none"/>
                </g>
                <g id="dirArrow">
                        <path fill="none" stroke="white" stroke-width="1.5" d="M0,-3.0v7 M-2.5,-0.5L0,-3.0L2.5,-0.5"/>
                </g>
               <g id="resetDef">
                       <use xlink:href="#rim2" fill="#404040">
                               <set attributeName="fill" to="#808080" begin="reset.mouseover" end="reset.mouseout"/>
                       </use>
               </g>
        </defs>

<script type="text/javascript">
var viewWidth = 570;
var viewHeight = 110;
var sectionId = 'dynsection-30';
</script>
<script xlink:href="svgpan.js"/>
<svg id="graph" class="graph">
<g id="viewport">
<title>Asteroids::UI::ClientTextUI::ClientTextUI::review_game_history</title>
<polygon fill="#ffffff" stroke="transparent" points="-4,4 -4,-106 566,-106 566,4 -4,4"/>
<!-- Node132 -->
<g id="node1" class="node">
<title>Node132</title>
<polygon fill="#bfbfbf" stroke="#000000" points="0,-41 0,-82 125,-82 125,-41 0,-41"/>
<text text-anchor="start" x="8" y="-70" font-family="Helvetica,sans-Serif" font-size="10.00" fill="#000000">Asteroids::UI::ClientText</text>
<text text-anchor="start" x="8" y="-59" font-family="Helvetica,sans-Serif" font-size="10.00" fill="#000000">UI::ClientTextUI::review</text>
<text text-anchor="middle" x="62.5" y="-48" font-family="Helvetica,sans-Serif" font-size="10.00" fill="#000000">_game_history</text>
</g>
<!-- Node133 -->
<g id="node2" class="node">
<title>Node133</title>
<g id="a_node2"><a xlink:href="classAsteroids_1_1UI_1_1ClientTextUI_1_1ClientTextUI.html#a41f904ea570af3e3a8c4d70da8411ef3" target="_top" xlink:title="Asteroids::UI::ClientText\lUI::ClientTextUI::print">
<polygon fill="#ffffff" stroke="#000000" points="408.5,-71.5 408.5,-101.5 533.5,-101.5 533.5,-71.5 408.5,-71.5"/>
<text text-anchor="start" x="416.5" y="-89.5" font-family="Helvetica,sans-Serif" font-size="10.00" fill="#000000">Asteroids::UI::ClientText</text>
<text text-anchor="middle" x="471" y="-78.5" font-family="Helvetica,sans-Serif" font-size="10.00" fill="#000000">UI::ClientTextUI::print</text>
</a>
</g>
</g>
<!-- Node132&#45;&gt;Node133 -->
<g id="edge1" class="edge">
<title>Node132&#45;&gt;Node133</title>
<path fill="none" stroke="#191970" d="M125.4329,-65.3515C199.0062,-69.8541 320.5627,-77.2933 398.1542,-82.0419"/>
<polygon fill="#191970" stroke="#191970" points="398.136,-85.5472 408.3311,-82.6647 398.5636,-78.5603 398.136,-85.5472"/>
</g>
<!-- Node134 -->
<g id="node3" class="node">
<title>Node134</title>
<g id="a_node3"><a xlink:href="classAsteroids_1_1UI_1_1ClientTextUI_1_1ClientTextUI.html#ab0a3f9e22046b77a85dc7771d3502365" target="_top" xlink:title="Asteroids::UI::ClientText\lUI::ClientTextUI::share\l_game_history_entry_to_social_media">
<polygon fill="#ffffff" stroke="#000000" points="161,-17 161,-58 344,-58 344,-17 161,-17"/>
<text text-anchor="start" x="169" y="-46" font-family="Helvetica,sans-Serif" font-size="10.00" fill="#000000">Asteroids::UI::ClientText</text>
<text text-anchor="start" x="169" y="-35" font-family="Helvetica,sans-Serif" font-size="10.00" fill="#000000">UI::ClientTextUI::share</text>
<text text-anchor="middle" x="252.5" y="-24" font-family="Helvetica,sans-Serif" font-size="10.00" fill="#000000">_game_history_entry_to_social_media</text>
</a>
</g>
</g>
<!-- Node132&#45;&gt;Node134 -->
<g id="edge2" class="edge">
<title>Node132&#45;&gt;Node134</title>
<path fill="none" stroke="#191970" d="M125.2397,-53.575C133.4749,-52.5348 142.0771,-51.4482 150.7548,-50.352"/>
<polygon fill="#191970" stroke="#191970" points="151.4762,-53.7888 160.9588,-49.0631 150.5989,-46.844 151.4762,-53.7888"/>
</g>
<!-- Node134&#45;&gt;Node133 -->
<g id="edge3" class="edge">
<title>Node134&#45;&gt;Node133</title>
<path fill="none" stroke="#191970" d="M344.214,-58.0674C362.2749,-62.1177 380.9923,-66.3152 398.3219,-70.2015"/>
<polygon fill="#191970" stroke="#191970" points="397.826,-73.6771 408.3495,-72.4502 399.3578,-66.8468 397.826,-73.6771"/>
</g>
<!-- Node135 -->
<g id="node4" class="node">
<title>Node135</title>
<g id="a_node4"><a xlink:href="classAsteroids_1_1Domain_1_1Net_1_1ClientServerCommunicatorInterface.html#a99c8f2baa739330f44096da950a1d145" target="_top" xlink:title="Asteroids::Domain::\lNet::ClientServerCommunicator\lInterface::notifyServerOfGameHistory\lEntrySocialMediaShare">
<polygon fill="#ffffff" stroke="#000000" points="380,-.5 380,-52.5 562,-52.5 562,-.5 380,-.5"/>
<text text-anchor="start" x="388" y="-40.5" font-family="Helvetica,sans-Serif" font-size="10.00" fill="#000000">Asteroids::Domain::</text>
<text text-anchor="start" x="388" y="-29.5" font-family="Helvetica,sans-Serif" font-size="10.00" fill="#000000">Net::ClientServerCommunicator</text>
<text text-anchor="start" x="388" y="-18.5" font-family="Helvetica,sans-Serif" font-size="10.00" fill="#000000">Interface::notifyServerOfGameHistory</text>
<text text-anchor="middle" x="471" y="-7.5" font-family="Helvetica,sans-Serif" font-size="10.00" fill="#000000">EntrySocialMediaShare</text>
</a>
</g>
</g>
<!-- Node134&#45;&gt;Node135 -->
<g id="edge4" class="edge">
<title>Node134&#45;&gt;Node135</title>
<path fill="none" stroke="#191970" d="M344.214,-32.8828C352.6919,-32.456 361.3146,-32.0219 369.8705,-31.5912"/>
<polygon fill="#191970" stroke="#191970" points="370.0596,-35.0862 379.871,-31.0877 369.7076,-28.095 370.0596,-35.0862"/>
</g>
</g>
</svg>
        <g id="navigator" transform="translate(0 0)" fill="#404254">
                <rect fill="#f2f5e9" fill-opacity="0.5" stroke="#606060" stroke-width=".5" x="0" y="0" width="60" height="60"/>
                <use id="zoomplus" xlink:href="#zoomPlus" x="17" y="9" onmousedown="handleZoom(evt,'in')"/>
                <use id="zoomminus" xlink:href="#zoomMin" x="42" y="9" onmousedown="handleZoom(evt,'out')"/>
                <use id="reset" xlink:href="#resetDef" x="30" y="36" onmousedown="handleReset()"/>
                <g id="arrowUp" xlink:href="#dirArrow" transform="translate(30 24)" onmousedown="handlePan(0,-1)">
                  <use xlink:href="#rim" fill="#404040">
                        <set attributeName="fill" to="#808080" begin="arrowUp.mouseover" end="arrowUp.mouseout"/>
                  </use>
                  <path fill="none" stroke="white" stroke-width="1.5" d="M0,-3.0v7 M-2.5,-0.5L0,-3.0L2.5,-0.5"/>
                </g>
                <g id="arrowRight" xlink:href="#dirArrow" transform="rotate(90) translate(36 -43)" onmousedown="handlePan(1,0)">
                  <use xlink:href="#rim" fill="#404040">
                        <set attributeName="fill" to="#808080" begin="arrowRight.mouseover" end="arrowRight.mouseout"/>
                  </use>
                  <path fill="none" stroke="white" stroke-width="1.5" d="M0,-3.0v7 M-2.5,-0.5L0,-3.0L2.5,-0.5"/>
                </g>
                <g id="arrowDown" xlink:href="#dirArrow" transform="rotate(180) translate(-30 -48)" onmousedown="handlePan(0,1)">
                  <use xlink:href="#rim" fill="#404040">
                        <set attributeName="fill" to="#808080" begin="arrowDown.mouseover" end="arrowDown.mouseout"/>
                  </use>
                  <path fill="none" stroke="white" stroke-width="1.5" d="M0,-3.0v7 M-2.5,-0.5L0,-3.0L2.5,-0.5"/>
                </g>
                <g id="arrowLeft" xlink:href="#dirArrow" transform="rotate(270) translate(-36 17)" onmousedown="handlePan(-1,0)">
                  <use xlink:href="#rim" fill="#404040">
                        <set attributeName="fill" to="#808080" begin="arrowLeft.mouseover" end="arrowLeft.mouseout"/>
                  </use>
                  <path fill="none" stroke="white" stroke-width="1.5" d="M0,-3.0v7 M-2.5,-0.5L0,-3.0L2.5,-0.5"/>
                </g>
        </g>
        <svg viewBox="0 0 15 15" width="100%" height="30px" preserveAspectRatio="xMaxYMin meet">
         <g id="arrow_out" transform="scale(0.3 0.3)">
          <a xlink:href="classAsteroids_1_1UI_1_1ClientTextUI_1_1ClientTextUI_a27ec39f73edbb3688a3ebe67533abf5a_cgraph_org.svg" target="_base">
           <rect id="button" ry="5" rx="5" y="6" x="6" height="38" width="38"
                fill="#f2f5e9" fill-opacity="0.5" stroke="#606060" stroke-width="1.0"/>
           <path id="arrow"
             d="M 11.500037,31.436501 C 11.940474,20.09759 22.043105,11.32322 32.158766,21.979434 L 37.068811,17.246167 C 37.068811,17.246167 37.088388,32 37.088388,32 L 22.160133,31.978069 C 22.160133,31.978069 26.997745,27.140456 26.997745,27.140456 C 18.528582,18.264221 13.291696,25.230495 11.500037,31.436501 z"
             style="fill:#404040;"/>
          </a>
         </g>
        </svg>
</svg>
