<?xml version="1.0" encoding="UTF-8" standalone="no"?>
<!DOCTYPE svg PUBLIC "-//W3C//DTD SVG 1.1//EN"
 "http://www.w3.org/Graphics/SVG/1.1/DTD/svg11.dtd">
<!-- Generated by graphviz version 2.40.1 (20161225.0304)
 -->
<!-- Title: Asteroids::Domain::Game::Game::Game Pages: 1 -->
<svg width="395pt" height="39pt"
 viewBox="0.00 0.00 395.00 39.00" xmlns="http://www.w3.org/2000/svg" xmlns:xlink="http://www.w3.org/1999/xlink">
<g id="graph0" class="graph" transform="scale(1 1) rotate(0) translate(4 35)">
<title>Asteroids::Domain::Game::Game::Game</title>
<polygon fill="#ffffff" stroke="transparent" points="-4,4 -4,-35 391,-35 391,4 -4,4"/>
<!-- Node0 -->
<g id="node1" class="node">
<title>Node0</title>
<polygon fill="#bfbfbf" stroke="#000000" points="0,-.5 0,-30.5 107,-30.5 107,-.5 0,-.5"/>
<text text-anchor="start" x="8" y="-18.5" font-family="Helvetica,sans-Serif" font-size="10.00" fill="#000000">Asteroids::Domain::</text>
<text text-anchor="middle" x="53.5" y="-7.5" font-family="Helvetica,sans-Serif" font-size="10.00" fill="#000000">Game::Game::Game</text>
</g>
<!-- Node1 -->
<g id="node2" class="node">
<title>Node1</title>
<g id="a_node2"><a xlink:href="classAsteroids_1_1Domain_1_1Game_1_1Game.html#a83299855cbf877f34f84b974fc35f8bb" target="_top" xlink:title="Asteroids::Domain::\lGame::Game::init">
<polygon fill="#ffffff" stroke="#000000" points="143,-.5 143,-30.5 247,-30.5 247,-.5 143,-.5"/>
<text text-anchor="start" x="151" y="-18.5" font-family="Helvetica,sans-Serif" font-size="10.00" fill="#000000">Asteroids::Domain::</text>
<text text-anchor="middle" x="195" y="-7.5" font-family="Helvetica,sans-Serif" font-size="10.00" fill="#000000">Game::Game::init</text>
</a>
</g>
</g>
<!-- Node0&#45;&gt;Node1 -->
<g id="edge1" class="edge">
<title>Node0&#45;&gt;Node1</title>
<path fill="none" stroke="#191970" d="M107.3987,-15.5C115.6165,-15.5 124.1562,-15.5 132.5386,-15.5"/>
<polygon fill="#191970" stroke="#191970" points="132.653,-19.0001 142.653,-15.5 132.653,-12.0001 132.653,-19.0001"/>
</g>
<!-- Node2 -->
<g id="node3" class="node">
<title>Node2</title>
<g id="a_node3"><a xlink:href="classAsteroids_1_1Domain_1_1Game_1_1Game.html#a61e639ba44b16737fdfe26887dba965f" target="_top" xlink:title="Asteroids::Domain::\lGame::Game::reset">
<polygon fill="#ffffff" stroke="#000000" points="283,-.5 283,-30.5 387,-30.5 387,-.5 283,-.5"/>
<text text-anchor="start" x="291" y="-18.5" font-family="Helvetica,sans-Serif" font-size="10.00" fill="#000000">Asteroids::Domain::</text>
<text text-anchor="middle" x="335" y="-7.5" font-family="Helvetica,sans-Serif" font-size="10.00" fill="#000000">Game::Game::reset</text>
</a>
</g>
</g>
<!-- Node1&#45;&gt;Node2 -->
<g id="edge2" class="edge">
<title>Node1&#45;&gt;Node2</title>
<path fill="none" stroke="#191970" d="M247.1308,-15.5C255.4213,-15.5 264.0702,-15.5 272.5685,-15.5"/>
<polygon fill="#191970" stroke="#191970" points="272.8257,-19.0001 282.8256,-15.5 272.8256,-12.0001 272.8257,-19.0001"/>
</g>
</g>
</svg>
