<?xml version="1.0" encoding="UTF-8" standalone="no"?>
<!DOCTYPE svg PUBLIC "-//W3C//DTD SVG 1.1//EN"
 "http://www.w3.org/Graphics/SVG/1.1/DTD/svg11.dtd">
<!-- Generated by graphviz version 2.40.1 (20161225.0304)
 -->
<!-- Title: Asteroids::Domain::Game::Actors::Actor::rotate_polygon Pages: 1 -->
<svg width="261pt" height="50pt"
 viewBox="0.00 0.00 261.00 50.00" xmlns="http://www.w3.org/2000/svg" xmlns:xlink="http://www.w3.org/1999/xlink">
<g id="graph0" class="graph" transform="scale(1 1) rotate(0) translate(4 46)">
<title>Asteroids::Domain::Game::Actors::Actor::rotate_polygon</title>
<polygon fill="#ffffff" stroke="transparent" points="-4,4 -4,-46 257,-46 257,4 -4,4"/>
<!-- Node107 -->
<g id="node1" class="node">
<title>Node107</title>
<polygon fill="#bfbfbf" stroke="#000000" points="0,-.5 0,-41.5 107,-41.5 107,-.5 0,-.5"/>
<text text-anchor="start" x="8" y="-29.5" font-family="Helvetica,sans-Serif" font-size="10.00" fill="#000000">Asteroids::Domain::</text>
<text text-anchor="start" x="8" y="-18.5" font-family="Helvetica,sans-Serif" font-size="10.00" fill="#000000">Game::Actors::Actor</text>
<text text-anchor="middle" x="53.5" y="-7.5" font-family="Helvetica,sans-Serif" font-size="10.00" fill="#000000">::rotate_polygon</text>
</g>
<!-- Node108 -->
<g id="node2" class="node">
<title>Node108</title>
<g id="a_node2"><a xlink:href="classAsteroids_1_1Domain_1_1Game_1_1Actors_1_1Actor.html#a8518140e16304bd6cf7a8bc6a99c9509" target="_top" xlink:title="Asteroids::Domain::\lGame::Actors::Actor\l::get_rotated_polygon">
<polygon fill="#ffffff" stroke="#000000" points="143,-.5 143,-41.5 253,-41.5 253,-.5 143,-.5"/>
<text text-anchor="start" x="151" y="-29.5" font-family="Helvetica,sans-Serif" font-size="10.00" fill="#000000">Asteroids::Domain::</text>
<text text-anchor="start" x="151" y="-18.5" font-family="Helvetica,sans-Serif" font-size="10.00" fill="#000000">Game::Actors::Actor</text>
<text text-anchor="middle" x="198" y="-7.5" font-family="Helvetica,sans-Serif" font-size="10.00" fill="#000000">::get_rotated_polygon</text>
</a>
</g>
</g>
<!-- Node107&#45;&gt;Node108 -->
<g id="edge1" class="edge">
<title>Node107&#45;&gt;Node108</title>
<path fill="none" stroke="#191970" d="M117.4644,-21C125.8795,-21 134.4464,-21 142.7006,-21"/>
<polygon fill="#191970" stroke="#191970" points="117.3065,-17.5001 107.3065,-21 117.3064,-24.5001 117.3065,-17.5001"/>
</g>
</g>
</svg>
