<?xml version="1.0" encoding="UTF-8" standalone="no"?>
<!DOCTYPE svg PUBLIC "-//W3C//DTD SVG 1.1//EN"
 "http://www.w3.org/Graphics/SVG/1.1/DTD/svg11.dtd">
<!-- Generated by graphviz version 2.40.1 (20161225.0304)
 -->
<!-- Title: Asteroids::Domain::Game::Actors::Actor::get_y Pages: 1 -->
<svg width="572pt" height="50pt"
 viewBox="0.00 0.00 572.00 50.00" xmlns="http://www.w3.org/2000/svg" xmlns:xlink="http://www.w3.org/1999/xlink">
<g id="graph0" class="graph" transform="scale(1 1) rotate(0) translate(4 46)">
<title>Asteroids::Domain::Game::Actors::Actor::get_y</title>
<polygon fill="#ffffff" stroke="transparent" points="-4,4 -4,-46 568,-46 568,4 -4,4"/>
<!-- Node83 -->
<g id="node1" class="node">
<title>Node83</title>
<polygon fill="#bfbfbf" stroke="#000000" points="0,-.5 0,-41.5 107,-41.5 107,-.5 0,-.5"/>
<text text-anchor="start" x="8" y="-29.5" font-family="Helvetica,sans-Serif" font-size="10.00" fill="#000000">Asteroids::Domain::</text>
<text text-anchor="start" x="8" y="-18.5" font-family="Helvetica,sans-Serif" font-size="10.00" fill="#000000">Game::Actors::Actor</text>
<text text-anchor="middle" x="53.5" y="-7.5" font-family="Helvetica,sans-Serif" font-size="10.00" fill="#000000">::get_y</text>
</g>
<!-- Node84 -->
<g id="node2" class="node">
<title>Node84</title>
<g id="a_node2"><a xlink:href="classAsteroids_1_1Domain_1_1Game_1_1Actors_1_1Actor.html#ad108a838180454ac98facde4518d7660" target="_top" xlink:title="Asteroids::Domain::\lGame::Actors::Actor\l::fire_bullet">
<polygon fill="#ffffff" stroke="#000000" points="143,-.5 143,-41.5 250,-41.5 250,-.5 143,-.5"/>
<text text-anchor="start" x="151" y="-29.5" font-family="Helvetica,sans-Serif" font-size="10.00" fill="#000000">Asteroids::Domain::</text>
<text text-anchor="start" x="151" y="-18.5" font-family="Helvetica,sans-Serif" font-size="10.00" fill="#000000">Game::Actors::Actor</text>
<text text-anchor="middle" x="196.5" y="-7.5" font-family="Helvetica,sans-Serif" font-size="10.00" fill="#000000">::fire_bullet</text>
</a>
</g>
</g>
<!-- Node83&#45;&gt;Node84 -->
<g id="edge1" class="edge">
<title>Node83&#45;&gt;Node84</title>
<path fill="none" stroke="#191970" d="M117.3238,-21C125.7452,-21 134.3103,-21 142.5445,-21"/>
<polygon fill="#191970" stroke="#191970" points="117.1548,-17.5001 107.1548,-21 117.1547,-24.5001 117.1548,-17.5001"/>
</g>
<!-- Node85 -->
<g id="node3" class="node">
<title>Node85</title>
<g id="a_node3"><a xlink:href="classAsteroids_1_1Domain_1_1Game_1_1Actors_1_1GunShip.html#aae99fa7e1cae7f17c81b68217ed2fa32" target="_top" xlink:title="Asteroids::Domain::\lGame::Actors::GunShip\l::use_input">
<polygon fill="#ffffff" stroke="#000000" points="286,-.5 286,-41.5 407,-41.5 407,-.5 286,-.5"/>
<text text-anchor="start" x="294" y="-29.5" font-family="Helvetica,sans-Serif" font-size="10.00" fill="#000000">Asteroids::Domain::</text>
<text text-anchor="start" x="294" y="-18.5" font-family="Helvetica,sans-Serif" font-size="10.00" fill="#000000">Game::Actors::GunShip</text>
<text text-anchor="middle" x="346.5" y="-7.5" font-family="Helvetica,sans-Serif" font-size="10.00" fill="#000000">::use_input</text>
</a>
</g>
</g>
<!-- Node84&#45;&gt;Node85 -->
<g id="edge2" class="edge">
<title>Node84&#45;&gt;Node85</title>
<path fill="none" stroke="#191970" d="M260.3705,-21C268.7859,-21 277.3924,-21 285.7536,-21"/>
<polygon fill="#191970" stroke="#191970" points="260.2298,-17.5001 250.2298,-21 260.2297,-24.5001 260.2298,-17.5001"/>
</g>
<!-- Node86 -->
<g id="node4" class="node">
<title>Node86</title>
<g id="a_node4"><a xlink:href="classAsteroids_1_1Domain_1_1Game_1_1Actors_1_1GunShip.html#a4b37d42d9758c701d75e6a91dda71a5b" target="_top" xlink:title="Asteroids::Domain::\lGame::Actors::GunShip\l::update">
<polygon fill="#ffffff" stroke="#000000" points="443,-.5 443,-41.5 564,-41.5 564,-.5 443,-.5"/>
<text text-anchor="start" x="451" y="-29.5" font-family="Helvetica,sans-Serif" font-size="10.00" fill="#000000">Asteroids::Domain::</text>
<text text-anchor="start" x="451" y="-18.5" font-family="Helvetica,sans-Serif" font-size="10.00" fill="#000000">Game::Actors::GunShip</text>
<text text-anchor="middle" x="503.5" y="-7.5" font-family="Helvetica,sans-Serif" font-size="10.00" fill="#000000">::update</text>
</a>
</g>
</g>
<!-- Node85&#45;&gt;Node86 -->
<g id="edge3" class="edge">
<title>Node85&#45;&gt;Node86</title>
<path fill="none" stroke="#191970" d="M417.2098,-21C425.807,-21 434.5301,-21 442.9611,-21"/>
<polygon fill="#191970" stroke="#191970" points="417.2003,-17.5001 407.2003,-21 417.2003,-24.5001 417.2003,-17.5001"/>
</g>
</g>
</svg>
