<?xml version="1.0" encoding="UTF-8" standalone="no"?>
<!DOCTYPE svg PUBLIC "-//W3C//DTD SVG 1.1//EN"
 "http://www.w3.org/Graphics/SVG/1.1/DTD/svg11.dtd">
<!-- Generated by graphviz version 2.40.1 (20161225.0304)
 -->
<!-- Title: Asteroids::Domain::Net::Messages::AUTH_ATTEMPT::setPassword Pages: 1 -->
<svg width="482pt" height="50pt"
 viewBox="0.00 0.00 482.00 50.00" xmlns="http://www.w3.org/2000/svg" xmlns:xlink="http://www.w3.org/1999/xlink">
<g id="graph0" class="graph" transform="scale(1 1) rotate(0) translate(4 46)">
<title>Asteroids::Domain::Net::Messages::AUTH_ATTEMPT::setPassword</title>
<polygon fill="#ffffff" stroke="transparent" points="-4,4 -4,-46 478,-46 478,4 -4,4"/>
<!-- Node11 -->
<g id="node1" class="node">
<title>Node11</title>
<polygon fill="#bfbfbf" stroke="#000000" points="0,-.5 0,-41.5 131,-41.5 131,-.5 0,-.5"/>
<text text-anchor="start" x="8" y="-29.5" font-family="Helvetica,sans-Serif" font-size="10.00" fill="#000000">Asteroids::Domain::</text>
<text text-anchor="start" x="8" y="-18.5" font-family="Helvetica,sans-Serif" font-size="10.00" fill="#000000">Net::Messages::AUTH</text>
<text text-anchor="middle" x="65.5" y="-7.5" font-family="Helvetica,sans-Serif" font-size="10.00" fill="#000000">_ATTEMPT::setPassword</text>
</g>
<!-- Node12 -->
<g id="node2" class="node">
<title>Node12</title>
<g id="a_node2"><a xlink:href="classAsteroids_1_1Domain_1_1Net_1_1Messages_1_1AUTH__ATTEMPT.html#ac3d3b7f2f68f6738cf34d34f5cc6eaf9" target="_top" xlink:title="Asteroids::Domain::\lNet::Messages::AUTH\l_ATTEMPT::reset">
<polygon fill="#ffffff" stroke="#000000" points="167,-.5 167,-41.5 284,-41.5 284,-.5 167,-.5"/>
<text text-anchor="start" x="175" y="-29.5" font-family="Helvetica,sans-Serif" font-size="10.00" fill="#000000">Asteroids::Domain::</text>
<text text-anchor="start" x="175" y="-18.5" font-family="Helvetica,sans-Serif" font-size="10.00" fill="#000000">Net::Messages::AUTH</text>
<text text-anchor="middle" x="225.5" y="-7.5" font-family="Helvetica,sans-Serif" font-size="10.00" fill="#000000">_ATTEMPT::reset</text>
</a>
</g>
</g>
<!-- Node11&#45;&gt;Node12 -->
<g id="edge1" class="edge">
<title>Node11&#45;&gt;Node12</title>
<path fill="none" stroke="#191970" d="M141.1689,-21C149.8449,-21 158.5891,-21 166.9916,-21"/>
<polygon fill="#191970" stroke="#191970" points="141.0398,-17.5001 131.0398,-21 141.0397,-24.5001 141.0398,-17.5001"/>
</g>
<!-- Node13 -->
<g id="node3" class="node">
<title>Node13</title>
<g id="a_node3"><a xlink:href="classAsteroids_1_1Domain_1_1Net_1_1Messages_1_1AUTH__ATTEMPT.html#a4c6197274eb2e952137315f9d150f30e" target="_top" xlink:title="Asteroids::Domain::\lNet::Messages::AUTH\l_ATTEMPT::AUTH_ATTEMPT">
<polygon fill="#ffffff" stroke="#000000" points="320,-.5 320,-41.5 474,-41.5 474,-.5 320,-.5"/>
<text text-anchor="start" x="328" y="-29.5" font-family="Helvetica,sans-Serif" font-size="10.00" fill="#000000">Asteroids::Domain::</text>
<text text-anchor="start" x="328" y="-18.5" font-family="Helvetica,sans-Serif" font-size="10.00" fill="#000000">Net::Messages::AUTH</text>
<text text-anchor="middle" x="397" y="-7.5" font-family="Helvetica,sans-Serif" font-size="10.00" fill="#000000">_ATTEMPT::AUTH_ATTEMPT</text>
</a>
</g>
</g>
<!-- Node12&#45;&gt;Node13 -->
<g id="edge2" class="edge">
<title>Node12&#45;&gt;Node13</title>
<path fill="none" stroke="#191970" d="M294.2153,-21C302.6692,-21 311.3532,-21 319.9206,-21"/>
<polygon fill="#191970" stroke="#191970" points="294.0409,-17.5001 284.0409,-21 294.0409,-24.5001 294.0409,-17.5001"/>
</g>
</g>
</svg>
