<?xml version="1.0" encoding="UTF-8" standalone="no"?>
<!DOCTYPE svg PUBLIC "-//W3C//DTD SVG 1.1//EN"
 "http://www.w3.org/Graphics/SVG/1.1/DTD/svg11.dtd">
<!-- Generated by graphviz version 2.40.1 (20161225.0304)
 -->
<!-- Title: Asteroids::Domain::Factory::Factory Pages: 1 -->
<svg width="312pt" height="325pt"
 viewBox="0.00 0.00 311.50 325.00" xmlns="http://www.w3.org/2000/svg" xmlns:xlink="http://www.w3.org/1999/xlink">
<g id="graph0" class="graph" transform="scale(1 1) rotate(0) translate(4 321)">
<title>Asteroids::Domain::Factory::Factory</title>
<polygon fill="#ffffff" stroke="transparent" points="-4,4 -4,-321 307.5,-321 307.5,4 -4,4"/>
<!-- Node3 -->
<g id="node1" class="node">
<title>Node3</title>
<polygon fill="#bfbfbf" stroke="#000000" points="80,-.5 80,-156.5 252,-156.5 252,-.5 80,-.5"/>
<text text-anchor="start" x="88" y="-144.5" font-family="Helvetica,sans-Serif" font-size="10.00" fill="#000000">Asteroids::Domain::</text>
<text text-anchor="middle" x="166" y="-133.5" font-family="Helvetica,sans-Serif" font-size="10.00" fill="#000000">Factory::Factory</text>
<polyline fill="none" stroke="#000000" points="80,-126.5 252,-126.5 "/>
<text text-anchor="middle" x="166" y="-114.5" font-family="Helvetica,sans-Serif" font-size="10.00" fill="#000000"> </text>
<polyline fill="none" stroke="#000000" points="80,-107.5 252,-107.5 "/>
<text text-anchor="start" x="88" y="-95.5" font-family="Helvetica,sans-Serif" font-size="10.00" fill="#000000">+ Factory()</text>
<text text-anchor="start" x="88" y="-84.5" font-family="Helvetica,sans-Serif" font-size="10.00" fill="#000000">+ createGameFactory()</text>
<text text-anchor="start" x="88" y="-73.5" font-family="Helvetica,sans-Serif" font-size="10.00" fill="#000000">+ createNetworkFactory()</text>
<text text-anchor="start" x="88" y="-62.5" font-family="Helvetica,sans-Serif" font-size="10.00" fill="#000000">+ createServerFactory()</text>
<text text-anchor="start" x="88" y="-51.5" font-family="Helvetica,sans-Serif" font-size="10.00" fill="#000000">+ createStoreFactory()</text>
<text text-anchor="start" x="88" y="-40.5" font-family="Helvetica,sans-Serif" font-size="10.00" fill="#000000">+ createTechnicalServicesFactory()</text>
<text text-anchor="start" x="88" y="-29.5" font-family="Helvetica,sans-Serif" font-size="10.00" fill="#000000">+ createUIFactory()</text>
<text text-anchor="start" x="88" y="-18.5" font-family="Helvetica,sans-Serif" font-size="10.00" fill="#000000">+ reset()</text>
<text text-anchor="start" x="88" y="-7.5" font-family="Helvetica,sans-Serif" font-size="10.00" fill="#000000">&#45; this_pointer()</text>
</g>
<!-- Node4 -->
<g id="node2" class="node">
<title>Node4</title>
<g id="a_node2"><a xlink:href="classAsteroids_1_1Domain_1_1Factory_1_1FactoryInterface.html" target="_top" xlink:title="The main FactoryInterface is responsible for generating other factories of subpackages. ">
<polygon fill="#ffffff" stroke="#000000" points="0,-193.5 0,-316.5 172,-316.5 172,-193.5 0,-193.5"/>
<text text-anchor="start" x="8" y="-304.5" font-family="Helvetica,sans-Serif" font-size="10.00" fill="#000000">Asteroids::Domain::</text>
<text text-anchor="middle" x="86" y="-293.5" font-family="Helvetica,sans-Serif" font-size="10.00" fill="#000000">Factory::FactoryInterface</text>
<polyline fill="none" stroke="#000000" points="0,-286.5 172,-286.5 "/>
<text text-anchor="middle" x="86" y="-274.5" font-family="Helvetica,sans-Serif" font-size="10.00" fill="#000000"> </text>
<polyline fill="none" stroke="#000000" points="0,-267.5 172,-267.5 "/>
<text text-anchor="start" x="8" y="-255.5" font-family="Helvetica,sans-Serif" font-size="10.00" fill="#000000">+ createGameFactory()</text>
<text text-anchor="start" x="8" y="-244.5" font-family="Helvetica,sans-Serif" font-size="10.00" fill="#000000">+ createNetworkFactory()</text>
<text text-anchor="start" x="8" y="-233.5" font-family="Helvetica,sans-Serif" font-size="10.00" fill="#000000">+ createServerFactory()</text>
<text text-anchor="start" x="8" y="-222.5" font-family="Helvetica,sans-Serif" font-size="10.00" fill="#000000">+ createStoreFactory()</text>
<text text-anchor="start" x="8" y="-211.5" font-family="Helvetica,sans-Serif" font-size="10.00" fill="#000000">+ createTechnicalServicesFactory()</text>
<text text-anchor="start" x="8" y="-200.5" font-family="Helvetica,sans-Serif" font-size="10.00" fill="#000000">+ createUIFactory()</text>
</a>
</g>
</g>
<!-- Node4&#45;&gt;Node3 -->
<g id="edge1" class="edge">
<title>Node4&#45;&gt;Node3</title>
<path fill="none" stroke="#191970" d="M118.1831,-183.9961C122.2626,-174.9957 126.455,-165.7462 130.5815,-156.6421"/>
<polygon fill="none" stroke="#191970" points="114.9207,-182.7159 113.9801,-193.2689 121.2963,-185.6057 114.9207,-182.7159"/>
</g>
<!-- Node5 -->
<g id="node3" class="node">
<title>Node5</title>
<polygon fill="#ffffff" stroke="#bfbfbf" points="190.5,-221 190.5,-289 303.5,-289 303.5,-221 190.5,-221"/>
<text text-anchor="start" x="198.5" y="-277" font-family="Helvetica,sans-Serif" font-size="10.00" fill="#000000">std::enable_shared</text>
<text text-anchor="middle" x="247" y="-266" font-family="Helvetica,sans-Serif" font-size="10.00" fill="#000000">_from_this&lt; Factory &gt;</text>
<polyline fill="none" stroke="#bfbfbf" points="190.5,-259 303.5,-259 "/>
<text text-anchor="middle" x="247" y="-247" font-family="Helvetica,sans-Serif" font-size="10.00" fill="#000000"> </text>
<polyline fill="none" stroke="#bfbfbf" points="190.5,-240 303.5,-240 "/>
<text text-anchor="middle" x="247" y="-228" font-family="Helvetica,sans-Serif" font-size="10.00" fill="#000000"> </text>
</g>
<!-- Node5&#45;&gt;Node3 -->
<g id="edge2" class="edge">
<title>Node5&#45;&gt;Node3</title>
<path fill="none" stroke="#191970" d="M227.065,-211.5613C219.4526,-194.9739 210.5209,-175.5115 201.8741,-156.6702"/>
<polygon fill="none" stroke="#191970" points="224.0303,-213.3403 231.3824,-220.969 230.3924,-210.4205 224.0303,-213.3403"/>
</g>
</g>
</svg>
