<?xml version="1.0" encoding="UTF-8" standalone="no"?>
<!DOCTYPE svg PUBLIC "-//W3C//DTD SVG 1.1//EN"
 "http://www.w3.org/Graphics/SVG/1.1/DTD/svg11.dtd">
<!-- Generated by graphviz version 2.40.1 (20161225.0304)
 -->
<!-- Title: Asteroids::Domain::Game::Actors::Bullet::maybe_die Pages: 1 -->
<svg width="259pt" height="110pt"
 viewBox="0.00 0.00 259.00 110.00" xmlns="http://www.w3.org/2000/svg" xmlns:xlink="http://www.w3.org/1999/xlink">
<g id="graph0" class="graph" transform="scale(1 1) rotate(0) translate(4 106)">
<title>Asteroids::Domain::Game::Actors::Bullet::maybe_die</title>
<polygon fill="#ffffff" stroke="transparent" points="-4,4 -4,-106 255,-106 255,4 -4,4"/>
<!-- Node34 -->
<g id="node1" class="node">
<title>Node34</title>
<polygon fill="#bfbfbf" stroke="#000000" points="0,-30.5 0,-71.5 108,-71.5 108,-30.5 0,-30.5"/>
<text text-anchor="start" x="8" y="-59.5" font-family="Helvetica,sans-Serif" font-size="10.00" fill="#000000">Asteroids::Domain::</text>
<text text-anchor="start" x="8" y="-48.5" font-family="Helvetica,sans-Serif" font-size="10.00" fill="#000000">Game::Actors::Bullet</text>
<text text-anchor="middle" x="54" y="-37.5" font-family="Helvetica,sans-Serif" font-size="10.00" fill="#000000">::maybe_die</text>
</g>
<!-- Node35 -->
<g id="node2" class="node">
<title>Node35</title>
<g id="a_node2"><a xlink:href="classAsteroids_1_1Domain_1_1Game_1_1Actors_1_1Actor.html#afb9985ff7dea1fe2d21b365a7aec8a45" target="_top" xlink:title="Asteroids::Domain::\lGame::Actors::Actor\l::deleteme">
<polygon fill="#ffffff" stroke="#000000" points="144,-60.5 144,-101.5 251,-101.5 251,-60.5 144,-60.5"/>
<text text-anchor="start" x="152" y="-89.5" font-family="Helvetica,sans-Serif" font-size="10.00" fill="#000000">Asteroids::Domain::</text>
<text text-anchor="start" x="152" y="-78.5" font-family="Helvetica,sans-Serif" font-size="10.00" fill="#000000">Game::Actors::Actor</text>
<text text-anchor="middle" x="197.5" y="-67.5" font-family="Helvetica,sans-Serif" font-size="10.00" fill="#000000">::deleteme</text>
</a>
</g>
</g>
<!-- Node34&#45;&gt;Node35 -->
<g id="edge1" class="edge">
<title>Node34&#45;&gt;Node35</title>
<path fill="none" stroke="#191970" d="M108.2512,-62.3417C116.5799,-64.0829 125.2437,-65.8942 133.7553,-67.6736"/>
<polygon fill="#191970" stroke="#191970" points="133.1434,-71.1213 143.6481,-69.7418 134.5759,-64.2694 133.1434,-71.1213"/>
</g>
<!-- Node36 -->
<g id="node3" class="node">
<title>Node36</title>
<g id="a_node3"><a xlink:href="classAsteroids_1_1Domain_1_1Game_1_1Actors_1_1Actor.html#a4e096daf30dca67bcd500fcae7e80979" target="_top" xlink:title="Asteroids::Domain::\lGame::Actors::Actor\l::get_lifetime_ticks">
<polygon fill="#ffffff" stroke="#000000" points="144,-.5 144,-41.5 251,-41.5 251,-.5 144,-.5"/>
<text text-anchor="start" x="152" y="-29.5" font-family="Helvetica,sans-Serif" font-size="10.00" fill="#000000">Asteroids::Domain::</text>
<text text-anchor="start" x="152" y="-18.5" font-family="Helvetica,sans-Serif" font-size="10.00" fill="#000000">Game::Actors::Actor</text>
<text text-anchor="middle" x="197.5" y="-7.5" font-family="Helvetica,sans-Serif" font-size="10.00" fill="#000000">::get_lifetime_ticks</text>
</a>
</g>
</g>
<!-- Node34&#45;&gt;Node36 -->
<g id="edge2" class="edge">
<title>Node34&#45;&gt;Node36</title>
<path fill="none" stroke="#191970" d="M108.2512,-39.6583C116.5799,-37.9171 125.2437,-36.1058 133.7553,-34.3264"/>
<polygon fill="#191970" stroke="#191970" points="134.5759,-37.7306 143.6481,-32.2582 133.1434,-30.8787 134.5759,-37.7306"/>
</g>
</g>
</svg>
