<?xml version="1.0" encoding="UTF-8" standalone="no"?>
<!DOCTYPE svg PUBLIC "-//W3C//DTD SVG 1.1//EN"
 "http://www.w3.org/Graphics/SVG/1.1/DTD/svg11.dtd">
<!-- Generated by graphviz version 2.40.1 (20161225.0304)
 -->
<!-- Title: Asteroids::Domain::Net::Authentication::AuthenticationInterface::attemptLogin Pages: 1 -->
<svg width="664pt" height="61pt"
 viewBox="0.00 0.00 664.00 61.00" xmlns="http://www.w3.org/2000/svg" xmlns:xlink="http://www.w3.org/1999/xlink">
<g id="graph0" class="graph" transform="scale(1 1) rotate(0) translate(4 57)">
<title>Asteroids::Domain::Net::Authentication::AuthenticationInterface::attemptLogin</title>
<polygon fill="#ffffff" stroke="transparent" points="-4,4 -4,-57 660,-57 660,4 -4,4"/>
<!-- Node1 -->
<g id="node1" class="node">
<title>Node1</title>
<polygon fill="#bfbfbf" stroke="#000000" points="0,-.5 0,-52.5 123,-52.5 123,-.5 0,-.5"/>
<text text-anchor="start" x="8" y="-40.5" font-family="Helvetica,sans-Serif" font-size="10.00" fill="#000000">Asteroids::Domain::</text>
<text text-anchor="start" x="8" y="-29.5" font-family="Helvetica,sans-Serif" font-size="10.00" fill="#000000">Net::Authentication</text>
<text text-anchor="start" x="8" y="-18.5" font-family="Helvetica,sans-Serif" font-size="10.00" fill="#000000">::AuthenticationInterface</text>
<text text-anchor="middle" x="61.5" y="-7.5" font-family="Helvetica,sans-Serif" font-size="10.00" fill="#000000">::attemptLogin</text>
</g>
<!-- Node2 -->
<g id="node2" class="node">
<title>Node2</title>
<g id="a_node2"><a xlink:href="classAsteroids_1_1UI_1_1ClientTextUI_1_1ClientTextUI.html#a96251b4d6623fda575f39b84677b0ed5" target="_top" xlink:title="Asteroids::UI::ClientText\lUI::ClientTextUI::do_authentication">
<polygon fill="#ffffff" stroke="#000000" points="159,-11.5 159,-41.5 330,-41.5 330,-11.5 159,-11.5"/>
<text text-anchor="start" x="167" y="-29.5" font-family="Helvetica,sans-Serif" font-size="10.00" fill="#000000">Asteroids::UI::ClientText</text>
<text text-anchor="middle" x="244.5" y="-18.5" font-family="Helvetica,sans-Serif" font-size="10.00" fill="#000000">UI::ClientTextUI::do_authentication</text>
</a>
</g>
</g>
<!-- Node1&#45;&gt;Node2 -->
<g id="edge1" class="edge">
<title>Node1&#45;&gt;Node2</title>
<path fill="none" stroke="#191970" d="M133.2525,-26.5C141.6036,-26.5 150.1851,-26.5 158.7005,-26.5"/>
<polygon fill="#191970" stroke="#191970" points="133.2004,-23.0001 123.2003,-26.5 133.2003,-30.0001 133.2004,-23.0001"/>
</g>
<!-- Node3 -->
<g id="node3" class="node">
<title>Node3</title>
<g id="a_node3"><a xlink:href="classAsteroids_1_1UI_1_1ClientTextUI_1_1ClientTextUI.html#ac3cec81751843b8e8fa503af51b17546" target="_top" xlink:title="Asteroids::UI::ClientText\lUI::ClientTextUI::demand\l_authentication">
<polygon fill="#ffffff" stroke="#000000" points="366,-6 366,-47 495,-47 495,-6 366,-6"/>
<text text-anchor="start" x="374" y="-35" font-family="Helvetica,sans-Serif" font-size="10.00" fill="#000000">Asteroids::UI::ClientText</text>
<text text-anchor="start" x="374" y="-24" font-family="Helvetica,sans-Serif" font-size="10.00" fill="#000000">UI::ClientTextUI::demand</text>
<text text-anchor="middle" x="430.5" y="-13" font-family="Helvetica,sans-Serif" font-size="10.00" fill="#000000">_authentication</text>
</a>
</g>
</g>
<!-- Node2&#45;&gt;Node3 -->
<g id="edge2" class="edge">
<title>Node2&#45;&gt;Node3</title>
<path fill="none" stroke="#191970" d="M340.3077,-26.5C348.9628,-26.5 357.5855,-26.5 365.8755,-26.5"/>
<polygon fill="#191970" stroke="#191970" points="340.1504,-23.0001 330.1504,-26.5 340.1503,-30.0001 340.1504,-23.0001"/>
</g>
<!-- Node4 -->
<g id="node4" class="node">
<title>Node4</title>
<g id="a_node4"><a xlink:href="classAsteroids_1_1UI_1_1ClientTextUI_1_1ClientTextUI.html#a835f455a627e77a5ef99661350281ec3" target="_top" xlink:title="Begin the user interface. ">
<polygon fill="#ffffff" stroke="#000000" points="531,-11.5 531,-41.5 656,-41.5 656,-11.5 531,-11.5"/>
<text text-anchor="start" x="539" y="-29.5" font-family="Helvetica,sans-Serif" font-size="10.00" fill="#000000">Asteroids::UI::ClientText</text>
<text text-anchor="middle" x="593.5" y="-18.5" font-family="Helvetica,sans-Serif" font-size="10.00" fill="#000000">UI::ClientTextUI::run</text>
</a>
</g>
</g>
<!-- Node3&#45;&gt;Node4 -->
<g id="edge3" class="edge">
<title>Node3&#45;&gt;Node4</title>
<path fill="none" stroke="#191970" d="M505.648,-26.5C514.1152,-26.5 522.6744,-26.5 530.957,-26.5"/>
<polygon fill="#191970" stroke="#191970" points="505.3903,-23.0001 495.3903,-26.5 505.3902,-30.0001 505.3903,-23.0001"/>
</g>
</g>
</svg>
