<?xml version="1.0" encoding="UTF-8" standalone="no"?>
<!DOCTYPE svg PUBLIC "-//W3C//DTD SVG 1.1//EN"
 "http://www.w3.org/Graphics/SVG/1.1/DTD/svg11.dtd">
<!-- Generated by graphviz version 2.40.1 (20161225.0304)
 -->
<!-- Title: Asteroids::UI::ClientTextUI::ClientTextUI::print Pages: 1 -->
<!--zoomable 676 -->
<svg id="main" version="1.1" xmlns="http://www.w3.org/2000/svg" xmlns:xlink="http://www.w3.org/1999/xlink" xml:space="preserve" onload="init(evt)">
<style type="text/css"><![CDATA[
.edge:hover path { stroke: red; }
.edge:hover polygon { stroke: red; fill: red; }
]]></style>
<script type="text/javascript"><![CDATA[
var edges = document.getElementsByTagName('g');
if (edges && edges.length) {
  for (var i=0;i<edges.length;i++) {
    if (edges[i].id.substr(0,4)=='edge') {
      edges[i].setAttribute('class','edge');
    }
  }
}
]]></script>
        <defs>
                <circle id="rim" cx="0" cy="0" r="7"/>
                <circle id="rim2" cx="0" cy="0" r="3.5"/>
                <g id="zoomPlus">
                        <use xlink:href="#rim" fill="#404040">
                                <set attributeName="fill" to="#808080" begin="zoomplus.mouseover" end="zoomplus.mouseout"/>
                        </use>
                        <path d="M-4,0h8M0,-4v8" fill="none" stroke="white" stroke-width="1.5" pointer-events="none"/>
                </g>
                <g id="zoomMin">
                        <use xlink:href="#rim" fill="#404040">
                                <set attributeName="fill" to="#808080" begin="zoomminus.mouseover" end="zoomminus.mouseout"/>
                        </use>
                        <path d="M-4,0h8" fill="none" stroke="white" stroke-width="1.5" pointer-events="none"/>
                </g>
                <g id="dirArrow">
                        <path fill="none" stroke="white" stroke-width="1.5" d="M0,-3.0v7 M-2.5,-0.5L0,-3.0L2.5,-0.5"/>
                </g>
               <g id="resetDef">
                       <use xlink:href="#rim2" fill="#404040">
                               <set attributeName="fill" to="#808080" begin="reset.mouseover" end="reset.mouseout"/>
                       </use>
               </g>
        </defs>

<script type="text/javascript">
var viewWidth = 1548;
var viewHeight = 676;
var sectionId = 'dynsection-26';
</script>
<script xlink:href="svgpan.js"/>
<svg id="graph" class="graph">
<g id="viewport">
<title>Asteroids::UI::ClientTextUI::ClientTextUI::print</title>
<polygon fill="#ffffff" stroke="transparent" points="-4,4 -4,-672.4186 1544,-672.4186 1544,4 -4,4"/>
<!-- Node102 -->
<g id="node1" class="node">
<title>Node102</title>
<polygon fill="#bfbfbf" stroke="#000000" points="0,-324 0,-354 125,-354 125,-324 0,-324"/>
<text text-anchor="start" x="8" y="-342" font-family="Helvetica,sans-Serif" font-size="10.00" fill="#000000">Asteroids::UI::ClientText</text>
<text text-anchor="middle" x="62.5" y="-331" font-family="Helvetica,sans-Serif" font-size="10.00" fill="#000000">UI::ClientTextUI::print</text>
</g>
<!-- Node103 -->
<g id="node2" class="node">
<title>Node103</title>
<g id="a_node2"><a xlink:href="classAsteroids_1_1UI_1_1ClientTextUI_1_1ClientTextUI.html#ac3cec81751843b8e8fa503af51b17546" target="_top" xlink:title="Asteroids::UI::ClientText\lUI::ClientTextUI::demand\l_authentication">
<polygon fill="#ffffff" stroke="#000000" points="386.5,-598.5 386.5,-639.5 515.5,-639.5 515.5,-598.5 386.5,-598.5"/>
<text text-anchor="start" x="394.5" y="-627.5" font-family="Helvetica,sans-Serif" font-size="10.00" fill="#000000">Asteroids::UI::ClientText</text>
<text text-anchor="start" x="394.5" y="-616.5" font-family="Helvetica,sans-Serif" font-size="10.00" fill="#000000">UI::ClientTextUI::demand</text>
<text text-anchor="middle" x="451" y="-605.5" font-family="Helvetica,sans-Serif" font-size="10.00" fill="#000000">_authentication</text>
</a>
</g>
</g>
<!-- Node102&#45;&gt;Node103 -->
<g id="edge1" class="edge">
<title>Node102&#45;&gt;Node103</title>
<path fill="none" stroke="#191970" d="M66.8979,-364.1291C79.0148,-430.1515 115.052,-605.725 161,-639 232.2233,-690.5791 340.8464,-662.6761 402.9578,-639.5954"/>
<polygon fill="#191970" stroke="#191970" points="70.32,-363.3838 65.0991,-354.1647 63.4314,-364.6275 70.32,-363.3838"/>
</g>
<!-- Node104 -->
<g id="node3" class="node">
<title>Node104</title>
<g id="a_node3"><a xlink:href="classAsteroids_1_1UI_1_1ClientTextUI_1_1ClientTextUI.html#a835f455a627e77a5ef99661350281ec3" target="_top" xlink:title="Begin the user interface. ">
<polygon fill="#ffffff" stroke="#000000" points="1415,-555 1415,-585 1540,-585 1540,-555 1415,-555"/>
<text text-anchor="start" x="1423" y="-573" font-family="Helvetica,sans-Serif" font-size="10.00" fill="#000000">Asteroids::UI::ClientText</text>
<text text-anchor="middle" x="1477.5" y="-562" font-family="Helvetica,sans-Serif" font-size="10.00" fill="#000000">UI::ClientTextUI::run</text>
</a>
</g>
</g>
<!-- Node102&#45;&gt;Node104 -->
<g id="edge26" class="edge">
<title>Node102&#45;&gt;Node104</title>
<path fill="none" stroke="#191970" d="M67.1795,-364.0684C76.6169,-406.9438 102.2604,-493.7172 161,-535 267.2157,-609.6495 321.1758,-570 451,-570 451,-570 451,-570 1155.5,-570 1245.6432,-570 1349.9814,-570 1414.8676,-570"/>
<polygon fill="#191970" stroke="#191970" points="70.5833,-363.2451 65.1191,-354.1681 63.7301,-364.6715 70.5833,-363.2451"/>
</g>
<!-- Node105 -->
<g id="node4" class="node">
<title>Node105</title>
<g id="a_node4"><a xlink:href="classAsteroids_1_1UI_1_1ClientTextUI_1_1ClientTextUI.html#a96251b4d6623fda575f39b84677b0ed5" target="_top" xlink:title="Asteroids::UI::ClientText\lUI::ClientTextUI::do_authentication">
<polygon fill="#ffffff" stroke="#000000" points="167,-599 167,-629 338,-629 338,-599 167,-599"/>
<text text-anchor="start" x="175" y="-617" font-family="Helvetica,sans-Serif" font-size="10.00" fill="#000000">Asteroids::UI::ClientText</text>
<text text-anchor="middle" x="252.5" y="-606" font-family="Helvetica,sans-Serif" font-size="10.00" fill="#000000">UI::ClientTextUI::do_authentication</text>
</a>
</g>
</g>
<!-- Node102&#45;&gt;Node105 -->
<g id="edge3" class="edge">
<title>Node102&#45;&gt;Node105</title>
<path fill="none" stroke="#191970" d="M65.5773,-364.2202C72.9196,-413.5095 95.9867,-523.1078 161,-584 167.5888,-590.1711 175.4691,-595.0736 183.8031,-598.9681"/>
<polygon fill="#191970" stroke="#191970" points="69.0164,-363.5403 64.1699,-354.119 62.0834,-364.5064 69.0164,-363.5403"/>
</g>
<!-- Node106 -->
<g id="node5" class="node">
<title>Node106</title>
<g id="a_node5"><a xlink:href="classAsteroids_1_1UI_1_1ClientTextUI_1_1ClientTextUI.html#ac6ed983203b9d88a3a7d532eeceac524" target="_top" xlink:title="Asteroids::UI::ClientText\lUI::ClientTextUI::find\l_friends_on_social_media">
<polygon fill="#ffffff" stroke="#000000" points="564.5,-500.5 564.5,-541.5 693.5,-541.5 693.5,-500.5 564.5,-500.5"/>
<text text-anchor="start" x="572.5" y="-529.5" font-family="Helvetica,sans-Serif" font-size="10.00" fill="#000000">Asteroids::UI::ClientText</text>
<text text-anchor="start" x="572.5" y="-518.5" font-family="Helvetica,sans-Serif" font-size="10.00" fill="#000000">UI::ClientTextUI::find</text>
<text text-anchor="middle" x="629" y="-507.5" font-family="Helvetica,sans-Serif" font-size="10.00" fill="#000000">_friends_on_social_media</text>
</a>
</g>
</g>
<!-- Node102&#45;&gt;Node106 -->
<g id="edge5" class="edge">
<title>Node102&#45;&gt;Node106</title>
<path fill="none" stroke="#191970" d="M68.7885,-364.1923C79.9666,-402.979 107.3384,-476.1661 161,-508 227.2359,-547.2934 451.8508,-535.5375 564.0758,-526.7784"/>
<polygon fill="#191970" stroke="#191970" points="72.0761,-362.9463 66.0567,-354.2276 65.3252,-364.7971 72.0761,-362.9463"/>
</g>
<!-- Node107 -->
<g id="node6" class="node">
<title>Node107</title>
<g id="a_node6"><a xlink:href="classAsteroids_1_1UI_1_1ClientTextUI_1_1ClientTextUI.html#a67521714973f97f76618f9598d34d3b8" target="_top" xlink:title="Asteroids::UI::ClientText\lUI::ClientTextUI::main\l_menu_loop">
<polygon fill="#ffffff" stroke="#000000" points="1254,-404.5 1254,-445.5 1379,-445.5 1379,-404.5 1254,-404.5"/>
<text text-anchor="start" x="1262" y="-433.5" font-family="Helvetica,sans-Serif" font-size="10.00" fill="#000000">Asteroids::UI::ClientText</text>
<text text-anchor="start" x="1262" y="-422.5" font-family="Helvetica,sans-Serif" font-size="10.00" fill="#000000">UI::ClientTextUI::main</text>
<text text-anchor="middle" x="1316.5" y="-411.5" font-family="Helvetica,sans-Serif" font-size="10.00" fill="#000000">_menu_loop</text>
</a>
</g>
</g>
<!-- Node102&#45;&gt;Node107 -->
<g id="edge13" class="edge">
<title>Node102&#45;&gt;Node107</title>
<path fill="none" stroke="#191970" d="M71.967,-363.7323C85.8952,-396.1657 115.3111,-451.6774 161,-475 233.441,-511.9786 262.6671,-475.2626 344,-475 550.4477,-474.3333 602.0512,-472 808.5,-472 808.5,-472 808.5,-472 987,-472 1080.6099,-472 1187.6936,-453.1788 1253.7121,-439.3569"/>
<polygon fill="#191970" stroke="#191970" points="75.0359,-361.9935 67.988,-354.0829 68.5645,-364.6621 75.0359,-361.9935"/>
</g>
<!-- Node108 -->
<g id="node7" class="node">
<title>Node108</title>
<g id="a_node7"><a xlink:href="classAsteroids_1_1UI_1_1ClientTextUI_1_1ClientTextUI.html#aaea5f1fccb9aa46a331b15ad2274b319" target="_top" xlink:title="Asteroids::UI::ClientText\lUI::ClientTextUI::handle\l_game_input">
<polygon fill="#ffffff" stroke="#000000" points="190,-424.5 190,-465.5 315,-465.5 315,-424.5 190,-424.5"/>
<text text-anchor="start" x="198" y="-453.5" font-family="Helvetica,sans-Serif" font-size="10.00" fill="#000000">Asteroids::UI::ClientText</text>
<text text-anchor="start" x="198" y="-442.5" font-family="Helvetica,sans-Serif" font-size="10.00" fill="#000000">UI::ClientTextUI::handle</text>
<text text-anchor="middle" x="252.5" y="-431.5" font-family="Helvetica,sans-Serif" font-size="10.00" fill="#000000">_game_input</text>
</a>
</g>
</g>
<!-- Node102&#45;&gt;Node108 -->
<g id="edge8" class="edge">
<title>Node102&#45;&gt;Node108</title>
<path fill="none" stroke="#191970" d="M88.3904,-360.5255C107.5742,-375.7438 134.8222,-395.8702 161,-410 170.7284,-415.2511 181.4155,-420.0919 191.9472,-424.3924"/>
<polygon fill="#191970" stroke="#191970" points="90.4195,-357.666 80.4332,-354.1272 86.0331,-363.1212 90.4195,-357.666"/>
</g>
<!-- Node109 -->
<g id="node8" class="node">
<title>Node109</title>
<g id="a_node8"><a xlink:href="classAsteroids_1_1UI_1_1ClientTextUI_1_1ClientTextUI.html#aa0cb16ae0f3edc7efed1ec8c5d7bf94d" target="_top" xlink:title="Asteroids::UI::ClientText\lUI::ClientTextUI::play_game">
<polygon fill="#ffffff" stroke="#000000" points="380,-410 380,-440 522,-440 522,-410 380,-410"/>
<text text-anchor="start" x="388" y="-428" font-family="Helvetica,sans-Serif" font-size="10.00" fill="#000000">Asteroids::UI::ClientText</text>
<text text-anchor="middle" x="451" y="-417" font-family="Helvetica,sans-Serif" font-size="10.00" fill="#000000">UI::ClientTextUI::play_game</text>
</a>
</g>
</g>
<!-- Node102&#45;&gt;Node109 -->
<g id="edge22" class="edge">
<title>Node102&#45;&gt;Node109</title>
<path fill="none" stroke="#191970" d="M113.0906,-357.4861C128.3529,-362.6448 145.2404,-367.942 161,-372 234.727,-390.9842 320.6863,-405.8008 379.7706,-414.8834"/>
<polygon fill="#191970" stroke="#191970" points="113.9187,-354.0698 103.324,-354.1305 111.6441,-360.69 113.9187,-354.0698"/>
</g>
<!-- Node110 -->
<g id="node9" class="node">
<title>Node110</title>
<g id="a_node9"><a xlink:href="classAsteroids_1_1UI_1_1ClientTextUI_1_1ClientTextUI.html#a9d9c6942f7cf39ddb177df02fbe3e742" target="_top" xlink:title="Asteroids::UI::ClientText\lUI::ClientTextUI::main_menu">
<polygon fill="#ffffff" stroke="#000000" points="736,-348 736,-378 881,-378 881,-348 736,-348"/>
<text text-anchor="start" x="744" y="-366" font-family="Helvetica,sans-Serif" font-size="10.00" fill="#000000">Asteroids::UI::ClientText</text>
<text text-anchor="middle" x="808.5" y="-355" font-family="Helvetica,sans-Serif" font-size="10.00" fill="#000000">UI::ClientTextUI::main_menu</text>
</a>
</g>
</g>
<!-- Node102&#45;&gt;Node110 -->
<g id="edge11" class="edge">
<title>Node102&#45;&gt;Node110</title>
<path fill="none" stroke="#191970" d="M135.5375,-341.3497C278.4066,-345.9461 593.309,-356.077 735.8591,-360.663"/>
<polygon fill="#191970" stroke="#191970" points="135.2476,-337.8387 125.1402,-341.0152 135.0224,-344.8351 135.2476,-337.8387"/>
</g>
<!-- Node111 -->
<g id="node10" class="node">
<title>Node111</title>
<g id="a_node10"><a xlink:href="classAsteroids_1_1UI_1_1ClientTextUI_1_1ClientTextUI.html#a4613a9af03e06c960c467b0b6be44db9" target="_top" xlink:title="Asteroids::UI::ClientText\lUI::ClientTextUI::pay_for\l_store_item">
<polygon fill="#ffffff" stroke="#000000" points="387.5,-250.5 387.5,-291.5 514.5,-291.5 514.5,-250.5 387.5,-250.5"/>
<text text-anchor="start" x="395.5" y="-279.5" font-family="Helvetica,sans-Serif" font-size="10.00" fill="#000000">Asteroids::UI::ClientText</text>
<text text-anchor="start" x="395.5" y="-268.5" font-family="Helvetica,sans-Serif" font-size="10.00" fill="#000000">UI::ClientTextUI::pay_for</text>
<text text-anchor="middle" x="451" y="-257.5" font-family="Helvetica,sans-Serif" font-size="10.00" fill="#000000">_store_item</text>
</a>
</g>
</g>
<!-- Node102&#45;&gt;Node111 -->
<g id="edge14" class="edge">
<title>Node102&#45;&gt;Node111</title>
<path fill="none" stroke="#191970" d="M135.2736,-331.9897C192.3901,-325.8119 273.7251,-315.5213 344,-301 358.1702,-298.0719 373.2214,-294.2846 387.4212,-290.3928"/>
<polygon fill="#191970" stroke="#191970" points="134.8276,-328.5173 125.2551,-333.058 135.5699,-335.4779 134.8276,-328.5173"/>
</g>
<!-- Node112 -->
<g id="node11" class="node">
<title>Node112</title>
<g id="a_node11"><a xlink:href="classAsteroids_1_1UI_1_1ClientTextUI_1_1ClientTextUI.html#a469a7cd3423794fa0ca7c34d95db5a10" target="_top" xlink:title="Asteroids::UI::ClientText\lUI::ClientTextUI::purchasing\l_store_item">
<polygon fill="#ffffff" stroke="#000000" points="558,-212.5 558,-253.5 700,-253.5 700,-212.5 558,-212.5"/>
<text text-anchor="start" x="566" y="-241.5" font-family="Helvetica,sans-Serif" font-size="10.00" fill="#000000">Asteroids::UI::ClientText</text>
<text text-anchor="start" x="566" y="-230.5" font-family="Helvetica,sans-Serif" font-size="10.00" fill="#000000">UI::ClientTextUI::purchasing</text>
<text text-anchor="middle" x="629" y="-219.5" font-family="Helvetica,sans-Serif" font-size="10.00" fill="#000000">_store_item</text>
</a>
</g>
</g>
<!-- Node102&#45;&gt;Node112 -->
<g id="edge23" class="edge">
<title>Node102&#45;&gt;Node112</title>
<path fill="none" stroke="#191970" d="M77.9442,-315.338C95.0227,-291.5365 124.9457,-256.2424 161,-241 292.1711,-185.5459 463.0724,-202.2672 557.8361,-218.3334"/>
<polygon fill="#191970" stroke="#191970" points="74.8743,-313.6225 72.0417,-323.8316 80.6225,-317.6172 74.8743,-313.6225"/>
</g>
<!-- Node113 -->
<g id="node12" class="node">
<title>Node113</title>
<g id="a_node12"><a xlink:href="classAsteroids_1_1UI_1_1ClientTextUI_1_1ClientTextUI.html#a9175792a129c214f55dd0bda9ac36b33" target="_top" xlink:title="Asteroids::UI::ClientText\lUI::ClientTextUI::store\l_offer_available_items">
<polygon fill="#ffffff" stroke="#000000" points="746,-174.5 746,-215.5 871,-215.5 871,-174.5 746,-174.5"/>
<text text-anchor="start" x="754" y="-203.5" font-family="Helvetica,sans-Serif" font-size="10.00" fill="#000000">Asteroids::UI::ClientText</text>
<text text-anchor="start" x="754" y="-192.5" font-family="Helvetica,sans-Serif" font-size="10.00" fill="#000000">UI::ClientTextUI::store</text>
<text text-anchor="middle" x="808.5" y="-181.5" font-family="Helvetica,sans-Serif" font-size="10.00" fill="#000000">_offer_available_items</text>
</a>
</g>
</g>
<!-- Node102&#45;&gt;Node113 -->
<g id="edge31" class="edge">
<title>Node102&#45;&gt;Node113</title>
<path fill="none" stroke="#191970" d="M71.3914,-314.5481C84.939,-281.3803 114.2247,-223.4664 161,-199 261.1719,-146.6038 603.606,-174.0682 745.8085,-188.25"/>
<polygon fill="#191970" stroke="#191970" points="68.084,-313.3951 67.6903,-323.9826 74.6005,-315.9515 68.084,-313.3951"/>
</g>
<!-- Node114 -->
<g id="node13" class="node">
<title>Node114</title>
<g id="a_node13"><a xlink:href="classAsteroids_1_1UI_1_1ClientTextUI_1_1ClientTextUI.html#a66aab545b0cd59af6bec829a1b82be89" target="_top" xlink:title="Asteroids::UI::ClientText\lUI::ClientTextUI::store_loop">
<polygon fill="#ffffff" stroke="#000000" points="917,-159 917,-189 1057,-189 1057,-159 917,-159"/>
<text text-anchor="start" x="925" y="-177" font-family="Helvetica,sans-Serif" font-size="10.00" fill="#000000">Asteroids::UI::ClientText</text>
<text text-anchor="middle" x="987" y="-166" font-family="Helvetica,sans-Serif" font-size="10.00" fill="#000000">UI::ClientTextUI::store_loop</text>
</a>
</g>
</g>
<!-- Node102&#45;&gt;Node114 -->
<g id="edge30" class="edge">
<title>Node102&#45;&gt;Node114</title>
<path fill="none" stroke="#191970" d="M68.5511,-313.8802C79.5149,-274.4609 106.7336,-199.0641 161,-165 270.3979,-96.3287 321.8348,-146 451,-146 451,-146 451,-146 629,-146 729.2157,-146 844.7324,-157.0403 916.8196,-165.2558"/>
<polygon fill="#191970" stroke="#191970" points="65.1125,-313.193 65.937,-323.7557 71.8794,-314.9842 65.1125,-313.193"/>
</g>
<!-- Node115 -->
<g id="node14" class="node">
<title>Node115</title>
<g id="a_node14"><a xlink:href="classAsteroids_1_1UI_1_1ClientTextUI_1_1ClientTextUI.html#ae228a731be242ef0cf88005c2c03acee" target="_top" xlink:title="Asteroids::UI::ClientText\lUI::ClientTextUI::store">
<polygon fill="#ffffff" stroke="#000000" points="1093,-159 1093,-189 1218,-189 1218,-159 1093,-159"/>
<text text-anchor="start" x="1101" y="-177" font-family="Helvetica,sans-Serif" font-size="10.00" fill="#000000">Asteroids::UI::ClientText</text>
<text text-anchor="middle" x="1155.5" y="-166" font-family="Helvetica,sans-Serif" font-size="10.00" fill="#000000">UI::ClientTextUI::store</text>
</a>
</g>
</g>
<!-- Node102&#45;&gt;Node115 -->
<g id="edge29" class="edge">
<title>Node102&#45;&gt;Node115</title>
<path fill="none" stroke="#191970" d="M65.7725,-313.6002C73.253,-267.1405 96.2669,-169.1904 161,-125 214.3164,-88.6033 386.4449,-108 451,-108 451,-108 451,-108 808.5,-108 916.8885,-108 1041.0203,-139.4617 1107.488,-158.941"/>
<polygon fill="#191970" stroke="#191970" points="62.2757,-313.3196 64.2595,-323.7271 69.1988,-314.3541 62.2757,-313.3196"/>
</g>
<!-- Node116 -->
<g id="node15" class="node">
<title>Node116</title>
<g id="a_node15"><a xlink:href="classAsteroids_1_1UI_1_1ClientTextUI_1_1ClientTextUI.html#a02d420d49c44459fe7a2af9b0000adf9" target="_top" xlink:title="Asteroids::UI::ClientText\lUI::ClientTextUI::pay_for\l_store_item_with_credit_card">
<polygon fill="#ffffff" stroke="#000000" points="180.5,-250.5 180.5,-291.5 324.5,-291.5 324.5,-250.5 180.5,-250.5"/>
<text text-anchor="start" x="188.5" y="-279.5" font-family="Helvetica,sans-Serif" font-size="10.00" fill="#000000">Asteroids::UI::ClientText</text>
<text text-anchor="start" x="188.5" y="-268.5" font-family="Helvetica,sans-Serif" font-size="10.00" fill="#000000">UI::ClientTextUI::pay_for</text>
<text text-anchor="middle" x="252.5" y="-257.5" font-family="Helvetica,sans-Serif" font-size="10.00" fill="#000000">_store_item_with_credit_card</text>
</a>
</g>
</g>
<!-- Node102&#45;&gt;Node116 -->
<g id="edge20" class="edge">
<title>Node102&#45;&gt;Node116</title>
<path fill="none" stroke="#191970" d="M114.318,-320.4546C139.278,-311.5216 169.29,-300.7804 194.958,-291.594"/>
<polygon fill="#191970" stroke="#191970" points="112.9029,-317.2436 104.6672,-323.9086 115.2617,-323.8342 112.9029,-317.2436"/>
</g>
<!-- Node117 -->
<g id="node16" class="node">
<title>Node117</title>
<g id="a_node16"><a xlink:href="classAsteroids_1_1UI_1_1ClientTextUI_1_1ClientTextUI.html#a27ec39f73edbb3688a3ebe67533abf5a" target="_top" xlink:title="Asteroids::UI::ClientText\lUI::ClientTextUI::review\l_game_history">
<polygon fill="#ffffff" stroke="#000000" points="388.5,-38.5 388.5,-79.5 513.5,-79.5 513.5,-38.5 388.5,-38.5"/>
<text text-anchor="start" x="396.5" y="-67.5" font-family="Helvetica,sans-Serif" font-size="10.00" fill="#000000">Asteroids::UI::ClientText</text>
<text text-anchor="start" x="396.5" y="-56.5" font-family="Helvetica,sans-Serif" font-size="10.00" fill="#000000">UI::ClientTextUI::review</text>
<text text-anchor="middle" x="451" y="-45.5" font-family="Helvetica,sans-Serif" font-size="10.00" fill="#000000">_game_history</text>
</a>
</g>
</g>
<!-- Node102&#45;&gt;Node117 -->
<g id="edge24" class="edge">
<title>Node102&#45;&gt;Node117</title>
<path fill="none" stroke="#191970" d="M64.4764,-313.6694C69.9137,-262.8335 89.834,-148.5874 161,-94 195.5045,-67.5335 313.929,-60.8202 388.3484,-59.2718"/>
<polygon fill="#191970" stroke="#191970" points="60.9769,-313.4966 63.4989,-323.7869 67.9444,-314.1699 60.9769,-313.4966"/>
</g>
<!-- Node118 -->
<g id="node17" class="node">
<title>Node118</title>
<g id="a_node17"><a xlink:href="classAsteroids_1_1UI_1_1ClientTextUI_1_1ClientTextUI.html#ab0a3f9e22046b77a85dc7771d3502365" target="_top" xlink:title="Asteroids::UI::ClientText\lUI::ClientTextUI::share\l_game_history_entry_to_social_media">
<polygon fill="#ffffff" stroke="#000000" points="161,-.5 161,-41.5 344,-41.5 344,-.5 161,-.5"/>
<text text-anchor="start" x="169" y="-29.5" font-family="Helvetica,sans-Serif" font-size="10.00" fill="#000000">Asteroids::UI::ClientText</text>
<text text-anchor="start" x="169" y="-18.5" font-family="Helvetica,sans-Serif" font-size="10.00" fill="#000000">UI::ClientTextUI::share</text>
<text text-anchor="middle" x="252.5" y="-7.5" font-family="Helvetica,sans-Serif" font-size="10.00" fill="#000000">_game_history_entry_to_social_media</text>
</a>
</g>
</g>
<!-- Node102&#45;&gt;Node118 -->
<g id="edge27" class="edge">
<title>Node102&#45;&gt;Node118</title>
<path fill="none" stroke="#191970" d="M64.3062,-313.6652C69.5118,-259.2311 89.158,-130.0598 161,-56 166.4474,-50.3844 172.8915,-45.6569 179.7982,-41.6795"/>
<polygon fill="#191970" stroke="#191970" points="60.8037,-313.5433 63.4236,-323.809 67.7774,-314.1501 60.8037,-313.5433"/>
</g>
<!-- Node103&#45;&gt;Node104 -->
<g id="edge2" class="edge">
<title>Node103&#45;&gt;Node104</title>
<path fill="none" stroke="#191970" d="M525.9508,-617.0109C598.2818,-615.2643 710.8778,-613 808.5,-613 808.5,-613 808.5,-613 1155.5,-613 1246.3024,-613 1350.2509,-595.9925 1414.8956,-583.3698"/>
<polygon fill="#191970" stroke="#191970" points="525.4892,-613.5211 515.5778,-617.2646 525.6604,-620.519 525.4892,-613.5211"/>
</g>
<!-- Node105&#45;&gt;Node103 -->
<g id="edge4" class="edge">
<title>Node105&#45;&gt;Node103</title>
<path fill="none" stroke="#191970" d="M348.3969,-616.4155C361.2493,-616.7393 374.1768,-617.0649 386.3159,-617.3707"/>
<polygon fill="#191970" stroke="#191970" points="348.2071,-612.9097 338.1221,-616.1567 348.0308,-619.9075 348.2071,-612.9097"/>
</g>
<!-- Node106&#45;&gt;Node107 -->
<g id="edge6" class="edge">
<title>Node106&#45;&gt;Node107</title>
<path fill="none" stroke="#191970" d="M703.6299,-528.0357C817.5373,-536.2533 1040.2697,-542.3285 1218,-486 1245.0359,-477.4314 1272.171,-459.7967 1291.0945,-445.6822"/>
<polygon fill="#191970" stroke="#191970" points="703.851,-524.5426 693.6179,-527.2875 703.3292,-531.5231 703.851,-524.5426"/>
</g>
<!-- Node107&#45;&gt;Node104 -->
<g id="edge7" class="edge">
<title>Node107&#45;&gt;Node104</title>
<path fill="none" stroke="#191970" d="M1347.2594,-452.7025C1380.8622,-482.966 1433.481,-530.3556 1460.3941,-554.594"/>
<polygon fill="#191970" stroke="#191970" points="1349.3403,-449.8665 1339.5674,-445.775 1344.6558,-455.0679 1349.3403,-449.8665"/>
</g>
<!-- Node108&#45;&gt;Node109 -->
<g id="edge9" class="edge">
<title>Node108&#45;&gt;Node109</title>
<path fill="none" stroke="#191970" d="M325.3368,-437.6613C343.1062,-435.8709 362.0938,-433.9578 379.7865,-432.1752"/>
<polygon fill="#191970" stroke="#191970" points="324.6329,-434.2144 315.0342,-438.6993 325.3347,-441.1791 324.6329,-434.2144"/>
</g>
<!-- Node109&#45;&gt;Node107 -->
<g id="edge10" class="edge">
<title>Node109&#45;&gt;Node107</title>
<path fill="none" stroke="#191970" d="M532.6423,-425C605.1029,-425 713.8494,-425 808.5,-425 808.5,-425 808.5,-425 987,-425 1079.9579,-425 1187.6674,-425 1253.9456,-425"/>
<polygon fill="#191970" stroke="#191970" points="532.2207,-421.5001 522.2207,-425 532.2207,-428.5001 532.2207,-421.5001"/>
</g>
<!-- Node110&#45;&gt;Node107 -->
<g id="edge12" class="edge">
<title>Node110&#45;&gt;Node107</title>
<path fill="none" stroke="#191970" d="M891.1575,-372.0872C973.9184,-381.3273 1104.8808,-396.3336 1218,-411 1229.5622,-412.4991 1241.8752,-414.181 1253.7391,-415.845"/>
<polygon fill="#191970" stroke="#191970" points="891.3844,-368.5909 881.0582,-370.9615 890.6089,-375.5478 891.3844,-368.5909"/>
</g>
<!-- Node111&#45;&gt;Node112 -->
<g id="edge15" class="edge">
<title>Node111&#45;&gt;Node112</title>
<path fill="none" stroke="#191970" d="M524.5394,-255.3006C535.5848,-252.9426 546.9578,-250.5146 557.9498,-248.168"/>
<polygon fill="#191970" stroke="#191970" points="523.5571,-251.9313 514.5082,-257.4421 525.0186,-258.7771 523.5571,-251.9313"/>
</g>
<!-- Node112&#45;&gt;Node113 -->
<g id="edge16" class="edge">
<title>Node112&#45;&gt;Node113</title>
<path fill="none" stroke="#191970" d="M710.179,-215.8145C722.1375,-213.2829 734.3008,-210.7079 745.8092,-208.2716"/>
<polygon fill="#191970" stroke="#191970" points="709.2592,-212.4315 700.201,-217.9268 710.7091,-219.2798 709.2592,-212.4315"/>
</g>
<!-- Node113&#45;&gt;Node114 -->
<g id="edge17" class="edge">
<title>Node113&#45;&gt;Node114</title>
<path fill="none" stroke="#191970" d="M881.3614,-186.4281C893.0842,-185.0489 905.1977,-183.6238 916.8549,-182.2524"/>
<polygon fill="#191970" stroke="#191970" points="880.704,-182.9812 871.1814,-187.6257 881.5219,-189.9332 880.704,-182.9812"/>
</g>
<!-- Node114&#45;&gt;Node115 -->
<g id="edge18" class="edge">
<title>Node114&#45;&gt;Node115</title>
<path fill="none" stroke="#191970" d="M1067.7184,-174C1076.1475,-174 1084.6239,-174 1092.8092,-174"/>
<polygon fill="#191970" stroke="#191970" points="1067.4829,-170.5001 1057.4829,-174 1067.4828,-177.5001 1067.4829,-170.5001"/>
</g>
<!-- Node115&#45;&gt;Node107 -->
<g id="edge19" class="edge">
<title>Node115&#45;&gt;Node107</title>
<path fill="none" stroke="#191970" d="M1170.9038,-198.0147C1202.4179,-247.1452 1273.7664,-358.3781 1303.3087,-404.4346"/>
<polygon fill="#191970" stroke="#191970" points="1173.6741,-195.8509 1165.3289,-189.3233 1167.782,-199.6303 1173.6741,-195.8509"/>
</g>
<!-- Node116&#45;&gt;Node111 -->
<g id="edge21" class="edge">
<title>Node116&#45;&gt;Node111</title>
<path fill="none" stroke="#191970" d="M334.9356,-271C352.4483,-271 370.6805,-271 387.3647,-271"/>
<polygon fill="#191970" stroke="#191970" points="334.7246,-267.5001 324.7246,-271 334.7245,-274.5001 334.7246,-267.5001"/>
</g>
<!-- Node117&#45;&gt;Node107 -->
<g id="edge25" class="edge">
<title>Node117&#45;&gt;Node107</title>
<path fill="none" stroke="#191970" d="M523.9882,-60.9416C596.2334,-62.6943 709.9903,-65 808.5,-65 808.5,-65 808.5,-65 987,-65 1096.3965,-65 1140.98,-72.3114 1218,-150 1290.6584,-223.2892 1310.0435,-353.8327 1314.9387,-404.2937"/>
<polygon fill="#191970" stroke="#191970" points="523.72,-57.434 513.637,-60.6873 523.5481,-64.4319 523.72,-57.434"/>
</g>
<!-- Node118&#45;&gt;Node117 -->
<g id="edge28" class="edge">
<title>Node118&#45;&gt;Node117</title>
<path fill="none" stroke="#191970" d="M354.3655,-40.5007C365.9413,-42.7167 377.4696,-44.9237 388.32,-47.0008"/>
<polygon fill="#191970" stroke="#191970" points="354.6762,-36.9967 344.1964,-38.554 353.36,-43.8718 354.6762,-36.9967"/>
</g>
</g>
</svg>
        <g id="navigator" transform="translate(0 0)" fill="#404254">
                <rect fill="#f2f5e9" fill-opacity="0.5" stroke="#606060" stroke-width=".5" x="0" y="0" width="60" height="60"/>
                <use id="zoomplus" xlink:href="#zoomPlus" x="17" y="9" onmousedown="handleZoom(evt,'in')"/>
                <use id="zoomminus" xlink:href="#zoomMin" x="42" y="9" onmousedown="handleZoom(evt,'out')"/>
                <use id="reset" xlink:href="#resetDef" x="30" y="36" onmousedown="handleReset()"/>
                <g id="arrowUp" xlink:href="#dirArrow" transform="translate(30 24)" onmousedown="handlePan(0,-1)">
                  <use xlink:href="#rim" fill="#404040">
                        <set attributeName="fill" to="#808080" begin="arrowUp.mouseover" end="arrowUp.mouseout"/>
                  </use>
                  <path fill="none" stroke="white" stroke-width="1.5" d="M0,-3.0v7 M-2.5,-0.5L0,-3.0L2.5,-0.5"/>
                </g>
                <g id="arrowRight" xlink:href="#dirArrow" transform="rotate(90) translate(36 -43)" onmousedown="handlePan(1,0)">
                  <use xlink:href="#rim" fill="#404040">
                        <set attributeName="fill" to="#808080" begin="arrowRight.mouseover" end="arrowRight.mouseout"/>
                  </use>
                  <path fill="none" stroke="white" stroke-width="1.5" d="M0,-3.0v7 M-2.5,-0.5L0,-3.0L2.5,-0.5"/>
                </g>
                <g id="arrowDown" xlink:href="#dirArrow" transform="rotate(180) translate(-30 -48)" onmousedown="handlePan(0,1)">
                  <use xlink:href="#rim" fill="#404040">
                        <set attributeName="fill" to="#808080" begin="arrowDown.mouseover" end="arrowDown.mouseout"/>
                  </use>
                  <path fill="none" stroke="white" stroke-width="1.5" d="M0,-3.0v7 M-2.5,-0.5L0,-3.0L2.5,-0.5"/>
                </g>
                <g id="arrowLeft" xlink:href="#dirArrow" transform="rotate(270) translate(-36 17)" onmousedown="handlePan(-1,0)">
                  <use xlink:href="#rim" fill="#404040">
                        <set attributeName="fill" to="#808080" begin="arrowLeft.mouseover" end="arrowLeft.mouseout"/>
                  </use>
                  <path fill="none" stroke="white" stroke-width="1.5" d="M0,-3.0v7 M-2.5,-0.5L0,-3.0L2.5,-0.5"/>
                </g>
        </g>
        <svg viewBox="0 0 15 15" width="100%" height="30px" preserveAspectRatio="xMaxYMin meet">
         <g id="arrow_out" transform="scale(0.3 0.3)">
          <a xlink:href="classAsteroids_1_1UI_1_1ClientTextUI_1_1ClientTextUI_a41f904ea570af3e3a8c4d70da8411ef3_icgraph_org.svg" target="_base">
           <rect id="button" ry="5" rx="5" y="6" x="6" height="38" width="38"
                fill="#f2f5e9" fill-opacity="0.5" stroke="#606060" stroke-width="1.0"/>
           <path id="arrow"
             d="M 11.500037,31.436501 C 11.940474,20.09759 22.043105,11.32322 32.158766,21.979434 L 37.068811,17.246167 C 37.068811,17.246167 37.088388,32 37.088388,32 L 22.160133,31.978069 C 22.160133,31.978069 26.997745,27.140456 26.997745,27.140456 C 18.528582,18.264221 13.291696,25.230495 11.500037,31.436501 z"
             style="fill:#404040;"/>
          </a>
         </g>
        </svg>
</svg>
