<?xml version="1.0" encoding="UTF-8" standalone="no"?>
<!DOCTYPE svg PUBLIC "-//W3C//DTD SVG 1.1//EN"
 "http://www.w3.org/Graphics/SVG/1.1/DTD/svg11.dtd">
<!-- Generated by graphviz version 2.40.1 (20161225.0304)
 -->
<!-- Title: Asteroids::UI::ClientTextUI::ClientTextUI::play_game Pages: 1 -->
<!--zoomable 198 -->
<svg id="main" version="1.1" xmlns="http://www.w3.org/2000/svg" xmlns:xlink="http://www.w3.org/1999/xlink" xml:space="preserve" onload="init(evt)">
<style type="text/css"><![CDATA[
.edge:hover path { stroke: red; }
.edge:hover polygon { stroke: red; fill: red; }
]]></style>
<script type="text/javascript"><![CDATA[
var edges = document.getElementsByTagName('g');
if (edges && edges.length) {
  for (var i=0;i<edges.length;i++) {
    if (edges[i].id.substr(0,4)=='edge') {
      edges[i].setAttribute('class','edge');
    }
  }
}
]]></script>
        <defs>
                <circle id="rim" cx="0" cy="0" r="7"/>
                <circle id="rim2" cx="0" cy="0" r="3.5"/>
                <g id="zoomPlus">
                        <use xlink:href="#rim" fill="#404040">
                                <set attributeName="fill" to="#808080" begin="zoomplus.mouseover" end="zoomplus.mouseout"/>
                        </use>
                        <path d="M-4,0h8M0,-4v8" fill="none" stroke="white" stroke-width="1.5" pointer-events="none"/>
                </g>
                <g id="zoomMin">
                        <use xlink:href="#rim" fill="#404040">
                                <set attributeName="fill" to="#808080" begin="zoomminus.mouseover" end="zoomminus.mouseout"/>
                        </use>
                        <path d="M-4,0h8" fill="none" stroke="white" stroke-width="1.5" pointer-events="none"/>
                </g>
                <g id="dirArrow">
                        <path fill="none" stroke="white" stroke-width="1.5" d="M0,-3.0v7 M-2.5,-0.5L0,-3.0L2.5,-0.5"/>
                </g>
               <g id="resetDef">
                       <use xlink:href="#rim2" fill="#404040">
                               <set attributeName="fill" to="#808080" begin="reset.mouseover" end="reset.mouseout"/>
                       </use>
               </g>
        </defs>

<script type="text/javascript">
var viewWidth = 510;
var viewHeight = 198;
var sectionId = 'dynsection-24';
</script>
<script xlink:href="svgpan.js"/>
<svg id="graph" class="graph">
<g id="viewport">
<title>Asteroids::UI::ClientTextUI::ClientTextUI::play_game</title>
<polygon fill="#ffffff" stroke="transparent" points="-4,4 -4,-193.5 506,-193.5 506,4 -4,4"/>
<!-- Node92 -->
<g id="node1" class="node">
<title>Node92</title>
<polygon fill="#bfbfbf" stroke="#000000" points="0,-79 0,-109 142,-109 142,-79 0,-79"/>
<text text-anchor="start" x="8" y="-97" font-family="Helvetica,sans-Serif" font-size="10.00" fill="#000000">Asteroids::UI::ClientText</text>
<text text-anchor="middle" x="71" y="-86" font-family="Helvetica,sans-Serif" font-size="10.00" fill="#000000">UI::ClientTextUI::play_game</text>
</g>
<!-- Node93 -->
<g id="node2" class="node">
<title>Node93</title>
<g id="a_node2"><a xlink:href="classAsteroids_1_1UI_1_1ClientTextUI_1_1ClientTextUI.html#a68028ff6a5b6d38321496c83ff872158" target="_top" xlink:title="Asteroids::UI::ClientText\lUI::ClientTextUI::draw_game">
<polygon fill="#ffffff" stroke="#000000" points="178,-159 178,-189 323,-189 323,-159 178,-159"/>
<text text-anchor="start" x="186" y="-177" font-family="Helvetica,sans-Serif" font-size="10.00" fill="#000000">Asteroids::UI::ClientText</text>
<text text-anchor="middle" x="250.5" y="-166" font-family="Helvetica,sans-Serif" font-size="10.00" fill="#000000">UI::ClientTextUI::draw_game</text>
</a>
</g>
</g>
<!-- Node92&#45;&gt;Node93 -->
<g id="edge1" class="edge">
<title>Node92&#45;&gt;Node93</title>
<path fill="none" stroke="#191970" d="M97.7544,-109.1065C119.095,-120.8229 149.9534,-137.0285 178,-149 183.1277,-151.1887 188.5177,-153.3303 193.9471,-155.3816"/>
<polygon fill="#191970" stroke="#191970" points="193.1205,-158.8066 203.7142,-158.9672 195.5329,-152.2354 193.1205,-158.8066"/>
</g>
<!-- Node95 -->
<g id="node4" class="node">
<title>Node95</title>
<g id="a_node4"><a xlink:href="classAsteroids_1_1UI_1_1ClientTextUI_1_1ClientTextUI.html#aaea5f1fccb9aa46a331b15ad2274b319" target="_top" xlink:title="Asteroids::UI::ClientText\lUI::ClientTextUI::handle\l_game_input">
<polygon fill="#ffffff" stroke="#000000" points="188,-98.5 188,-139.5 313,-139.5 313,-98.5 188,-98.5"/>
<text text-anchor="start" x="196" y="-127.5" font-family="Helvetica,sans-Serif" font-size="10.00" fill="#000000">Asteroids::UI::ClientText</text>
<text text-anchor="start" x="196" y="-116.5" font-family="Helvetica,sans-Serif" font-size="10.00" fill="#000000">UI::ClientTextUI::handle</text>
<text text-anchor="middle" x="250.5" y="-105.5" font-family="Helvetica,sans-Serif" font-size="10.00" fill="#000000">_game_input</text>
</a>
</g>
</g>
<!-- Node92&#45;&gt;Node95 -->
<g id="edge3" class="edge">
<title>Node92&#45;&gt;Node95</title>
<path fill="none" stroke="#191970" d="M142.201,-103.9166C153.8596,-105.5403 165.9548,-107.2249 177.6526,-108.8541"/>
<polygon fill="#191970" stroke="#191970" points="177.422,-112.3557 187.8092,-110.2687 178.3876,-105.4226 177.422,-112.3557"/>
</g>
<!-- Node96 -->
<g id="node5" class="node">
<title>Node96</title>
<g id="a_node5"><a xlink:href="classAsteroids_1_1UI_1_1ClientTextUI_1_1ClientTextUI.html#a41f904ea570af3e3a8c4d70da8411ef3" target="_top" xlink:title="Asteroids::UI::ClientText\lUI::ClientTextUI::print">
<polygon fill="#ffffff" stroke="#000000" points="368,-80 368,-110 493,-110 493,-80 368,-80"/>
<text text-anchor="start" x="376" y="-98" font-family="Helvetica,sans-Serif" font-size="10.00" fill="#000000">Asteroids::UI::ClientText</text>
<text text-anchor="middle" x="430.5" y="-87" font-family="Helvetica,sans-Serif" font-size="10.00" fill="#000000">UI::ClientTextUI::print</text>
</a>
</g>
</g>
<!-- Node92&#45;&gt;Node96 -->
<g id="edge6" class="edge">
<title>Node92&#45;&gt;Node96</title>
<path fill="none" stroke="#191970" d="M142.0651,-90.2136C154.0565,-89.7082 166.3803,-89.2713 178,-89 242.4269,-87.4955 258.5806,-87.2036 323,-89 334.2723,-89.3143 346.2017,-89.8137 357.8526,-90.3935"/>
<polygon fill="#191970" stroke="#191970" points="357.8276,-93.8968 367.996,-90.921 358.1913,-86.9063 357.8276,-93.8968"/>
</g>
<!-- Node97 -->
<g id="node6" class="node">
<title>Node97</title>
<g id="a_node6"><a xlink:href="classAsteroids_1_1UI_1_1ClientTextUI_1_1ClientTextUI.html#a681a6bfc7d4438a4eb3cc146c9117125" target="_top" xlink:title="Asteroids::UI::ClientText\lUI::ClientTextUI::initialize\l_display_grid">
<polygon fill="#ffffff" stroke="#000000" points="185.5,-.5 185.5,-41.5 315.5,-41.5 315.5,-.5 185.5,-.5"/>
<text text-anchor="start" x="193.5" y="-29.5" font-family="Helvetica,sans-Serif" font-size="10.00" fill="#000000">Asteroids::UI::ClientText</text>
<text text-anchor="start" x="193.5" y="-18.5" font-family="Helvetica,sans-Serif" font-size="10.00" fill="#000000">UI::ClientTextUI::initialize</text>
<text text-anchor="middle" x="250.5" y="-7.5" font-family="Helvetica,sans-Serif" font-size="10.00" fill="#000000">_display_grid</text>
</a>
</g>
</g>
<!-- Node92&#45;&gt;Node97 -->
<g id="edge5" class="edge">
<title>Node92&#45;&gt;Node97</title>
<path fill="none" stroke="#191970" d="M108.1925,-78.8744C131.9838,-69.1988 163.3829,-56.4292 190.6331,-45.347"/>
<polygon fill="#191970" stroke="#191970" points="192.1348,-48.5147 200.0795,-41.5053 189.4977,-42.0304 192.1348,-48.5147"/>
</g>
<!-- Node94 -->
<g id="node3" class="node">
<title>Node94</title>
<g id="a_node3"><a xlink:href="classAsteroids_1_1UI_1_1ClientTextUI_1_1ClientTextUI.html#a6157c8167618db7195c35479096620ec" target="_top" xlink:title="Asteroids::UI::ClientText\lUI::ClientTextUI::draw_actor">
<polygon fill="#ffffff" stroke="#000000" points="359,-159 359,-189 502,-189 502,-159 359,-159"/>
<text text-anchor="start" x="367" y="-177" font-family="Helvetica,sans-Serif" font-size="10.00" fill="#000000">Asteroids::UI::ClientText</text>
<text text-anchor="middle" x="430.5" y="-166" font-family="Helvetica,sans-Serif" font-size="10.00" fill="#000000">UI::ClientTextUI::draw_actor</text>
</a>
</g>
</g>
<!-- Node93&#45;&gt;Node94 -->
<g id="edge2" class="edge">
<title>Node93&#45;&gt;Node94</title>
<path fill="none" stroke="#191970" d="M323.194,-174C331.6797,-174 340.3787,-174 348.9737,-174"/>
<polygon fill="#191970" stroke="#191970" points="348.9967,-177.5001 358.9966,-174 348.9966,-170.5001 348.9967,-177.5001"/>
</g>
<!-- Node95&#45;&gt;Node96 -->
<g id="edge4" class="edge">
<title>Node95&#45;&gt;Node96</title>
<path fill="none" stroke="#191970" d="M313.2026,-110.6397C327.5466,-108.7271 342.9124,-106.6784 357.642,-104.7144"/>
<polygon fill="#191970" stroke="#191970" points="358.2678,-108.162 367.7175,-103.371 357.3426,-101.2234 358.2678,-108.162"/>
</g>
</g>
</svg>
        <g id="navigator" transform="translate(0 0)" fill="#404254">
                <rect fill="#f2f5e9" fill-opacity="0.5" stroke="#606060" stroke-width=".5" x="0" y="0" width="60" height="60"/>
                <use id="zoomplus" xlink:href="#zoomPlus" x="17" y="9" onmousedown="handleZoom(evt,'in')"/>
                <use id="zoomminus" xlink:href="#zoomMin" x="42" y="9" onmousedown="handleZoom(evt,'out')"/>
                <use id="reset" xlink:href="#resetDef" x="30" y="36" onmousedown="handleReset()"/>
                <g id="arrowUp" xlink:href="#dirArrow" transform="translate(30 24)" onmousedown="handlePan(0,-1)">
                  <use xlink:href="#rim" fill="#404040">
                        <set attributeName="fill" to="#808080" begin="arrowUp.mouseover" end="arrowUp.mouseout"/>
                  </use>
                  <path fill="none" stroke="white" stroke-width="1.5" d="M0,-3.0v7 M-2.5,-0.5L0,-3.0L2.5,-0.5"/>
                </g>
                <g id="arrowRight" xlink:href="#dirArrow" transform="rotate(90) translate(36 -43)" onmousedown="handlePan(1,0)">
                  <use xlink:href="#rim" fill="#404040">
                        <set attributeName="fill" to="#808080" begin="arrowRight.mouseover" end="arrowRight.mouseout"/>
                  </use>
                  <path fill="none" stroke="white" stroke-width="1.5" d="M0,-3.0v7 M-2.5,-0.5L0,-3.0L2.5,-0.5"/>
                </g>
                <g id="arrowDown" xlink:href="#dirArrow" transform="rotate(180) translate(-30 -48)" onmousedown="handlePan(0,1)">
                  <use xlink:href="#rim" fill="#404040">
                        <set attributeName="fill" to="#808080" begin="arrowDown.mouseover" end="arrowDown.mouseout"/>
                  </use>
                  <path fill="none" stroke="white" stroke-width="1.5" d="M0,-3.0v7 M-2.5,-0.5L0,-3.0L2.5,-0.5"/>
                </g>
                <g id="arrowLeft" xlink:href="#dirArrow" transform="rotate(270) translate(-36 17)" onmousedown="handlePan(-1,0)">
                  <use xlink:href="#rim" fill="#404040">
                        <set attributeName="fill" to="#808080" begin="arrowLeft.mouseover" end="arrowLeft.mouseout"/>
                  </use>
                  <path fill="none" stroke="white" stroke-width="1.5" d="M0,-3.0v7 M-2.5,-0.5L0,-3.0L2.5,-0.5"/>
                </g>
        </g>
        <svg viewBox="0 0 15 15" width="100%" height="30px" preserveAspectRatio="xMaxYMin meet">
         <g id="arrow_out" transform="scale(0.3 0.3)">
          <a xlink:href="classAsteroids_1_1UI_1_1ClientTextUI_1_1ClientTextUI_aa0cb16ae0f3edc7efed1ec8c5d7bf94d_cgraph_org.svg" target="_base">
           <rect id="button" ry="5" rx="5" y="6" x="6" height="38" width="38"
                fill="#f2f5e9" fill-opacity="0.5" stroke="#606060" stroke-width="1.0"/>
           <path id="arrow"
             d="M 11.500037,31.436501 C 11.940474,20.09759 22.043105,11.32322 32.158766,21.979434 L 37.068811,17.246167 C 37.068811,17.246167 37.088388,32 37.088388,32 L 22.160133,31.978069 C 22.160133,31.978069 26.997745,27.140456 26.997745,27.140456 C 18.528582,18.264221 13.291696,25.230495 11.500037,31.436501 z"
             style="fill:#404040;"/>
          </a>
         </g>
        </svg>
</svg>
