<?xml version="1.0" encoding="UTF-8" standalone="no"?>
<!DOCTYPE svg PUBLIC "-//W3C//DTD SVG 1.1//EN"
 "http://www.w3.org/Graphics/SVG/1.1/DTD/svg11.dtd">
<!-- Generated by graphviz version 2.40.1 (20161225.0304)
 -->
<!-- Title: Asteroids::Domain::Game::Actors::Bullet::Bullet Pages: 1 -->
<svg width="1145pt" height="140pt"
 viewBox="0.00 0.00 1145.00 140.00" xmlns="http://www.w3.org/2000/svg" xmlns:xlink="http://www.w3.org/1999/xlink">
<g id="graph0" class="graph" transform="scale(1 1) rotate(0) translate(4 136)">
<title>Asteroids::Domain::Game::Actors::Bullet::Bullet</title>
<polygon fill="#ffffff" stroke="transparent" points="-4,4 -4,-136 1141,-136 1141,4 -4,4"/>
<!-- Node0 -->
<g id="node1" class="node">
<title>Node0</title>
<polygon fill="#bfbfbf" stroke="#000000" points="0,-60.5 0,-101.5 108,-101.5 108,-60.5 0,-60.5"/>
<text text-anchor="start" x="8" y="-89.5" font-family="Helvetica,sans-Serif" font-size="10.00" fill="#000000">Asteroids::Domain::</text>
<text text-anchor="start" x="8" y="-78.5" font-family="Helvetica,sans-Serif" font-size="10.00" fill="#000000">Game::Actors::Bullet</text>
<text text-anchor="middle" x="54" y="-67.5" font-family="Helvetica,sans-Serif" font-size="10.00" fill="#000000">::Bullet</text>
</g>
<!-- Node1 -->
<g id="node2" class="node">
<title>Node1</title>
<g id="a_node2"><a xlink:href="classAsteroids_1_1Domain_1_1Game_1_1Actors_1_1Bullet.html#a1c7b384d298439c581d97f996f067985" target="_top" xlink:title="Asteroids::Domain::\lGame::Actors::Bullet::init">
<polygon fill="#ffffff" stroke="#000000" points="144,-66 144,-96 271,-96 271,-66 144,-66"/>
<text text-anchor="start" x="152" y="-84" font-family="Helvetica,sans-Serif" font-size="10.00" fill="#000000">Asteroids::Domain::</text>
<text text-anchor="middle" x="207.5" y="-73" font-family="Helvetica,sans-Serif" font-size="10.00" fill="#000000">Game::Actors::Bullet::init</text>
</a>
</g>
</g>
<!-- Node0&#45;&gt;Node1 -->
<g id="edge1" class="edge">
<title>Node0&#45;&gt;Node1</title>
<path fill="none" stroke="#191970" d="M108.1184,-81C116.4316,-81 125.1339,-81 133.7848,-81"/>
<polygon fill="#191970" stroke="#191970" points="133.8901,-84.5001 143.89,-81 133.89,-77.5001 133.8901,-84.5001"/>
</g>
<!-- Node2 -->
<g id="node3" class="node">
<title>Node2</title>
<g id="a_node3"><a xlink:href="classAsteroids_1_1Domain_1_1Game_1_1Actors_1_1Bullet.html#ae3837ed471d290688f684e8187e6865e" target="_top" xlink:title="Asteroids::Domain::\lGame::Actors::Bullet\l::reset">
<polygon fill="#ffffff" stroke="#000000" points="307,-60.5 307,-101.5 415,-101.5 415,-60.5 307,-60.5"/>
<text text-anchor="start" x="315" y="-89.5" font-family="Helvetica,sans-Serif" font-size="10.00" fill="#000000">Asteroids::Domain::</text>
<text text-anchor="start" x="315" y="-78.5" font-family="Helvetica,sans-Serif" font-size="10.00" fill="#000000">Game::Actors::Bullet</text>
<text text-anchor="middle" x="361" y="-67.5" font-family="Helvetica,sans-Serif" font-size="10.00" fill="#000000">::reset</text>
</a>
</g>
</g>
<!-- Node1&#45;&gt;Node2 -->
<g id="edge2" class="edge">
<title>Node1&#45;&gt;Node2</title>
<path fill="none" stroke="#191970" d="M271.2643,-81C279.697,-81 288.3451,-81 296.7854,-81"/>
<polygon fill="#191970" stroke="#191970" points="296.9491,-84.5001 306.9491,-81 296.9491,-77.5001 296.9491,-84.5001"/>
</g>
<!-- Node3 -->
<g id="node4" class="node">
<title>Node3</title>
<g id="a_node4"><a xlink:href="classAsteroids_1_1Domain_1_1Game_1_1Actors_1_1Actor.html#a538200753592ca63f7c3348fcece583f" target="_top" xlink:title="Asteroids::Domain::\lGame::Actors::Actor\l::reset">
<polygon fill="#ffffff" stroke="#000000" points="451.5,-90.5 451.5,-131.5 558.5,-131.5 558.5,-90.5 451.5,-90.5"/>
<text text-anchor="start" x="459.5" y="-119.5" font-family="Helvetica,sans-Serif" font-size="10.00" fill="#000000">Asteroids::Domain::</text>
<text text-anchor="start" x="459.5" y="-108.5" font-family="Helvetica,sans-Serif" font-size="10.00" fill="#000000">Game::Actors::Actor</text>
<text text-anchor="middle" x="505" y="-97.5" font-family="Helvetica,sans-Serif" font-size="10.00" fill="#000000">::reset</text>
</a>
</g>
</g>
<!-- Node2&#45;&gt;Node3 -->
<g id="edge3" class="edge">
<title>Node2&#45;&gt;Node3</title>
<path fill="none" stroke="#191970" d="M415.03,-92.2562C423.6116,-94.0441 432.5571,-95.9077 441.335,-97.7365"/>
<polygon fill="#191970" stroke="#191970" points="440.6425,-101.1673 451.1461,-99.7804 442.0702,-94.3144 440.6425,-101.1673"/>
</g>
<!-- Node5 -->
<g id="node6" class="node">
<title>Node5</title>
<g id="a_node6"><a xlink:href="classAsteroids_1_1Domain_1_1Game_1_1Actors_1_1Bullet.html#ae02bb0b6f3886f31ffdf1e51b1735035" target="_top" xlink:title="Asteroids::Domain::\lGame::Actors::Bullet\l::initialize_polygon">
<polygon fill="#ffffff" stroke="#000000" points="451,-30.5 451,-71.5 559,-71.5 559,-30.5 451,-30.5"/>
<text text-anchor="start" x="459" y="-59.5" font-family="Helvetica,sans-Serif" font-size="10.00" fill="#000000">Asteroids::Domain::</text>
<text text-anchor="start" x="459" y="-48.5" font-family="Helvetica,sans-Serif" font-size="10.00" fill="#000000">Game::Actors::Bullet</text>
<text text-anchor="middle" x="505" y="-37.5" font-family="Helvetica,sans-Serif" font-size="10.00" fill="#000000">::initialize_polygon</text>
</a>
</g>
</g>
<!-- Node2&#45;&gt;Node5 -->
<g id="edge5" class="edge">
<title>Node2&#45;&gt;Node5</title>
<path fill="none" stroke="#191970" d="M415.03,-69.7438C423.4046,-67.999 432.1257,-66.1821 440.6995,-64.3959"/>
<polygon fill="#191970" stroke="#191970" points="441.5913,-67.7854 450.6672,-62.3193 440.1635,-60.9325 441.5913,-67.7854"/>
</g>
<!-- Node4 -->
<g id="node5" class="node">
<title>Node4</title>
<g id="a_node5"><a xlink:href="classAsteroids_1_1Domain_1_1Game_1_1Actors_1_1Actor.html#a3678c27cfb63d8b4eb9b0aa64e352ee1" target="_top" xlink:title="Asteroids::Domain::\lGame::Actors::Actor\l::clear_input">
<polygon fill="#ffffff" stroke="#000000" points="595,-90.5 595,-131.5 702,-131.5 702,-90.5 595,-90.5"/>
<text text-anchor="start" x="603" y="-119.5" font-family="Helvetica,sans-Serif" font-size="10.00" fill="#000000">Asteroids::Domain::</text>
<text text-anchor="start" x="603" y="-108.5" font-family="Helvetica,sans-Serif" font-size="10.00" fill="#000000">Game::Actors::Actor</text>
<text text-anchor="middle" x="648.5" y="-97.5" font-family="Helvetica,sans-Serif" font-size="10.00" fill="#000000">::clear_input</text>
</a>
</g>
</g>
<!-- Node3&#45;&gt;Node4 -->
<g id="edge4" class="edge">
<title>Node3&#45;&gt;Node4</title>
<path fill="none" stroke="#191970" d="M558.8424,-111C567.3022,-111 576.1169,-111 584.7739,-111"/>
<polygon fill="#191970" stroke="#191970" points="584.8332,-114.5001 594.8331,-111 584.8331,-107.5001 584.8332,-114.5001"/>
</g>
<!-- Node6 -->
<g id="node7" class="node">
<title>Node6</title>
<g id="a_node7"><a xlink:href="classAsteroids_1_1Domain_1_1Game_1_1Actors_1_1Actor.html#a224abd0a9dff102361ce2a305ba4734f" target="_top" xlink:title="Asteroids::Domain::\lGame::Actors::Actor\l::set_polygon">
<polygon fill="#ffffff" stroke="#000000" points="595,-30.5 595,-71.5 702,-71.5 702,-30.5 595,-30.5"/>
<text text-anchor="start" x="603" y="-59.5" font-family="Helvetica,sans-Serif" font-size="10.00" fill="#000000">Asteroids::Domain::</text>
<text text-anchor="start" x="603" y="-48.5" font-family="Helvetica,sans-Serif" font-size="10.00" fill="#000000">Game::Actors::Actor</text>
<text text-anchor="middle" x="648.5" y="-37.5" font-family="Helvetica,sans-Serif" font-size="10.00" fill="#000000">::set_polygon</text>
</a>
</g>
</g>
<!-- Node5&#45;&gt;Node6 -->
<g id="edge6" class="edge">
<title>Node5&#45;&gt;Node6</title>
<path fill="none" stroke="#191970" d="M559.2512,-51C567.4894,-51 576.0554,-51 584.4777,-51"/>
<polygon fill="#191970" stroke="#191970" points="584.6481,-54.5001 594.6481,-51 584.648,-47.5001 584.6481,-54.5001"/>
</g>
<!-- Node7 -->
<g id="node8" class="node">
<title>Node7</title>
<g id="a_node8"><a xlink:href="classAsteroids_1_1Domain_1_1Game_1_1Actors_1_1Actor.html#a4bb89af7457ff402fa5a4a11d62ab4ca" target="_top" xlink:title="Asteroids::Domain::\lGame::Actors::Actor\l::update_rect">
<polygon fill="#ffffff" stroke="#000000" points="738,-30.5 738,-71.5 845,-71.5 845,-30.5 738,-30.5"/>
<text text-anchor="start" x="746" y="-59.5" font-family="Helvetica,sans-Serif" font-size="10.00" fill="#000000">Asteroids::Domain::</text>
<text text-anchor="start" x="746" y="-48.5" font-family="Helvetica,sans-Serif" font-size="10.00" fill="#000000">Game::Actors::Actor</text>
<text text-anchor="middle" x="791.5" y="-37.5" font-family="Helvetica,sans-Serif" font-size="10.00" fill="#000000">::update_rect</text>
</a>
</g>
</g>
<!-- Node6&#45;&gt;Node7 -->
<g id="edge7" class="edge">
<title>Node6&#45;&gt;Node7</title>
<path fill="none" stroke="#191970" d="M702.1548,-51C710.3808,-51 718.9436,-51 727.3684,-51"/>
<polygon fill="#191970" stroke="#191970" points="727.5445,-54.5001 737.5445,-51 727.5445,-47.5001 727.5445,-54.5001"/>
</g>
<!-- Node8 -->
<g id="node9" class="node">
<title>Node8</title>
<g id="a_node9"><a xlink:href="classAsteroids_1_1Domain_1_1Game_1_1Actors_1_1Rect.html#a0ab06f4fe6e0dbd681c89397f22aa08f" target="_top" xlink:title="Asteroids::Domain::\lGame::Actors::Rect::\ladd_offset">
<polygon fill="#ffffff" stroke="#000000" points="881,-60.5 881,-101.5 991,-101.5 991,-60.5 881,-60.5"/>
<text text-anchor="start" x="889" y="-89.5" font-family="Helvetica,sans-Serif" font-size="10.00" fill="#000000">Asteroids::Domain::</text>
<text text-anchor="start" x="889" y="-78.5" font-family="Helvetica,sans-Serif" font-size="10.00" fill="#000000">Game::Actors::Rect::</text>
<text text-anchor="middle" x="936" y="-67.5" font-family="Helvetica,sans-Serif" font-size="10.00" fill="#000000">add_offset</text>
</a>
</g>
</g>
<!-- Node7&#45;&gt;Node8 -->
<g id="edge8" class="edge">
<title>Node7&#45;&gt;Node8</title>
<path fill="none" stroke="#191970" d="M845.3065,-62.1709C853.6114,-63.8951 862.2648,-65.6917 870.7864,-67.4608"/>
<polygon fill="#191970" stroke="#191970" points="870.1979,-70.9132 880.7006,-69.5192 871.6209,-64.0594 870.1979,-70.9132"/>
</g>
<!-- Node10 -->
<g id="node11" class="node">
<title>Node10</title>
<g id="a_node11"><a xlink:href="classAsteroids_1_1Domain_1_1Game_1_1Actors_1_1Rect.html#a687d0848c13d1b8dfbd2f896636b4145" target="_top" xlink:title="Create a rect from polygon points. ">
<polygon fill="#ffffff" stroke="#000000" points="881,-.5 881,-41.5 991,-41.5 991,-.5 881,-.5"/>
<text text-anchor="start" x="889" y="-29.5" font-family="Helvetica,sans-Serif" font-size="10.00" fill="#000000">Asteroids::Domain::</text>
<text text-anchor="start" x="889" y="-18.5" font-family="Helvetica,sans-Serif" font-size="10.00" fill="#000000">Game::Actors::Rect::</text>
<text text-anchor="middle" x="936" y="-7.5" font-family="Helvetica,sans-Serif" font-size="10.00" fill="#000000">consume_polygon</text>
</a>
</g>
</g>
<!-- Node7&#45;&gt;Node10 -->
<g id="edge10" class="edge">
<title>Node7&#45;&gt;Node10</title>
<path fill="none" stroke="#191970" d="M845.3065,-39.8291C853.6114,-38.1049 862.2648,-36.3083 870.7864,-34.5392"/>
<polygon fill="#191970" stroke="#191970" points="871.6209,-37.9406 880.7006,-32.4808 870.1979,-31.0868 871.6209,-37.9406"/>
</g>
<!-- Node9 -->
<g id="node10" class="node">
<title>Node9</title>
<g id="a_node10"><a xlink:href="classAsteroids_1_1Domain_1_1Game_1_1Actors_1_1Rect.html#a40c593b8be9c243d6cdc30e2f8ee67df" target="_top" xlink:title="Asteroids::Domain::\lGame::Actors::Rect::\lupdate_dimensions">
<polygon fill="#ffffff" stroke="#000000" points="1027,-30.5 1027,-71.5 1137,-71.5 1137,-30.5 1027,-30.5"/>
<text text-anchor="start" x="1035" y="-59.5" font-family="Helvetica,sans-Serif" font-size="10.00" fill="#000000">Asteroids::Domain::</text>
<text text-anchor="start" x="1035" y="-48.5" font-family="Helvetica,sans-Serif" font-size="10.00" fill="#000000">Game::Actors::Rect::</text>
<text text-anchor="middle" x="1082" y="-37.5" font-family="Helvetica,sans-Serif" font-size="10.00" fill="#000000">update_dimensions</text>
</a>
</g>
</g>
<!-- Node8&#45;&gt;Node9 -->
<g id="edge9" class="edge">
<title>Node8&#45;&gt;Node9</title>
<path fill="none" stroke="#191970" d="M991.1963,-69.6583C999.5541,-67.9409 1008.2434,-66.1555 1016.7888,-64.3996"/>
<polygon fill="#191970" stroke="#191970" points="1017.6347,-67.7989 1026.7256,-62.3578 1016.2258,-60.9422 1017.6347,-67.7989"/>
</g>
<!-- Node10&#45;&gt;Node9 -->
<g id="edge11" class="edge">
<title>Node10&#45;&gt;Node9</title>
<path fill="none" stroke="#191970" d="M991.1963,-32.3417C999.5541,-34.0591 1008.2434,-35.8445 1016.7888,-37.6004"/>
<polygon fill="#191970" stroke="#191970" points="1016.2258,-41.0578 1026.7256,-39.6422 1017.6347,-34.2011 1016.2258,-41.0578"/>
</g>
</g>
</svg>
