<?xml version="1.0" encoding="UTF-8" standalone="no"?>
<!DOCTYPE svg PUBLIC "-//W3C//DTD SVG 1.1//EN"
 "http://www.w3.org/Graphics/SVG/1.1/DTD/svg11.dtd">
<!-- Generated by graphviz version 2.40.1 (20161225.0304)
 -->
<!-- Title: Asteroids::UI::ClientTextUI::ClientTextUI::store_offer_available_items Pages: 1 -->
<svg width="815pt" height="150pt"
 viewBox="0.00 0.00 815.00 150.00" xmlns="http://www.w3.org/2000/svg" xmlns:xlink="http://www.w3.org/1999/xlink">
<g id="graph0" class="graph" transform="scale(1 1) rotate(0) translate(4 146)">
<title>Asteroids::UI::ClientTextUI::ClientTextUI::store_offer_available_items</title>
<polygon fill="#ffffff" stroke="transparent" points="-4,4 -4,-146 811,-146 811,4 -4,4"/>
<!-- Node189 -->
<g id="node1" class="node">
<title>Node189</title>
<polygon fill="#bfbfbf" stroke="#000000" points="0,-100.5 0,-141.5 125,-141.5 125,-100.5 0,-100.5"/>
<text text-anchor="start" x="8" y="-129.5" font-family="Helvetica,sans-Serif" font-size="10.00" fill="#000000">Asteroids::UI::ClientText</text>
<text text-anchor="start" x="8" y="-118.5" font-family="Helvetica,sans-Serif" font-size="10.00" fill="#000000">UI::ClientTextUI::store</text>
<text text-anchor="middle" x="62.5" y="-107.5" font-family="Helvetica,sans-Serif" font-size="10.00" fill="#000000">_offer_available_items</text>
</g>
<!-- Node190 -->
<g id="node2" class="node">
<title>Node190</title>
<g id="a_node2"><a xlink:href="classAsteroids_1_1UI_1_1ClientTextUI_1_1ClientTextUI.html#a41f904ea570af3e3a8c4d70da8411ef3" target="_top" xlink:title="Asteroids::UI::ClientText\lUI::ClientTextUI::print">
<polygon fill="#ffffff" stroke="#000000" points="682,-74 682,-104 807,-104 807,-74 682,-74"/>
<text text-anchor="start" x="690" y="-92" font-family="Helvetica,sans-Serif" font-size="10.00" fill="#000000">Asteroids::UI::ClientText</text>
<text text-anchor="middle" x="744.5" y="-81" font-family="Helvetica,sans-Serif" font-size="10.00" fill="#000000">UI::ClientTextUI::print</text>
</a>
</g>
</g>
<!-- Node189&#45;&gt;Node190 -->
<g id="edge1" class="edge">
<title>Node189&#45;&gt;Node190</title>
<path fill="none" stroke="#191970" d="M125.0025,-125.3816C136.9471,-126.0562 149.3554,-126.6457 161,-127 376.6774,-133.5628 431.5878,-129.2326 646,-105 654.3521,-104.0561 663.0762,-102.8952 671.7313,-101.6337"/>
<polygon fill="#191970" stroke="#191970" points="672.4658,-105.0626 681.8336,-100.1134 671.424,-98.1406 672.4658,-105.0626"/>
</g>
<!-- Node191 -->
<g id="node3" class="node">
<title>Node191</title>
<g id="a_node3"><a xlink:href="classAsteroids_1_1UI_1_1ClientTextUI_1_1ClientTextUI.html#a469a7cd3423794fa0ca7c34d95db5a10" target="_top" xlink:title="Asteroids::UI::ClientText\lUI::ClientTextUI::purchasing\l_store_item">
<polygon fill="#ffffff" stroke="#000000" points="161,-76.5 161,-117.5 303,-117.5 303,-76.5 161,-76.5"/>
<text text-anchor="start" x="169" y="-105.5" font-family="Helvetica,sans-Serif" font-size="10.00" fill="#000000">Asteroids::UI::ClientText</text>
<text text-anchor="start" x="169" y="-94.5" font-family="Helvetica,sans-Serif" font-size="10.00" fill="#000000">UI::ClientTextUI::purchasing</text>
<text text-anchor="middle" x="232" y="-83.5" font-family="Helvetica,sans-Serif" font-size="10.00" fill="#000000">_store_item</text>
</a>
</g>
</g>
<!-- Node189&#45;&gt;Node191 -->
<g id="edge2" class="edge">
<title>Node189&#45;&gt;Node191</title>
<path fill="none" stroke="#191970" d="M125.134,-112.1315C133.4711,-110.951 142.1153,-109.727 150.7119,-108.5098"/>
<polygon fill="#191970" stroke="#191970" points="151.3499,-111.9545 160.7605,-107.087 150.3685,-105.0236 151.3499,-111.9545"/>
</g>
<!-- Node191&#45;&gt;Node190 -->
<g id="edge7" class="edge">
<title>Node191&#45;&gt;Node190</title>
<path fill="none" stroke="#191970" d="M303.2609,-95.8876C400.4852,-94.37 573.7842,-91.6648 671.7687,-90.1353"/>
<polygon fill="#191970" stroke="#191970" points="671.9377,-93.6332 681.8818,-89.9775 671.8284,-86.6341 671.9377,-93.6332"/>
</g>
<!-- Node192 -->
<g id="node4" class="node">
<title>Node192</title>
<g id="a_node4"><a xlink:href="classAsteroids_1_1UI_1_1ClientTextUI_1_1ClientTextUI.html#a4613a9af03e06c960c467b0b6be44db9" target="_top" xlink:title="Asteroids::UI::ClientText\lUI::ClientTextUI::pay_for\l_store_item">
<polygon fill="#ffffff" stroke="#000000" points="339,-38.5 339,-79.5 466,-79.5 466,-38.5 339,-38.5"/>
<text text-anchor="start" x="347" y="-67.5" font-family="Helvetica,sans-Serif" font-size="10.00" fill="#000000">Asteroids::UI::ClientText</text>
<text text-anchor="start" x="347" y="-56.5" font-family="Helvetica,sans-Serif" font-size="10.00" fill="#000000">UI::ClientTextUI::pay_for</text>
<text text-anchor="middle" x="402.5" y="-45.5" font-family="Helvetica,sans-Serif" font-size="10.00" fill="#000000">_store_item</text>
</a>
</g>
</g>
<!-- Node191&#45;&gt;Node192 -->
<g id="edge3" class="edge">
<title>Node191&#45;&gt;Node192</title>
<path fill="none" stroke="#191970" d="M303.3194,-81.1048C311.7803,-79.2191 320.4293,-77.2914 328.9208,-75.3989"/>
<polygon fill="#191970" stroke="#191970" points="329.797,-78.7895 338.7962,-73.1979 328.2742,-71.9572 329.797,-78.7895"/>
</g>
<!-- Node192&#45;&gt;Node190 -->
<g id="edge6" class="edge">
<title>Node192&#45;&gt;Node190</title>
<path fill="none" stroke="#191970" d="M466.0261,-64.5725C524.2779,-69.6823 610.512,-77.2467 671.5597,-82.6017"/>
<polygon fill="#191970" stroke="#191970" points="671.624,-86.1207 681.8916,-83.508 672.2358,-79.1475 671.624,-86.1207"/>
</g>
<!-- Node193 -->
<g id="node5" class="node">
<title>Node193</title>
<g id="a_node5"><a xlink:href="classAsteroids_1_1UI_1_1ClientTextUI_1_1ClientTextUI.html#a02d420d49c44459fe7a2af9b0000adf9" target="_top" xlink:title="Asteroids::UI::ClientText\lUI::ClientTextUI::pay_for\l_store_item_with_credit_card">
<polygon fill="#ffffff" stroke="#000000" points="502,-.5 502,-41.5 646,-41.5 646,-.5 502,-.5"/>
<text text-anchor="start" x="510" y="-29.5" font-family="Helvetica,sans-Serif" font-size="10.00" fill="#000000">Asteroids::UI::ClientText</text>
<text text-anchor="start" x="510" y="-18.5" font-family="Helvetica,sans-Serif" font-size="10.00" fill="#000000">UI::ClientTextUI::pay_for</text>
<text text-anchor="middle" x="574" y="-7.5" font-family="Helvetica,sans-Serif" font-size="10.00" fill="#000000">_store_item_with_credit_card</text>
</a>
</g>
</g>
<!-- Node192&#45;&gt;Node193 -->
<g id="edge4" class="edge">
<title>Node192&#45;&gt;Node193</title>
<path fill="none" stroke="#191970" d="M466.3603,-44.8502C474.6427,-43.015 483.217,-41.1152 491.7453,-39.2255"/>
<polygon fill="#191970" stroke="#191970" points="492.7091,-42.5969 501.7152,-37.0165 491.1948,-35.7627 492.7091,-42.5969"/>
</g>
<!-- Node193&#45;&gt;Node190 -->
<g id="edge5" class="edge">
<title>Node193&#45;&gt;Node190</title>
<path fill="none" stroke="#191970" d="M625.6183,-41.5868C648.4143,-50.6784 675.0313,-61.294 697.2938,-70.1729"/>
<polygon fill="#191970" stroke="#191970" points="696.2794,-73.5364 706.8646,-73.99 698.8726,-67.0344 696.2794,-73.5364"/>
</g>
</g>
</svg>
