<?xml version="1.0" encoding="UTF-8" standalone="no"?>
<!DOCTYPE svg PUBLIC "-//W3C//DTD SVG 1.1//EN"
 "http://www.w3.org/Graphics/SVG/1.1/DTD/svg11.dtd">
<!-- Generated by graphviz version 2.40.1 (20161225.0304)
 -->
<!-- Title: Asteroids::Domain::Game::Actors::Bullet::init Pages: 1 -->
<svg width="1001pt" height="140pt"
 viewBox="0.00 0.00 1001.00 140.00" xmlns="http://www.w3.org/2000/svg" xmlns:xlink="http://www.w3.org/1999/xlink">
<g id="graph0" class="graph" transform="scale(1 1) rotate(0) translate(4 136)">
<title>Asteroids::Domain::Game::Actors::Bullet::init</title>
<polygon fill="#ffffff" stroke="transparent" points="-4,4 -4,-136 997,-136 997,4 -4,4"/>
<!-- Node12 -->
<g id="node1" class="node">
<title>Node12</title>
<polygon fill="#bfbfbf" stroke="#000000" points="0,-66 0,-96 127,-96 127,-66 0,-66"/>
<text text-anchor="start" x="8" y="-84" font-family="Helvetica,sans-Serif" font-size="10.00" fill="#000000">Asteroids::Domain::</text>
<text text-anchor="middle" x="63.5" y="-73" font-family="Helvetica,sans-Serif" font-size="10.00" fill="#000000">Game::Actors::Bullet::init</text>
</g>
<!-- Node13 -->
<g id="node2" class="node">
<title>Node13</title>
<g id="a_node2"><a xlink:href="classAsteroids_1_1Domain_1_1Game_1_1Actors_1_1Bullet.html#ae3837ed471d290688f684e8187e6865e" target="_top" xlink:title="Asteroids::Domain::\lGame::Actors::Bullet\l::reset">
<polygon fill="#ffffff" stroke="#000000" points="163,-60.5 163,-101.5 271,-101.5 271,-60.5 163,-60.5"/>
<text text-anchor="start" x="171" y="-89.5" font-family="Helvetica,sans-Serif" font-size="10.00" fill="#000000">Asteroids::Domain::</text>
<text text-anchor="start" x="171" y="-78.5" font-family="Helvetica,sans-Serif" font-size="10.00" fill="#000000">Game::Actors::Bullet</text>
<text text-anchor="middle" x="217" y="-67.5" font-family="Helvetica,sans-Serif" font-size="10.00" fill="#000000">::reset</text>
</a>
</g>
</g>
<!-- Node12&#45;&gt;Node13 -->
<g id="edge1" class="edge">
<title>Node12&#45;&gt;Node13</title>
<path fill="none" stroke="#191970" d="M127.2643,-81C135.697,-81 144.3451,-81 152.7854,-81"/>
<polygon fill="#191970" stroke="#191970" points="152.9491,-84.5001 162.9491,-81 152.9491,-77.5001 152.9491,-84.5001"/>
</g>
<!-- Node14 -->
<g id="node3" class="node">
<title>Node14</title>
<g id="a_node3"><a xlink:href="classAsteroids_1_1Domain_1_1Game_1_1Actors_1_1Actor.html#a538200753592ca63f7c3348fcece583f" target="_top" xlink:title="Asteroids::Domain::\lGame::Actors::Actor\l::reset">
<polygon fill="#ffffff" stroke="#000000" points="307.5,-90.5 307.5,-131.5 414.5,-131.5 414.5,-90.5 307.5,-90.5"/>
<text text-anchor="start" x="315.5" y="-119.5" font-family="Helvetica,sans-Serif" font-size="10.00" fill="#000000">Asteroids::Domain::</text>
<text text-anchor="start" x="315.5" y="-108.5" font-family="Helvetica,sans-Serif" font-size="10.00" fill="#000000">Game::Actors::Actor</text>
<text text-anchor="middle" x="361" y="-97.5" font-family="Helvetica,sans-Serif" font-size="10.00" fill="#000000">::reset</text>
</a>
</g>
</g>
<!-- Node13&#45;&gt;Node14 -->
<g id="edge2" class="edge">
<title>Node13&#45;&gt;Node14</title>
<path fill="none" stroke="#191970" d="M271.03,-92.2562C279.6116,-94.0441 288.5571,-95.9077 297.335,-97.7365"/>
<polygon fill="#191970" stroke="#191970" points="296.6425,-101.1673 307.1461,-99.7804 298.0702,-94.3144 296.6425,-101.1673"/>
</g>
<!-- Node16 -->
<g id="node5" class="node">
<title>Node16</title>
<g id="a_node5"><a xlink:href="classAsteroids_1_1Domain_1_1Game_1_1Actors_1_1Bullet.html#ae02bb0b6f3886f31ffdf1e51b1735035" target="_top" xlink:title="Asteroids::Domain::\lGame::Actors::Bullet\l::initialize_polygon">
<polygon fill="#ffffff" stroke="#000000" points="307,-30.5 307,-71.5 415,-71.5 415,-30.5 307,-30.5"/>
<text text-anchor="start" x="315" y="-59.5" font-family="Helvetica,sans-Serif" font-size="10.00" fill="#000000">Asteroids::Domain::</text>
<text text-anchor="start" x="315" y="-48.5" font-family="Helvetica,sans-Serif" font-size="10.00" fill="#000000">Game::Actors::Bullet</text>
<text text-anchor="middle" x="361" y="-37.5" font-family="Helvetica,sans-Serif" font-size="10.00" fill="#000000">::initialize_polygon</text>
</a>
</g>
</g>
<!-- Node13&#45;&gt;Node16 -->
<g id="edge4" class="edge">
<title>Node13&#45;&gt;Node16</title>
<path fill="none" stroke="#191970" d="M271.03,-69.7438C279.4046,-67.999 288.1257,-66.1821 296.6995,-64.3959"/>
<polygon fill="#191970" stroke="#191970" points="297.5913,-67.7854 306.6672,-62.3193 296.1635,-60.9325 297.5913,-67.7854"/>
</g>
<!-- Node15 -->
<g id="node4" class="node">
<title>Node15</title>
<g id="a_node4"><a xlink:href="classAsteroids_1_1Domain_1_1Game_1_1Actors_1_1Actor.html#a3678c27cfb63d8b4eb9b0aa64e352ee1" target="_top" xlink:title="Asteroids::Domain::\lGame::Actors::Actor\l::clear_input">
<polygon fill="#ffffff" stroke="#000000" points="451,-90.5 451,-131.5 558,-131.5 558,-90.5 451,-90.5"/>
<text text-anchor="start" x="459" y="-119.5" font-family="Helvetica,sans-Serif" font-size="10.00" fill="#000000">Asteroids::Domain::</text>
<text text-anchor="start" x="459" y="-108.5" font-family="Helvetica,sans-Serif" font-size="10.00" fill="#000000">Game::Actors::Actor</text>
<text text-anchor="middle" x="504.5" y="-97.5" font-family="Helvetica,sans-Serif" font-size="10.00" fill="#000000">::clear_input</text>
</a>
</g>
</g>
<!-- Node14&#45;&gt;Node15 -->
<g id="edge3" class="edge">
<title>Node14&#45;&gt;Node15</title>
<path fill="none" stroke="#191970" d="M414.8424,-111C423.3022,-111 432.1169,-111 440.7739,-111"/>
<polygon fill="#191970" stroke="#191970" points="440.8332,-114.5001 450.8331,-111 440.8331,-107.5001 440.8332,-114.5001"/>
</g>
<!-- Node17 -->
<g id="node6" class="node">
<title>Node17</title>
<g id="a_node6"><a xlink:href="classAsteroids_1_1Domain_1_1Game_1_1Actors_1_1Actor.html#a224abd0a9dff102361ce2a305ba4734f" target="_top" xlink:title="Asteroids::Domain::\lGame::Actors::Actor\l::set_polygon">
<polygon fill="#ffffff" stroke="#000000" points="451,-30.5 451,-71.5 558,-71.5 558,-30.5 451,-30.5"/>
<text text-anchor="start" x="459" y="-59.5" font-family="Helvetica,sans-Serif" font-size="10.00" fill="#000000">Asteroids::Domain::</text>
<text text-anchor="start" x="459" y="-48.5" font-family="Helvetica,sans-Serif" font-size="10.00" fill="#000000">Game::Actors::Actor</text>
<text text-anchor="middle" x="504.5" y="-37.5" font-family="Helvetica,sans-Serif" font-size="10.00" fill="#000000">::set_polygon</text>
</a>
</g>
</g>
<!-- Node16&#45;&gt;Node17 -->
<g id="edge5" class="edge">
<title>Node16&#45;&gt;Node17</title>
<path fill="none" stroke="#191970" d="M415.2512,-51C423.4894,-51 432.0554,-51 440.4777,-51"/>
<polygon fill="#191970" stroke="#191970" points="440.6481,-54.5001 450.6481,-51 440.648,-47.5001 440.6481,-54.5001"/>
</g>
<!-- Node18 -->
<g id="node7" class="node">
<title>Node18</title>
<g id="a_node7"><a xlink:href="classAsteroids_1_1Domain_1_1Game_1_1Actors_1_1Actor.html#a4bb89af7457ff402fa5a4a11d62ab4ca" target="_top" xlink:title="Asteroids::Domain::\lGame::Actors::Actor\l::update_rect">
<polygon fill="#ffffff" stroke="#000000" points="594,-30.5 594,-71.5 701,-71.5 701,-30.5 594,-30.5"/>
<text text-anchor="start" x="602" y="-59.5" font-family="Helvetica,sans-Serif" font-size="10.00" fill="#000000">Asteroids::Domain::</text>
<text text-anchor="start" x="602" y="-48.5" font-family="Helvetica,sans-Serif" font-size="10.00" fill="#000000">Game::Actors::Actor</text>
<text text-anchor="middle" x="647.5" y="-37.5" font-family="Helvetica,sans-Serif" font-size="10.00" fill="#000000">::update_rect</text>
</a>
</g>
</g>
<!-- Node17&#45;&gt;Node18 -->
<g id="edge6" class="edge">
<title>Node17&#45;&gt;Node18</title>
<path fill="none" stroke="#191970" d="M558.1548,-51C566.3808,-51 574.9436,-51 583.3684,-51"/>
<polygon fill="#191970" stroke="#191970" points="583.5445,-54.5001 593.5445,-51 583.5445,-47.5001 583.5445,-54.5001"/>
</g>
<!-- Node19 -->
<g id="node8" class="node">
<title>Node19</title>
<g id="a_node8"><a xlink:href="classAsteroids_1_1Domain_1_1Game_1_1Actors_1_1Rect.html#a0ab06f4fe6e0dbd681c89397f22aa08f" target="_top" xlink:title="Asteroids::Domain::\lGame::Actors::Rect::\ladd_offset">
<polygon fill="#ffffff" stroke="#000000" points="737,-60.5 737,-101.5 847,-101.5 847,-60.5 737,-60.5"/>
<text text-anchor="start" x="745" y="-89.5" font-family="Helvetica,sans-Serif" font-size="10.00" fill="#000000">Asteroids::Domain::</text>
<text text-anchor="start" x="745" y="-78.5" font-family="Helvetica,sans-Serif" font-size="10.00" fill="#000000">Game::Actors::Rect::</text>
<text text-anchor="middle" x="792" y="-67.5" font-family="Helvetica,sans-Serif" font-size="10.00" fill="#000000">add_offset</text>
</a>
</g>
</g>
<!-- Node18&#45;&gt;Node19 -->
<g id="edge7" class="edge">
<title>Node18&#45;&gt;Node19</title>
<path fill="none" stroke="#191970" d="M701.3065,-62.1709C709.6114,-63.8951 718.2648,-65.6917 726.7864,-67.4608"/>
<polygon fill="#191970" stroke="#191970" points="726.1979,-70.9132 736.7006,-69.5192 727.6209,-64.0594 726.1979,-70.9132"/>
</g>
<!-- Node21 -->
<g id="node10" class="node">
<title>Node21</title>
<g id="a_node10"><a xlink:href="classAsteroids_1_1Domain_1_1Game_1_1Actors_1_1Rect.html#a687d0848c13d1b8dfbd2f896636b4145" target="_top" xlink:title="Create a rect from polygon points. ">
<polygon fill="#ffffff" stroke="#000000" points="737,-.5 737,-41.5 847,-41.5 847,-.5 737,-.5"/>
<text text-anchor="start" x="745" y="-29.5" font-family="Helvetica,sans-Serif" font-size="10.00" fill="#000000">Asteroids::Domain::</text>
<text text-anchor="start" x="745" y="-18.5" font-family="Helvetica,sans-Serif" font-size="10.00" fill="#000000">Game::Actors::Rect::</text>
<text text-anchor="middle" x="792" y="-7.5" font-family="Helvetica,sans-Serif" font-size="10.00" fill="#000000">consume_polygon</text>
</a>
</g>
</g>
<!-- Node18&#45;&gt;Node21 -->
<g id="edge9" class="edge">
<title>Node18&#45;&gt;Node21</title>
<path fill="none" stroke="#191970" d="M701.3065,-39.8291C709.6114,-38.1049 718.2648,-36.3083 726.7864,-34.5392"/>
<polygon fill="#191970" stroke="#191970" points="727.6209,-37.9406 736.7006,-32.4808 726.1979,-31.0868 727.6209,-37.9406"/>
</g>
<!-- Node20 -->
<g id="node9" class="node">
<title>Node20</title>
<g id="a_node9"><a xlink:href="classAsteroids_1_1Domain_1_1Game_1_1Actors_1_1Rect.html#a40c593b8be9c243d6cdc30e2f8ee67df" target="_top" xlink:title="Asteroids::Domain::\lGame::Actors::Rect::\lupdate_dimensions">
<polygon fill="#ffffff" stroke="#000000" points="883,-30.5 883,-71.5 993,-71.5 993,-30.5 883,-30.5"/>
<text text-anchor="start" x="891" y="-59.5" font-family="Helvetica,sans-Serif" font-size="10.00" fill="#000000">Asteroids::Domain::</text>
<text text-anchor="start" x="891" y="-48.5" font-family="Helvetica,sans-Serif" font-size="10.00" fill="#000000">Game::Actors::Rect::</text>
<text text-anchor="middle" x="938" y="-37.5" font-family="Helvetica,sans-Serif" font-size="10.00" fill="#000000">update_dimensions</text>
</a>
</g>
</g>
<!-- Node19&#45;&gt;Node20 -->
<g id="edge8" class="edge">
<title>Node19&#45;&gt;Node20</title>
<path fill="none" stroke="#191970" d="M847.1963,-69.6583C855.5541,-67.9409 864.2434,-66.1555 872.7888,-64.3996"/>
<polygon fill="#191970" stroke="#191970" points="873.6347,-67.7989 882.7256,-62.3578 872.2258,-60.9422 873.6347,-67.7989"/>
</g>
<!-- Node21&#45;&gt;Node20 -->
<g id="edge10" class="edge">
<title>Node21&#45;&gt;Node20</title>
<path fill="none" stroke="#191970" d="M847.1963,-32.3417C855.5541,-34.0591 864.2434,-35.8445 872.7888,-37.6004"/>
<polygon fill="#191970" stroke="#191970" points="872.2258,-41.0578 882.7256,-39.6422 873.6347,-34.2011 872.2258,-41.0578"/>
</g>
</g>
</svg>
