<?xml version="1.0" encoding="UTF-8" standalone="no"?>
<!DOCTYPE svg PUBLIC "-//W3C//DTD SVG 1.1//EN"
 "http://www.w3.org/Graphics/SVG/1.1/DTD/svg11.dtd">
<!-- Generated by graphviz version 2.40.1 (20161225.0304)
 -->
<!-- Title: Asteroids::Domain::Game::Actors::GunShip::init Pages: 1 -->
<svg width="1040pt" height="200pt"
 viewBox="0.00 0.00 1040.00 200.00" xmlns="http://www.w3.org/2000/svg" xmlns:xlink="http://www.w3.org/1999/xlink">
<g id="graph0" class="graph" transform="scale(1 1) rotate(0) translate(4 196)">
<title>Asteroids::Domain::Game::Actors::GunShip::init</title>
<polygon fill="#ffffff" stroke="transparent" points="-4,4 -4,-196 1036,-196 1036,4 -4,4"/>
<!-- Node15 -->
<g id="node1" class="node">
<title>Node15</title>
<polygon fill="#bfbfbf" stroke="#000000" points="0,-96 0,-126 140,-126 140,-96 0,-96"/>
<text text-anchor="start" x="8" y="-114" font-family="Helvetica,sans-Serif" font-size="10.00" fill="#000000">Asteroids::Domain::</text>
<text text-anchor="middle" x="70" y="-103" font-family="Helvetica,sans-Serif" font-size="10.00" fill="#000000">Game::Actors::GunShip::init</text>
</g>
<!-- Node16 -->
<g id="node2" class="node">
<title>Node16</title>
<g id="a_node2"><a xlink:href="classAsteroids_1_1Domain_1_1Game_1_1Actors_1_1GunShip.html#a753c275a7840962c92cfe4843bcbd6ac" target="_top" xlink:title="Asteroids::Domain::\lGame::Actors::GunShip\l::reset">
<polygon fill="#ffffff" stroke="#000000" points="176,-90.5 176,-131.5 297,-131.5 297,-90.5 176,-90.5"/>
<text text-anchor="start" x="184" y="-119.5" font-family="Helvetica,sans-Serif" font-size="10.00" fill="#000000">Asteroids::Domain::</text>
<text text-anchor="start" x="184" y="-108.5" font-family="Helvetica,sans-Serif" font-size="10.00" fill="#000000">Game::Actors::GunShip</text>
<text text-anchor="middle" x="236.5" y="-97.5" font-family="Helvetica,sans-Serif" font-size="10.00" fill="#000000">::reset</text>
</a>
</g>
</g>
<!-- Node15&#45;&gt;Node16 -->
<g id="edge1" class="edge">
<title>Node15&#45;&gt;Node16</title>
<path fill="none" stroke="#191970" d="M140.1284,-111C148.595,-111 157.2474,-111 165.7232,-111"/>
<polygon fill="#191970" stroke="#191970" points="165.95,-114.5001 175.95,-111 165.9499,-107.5001 165.95,-114.5001"/>
</g>
<!-- Node17 -->
<g id="node3" class="node">
<title>Node17</title>
<g id="a_node3"><a xlink:href="classAsteroids_1_1Domain_1_1Game_1_1Actors_1_1Actor.html#a538200753592ca63f7c3348fcece583f" target="_top" xlink:title="Asteroids::Domain::\lGame::Actors::Actor\l::reset">
<polygon fill="#ffffff" stroke="#000000" points="340,-150.5 340,-191.5 447,-191.5 447,-150.5 340,-150.5"/>
<text text-anchor="start" x="348" y="-179.5" font-family="Helvetica,sans-Serif" font-size="10.00" fill="#000000">Asteroids::Domain::</text>
<text text-anchor="start" x="348" y="-168.5" font-family="Helvetica,sans-Serif" font-size="10.00" fill="#000000">Game::Actors::Actor</text>
<text text-anchor="middle" x="393.5" y="-157.5" font-family="Helvetica,sans-Serif" font-size="10.00" fill="#000000">::reset</text>
</a>
</g>
</g>
<!-- Node16&#45;&gt;Node17 -->
<g id="edge2" class="edge">
<title>Node16&#45;&gt;Node17</title>
<path fill="none" stroke="#191970" d="M290.5305,-131.6486C303.3782,-136.5585 317.1975,-141.8398 330.4104,-146.8893"/>
<polygon fill="#191970" stroke="#191970" points="329.3112,-150.2161 339.9018,-150.5166 331.8101,-143.6773 329.3112,-150.2161"/>
</g>
<!-- Node19 -->
<g id="node5" class="node">
<title>Node19</title>
<g id="a_node5"><a xlink:href="classAsteroids_1_1Domain_1_1Game_1_1Actors_1_1Actor.html#a4dddef94a025aca35e8592aa3aac71e5" target="_top" xlink:title="Asteroids::Domain::\lGame::Actors::Actor\l::set_bullet_speed">
<polygon fill="#ffffff" stroke="#000000" points="340,-90.5 340,-131.5 447,-131.5 447,-90.5 340,-90.5"/>
<text text-anchor="start" x="348" y="-119.5" font-family="Helvetica,sans-Serif" font-size="10.00" fill="#000000">Asteroids::Domain::</text>
<text text-anchor="start" x="348" y="-108.5" font-family="Helvetica,sans-Serif" font-size="10.00" fill="#000000">Game::Actors::Actor</text>
<text text-anchor="middle" x="393.5" y="-97.5" font-family="Helvetica,sans-Serif" font-size="10.00" fill="#000000">::set_bullet_speed</text>
</a>
</g>
</g>
<!-- Node16&#45;&gt;Node19 -->
<g id="edge4" class="edge">
<title>Node16&#45;&gt;Node19</title>
<path fill="none" stroke="#191970" d="M297.2003,-111C307.859,-111 318.9798,-111 329.7194,-111"/>
<polygon fill="#191970" stroke="#191970" points="329.8718,-114.5001 339.8718,-111 329.8717,-107.5001 329.8718,-114.5001"/>
</g>
<!-- Node20 -->
<g id="node6" class="node">
<title>Node20</title>
<g id="a_node6"><a xlink:href="classAsteroids_1_1Domain_1_1Game_1_1Actors_1_1GunShip.html#a4947769593f504d4342abcec5a01330b" target="_top" xlink:title="Asteroids::Domain::\lGame::Actors::GunShip\l::initialize_polygon">
<polygon fill="#ffffff" stroke="#000000" points="333,-30.5 333,-71.5 454,-71.5 454,-30.5 333,-30.5"/>
<text text-anchor="start" x="341" y="-59.5" font-family="Helvetica,sans-Serif" font-size="10.00" fill="#000000">Asteroids::Domain::</text>
<text text-anchor="start" x="341" y="-48.5" font-family="Helvetica,sans-Serif" font-size="10.00" fill="#000000">Game::Actors::GunShip</text>
<text text-anchor="middle" x="393.5" y="-37.5" font-family="Helvetica,sans-Serif" font-size="10.00" fill="#000000">::initialize_polygon</text>
</a>
</g>
</g>
<!-- Node16&#45;&gt;Node20 -->
<g id="edge5" class="edge">
<title>Node16&#45;&gt;Node20</title>
<path fill="none" stroke="#191970" d="M290.5305,-90.3514C303.3068,-85.4687 317.0439,-80.2189 330.1901,-75.1949"/>
<polygon fill="#191970" stroke="#191970" points="331.5443,-78.4243 339.636,-71.585 329.0454,-71.8855 331.5443,-78.4243"/>
</g>
<!-- Node18 -->
<g id="node4" class="node">
<title>Node18</title>
<g id="a_node4"><a xlink:href="classAsteroids_1_1Domain_1_1Game_1_1Actors_1_1Actor.html#a3678c27cfb63d8b4eb9b0aa64e352ee1" target="_top" xlink:title="Asteroids::Domain::\lGame::Actors::Actor\l::clear_input">
<polygon fill="#ffffff" stroke="#000000" points="490,-150.5 490,-191.5 597,-191.5 597,-150.5 490,-150.5"/>
<text text-anchor="start" x="498" y="-179.5" font-family="Helvetica,sans-Serif" font-size="10.00" fill="#000000">Asteroids::Domain::</text>
<text text-anchor="start" x="498" y="-168.5" font-family="Helvetica,sans-Serif" font-size="10.00" fill="#000000">Game::Actors::Actor</text>
<text text-anchor="middle" x="543.5" y="-157.5" font-family="Helvetica,sans-Serif" font-size="10.00" fill="#000000">::clear_input</text>
</a>
</g>
</g>
<!-- Node17&#45;&gt;Node18 -->
<g id="edge3" class="edge">
<title>Node17&#45;&gt;Node18</title>
<path fill="none" stroke="#191970" d="M447.2298,-171C457.7411,-171 468.8601,-171 479.663,-171"/>
<polygon fill="#191970" stroke="#191970" points="479.8934,-174.5001 489.8934,-171 479.8934,-167.5001 479.8934,-174.5001"/>
</g>
<!-- Node21 -->
<g id="node7" class="node">
<title>Node21</title>
<g id="a_node7"><a xlink:href="classAsteroids_1_1Domain_1_1Game_1_1Actors_1_1Actor.html#a224abd0a9dff102361ce2a305ba4734f" target="_top" xlink:title="Asteroids::Domain::\lGame::Actors::Actor\l::set_polygon">
<polygon fill="#ffffff" stroke="#000000" points="490,-30.5 490,-71.5 597,-71.5 597,-30.5 490,-30.5"/>
<text text-anchor="start" x="498" y="-59.5" font-family="Helvetica,sans-Serif" font-size="10.00" fill="#000000">Asteroids::Domain::</text>
<text text-anchor="start" x="498" y="-48.5" font-family="Helvetica,sans-Serif" font-size="10.00" fill="#000000">Game::Actors::Actor</text>
<text text-anchor="middle" x="543.5" y="-37.5" font-family="Helvetica,sans-Serif" font-size="10.00" fill="#000000">::set_polygon</text>
</a>
</g>
</g>
<!-- Node20&#45;&gt;Node21 -->
<g id="edge6" class="edge">
<title>Node20&#45;&gt;Node21</title>
<path fill="none" stroke="#191970" d="M454.0784,-51C462.5181,-51 471.2109,-51 479.7075,-51"/>
<polygon fill="#191970" stroke="#191970" points="479.9439,-54.5001 489.9438,-51 479.9438,-47.5001 479.9439,-54.5001"/>
</g>
<!-- Node22 -->
<g id="node8" class="node">
<title>Node22</title>
<g id="a_node8"><a xlink:href="classAsteroids_1_1Domain_1_1Game_1_1Actors_1_1Actor.html#a4bb89af7457ff402fa5a4a11d62ab4ca" target="_top" xlink:title="Asteroids::Domain::\lGame::Actors::Actor\l::update_rect">
<polygon fill="#ffffff" stroke="#000000" points="633,-30.5 633,-71.5 740,-71.5 740,-30.5 633,-30.5"/>
<text text-anchor="start" x="641" y="-59.5" font-family="Helvetica,sans-Serif" font-size="10.00" fill="#000000">Asteroids::Domain::</text>
<text text-anchor="start" x="641" y="-48.5" font-family="Helvetica,sans-Serif" font-size="10.00" fill="#000000">Game::Actors::Actor</text>
<text text-anchor="middle" x="686.5" y="-37.5" font-family="Helvetica,sans-Serif" font-size="10.00" fill="#000000">::update_rect</text>
</a>
</g>
</g>
<!-- Node21&#45;&gt;Node22 -->
<g id="edge7" class="edge">
<title>Node21&#45;&gt;Node22</title>
<path fill="none" stroke="#191970" d="M597.1548,-51C605.3808,-51 613.9436,-51 622.3684,-51"/>
<polygon fill="#191970" stroke="#191970" points="622.5445,-54.5001 632.5445,-51 622.5445,-47.5001 622.5445,-54.5001"/>
</g>
<!-- Node23 -->
<g id="node9" class="node">
<title>Node23</title>
<g id="a_node9"><a xlink:href="classAsteroids_1_1Domain_1_1Game_1_1Actors_1_1Rect.html#a0ab06f4fe6e0dbd681c89397f22aa08f" target="_top" xlink:title="Asteroids::Domain::\lGame::Actors::Rect::\ladd_offset">
<polygon fill="#ffffff" stroke="#000000" points="776,-60.5 776,-101.5 886,-101.5 886,-60.5 776,-60.5"/>
<text text-anchor="start" x="784" y="-89.5" font-family="Helvetica,sans-Serif" font-size="10.00" fill="#000000">Asteroids::Domain::</text>
<text text-anchor="start" x="784" y="-78.5" font-family="Helvetica,sans-Serif" font-size="10.00" fill="#000000">Game::Actors::Rect::</text>
<text text-anchor="middle" x="831" y="-67.5" font-family="Helvetica,sans-Serif" font-size="10.00" fill="#000000">add_offset</text>
</a>
</g>
</g>
<!-- Node22&#45;&gt;Node23 -->
<g id="edge8" class="edge">
<title>Node22&#45;&gt;Node23</title>
<path fill="none" stroke="#191970" d="M740.3065,-62.1709C748.6114,-63.8951 757.2648,-65.6917 765.7864,-67.4608"/>
<polygon fill="#191970" stroke="#191970" points="765.1979,-70.9132 775.7006,-69.5192 766.6209,-64.0594 765.1979,-70.9132"/>
</g>
<!-- Node25 -->
<g id="node11" class="node">
<title>Node25</title>
<g id="a_node11"><a xlink:href="classAsteroids_1_1Domain_1_1Game_1_1Actors_1_1Rect.html#a687d0848c13d1b8dfbd2f896636b4145" target="_top" xlink:title="Create a rect from polygon points. ">
<polygon fill="#ffffff" stroke="#000000" points="776,-.5 776,-41.5 886,-41.5 886,-.5 776,-.5"/>
<text text-anchor="start" x="784" y="-29.5" font-family="Helvetica,sans-Serif" font-size="10.00" fill="#000000">Asteroids::Domain::</text>
<text text-anchor="start" x="784" y="-18.5" font-family="Helvetica,sans-Serif" font-size="10.00" fill="#000000">Game::Actors::Rect::</text>
<text text-anchor="middle" x="831" y="-7.5" font-family="Helvetica,sans-Serif" font-size="10.00" fill="#000000">consume_polygon</text>
</a>
</g>
</g>
<!-- Node22&#45;&gt;Node25 -->
<g id="edge10" class="edge">
<title>Node22&#45;&gt;Node25</title>
<path fill="none" stroke="#191970" d="M740.3065,-39.8291C748.6114,-38.1049 757.2648,-36.3083 765.7864,-34.5392"/>
<polygon fill="#191970" stroke="#191970" points="766.6209,-37.9406 775.7006,-32.4808 765.1979,-31.0868 766.6209,-37.9406"/>
</g>
<!-- Node24 -->
<g id="node10" class="node">
<title>Node24</title>
<g id="a_node10"><a xlink:href="classAsteroids_1_1Domain_1_1Game_1_1Actors_1_1Rect.html#a40c593b8be9c243d6cdc30e2f8ee67df" target="_top" xlink:title="Asteroids::Domain::\lGame::Actors::Rect::\lupdate_dimensions">
<polygon fill="#ffffff" stroke="#000000" points="922,-30.5 922,-71.5 1032,-71.5 1032,-30.5 922,-30.5"/>
<text text-anchor="start" x="930" y="-59.5" font-family="Helvetica,sans-Serif" font-size="10.00" fill="#000000">Asteroids::Domain::</text>
<text text-anchor="start" x="930" y="-48.5" font-family="Helvetica,sans-Serif" font-size="10.00" fill="#000000">Game::Actors::Rect::</text>
<text text-anchor="middle" x="977" y="-37.5" font-family="Helvetica,sans-Serif" font-size="10.00" fill="#000000">update_dimensions</text>
</a>
</g>
</g>
<!-- Node23&#45;&gt;Node24 -->
<g id="edge9" class="edge">
<title>Node23&#45;&gt;Node24</title>
<path fill="none" stroke="#191970" d="M886.1963,-69.6583C894.5541,-67.9409 903.2434,-66.1555 911.7888,-64.3996"/>
<polygon fill="#191970" stroke="#191970" points="912.6347,-67.7989 921.7256,-62.3578 911.2258,-60.9422 912.6347,-67.7989"/>
</g>
<!-- Node25&#45;&gt;Node24 -->
<g id="edge11" class="edge">
<title>Node25&#45;&gt;Node24</title>
<path fill="none" stroke="#191970" d="M886.1963,-32.3417C894.5541,-34.0591 903.2434,-35.8445 911.7888,-37.6004"/>
<polygon fill="#191970" stroke="#191970" points="911.2258,-41.0578 921.7256,-39.6422 912.6347,-34.2011 911.2258,-41.0578"/>
</g>
</g>
</svg>
