<?xml version="1.0" encoding="UTF-8" standalone="no"?>
<!DOCTYPE svg PUBLIC "-//W3C//DTD SVG 1.1//EN"
 "http://www.w3.org/Graphics/SVG/1.1/DTD/svg11.dtd">
<!-- Generated by graphviz version 2.40.1 (20161225.0304)
 -->
<!-- Title: Asteroids::Domain::Game::Actors::Rect::is_point_within Pages: 1 -->
<svg width="550pt" height="50pt"
 viewBox="0.00 0.00 550.00 50.00" xmlns="http://www.w3.org/2000/svg" xmlns:xlink="http://www.w3.org/1999/xlink">
<g id="graph0" class="graph" transform="scale(1 1) rotate(0) translate(4 46)">
<title>Asteroids::Domain::Game::Actors::Rect::is_point_within</title>
<polygon fill="#ffffff" stroke="transparent" points="-4,4 -4,-46 546,-46 546,4 -4,4"/>
<!-- Node57 -->
<g id="node1" class="node">
<title>Node57</title>
<polygon fill="#bfbfbf" stroke="#000000" points="0,-.5 0,-41.5 110,-41.5 110,-.5 0,-.5"/>
<text text-anchor="start" x="8" y="-29.5" font-family="Helvetica,sans-Serif" font-size="10.00" fill="#000000">Asteroids::Domain::</text>
<text text-anchor="start" x="8" y="-18.5" font-family="Helvetica,sans-Serif" font-size="10.00" fill="#000000">Game::Actors::Rect::</text>
<text text-anchor="middle" x="55" y="-7.5" font-family="Helvetica,sans-Serif" font-size="10.00" fill="#000000">is_point_within</text>
</g>
<!-- Node58 -->
<g id="node2" class="node">
<title>Node58</title>
<g id="a_node2"><a xlink:href="classAsteroids_1_1Domain_1_1Game_1_1Actors_1_1Rect.html#acc14c3d293e2bfd3b55aa6e727457bf0" target="_top" xlink:title="Asteroids::Domain::\lGame::Actors::Rect::\lcollides_with_rect">
<polygon fill="#ffffff" stroke="#000000" points="146,-.5 146,-41.5 256,-41.5 256,-.5 146,-.5"/>
<text text-anchor="start" x="154" y="-29.5" font-family="Helvetica,sans-Serif" font-size="10.00" fill="#000000">Asteroids::Domain::</text>
<text text-anchor="start" x="154" y="-18.5" font-family="Helvetica,sans-Serif" font-size="10.00" fill="#000000">Game::Actors::Rect::</text>
<text text-anchor="middle" x="201" y="-7.5" font-family="Helvetica,sans-Serif" font-size="10.00" fill="#000000">collides_with_rect</text>
</a>
</g>
</g>
<!-- Node57&#45;&gt;Node58 -->
<g id="edge1" class="edge">
<title>Node57&#45;&gt;Node58</title>
<path fill="none" stroke="#191970" d="M120.4101,-21C128.8647,-21 137.4567,-21 145.7256,-21"/>
<polygon fill="#191970" stroke="#191970" points="120.1964,-17.5001 110.1963,-21 120.1963,-24.5001 120.1964,-17.5001"/>
</g>
<!-- Node59 -->
<g id="node3" class="node">
<title>Node59</title>
<g id="a_node3"><a xlink:href="classAsteroids_1_1Domain_1_1Game_1_1Actors_1_1Actor.html#a80d8992f00d8e0056d0287e6076c22a4" target="_top" xlink:title="Asteroids::Domain::\lGame::Actors::Actor\l::check_collision">
<polygon fill="#ffffff" stroke="#000000" points="292,-.5 292,-41.5 399,-41.5 399,-.5 292,-.5"/>
<text text-anchor="start" x="300" y="-29.5" font-family="Helvetica,sans-Serif" font-size="10.00" fill="#000000">Asteroids::Domain::</text>
<text text-anchor="start" x="300" y="-18.5" font-family="Helvetica,sans-Serif" font-size="10.00" fill="#000000">Game::Actors::Actor</text>
<text text-anchor="middle" x="345.5" y="-7.5" font-family="Helvetica,sans-Serif" font-size="10.00" fill="#000000">::check_collision</text>
</a>
</g>
</g>
<!-- Node58&#45;&gt;Node59 -->
<g id="edge2" class="edge">
<title>Node58&#45;&gt;Node59</title>
<path fill="none" stroke="#191970" d="M266.2666,-21C274.7277,-21 283.3177,-21 291.5667,-21"/>
<polygon fill="#191970" stroke="#191970" points="266.0415,-17.5001 256.0415,-21 266.0414,-24.5001 266.0415,-17.5001"/>
</g>
<!-- Node60 -->
<g id="node4" class="node">
<title>Node60</title>
<g id="a_node4"><a xlink:href="classAsteroids_1_1Domain_1_1Game_1_1Actors_1_1Actor.html#aa9baec5098ef0bcc7bb8675881919c7f" target="_top" xlink:title="Asteroids::Domain::\lGame::Actors::Actor\l::check_collision">
<polygon fill="#ffffff" stroke="#000000" points="435,-.5 435,-41.5 542,-41.5 542,-.5 435,-.5"/>
<text text-anchor="start" x="443" y="-29.5" font-family="Helvetica,sans-Serif" font-size="10.00" fill="#000000">Asteroids::Domain::</text>
<text text-anchor="start" x="443" y="-18.5" font-family="Helvetica,sans-Serif" font-size="10.00" fill="#000000">Game::Actors::Actor</text>
<text text-anchor="middle" x="488.5" y="-7.5" font-family="Helvetica,sans-Serif" font-size="10.00" fill="#000000">::check_collision</text>
</a>
</g>
</g>
<!-- Node59&#45;&gt;Node60 -->
<g id="edge3" class="edge">
<title>Node59&#45;&gt;Node60</title>
<path fill="none" stroke="#191970" d="M409.3238,-21C417.7452,-21 426.3103,-21 434.5445,-21"/>
<polygon fill="#191970" stroke="#191970" points="409.1548,-17.5001 399.1548,-21 409.1547,-24.5001 409.1548,-17.5001"/>
</g>
</g>
</svg>
