<?xml version="1.0" encoding="UTF-8" standalone="no"?>
<!DOCTYPE svg PUBLIC "-//W3C//DTD SVG 1.1//EN"
 "http://www.w3.org/Graphics/SVG/1.1/DTD/svg11.dtd">
<!-- Generated by graphviz version 2.40.1 (20161225.0304)
 -->
<!-- Title: Asteroids::UI::ClientTextUI::DisplayGrid::set_pixel Pages: 1 -->
<svg width="995pt" height="149pt"
 viewBox="0.00 0.00 995.00 148.50" xmlns="http://www.w3.org/2000/svg" xmlns:xlink="http://www.w3.org/1999/xlink">
<g id="graph0" class="graph" transform="scale(1 1) rotate(0) translate(4 144.5)">
<title>Asteroids::UI::ClientTextUI::DisplayGrid::set_pixel</title>
<polygon fill="#ffffff" stroke="transparent" points="-4,4 -4,-144.5 991,-144.5 991,4 -4,4"/>
<!-- Node96 -->
<g id="node1" class="node">
<title>Node96</title>
<polygon fill="#bfbfbf" stroke="#000000" points="0,-33 0,-63 129,-63 129,-33 0,-33"/>
<text text-anchor="start" x="8" y="-51" font-family="Helvetica,sans-Serif" font-size="10.00" fill="#000000">Asteroids::UI::ClientText</text>
<text text-anchor="middle" x="64.5" y="-40" font-family="Helvetica,sans-Serif" font-size="10.00" fill="#000000">UI::DisplayGrid::set_pixel</text>
</g>
<!-- Node97 -->
<g id="node2" class="node">
<title>Node97</title>
<g id="a_node2"><a xlink:href="classAsteroids_1_1UI_1_1ClientTextUI_1_1DisplayGrid.html#a8c7048980c9b3443b5cfa20dd16c6935" target="_top" xlink:title="Asteroids::UI::ClientText\lUI::DisplayGrid::add_border">
<polygon fill="#ffffff" stroke="#000000" points="171,-61 171,-91 309,-91 309,-61 171,-61"/>
<text text-anchor="start" x="179" y="-79" font-family="Helvetica,sans-Serif" font-size="10.00" fill="#000000">Asteroids::UI::ClientText</text>
<text text-anchor="middle" x="240" y="-68" font-family="Helvetica,sans-Serif" font-size="10.00" fill="#000000">UI::DisplayGrid::add_border</text>
</a>
</g>
</g>
<!-- Node96&#45;&gt;Node97 -->
<g id="edge1" class="edge">
<title>Node96&#45;&gt;Node97</title>
<path fill="none" stroke="#191970" d="M139.3303,-59.9387C149.8407,-61.6156 160.6039,-63.3328 170.9989,-64.9913"/>
<polygon fill="#191970" stroke="#191970" points="139.7777,-56.4659 129.3511,-58.3466 138.6747,-63.3785 139.7777,-56.4659"/>
</g>
<!-- Node103 -->
<g id="node8" class="node">
<title>Node103</title>
<g id="a_node8"><a xlink:href="classAsteroids_1_1UI_1_1ClientTextUI_1_1DisplayGrid.html#aaf3c070c4d620f5a8420e349f5501bfd" target="_top" xlink:title="Asteroids::UI::ClientText\lUI::DisplayGrid::draw_polygon">
<polygon fill="#ffffff" stroke="#000000" points="165,-9 165,-39 315,-39 315,-9 165,-9"/>
<text text-anchor="start" x="173" y="-27" font-family="Helvetica,sans-Serif" font-size="10.00" fill="#000000">Asteroids::UI::ClientText</text>
<text text-anchor="middle" x="240" y="-16" font-family="Helvetica,sans-Serif" font-size="10.00" fill="#000000">UI::DisplayGrid::draw_polygon</text>
</a>
</g>
</g>
<!-- Node96&#45;&gt;Node103 -->
<g id="edge7" class="edge">
<title>Node96&#45;&gt;Node103</title>
<path fill="none" stroke="#191970" d="M139.4636,-37.7486C147.8359,-36.6036 156.3669,-35.437 164.7428,-34.2916"/>
<polygon fill="#191970" stroke="#191970" points="138.7846,-34.3088 129.3511,-39.1315 139.7331,-41.2442 138.7846,-34.3088"/>
</g>
<!-- Node98 -->
<g id="node3" class="node">
<title>Node98</title>
<g id="a_node3"><a xlink:href="classAsteroids_1_1UI_1_1ClientTextUI_1_1DisplayGrid.html#a7e8af47380bb1c10250090b00b578227" target="_top" xlink:title="Asteroids::UI::ClientText\lUI::DisplayGrid::clear">
<polygon fill="#ffffff" stroke="#000000" points="357,-110 357,-140 482,-140 482,-110 357,-110"/>
<text text-anchor="start" x="365" y="-128" font-family="Helvetica,sans-Serif" font-size="10.00" fill="#000000">Asteroids::UI::ClientText</text>
<text text-anchor="middle" x="419.5" y="-117" font-family="Helvetica,sans-Serif" font-size="10.00" fill="#000000">UI::DisplayGrid::clear</text>
</a>
</g>
</g>
<!-- Node97&#45;&gt;Node98 -->
<g id="edge2" class="edge">
<title>Node97&#45;&gt;Node98</title>
<path fill="none" stroke="#191970" d="M305.0174,-93.7485C324.4716,-99.0591 345.6075,-104.8288 364.3621,-109.9484"/>
<polygon fill="#191970" stroke="#191970" points="305.8893,-90.3585 295.3206,-91.1014 304.0459,-97.1114 305.8893,-90.3585"/>
</g>
<!-- Node99 -->
<g id="node4" class="node">
<title>Node99</title>
<g id="a_node4"><a xlink:href="classAsteroids_1_1UI_1_1ClientTextUI_1_1DisplayGrid.html#aa5b4f98a3eae7f672021228e5f484f54" target="_top" xlink:title="Asteroids::UI::ClientText\lUI::DisplayGrid::clear_grid">
<polygon fill="#ffffff" stroke="#000000" points="353.5,-61 353.5,-91 485.5,-91 485.5,-61 353.5,-61"/>
<text text-anchor="start" x="361.5" y="-79" font-family="Helvetica,sans-Serif" font-size="10.00" fill="#000000">Asteroids::UI::ClientText</text>
<text text-anchor="middle" x="419.5" y="-68" font-family="Helvetica,sans-Serif" font-size="10.00" fill="#000000">UI::DisplayGrid::clear_grid</text>
</a>
</g>
</g>
<!-- Node97&#45;&gt;Node99 -->
<g id="edge3" class="edge">
<title>Node97&#45;&gt;Node99</title>
<path fill="none" stroke="#191970" d="M319.4548,-76C330.7744,-76 342.3153,-76 353.3445,-76"/>
<polygon fill="#191970" stroke="#191970" points="319.1427,-72.5001 309.1426,-76 319.1426,-79.5001 319.1427,-72.5001"/>
</g>
<!-- Node100 -->
<g id="node5" class="node">
<title>Node100</title>
<g id="a_node5"><a xlink:href="classAsteroids_1_1UI_1_1ClientTextUI_1_1DisplayGrid.html#a118e0cad34b68aae5b178bd8e2b344c5" target="_top" xlink:title="Asteroids::UI::ClientText\lUI::DisplayGrid::reset">
<polygon fill="#ffffff" stroke="#000000" points="524,-61 524,-91 649,-91 649,-61 524,-61"/>
<text text-anchor="start" x="532" y="-79" font-family="Helvetica,sans-Serif" font-size="10.00" fill="#000000">Asteroids::UI::ClientText</text>
<text text-anchor="middle" x="586.5" y="-68" font-family="Helvetica,sans-Serif" font-size="10.00" fill="#000000">UI::DisplayGrid::reset</text>
</a>
</g>
</g>
<!-- Node99&#45;&gt;Node100 -->
<g id="edge4" class="edge">
<title>Node99&#45;&gt;Node100</title>
<path fill="none" stroke="#191970" d="M495.6973,-76C505.1593,-76 514.7472,-76 523.9702,-76"/>
<polygon fill="#191970" stroke="#191970" points="495.5029,-72.5001 485.5028,-76 495.5028,-79.5001 495.5029,-72.5001"/>
</g>
<!-- Node101 -->
<g id="node6" class="node">
<title>Node101</title>
<g id="a_node6"><a xlink:href="classAsteroids_1_1UI_1_1ClientTextUI_1_1DisplayGrid.html#a56b4a0b5f6d69ac13c3c7212db3e77b0" target="_top" xlink:title="Asteroids::UI::ClientText\lUI::DisplayGrid::init">
<polygon fill="#ffffff" stroke="#000000" points="685,-61 685,-91 810,-91 810,-61 685,-61"/>
<text text-anchor="start" x="693" y="-79" font-family="Helvetica,sans-Serif" font-size="10.00" fill="#000000">Asteroids::UI::ClientText</text>
<text text-anchor="middle" x="747.5" y="-68" font-family="Helvetica,sans-Serif" font-size="10.00" fill="#000000">UI::DisplayGrid::init</text>
</a>
</g>
</g>
<!-- Node100&#45;&gt;Node101 -->
<g id="edge5" class="edge">
<title>Node100&#45;&gt;Node101</title>
<path fill="none" stroke="#191970" d="M659.2184,-76C667.8129,-76 676.5268,-76 684.9633,-76"/>
<polygon fill="#191970" stroke="#191970" points="659.2078,-72.5001 649.2078,-76 659.2078,-79.5001 659.2078,-72.5001"/>
</g>
<!-- Node102 -->
<g id="node7" class="node">
<title>Node102</title>
<g id="a_node7"><a xlink:href="classAsteroids_1_1UI_1_1ClientTextUI_1_1DisplayGrid.html#a186316077596113cfd3cbb5d0be4922e" target="_top" xlink:title="Asteroids::UI::ClientText\lUI::DisplayGrid::DisplayGrid">
<polygon fill="#ffffff" stroke="#000000" points="846,-61 846,-91 987,-91 987,-61 846,-61"/>
<text text-anchor="start" x="854" y="-79" font-family="Helvetica,sans-Serif" font-size="10.00" fill="#000000">Asteroids::UI::ClientText</text>
<text text-anchor="middle" x="916.5" y="-68" font-family="Helvetica,sans-Serif" font-size="10.00" fill="#000000">UI::DisplayGrid::DisplayGrid</text>
</a>
</g>
</g>
<!-- Node101&#45;&gt;Node102 -->
<g id="edge6" class="edge">
<title>Node101&#45;&gt;Node102</title>
<path fill="none" stroke="#191970" d="M820.5608,-76C828.9478,-76 837.4879,-76 845.8424,-76"/>
<polygon fill="#191970" stroke="#191970" points="820.4294,-72.5001 810.4294,-76 820.4293,-79.5001 820.4294,-72.5001"/>
</g>
<!-- Node104 -->
<g id="node9" class="node">
<title>Node104</title>
<g id="a_node9"><a xlink:href="classAsteroids_1_1UI_1_1ClientTextUI_1_1DisplayGrid.html#a54cc7e12266f854d8047e99b7f547f22" target="_top" xlink:title="Asteroids::UI::ClientText\lUI::DisplayGrid::draw_filled\l_polygon">
<polygon fill="#ffffff" stroke="#000000" points="351,-.5 351,-41.5 488,-41.5 488,-.5 351,-.5"/>
<text text-anchor="start" x="359" y="-29.5" font-family="Helvetica,sans-Serif" font-size="10.00" fill="#000000">Asteroids::UI::ClientText</text>
<text text-anchor="start" x="359" y="-18.5" font-family="Helvetica,sans-Serif" font-size="10.00" fill="#000000">UI::DisplayGrid::draw_filled</text>
<text text-anchor="middle" x="419.5" y="-7.5" font-family="Helvetica,sans-Serif" font-size="10.00" fill="#000000">_polygon</text>
</a>
</g>
</g>
<!-- Node103&#45;&gt;Node104 -->
<g id="edge8" class="edge">
<title>Node103&#45;&gt;Node104</title>
<path fill="none" stroke="#191970" d="M325.1182,-22.5774C333.704,-22.4339 342.3464,-22.2895 350.7302,-22.1494"/>
<polygon fill="#191970" stroke="#191970" points="325.0242,-19.0784 315.0841,-22.7451 325.1412,-26.0774 325.0242,-19.0784"/>
</g>
</g>
</svg>
