<?xml version="1.0" encoding="UTF-8" standalone="no"?>
<!DOCTYPE svg PUBLIC "-//W3C//DTD SVG 1.1//EN"
 "http://www.w3.org/Graphics/SVG/1.1/DTD/svg11.dtd">
<!-- Generated by graphviz version 2.40.1 (20161225.0304)
 -->
<!-- Title: Asteroids::Domain::Game::Actors::Actor::set_bullet_speed Pages: 1 -->
<svg width="605pt" height="50pt"
 viewBox="0.00 0.00 605.00 50.00" xmlns="http://www.w3.org/2000/svg" xmlns:xlink="http://www.w3.org/1999/xlink">
<g id="graph0" class="graph" transform="scale(1 1) rotate(0) translate(4 46)">
<title>Asteroids::Domain::Game::Actors::Actor::set_bullet_speed</title>
<polygon fill="#ffffff" stroke="transparent" points="-4,4 -4,-46 601,-46 601,4 -4,4"/>
<!-- Node110 -->
<g id="node1" class="node">
<title>Node110</title>
<polygon fill="#bfbfbf" stroke="#000000" points="0,-.5 0,-41.5 107,-41.5 107,-.5 0,-.5"/>
<text text-anchor="start" x="8" y="-29.5" font-family="Helvetica,sans-Serif" font-size="10.00" fill="#000000">Asteroids::Domain::</text>
<text text-anchor="start" x="8" y="-18.5" font-family="Helvetica,sans-Serif" font-size="10.00" fill="#000000">Game::Actors::Actor</text>
<text text-anchor="middle" x="53.5" y="-7.5" font-family="Helvetica,sans-Serif" font-size="10.00" fill="#000000">::set_bullet_speed</text>
</g>
<!-- Node111 -->
<g id="node2" class="node">
<title>Node111</title>
<g id="a_node2"><a xlink:href="classAsteroids_1_1Domain_1_1Game_1_1Actors_1_1GunShip.html#a753c275a7840962c92cfe4843bcbd6ac" target="_top" xlink:title="Asteroids::Domain::\lGame::Actors::GunShip\l::reset">
<polygon fill="#ffffff" stroke="#000000" points="143,-.5 143,-41.5 264,-41.5 264,-.5 143,-.5"/>
<text text-anchor="start" x="151" y="-29.5" font-family="Helvetica,sans-Serif" font-size="10.00" fill="#000000">Asteroids::Domain::</text>
<text text-anchor="start" x="151" y="-18.5" font-family="Helvetica,sans-Serif" font-size="10.00" fill="#000000">Game::Actors::GunShip</text>
<text text-anchor="middle" x="203.5" y="-7.5" font-family="Helvetica,sans-Serif" font-size="10.00" fill="#000000">::reset</text>
</a>
</g>
</g>
<!-- Node110&#45;&gt;Node111 -->
<g id="edge1" class="edge">
<title>Node110&#45;&gt;Node111</title>
<path fill="none" stroke="#191970" d="M117.3705,-21C125.7859,-21 134.3924,-21 142.7536,-21"/>
<polygon fill="#191970" stroke="#191970" points="117.2298,-17.5001 107.2298,-21 117.2297,-24.5001 117.2298,-17.5001"/>
</g>
<!-- Node112 -->
<g id="node3" class="node">
<title>Node112</title>
<g id="a_node3"><a xlink:href="classAsteroids_1_1Domain_1_1Game_1_1Actors_1_1GunShip.html#ad5c14269f0503e045f03f265f9019e95" target="_top" xlink:title="Asteroids::Domain::\lGame::Actors::GunShip::init">
<polygon fill="#ffffff" stroke="#000000" points="300,-6 300,-36 440,-36 440,-6 300,-6"/>
<text text-anchor="start" x="308" y="-24" font-family="Helvetica,sans-Serif" font-size="10.00" fill="#000000">Asteroids::Domain::</text>
<text text-anchor="middle" x="370" y="-13" font-family="Helvetica,sans-Serif" font-size="10.00" fill="#000000">Game::Actors::GunShip::init</text>
</a>
</g>
</g>
<!-- Node111&#45;&gt;Node112 -->
<g id="edge2" class="edge">
<title>Node111&#45;&gt;Node112</title>
<path fill="none" stroke="#191970" d="M274.2961,-21C282.7617,-21 291.403,-21 299.8593,-21"/>
<polygon fill="#191970" stroke="#191970" points="274.0814,-17.5001 264.0813,-21 274.0813,-24.5001 274.0814,-17.5001"/>
</g>
<!-- Node113 -->
<g id="node4" class="node">
<title>Node113</title>
<g id="a_node4"><a xlink:href="classAsteroids_1_1Domain_1_1Game_1_1Actors_1_1GunShip.html#a4e6a5de697b5a88bf3942165397cd27b" target="_top" xlink:title="Asteroids::Domain::\lGame::Actors::GunShip\l::GunShip">
<polygon fill="#ffffff" stroke="#000000" points="476,-.5 476,-41.5 597,-41.5 597,-.5 476,-.5"/>
<text text-anchor="start" x="484" y="-29.5" font-family="Helvetica,sans-Serif" font-size="10.00" fill="#000000">Asteroids::Domain::</text>
<text text-anchor="start" x="484" y="-18.5" font-family="Helvetica,sans-Serif" font-size="10.00" fill="#000000">Game::Actors::GunShip</text>
<text text-anchor="middle" x="536.5" y="-7.5" font-family="Helvetica,sans-Serif" font-size="10.00" fill="#000000">::GunShip</text>
</a>
</g>
</g>
<!-- Node112&#45;&gt;Node113 -->
<g id="edge3" class="edge">
<title>Node112&#45;&gt;Node113</title>
<path fill="none" stroke="#191970" d="M450.2415,-21C458.8924,-21 467.5866,-21 475.95,-21"/>
<polygon fill="#191970" stroke="#191970" points="450.1285,-17.5001 440.1284,-21 450.1284,-24.5001 450.1285,-17.5001"/>
</g>
</g>
</svg>
