<?xml version="1.0" encoding="UTF-8" standalone="no"?>
<!DOCTYPE svg PUBLIC "-//W3C//DTD SVG 1.1//EN"
 "http://www.w3.org/Graphics/SVG/1.1/DTD/svg11.dtd">
<!-- Generated by graphviz version 2.40.1 (20161225.0304)
 -->
<!-- Title: Asteroids::Domain::Game::Game::update Pages: 1 -->
<svg width="967pt" height="242pt"
 viewBox="0.00 0.00 967.00 241.59" xmlns="http://www.w3.org/2000/svg" xmlns:xlink="http://www.w3.org/1999/xlink">
<g id="graph0" class="graph" transform="scale(1 1) rotate(0) translate(4 237.5918)">
<title>Asteroids::Domain::Game::Game::update</title>
<polygon fill="#ffffff" stroke="transparent" points="-4,4 -4,-237.5918 963,-237.5918 963,4 -4,4"/>
<!-- Node101 -->
<g id="node1" class="node">
<title>Node101</title>
<polygon fill="#bfbfbf" stroke="#000000" points="0,-110 0,-140 110,-140 110,-110 0,-110"/>
<text text-anchor="start" x="8" y="-128" font-family="Helvetica,sans-Serif" font-size="10.00" fill="#000000">Asteroids::Domain::</text>
<text text-anchor="middle" x="55" y="-117" font-family="Helvetica,sans-Serif" font-size="10.00" fill="#000000">Game::Game::update</text>
</g>
<!-- Node102 -->
<g id="node2" class="node">
<title>Node102</title>
<g id="a_node2"><a xlink:href="classAsteroids_1_1Domain_1_1Game_1_1Game.html#af8a67c4af1521c3184e873f79aad17f3" target="_top" xlink:title="Asteroids::Domain::\lGame::Game::calculate\l_ticks_since_last_update">
<polygon fill="#ffffff" stroke="#000000" points="345.5,-188.5 345.5,-229.5 472.5,-229.5 472.5,-188.5 345.5,-188.5"/>
<text text-anchor="start" x="353.5" y="-217.5" font-family="Helvetica,sans-Serif" font-size="10.00" fill="#000000">Asteroids::Domain::</text>
<text text-anchor="start" x="353.5" y="-206.5" font-family="Helvetica,sans-Serif" font-size="10.00" fill="#000000">Game::Game::calculate</text>
<text text-anchor="middle" x="409" y="-195.5" font-family="Helvetica,sans-Serif" font-size="10.00" fill="#000000">_ticks_since_last_update</text>
</a>
</g>
</g>
<!-- Node101&#45;&gt;Node102 -->
<g id="edge1" class="edge">
<title>Node101&#45;&gt;Node102</title>
<path fill="none" stroke="#191970" d="M64.5174,-140.0667C79.0458,-161.4781 109.0061,-199.7962 146,-215 206.2485,-239.761 280.9966,-235.0699 335.388,-226.0581"/>
<polygon fill="#191970" stroke="#191970" points="336.0483,-229.4959 345.2991,-224.3313 334.8467,-222.5998 336.0483,-229.4959"/>
</g>
<!-- Node104 -->
<g id="node4" class="node">
<title>Node104</title>
<g id="a_node4"><a xlink:href="classAsteroids_1_1Domain_1_1Game_1_1Game.html#a594494581cf464eafb2842cb98387819" target="_top" xlink:title="Asteroids::Domain::\lGame::Game::keep_actors\l_in_bounds">
<polygon fill="#ffffff" stroke="#000000" points="160.5,-104.5 160.5,-145.5 294.5,-145.5 294.5,-104.5 160.5,-104.5"/>
<text text-anchor="start" x="168.5" y="-133.5" font-family="Helvetica,sans-Serif" font-size="10.00" fill="#000000">Asteroids::Domain::</text>
<text text-anchor="start" x="168.5" y="-122.5" font-family="Helvetica,sans-Serif" font-size="10.00" fill="#000000">Game::Game::keep_actors</text>
<text text-anchor="middle" x="227.5" y="-111.5" font-family="Helvetica,sans-Serif" font-size="10.00" fill="#000000">_in_bounds</text>
</a>
</g>
</g>
<!-- Node101&#45;&gt;Node104 -->
<g id="edge3" class="edge">
<title>Node101&#45;&gt;Node104</title>
<path fill="none" stroke="#191970" d="M110.0544,-125C122.783,-125 136.5593,-125 150.0457,-125"/>
<polygon fill="#191970" stroke="#191970" points="150.2803,-128.5001 160.2802,-125 150.2802,-121.5001 150.2803,-128.5001"/>
</g>
<!-- Node106 -->
<g id="node6" class="node">
<title>Node106</title>
<g id="a_node6"><a xlink:href="classAsteroids_1_1Domain_1_1Game_1_1Game.html#a5b851b86192080f5f59d61f689bf97a4" target="_top" xlink:title="Asteroids::Domain::\lGame::Game::maybe_lose_round">
<polygon fill="#ffffff" stroke="#000000" points="146,-55 146,-85 309,-85 309,-55 146,-55"/>
<text text-anchor="start" x="154" y="-73" font-family="Helvetica,sans-Serif" font-size="10.00" fill="#000000">Asteroids::Domain::</text>
<text text-anchor="middle" x="227.5" y="-62" font-family="Helvetica,sans-Serif" font-size="10.00" fill="#000000">Game::Game::maybe_lose_round</text>
</a>
</g>
</g>
<!-- Node101&#45;&gt;Node106 -->
<g id="edge5" class="edge">
<title>Node101&#45;&gt;Node106</title>
<path fill="none" stroke="#191970" d="M100.3013,-109.8596C114.8719,-105.0452 131.0992,-99.741 146,-95 153.1586,-92.7223 160.6824,-90.3651 168.1452,-88.0493"/>
<polygon fill="#191970" stroke="#191970" points="169.3642,-91.336 177.8848,-85.0391 167.2971,-84.6481 169.3642,-91.336"/>
</g>
<!-- Node109 -->
<g id="node9" class="node">
<title>Node109</title>
<g id="a_node9"><a xlink:href="classAsteroids_1_1Domain_1_1Game_1_1Game.html#abf55b1a7206729ce7e384bc8e6cb73d0" target="_top" xlink:title="Asteroids::Domain::\lGame::Game::maybe_win_round">
<polygon fill="#ffffff" stroke="#000000" points="147.5,-6 147.5,-36 307.5,-36 307.5,-6 147.5,-6"/>
<text text-anchor="start" x="155.5" y="-24" font-family="Helvetica,sans-Serif" font-size="10.00" fill="#000000">Asteroids::Domain::</text>
<text text-anchor="middle" x="227.5" y="-13" font-family="Helvetica,sans-Serif" font-size="10.00" fill="#000000">Game::Game::maybe_win_round</text>
</a>
</g>
</g>
<!-- Node101&#45;&gt;Node109 -->
<g id="edge8" class="edge">
<title>Node101&#45;&gt;Node109</title>
<path fill="none" stroke="#191970" d="M68.3061,-109.8255C84.8292,-91.8767 114.682,-62.2628 146,-45 149.294,-43.1843 152.7404,-41.4922 156.2762,-39.9171"/>
<polygon fill="#191970" stroke="#191970" points="157.8735,-43.0452 165.8011,-36.0164 155.2206,-36.5674 157.8735,-43.0452"/>
</g>
<!-- Node114 -->
<g id="node14" class="node">
<title>Node114</title>
<g id="a_node14"><a xlink:href="classAsteroids_1_1Domain_1_1Game_1_1Game.html#ab586cddf7972dbb9313ad3b241b550b4" target="_top" xlink:title="Implement GameInterface methods. ">
<polygon fill="#ffffff" stroke="#000000" points="169.5,-164.5 169.5,-205.5 285.5,-205.5 285.5,-164.5 169.5,-164.5"/>
<text text-anchor="start" x="177.5" y="-193.5" font-family="Helvetica,sans-Serif" font-size="10.00" fill="#000000">Asteroids::Domain::</text>
<text text-anchor="start" x="177.5" y="-182.5" font-family="Helvetica,sans-Serif" font-size="10.00" fill="#000000">Game::Game::wait_for</text>
<text text-anchor="middle" x="227.5" y="-171.5" font-family="Helvetica,sans-Serif" font-size="10.00" fill="#000000">_frames_per_second</text>
</a>
</g>
</g>
<!-- Node101&#45;&gt;Node114 -->
<g id="edge13" class="edge">
<title>Node101&#45;&gt;Node114</title>
<path fill="none" stroke="#191970" d="M98.529,-140.1405C117.0539,-146.584 139.0965,-154.251 159.6719,-161.4076"/>
<polygon fill="#191970" stroke="#191970" points="158.7225,-164.783 169.3173,-164.7625 161.0222,-158.1715 158.7225,-164.783"/>
</g>
<!-- Node103 -->
<g id="node3" class="node">
<title>Node103</title>
<g id="a_node3"><a xlink:href="classAsteroids_1_1Domain_1_1Game_1_1Game.html#a0a4efa785b7cdd6b0ef19478f8d34617" target="_top" xlink:title="Ticks are just microseconds. ">
<polygon fill="#ffffff" stroke="#000000" points="509,-188.5 509,-229.5 639,-229.5 639,-188.5 509,-188.5"/>
<text text-anchor="start" x="517" y="-217.5" font-family="Helvetica,sans-Serif" font-size="10.00" fill="#000000">Asteroids::Domain::</text>
<text text-anchor="start" x="517" y="-206.5" font-family="Helvetica,sans-Serif" font-size="10.00" fill="#000000">Game::Game::get_current</text>
<text text-anchor="middle" x="574" y="-195.5" font-family="Helvetica,sans-Serif" font-size="10.00" fill="#000000">_timestamp_ticks</text>
</a>
</g>
</g>
<!-- Node102&#45;&gt;Node103 -->
<g id="edge2" class="edge">
<title>Node102&#45;&gt;Node103</title>
<path fill="none" stroke="#191970" d="M472.7933,-209C481.2667,-209 490.0181,-209 498.6637,-209"/>
<polygon fill="#191970" stroke="#191970" points="498.7414,-212.5001 508.7414,-209 498.7413,-205.5001 498.7414,-212.5001"/>
</g>
<!-- Node105 -->
<g id="node5" class="node">
<title>Node105</title>
<g id="a_node5"><a xlink:href="classAsteroids_1_1Domain_1_1Game_1_1Game.html#af6a7d82ef71615d83aba515a07487641" target="_top" xlink:title="Return all actors in the game. ">
<polygon fill="#ffffff" stroke="#000000" points="345.5,-110 345.5,-140 472.5,-140 472.5,-110 345.5,-110"/>
<text text-anchor="start" x="353.5" y="-128" font-family="Helvetica,sans-Serif" font-size="10.00" fill="#000000">Asteroids::Domain::</text>
<text text-anchor="middle" x="409" y="-117" font-family="Helvetica,sans-Serif" font-size="10.00" fill="#000000">Game::Game::get_actors</text>
</a>
</g>
</g>
<!-- Node104&#45;&gt;Node105 -->
<g id="edge4" class="edge">
<title>Node104&#45;&gt;Node105</title>
<path fill="none" stroke="#191970" d="M294.5682,-125C307.7653,-125 321.6807,-125 335.088,-125"/>
<polygon fill="#191970" stroke="#191970" points="335.2213,-128.5001 345.2213,-125 335.2212,-121.5001 335.2213,-128.5001"/>
</g>
<!-- Node107 -->
<g id="node7" class="node">
<title>Node107</title>
<g id="a_node7"><a xlink:href="classAsteroids_1_1Domain_1_1Game_1_1Game.html#aca6a4c9568d4bffcd9b1ff331c338abb" target="_top" xlink:title="Asteroids::Domain::\lGame::Game::lose_round">
<polygon fill="#ffffff" stroke="#000000" points="345,-55 345,-85 473,-85 473,-55 345,-55"/>
<text text-anchor="start" x="353" y="-73" font-family="Helvetica,sans-Serif" font-size="10.00" fill="#000000">Asteroids::Domain::</text>
<text text-anchor="middle" x="409" y="-62" font-family="Helvetica,sans-Serif" font-size="10.00" fill="#000000">Game::Game::lose_round</text>
</a>
</g>
</g>
<!-- Node106&#45;&gt;Node107 -->
<g id="edge6" class="edge">
<title>Node106&#45;&gt;Node107</title>
<path fill="none" stroke="#191970" d="M309.2237,-70C317.7192,-70 326.3211,-70 334.7279,-70"/>
<polygon fill="#191970" stroke="#191970" points="334.8653,-73.5001 344.8652,-70 334.8652,-66.5001 334.8653,-73.5001"/>
</g>
<!-- Node108 -->
<g id="node8" class="node">
<title>Node108</title>
<g id="a_node8"><a xlink:href="classAsteroids_1_1Domain_1_1Game_1_1Game.html#a7e1bbc8f577a798f57d736bdc51fd149" target="_top" xlink:title="Asteroids::Domain::\lGame::Game::quit">
<polygon fill="#ffffff" stroke="#000000" points="522,-55 522,-85 626,-85 626,-55 522,-55"/>
<text text-anchor="start" x="530" y="-73" font-family="Helvetica,sans-Serif" font-size="10.00" fill="#000000">Asteroids::Domain::</text>
<text text-anchor="middle" x="574" y="-62" font-family="Helvetica,sans-Serif" font-size="10.00" fill="#000000">Game::Game::quit</text>
</a>
</g>
</g>
<!-- Node107&#45;&gt;Node108 -->
<g id="edge7" class="edge">
<title>Node107&#45;&gt;Node108</title>
<path fill="none" stroke="#191970" d="M473.2658,-70C485.8491,-70 499.0282,-70 511.5511,-70"/>
<polygon fill="#191970" stroke="#191970" points="511.8886,-73.5001 521.8885,-70 511.8885,-66.5001 511.8886,-73.5001"/>
</g>
<!-- Node110 -->
<g id="node10" class="node">
<title>Node110</title>
<g id="a_node10"><a xlink:href="classAsteroids_1_1Domain_1_1Game_1_1Game.html#ac3e1c5498adb64ea278d1a4b69db412b" target="_top" xlink:title="Asteroids::Domain::\lGame::Game::win_round">
<polygon fill="#ffffff" stroke="#000000" points="346.5,-6 346.5,-36 471.5,-36 471.5,-6 346.5,-6"/>
<text text-anchor="start" x="354.5" y="-24" font-family="Helvetica,sans-Serif" font-size="10.00" fill="#000000">Asteroids::Domain::</text>
<text text-anchor="middle" x="409" y="-13" font-family="Helvetica,sans-Serif" font-size="10.00" fill="#000000">Game::Game::win_round</text>
</a>
</g>
</g>
<!-- Node109&#45;&gt;Node110 -->
<g id="edge9" class="edge">
<title>Node109&#45;&gt;Node110</title>
<path fill="none" stroke="#191970" d="M307.6369,-21C317.1911,-21 326.9044,-21 336.3454,-21"/>
<polygon fill="#191970" stroke="#191970" points="336.4626,-24.5001 346.4626,-21 336.4625,-17.5001 336.4626,-24.5001"/>
</g>
<!-- Node111 -->
<g id="node11" class="node">
<title>Node111</title>
<g id="a_node11"><a xlink:href="classAsteroids_1_1Domain_1_1Game_1_1Game.html#aa242712e038fce29760d53eb1d57c9fb" target="_top" xlink:title="Asteroids::Domain::\lGame::Game::start_round">
<polygon fill="#ffffff" stroke="#000000" points="509,-6 509,-36 639,-36 639,-6 509,-6"/>
<text text-anchor="start" x="517" y="-24" font-family="Helvetica,sans-Serif" font-size="10.00" fill="#000000">Asteroids::Domain::</text>
<text text-anchor="middle" x="574" y="-13" font-family="Helvetica,sans-Serif" font-size="10.00" fill="#000000">Game::Game::start_round</text>
</a>
</g>
</g>
<!-- Node110&#45;&gt;Node111 -->
<g id="edge10" class="edge">
<title>Node110&#45;&gt;Node111</title>
<path fill="none" stroke="#191970" d="M471.8501,-21C480.6507,-21 489.768,-21 498.769,-21"/>
<polygon fill="#191970" stroke="#191970" points="498.8589,-24.5001 508.8589,-21 498.8589,-17.5001 498.8589,-24.5001"/>
</g>
<!-- Node112 -->
<g id="node12" class="node">
<title>Node112</title>
<g id="a_node12"><a xlink:href="classAsteroids_1_1Domain_1_1Game_1_1Game.html#ad3a7040e8cc0b14228f46577ecf2bc78" target="_top" xlink:title="Asteroids::Domain::\lGame::Game::initialize\l_random_rocks">
<polygon fill="#ffffff" stroke="#000000" points="675,-.5 675,-41.5 791,-41.5 791,-.5 675,-.5"/>
<text text-anchor="start" x="683" y="-29.5" font-family="Helvetica,sans-Serif" font-size="10.00" fill="#000000">Asteroids::Domain::</text>
<text text-anchor="start" x="683" y="-18.5" font-family="Helvetica,sans-Serif" font-size="10.00" fill="#000000">Game::Game::initialize</text>
<text text-anchor="middle" x="733" y="-7.5" font-family="Helvetica,sans-Serif" font-size="10.00" fill="#000000">_random_rocks</text>
</a>
</g>
</g>
<!-- Node111&#45;&gt;Node112 -->
<g id="edge11" class="edge">
<title>Node111&#45;&gt;Node112</title>
<path fill="none" stroke="#191970" d="M639.1302,-21C647.5442,-21 656.1804,-21 664.6446,-21"/>
<polygon fill="#191970" stroke="#191970" points="664.8573,-24.5001 674.8573,-21 664.8573,-17.5001 664.8573,-24.5001"/>
</g>
<!-- Node113 -->
<g id="node13" class="node">
<title>Node113</title>
<g id="a_node13"><a xlink:href="classAsteroids_1_1Domain_1_1Game_1_1Game.html#a798922774fed23c593a476338acf7100" target="_top" xlink:title="Asteroids::Domain::\lGame::Game::get_random\l_board_position">
<polygon fill="#ffffff" stroke="#000000" points="827,-.5 827,-41.5 959,-41.5 959,-.5 827,-.5"/>
<text text-anchor="start" x="835" y="-29.5" font-family="Helvetica,sans-Serif" font-size="10.00" fill="#000000">Asteroids::Domain::</text>
<text text-anchor="start" x="835" y="-18.5" font-family="Helvetica,sans-Serif" font-size="10.00" fill="#000000">Game::Game::get_random</text>
<text text-anchor="middle" x="893" y="-7.5" font-family="Helvetica,sans-Serif" font-size="10.00" fill="#000000">_board_position</text>
</a>
</g>
</g>
<!-- Node112&#45;&gt;Node113 -->
<g id="edge12" class="edge">
<title>Node112&#45;&gt;Node113</title>
<path fill="none" stroke="#191970" d="M791.2163,-21C799.5651,-21 808.2565,-21 816.8874,-21"/>
<polygon fill="#191970" stroke="#191970" points="816.9675,-24.5001 826.9674,-21 816.9674,-17.5001 816.9675,-24.5001"/>
</g>
<!-- Node114&#45;&gt;Node102 -->
<g id="edge14" class="edge">
<title>Node114&#45;&gt;Node102</title>
<path fill="none" stroke="#191970" d="M285.6767,-192.6928C301.3902,-194.7706 318.606,-197.0471 335.0581,-199.2226"/>
<polygon fill="#191970" stroke="#191970" points="334.8103,-202.7202 345.1829,-200.5614 335.728,-195.7806 334.8103,-202.7202"/>
</g>
</g>
</svg>
