<?xml version="1.0" encoding="UTF-8" standalone="no"?>
<!DOCTYPE svg PUBLIC "-//W3C//DTD SVG 1.1//EN"
 "http://www.w3.org/Graphics/SVG/1.1/DTD/svg11.dtd">
<!-- Generated by graphviz version 2.40.1 (20161225.0304)
 -->
<!-- Title: Asteroids::Domain::Server::HACCS_REPORT Pages: 1 -->
<svg width="457pt" height="678pt"
 viewBox="0.00 0.00 457.00 678.00" xmlns="http://www.w3.org/2000/svg" xmlns:xlink="http://www.w3.org/1999/xlink">
<g id="graph0" class="graph" transform="scale(1 1) rotate(0) translate(4 674)">
<title>Asteroids::Domain::Server::HACCS_REPORT</title>
<polygon fill="#ffffff" stroke="transparent" points="-4,4 -4,-674 453,-674 453,4 -4,4"/>
<!-- Node2 -->
<g id="node1" class="node">
<title>Node2</title>
<polygon fill="#bfbfbf" stroke="#000000" points="184,-.5 184,-167.5 325,-167.5 325,-.5 184,-.5"/>
<text text-anchor="start" x="192" y="-155.5" font-family="Helvetica,sans-Serif" font-size="10.00" fill="#000000">Asteroids::Domain::</text>
<text text-anchor="middle" x="254.5" y="-144.5" font-family="Helvetica,sans-Serif" font-size="10.00" fill="#000000">Server::HACCS_REPORT</text>
<polyline fill="none" stroke="#000000" points="184,-137.5 325,-137.5 "/>
<text text-anchor="middle" x="254.5" y="-125.5" font-family="Helvetica,sans-Serif" font-size="10.00" fill="#000000"> </text>
<polyline fill="none" stroke="#000000" points="184,-118.5 325,-118.5 "/>
<text text-anchor="start" x="192" y="-106.5" font-family="Helvetica,sans-Serif" font-size="10.00" fill="#000000">+ HACCS_REPORT()</text>
<text text-anchor="start" x="192" y="-95.5" font-family="Helvetica,sans-Serif" font-size="10.00" fill="#000000">+ add_suspicious_activity()</text>
<text text-anchor="start" x="192" y="-84.5" font-family="Helvetica,sans-Serif" font-size="10.00" fill="#000000">+ get_email()</text>
<text text-anchor="start" x="192" y="-73.5" font-family="Helvetica,sans-Serif" font-size="10.00" fill="#000000">+ get_id()</text>
<text text-anchor="start" x="192" y="-62.5" font-family="Helvetica,sans-Serif" font-size="10.00" fill="#000000">+ get_nickname()</text>
<text text-anchor="start" x="192" y="-51.5" font-family="Helvetica,sans-Serif" font-size="10.00" fill="#000000">+ get_suspicious_activities()</text>
<text text-anchor="start" x="192" y="-40.5" font-family="Helvetica,sans-Serif" font-size="10.00" fill="#000000">+ get_username()</text>
<text text-anchor="start" x="192" y="-29.5" font-family="Helvetica,sans-Serif" font-size="10.00" fill="#000000">+ reset()</text>
<text text-anchor="start" x="192" y="-18.5" font-family="Helvetica,sans-Serif" font-size="10.00" fill="#000000">+ set_id()</text>
<text text-anchor="start" x="192" y="-7.5" font-family="Helvetica,sans-Serif" font-size="10.00" fill="#000000">+ set_user_details()</text>
</g>
<!-- Node3 -->
<g id="node2" class="node">
<title>Node3</title>
<g id="a_node2"><a xlink:href="classAsteroids_1_1Domain_1_1Server_1_1HACCS__REPORT__INTERFACE.html" target="_top" xlink:title="Just a class that contains one report of one suspicious user. ">
<polygon fill="#ffffff" stroke="#000000" points="0,-248.5 0,-415.5 141,-415.5 141,-248.5 0,-248.5"/>
<text text-anchor="start" x="8" y="-403.5" font-family="Helvetica,sans-Serif" font-size="10.00" fill="#000000">Asteroids::Domain::</text>
<text text-anchor="start" x="8" y="-392.5" font-family="Helvetica,sans-Serif" font-size="10.00" fill="#000000">Server::HACCS_REPORT</text>
<text text-anchor="middle" x="70.5" y="-381.5" font-family="Helvetica,sans-Serif" font-size="10.00" fill="#000000">_INTERFACE</text>
<polyline fill="none" stroke="#000000" points="0,-374.5 141,-374.5 "/>
<text text-anchor="middle" x="70.5" y="-362.5" font-family="Helvetica,sans-Serif" font-size="10.00" fill="#000000"> </text>
<polyline fill="none" stroke="#000000" points="0,-355.5 141,-355.5 "/>
<text text-anchor="start" x="8" y="-343.5" font-family="Helvetica,sans-Serif" font-size="10.00" fill="#000000">+ add_suspicious_activity()</text>
<text text-anchor="start" x="8" y="-332.5" font-family="Helvetica,sans-Serif" font-size="10.00" fill="#000000">+ get_email()</text>
<text text-anchor="start" x="8" y="-321.5" font-family="Helvetica,sans-Serif" font-size="10.00" fill="#000000">+ get_id()</text>
<text text-anchor="start" x="8" y="-310.5" font-family="Helvetica,sans-Serif" font-size="10.00" fill="#000000">+ get_nickname()</text>
<text text-anchor="start" x="8" y="-299.5" font-family="Helvetica,sans-Serif" font-size="10.00" fill="#000000">+ get_suspicious_activities()</text>
<text text-anchor="start" x="8" y="-288.5" font-family="Helvetica,sans-Serif" font-size="10.00" fill="#000000">+ get_username()</text>
<text text-anchor="start" x="8" y="-277.5" font-family="Helvetica,sans-Serif" font-size="10.00" fill="#000000">+ reset()</text>
<text text-anchor="start" x="8" y="-266.5" font-family="Helvetica,sans-Serif" font-size="10.00" fill="#000000">+ set_id()</text>
<text text-anchor="start" x="8" y="-255.5" font-family="Helvetica,sans-Serif" font-size="10.00" fill="#000000">+ set_user_details()</text>
</a>
</g>
</g>
<!-- Node3&#45;&gt;Node2 -->
<g id="edge1" class="edge">
<title>Node3&#45;&gt;Node2</title>
<path fill="none" stroke="#191970" d="M138.7058,-240.0705C156.3046,-216.3503 175.1508,-190.9489 192.4189,-167.6745"/>
<polygon fill="none" stroke="#191970" points="135.6851,-238.2678 132.5375,-248.3843 141.3068,-242.4387 135.6851,-238.2678"/>
</g>
<!-- Node4 -->
<g id="node3" class="node">
<title>Node4</title>
<polygon fill="#ffffff" stroke="#bfbfbf" points="159,-287 159,-377 350,-377 350,-287 159,-287"/>
<text text-anchor="start" x="167" y="-365" font-family="Helvetica,sans-Serif" font-size="10.00" fill="#000000">std::vector&lt; std::shared</text>
<text text-anchor="start" x="167" y="-354" font-family="Helvetica,sans-Serif" font-size="10.00" fill="#000000">_ptr&lt; Asteroids::Domain</text>
<text text-anchor="start" x="167" y="-343" font-family="Helvetica,sans-Serif" font-size="10.00" fill="#000000">::Server::HACCS_REPORT_ACTIVITY</text>
<text text-anchor="middle" x="254.5" y="-332" font-family="Helvetica,sans-Serif" font-size="10.00" fill="#000000">_INTERFACE &gt; &gt;</text>
<polyline fill="none" stroke="#bfbfbf" points="159,-325 350,-325 "/>
<text text-anchor="start" x="167" y="-313" font-family="Helvetica,sans-Serif" font-size="10.00" fill="#000000">+ elements</text>
<polyline fill="none" stroke="#bfbfbf" points="159,-306 350,-306 "/>
<text text-anchor="middle" x="254.5" y="-294" font-family="Helvetica,sans-Serif" font-size="10.00" fill="#000000"> </text>
</g>
<!-- Node4&#45;&gt;Node2 -->
<g id="edge2" class="edge">
<title>Node4&#45;&gt;Node2</title>
<path fill="none" stroke="#404040" d="M254.5,-286.8013C254.5,-256.9273 254.5,-216.634 254.5,-179.8348"/>
<polygon fill="none" stroke="#404040" points="254.5001,-179.5091 250.5,-173.5091 254.5,-167.5091 258.5,-173.5091 254.5001,-179.5091"/>
<text text-anchor="middle" x="306" y="-205.5" font-family="Helvetica,sans-Serif" font-size="10.00" fill="#000000"> &#45;_suspicious_activities</text>
</g>
<!-- Node5 -->
<g id="node4" class="node">
<title>Node5</title>
<g id="a_node4"><a xlink:title="STL class. ">
<polygon fill="#ffffff" stroke="#bfbfbf" points="210,-502 210,-559 297,-559 297,-502 210,-502"/>
<text text-anchor="middle" x="253.5" y="-547" font-family="Helvetica,sans-Serif" font-size="10.00" fill="#000000">std::vector&lt; T &gt;</text>
<polyline fill="none" stroke="#bfbfbf" points="210,-540 297,-540 "/>
<text text-anchor="middle" x="253.5" y="-528" font-family="Helvetica,sans-Serif" font-size="10.00" fill="#000000"> </text>
<polyline fill="none" stroke="#bfbfbf" points="210,-521 297,-521 "/>
<text text-anchor="middle" x="253.5" y="-509" font-family="Helvetica,sans-Serif" font-size="10.00" fill="#000000"> </text>
</a>
</g>
</g>
<!-- Node5&#45;&gt;Node4 -->
<g id="edge3" class="edge">
<title>Node5&#45;&gt;Node4</title>
<path fill="none" stroke="#ffa500" d="M253.6965,-491.4933C253.8622,-458.6125 254.0993,-411.5419 254.273,-377.0582"/>
<polygon fill="#ffa500" stroke="#ffa500" points="250.1959,-491.6189 253.6454,-501.6364 257.1958,-491.6542 250.1959,-491.6189"/>
<text text-anchor="start" x="254.5" y="-470" font-family="Helvetica,sans-Serif" font-size="10.00" fill="#000000"> &lt; std::shared_ptr&lt;</text>
<text text-anchor="start" x="254.5" y="-459" font-family="Helvetica,sans-Serif" font-size="10.00" fill="#000000"> Asteroids::Domain::</text>
<text text-anchor="start" x="254.5" y="-448" font-family="Helvetica,sans-Serif" font-size="10.00" fill="#000000">Server::HACCS_REPORT</text>
<text text-anchor="middle" x="321" y="-437" font-family="Helvetica,sans-Serif" font-size="10.00" fill="#000000">_ACTIVITY_INTERFACE &gt; &gt;</text>
</g>
<!-- Node6 -->
<g id="node5" class="node">
<title>Node6</title>
<polygon fill="#ffffff" stroke="#bfbfbf" points="239,-612.5 239,-669.5 268,-669.5 268,-612.5 239,-612.5"/>
<text text-anchor="middle" x="253.5" y="-657.5" font-family="Helvetica,sans-Serif" font-size="10.00" fill="#000000">T</text>
<polyline fill="none" stroke="#bfbfbf" points="239,-650.5 268,-650.5 "/>
<text text-anchor="middle" x="253.5" y="-638.5" font-family="Helvetica,sans-Serif" font-size="10.00" fill="#000000"> </text>
<polyline fill="none" stroke="#bfbfbf" points="239,-631.5 268,-631.5 "/>
<text text-anchor="middle" x="253.5" y="-619.5" font-family="Helvetica,sans-Serif" font-size="10.00" fill="#000000"> </text>
</g>
<!-- Node6&#45;&gt;Node5 -->
<g id="edge4" class="edge">
<title>Node6&#45;&gt;Node5</title>
<path fill="none" stroke="#404040" d="M253.5,-612.2559C253.5,-599.7224 253.5,-584.8039 253.5,-571.1631"/>
<polygon fill="none" stroke="#404040" points="253.5001,-571.1002 249.5,-565.1002 253.5,-559.1002 257.5,-565.1002 253.5001,-571.1002"/>
<text text-anchor="middle" x="278" y="-586" font-family="Helvetica,sans-Serif" font-size="10.00" fill="#000000"> +elements</text>
</g>
<!-- Node7 -->
<g id="node6" class="node">
<title>Node7</title>
<g id="a_node6"><a xlink:title="STL class. ">
<polygon fill="#ffffff" stroke="#bfbfbf" points="370.5,-303.5 370.5,-360.5 430.5,-360.5 430.5,-303.5 370.5,-303.5"/>
<text text-anchor="middle" x="400.5" y="-348.5" font-family="Helvetica,sans-Serif" font-size="10.00" fill="#000000">std::string</text>
<polyline fill="none" stroke="#bfbfbf" points="370.5,-341.5 430.5,-341.5 "/>
<text text-anchor="middle" x="400.5" y="-329.5" font-family="Helvetica,sans-Serif" font-size="10.00" fill="#000000"> </text>
<polyline fill="none" stroke="#bfbfbf" points="370.5,-322.5 430.5,-322.5 "/>
<text text-anchor="middle" x="400.5" y="-310.5" font-family="Helvetica,sans-Serif" font-size="10.00" fill="#000000"> </text>
</a>
</g>
</g>
<!-- Node7&#45;&gt;Node2 -->
<g id="edge5" class="edge">
<title>Node7&#45;&gt;Node2</title>
<path fill="none" stroke="#404040" d="M397.5116,-303.3248C393.2774,-272.5201 383.4433,-223.011 361.5,-186 353.8575,-173.1096 344.1347,-160.7931 333.6782,-149.4591"/>
<polygon fill="none" stroke="#404040" points="333.4718,-149.2441 326.4309,-147.6865 325.1607,-140.5881 332.2016,-142.1458 333.4718,-149.2441"/>
<text text-anchor="middle" x="407.5" y="-222" font-family="Helvetica,sans-Serif" font-size="10.00" fill="#000000"> &#45;_nickname</text>
<text text-anchor="middle" x="407.5" y="-211" font-family="Helvetica,sans-Serif" font-size="10.00" fill="#000000">&#45;_username</text>
<text text-anchor="middle" x="407.5" y="-200" font-family="Helvetica,sans-Serif" font-size="10.00" fill="#000000">&#45;_id</text>
<text text-anchor="middle" x="407.5" y="-189" font-family="Helvetica,sans-Serif" font-size="10.00" fill="#000000">&#45;_email</text>
</g>
<!-- Node8 -->
<g id="node7" class="node">
<title>Node8</title>
<g id="a_node7"><a xlink:title="STL class. ">
<polygon fill="#ffffff" stroke="#bfbfbf" points="354,-496.5 354,-564.5 449,-564.5 449,-496.5 354,-496.5"/>
<text text-anchor="start" x="362" y="-552.5" font-family="Helvetica,sans-Serif" font-size="10.00" fill="#000000">std::basic_string&lt;</text>
<text text-anchor="middle" x="401.5" y="-541.5" font-family="Helvetica,sans-Serif" font-size="10.00" fill="#000000"> char &gt;</text>
<polyline fill="none" stroke="#bfbfbf" points="354,-534.5 449,-534.5 "/>
<text text-anchor="middle" x="401.5" y="-522.5" font-family="Helvetica,sans-Serif" font-size="10.00" fill="#000000"> </text>
<polyline fill="none" stroke="#bfbfbf" points="354,-515.5 449,-515.5 "/>
<text text-anchor="middle" x="401.5" y="-503.5" font-family="Helvetica,sans-Serif" font-size="10.00" fill="#000000"> </text>
</a>
</g>
</g>
<!-- Node8&#45;&gt;Node7 -->
<g id="edge6" class="edge">
<title>Node8&#45;&gt;Node7</title>
<path fill="none" stroke="#191970" d="M401.2758,-486.005C401.0825,-447.6282 400.8091,-393.354 400.6438,-360.5376"/>
<polygon fill="none" stroke="#191970" points="397.7777,-486.3944 401.3281,-496.3766 404.7776,-486.3591 397.7777,-486.3944"/>
</g>
</g>
</svg>
