<?xml version="1.0" encoding="UTF-8" standalone="no"?>
<!DOCTYPE svg PUBLIC "-//W3C//DTD SVG 1.1//EN"
 "http://www.w3.org/Graphics/SVG/1.1/DTD/svg11.dtd">
<!-- Generated by graphviz version 2.40.1 (20161225.0304)
 -->
<!-- Title: Asteroids::Domain::Store::POWERUP_ADDED_INFO::init Pages: 1 -->
<svg width="359pt" height="50pt"
 viewBox="0.00 0.00 359.00 50.00" xmlns="http://www.w3.org/2000/svg" xmlns:xlink="http://www.w3.org/1999/xlink">
<g id="graph0" class="graph" transform="scale(1 1) rotate(0) translate(4 46)">
<title>Asteroids::Domain::Store::POWERUP_ADDED_INFO::init</title>
<polygon fill="#ffffff" stroke="transparent" points="-4,4 -4,-46 355,-46 355,4 -4,4"/>
<!-- Node10 -->
<g id="node1" class="node">
<title>Node10</title>
<polygon fill="#bfbfbf" stroke="#000000" points="0,-.5 0,-41.5 140,-41.5 140,-.5 0,-.5"/>
<text text-anchor="start" x="8" y="-29.5" font-family="Helvetica,sans-Serif" font-size="10.00" fill="#000000">Asteroids::Domain::</text>
<text text-anchor="start" x="8" y="-18.5" font-family="Helvetica,sans-Serif" font-size="10.00" fill="#000000">Store::POWERUP_ADDED</text>
<text text-anchor="middle" x="70" y="-7.5" font-family="Helvetica,sans-Serif" font-size="10.00" fill="#000000">_INFO::init</text>
</g>
<!-- Node11 -->
<g id="node2" class="node">
<title>Node11</title>
<g id="a_node2"><a xlink:href="classAsteroids_1_1Domain_1_1Store_1_1POWERUP__ADDED__INFO.html#ac735fa85a1732bfc02f7f7534379f306" target="_top" xlink:title="Asteroids::Domain::\lStore::POWERUP_ADDED\l_INFO::POWERUP_ADDED_INFO">
<polygon fill="#ffffff" stroke="#000000" points="176,-.5 176,-41.5 351,-41.5 351,-.5 176,-.5"/>
<text text-anchor="start" x="184" y="-29.5" font-family="Helvetica,sans-Serif" font-size="10.00" fill="#000000">Asteroids::Domain::</text>
<text text-anchor="start" x="184" y="-18.5" font-family="Helvetica,sans-Serif" font-size="10.00" fill="#000000">Store::POWERUP_ADDED</text>
<text text-anchor="middle" x="263.5" y="-7.5" font-family="Helvetica,sans-Serif" font-size="10.00" fill="#000000">_INFO::POWERUP_ADDED_INFO</text>
</a>
</g>
</g>
<!-- Node10&#45;&gt;Node11 -->
<g id="edge1" class="edge">
<title>Node10&#45;&gt;Node11</title>
<path fill="none" stroke="#191970" d="M150.2877,-21C158.6979,-21 167.2792,-21 175.7671,-21"/>
<polygon fill="#191970" stroke="#191970" points="150.1316,-17.5001 140.1315,-21 150.1315,-24.5001 150.1316,-17.5001"/>
</g>
</g>
</svg>
