<?xml version="1.0" encoding="UTF-8" standalone="no"?>
<!DOCTYPE svg PUBLIC "-//W3C//DTD SVG 1.1//EN"
 "http://www.w3.org/Graphics/SVG/1.1/DTD/svg11.dtd">
<!-- Generated by graphviz version 2.40.1 (20161225.0304)
 -->
<!-- Title: Asteroids::Domain::Net::Messages::AUTH_ATTEMPT::AUTH_ATTEMPT Pages: 1 -->
<svg width="484pt" height="110pt"
 viewBox="0.00 0.00 484.00 110.00" xmlns="http://www.w3.org/2000/svg" xmlns:xlink="http://www.w3.org/1999/xlink">
<g id="graph0" class="graph" transform="scale(1 1) rotate(0) translate(4 106)">
<title>Asteroids::Domain::Net::Messages::AUTH_ATTEMPT::AUTH_ATTEMPT</title>
<polygon fill="#ffffff" stroke="transparent" points="-4,4 -4,-106 480,-106 480,4 -4,4"/>
<!-- Node0 -->
<g id="node1" class="node">
<title>Node0</title>
<polygon fill="#bfbfbf" stroke="#000000" points="0,-30.5 0,-71.5 154,-71.5 154,-30.5 0,-30.5"/>
<text text-anchor="start" x="8" y="-59.5" font-family="Helvetica,sans-Serif" font-size="10.00" fill="#000000">Asteroids::Domain::</text>
<text text-anchor="start" x="8" y="-48.5" font-family="Helvetica,sans-Serif" font-size="10.00" fill="#000000">Net::Messages::AUTH</text>
<text text-anchor="middle" x="77" y="-37.5" font-family="Helvetica,sans-Serif" font-size="10.00" fill="#000000">_ATTEMPT::AUTH_ATTEMPT</text>
</g>
<!-- Node1 -->
<g id="node2" class="node">
<title>Node1</title>
<g id="a_node2"><a xlink:href="classAsteroids_1_1Domain_1_1Net_1_1Messages_1_1AUTH__ATTEMPT.html#ac3d3b7f2f68f6738cf34d34f5cc6eaf9" target="_top" xlink:title="Asteroids::Domain::\lNet::Messages::AUTH\l_ATTEMPT::reset">
<polygon fill="#ffffff" stroke="#000000" points="190,-30.5 190,-71.5 307,-71.5 307,-30.5 190,-30.5"/>
<text text-anchor="start" x="198" y="-59.5" font-family="Helvetica,sans-Serif" font-size="10.00" fill="#000000">Asteroids::Domain::</text>
<text text-anchor="start" x="198" y="-48.5" font-family="Helvetica,sans-Serif" font-size="10.00" fill="#000000">Net::Messages::AUTH</text>
<text text-anchor="middle" x="248.5" y="-37.5" font-family="Helvetica,sans-Serif" font-size="10.00" fill="#000000">_ATTEMPT::reset</text>
</a>
</g>
</g>
<!-- Node0&#45;&gt;Node1 -->
<g id="edge1" class="edge">
<title>Node0&#45;&gt;Node1</title>
<path fill="none" stroke="#191970" d="M154.2211,-51C162.7541,-51 171.4009,-51 179.8189,-51"/>
<polygon fill="#191970" stroke="#191970" points="179.9507,-54.5001 189.9507,-51 179.9506,-47.5001 179.9507,-54.5001"/>
</g>
<!-- Node2 -->
<g id="node3" class="node">
<title>Node2</title>
<g id="a_node3"><a xlink:href="classAsteroids_1_1Domain_1_1Net_1_1Messages_1_1AUTH__ATTEMPT.html#a70aded9fd40631e8b8e53b183b62b3d8" target="_top" xlink:title="Asteroids::Domain::\lNet::Messages::AUTH\l_ATTEMPT::setUsername">
<polygon fill="#ffffff" stroke="#000000" points="343,-60.5 343,-101.5 476,-101.5 476,-60.5 343,-60.5"/>
<text text-anchor="start" x="351" y="-89.5" font-family="Helvetica,sans-Serif" font-size="10.00" fill="#000000">Asteroids::Domain::</text>
<text text-anchor="start" x="351" y="-78.5" font-family="Helvetica,sans-Serif" font-size="10.00" fill="#000000">Net::Messages::AUTH</text>
<text text-anchor="middle" x="409.5" y="-67.5" font-family="Helvetica,sans-Serif" font-size="10.00" fill="#000000">_ATTEMPT::setUsername</text>
</a>
</g>
</g>
<!-- Node1&#45;&gt;Node2 -->
<g id="edge2" class="edge">
<title>Node1&#45;&gt;Node2</title>
<path fill="none" stroke="#191970" d="M307.0801,-61.9156C315.4165,-63.4689 324.0923,-65.0855 332.7113,-66.6915"/>
<polygon fill="#191970" stroke="#191970" points="332.3074,-70.1764 342.7793,-68.5676 333.5897,-63.2949 332.3074,-70.1764"/>
</g>
<!-- Node3 -->
<g id="node4" class="node">
<title>Node3</title>
<g id="a_node4"><a xlink:href="classAsteroids_1_1Domain_1_1Net_1_1Messages_1_1AUTH__ATTEMPT.html#ab05c3f631e0ac62fdefe27e95b5066a2" target="_top" xlink:title="Asteroids::Domain::\lNet::Messages::AUTH\l_ATTEMPT::setPassword">
<polygon fill="#ffffff" stroke="#000000" points="344,-.5 344,-41.5 475,-41.5 475,-.5 344,-.5"/>
<text text-anchor="start" x="352" y="-29.5" font-family="Helvetica,sans-Serif" font-size="10.00" fill="#000000">Asteroids::Domain::</text>
<text text-anchor="start" x="352" y="-18.5" font-family="Helvetica,sans-Serif" font-size="10.00" fill="#000000">Net::Messages::AUTH</text>
<text text-anchor="middle" x="409.5" y="-7.5" font-family="Helvetica,sans-Serif" font-size="10.00" fill="#000000">_ATTEMPT::setPassword</text>
</a>
</g>
</g>
<!-- Node1&#45;&gt;Node3 -->
<g id="edge3" class="edge">
<title>Node1&#45;&gt;Node3</title>
<path fill="none" stroke="#191970" d="M307.0801,-40.0844C315.7684,-38.4655 324.8254,-36.7779 333.8025,-35.1051"/>
<polygon fill="#191970" stroke="#191970" points="334.6904,-38.5 343.88,-33.2273 333.408,-31.6185 334.6904,-38.5"/>
</g>
</g>
</svg>
