<?xml version="1.0" encoding="UTF-8" standalone="no"?>
<!DOCTYPE svg PUBLIC "-//W3C//DTD SVG 1.1//EN"
 "http://www.w3.org/Graphics/SVG/1.1/DTD/svg11.dtd">
<!-- Generated by graphviz version 2.40.1 (20161225.0304)
 -->
<!-- Title: Domain/Net/ClientServerCommunicator.cpp Pages: 1 -->
<svg width="299pt" height="218pt"
 viewBox="0.00 0.00 298.50 218.00" xmlns="http://www.w3.org/2000/svg" xmlns:xlink="http://www.w3.org/1999/xlink">
<g id="graph0" class="graph" transform="scale(1 1) rotate(0) translate(4 214)">
<title>Domain/Net/ClientServerCommunicator.cpp</title>
<polygon fill="#ffffff" stroke="transparent" points="-4,4 -4,-214 294.5,-214 294.5,4 -4,4"/>
<!-- Node0 -->
<g id="node1" class="node">
<title>Node0</title>
<polygon fill="#bfbfbf" stroke="#000000" points="34,-190.5 34,-209.5 243,-209.5 243,-190.5 34,-190.5"/>
<text text-anchor="middle" x="138.5" y="-197.5" font-family="Helvetica,sans-Serif" font-size="10.00" fill="#000000">Domain/Net/ClientServerCommunicator.cpp</text>
</g>
<!-- Node1 -->
<g id="node2" class="node">
<title>Node1</title>
<g id="a_node2"><a xlink:href="ClientServerCommunicator_8h.html" target="_top" xlink:title="Asteroids/Domain/Net\l/ClientServerCommunicator.h">
<polygon fill="#ffffff" stroke="#000000" points="65.5,-123.5 65.5,-153.5 211.5,-153.5 211.5,-123.5 65.5,-123.5"/>
<text text-anchor="start" x="73.5" y="-141.5" font-family="Helvetica,sans-Serif" font-size="10.00" fill="#000000">Asteroids/Domain/Net</text>
<text text-anchor="middle" x="138.5" y="-130.5" font-family="Helvetica,sans-Serif" font-size="10.00" fill="#000000">/ClientServerCommunicator.h</text>
</a>
</g>
</g>
<!-- Node0&#45;&gt;Node1 -->
<g id="edge1" class="edge">
<title>Node0&#45;&gt;Node1</title>
<path fill="none" stroke="#191970" d="M138.5,-190.3906C138.5,-183.2234 138.5,-173.0862 138.5,-163.671"/>
<polygon fill="#191970" stroke="#191970" points="142.0001,-163.5446 138.5,-153.5446 135.0001,-163.5446 142.0001,-163.5446"/>
</g>
<!-- Node2 -->
<g id="node3" class="node">
<title>Node2</title>
<g id="a_node3"><a xlink:href="ForwardDeclarations_8h.html" target="_top" xlink:title="Asteroids/ForwardDeclarations.h">
<polygon fill="#ffffff" stroke="#000000" points="0,-.5 0,-19.5 159,-19.5 159,-.5 0,-.5"/>
<text text-anchor="middle" x="79.5" y="-7.5" font-family="Helvetica,sans-Serif" font-size="10.00" fill="#000000">Asteroids/ForwardDeclarations.h</text>
</a>
</g>
</g>
<!-- Node1&#45;&gt;Node2 -->
<g id="edge2" class="edge">
<title>Node1&#45;&gt;Node2</title>
<path fill="none" stroke="#191970" d="M123.1866,-123.071C114.4473,-113.4429 103.9757,-100.3713 97.5,-87 88.6883,-68.8052 84.0581,-46.0645 81.7145,-30.0281"/>
<polygon fill="#191970" stroke="#191970" points="85.1328,-29.1684 80.385,-19.6969 78.19,-30.0619 85.1328,-29.1684"/>
</g>
<!-- Node3 -->
<g id="node4" class="node">
<title>Node3</title>
<g id="a_node4"><a xlink:href="ClientServerCommunicatorInterface_8h.html" target="_top" xlink:title="Asteroids/Domain/Net\l/ClientServerCommunicatorInterface.h">
<polygon fill="#ffffff" stroke="#000000" points="106.5,-56.5 106.5,-86.5 290.5,-86.5 290.5,-56.5 106.5,-56.5"/>
<text text-anchor="start" x="114.5" y="-74.5" font-family="Helvetica,sans-Serif" font-size="10.00" fill="#000000">Asteroids/Domain/Net</text>
<text text-anchor="middle" x="198.5" y="-63.5" font-family="Helvetica,sans-Serif" font-size="10.00" fill="#000000">/ClientServerCommunicatorInterface.h</text>
</a>
</g>
</g>
<!-- Node1&#45;&gt;Node3 -->
<g id="edge3" class="edge">
<title>Node1&#45;&gt;Node3</title>
<path fill="none" stroke="#191970" d="M152.1149,-123.2967C159.7863,-114.7303 169.5196,-103.8614 178.0872,-94.2943"/>
<polygon fill="#191970" stroke="#191970" points="180.8751,-96.4276 184.939,-86.6432 175.6604,-91.7578 180.8751,-96.4276"/>
</g>
<!-- Node3&#45;&gt;Node2 -->
<g id="edge4" class="edge">
<title>Node3&#45;&gt;Node2</title>
<path fill="none" stroke="#191970" d="M169.3893,-56.4554C150.3176,-46.599 125.5518,-33.7999 106.8461,-24.1327"/>
<polygon fill="#191970" stroke="#191970" points="108.4315,-21.0122 97.9408,-19.5303 105.2176,-27.2309 108.4315,-21.0122"/>
</g>
<!-- Node4 -->
<g id="node5" class="node">
<title>Node4</title>
<polygon fill="#ffffff" stroke="#bfbfbf" points="177,-.5 177,-19.5 218,-19.5 218,-.5 177,-.5"/>
<text text-anchor="middle" x="197.5" y="-7.5" font-family="Helvetica,sans-Serif" font-size="10.00" fill="#000000">string</text>
</g>
<!-- Node3&#45;&gt;Node4 -->
<g id="edge5" class="edge">
<title>Node3&#45;&gt;Node4</title>
<path fill="none" stroke="#191970" d="M198.2528,-56.2977C198.1241,-48.3834 197.9651,-38.6043 197.8264,-30.0759"/>
<polygon fill="#191970" stroke="#191970" points="201.3223,-29.7887 197.6601,-19.8469 194.3233,-29.9025 201.3223,-29.7887"/>
</g>
<!-- Node5 -->
<g id="node6" class="node">
<title>Node5</title>
<polygon fill="#ffffff" stroke="#bfbfbf" points="236.5,-.5 236.5,-19.5 288.5,-19.5 288.5,-.5 236.5,-.5"/>
<text text-anchor="middle" x="262.5" y="-7.5" font-family="Helvetica,sans-Serif" font-size="10.00" fill="#000000">memory</text>
</g>
<!-- Node3&#45;&gt;Node5 -->
<g id="edge6" class="edge">
<title>Node3&#45;&gt;Node5</title>
<path fill="none" stroke="#191970" d="M214.3202,-56.2977C223.5742,-47.4052 235.2781,-36.1586 244.833,-26.9769"/>
<polygon fill="#191970" stroke="#191970" points="247.4674,-29.2995 252.2528,-19.8469 242.6172,-24.2521 247.4674,-29.2995"/>
</g>
</g>
</svg>
