<?xml version="1.0" encoding="UTF-8" standalone="no"?>
<!DOCTYPE svg PUBLIC "-//W3C//DTD SVG 1.1//EN"
 "http://www.w3.org/Graphics/SVG/1.1/DTD/svg11.dtd">
<!-- Generated by graphviz version 2.40.1 (20161225.0304)
 -->
<!-- Title: Domain/Net/ClientServerCommunicator.h Pages: 1 -->
<svg width="449pt" height="140pt"
 viewBox="0.00 0.00 448.50 140.00" xmlns="http://www.w3.org/2000/svg" xmlns:xlink="http://www.w3.org/1999/xlink">
<g id="graph0" class="graph" transform="scale(1 1) rotate(0) translate(4 136)">
<title>Domain/Net/ClientServerCommunicator.h</title>
<polygon fill="#ffffff" stroke="transparent" points="-4,4 -4,-136 444.5,-136 444.5,4 -4,4"/>
<!-- Node5 -->
<g id="node1" class="node">
<title>Node5</title>
<polygon fill="#bfbfbf" stroke="#000000" points="98.5,-112.5 98.5,-131.5 296.5,-131.5 296.5,-112.5 98.5,-112.5"/>
<text text-anchor="middle" x="197.5" y="-119.5" font-family="Helvetica,sans-Serif" font-size="10.00" fill="#000000">Domain/Net/ClientServerCommunicator.h</text>
</g>
<!-- Node6 -->
<g id="node2" class="node">
<title>Node6</title>
<g id="a_node2"><a xlink:href="ClientServerCommunicator_8cpp.html" target="_top" xlink:title="Domain/Net/ClientServerCommunicator.cpp">
<polygon fill="#ffffff" stroke="#000000" points="0,-56.5 0,-75.5 209,-75.5 209,-56.5 0,-56.5"/>
<text text-anchor="middle" x="104.5" y="-63.5" font-family="Helvetica,sans-Serif" font-size="10.00" fill="#000000">Domain/Net/ClientServerCommunicator.cpp</text>
</a>
</g>
</g>
<!-- Node5&#45;&gt;Node6 -->
<g id="edge1" class="edge">
<title>Node5&#45;&gt;Node6</title>
<path fill="none" stroke="#191970" d="M172.6665,-107.0465C156.1189,-97.0824 134.8568,-84.2794 120.5137,-75.6427"/>
<polygon fill="#191970" stroke="#191970" points="170.9283,-110.0854 181.3006,-112.2455 174.5393,-104.0886 170.9283,-110.0854"/>
</g>
<!-- Node7 -->
<g id="node3" class="node">
<title>Node7</title>
<g id="a_node3"><a xlink:href="NetFactory_8h.html" target="_top" xlink:title="Domain/Net/NetFactory.h">
<polygon fill="#ffffff" stroke="#000000" points="227,-56.5 227,-75.5 356,-75.5 356,-56.5 227,-56.5"/>
<text text-anchor="middle" x="291.5" y="-63.5" font-family="Helvetica,sans-Serif" font-size="10.00" fill="#000000">Domain/Net/NetFactory.h</text>
</a>
</g>
</g>
<!-- Node5&#45;&gt;Node7 -->
<g id="edge2" class="edge">
<title>Node5&#45;&gt;Node7</title>
<path fill="none" stroke="#191970" d="M222.6005,-107.0465C239.326,-97.0824 260.8168,-84.2794 275.3141,-75.6427"/>
<polygon fill="#191970" stroke="#191970" points="220.6732,-104.1206 213.8736,-112.2455 224.2559,-110.1343 220.6732,-104.1206"/>
</g>
<!-- Node8 -->
<g id="node4" class="node">
<title>Node8</title>
<g id="a_node4"><a xlink:href="Factory_8cpp.html" target="_top" xlink:title="Domain/Factory/Factory.cpp">
<polygon fill="#ffffff" stroke="#000000" points="141,-.5 141,-19.5 282,-19.5 282,-.5 141,-.5"/>
<text text-anchor="middle" x="211.5" y="-7.5" font-family="Helvetica,sans-Serif" font-size="10.00" fill="#000000">Domain/Factory/Factory.cpp</text>
</a>
</g>
</g>
<!-- Node7&#45;&gt;Node8 -->
<g id="edge3" class="edge">
<title>Node7&#45;&gt;Node8</title>
<path fill="none" stroke="#191970" d="M269.3429,-50.49C255.228,-40.6096 237.3849,-28.1194 225.2752,-19.6427"/>
<polygon fill="#191970" stroke="#191970" points="267.3656,-53.3782 277.5651,-56.2455 271.3799,-47.6436 267.3656,-53.3782"/>
</g>
<!-- Node9 -->
<g id="node5" class="node">
<title>Node9</title>
<g id="a_node5"><a xlink:href="NetFactory_8cpp.html" target="_top" xlink:title="Domain/Net/NetFactory.cpp">
<polygon fill="#ffffff" stroke="#000000" points="300.5,-.5 300.5,-19.5 440.5,-19.5 440.5,-.5 300.5,-.5"/>
<text text-anchor="middle" x="370.5" y="-7.5" font-family="Helvetica,sans-Serif" font-size="10.00" fill="#000000">Domain/Net/NetFactory.cpp</text>
</a>
</g>
</g>
<!-- Node7&#45;&gt;Node9 -->
<g id="edge4" class="edge">
<title>Node7&#45;&gt;Node9</title>
<path fill="none" stroke="#191970" d="M313.7756,-50.2097C327.6505,-40.3743 345.0515,-28.0394 356.8969,-19.6427"/>
<polygon fill="#191970" stroke="#191970" points="311.3949,-47.6071 305.2607,-56.2455 315.4431,-53.3178 311.3949,-47.6071"/>
</g>
</g>
</svg>
