<?xml version="1.0" encoding="UTF-8" standalone="no"?>
<!DOCTYPE svg PUBLIC "-//W3C//DTD SVG 1.1//EN"
 "http://www.w3.org/Graphics/SVG/1.1/DTD/svg11.dtd">
<!-- Generated by graphviz version 2.40.1 (20161225.0304)
 -->
<!-- Title: TechnicalServices/Financial/CreditCardProcessorInterface.h Pages: 1 -->
<!--zoomable 173 -->
<svg id="main" version="1.1" xmlns="http://www.w3.org/2000/svg" xmlns:xlink="http://www.w3.org/1999/xlink" xml:space="preserve" onload="init(evt)">
<style type="text/css"><![CDATA[
.edge:hover path { stroke: red; }
.edge:hover polygon { stroke: red; fill: red; }
]]></style>
<script type="text/javascript"><![CDATA[
var edges = document.getElementsByTagName('g');
if (edges && edges.length) {
  for (var i=0;i<edges.length;i++) {
    if (edges[i].id.substr(0,4)=='edge') {
      edges[i].setAttribute('class','edge');
    }
  }
}
]]></script>
        <defs>
                <circle id="rim" cx="0" cy="0" r="7"/>
                <circle id="rim2" cx="0" cy="0" r="3.5"/>
                <g id="zoomPlus">
                        <use xlink:href="#rim" fill="#404040">
                                <set attributeName="fill" to="#808080" begin="zoomplus.mouseover" end="zoomplus.mouseout"/>
                        </use>
                        <path d="M-4,0h8M0,-4v8" fill="none" stroke="white" stroke-width="1.5" pointer-events="none"/>
                </g>
                <g id="zoomMin">
                        <use xlink:href="#rim" fill="#404040">
                                <set attributeName="fill" to="#808080" begin="zoomminus.mouseover" end="zoomminus.mouseout"/>
                        </use>
                        <path d="M-4,0h8" fill="none" stroke="white" stroke-width="1.5" pointer-events="none"/>
                </g>
                <g id="dirArrow">
                        <path fill="none" stroke="white" stroke-width="1.5" d="M0,-3.0v7 M-2.5,-0.5L0,-3.0L2.5,-0.5"/>
                </g>
               <g id="resetDef">
                       <use xlink:href="#rim2" fill="#404040">
                               <set attributeName="fill" to="#808080" begin="reset.mouseover" end="reset.mouseout"/>
                       </use>
               </g>
        </defs>

<script type="text/javascript">
var viewWidth = 563;
var viewHeight = 173;
var sectionId = 'dynsection-1';
</script>
<script xlink:href="svgpan.js"/>
<svg id="graph" class="graph">
<g id="viewport">
<title>TechnicalServices/Financial/CreditCardProcessorInterface.h</title>
<polygon fill="#ffffff" stroke="transparent" points="-4,4 -4,-169 558.5,-169 558.5,4 -4,4"/>
<!-- Node3 -->
<g id="node1" class="node">
<title>Node3</title>
<polygon fill="#bfbfbf" stroke="#000000" points="198.5,-134.5 198.5,-164.5 356.5,-164.5 356.5,-134.5 198.5,-134.5"/>
<text text-anchor="start" x="206.5" y="-152.5" font-family="Helvetica,sans-Serif" font-size="10.00" fill="#000000">TechnicalServices/Financial</text>
<text text-anchor="middle" x="277.5" y="-141.5" font-family="Helvetica,sans-Serif" font-size="10.00" fill="#000000">/CreditCardProcessorInterface.h</text>
</g>
<!-- Node4 -->
<g id="node2" class="node">
<title>Node4</title>
<g id="a_node2"><a xlink:href="MastercardProcessor_8h.html" target="_top" xlink:title="TechnicalServices/Financial\l/MastercardProcessor.h">
<polygon fill="#ffffff" stroke="#000000" points="61,-67.5 61,-97.5 200,-97.5 200,-67.5 61,-67.5"/>
<text text-anchor="start" x="69" y="-85.5" font-family="Helvetica,sans-Serif" font-size="10.00" fill="#000000">TechnicalServices/Financial</text>
<text text-anchor="middle" x="130.5" y="-74.5" font-family="Helvetica,sans-Serif" font-size="10.00" fill="#000000">/MastercardProcessor.h</text>
</a>
</g>
</g>
<!-- Node3&#45;&gt;Node4 -->
<g id="edge1" class="edge">
<title>Node3&#45;&gt;Node4</title>
<path fill="none" stroke="#191970" d="M235.4036,-130.3132C212.6153,-119.9267 184.8667,-107.2794 163.6336,-97.6017"/>
<polygon fill="#191970" stroke="#191970" points="233.9593,-133.5013 244.5103,-134.4639 236.8625,-127.1317 233.9593,-133.5013"/>
</g>
<!-- Node6 -->
<g id="node4" class="node">
<title>Node6</title>
<g id="a_node4"><a xlink:href="TechnicalServicesFactory_8cpp.html" target="_top" xlink:title="TechnicalServices/Technical\lServicesFactory.cpp">
<polygon fill="#ffffff" stroke="#000000" points="157.5,-.5 157.5,-30.5 299.5,-30.5 299.5,-.5 157.5,-.5"/>
<text text-anchor="start" x="165.5" y="-18.5" font-family="Helvetica,sans-Serif" font-size="10.00" fill="#000000">TechnicalServices/Technical</text>
<text text-anchor="middle" x="228.5" y="-7.5" font-family="Helvetica,sans-Serif" font-size="10.00" fill="#000000">ServicesFactory.cpp</text>
</a>
</g>
</g>
<!-- Node3&#45;&gt;Node6 -->
<g id="edge7" class="edge">
<title>Node3&#45;&gt;Node6</title>
<path fill="none" stroke="#191970" d="M261.6514,-125.7427C256.547,-117.2664 251.2477,-107.4677 247.5,-98 238.5201,-75.3142 233.1971,-47.3602 230.5642,-30.5089"/>
<polygon fill="#191970" stroke="#191970" points="258.7605,-127.7211 267.0309,-134.3431 264.6952,-124.0089 258.7605,-127.7211"/>
</g>
<!-- Node7 -->
<g id="node5" class="node">
<title>Node7</title>
<g id="a_node5"><a xlink:href="VisaProcessor_8h.html" target="_top" xlink:title="TechnicalServices/Financial\l/VisaProcessor.h">
<polygon fill="#ffffff" stroke="#000000" points="257,-67.5 257,-97.5 396,-97.5 396,-67.5 257,-67.5"/>
<text text-anchor="start" x="265" y="-85.5" font-family="Helvetica,sans-Serif" font-size="10.00" fill="#000000">TechnicalServices/Financial</text>
<text text-anchor="middle" x="326.5" y="-74.5" font-family="Helvetica,sans-Serif" font-size="10.00" fill="#000000">/VisaProcessor.h</text>
</a>
</g>
</g>
<!-- Node3&#45;&gt;Node7 -->
<g id="edge4" class="edge">
<title>Node3&#45;&gt;Node7</title>
<path fill="none" stroke="#191970" d="M294.6408,-126.0626C301.5381,-116.6315 309.2932,-106.0276 315.4251,-97.6432"/>
<polygon fill="#191970" stroke="#191970" points="291.697,-124.1588 288.6189,-134.2967 297.3472,-128.2911 291.697,-124.1588"/>
</g>
<!-- Node9 -->
<g id="node7" class="node">
<title>Node9</title>
<g id="a_node7"><a xlink:href="ServerTextUI_8cpp.html" target="_top" xlink:title="UI/ServerTextUI/ServerText\lUI.cpp">
<polygon fill="#ffffff" stroke="#000000" points="414.5,-67.5 414.5,-97.5 554.5,-97.5 554.5,-67.5 414.5,-67.5"/>
<text text-anchor="start" x="422.5" y="-85.5" font-family="Helvetica,sans-Serif" font-size="10.00" fill="#000000">UI/ServerTextUI/ServerText</text>
<text text-anchor="middle" x="484.5" y="-74.5" font-family="Helvetica,sans-Serif" font-size="10.00" fill="#000000">UI.cpp</text>
</a>
</g>
</g>
<!-- Node3&#45;&gt;Node9 -->
<g id="edge8" class="edge">
<title>Node3&#45;&gt;Node9</title>
<path fill="none" stroke="#191970" d="M333.8043,-131.2759C366.4281,-120.7165 407.0125,-107.5805 437.8425,-97.6017"/>
<polygon fill="#191970" stroke="#191970" points="332.3911,-128.0545 323.9548,-134.4639 334.5467,-134.7143 332.3911,-128.0545"/>
</g>
<!-- Node5 -->
<g id="node3" class="node">
<title>Node5</title>
<g id="a_node3"><a xlink:href="MastercardProcessor_8cpp.html" target="_top" xlink:title="TechnicalServices/Financial\l/MastercardProcessor.cpp">
<polygon fill="#ffffff" stroke="#000000" points="0,-.5 0,-30.5 139,-30.5 139,-.5 0,-.5"/>
<text text-anchor="start" x="8" y="-18.5" font-family="Helvetica,sans-Serif" font-size="10.00" fill="#000000">TechnicalServices/Financial</text>
<text text-anchor="middle" x="69.5" y="-7.5" font-family="Helvetica,sans-Serif" font-size="10.00" fill="#000000">/MastercardProcessor.cpp</text>
</a>
</g>
</g>
<!-- Node4&#45;&gt;Node5 -->
<g id="edge2" class="edge">
<title>Node4&#45;&gt;Node5</title>
<path fill="none" stroke="#191970" d="M109.6858,-59.6385C100.9699,-50.0653 91.0765,-39.1987 83.2871,-30.6432"/>
<polygon fill="#191970" stroke="#191970" points="107.3379,-62.2585 116.6582,-67.2967 112.514,-57.5459 107.3379,-62.2585"/>
</g>
<!-- Node4&#45;&gt;Node6 -->
<g id="edge3" class="edge">
<title>Node4&#45;&gt;Node6</title>
<path fill="none" stroke="#191970" d="M161.0283,-61.6286C175.7001,-51.5979 192.9602,-39.7976 206.3503,-30.6432"/>
<polygon fill="#191970" stroke="#191970" points="159.0175,-58.7635 152.7377,-67.2967 162.9682,-64.5421 159.0175,-58.7635"/>
</g>
<!-- Node7&#45;&gt;Node6 -->
<g id="edge6" class="edge">
<title>Node7&#45;&gt;Node6</title>
<path fill="none" stroke="#191970" d="M295.9717,-61.6286C281.2999,-51.5979 264.0398,-39.7976 250.6497,-30.6432"/>
<polygon fill="#191970" stroke="#191970" points="294.0318,-64.5421 304.2623,-67.2967 297.9825,-58.7635 294.0318,-64.5421"/>
</g>
<!-- Node8 -->
<g id="node6" class="node">
<title>Node8</title>
<g id="a_node6"><a xlink:href="VisaProcessor_8cpp.html" target="_top" xlink:title="TechnicalServices/Financial\l/VisaProcessor.cpp">
<polygon fill="#ffffff" stroke="#000000" points="318,-.5 318,-30.5 457,-30.5 457,-.5 318,-.5"/>
<text text-anchor="start" x="326" y="-18.5" font-family="Helvetica,sans-Serif" font-size="10.00" fill="#000000">TechnicalServices/Financial</text>
<text text-anchor="middle" x="387.5" y="-7.5" font-family="Helvetica,sans-Serif" font-size="10.00" fill="#000000">/VisaProcessor.cpp</text>
</a>
</g>
</g>
<!-- Node7&#45;&gt;Node8 -->
<g id="edge5" class="edge">
<title>Node7&#45;&gt;Node8</title>
<path fill="none" stroke="#191970" d="M347.3142,-59.6385C356.0301,-50.0653 365.9235,-39.1987 373.7129,-30.6432"/>
<polygon fill="#191970" stroke="#191970" points="344.486,-57.5459 340.3418,-67.2967 349.6621,-62.2585 344.486,-57.5459"/>
</g>
</g>
</svg>
        <g id="navigator" transform="translate(0 0)" fill="#404254">
                <rect fill="#f2f5e9" fill-opacity="0.5" stroke="#606060" stroke-width=".5" x="0" y="0" width="60" height="60"/>
                <use id="zoomplus" xlink:href="#zoomPlus" x="17" y="9" onmousedown="handleZoom(evt,'in')"/>
                <use id="zoomminus" xlink:href="#zoomMin" x="42" y="9" onmousedown="handleZoom(evt,'out')"/>
                <use id="reset" xlink:href="#resetDef" x="30" y="36" onmousedown="handleReset()"/>
                <g id="arrowUp" xlink:href="#dirArrow" transform="translate(30 24)" onmousedown="handlePan(0,-1)">
                  <use xlink:href="#rim" fill="#404040">
                        <set attributeName="fill" to="#808080" begin="arrowUp.mouseover" end="arrowUp.mouseout"/>
                  </use>
                  <path fill="none" stroke="white" stroke-width="1.5" d="M0,-3.0v7 M-2.5,-0.5L0,-3.0L2.5,-0.5"/>
                </g>
                <g id="arrowRight" xlink:href="#dirArrow" transform="rotate(90) translate(36 -43)" onmousedown="handlePan(1,0)">
                  <use xlink:href="#rim" fill="#404040">
                        <set attributeName="fill" to="#808080" begin="arrowRight.mouseover" end="arrowRight.mouseout"/>
                  </use>
                  <path fill="none" stroke="white" stroke-width="1.5" d="M0,-3.0v7 M-2.5,-0.5L0,-3.0L2.5,-0.5"/>
                </g>
                <g id="arrowDown" xlink:href="#dirArrow" transform="rotate(180) translate(-30 -48)" onmousedown="handlePan(0,1)">
                  <use xlink:href="#rim" fill="#404040">
                        <set attributeName="fill" to="#808080" begin="arrowDown.mouseover" end="arrowDown.mouseout"/>
                  </use>
                  <path fill="none" stroke="white" stroke-width="1.5" d="M0,-3.0v7 M-2.5,-0.5L0,-3.0L2.5,-0.5"/>
                </g>
                <g id="arrowLeft" xlink:href="#dirArrow" transform="rotate(270) translate(-36 17)" onmousedown="handlePan(-1,0)">
                  <use xlink:href="#rim" fill="#404040">
                        <set attributeName="fill" to="#808080" begin="arrowLeft.mouseover" end="arrowLeft.mouseout"/>
                  </use>
                  <path fill="none" stroke="white" stroke-width="1.5" d="M0,-3.0v7 M-2.5,-0.5L0,-3.0L2.5,-0.5"/>
                </g>
        </g>
        <svg viewBox="0 0 15 15" width="100%" height="30px" preserveAspectRatio="xMaxYMin meet">
         <g id="arrow_out" transform="scale(0.3 0.3)">
          <a xlink:href="CreditCardProcessorInterface_8h__dep__incl_org.svg" target="_base">
           <rect id="button" ry="5" rx="5" y="6" x="6" height="38" width="38"
                fill="#f2f5e9" fill-opacity="0.5" stroke="#606060" stroke-width="1.0"/>
           <path id="arrow"
             d="M 11.500037,31.436501 C 11.940474,20.09759 22.043105,11.32322 32.158766,21.979434 L 37.068811,17.246167 C 37.068811,17.246167 37.088388,32 37.088388,32 L 22.160133,31.978069 C 22.160133,31.978069 26.997745,27.140456 26.997745,27.140456 C 18.528582,18.264221 13.291696,25.230495 11.500037,31.436501 z"
             style="fill:#404040;"/>
          </a>
         </g>
        </svg>
</svg>
