<?xml version="1.0" encoding="UTF-8" standalone="no"?>
<!DOCTYPE svg PUBLIC "-//W3C//DTD SVG 1.1//EN"
 "http://www.w3.org/Graphics/SVG/1.1/DTD/svg11.dtd">
<!-- Generated by graphviz version 2.40.1 (20161225.0304)
 -->
<!-- Title: TechnicalServices/Persistence/DatabaserInterface.h Pages: 1 -->
<svg width="425pt" height="173pt"
 viewBox="0.00 0.00 424.50 173.00" xmlns="http://www.w3.org/2000/svg" xmlns:xlink="http://www.w3.org/1999/xlink">
<g id="graph0" class="graph" transform="scale(1 1) rotate(0) translate(4 169)">
<title>TechnicalServices/Persistence/DatabaserInterface.h</title>
<polygon fill="#ffffff" stroke="transparent" points="-4,4 -4,-169 420.5,-169 420.5,4 -4,4"/>
<!-- Node5 -->
<g id="node1" class="node">
<title>Node5</title>
<polygon fill="#bfbfbf" stroke="#000000" points="97.5,-134.5 97.5,-164.5 249.5,-164.5 249.5,-134.5 97.5,-134.5"/>
<text text-anchor="start" x="105.5" y="-152.5" font-family="Helvetica,sans-Serif" font-size="10.00" fill="#000000">TechnicalServices/Persistence</text>
<text text-anchor="middle" x="173.5" y="-141.5" font-family="Helvetica,sans-Serif" font-size="10.00" fill="#000000">/DatabaserInterface.h</text>
</g>
<!-- Node6 -->
<g id="node2" class="node">
<title>Node6</title>
<g id="a_node2"><a xlink:href="ServerDaemon_8cpp.html" target="_top" xlink:title="Domain/Server/ServerDaemon.cpp">
<polygon fill="#ffffff" stroke="#000000" points="0,-73 0,-92 169,-92 169,-73 0,-73"/>
<text text-anchor="middle" x="84.5" y="-80" font-family="Helvetica,sans-Serif" font-size="10.00" fill="#000000">Domain/Server/ServerDaemon.cpp</text>
</a>
</g>
</g>
<!-- Node5&#45;&gt;Node6 -->
<g id="edge1" class="edge">
<title>Node5&#45;&gt;Node6</title>
<path fill="none" stroke="#191970" d="M145.2215,-128.2117C129.0859,-116.0646 109.6536,-101.4358 97.1924,-92.055"/>
<polygon fill="#191970" stroke="#191970" points="143.2103,-131.0785 153.3045,-134.2967 147.4203,-125.486 143.2103,-131.0785"/>
</g>
<!-- Node7 -->
<g id="node3" class="node">
<title>Node7</title>
<g id="a_node3"><a xlink:href="Databaser_8h.html" target="_top" xlink:title="TechnicalServices/Persistence\l/Databaser.h">
<polygon fill="#ffffff" stroke="#000000" points="187.5,-67.5 187.5,-97.5 339.5,-97.5 339.5,-67.5 187.5,-67.5"/>
<text text-anchor="start" x="195.5" y="-85.5" font-family="Helvetica,sans-Serif" font-size="10.00" fill="#000000">TechnicalServices/Persistence</text>
<text text-anchor="middle" x="263.5" y="-74.5" font-family="Helvetica,sans-Serif" font-size="10.00" fill="#000000">/Databaser.h</text>
</a>
</g>
</g>
<!-- Node5&#45;&gt;Node7 -->
<g id="edge2" class="edge">
<title>Node5&#45;&gt;Node7</title>
<path fill="none" stroke="#191970" d="M202.2942,-128.0643C215.6016,-118.1577 231.0913,-106.6265 243.1584,-97.6432"/>
<polygon fill="#191970" stroke="#191970" points="199.8537,-125.5177 193.9224,-134.2967 204.0338,-131.1327 199.8537,-125.5177"/>
</g>
<!-- Node8 -->
<g id="node4" class="node">
<title>Node8</title>
<g id="a_node4"><a xlink:href="Databaser_8cpp.html" target="_top" xlink:title="TechnicalServices/Persistence\l/Databaser.cpp">
<polygon fill="#ffffff" stroke="#000000" points="104.5,-.5 104.5,-30.5 256.5,-30.5 256.5,-.5 104.5,-.5"/>
<text text-anchor="start" x="112.5" y="-18.5" font-family="Helvetica,sans-Serif" font-size="10.00" fill="#000000">TechnicalServices/Persistence</text>
<text text-anchor="middle" x="180.5" y="-7.5" font-family="Helvetica,sans-Serif" font-size="10.00" fill="#000000">/Databaser.cpp</text>
</a>
</g>
</g>
<!-- Node7&#45;&gt;Node8 -->
<g id="edge3" class="edge">
<title>Node7&#45;&gt;Node8</title>
<path fill="none" stroke="#191970" d="M236.5942,-60.7808C224.4012,-50.9383 210.2821,-39.541 199.2595,-30.6432"/>
<polygon fill="#191970" stroke="#191970" points="234.6864,-63.7389 244.666,-67.2967 239.0832,-58.292 234.6864,-63.7389"/>
</g>
<!-- Node9 -->
<g id="node5" class="node">
<title>Node9</title>
<g id="a_node5"><a xlink:href="TechnicalServicesFactory_8cpp.html" target="_top" xlink:title="TechnicalServices/Technical\lServicesFactory.cpp">
<polygon fill="#ffffff" stroke="#000000" points="274.5,-.5 274.5,-30.5 416.5,-30.5 416.5,-.5 274.5,-.5"/>
<text text-anchor="start" x="282.5" y="-18.5" font-family="Helvetica,sans-Serif" font-size="10.00" fill="#000000">TechnicalServices/Technical</text>
<text text-anchor="middle" x="345.5" y="-7.5" font-family="Helvetica,sans-Serif" font-size="10.00" fill="#000000">ServicesFactory.cpp</text>
</a>
</g>
</g>
<!-- Node7&#45;&gt;Node9 -->
<g id="edge4" class="edge">
<title>Node7&#45;&gt;Node9</title>
<path fill="none" stroke="#191970" d="M290.0817,-60.7808C302.1278,-50.9383 316.0767,-39.541 326.9666,-30.6432"/>
<polygon fill="#191970" stroke="#191970" points="287.6363,-58.2591 282.1071,-67.2967 292.0654,-63.6797 287.6363,-58.2591"/>
</g>
</g>
</svg>
