<?xml version="1.0" encoding="UTF-8" standalone="no"?>
<!DOCTYPE svg PUBLIC "-//W3C//DTD SVG 1.1//EN"
 "http://www.w3.org/Graphics/SVG/1.1/DTD/svg11.dtd">
<!-- Generated by graphviz version 2.40.1 (20161225.0304)
 -->
<!-- Title: Domain/Game Pages: 1 -->
<svg width="164pt" height="183pt"
 viewBox="0.00 0.00 164.00 183.00" xmlns="http://www.w3.org/2000/svg" xmlns:xlink="http://www.w3.org/1999/xlink">
<g id="graph0" class="graph" transform="scale(1 1) rotate(0) translate(4 179)">
<title>Domain/Game</title>
<polygon fill="#ffffff" stroke="transparent" points="-4,4 -4,-179 160,-179 160,4 -4,4"/>
<g id="clust1" class="cluster">
<title>clusterdir_8c888e3f1190d8e08b273c29d1443e32</title>
<g id="a_clust1"><a xlink:href="dir_8c888e3f1190d8e08b273c29d1443e32.html" target="_top" xlink:title="Domain">
<polygon fill="#ddddee" stroke="#000000" points="8,-8 8,-167 94,-167 94,-8 8,-8"/>
<text text-anchor="middle" x="51" y="-155" font-family="Helvetica,sans-Serif" font-size="10.00" fill="#000000">Domain</text>
</a>
</g>
</g>
<g id="clust2" class="cluster">
<title>clusterdir_a7058df5840ea7b46449922e99e253eb</title>
<g id="a_clust2"><a xlink:href="dir_a7058df5840ea7b46449922e99e253eb.html" target="_top">
<polygon fill="#eeeeff" stroke="#000000" points="16,-16 16,-140 86,-140 86,-16 16,-16"/>
</a>
</g>
</g>
<!-- dir_a7058df5840ea7b46449922e99e253eb -->
<g id="node1" class="node">
<title>dir_a7058df5840ea7b46449922e99e253eb</title>
<text text-anchor="middle" x="51" y="-111.5" font-family="Helvetica,sans-Serif" font-size="10.00" fill="#000000">Game</text>
</g>
<!-- dir_9c1193be20013dd8b2698e91a4a3d3c3 -->
<g id="node2" class="node">
<title>dir_9c1193be20013dd8b2698e91a4a3d3c3</title>
<g id="a_node2"><a xlink:href="dir_9c1193be20013dd8b2698e91a4a3d3c3.html" target="_top" xlink:title="Actors">
<polygon fill="#ffffff" stroke="#000000" points="78,-60 24,-60 24,-24 78,-24 78,-60"/>
<text text-anchor="middle" x="51" y="-39.5" font-family="Helvetica,sans-Serif" font-size="10.00" fill="#000000">Actors</text>
</a>
</g>
</g>
<!-- dir_a7058df5840ea7b46449922e99e253eb&#45;&gt;dir_9c1193be20013dd8b2698e91a4a3d3c3 -->
<g id="edge3" class="edge">
<title>dir_a7058df5840ea7b46449922e99e253eb&#45;&gt;dir_9c1193be20013dd8b2698e91a4a3d3c3</title>
<path fill="none" stroke="#000000" d="M51,-95.8314C51,-88.131 51,-78.9743 51,-70.4166"/>
<polygon fill="#000000" stroke="#000000" points="54.5001,-70.4132 51,-60.4133 47.5001,-70.4133 54.5001,-70.4132"/>
<g id="a_edge3&#45;headlabel"><a xlink:href="dir_000002_000003.html" target="_top" xlink:title="3">
<text text-anchor="middle" x="57.3393" y="-71.5079" font-family="Helvetica,sans-Serif" font-size="10.00" fill="#000000">3</text>
</a>
</g>
</g>
<!-- dir_5a09006dcfc05a9e26f918e0f357e7ea -->
<g id="node3" class="node">
<title>dir_5a09006dcfc05a9e26f918e0f357e7ea</title>
<g id="a_node3"><a xlink:href="dir_5a09006dcfc05a9e26f918e0f357e7ea.html" target="_top" xlink:title="Factory">
<polygon fill="none" stroke="#000000" points="156,-60 102,-60 102,-24 156,-24 156,-60"/>
<text text-anchor="middle" x="129" y="-39.5" font-family="Helvetica,sans-Serif" font-size="10.00" fill="#000000">Factory</text>
</a>
</g>
</g>
<!-- dir_a7058df5840ea7b46449922e99e253eb&#45;&gt;dir_5a09006dcfc05a9e26f918e0f357e7ea -->
<g id="edge2" class="edge">
<title>dir_a7058df5840ea7b46449922e99e253eb&#45;&gt;dir_5a09006dcfc05a9e26f918e0f357e7ea</title>
<path fill="none" stroke="#000000" d="M64.7303,-95.8314C73.3892,-87.0485 84.7892,-76.3712 95.6269,-66.8489"/>
<polygon fill="#000000" stroke="#000000" points="98.0893,-69.3469 103.3718,-60.1628 93.515,-64.0482 98.0893,-69.3469"/>
<g id="a_edge2&#45;headlabel"><a xlink:href="dir_000002_000001.html" target="_top" xlink:title="1">
<text text-anchor="middle" x="97.2237" y="-71.345" font-family="Helvetica,sans-Serif" font-size="10.00" fill="#000000">1</text>
</a>
</g>
</g>
<!-- dir_5a09006dcfc05a9e26f918e0f357e7ea&#45;&gt;dir_a7058df5840ea7b46449922e99e253eb -->
<g id="edge1" class="edge">
<title>dir_5a09006dcfc05a9e26f918e0f357e7ea&#45;&gt;dir_a7058df5840ea7b46449922e99e253eb</title>
<path fill="none" stroke="#000000" d="M115.0283,-60.4133C106.3854,-69.1637 95.0732,-79.7519 84.3201,-89.1978"/>
<polygon fill="#000000" stroke="#000000" points="81.918,-86.6476 76.6351,-95.8314 86.492,-91.9465 81.918,-86.6476"/>
<g id="a_edge1&#45;headlabel"><a xlink:href="dir_000001_000002.html" target="_top" xlink:title="1">
<text text-anchor="middle" x="82.7838" y="-79.6495" font-family="Helvetica,sans-Serif" font-size="10.00" fill="#000000">1</text>
</a>
</g>
</g>
</g>
</svg>
