<?xml version="1.0" encoding="UTF-8" standalone="no"?>
<!DOCTYPE svg PUBLIC "-//W3C//DTD SVG 1.1//EN"
 "http://www.w3.org/Graphics/SVG/1.1/DTD/svg11.dtd">
<!-- Generated by graphviz version 2.40.1 (20161225.0304)
 -->
<!-- Title: Domain Pages: 1 -->
<svg width="355pt" height="237pt"
 viewBox="0.00 0.00 354.50 237.35" xmlns="http://www.w3.org/2000/svg" xmlns:xlink="http://www.w3.org/1999/xlink">
<g id="graph0" class="graph" transform="scale(1 1) rotate(0) translate(4 233.3486)">
<title>Domain</title>
<polygon fill="#ffffff" stroke="transparent" points="-4,4 -4,-233.3486 350.5,-233.3486 350.5,4 -4,4"/>
<g id="clust1" class="cluster">
<title>clusterdir_8c888e3f1190d8e08b273c29d1443e32</title>
<g id="a_clust1"><a xlink:href="dir_8c888e3f1190d8e08b273c29d1443e32.html" target="_top">
<polygon fill="#eeeeff" stroke="#000000" points="8,-8 8,-204 242,-204 242,-8 8,-8"/>
</a>
</g>
</g>
<!-- dir_8c888e3f1190d8e08b273c29d1443e32 -->
<g id="node1" class="node">
<title>dir_8c888e3f1190d8e08b273c29d1443e32</title>
<text text-anchor="middle" x="207" y="-175.5" font-family="Helvetica,sans-Serif" font-size="10.00" fill="#000000">Domain</text>
</g>
<!-- dir_5a09006dcfc05a9e26f918e0f357e7ea -->
<g id="node2" class="node">
<title>dir_5a09006dcfc05a9e26f918e0f357e7ea</title>
<g id="a_node2"><a xlink:href="dir_5a09006dcfc05a9e26f918e0f357e7ea.html" target="_top" xlink:title="Factory">
<polygon fill="#ffffff" stroke="#000000" points="162,-196 108,-196 108,-160 162,-160 162,-196"/>
<text text-anchor="middle" x="135" y="-175.5" font-family="Helvetica,sans-Serif" font-size="10.00" fill="#000000">Factory</text>
</a>
</g>
</g>
<!-- dir_a7058df5840ea7b46449922e99e253eb -->
<g id="node3" class="node">
<title>dir_a7058df5840ea7b46449922e99e253eb</title>
<g id="a_node3"><a xlink:href="dir_a7058df5840ea7b46449922e99e253eb.html" target="_top" xlink:title="Game">
<polygon fill="#ffffff" stroke="#ff0000" points="162,-124 108,-124 108,-88 162,-88 162,-124"/>
<text text-anchor="middle" x="135" y="-103.5" font-family="Helvetica,sans-Serif" font-size="10.00" fill="#000000">Game</text>
</a>
</g>
</g>
<!-- dir_5a09006dcfc05a9e26f918e0f357e7ea&#45;&gt;dir_a7058df5840ea7b46449922e99e253eb -->
<g id="edge2" class="edge">
<title>dir_5a09006dcfc05a9e26f918e0f357e7ea&#45;&gt;dir_a7058df5840ea7b46449922e99e253eb</title>
<path fill="none" stroke="#000000" d="M129.0476,-159.8314C128.2972,-152.131 128.0763,-142.9743 128.3849,-134.4166"/>
<polygon fill="#000000" stroke="#000000" points="131.8792,-134.6161 129.024,-124.4133 124.8935,-134.1697 131.8792,-134.6161"/>
<g id="a_edge2&#45;headlabel"><a xlink:href="dir_000001_000002.html" target="_top" xlink:title="1">
<text text-anchor="middle" x="134.4836" y="-135.8844" font-family="Helvetica,sans-Serif" font-size="10.00" fill="#000000">1</text>
</a>
</g>
</g>
<!-- dir_71a3c507df02df55ec4315289e7008b4 -->
<g id="node4" class="node">
<title>dir_71a3c507df02df55ec4315289e7008b4</title>
<g id="a_node4"><a xlink:href="dir_71a3c507df02df55ec4315289e7008b4.html" target="_top" xlink:title="Net">
<polygon fill="#ffffff" stroke="#ff0000" points="90,-52 36,-52 36,-16 90,-16 90,-52"/>
<text text-anchor="middle" x="63" y="-31.5" font-family="Helvetica,sans-Serif" font-size="10.00" fill="#000000">Net</text>
</a>
</g>
</g>
<!-- dir_5a09006dcfc05a9e26f918e0f357e7ea&#45;&gt;dir_71a3c507df02df55ec4315289e7008b4 -->
<g id="edge1" class="edge">
<title>dir_5a09006dcfc05a9e26f918e0f357e7ea&#45;&gt;dir_71a3c507df02df55ec4315289e7008b4</title>
<path fill="none" stroke="#000000" d="M107.7811,-172.8289C81.9412,-166.3174 44.5233,-152.3534 27,-124 14.5709,-103.8892 26.6244,-78.7477 40.0329,-60.153"/>
<polygon fill="#000000" stroke="#000000" points="42.8929,-62.1753 46.2059,-52.1118 37.3403,-57.9128 42.8929,-62.1753"/>
<g id="a_edge1&#45;headlabel"><a xlink:href="dir_000001_000006.html" target="_top" xlink:title="1">
<text text-anchor="middle" x="42.9562" y="-64.2555" font-family="Helvetica,sans-Serif" font-size="10.00" fill="#000000">1</text>
</a>
</g>
</g>
<!-- dir_6114d036417128150191e2360d6d9bff -->
<g id="node5" class="node">
<title>dir_6114d036417128150191e2360d6d9bff</title>
<g id="a_node5"><a xlink:href="dir_6114d036417128150191e2360d6d9bff.html" target="_top" xlink:title="Server">
<polygon fill="#ffffff" stroke="#000000" points="234,-124 180,-124 180,-88 234,-88 234,-124"/>
<text text-anchor="middle" x="207" y="-103.5" font-family="Helvetica,sans-Serif" font-size="10.00" fill="#000000">Server</text>
</a>
</g>
</g>
<!-- dir_5a09006dcfc05a9e26f918e0f357e7ea&#45;&gt;dir_6114d036417128150191e2360d6d9bff -->
<g id="edge4" class="edge">
<title>dir_5a09006dcfc05a9e26f918e0f357e7ea&#45;&gt;dir_6114d036417128150191e2360d6d9bff</title>
<path fill="none" stroke="#000000" d="M147.2162,-159.8314C155.0663,-151.1337 165.4496,-140.5783 175.4049,-131.1265"/>
<polygon fill="#000000" stroke="#000000" points="177.9508,-133.5384 182.8853,-124.1628 173.1812,-128.4148 177.9508,-133.5384"/>
<g id="a_edge4&#45;headlabel"><a xlink:href="dir_000001_000015.html" target="_top" xlink:title="1">
<text text-anchor="middle" x="177.2544" y="-135.5658" font-family="Helvetica,sans-Serif" font-size="10.00" fill="#000000">1</text>
</a>
</g>
</g>
<!-- dir_d8c51d4836575d12cc566883f62b282a -->
<g id="node6" class="node">
<title>dir_d8c51d4836575d12cc566883f62b282a</title>
<g id="a_node6"><a xlink:href="dir_d8c51d4836575d12cc566883f62b282a.html" target="_top" xlink:title="Store">
<polygon fill="#ffffff" stroke="#ff0000" points="90,-124 36,-124 36,-88 90,-88 90,-124"/>
<text text-anchor="middle" x="63" y="-103.5" font-family="Helvetica,sans-Serif" font-size="10.00" fill="#000000">Store</text>
</a>
</g>
</g>
<!-- dir_5a09006dcfc05a9e26f918e0f357e7ea&#45;&gt;dir_d8c51d4836575d12cc566883f62b282a -->
<g id="edge6" class="edge">
<title>dir_5a09006dcfc05a9e26f918e0f357e7ea&#45;&gt;dir_d8c51d4836575d12cc566883f62b282a</title>
<path fill="none" stroke="#000000" d="M110.879,-159.8314C101.5923,-151.3694 91.1867,-141.1489 82.3891,-131.8971"/>
<polygon fill="#000000" stroke="#000000" points="84.8075,-129.3579 75.4373,-124.4133 79.6788,-134.122 84.8075,-129.3579"/>
<g id="a_edge6&#45;headlabel"><a xlink:href="dir_000001_000010.html" target="_top" xlink:title="1">
<text text-anchor="middle" x="89.3342" y="-127.5592" font-family="Helvetica,sans-Serif" font-size="10.00" fill="#000000">1</text>
</a>
</g>
</g>
<!-- dir_2b443badf70068dbf14fb9726037da1f -->
<g id="node7" class="node">
<title>dir_2b443badf70068dbf14fb9726037da1f</title>
<g id="a_node7"><a xlink:href="dir_2b443badf70068dbf14fb9726037da1f.html" target="_top" xlink:title="TechnicalServices">
<polygon fill="#ffffff" stroke="#ff0000" points="346.5,-52 249.5,-52 249.5,-16 346.5,-16 346.5,-52"/>
<text text-anchor="middle" x="298" y="-31.5" font-family="Helvetica,sans-Serif" font-size="10.00" fill="#000000">TechnicalServices</text>
</a>
</g>
</g>
<!-- dir_5a09006dcfc05a9e26f918e0f357e7ea&#45;&gt;dir_2b443badf70068dbf14fb9726037da1f -->
<g id="edge3" class="edge">
<title>dir_5a09006dcfc05a9e26f918e0f357e7ea&#45;&gt;dir_2b443badf70068dbf14fb9726037da1f</title>
<path fill="none" stroke="#000000" d="M162.2362,-164.3889C194.213,-148.4077 242.9481,-124.0476 243,-124 262.036,-106.5153 276.8009,-80.9505 286.2174,-61.5315"/>
<polygon fill="#000000" stroke="#000000" points="289.4753,-62.8264 290.5269,-52.2839 283.1304,-59.8696 289.4753,-62.8264"/>
<g id="a_edge3&#45;headlabel"><a xlink:href="dir_000001_000016.html" target="_top" xlink:title="1">
<text text-anchor="middle" x="290.5305" y="-64.7839" font-family="Helvetica,sans-Serif" font-size="10.00" fill="#000000">1</text>
</a>
</g>
</g>
<!-- dir_53ff6e473d46d4e442ba5a7ce9f895e3 -->
<g id="node8" class="node">
<title>dir_53ff6e473d46d4e442ba5a7ce9f895e3</title>
<g id="a_node8"><a xlink:href="dir_53ff6e473d46d4e442ba5a7ce9f895e3.html" target="_top" xlink:title="UI">
<polygon fill="#ffffff" stroke="#ff0000" points="306,-196 252,-196 252,-160 306,-160 306,-196"/>
<text text-anchor="middle" x="279" y="-175.5" font-family="Helvetica,sans-Serif" font-size="10.00" fill="#000000">UI</text>
</a>
</g>
</g>
<!-- dir_5a09006dcfc05a9e26f918e0f357e7ea&#45;&gt;dir_53ff6e473d46d4e442ba5a7ce9f895e3 -->
<g id="edge5" class="edge">
<title>dir_5a09006dcfc05a9e26f918e0f357e7ea&#45;&gt;dir_53ff6e473d46d4e442ba5a7ce9f895e3</title>
<path fill="none" stroke="#000000" d="M147.7866,-196.0404C155.7989,-205.7205 167.0489,-216.7205 180,-222 203.459,-231.563 213.7093,-231.9661 237,-222 246.1263,-218.0948 254.2132,-211.1252 260.7935,-203.868"/>
<polygon fill="#000000" stroke="#000000" points="263.6223,-205.9402 267.3205,-196.0118 258.238,-201.4669 263.6223,-205.9402"/>
<g id="a_edge5&#45;headlabel"><a xlink:href="dir_000001_000004.html" target="_top" xlink:title="1">
<text text-anchor="middle" x="263.5091" y="-208.0195" font-family="Helvetica,sans-Serif" font-size="10.00" fill="#000000">1</text>
</a>
</g>
</g>
<!-- dir_a7058df5840ea7b46449922e99e253eb&#45;&gt;dir_5a09006dcfc05a9e26f918e0f357e7ea -->
<g id="edge7" class="edge">
<title>dir_a7058df5840ea7b46449922e99e253eb&#45;&gt;dir_5a09006dcfc05a9e26f918e0f357e7ea</title>
<path fill="none" stroke="#000000" d="M140.976,-124.4133C141.7071,-132.0593 141.9203,-141.1084 141.6155,-149.5726"/>
<polygon fill="#000000" stroke="#000000" points="138.1048,-149.6264 140.9524,-159.8314 145.0902,-150.078 138.1048,-149.6264"/>
<g id="a_edge7&#45;headlabel"><a xlink:href="dir_000002_000001.html" target="_top" xlink:title="1">
<text text-anchor="middle" x="135.5032" y="-143.3562" font-family="Helvetica,sans-Serif" font-size="10.00" fill="#000000">1</text>
</a>
</g>
</g>
<!-- dir_6114d036417128150191e2360d6d9bff&#45;&gt;dir_5a09006dcfc05a9e26f918e0f357e7ea -->
<g id="edge8" class="edge">
<title>dir_6114d036417128150191e2360d6d9bff&#45;&gt;dir_5a09006dcfc05a9e26f918e0f357e7ea</title>
<path fill="none" stroke="#000000" d="M194.5627,-124.4133C186.7259,-133.0787 176.4215,-143.5464 166.5436,-152.9223"/>
<polygon fill="#000000" stroke="#000000" points="164.0561,-150.4561 159.121,-159.8314 168.8255,-155.5799 164.0561,-150.4561"/>
<g id="a_edge8&#45;headlabel"><a xlink:href="dir_000015_000001.html" target="_top" xlink:title="1">
<text text-anchor="middle" x="164.7528" y="-143.4287" font-family="Helvetica,sans-Serif" font-size="10.00" fill="#000000">1</text>
</a>
</g>
</g>
<!-- dir_6114d036417128150191e2360d6d9bff&#45;&gt;dir_2b443badf70068dbf14fb9726037da1f -->
<g id="edge9" class="edge">
<title>dir_6114d036417128150191e2360d6d9bff&#45;&gt;dir_2b443badf70068dbf14fb9726037da1f</title>
<path fill="none" stroke="#000000" d="M229.9631,-87.8314C241.1715,-78.9632 254.8209,-68.1637 266.9439,-58.5718"/>
<polygon fill="#000000" stroke="#000000" points="269.3737,-61.1125 275.0442,-52.1628 265.0303,-55.6229 269.3737,-61.1125"/>
<g id="a_edge9&#45;headlabel"><a xlink:href="dir_000015_000016.html" target="_top" xlink:title="2">
<text text-anchor="middle" x="268.3164" y="-63.0694" font-family="Helvetica,sans-Serif" font-size="10.00" fill="#000000">2</text>
</a>
</g>
</g>
<!-- dir_d8c51d4836575d12cc566883f62b282a&#45;&gt;dir_5a09006dcfc05a9e26f918e0f357e7ea -->
<g id="edge17" class="edge">
<title>dir_d8c51d4836575d12cc566883f62b282a&#45;&gt;dir_5a09006dcfc05a9e26f918e0f357e7ea</title>
<path fill="none" stroke="#000000" d="M87.1147,-124.1628C96.4722,-132.6891 106.9667,-143.0016 115.8076,-152.3099"/>
<polygon fill="#000000" stroke="#000000" points="113.4173,-154.8796 122.7838,-159.8314 118.5496,-150.1194 113.4173,-154.8796"/>
<g id="a_edge17&#45;headlabel"><a xlink:href="dir_000010_000001.html" target="_top" xlink:title="1">
<text text-anchor="middle" x="108.8912" y="-151.6749" font-family="Helvetica,sans-Serif" font-size="10.00" fill="#000000">1</text>
</a>
</g>
</g>
<!-- dir_d8c51d4836575d12cc566883f62b282a&#45;&gt;dir_71a3c507df02df55ec4315289e7008b4 -->
<g id="edge16" class="edge">
<title>dir_d8c51d4836575d12cc566883f62b282a&#45;&gt;dir_71a3c507df02df55ec4315289e7008b4</title>
<path fill="none" stroke="#000000" d="M63,-87.8314C63,-80.131 63,-70.9743 63,-62.4166"/>
<polygon fill="#000000" stroke="#000000" points="66.5001,-62.4132 63,-52.4133 59.5001,-62.4133 66.5001,-62.4132"/>
<g id="a_edge16&#45;headlabel"><a xlink:href="dir_000010_000006.html" target="_top" xlink:title="2">
<text text-anchor="middle" x="69.3393" y="-63.5079" font-family="Helvetica,sans-Serif" font-size="10.00" fill="#000000">2</text>
</a>
</g>
</g>
<!-- dir_53ff6e473d46d4e442ba5a7ce9f895e3&#45;&gt;dir_5a09006dcfc05a9e26f918e0f357e7ea -->
<g id="edge11" class="edge">
<title>dir_53ff6e473d46d4e442ba5a7ce9f895e3&#45;&gt;dir_5a09006dcfc05a9e26f918e0f357e7ea</title>
<path fill="none" stroke="#000000" d="M267.3205,-196.0118C259.9273,-205.6823 249.4273,-216.6823 237,-222 213.7093,-231.9661 203.459,-231.563 180,-222 170.489,-218.1229 161.8955,-211.1606 154.8279,-203.9017"/>
<polygon fill="#000000" stroke="#000000" points="157.0657,-201.1541 147.7866,-196.0404 151.8515,-205.8245 157.0657,-201.1541"/>
<g id="a_edge11&#45;headlabel"><a xlink:href="dir_000004_000001.html" target="_top" xlink:title="3">
<text text-anchor="middle" x="161.5789" y="-199.4374" font-family="Helvetica,sans-Serif" font-size="10.00" fill="#000000">3</text>
</a>
</g>
</g>
<!-- dir_53ff6e473d46d4e442ba5a7ce9f895e3&#45;&gt;dir_a7058df5840ea7b46449922e99e253eb -->
<g id="edge12" class="edge">
<title>dir_53ff6e473d46d4e442ba5a7ce9f895e3&#45;&gt;dir_a7058df5840ea7b46449922e99e253eb</title>
<path fill="none" stroke="#000000" d="M251.687,-162.9604C249.7682,-161.9475 247.8586,-160.9522 246,-160 215.6633,-144.4587 205.7388,-140.8026 171.3899,-124.1415"/>
<polygon fill="#000000" stroke="#000000" points="172.6256,-120.8501 162.1036,-119.6103 169.5559,-127.1411 172.6256,-120.8501"/>
<g id="a_edge12&#45;headlabel"><a xlink:href="dir_000004_000002.html" target="_top" xlink:title="7">
<text text-anchor="middle" x="177.1012" y="-117.3747" font-family="Helvetica,sans-Serif" font-size="10.00" fill="#000000">7</text>
</a>
</g>
</g>
<!-- dir_53ff6e473d46d4e442ba5a7ce9f895e3&#45;&gt;dir_71a3c507df02df55ec4315289e7008b4 -->
<g id="edge10" class="edge">
<title>dir_53ff6e473d46d4e442ba5a7ce9f895e3&#45;&gt;dir_71a3c507df02df55ec4315289e7008b4</title>
<path fill="none" stroke="#000000" d="M276.4912,-159.8077C272.7387,-139.4885 263.7372,-106.9682 243,-88 222.0735,-68.8587 146.556,-50.8113 100.2448,-41.1998"/>
<polygon fill="#000000" stroke="#000000" points="100.7724,-37.7354 90.2747,-39.1669 99.3739,-44.5943 100.7724,-37.7354"/>
<g id="a_edge10&#45;headlabel"><a xlink:href="dir_000004_000006.html" target="_top" xlink:title="6">
<text text-anchor="middle" x="104.8617" y="-33.1714" font-family="Helvetica,sans-Serif" font-size="10.00" fill="#000000">6</text>
</a>
</g>
</g>
<!-- dir_53ff6e473d46d4e442ba5a7ce9f895e3&#45;&gt;dir_6114d036417128150191e2360d6d9bff -->
<g id="edge14" class="edge">
<title>dir_53ff6e473d46d4e442ba5a7ce9f895e3&#45;&gt;dir_6114d036417128150191e2360d6d9bff</title>
<path fill="none" stroke="#000000" d="M260.8314,-159.8314C252.2848,-151.2848 241.9443,-140.9443 232.6198,-131.6198"/>
<polygon fill="#000000" stroke="#000000" points="234.9592,-129.0095 225.4133,-124.4133 230.0095,-133.9592 234.9592,-129.0095"/>
<g id="a_edge14&#45;headlabel"><a xlink:href="dir_000004_000015.html" target="_top" xlink:title="4">
<text text-anchor="middle" x="239.5087" y="-127.0436" font-family="Helvetica,sans-Serif" font-size="10.00" fill="#000000">4</text>
</a>
</g>
</g>
<!-- dir_53ff6e473d46d4e442ba5a7ce9f895e3&#45;&gt;dir_d8c51d4836575d12cc566883f62b282a -->
<g id="edge15" class="edge">
<title>dir_53ff6e473d46d4e442ba5a7ce9f895e3&#45;&gt;dir_d8c51d4836575d12cc566883f62b282a</title>
<path fill="none" stroke="#000000" d="M251.8904,-162.5069C249.9232,-161.602 247.9472,-160.7547 246,-160 186.222,-136.8309 164.2151,-146.1864 100.0237,-123.9282"/>
<polygon fill="#000000" stroke="#000000" points="100.8316,-120.4993 90.2372,-120.4072 98.4618,-127.086 100.8316,-120.4993"/>
<g id="a_edge15&#45;headlabel"><a xlink:href="dir_000004_000010.html" target="_top" xlink:title="8">
<text text-anchor="middle" x="105.1752" y="-116.5446" font-family="Helvetica,sans-Serif" font-size="10.00" fill="#000000">8</text>
</a>
</g>
</g>
<!-- dir_53ff6e473d46d4e442ba5a7ce9f895e3&#45;&gt;dir_2b443badf70068dbf14fb9726037da1f -->
<g id="edge13" class="edge">
<title>dir_53ff6e473d46d4e442ba5a7ce9f895e3&#45;&gt;dir_2b443badf70068dbf14fb9726037da1f</title>
<path fill="none" stroke="#000000" d="M294.5525,-159.8462C302.0046,-149.947 310.1347,-137.0702 314,-124 320.0477,-103.5502 315.3381,-79.7717 309.498,-61.7933"/>
<polygon fill="#000000" stroke="#000000" points="312.7392,-60.461 306.1004,-52.2041 306.1412,-62.7989 312.7392,-60.461"/>
<g id="a_edge13&#45;headlabel"><a xlink:href="dir_000004_000016.html" target="_top" xlink:title="5">
<text text-anchor="middle" x="316.6159" y="-60.401" font-family="Helvetica,sans-Serif" font-size="10.00" fill="#000000">5</text>
</a>
</g>
</g>
</g>
</svg>
