<?xml version="1.0" encoding="UTF-8" standalone="no"?>
<!DOCTYPE svg PUBLIC "-//W3C//DTD SVG 1.1//EN"
 "http://www.w3.org/Graphics/SVG/1.1/DTD/svg11.dtd">
<!-- Generated by graphviz version 2.40.1 (20161225.0304)
 -->
<!-- Title: Domain/Net Pages: 1 -->
<svg width="134pt" height="255pt"
 viewBox="0.00 0.00 134.00 255.00" xmlns="http://www.w3.org/2000/svg" xmlns:xlink="http://www.w3.org/1999/xlink">
<g id="graph0" class="graph" transform="scale(1 1) rotate(0) translate(4 251)">
<title>Domain/Net</title>
<polygon fill="#ffffff" stroke="transparent" points="-4,4 -4,-251 130,-251 130,4 -4,4"/>
<g id="clust1" class="cluster">
<title>clusterdir_8c888e3f1190d8e08b273c29d1443e32</title>
<g id="a_clust1"><a xlink:href="dir_8c888e3f1190d8e08b273c29d1443e32.html" target="_top" xlink:title="Domain">
<polygon fill="#ddddee" stroke="#000000" points="8,-8 8,-239 118,-239 118,-8 8,-8"/>
<text text-anchor="middle" x="63" y="-227" font-family="Helvetica,sans-Serif" font-size="10.00" fill="#000000">Domain</text>
</a>
</g>
</g>
<g id="clust2" class="cluster">
<title>clusterdir_71a3c507df02df55ec4315289e7008b4</title>
<g id="a_clust2"><a xlink:href="dir_71a3c507df02df55ec4315289e7008b4.html" target="_top">
<polygon fill="#eeeeff" stroke="#000000" points="16,-16 16,-212 110,-212 110,-16 16,-16"/>
</a>
</g>
</g>
<!-- dir_71a3c507df02df55ec4315289e7008b4 -->
<g id="node1" class="node">
<title>dir_71a3c507df02df55ec4315289e7008b4</title>
<text text-anchor="middle" x="63" y="-183.5" font-family="Helvetica,sans-Serif" font-size="10.00" fill="#000000">Net</text>
</g>
<!-- dir_0ed6e839f02efe19cff0b5a26f7de4c3 -->
<g id="node2" class="node">
<title>dir_0ed6e839f02efe19cff0b5a26f7de4c3</title>
<g id="a_node2"><a xlink:href="dir_0ed6e839f02efe19cff0b5a26f7de4c3.html" target="_top" xlink:title="Authentication">
<polygon fill="#ffffff" stroke="#000000" points="102.5,-132 23.5,-132 23.5,-96 102.5,-96 102.5,-132"/>
<text text-anchor="middle" x="63" y="-111.5" font-family="Helvetica,sans-Serif" font-size="10.00" fill="#000000">Authentication</text>
</a>
</g>
</g>
<!-- dir_71a3c507df02df55ec4315289e7008b4&#45;&gt;dir_0ed6e839f02efe19cff0b5a26f7de4c3 -->
<g id="edge1" class="edge">
<title>dir_71a3c507df02df55ec4315289e7008b4&#45;&gt;dir_0ed6e839f02efe19cff0b5a26f7de4c3</title>
<path fill="none" stroke="#000000" d="M63,-167.8314C63,-160.131 63,-150.9743 63,-142.4166"/>
<polygon fill="#000000" stroke="#000000" points="66.5001,-142.4132 63,-132.4133 59.5001,-142.4133 66.5001,-142.4132"/>
<g id="a_edge1&#45;headlabel"><a xlink:href="dir_000006_000007.html" target="_top" xlink:title="1">
<text text-anchor="middle" x="69.3393" y="-143.5079" font-family="Helvetica,sans-Serif" font-size="10.00" fill="#000000">1</text>
</a>
</g>
</g>
<!-- dir_d124068c658363a9ad76c7f9b7f39a47 -->
<g id="node3" class="node">
<title>dir_d124068c658363a9ad76c7f9b7f39a47</title>
<g id="a_node3"><a xlink:href="dir_d124068c658363a9ad76c7f9b7f39a47.html" target="_top" xlink:title="Messages">
<polygon fill="#ffffff" stroke="#ff0000" points="94,-60 32,-60 32,-24 94,-24 94,-60"/>
<text text-anchor="middle" x="63" y="-39.5" font-family="Helvetica,sans-Serif" font-size="10.00" fill="#000000">Messages</text>
</a>
</g>
</g>
<!-- dir_0ed6e839f02efe19cff0b5a26f7de4c3&#45;&gt;dir_d124068c658363a9ad76c7f9b7f39a47 -->
<g id="edge2" class="edge">
<title>dir_0ed6e839f02efe19cff0b5a26f7de4c3&#45;&gt;dir_d124068c658363a9ad76c7f9b7f39a47</title>
<path fill="none" stroke="#000000" d="M63,-95.8314C63,-88.131 63,-78.9743 63,-70.4166"/>
<polygon fill="#000000" stroke="#000000" points="66.5001,-70.4132 63,-60.4133 59.5001,-70.4133 66.5001,-70.4132"/>
<g id="a_edge2&#45;headlabel"><a xlink:href="dir_000007_000008.html" target="_top" xlink:title="2">
<text text-anchor="middle" x="69.3393" y="-71.5079" font-family="Helvetica,sans-Serif" font-size="10.00" fill="#000000">2</text>
</a>
</g>
</g>
</g>
</svg>
