<?xml version="1.0" encoding="UTF-8" standalone="no"?>
<!DOCTYPE svg PUBLIC "-//W3C//DTD SVG 1.1//EN"
 "http://www.w3.org/Graphics/SVG/1.1/DTD/svg11.dtd">
<!-- Generated by graphviz version 2.40.1 (20161225.0304)
 -->
<!-- Title: Domain/Store Pages: 1 -->
<svg width="164pt" height="183pt"
 viewBox="0.00 0.00 164.00 183.00" xmlns="http://www.w3.org/2000/svg" xmlns:xlink="http://www.w3.org/1999/xlink">
<g id="graph0" class="graph" transform="scale(1 1) rotate(0) translate(4 179)">
<title>Domain/Store</title>
<polygon fill="#ffffff" stroke="transparent" points="-4,4 -4,-179 160,-179 160,4 -4,4"/>
<g id="clust1" class="cluster">
<title>clusterdir_8c888e3f1190d8e08b273c29d1443e32</title>
<g id="a_clust1"><a xlink:href="dir_8c888e3f1190d8e08b273c29d1443e32.html" target="_top" xlink:title="Domain">
<polygon fill="#ddddee" stroke="#000000" points="8,-8 8,-167 94,-167 94,-8 8,-8"/>
<text text-anchor="middle" x="51" y="-155" font-family="Helvetica,sans-Serif" font-size="10.00" fill="#000000">Domain</text>
</a>
</g>
</g>
<g id="clust2" class="cluster">
<title>clusterdir_d8c51d4836575d12cc566883f62b282a</title>
<g id="a_clust2"><a xlink:href="dir_d8c51d4836575d12cc566883f62b282a.html" target="_top">
<polygon fill="#eeeeff" stroke="#000000" points="16,-16 16,-140 86,-140 86,-16 16,-16"/>
</a>
</g>
</g>
<!-- dir_d8c51d4836575d12cc566883f62b282a -->
<g id="node1" class="node">
<title>dir_d8c51d4836575d12cc566883f62b282a</title>
<text text-anchor="middle" x="51" y="-111.5" font-family="Helvetica,sans-Serif" font-size="10.00" fill="#000000">Store</text>
</g>
<!-- dir_d4a988a7a84d02024b3c16c59e3408c6 -->
<g id="node2" class="node">
<title>dir_d4a988a7a84d02024b3c16c59e3408c6</title>
<g id="a_node2"><a xlink:href="dir_d4a988a7a84d02024b3c16c59e3408c6.html" target="_top" xlink:title="Enums">
<polygon fill="#ffffff" stroke="#000000" points="78,-60 24,-60 24,-24 78,-24 78,-60"/>
<text text-anchor="middle" x="51" y="-39.5" font-family="Helvetica,sans-Serif" font-size="10.00" fill="#000000">Enums</text>
</a>
</g>
</g>
<!-- dir_d8c51d4836575d12cc566883f62b282a&#45;&gt;dir_d4a988a7a84d02024b3c16c59e3408c6 -->
<g id="edge5" class="edge">
<title>dir_d8c51d4836575d12cc566883f62b282a&#45;&gt;dir_d4a988a7a84d02024b3c16c59e3408c6</title>
<path fill="none" stroke="#000000" d="M51,-95.8314C51,-88.131 51,-78.9743 51,-70.4166"/>
<polygon fill="#000000" stroke="#000000" points="54.5001,-70.4132 51,-60.4133 47.5001,-70.4133 54.5001,-70.4132"/>
<g id="a_edge5&#45;headlabel"><a xlink:href="dir_000010_000011.html" target="_top" xlink:title="2">
<text text-anchor="middle" x="57.3393" y="-71.5079" font-family="Helvetica,sans-Serif" font-size="10.00" fill="#000000">2</text>
</a>
</g>
</g>
<!-- dir_71a3c507df02df55ec4315289e7008b4 -->
<g id="node3" class="node">
<title>dir_71a3c507df02df55ec4315289e7008b4</title>
<g id="a_node3"><a xlink:href="dir_71a3c507df02df55ec4315289e7008b4.html" target="_top" xlink:title="Net">
<polygon fill="#ffffff" stroke="#ff0000" points="156,-60 102,-60 102,-24 156,-24 156,-60"/>
<text text-anchor="middle" x="129" y="-39.5" font-family="Helvetica,sans-Serif" font-size="10.00" fill="#000000">Net</text>
</a>
</g>
</g>
<!-- dir_d8c51d4836575d12cc566883f62b282a&#45;&gt;dir_71a3c507df02df55ec4315289e7008b4 -->
<g id="edge3" class="edge">
<title>dir_d8c51d4836575d12cc566883f62b282a&#45;&gt;dir_71a3c507df02df55ec4315289e7008b4</title>
<path fill="none" stroke="#000000" d="M70.6827,-95.8314C80.1051,-87.1337 91.5401,-76.5783 101.7796,-67.1265"/>
<polygon fill="#000000" stroke="#000000" points="104.3495,-69.5175 109.3236,-60.1628 99.6016,-64.3738 104.3495,-69.5175"/>
<g id="a_edge3&#45;headlabel"><a xlink:href="dir_000010_000006.html" target="_top" xlink:title="2">
<text text-anchor="middle" x="103.634" y="-71.5419" font-family="Helvetica,sans-Serif" font-size="10.00" fill="#000000">2</text>
</a>
</g>
</g>
<!-- dir_5a09006dcfc05a9e26f918e0f357e7ea -->
<g id="node4" class="node">
<title>dir_5a09006dcfc05a9e26f918e0f357e7ea</title>
<g id="a_node4"><a xlink:href="dir_5a09006dcfc05a9e26f918e0f357e7ea.html" target="_top" xlink:title="Factory">
<polygon fill="none" stroke="#000000" points="156,-132 102,-132 102,-96 156,-96 156,-132"/>
<text text-anchor="middle" x="129" y="-111.5" font-family="Helvetica,sans-Serif" font-size="10.00" fill="#000000">Factory</text>
</a>
</g>
</g>
<!-- dir_d8c51d4836575d12cc566883f62b282a&#45;&gt;dir_5a09006dcfc05a9e26f918e0f357e7ea -->
<g id="edge4" class="edge">
<title>dir_d8c51d4836575d12cc566883f62b282a&#45;&gt;dir_5a09006dcfc05a9e26f918e0f357e7ea</title>
<path fill="none" stroke="#000000" d="M78.1172,-114C82.7135,-114 87.3099,-114 91.9062,-114"/>
<polygon fill="#000000" stroke="#000000" points="91.9685,-117.5001 101.9685,-114 91.9685,-110.5001 91.9685,-117.5001"/>
<g id="a_edge4&#45;headlabel"><a xlink:href="dir_000010_000001.html" target="_top" xlink:title="1">
<text text-anchor="middle" x="88.3739" y="-117.8393" font-family="Helvetica,sans-Serif" font-size="10.00" fill="#000000">1</text>
</a>
</g>
</g>
<!-- dir_5a09006dcfc05a9e26f918e0f357e7ea&#45;&gt;dir_d8c51d4836575d12cc566883f62b282a -->
<g id="edge2" class="edge">
<title>dir_5a09006dcfc05a9e26f918e0f357e7ea&#45;&gt;dir_d8c51d4836575d12cc566883f62b282a</title>
<path fill="none" stroke="#000000" d="M101.9685,-114C97.3722,-114 92.7758,-114 88.1795,-114"/>
<polygon fill="#000000" stroke="#000000" points="88.1172,-110.5001 78.1172,-114 88.1172,-117.5001 88.1172,-110.5001"/>
<g id="a_edge2&#45;headlabel"><a xlink:href="dir_000001_000010.html" target="_top" xlink:title="1">
<text text-anchor="middle" x="91.7118" y="-105.1607" font-family="Helvetica,sans-Serif" font-size="10.00" fill="#000000">1</text>
</a>
</g>
</g>
<!-- dir_5a09006dcfc05a9e26f918e0f357e7ea&#45;&gt;dir_71a3c507df02df55ec4315289e7008b4 -->
<g id="edge1" class="edge">
<title>dir_5a09006dcfc05a9e26f918e0f357e7ea&#45;&gt;dir_71a3c507df02df55ec4315289e7008b4</title>
<path fill="none" stroke="#000000" d="M129,-95.8314C129,-88.131 129,-78.9743 129,-70.4166"/>
<polygon fill="#000000" stroke="#000000" points="132.5001,-70.4132 129,-60.4133 125.5001,-70.4133 132.5001,-70.4132"/>
<g id="a_edge1&#45;headlabel"><a xlink:href="dir_000001_000006.html" target="_top" xlink:title="1">
<text text-anchor="middle" x="135.3393" y="-71.5079" font-family="Helvetica,sans-Serif" font-size="10.00" fill="#000000">1</text>
</a>
</g>
</g>
</g>
</svg>
