<?xml version="1.0" encoding="UTF-8" standalone="no"?>
<!DOCTYPE svg PUBLIC "-//W3C//DTD SVG 1.1//EN"
 "http://www.w3.org/Graphics/SVG/1.1/DTD/svg11.dtd">
<!-- Generated by graphviz version 2.40.1 (20161225.0304)
 -->
<!-- Title: UI Pages: 1 -->
<svg width="278pt" height="204pt"
 viewBox="0.00 0.00 278.00 204.00" xmlns="http://www.w3.org/2000/svg" xmlns:xlink="http://www.w3.org/1999/xlink">
<g id="graph0" class="graph" transform="scale(1 1) rotate(0) translate(4 200)">
<title>UI</title>
<polygon fill="#ffffff" stroke="transparent" points="-4,4 -4,-200 274,-200 274,4 -4,4"/>
<g id="clust1" class="cluster">
<title>clusterdir_53ff6e473d46d4e442ba5a7ce9f895e3</title>
<g id="a_clust1"><a xlink:href="dir_53ff6e473d46d4e442ba5a7ce9f895e3.html" target="_top">
<polygon fill="#eeeeff" stroke="#000000" points="8,-136 8,-188 262,-188 262,-136 8,-136"/>
</a>
</g>
</g>
<!-- dir_53ff6e473d46d4e442ba5a7ce9f895e3 -->
<g id="node1" class="node">
<title>dir_53ff6e473d46d4e442ba5a7ce9f895e3</title>
<text text-anchor="middle" x="227" y="-159.5" font-family="Helvetica,sans-Serif" font-size="10.00" fill="#000000">UI</text>
</g>
<!-- dir_5d43b298bacc6285dd73fdcc45530c8e -->
<g id="node2" class="node">
<title>dir_5d43b298bacc6285dd73fdcc45530c8e</title>
<g id="a_node2"><a xlink:href="dir_5d43b298bacc6285dd73fdcc45530c8e.html" target="_top" xlink:title="ClientTextUI">
<polygon fill="#ffffff" stroke="#ff0000" points="88,-180 16,-180 16,-144 88,-144 88,-180"/>
<text text-anchor="middle" x="52" y="-159.5" font-family="Helvetica,sans-Serif" font-size="10.00" fill="#000000">ClientTextUI</text>
</a>
</g>
</g>
<!-- dir_2b443badf70068dbf14fb9726037da1f -->
<g id="node4" class="node">
<title>dir_2b443badf70068dbf14fb9726037da1f</title>
<g id="a_node4"><a xlink:href="dir_2b443badf70068dbf14fb9726037da1f.html" target="_top" xlink:title="TechnicalServices">
<polygon fill="#ffffff" stroke="#ff0000" points="146.5,-36 49.5,-36 49.5,0 146.5,0 146.5,-36"/>
<text text-anchor="middle" x="98" y="-15.5" font-family="Helvetica,sans-Serif" font-size="10.00" fill="#000000">TechnicalServices</text>
</a>
</g>
</g>
<!-- dir_5d43b298bacc6285dd73fdcc45530c8e&#45;&gt;dir_2b443badf70068dbf14fb9726037da1f -->
<g id="edge1" class="edge">
<title>dir_5d43b298bacc6285dd73fdcc45530c8e&#45;&gt;dir_2b443badf70068dbf14fb9726037da1f</title>
<path fill="none" stroke="#000000" d="M51.5302,-143.842C51.6151,-125.248 53.3368,-95.7823 62,-72 65.4919,-62.414 71.0173,-52.8535 76.701,-44.4998"/>
<polygon fill="#000000" stroke="#000000" points="79.613,-46.445 82.6025,-36.2807 73.927,-42.3622 79.613,-46.445"/>
<g id="a_edge1&#45;headlabel"><a xlink:href="dir_000005_000016.html" target="_top" xlink:title="3">
<text text-anchor="middle" x="79.8228" y="-48.5209" font-family="Helvetica,sans-Serif" font-size="10.00" fill="#000000">3</text>
</a>
</g>
</g>
<!-- dir_8c888e3f1190d8e08b273c29d1443e32 -->
<g id="node5" class="node">
<title>dir_8c888e3f1190d8e08b273c29d1443e32</title>
<g id="a_node5"><a xlink:href="dir_8c888e3f1190d8e08b273c29d1443e32.html" target="_top" xlink:title="Domain">
<polygon fill="#ffffff" stroke="#ff0000" points="125,-108 71,-108 71,-72 125,-72 125,-108"/>
<text text-anchor="middle" x="98" y="-87.5" font-family="Helvetica,sans-Serif" font-size="10.00" fill="#000000">Domain</text>
</a>
</g>
</g>
<!-- dir_5d43b298bacc6285dd73fdcc45530c8e&#45;&gt;dir_8c888e3f1190d8e08b273c29d1443e32 -->
<g id="edge2" class="edge">
<title>dir_5d43b298bacc6285dd73fdcc45530c8e&#45;&gt;dir_8c888e3f1190d8e08b273c29d1443e32</title>
<path fill="none" stroke="#000000" d="M63.6077,-143.8314C68.7978,-135.7079 75.0232,-125.9637 80.7425,-117.0118"/>
<polygon fill="#000000" stroke="#000000" points="83.8015,-118.7246 86.236,-108.4133 77.9026,-114.9559 83.8015,-118.7246"/>
<g id="a_edge2&#45;headlabel"><a xlink:href="dir_000005_000000.html" target="_top" xlink:title="23">
<text text-anchor="middle" x="84.2589" y="-120.7824" font-family="Helvetica,sans-Serif" font-size="10.00" fill="#000000">23</text>
</a>
</g>
</g>
<!-- dir_dc1aa6532b06b2ae462df1470689a2d5 -->
<g id="node3" class="node">
<title>dir_dc1aa6532b06b2ae462df1470689a2d5</title>
<g id="a_node3"><a xlink:href="dir_dc1aa6532b06b2ae462df1470689a2d5.html" target="_top" xlink:title="ServerTextUI">
<polygon fill="#ffffff" stroke="#ff0000" points="181.5,-180 106.5,-180 106.5,-144 181.5,-144 181.5,-180"/>
<text text-anchor="middle" x="144" y="-159.5" font-family="Helvetica,sans-Serif" font-size="10.00" fill="#000000">ServerTextUI</text>
</a>
</g>
</g>
<!-- dir_dc1aa6532b06b2ae462df1470689a2d5&#45;&gt;dir_2b443badf70068dbf14fb9726037da1f -->
<g id="edge4" class="edge">
<title>dir_dc1aa6532b06b2ae462df1470689a2d5&#45;&gt;dir_2b443badf70068dbf14fb9726037da1f</title>
<path fill="none" stroke="#000000" d="M144.4698,-143.842C144.3849,-125.248 142.6632,-95.7823 134,-72 130.5081,-62.414 124.9827,-52.8535 119.299,-44.4998"/>
<polygon fill="#000000" stroke="#000000" points="122.073,-42.3622 113.3975,-36.2807 116.387,-46.445 122.073,-42.3622"/>
<g id="a_edge4&#45;headlabel"><a xlink:href="dir_000013_000016.html" target="_top" xlink:title="2">
<text text-anchor="middle" x="126.4759" y="-41.1261" font-family="Helvetica,sans-Serif" font-size="10.00" fill="#000000">2</text>
</a>
</g>
</g>
<!-- dir_dc1aa6532b06b2ae462df1470689a2d5&#45;&gt;dir_8c888e3f1190d8e08b273c29d1443e32 -->
<g id="edge5" class="edge">
<title>dir_dc1aa6532b06b2ae462df1470689a2d5&#45;&gt;dir_8c888e3f1190d8e08b273c29d1443e32</title>
<path fill="none" stroke="#000000" d="M132.3923,-143.8314C127.2022,-135.7079 120.9768,-125.9637 115.2575,-117.0118"/>
<polygon fill="#000000" stroke="#000000" points="118.0974,-114.9559 109.764,-108.4133 112.1985,-118.7246 118.0974,-114.9559"/>
<g id="a_edge5&#45;headlabel"><a xlink:href="dir_000013_000000.html" target="_top" xlink:title="5">
<text text-anchor="middle" x="122.4253" y="-113.9564" font-family="Helvetica,sans-Serif" font-size="10.00" fill="#000000">5</text>
</a>
</g>
</g>
<!-- dir_8c888e3f1190d8e08b273c29d1443e32&#45;&gt;dir_2b443badf70068dbf14fb9726037da1f -->
<g id="edge3" class="edge">
<title>dir_8c888e3f1190d8e08b273c29d1443e32&#45;&gt;dir_2b443badf70068dbf14fb9726037da1f</title>
<path fill="none" stroke="#000000" d="M98,-71.8314C98,-64.131 98,-54.9743 98,-46.4166"/>
<polygon fill="#000000" stroke="#000000" points="101.5001,-46.4132 98,-36.4133 94.5001,-46.4133 101.5001,-46.4132"/>
<g id="a_edge3&#45;headlabel"><a xlink:href="dir_000000_000016.html" target="_top" xlink:title="3">
<text text-anchor="middle" x="104.3393" y="-47.5079" font-family="Helvetica,sans-Serif" font-size="10.00" fill="#000000">3</text>
</a>
</g>
</g>
</g>
</svg>
