<?xml version="1.0" encoding="UTF-8" standalone="no"?>
<!DOCTYPE svg PUBLIC "-//W3C//DTD SVG 1.1//EN"
 "http://www.w3.org/Graphics/SVG/1.1/DTD/svg11.dtd">
<!-- Generated by graphviz version 2.40.1 (20161225.0304)
 -->
<!-- Title: UI/ClientTextUI/DisplayGrid.h Pages: 1 -->
<svg width="359pt" height="84pt"
 viewBox="0.00 0.00 358.50 84.00" xmlns="http://www.w3.org/2000/svg" xmlns:xlink="http://www.w3.org/1999/xlink">
<g id="graph0" class="graph" transform="scale(1 1) rotate(0) translate(4 80)">
<title>UI/ClientTextUI/DisplayGrid.h</title>
<polygon fill="#ffffff" stroke="transparent" points="-4,4 -4,-80 354.5,-80 354.5,4 -4,4"/>
<!-- Node0 -->
<g id="node1" class="node">
<title>Node0</title>
<polygon fill="#bfbfbf" stroke="#000000" points="154.5,-56.5 154.5,-75.5 302.5,-75.5 302.5,-56.5 154.5,-56.5"/>
<text text-anchor="middle" x="228.5" y="-63.5" font-family="Helvetica,sans-Serif" font-size="10.00" fill="#000000">UI/ClientTextUI/DisplayGrid.h</text>
</g>
<!-- Node1 -->
<g id="node2" class="node">
<title>Node1</title>
<g id="a_node2"><a xlink:href="ForwardDeclarations_8h.html" target="_top" xlink:title="Asteroids/ForwardDeclarations.h">
<polygon fill="#ffffff" stroke="#000000" points="0,-.5 0,-19.5 159,-19.5 159,-.5 0,-.5"/>
<text text-anchor="middle" x="79.5" y="-7.5" font-family="Helvetica,sans-Serif" font-size="10.00" fill="#000000">Asteroids/ForwardDeclarations.h</text>
</a>
</g>
</g>
<!-- Node0&#45;&gt;Node1 -->
<g id="edge1" class="edge">
<title>Node0&#45;&gt;Node1</title>
<path fill="none" stroke="#191970" d="M202.886,-56.3733C178.4313,-47.1822 141.3946,-33.2624 114.2791,-23.0713"/>
<polygon fill="#191970" stroke="#191970" points="115.3719,-19.7431 104.7798,-19.5011 112.9091,-26.2956 115.3719,-19.7431"/>
</g>
<!-- Node2 -->
<g id="node3" class="node">
<title>Node2</title>
<polygon fill="#ffffff" stroke="#bfbfbf" points="176.5,-.5 176.5,-19.5 220.5,-19.5 220.5,-.5 176.5,-.5"/>
<text text-anchor="middle" x="198.5" y="-7.5" font-family="Helvetica,sans-Serif" font-size="10.00" fill="#000000">vector</text>
</g>
<!-- Node0&#45;&gt;Node2 -->
<g id="edge2" class="edge">
<title>Node0&#45;&gt;Node2</title>
<path fill="none" stroke="#191970" d="M223.2744,-56.2455C219.1877,-48.617 213.3865,-37.7881 208.425,-28.5267"/>
<polygon fill="#191970" stroke="#191970" points="211.4732,-26.8047 203.6657,-19.6427 205.3028,-30.1103 211.4732,-26.8047"/>
</g>
<!-- Node3 -->
<g id="node4" class="node">
<title>Node3</title>
<polygon fill="#ffffff" stroke="#bfbfbf" points="239,-.5 239,-19.5 280,-19.5 280,-.5 239,-.5"/>
<text text-anchor="middle" x="259.5" y="-7.5" font-family="Helvetica,sans-Serif" font-size="10.00" fill="#000000">string</text>
</g>
<!-- Node0&#45;&gt;Node3 -->
<g id="edge3" class="edge">
<title>Node0&#45;&gt;Node3</title>
<path fill="none" stroke="#191970" d="M233.8998,-56.2455C238.1227,-48.617 244.1173,-37.7881 249.2441,-28.5267"/>
<polygon fill="#191970" stroke="#191970" points="252.381,-30.0867 254.1621,-19.6427 246.2568,-26.6965 252.381,-30.0867"/>
</g>
<!-- Node4 -->
<g id="node5" class="node">
<title>Node4</title>
<polygon fill="#ffffff" stroke="#bfbfbf" points="298.5,-.5 298.5,-19.5 350.5,-19.5 350.5,-.5 298.5,-.5"/>
<text text-anchor="middle" x="324.5" y="-7.5" font-family="Helvetica,sans-Serif" font-size="10.00" fill="#000000">memory</text>
</g>
<!-- Node0&#45;&gt;Node4 -->
<g id="edge4" class="edge">
<title>Node0&#45;&gt;Node4</title>
<path fill="none" stroke="#191970" d="M245.2219,-56.2455C260.0889,-47.5731 282.0466,-34.7645 299.0858,-24.825"/>
<polygon fill="#191970" stroke="#191970" points="301.0955,-27.7047 307.9697,-19.6427 297.5683,-21.6582 301.0955,-27.7047"/>
</g>
</g>
</svg>
