<?xml version="1.0" encoding="UTF-8" standalone="no"?>
<!DOCTYPE svg PUBLIC "-//W3C//DTD SVG 1.1//EN"
 "http://www.w3.org/Graphics/SVG/1.1/DTD/svg11.dtd">
<!-- Generated by graphviz version 2.40.1 (20161225.0304)
 -->
<!-- Title: Domain/Store/Enums/Enums.h Pages: 1 -->
<!--zoomable 173 -->
<svg id="main" version="1.1" xmlns="http://www.w3.org/2000/svg" xmlns:xlink="http://www.w3.org/1999/xlink" xml:space="preserve" onload="init(evt)">
<style type="text/css"><![CDATA[
.edge:hover path { stroke: red; }
.edge:hover polygon { stroke: red; fill: red; }
]]></style>
<script type="text/javascript"><![CDATA[
var edges = document.getElementsByTagName('g');
if (edges && edges.length) {
  for (var i=0;i<edges.length;i++) {
    if (edges[i].id.substr(0,4)=='edge') {
      edges[i].setAttribute('class','edge');
    }
  }
}
]]></script>
        <defs>
                <circle id="rim" cx="0" cy="0" r="7"/>
                <circle id="rim2" cx="0" cy="0" r="3.5"/>
                <g id="zoomPlus">
                        <use xlink:href="#rim" fill="#404040">
                                <set attributeName="fill" to="#808080" begin="zoomplus.mouseover" end="zoomplus.mouseout"/>
                        </use>
                        <path d="M-4,0h8M0,-4v8" fill="none" stroke="white" stroke-width="1.5" pointer-events="none"/>
                </g>
                <g id="zoomMin">
                        <use xlink:href="#rim" fill="#404040">
                                <set attributeName="fill" to="#808080" begin="zoomminus.mouseover" end="zoomminus.mouseout"/>
                        </use>
                        <path d="M-4,0h8" fill="none" stroke="white" stroke-width="1.5" pointer-events="none"/>
                </g>
                <g id="dirArrow">
                        <path fill="none" stroke="white" stroke-width="1.5" d="M0,-3.0v7 M-2.5,-0.5L0,-3.0L2.5,-0.5"/>
                </g>
               <g id="resetDef">
                       <use xlink:href="#rim2" fill="#404040">
                               <set attributeName="fill" to="#808080" begin="reset.mouseover" end="reset.mouseout"/>
                       </use>
               </g>
        </defs>

<script type="text/javascript">
var viewWidth = 574;
var viewHeight = 173;
var sectionId = 'dynsection-0';
</script>
<script xlink:href="svgpan.js"/>
<svg id="graph" class="graph">
<g id="viewport">
<title>Domain/Store/Enums/Enums.h</title>
<polygon fill="#ffffff" stroke="transparent" points="-4,4 -4,-169 570,-169 570,4 -4,4"/>
<!-- Node1 -->
<g id="node1" class="node">
<title>Node1</title>
<polygon fill="#bfbfbf" stroke="#000000" points="186,-134.5 186,-164.5 296,-164.5 296,-134.5 186,-134.5"/>
<text text-anchor="start" x="194" y="-152.5" font-family="Helvetica,sans-Serif" font-size="10.00" fill="#000000">Domain/Store/Enums</text>
<text text-anchor="middle" x="241" y="-141.5" font-family="Helvetica,sans-Serif" font-size="10.00" fill="#000000">/Enums.h</text>
</g>
<!-- Node2 -->
<g id="node2" class="node">
<title>Node2</title>
<g id="a_node2"><a xlink:href="PaymentHelper_8cpp.html" target="_top" xlink:title="Domain/Store/PaymentHelper.cpp">
<polygon fill="#ffffff" stroke="#000000" points="0,-73 0,-92 166,-92 166,-73 0,-73"/>
<text text-anchor="middle" x="83" y="-80" font-family="Helvetica,sans-Serif" font-size="10.00" fill="#000000">Domain/Store/PaymentHelper.cpp</text>
</a>
</g>
</g>
<!-- Node1&#45;&gt;Node2 -->
<g id="edge1" class="edge">
<title>Node1&#45;&gt;Node2</title>
<path fill="none" stroke="#191970" d="M196.2513,-130.5243C166.6928,-117.99 129.2011,-102.0916 105.6481,-92.1039"/>
<polygon fill="#191970" stroke="#191970" points="194.9688,-133.7821 205.5417,-134.4639 197.7017,-127.3376 194.9688,-133.7821"/>
</g>
<!-- Node3 -->
<g id="node3" class="node">
<title>Node3</title>
<g id="a_node3"><a xlink:href="STORE__ITEM_8h.html" target="_top" xlink:title="Domain/Store/STORE\l_ITEM.h">
<polygon fill="#ffffff" stroke="#000000" points="184,-67.5 184,-97.5 298,-97.5 298,-67.5 184,-67.5"/>
<text text-anchor="start" x="192" y="-85.5" font-family="Helvetica,sans-Serif" font-size="10.00" fill="#000000">Domain/Store/STORE</text>
<text text-anchor="middle" x="241" y="-74.5" font-family="Helvetica,sans-Serif" font-size="10.00" fill="#000000">_ITEM.h</text>
</a>
</g>
</g>
<!-- Node1&#45;&gt;Node3 -->
<g id="edge2" class="edge">
<title>Node1&#45;&gt;Node3</title>
<path fill="none" stroke="#191970" d="M241,-124.0249C241,-115.128 241,-105.4287 241,-97.6432"/>
<polygon fill="#191970" stroke="#191970" points="237.5001,-124.2966 241,-134.2967 244.5001,-124.2967 237.5001,-124.2966"/>
</g>
<!-- Node6 -->
<g id="node6" class="node">
<title>Node6</title>
<g id="a_node6"><a xlink:href="ClientTextUI_8h.html" target="_top" xlink:title="UI/ClientTextUI/ClientTextUI.h">
<polygon fill="#ffffff" stroke="#000000" points="316,-73 316,-92 468,-92 468,-73 316,-73"/>
<text text-anchor="middle" x="392" y="-80" font-family="Helvetica,sans-Serif" font-size="10.00" fill="#000000">UI/ClientTextUI/ClientTextUI.h</text>
</a>
</g>
</g>
<!-- Node1&#45;&gt;Node6 -->
<g id="edge5" class="edge">
<title>Node1&#45;&gt;Node6</title>
<path fill="none" stroke="#191970" d="M284.1335,-130.3613C312.325,-117.8525 347.9432,-102.0484 370.3553,-92.1039"/>
<polygon fill="#191970" stroke="#191970" points="282.6084,-127.2088 274.8873,-134.4639 285.4475,-133.6073 282.6084,-127.2088"/>
</g>
<!-- Node4 -->
<g id="node4" class="node">
<title>Node4</title>
<g id="a_node4"><a xlink:href="Store_8cpp.html" target="_top" xlink:title="Domain/Store/Store.cpp">
<polygon fill="#ffffff" stroke="#000000" points="46,-6 46,-25 168,-25 168,-6 46,-6"/>
<text text-anchor="middle" x="107" y="-13" font-family="Helvetica,sans-Serif" font-size="10.00" fill="#000000">Domain/Store/Store.cpp</text>
</a>
</g>
</g>
<!-- Node3&#45;&gt;Node4 -->
<g id="edge3" class="edge">
<title>Node3&#45;&gt;Node4</title>
<path fill="none" stroke="#191970" d="M201.7404,-62.8702C176.8824,-50.4412 145.8373,-34.9187 126.2078,-25.1039"/>
<polygon fill="#191970" stroke="#191970" points="200.4182,-66.1222 210.9278,-67.4639 203.5488,-59.8612 200.4182,-66.1222"/>
</g>
<!-- Node5 -->
<g id="node5" class="node">
<title>Node5</title>
<g id="a_node5"><a xlink:href="STORE__ITEM_8cpp.html" target="_top" xlink:title="Domain/Store/STORE\l_ITEM.cpp">
<polygon fill="#ffffff" stroke="#000000" points="186,-.5 186,-30.5 300,-30.5 300,-.5 186,-.5"/>
<text text-anchor="start" x="194" y="-18.5" font-family="Helvetica,sans-Serif" font-size="10.00" fill="#000000">Domain/Store/STORE</text>
<text text-anchor="middle" x="243" y="-7.5" font-family="Helvetica,sans-Serif" font-size="10.00" fill="#000000">_ITEM.cpp</text>
</a>
</g>
</g>
<!-- Node3&#45;&gt;Node5 -->
<g id="edge4" class="edge">
<title>Node3&#45;&gt;Node5</title>
<path fill="none" stroke="#191970" d="M241.7605,-57.0249C242.026,-48.128 242.3156,-38.4287 242.548,-30.6432"/>
<polygon fill="#191970" stroke="#191970" points="238.2539,-57.1967 241.4538,-67.2967 245.2507,-57.4056 238.2539,-57.1967"/>
</g>
<!-- Node7 -->
<g id="node7" class="node">
<title>Node7</title>
<g id="a_node7"><a xlink:href="ClientTextUI_8cpp.html" target="_top" xlink:title="UI/ClientTextUI/ClientText\lUI.cpp">
<polygon fill="#ffffff" stroke="#000000" points="322,-.5 322,-30.5 456,-30.5 456,-.5 322,-.5"/>
<text text-anchor="start" x="330" y="-18.5" font-family="Helvetica,sans-Serif" font-size="10.00" fill="#000000">UI/ClientTextUI/ClientText</text>
<text text-anchor="middle" x="389" y="-7.5" font-family="Helvetica,sans-Serif" font-size="10.00" fill="#000000">UI.cpp</text>
</a>
</g>
</g>
<!-- Node6&#45;&gt;Node7 -->
<g id="edge6" class="edge">
<title>Node6&#45;&gt;Node7</title>
<path fill="none" stroke="#191970" d="M391.1168,-62.7758C390.6551,-52.4641 390.099,-40.0437 389.6726,-30.5218"/>
<polygon fill="#191970" stroke="#191970" points="387.6263,-63.0671 391.5702,-72.9005 394.6193,-62.754 387.6263,-63.0671"/>
</g>
<!-- Node8 -->
<g id="node8" class="node">
<title>Node8</title>
<g id="a_node8"><a xlink:href="UIFactory_8cpp.html" target="_top" xlink:title="UI/UIFactory.cpp">
<polygon fill="#ffffff" stroke="#000000" points="474,-6 474,-25 566,-25 566,-6 474,-6"/>
<text text-anchor="middle" x="520" y="-13" font-family="Helvetica,sans-Serif" font-size="10.00" fill="#000000">UI/UIFactory.cpp</text>
</a>
</g>
</g>
<!-- Node6&#45;&gt;Node8 -->
<g id="edge7" class="edge">
<title>Node6&#45;&gt;Node8</title>
<path fill="none" stroke="#191970" d="M419.2625,-68.2298C444.1119,-55.2227 480.1336,-36.3676 501.6947,-25.0817"/>
<polygon fill="#191970" stroke="#191970" points="417.5758,-65.1621 410.3393,-72.9005 420.8221,-71.3639 417.5758,-65.1621"/>
</g>
</g>
</svg>
        <g id="navigator" transform="translate(0 0)" fill="#404254">
                <rect fill="#f2f5e9" fill-opacity="0.5" stroke="#606060" stroke-width=".5" x="0" y="0" width="60" height="60"/>
                <use id="zoomplus" xlink:href="#zoomPlus" x="17" y="9" onmousedown="handleZoom(evt,'in')"/>
                <use id="zoomminus" xlink:href="#zoomMin" x="42" y="9" onmousedown="handleZoom(evt,'out')"/>
                <use id="reset" xlink:href="#resetDef" x="30" y="36" onmousedown="handleReset()"/>
                <g id="arrowUp" xlink:href="#dirArrow" transform="translate(30 24)" onmousedown="handlePan(0,-1)">
                  <use xlink:href="#rim" fill="#404040">
                        <set attributeName="fill" to="#808080" begin="arrowUp.mouseover" end="arrowUp.mouseout"/>
                  </use>
                  <path fill="none" stroke="white" stroke-width="1.5" d="M0,-3.0v7 M-2.5,-0.5L0,-3.0L2.5,-0.5"/>
                </g>
                <g id="arrowRight" xlink:href="#dirArrow" transform="rotate(90) translate(36 -43)" onmousedown="handlePan(1,0)">
                  <use xlink:href="#rim" fill="#404040">
                        <set attributeName="fill" to="#808080" begin="arrowRight.mouseover" end="arrowRight.mouseout"/>
                  </use>
                  <path fill="none" stroke="white" stroke-width="1.5" d="M0,-3.0v7 M-2.5,-0.5L0,-3.0L2.5,-0.5"/>
                </g>
                <g id="arrowDown" xlink:href="#dirArrow" transform="rotate(180) translate(-30 -48)" onmousedown="handlePan(0,1)">
                  <use xlink:href="#rim" fill="#404040">
                        <set attributeName="fill" to="#808080" begin="arrowDown.mouseover" end="arrowDown.mouseout"/>
                  </use>
                  <path fill="none" stroke="white" stroke-width="1.5" d="M0,-3.0v7 M-2.5,-0.5L0,-3.0L2.5,-0.5"/>
                </g>
                <g id="arrowLeft" xlink:href="#dirArrow" transform="rotate(270) translate(-36 17)" onmousedown="handlePan(-1,0)">
                  <use xlink:href="#rim" fill="#404040">
                        <set attributeName="fill" to="#808080" begin="arrowLeft.mouseover" end="arrowLeft.mouseout"/>
                  </use>
                  <path fill="none" stroke="white" stroke-width="1.5" d="M0,-3.0v7 M-2.5,-0.5L0,-3.0L2.5,-0.5"/>
                </g>
        </g>
        <svg viewBox="0 0 15 15" width="100%" height="30px" preserveAspectRatio="xMaxYMin meet">
         <g id="arrow_out" transform="scale(0.3 0.3)">
          <a xlink:href="Domain_2Store_2Enums_2Enums_8h__dep__incl_org.svg" target="_base">
           <rect id="button" ry="5" rx="5" y="6" x="6" height="38" width="38"
                fill="#f2f5e9" fill-opacity="0.5" stroke="#606060" stroke-width="1.0"/>
           <path id="arrow"
             d="M 11.500037,31.436501 C 11.940474,20.09759 22.043105,11.32322 32.158766,21.979434 L 37.068811,17.246167 C 37.068811,17.246167 37.088388,32 37.088388,32 L 22.160133,31.978069 C 22.160133,31.978069 26.997745,27.140456 26.997745,27.140456 C 18.528582,18.264221 13.291696,25.230495 11.500037,31.436501 z"
             style="fill:#404040;"/>
          </a>
         </g>
        </svg>
</svg>
