<?xml version="1.0" encoding="UTF-8" standalone="no"?>
<!DOCTYPE svg PUBLIC "-//W3C//DTD SVG 1.1//EN"
 "http://www.w3.org/Graphics/SVG/1.1/DTD/svg11.dtd">
<!-- Generated by graphviz version 2.40.1 (20161225.0304)
 -->
<!-- Title: Domain/Game/Defines.h Pages: 1 -->
<svg width="911pt" height="95pt"
 viewBox="0.00 0.00 910.50 95.00" xmlns="http://www.w3.org/2000/svg" xmlns:xlink="http://www.w3.org/1999/xlink">
<g id="graph0" class="graph" transform="scale(1 1) rotate(0) translate(4 91)">
<title>Domain/Game/Defines.h</title>
<polygon fill="#ffffff" stroke="transparent" points="-4,4 -4,-91 906.5,-91 906.5,4 -4,4"/>
<!-- Node1 -->
<g id="node1" class="node">
<title>Node1</title>
<polygon fill="#bfbfbf" stroke="#000000" points="380,-67.5 380,-86.5 505,-86.5 505,-67.5 380,-67.5"/>
<text text-anchor="middle" x="442.5" y="-74.5" font-family="Helvetica,sans-Serif" font-size="10.00" fill="#000000">Domain/Game/Defines.h</text>
</g>
<!-- Node2 -->
<g id="node2" class="node">
<title>Node2</title>
<g id="a_node2"><a xlink:href="Actor_8cpp.html" target="_top" xlink:title="Domain/Game/Actors\l/Actor.cpp">
<polygon fill="#ffffff" stroke="#000000" points="0,-.5 0,-30.5 111,-30.5 111,-.5 0,-.5"/>
<text text-anchor="start" x="8" y="-18.5" font-family="Helvetica,sans-Serif" font-size="10.00" fill="#000000">Domain/Game/Actors</text>
<text text-anchor="middle" x="55.5" y="-7.5" font-family="Helvetica,sans-Serif" font-size="10.00" fill="#000000">/Actor.cpp</text>
</a>
</g>
</g>
<!-- Node1&#45;&gt;Node2 -->
<g id="edge1" class="edge">
<title>Node1&#45;&gt;Node2</title>
<path fill="none" stroke="#191970" d="M369.7353,-68.666C304.053,-60.6623 204.9088,-47.3849 119.5,-31 116.8054,-30.4831 114.0535,-29.9268 111.2788,-29.3432"/>
<polygon fill="#191970" stroke="#191970" points="369.6346,-72.1793 379.9824,-69.905 370.4749,-65.2299 369.6346,-72.1793"/>
</g>
<!-- Node3 -->
<g id="node3" class="node">
<title>Node3</title>
<g id="a_node3"><a xlink:href="Bullet_8cpp.html" target="_top" xlink:title="Domain/Game/Actors\l/Bullet.cpp">
<polygon fill="#ffffff" stroke="#000000" points="129,-.5 129,-30.5 240,-30.5 240,-.5 129,-.5"/>
<text text-anchor="start" x="137" y="-18.5" font-family="Helvetica,sans-Serif" font-size="10.00" fill="#000000">Domain/Game/Actors</text>
<text text-anchor="middle" x="184.5" y="-7.5" font-family="Helvetica,sans-Serif" font-size="10.00" fill="#000000">/Bullet.cpp</text>
</a>
</g>
</g>
<!-- Node1&#45;&gt;Node3 -->
<g id="edge2" class="edge">
<title>Node1&#45;&gt;Node3</title>
<path fill="none" stroke="#191970" d="M392.1483,-65.1308C352.9784,-55.8806 297.2711,-42.6879 248.5,-31 245.8318,-30.3606 243.1014,-29.7048 240.3439,-29.0414"/>
<polygon fill="#191970" stroke="#191970" points="391.4493,-68.5619 401.9859,-67.4533 393.0576,-61.7492 391.4493,-68.5619"/>
</g>
<!-- Node4 -->
<g id="node4" class="node">
<title>Node4</title>
<g id="a_node4"><a xlink:href="GunShip_8cpp.html" target="_top" xlink:title="Domain/Game/Actors\l/GunShip.cpp">
<polygon fill="#ffffff" stroke="#000000" points="258,-.5 258,-30.5 369,-30.5 369,-.5 258,-.5"/>
<text text-anchor="start" x="266" y="-18.5" font-family="Helvetica,sans-Serif" font-size="10.00" fill="#000000">Domain/Game/Actors</text>
<text text-anchor="middle" x="313.5" y="-7.5" font-family="Helvetica,sans-Serif" font-size="10.00" fill="#000000">/GunShip.cpp</text>
</a>
</g>
</g>
<!-- Node1&#45;&gt;Node4 -->
<g id="edge3" class="edge">
<title>Node1&#45;&gt;Node4</title>
<path fill="none" stroke="#191970" d="M413.2468,-63.0537C392.9243,-53.3651 365.8644,-40.4644 345.057,-30.5446"/>
<polygon fill="#191970" stroke="#191970" points="411.8109,-66.2465 422.3438,-67.3906 414.8233,-59.9278 411.8109,-66.2465"/>
</g>
<!-- Node5 -->
<g id="node5" class="node">
<title>Node5</title>
<g id="a_node5"><a xlink:href="LongRock_8cpp.html" target="_top" xlink:title="Domain/Game/Actors\l/LongRock.cpp">
<polygon fill="#ffffff" stroke="#000000" points="387,-.5 387,-30.5 498,-30.5 498,-.5 387,-.5"/>
<text text-anchor="start" x="395" y="-18.5" font-family="Helvetica,sans-Serif" font-size="10.00" fill="#000000">Domain/Game/Actors</text>
<text text-anchor="middle" x="442.5" y="-7.5" font-family="Helvetica,sans-Serif" font-size="10.00" fill="#000000">/LongRock.cpp</text>
</a>
</g>
</g>
<!-- Node1&#45;&gt;Node5 -->
<g id="edge4" class="edge">
<title>Node1&#45;&gt;Node5</title>
<path fill="none" stroke="#191970" d="M442.5,-57.3693C442.5,-48.681 442.5,-38.6241 442.5,-30.5446"/>
<polygon fill="#191970" stroke="#191970" points="439.0001,-57.3906 442.5,-67.3906 446.0001,-57.3907 439.0001,-57.3906"/>
</g>
<!-- Node6 -->
<g id="node6" class="node">
<title>Node6</title>
<g id="a_node6"><a xlink:href="Rock_8cpp.html" target="_top" xlink:title="Domain/Game/Actors\l/Rock.cpp">
<polygon fill="#ffffff" stroke="#000000" points="516,-.5 516,-30.5 627,-30.5 627,-.5 516,-.5"/>
<text text-anchor="start" x="524" y="-18.5" font-family="Helvetica,sans-Serif" font-size="10.00" fill="#000000">Domain/Game/Actors</text>
<text text-anchor="middle" x="571.5" y="-7.5" font-family="Helvetica,sans-Serif" font-size="10.00" fill="#000000">/Rock.cpp</text>
</a>
</g>
</g>
<!-- Node1&#45;&gt;Node6 -->
<g id="edge5" class="edge">
<title>Node1&#45;&gt;Node6</title>
<path fill="none" stroke="#191970" d="M471.7532,-63.0537C492.0757,-53.3651 519.1356,-40.4644 539.943,-30.5446"/>
<polygon fill="#191970" stroke="#191970" points="470.1767,-59.9278 462.6563,-67.3906 473.1891,-66.2465 470.1767,-59.9278"/>
</g>
<!-- Node7 -->
<g id="node7" class="node">
<title>Node7</title>
<g id="a_node7"><a xlink:href="Vector_8cpp.html" target="_top" xlink:title="Domain/Game/Actors\l/Vector.cpp">
<polygon fill="#ffffff" stroke="#000000" points="645,-.5 645,-30.5 756,-30.5 756,-.5 645,-.5"/>
<text text-anchor="start" x="653" y="-18.5" font-family="Helvetica,sans-Serif" font-size="10.00" fill="#000000">Domain/Game/Actors</text>
<text text-anchor="middle" x="700.5" y="-7.5" font-family="Helvetica,sans-Serif" font-size="10.00" fill="#000000">/Vector.cpp</text>
</a>
</g>
</g>
<!-- Node1&#45;&gt;Node7 -->
<g id="edge6" class="edge">
<title>Node1&#45;&gt;Node7</title>
<path fill="none" stroke="#191970" d="M492.8517,-65.1308C532.0216,-55.8806 587.7289,-42.6879 636.5,-31 639.1682,-30.3606 641.8986,-29.7048 644.6561,-29.0414"/>
<polygon fill="#191970" stroke="#191970" points="491.9424,-61.7492 483.0141,-67.4533 493.5507,-68.5619 491.9424,-61.7492"/>
</g>
<!-- Node8 -->
<g id="node8" class="node">
<title>Node8</title>
<g id="a_node8"><a xlink:href="Game_8cpp.html" target="_top" xlink:title="Domain/Game/Game.cpp">
<polygon fill="#ffffff" stroke="#000000" points="774.5,-6 774.5,-25 902.5,-25 902.5,-6 774.5,-6"/>
<text text-anchor="middle" x="838.5" y="-13" font-family="Helvetica,sans-Serif" font-size="10.00" fill="#000000">Domain/Game/Game.cpp</text>
</a>
</g>
</g>
<!-- Node1&#45;&gt;Node8 -->
<g id="edge7" class="edge">
<title>Node1&#45;&gt;Node8</title>
<path fill="none" stroke="#191970" d="M515.4615,-68.0436C581.074,-59.6487 679.9996,-46.1474 765.5,-31 775.4508,-29.2371 786.1148,-27.1095 796.1336,-25.0032"/>
<polygon fill="#191970" stroke="#191970" points="514.7023,-64.6119 505.2243,-69.3466 515.5862,-71.5559 514.7023,-64.6119"/>
</g>
</g>
</svg>
