<?xml version="1.0" encoding="UTF-8" standalone="no"?>
<!DOCTYPE svg PUBLIC "-//W3C//DTD SVG 1.1//EN"
 "http://www.w3.org/Graphics/SVG/1.1/DTD/svg11.dtd">
<!-- Generated by graphviz version 2.40.1 (20161225.0304)
 -->
<!-- Title: Domain/Factory/FactoryInterface.h Pages: 1 -->
<!--zoomable 162 -->
<svg id="main" version="1.1" xmlns="http://www.w3.org/2000/svg" xmlns:xlink="http://www.w3.org/1999/xlink" xml:space="preserve" onload="init(evt)">
<style type="text/css"><![CDATA[
.edge:hover path { stroke: red; }
.edge:hover polygon { stroke: red; fill: red; }
]]></style>
<script type="text/javascript"><![CDATA[
var edges = document.getElementsByTagName('g');
if (edges && edges.length) {
  for (var i=0;i<edges.length;i++) {
    if (edges[i].id.substr(0,4)=='edge') {
      edges[i].setAttribute('class','edge');
    }
  }
}
]]></script>
        <defs>
                <circle id="rim" cx="0" cy="0" r="7"/>
                <circle id="rim2" cx="0" cy="0" r="3.5"/>
                <g id="zoomPlus">
                        <use xlink:href="#rim" fill="#404040">
                                <set attributeName="fill" to="#808080" begin="zoomplus.mouseover" end="zoomplus.mouseout"/>
                        </use>
                        <path d="M-4,0h8M0,-4v8" fill="none" stroke="white" stroke-width="1.5" pointer-events="none"/>
                </g>
                <g id="zoomMin">
                        <use xlink:href="#rim" fill="#404040">
                                <set attributeName="fill" to="#808080" begin="zoomminus.mouseover" end="zoomminus.mouseout"/>
                        </use>
                        <path d="M-4,0h8" fill="none" stroke="white" stroke-width="1.5" pointer-events="none"/>
                </g>
                <g id="dirArrow">
                        <path fill="none" stroke="white" stroke-width="1.5" d="M0,-3.0v7 M-2.5,-0.5L0,-3.0L2.5,-0.5"/>
                </g>
               <g id="resetDef">
                       <use xlink:href="#rim2" fill="#404040">
                               <set attributeName="fill" to="#808080" begin="reset.mouseover" end="reset.mouseout"/>
                       </use>
               </g>
        </defs>

<script type="text/javascript">
var viewWidth = 1106;
var viewHeight = 162;
var sectionId = 'dynsection-1';
</script>
<script xlink:href="svgpan.js"/>
<svg id="graph" class="graph">
<g id="viewport">
<title>Domain/Factory/FactoryInterface.h</title>
<polygon fill="#ffffff" stroke="transparent" points="-4,4 -4,-158 1101.5,-158 1101.5,4 -4,4"/>
<!-- Node3 -->
<g id="node1" class="node">
<title>Node3</title>
<polygon fill="#bfbfbf" stroke="#000000" points="619,-134.5 619,-153.5 788,-153.5 788,-134.5 619,-134.5"/>
<text text-anchor="middle" x="703.5" y="-141.5" font-family="Helvetica,sans-Serif" font-size="10.00" fill="#000000">Domain/Factory/FactoryInterface.h</text>
</g>
<!-- Node4 -->
<g id="node2" class="node">
<title>Node4</title>
<g id="a_node2"><a xlink:href="Factory_8h.html" target="_top" xlink:title="Domain/Factory/Factory.h">
<polygon fill="#ffffff" stroke="#000000" points="229,-73 229,-92 360,-92 360,-73 229,-73"/>
<text text-anchor="middle" x="294.5" y="-80" font-family="Helvetica,sans-Serif" font-size="10.00" fill="#000000">Domain/Factory/Factory.h</text>
</a>
</g>
</g>
<!-- Node3&#45;&gt;Node4 -->
<g id="edge1" class="edge">
<title>Node3&#45;&gt;Node4</title>
<path fill="none" stroke="#191970" d="M612.1827,-133.2136C544.6777,-124.8147 450.6175,-112.2201 368.5,-98 358.4118,-96.2531 347.6014,-94.1317 337.4454,-92.0263"/>
<polygon fill="#191970" stroke="#191970" points="612.0094,-136.7188 622.3636,-134.4736 612.8692,-129.7718 612.0094,-136.7188"/>
</g>
<!-- Node9 -->
<g id="node7" class="node">
<title>Node9</title>
<g id="a_node7"><a xlink:href="ServerDaemon_8cpp.html" target="_top" xlink:title="Domain/Server/ServerDaemon.cpp">
<polygon fill="#ffffff" stroke="#000000" points="378,-73 378,-92 547,-92 547,-73 378,-73"/>
<text text-anchor="middle" x="462.5" y="-80" font-family="Helvetica,sans-Serif" font-size="10.00" fill="#000000">Domain/Server/ServerDaemon.cpp</text>
</a>
</g>
</g>
<!-- Node3&#45;&gt;Node9 -->
<g id="edge6" class="edge">
<title>Node3&#45;&gt;Node9</title>
<path fill="none" stroke="#191970" d="M656.14,-131.9144C610.4029,-120.2428 542.0532,-102.8009 499.9795,-92.0643"/>
<polygon fill="#191970" stroke="#191970" points="655.5532,-135.3767 666.1082,-134.4581 657.2841,-128.5941 655.5532,-135.3767"/>
</g>
<!-- Node10 -->
<g id="node8" class="node">
<title>Node10</title>
<g id="a_node8"><a xlink:href="PaymentHelper_8cpp.html" target="_top" xlink:title="Domain/Store/PaymentHelper.cpp">
<polygon fill="#ffffff" stroke="#000000" points="565.5,-73 565.5,-92 731.5,-92 731.5,-73 565.5,-73"/>
<text text-anchor="middle" x="648.5" y="-80" font-family="Helvetica,sans-Serif" font-size="10.00" fill="#000000">Domain/Store/PaymentHelper.cpp</text>
</a>
</g>
</g>
<!-- Node3&#45;&gt;Node10 -->
<g id="edge7" class="edge">
<title>Node3&#45;&gt;Node10</title>
<path fill="none" stroke="#191970" d="M688.208,-126.9007C678.215,-115.7268 665.5237,-101.5356 657.2149,-92.2449"/>
<polygon fill="#191970" stroke="#191970" points="685.6311,-129.2698 694.9063,-134.3906 690.8489,-124.6034 685.6311,-129.2698"/>
</g>
<!-- Node11 -->
<g id="node9" class="node">
<title>Node11</title>
<g id="a_node9"><a xlink:href="ClientTextUI_8cpp.html" target="_top" xlink:title="UI/ClientTextUI/ClientText\lUI.cpp">
<polygon fill="#ffffff" stroke="#000000" points="692.5,-.5 692.5,-30.5 826.5,-30.5 826.5,-.5 692.5,-.5"/>
<text text-anchor="start" x="700.5" y="-18.5" font-family="Helvetica,sans-Serif" font-size="10.00" fill="#000000">UI/ClientTextUI/ClientText</text>
<text text-anchor="middle" x="759.5" y="-7.5" font-family="Helvetica,sans-Serif" font-size="10.00" fill="#000000">UI.cpp</text>
</a>
</g>
</g>
<!-- Node3&#45;&gt;Node11 -->
<g id="edge8" class="edge">
<title>Node3&#45;&gt;Node11</title>
<path fill="none" stroke="#191970" d="M720.314,-126.9437C727.5031,-118.7827 735.3983,-108.5111 740.5,-98 751.1536,-76.0504 755.9797,-47.8778 758.0564,-30.7819"/>
<polygon fill="#191970" stroke="#191970" points="717.7039,-124.6112 713.4899,-134.3319 722.8461,-129.3607 717.7039,-124.6112"/>
</g>
<!-- Node12 -->
<g id="node10" class="node">
<title>Node12</title>
<g id="a_node10"><a xlink:href="ClientTextUI_8h.html" target="_top" xlink:title="UI/ClientTextUI/ClientTextUI.h">
<polygon fill="#ffffff" stroke="#000000" points="787.5,-73 787.5,-92 939.5,-92 939.5,-73 787.5,-73"/>
<text text-anchor="middle" x="863.5" y="-80" font-family="Helvetica,sans-Serif" font-size="10.00" fill="#000000">UI/ClientTextUI/ClientTextUI.h</text>
</a>
</g>
</g>
<!-- Node3&#45;&gt;Node12 -->
<g id="edge9" class="edge">
<title>Node3&#45;&gt;Node12</title>
<path fill="none" stroke="#191970" d="M737.8432,-130.7993C768.1587,-119.1468 811.6231,-102.4402 838.6756,-92.0419"/>
<polygon fill="#191970" stroke="#191970" points="736.5784,-127.5357 728.5,-134.3906 739.09,-134.0697 736.5784,-127.5357"/>
</g>
<!-- Node14 -->
<g id="node12" class="node">
<title>Node14</title>
<g id="a_node12"><a xlink:href="ServerTextUI_8cpp.html" target="_top" xlink:title="UI/ServerTextUI/ServerText\lUI.cpp">
<polygon fill="#ffffff" stroke="#000000" points="957.5,-67.5 957.5,-97.5 1097.5,-97.5 1097.5,-67.5 957.5,-67.5"/>
<text text-anchor="start" x="965.5" y="-85.5" font-family="Helvetica,sans-Serif" font-size="10.00" fill="#000000">UI/ServerTextUI/ServerText</text>
<text text-anchor="middle" x="1027.5" y="-74.5" font-family="Helvetica,sans-Serif" font-size="10.00" fill="#000000">UI.cpp</text>
</a>
</g>
</g>
<!-- Node3&#45;&gt;Node14 -->
<g id="edge12" class="edge">
<title>Node3&#45;&gt;Node14</title>
<path fill="none" stroke="#191970" d="M765.0658,-132.5843C814.6291,-123.3596 886.0729,-109.9845 948.5,-98 951.3825,-97.4466 954.3237,-96.8798 957.2945,-96.3053"/>
<polygon fill="#191970" stroke="#191970" points="764.335,-129.1601 755.1437,-134.43 765.6152,-136.0421 764.335,-129.1601"/>
</g>
<!-- Node5 -->
<g id="node3" class="node">
<title>Node5</title>
<g id="a_node3"><a xlink:href="Factory_8cpp.html" target="_top" xlink:title="Domain/Factory/Factory.cpp">
<polygon fill="#ffffff" stroke="#000000" points="0,-6 0,-25 141,-25 141,-6 0,-6"/>
<text text-anchor="middle" x="70.5" y="-13" font-family="Helvetica,sans-Serif" font-size="10.00" fill="#000000">Domain/Factory/Factory.cpp</text>
</a>
</g>
</g>
<!-- Node4&#45;&gt;Node5 -->
<g id="edge2" class="edge">
<title>Node4&#45;&gt;Node5</title>
<path fill="none" stroke="#191970" d="M252.695,-69.9958C209.1901,-56.9832 142.0115,-36.8896 102.5342,-25.0817"/>
<polygon fill="#191970" stroke="#191970" points="251.8226,-73.388 262.4063,-72.9005 253.8286,-66.6816 251.8226,-73.388"/>
</g>
<!-- Node6 -->
<g id="node4" class="node">
<title>Node6</title>
<g id="a_node4"><a xlink:href="Game_8cpp.html" target="_top" xlink:title="Domain/Game/Game.cpp">
<polygon fill="#ffffff" stroke="#000000" points="159.5,-6 159.5,-25 287.5,-25 287.5,-6 159.5,-6"/>
<text text-anchor="middle" x="223.5" y="-13" font-family="Helvetica,sans-Serif" font-size="10.00" fill="#000000">Domain/Game/Game.cpp</text>
</a>
</g>
</g>
<!-- Node4&#45;&gt;Node6 -->
<g id="edge3" class="edge">
<title>Node4&#45;&gt;Node6</title>
<path fill="none" stroke="#191970" d="M276.9514,-65.94C263.332,-53.0879 244.9285,-35.7212 233.6537,-25.0817"/>
<polygon fill="#191970" stroke="#191970" points="274.6523,-68.5828 284.3274,-72.9005 279.4566,-63.4917 274.6523,-68.5828"/>
</g>
<!-- Node7 -->
<g id="node5" class="node">
<title>Node7</title>
<g id="a_node5"><a xlink:href="main-console-client_8cpp.html" target="_top" xlink:title="main&#45;console&#45;client.cpp">
<polygon fill="#ffffff" stroke="#000000" points="306,-6 306,-25 425,-25 425,-6 306,-6"/>
<text text-anchor="middle" x="365.5" y="-13" font-family="Helvetica,sans-Serif" font-size="10.00" fill="#000000">main&#45;console&#45;client.cpp</text>
</a>
</g>
</g>
<!-- Node4&#45;&gt;Node7 -->
<g id="edge4" class="edge">
<title>Node4&#45;&gt;Node7</title>
<path fill="none" stroke="#191970" d="M312.0486,-65.94C325.668,-53.0879 344.0715,-35.7212 355.3463,-25.0817"/>
<polygon fill="#191970" stroke="#191970" points="309.5434,-63.4917 304.6726,-72.9005 314.3477,-68.5828 309.5434,-63.4917"/>
</g>
<!-- Node8 -->
<g id="node6" class="node">
<title>Node8</title>
<g id="a_node6"><a xlink:href="main-server_8cpp.html" target="_top" xlink:title="main&#45;server.cpp">
<polygon fill="#ffffff" stroke="#000000" points="443.5,-6 443.5,-25 529.5,-25 529.5,-6 443.5,-6"/>
<text text-anchor="middle" x="486.5" y="-13" font-family="Helvetica,sans-Serif" font-size="10.00" fill="#000000">main&#45;server.cpp</text>
</a>
</g>
</g>
<!-- Node4&#45;&gt;Node8 -->
<g id="edge5" class="edge">
<title>Node4&#45;&gt;Node8</title>
<path fill="none" stroke="#191970" d="M331.5171,-69.5826C368.8324,-56.5611 425.5606,-36.7653 459.0421,-25.0817"/>
<polygon fill="#191970" stroke="#191970" points="330.2974,-66.3011 322.0089,-72.9005 332.6038,-72.9103 330.2974,-66.3011"/>
</g>
<!-- Node12&#45;&gt;Node11 -->
<g id="edge10" class="edge">
<title>Node12&#45;&gt;Node11</title>
<path fill="none" stroke="#191970" d="M839.7916,-67.2263C822.7197,-56.2281 799.799,-41.4618 782.8174,-30.5218"/>
<polygon fill="#191970" stroke="#191970" points="838.2973,-70.427 848.5993,-72.9005 842.0883,-64.5425 838.2973,-70.427"/>
</g>
<!-- Node13 -->
<g id="node11" class="node">
<title>Node13</title>
<g id="a_node11"><a xlink:href="UIFactory_8cpp.html" target="_top" xlink:title="UI/UIFactory.cpp">
<polygon fill="#ffffff" stroke="#000000" points="844.5,-6 844.5,-25 936.5,-25 936.5,-6 844.5,-6"/>
<text text-anchor="middle" x="890.5" y="-13" font-family="Helvetica,sans-Serif" font-size="10.00" fill="#000000">UI/UIFactory.cpp</text>
</a>
</g>
</g>
<!-- Node12&#45;&gt;Node13 -->
<g id="edge11" class="edge">
<title>Node12&#45;&gt;Node13</title>
<path fill="none" stroke="#191970" d="M871.212,-63.3628C876.2567,-50.8444 882.6316,-35.0252 886.6387,-25.0817"/>
<polygon fill="#191970" stroke="#191970" points="867.8599,-62.3171 867.3684,-72.9005 874.3526,-64.9336 867.8599,-62.3171"/>
</g>
</g>
</svg>
        <g id="navigator" transform="translate(0 0)" fill="#404254">
                <rect fill="#f2f5e9" fill-opacity="0.5" stroke="#606060" stroke-width=".5" x="0" y="0" width="60" height="60"/>
                <use id="zoomplus" xlink:href="#zoomPlus" x="17" y="9" onmousedown="handleZoom(evt,'in')"/>
                <use id="zoomminus" xlink:href="#zoomMin" x="42" y="9" onmousedown="handleZoom(evt,'out')"/>
                <use id="reset" xlink:href="#resetDef" x="30" y="36" onmousedown="handleReset()"/>
                <g id="arrowUp" xlink:href="#dirArrow" transform="translate(30 24)" onmousedown="handlePan(0,-1)">
                  <use xlink:href="#rim" fill="#404040">
                        <set attributeName="fill" to="#808080" begin="arrowUp.mouseover" end="arrowUp.mouseout"/>
                  </use>
                  <path fill="none" stroke="white" stroke-width="1.5" d="M0,-3.0v7 M-2.5,-0.5L0,-3.0L2.5,-0.5"/>
                </g>
                <g id="arrowRight" xlink:href="#dirArrow" transform="rotate(90) translate(36 -43)" onmousedown="handlePan(1,0)">
                  <use xlink:href="#rim" fill="#404040">
                        <set attributeName="fill" to="#808080" begin="arrowRight.mouseover" end="arrowRight.mouseout"/>
                  </use>
                  <path fill="none" stroke="white" stroke-width="1.5" d="M0,-3.0v7 M-2.5,-0.5L0,-3.0L2.5,-0.5"/>
                </g>
                <g id="arrowDown" xlink:href="#dirArrow" transform="rotate(180) translate(-30 -48)" onmousedown="handlePan(0,1)">
                  <use xlink:href="#rim" fill="#404040">
                        <set attributeName="fill" to="#808080" begin="arrowDown.mouseover" end="arrowDown.mouseout"/>
                  </use>
                  <path fill="none" stroke="white" stroke-width="1.5" d="M0,-3.0v7 M-2.5,-0.5L0,-3.0L2.5,-0.5"/>
                </g>
                <g id="arrowLeft" xlink:href="#dirArrow" transform="rotate(270) translate(-36 17)" onmousedown="handlePan(-1,0)">
                  <use xlink:href="#rim" fill="#404040">
                        <set attributeName="fill" to="#808080" begin="arrowLeft.mouseover" end="arrowLeft.mouseout"/>
                  </use>
                  <path fill="none" stroke="white" stroke-width="1.5" d="M0,-3.0v7 M-2.5,-0.5L0,-3.0L2.5,-0.5"/>
                </g>
        </g>
        <svg viewBox="0 0 15 15" width="100%" height="30px" preserveAspectRatio="xMaxYMin meet">
         <g id="arrow_out" transform="scale(0.3 0.3)">
          <a xlink:href="FactoryInterface_8h__dep__incl_org.svg" target="_base">
           <rect id="button" ry="5" rx="5" y="6" x="6" height="38" width="38"
                fill="#f2f5e9" fill-opacity="0.5" stroke="#606060" stroke-width="1.0"/>
           <path id="arrow"
             d="M 11.500037,31.436501 C 11.940474,20.09759 22.043105,11.32322 32.158766,21.979434 L 37.068811,17.246167 C 37.068811,17.246167 37.088388,32 37.088388,32 L 22.160133,31.978069 C 22.160133,31.978069 26.997745,27.140456 26.997745,27.140456 C 18.528582,18.264221 13.291696,25.230495 11.500037,31.436501 z"
             style="fill:#404040;"/>
          </a>
         </g>
        </svg>
</svg>
