<?xml version="1.0" encoding="UTF-8" standalone="no"?>
<!DOCTYPE svg PUBLIC "-//W3C//DTD SVG 1.1//EN"
 "http://www.w3.org/Graphics/SVG/1.1/DTD/svg11.dtd">
<!-- Generated by graphviz version 2.40.1 (20161225.0304)
 -->
<!-- Title: Domain/Factory/Factory.h Pages: 1 -->
<svg width="237pt" height="151pt"
 viewBox="0.00 0.00 236.50 151.00" xmlns="http://www.w3.org/2000/svg" xmlns:xlink="http://www.w3.org/1999/xlink">
<g id="graph0" class="graph" transform="scale(1 1) rotate(0) translate(4 147)">
<title>Domain/Factory/Factory.h</title>
<polygon fill="#ffffff" stroke="transparent" points="-4,4 -4,-147 232.5,-147 232.5,4 -4,4"/>
<!-- Node0 -->
<g id="node1" class="node">
<title>Node0</title>
<polygon fill="#bfbfbf" stroke="#000000" points="90,-123.5 90,-142.5 221,-142.5 221,-123.5 90,-123.5"/>
<text text-anchor="middle" x="155.5" y="-130.5" font-family="Helvetica,sans-Serif" font-size="10.00" fill="#000000">Domain/Factory/Factory.h</text>
</g>
<!-- Node1 -->
<g id="node2" class="node">
<title>Node1</title>
<g id="a_node2"><a xlink:href="FactoryInterface_8h.html" target="_top" xlink:title="Asteroids/Domain/Factory\l/FactoryInterface.h">
<polygon fill="#ffffff" stroke="#000000" points="43,-56.5 43,-86.5 174,-86.5 174,-56.5 43,-56.5"/>
<text text-anchor="start" x="51" y="-74.5" font-family="Helvetica,sans-Serif" font-size="10.00" fill="#000000">Asteroids/Domain/Factory</text>
<text text-anchor="middle" x="108.5" y="-63.5" font-family="Helvetica,sans-Serif" font-size="10.00" fill="#000000">/FactoryInterface.h</text>
</a>
</g>
</g>
<!-- Node0&#45;&gt;Node1 -->
<g id="edge1" class="edge">
<title>Node0&#45;&gt;Node1</title>
<path fill="none" stroke="#191970" d="M148.1563,-123.3906C142.2665,-115.6839 133.7527,-104.5434 126.1222,-94.5589"/>
<polygon fill="#191970" stroke="#191970" points="128.8505,-92.3648 119.9975,-86.5446 123.2887,-96.6153 128.8505,-92.3648"/>
</g>
<!-- Node3 -->
<g id="node4" class="node">
<title>Node3</title>
<polygon fill="#ffffff" stroke="#bfbfbf" points="176.5,-.5 176.5,-19.5 228.5,-19.5 228.5,-.5 176.5,-.5"/>
<text text-anchor="middle" x="202.5" y="-7.5" font-family="Helvetica,sans-Serif" font-size="10.00" fill="#000000">memory</text>
</g>
<!-- Node0&#45;&gt;Node3 -->
<g id="edge4" class="edge">
<title>Node0&#45;&gt;Node3</title>
<path fill="none" stroke="#191970" d="M162.6585,-123.2422C168.9593,-114.239 177.9682,-100.2927 183.5,-87 191.2477,-68.3826 196.349,-45.8662 199.2962,-30.0049"/>
<polygon fill="#191970" stroke="#191970" points="202.8088,-30.2335 201.0686,-19.7825 195.9116,-29.0376 202.8088,-30.2335"/>
</g>
<!-- Node2 -->
<g id="node3" class="node">
<title>Node2</title>
<g id="a_node3"><a xlink:href="ForwardDeclarations_8h.html" target="_top" xlink:title="Asteroids/ForwardDeclarations.h">
<polygon fill="#ffffff" stroke="#000000" points="0,-.5 0,-19.5 159,-19.5 159,-.5 0,-.5"/>
<text text-anchor="middle" x="79.5" y="-7.5" font-family="Helvetica,sans-Serif" font-size="10.00" fill="#000000">Asteroids/ForwardDeclarations.h</text>
</a>
</g>
</g>
<!-- Node1&#45;&gt;Node2 -->
<g id="edge2" class="edge">
<title>Node1&#45;&gt;Node2</title>
<path fill="none" stroke="#191970" d="M101.3315,-56.2977C97.4318,-48.0277 92.572,-37.7215 88.4282,-28.9339"/>
<polygon fill="#191970" stroke="#191970" points="91.5741,-27.399 84.1433,-19.8469 85.2427,-30.3846 91.5741,-27.399"/>
</g>
<!-- Node1&#45;&gt;Node3 -->
<g id="edge3" class="edge">
<title>Node1&#45;&gt;Node3</title>
<path fill="none" stroke="#191970" d="M131.736,-56.2977C146.2334,-46.8127 164.8244,-34.6495 179.3126,-25.1705"/>
<polygon fill="#191970" stroke="#191970" points="181.2782,-28.0671 187.7301,-19.6633 177.4457,-22.2094 181.2782,-28.0671"/>
</g>
</g>
</svg>
