<?xml version="1.0" encoding="UTF-8" standalone="no"?>
<!DOCTYPE svg PUBLIC "-//W3C//DTD SVG 1.1//EN"
 "http://www.w3.org/Graphics/SVG/1.1/DTD/svg11.dtd">
<!-- Generated by graphviz version 2.40.1 (20161225.0304)
 -->
<!-- Title: TechnicalServices/Financial/FinancialServicesInterface.h Pages: 1 -->
<svg width="226pt" height="95pt"
 viewBox="0.00 0.00 226.00 95.00" xmlns="http://www.w3.org/2000/svg" xmlns:xlink="http://www.w3.org/1999/xlink">
<g id="graph0" class="graph" transform="scale(1 1) rotate(0) translate(4 91)">
<title>TechnicalServices/Financial/FinancialServicesInterface.h</title>
<polygon fill="#ffffff" stroke="transparent" points="-4,4 -4,-91 222,-91 222,4 -4,4"/>
<!-- Node0 -->
<g id="node1" class="node">
<title>Node0</title>
<polygon fill="#bfbfbf" stroke="#000000" points="67,-56.5 67,-86.5 210,-86.5 210,-56.5 67,-56.5"/>
<text text-anchor="start" x="75" y="-74.5" font-family="Helvetica,sans-Serif" font-size="10.00" fill="#000000">TechnicalServices/Financial</text>
<text text-anchor="middle" x="138.5" y="-63.5" font-family="Helvetica,sans-Serif" font-size="10.00" fill="#000000">/FinancialServicesInterface.h</text>
</g>
<!-- Node1 -->
<g id="node2" class="node">
<title>Node1</title>
<g id="a_node2"><a xlink:href="ForwardDeclarations_8h.html" target="_top" xlink:title="Asteroids/ForwardDeclarations.h">
<polygon fill="#ffffff" stroke="#000000" points="0,-.5 0,-19.5 159,-19.5 159,-.5 0,-.5"/>
<text text-anchor="middle" x="79.5" y="-7.5" font-family="Helvetica,sans-Serif" font-size="10.00" fill="#000000">Asteroids/ForwardDeclarations.h</text>
</a>
</g>
</g>
<!-- Node0&#45;&gt;Node1 -->
<g id="edge1" class="edge">
<title>Node0&#45;&gt;Node1</title>
<path fill="none" stroke="#191970" d="M123.9157,-56.2977C115.47,-47.4941 104.8108,-36.3833 96.0516,-27.2529"/>
<polygon fill="#191970" stroke="#191970" points="98.3952,-24.6402 88.9466,-19.8469 93.3439,-29.4862 98.3952,-24.6402"/>
</g>
<!-- Node2 -->
<g id="node3" class="node">
<title>Node2</title>
<polygon fill="#ffffff" stroke="#bfbfbf" points="177,-.5 177,-19.5 218,-19.5 218,-.5 177,-.5"/>
<text text-anchor="middle" x="197.5" y="-7.5" font-family="Helvetica,sans-Serif" font-size="10.00" fill="#000000">string</text>
</g>
<!-- Node0&#45;&gt;Node2 -->
<g id="edge2" class="edge">
<title>Node0&#45;&gt;Node2</title>
<path fill="none" stroke="#191970" d="M153.0843,-56.2977C161.53,-47.4941 172.1892,-36.3833 180.9484,-27.2529"/>
<polygon fill="#191970" stroke="#191970" points="183.6561,-29.4862 188.0534,-19.8469 178.6048,-24.6402 183.6561,-29.4862"/>
</g>
</g>
</svg>
