<?xml version="1.0" encoding="UTF-8" standalone="no"?>
<!DOCTYPE svg PUBLIC "-//W3C//DTD SVG 1.1//EN"
 "http://www.w3.org/Graphics/SVG/1.1/DTD/svg11.dtd">
<!-- Generated by graphviz version 2.40.1 (20161225.0304)
 -->
<!-- Title: TechnicalServices/Financial/FinancialServices.cpp Pages: 1 -->
<svg width="299pt" height="229pt"
 viewBox="0.00 0.00 299.00 229.00" xmlns="http://www.w3.org/2000/svg" xmlns:xlink="http://www.w3.org/1999/xlink">
<g id="graph0" class="graph" transform="scale(1 1) rotate(0) translate(4 225)">
<title>TechnicalServices/Financial/FinancialServices.cpp</title>
<polygon fill="#ffffff" stroke="transparent" points="-4,4 -4,-225 295,-225 295,4 -4,4"/>
<!-- Node0 -->
<g id="node1" class="node">
<title>Node0</title>
<polygon fill="#bfbfbf" stroke="#000000" points="69,-190.5 69,-220.5 208,-220.5 208,-190.5 69,-190.5"/>
<text text-anchor="start" x="77" y="-208.5" font-family="Helvetica,sans-Serif" font-size="10.00" fill="#000000">TechnicalServices/Financial</text>
<text text-anchor="middle" x="138.5" y="-197.5" font-family="Helvetica,sans-Serif" font-size="10.00" fill="#000000">/FinancialServices.cpp</text>
</g>
<!-- Node1 -->
<g id="node2" class="node">
<title>Node1</title>
<g id="a_node2"><a xlink:href="FinancialServices_8h.html" target="_top" xlink:title="Asteroids/TechnicalServices\l/Financial/FinancialServices.h">
<polygon fill="#ffffff" stroke="#000000" points="65,-123.5 65,-153.5 212,-153.5 212,-123.5 65,-123.5"/>
<text text-anchor="start" x="73" y="-141.5" font-family="Helvetica,sans-Serif" font-size="10.00" fill="#000000">Asteroids/TechnicalServices</text>
<text text-anchor="middle" x="138.5" y="-130.5" font-family="Helvetica,sans-Serif" font-size="10.00" fill="#000000">/Financial/FinancialServices.h</text>
</a>
</g>
</g>
<!-- Node0&#45;&gt;Node1 -->
<g id="edge1" class="edge">
<title>Node0&#45;&gt;Node1</title>
<path fill="none" stroke="#191970" d="M138.5,-190.2967C138.5,-182.5013 138.5,-172.7991 138.5,-163.9064"/>
<polygon fill="#191970" stroke="#191970" points="142.0001,-163.6431 138.5,-153.6432 135.0001,-163.6432 142.0001,-163.6431"/>
</g>
<!-- Node2 -->
<g id="node3" class="node">
<title>Node2</title>
<g id="a_node3"><a xlink:href="ForwardDeclarations_8h.html" target="_top" xlink:title="Asteroids/ForwardDeclarations.h">
<polygon fill="#ffffff" stroke="#000000" points="0,-.5 0,-19.5 159,-19.5 159,-.5 0,-.5"/>
<text text-anchor="middle" x="79.5" y="-7.5" font-family="Helvetica,sans-Serif" font-size="10.00" fill="#000000">Asteroids/ForwardDeclarations.h</text>
</a>
</g>
</g>
<!-- Node1&#45;&gt;Node2 -->
<g id="edge2" class="edge">
<title>Node1&#45;&gt;Node2</title>
<path fill="none" stroke="#191970" d="M123.1866,-123.071C114.4473,-113.4429 103.9757,-100.3713 97.5,-87 88.6883,-68.8052 84.0581,-46.0645 81.7145,-30.0281"/>
<polygon fill="#191970" stroke="#191970" points="85.1328,-29.1684 80.385,-19.6969 78.19,-30.0619 85.1328,-29.1684"/>
</g>
<!-- Node3 -->
<g id="node4" class="node">
<title>Node3</title>
<g id="a_node4"><a xlink:href="FinancialServicesInterface_8h.html" target="_top" xlink:title="Asteroids/TechnicalServices\l/Financial/FinancialServicesInterface.h">
<polygon fill="#ffffff" stroke="#000000" points="106,-56.5 106,-86.5 291,-86.5 291,-56.5 106,-56.5"/>
<text text-anchor="start" x="114" y="-74.5" font-family="Helvetica,sans-Serif" font-size="10.00" fill="#000000">Asteroids/TechnicalServices</text>
<text text-anchor="middle" x="198.5" y="-63.5" font-family="Helvetica,sans-Serif" font-size="10.00" fill="#000000">/Financial/FinancialServicesInterface.h</text>
</a>
</g>
</g>
<!-- Node1&#45;&gt;Node3 -->
<g id="edge3" class="edge">
<title>Node1&#45;&gt;Node3</title>
<path fill="none" stroke="#191970" d="M152.1149,-123.2967C159.7863,-114.7303 169.5196,-103.8614 178.0872,-94.2943"/>
<polygon fill="#191970" stroke="#191970" points="180.8751,-96.4276 184.939,-86.6432 175.6604,-91.7578 180.8751,-96.4276"/>
</g>
<!-- Node3&#45;&gt;Node2 -->
<g id="edge4" class="edge">
<title>Node3&#45;&gt;Node2</title>
<path fill="none" stroke="#191970" d="M169.3893,-56.4554C150.3176,-46.599 125.5518,-33.7999 106.8461,-24.1327"/>
<polygon fill="#191970" stroke="#191970" points="108.4315,-21.0122 97.9408,-19.5303 105.2176,-27.2309 108.4315,-21.0122"/>
</g>
<!-- Node4 -->
<g id="node5" class="node">
<title>Node4</title>
<polygon fill="#ffffff" stroke="#bfbfbf" points="178,-.5 178,-19.5 219,-19.5 219,-.5 178,-.5"/>
<text text-anchor="middle" x="198.5" y="-7.5" font-family="Helvetica,sans-Serif" font-size="10.00" fill="#000000">string</text>
</g>
<!-- Node3&#45;&gt;Node4 -->
<g id="edge5" class="edge">
<title>Node3&#45;&gt;Node4</title>
<path fill="none" stroke="#191970" d="M198.5,-56.2977C198.5,-48.3834 198.5,-38.6043 198.5,-30.0759"/>
<polygon fill="#191970" stroke="#191970" points="202.0001,-29.8469 198.5,-19.8469 195.0001,-29.847 202.0001,-29.8469"/>
</g>
</g>
</svg>
