<?xml version="1.0" encoding="UTF-8" standalone="no"?>
<!DOCTYPE svg PUBLIC "-//W3C//DTD SVG 1.1//EN"
 "http://www.w3.org/Graphics/SVG/1.1/DTD/svg11.dtd">
<!-- Generated by graphviz version 2.40.1 (20161225.0304)
 -->
<!-- Title: TechnicalServices/Social/FRIEND_ON_SOCIAL_MEDIA.h Pages: 1 -->
<svg width="313pt" height="173pt"
 viewBox="0.00 0.00 312.50 173.00" xmlns="http://www.w3.org/2000/svg" xmlns:xlink="http://www.w3.org/1999/xlink">
<g id="graph0" class="graph" transform="scale(1 1) rotate(0) translate(4 169)">
<title>TechnicalServices/Social/FRIEND_ON_SOCIAL_MEDIA.h</title>
<polygon fill="#ffffff" stroke="transparent" points="-4,4 -4,-169 308.5,-169 308.5,4 -4,4"/>
<!-- Node0 -->
<g id="node1" class="node">
<title>Node0</title>
<polygon fill="#bfbfbf" stroke="#000000" points="118.5,-134.5 118.5,-164.5 284.5,-164.5 284.5,-134.5 118.5,-134.5"/>
<text text-anchor="start" x="126.5" y="-152.5" font-family="Helvetica,sans-Serif" font-size="10.00" fill="#000000">TechnicalServices/Social</text>
<text text-anchor="middle" x="201.5" y="-141.5" font-family="Helvetica,sans-Serif" font-size="10.00" fill="#000000">/FRIEND_ON_SOCIAL_MEDIA.h</text>
</g>
<!-- Node1 -->
<g id="node2" class="node">
<title>Node1</title>
<g id="a_node2"><a xlink:href="ForwardDeclarations_8h.html" target="_top" xlink:title="Asteroids/ForwardDeclarations.h">
<polygon fill="#ffffff" stroke="#000000" points="0,-.5 0,-19.5 159,-19.5 159,-.5 0,-.5"/>
<text text-anchor="middle" x="79.5" y="-7.5" font-family="Helvetica,sans-Serif" font-size="10.00" fill="#000000">Asteroids/ForwardDeclarations.h</text>
</a>
</g>
</g>
<!-- Node0&#45;&gt;Node1 -->
<g id="edge1" class="edge">
<title>Node0&#45;&gt;Node1</title>
<path fill="none" stroke="#191970" d="M143.4064,-134.4436C111.2212,-124.8002 75.8561,-111.5829 66.5,-98 52.3907,-77.5165 61.1796,-47.9765 69.6396,-28.8824"/>
<polygon fill="#191970" stroke="#191970" points="72.8685,-30.2434 74.0343,-19.7129 66.556,-27.218 72.8685,-30.2434"/>
</g>
<!-- Node2 -->
<g id="node3" class="node">
<title>Node2</title>
<g id="a_node3"><a xlink:href="FRIEND__ON__SOCIAL__MEDIA__INTERFACE_8h.html" target="_top" xlink:title="Asteroids/TechnicalServices\l/Social/FRIEND_ON_SOCIAL\l_MEDIA_INTERFACE.h">
<polygon fill="#ffffff" stroke="#000000" points="75.5,-56.5 75.5,-97.5 225.5,-97.5 225.5,-56.5 75.5,-56.5"/>
<text text-anchor="start" x="83.5" y="-85.5" font-family="Helvetica,sans-Serif" font-size="10.00" fill="#000000">Asteroids/TechnicalServices</text>
<text text-anchor="start" x="83.5" y="-74.5" font-family="Helvetica,sans-Serif" font-size="10.00" fill="#000000">/Social/FRIEND_ON_SOCIAL</text>
<text text-anchor="middle" x="150.5" y="-63.5" font-family="Helvetica,sans-Serif" font-size="10.00" fill="#000000">_MEDIA_INTERFACE.h</text>
</a>
</g>
</g>
<!-- Node0&#45;&gt;Node2 -->
<g id="edge2" class="edge">
<title>Node0&#45;&gt;Node2</title>
<path fill="none" stroke="#191970" d="M190.9328,-134.478C185.1107,-126.2016 177.6852,-115.6457 170.7905,-105.8443"/>
<polygon fill="#191970" stroke="#191970" points="173.538,-103.6668 164.9218,-97.5015 167.8127,-107.6943 173.538,-103.6668"/>
</g>
<!-- Node3 -->
<g id="node4" class="node">
<title>Node3</title>
<polygon fill="#ffffff" stroke="#bfbfbf" points="193,-.5 193,-19.5 234,-19.5 234,-.5 193,-.5"/>
<text text-anchor="middle" x="213.5" y="-7.5" font-family="Helvetica,sans-Serif" font-size="10.00" fill="#000000">string</text>
</g>
<!-- Node0&#45;&gt;Node3 -->
<g id="edge6" class="edge">
<title>Node0&#45;&gt;Node3</title>
<path fill="none" stroke="#191970" d="M214.4535,-134.4249C221.9093,-124.7239 230.5599,-111.452 234.5,-98 239.7471,-80.086 238.4667,-74.2403 234.5,-56 232.4575,-46.6079 228.3211,-36.8357 224.2553,-28.7264"/>
<polygon fill="#191970" stroke="#191970" points="227.2809,-26.9622 219.4765,-19.7968 221.1091,-30.2651 227.2809,-26.9622"/>
</g>
<!-- Node4 -->
<g id="node5" class="node">
<title>Node4</title>
<polygon fill="#ffffff" stroke="#bfbfbf" points="260.5,-.5 260.5,-19.5 304.5,-19.5 304.5,-.5 260.5,-.5"/>
<text text-anchor="middle" x="282.5" y="-7.5" font-family="Helvetica,sans-Serif" font-size="10.00" fill="#000000">vector</text>
</g>
<!-- Node0&#45;&gt;Node4 -->
<g id="edge7" class="edge">
<title>Node0&#45;&gt;Node4</title>
<path fill="none" stroke="#191970" d="M218.8577,-134.1705C228.8869,-124.5777 241.1341,-111.5082 249.5,-98 263.0098,-76.186 272.3741,-47.9664 277.5882,-29.4418"/>
<polygon fill="#191970" stroke="#191970" points="281.0337,-30.1055 280.2386,-19.5405 274.2718,-28.2954 281.0337,-30.1055"/>
</g>
<!-- Node2&#45;&gt;Node1 -->
<g id="edge3" class="edge">
<title>Node2&#45;&gt;Node1</title>
<path fill="none" stroke="#191970" d="M128.4243,-56.168C118.3747,-46.6846 106.6418,-35.6127 97.1854,-26.689"/>
<polygon fill="#191970" stroke="#191970" points="99.5395,-24.0982 89.8644,-19.7805 94.7352,-29.1893 99.5395,-24.0982"/>
</g>
<!-- Node2&#45;&gt;Node3 -->
<g id="edge4" class="edge">
<title>Node2&#45;&gt;Node3</title>
<path fill="none" stroke="#191970" d="M170.0883,-56.168C178.8272,-46.8742 189.0006,-36.0549 197.3015,-27.227"/>
<polygon fill="#191970" stroke="#191970" points="200.003,-29.4633 204.3034,-19.7805 194.9033,-24.6681 200.003,-29.4633"/>
</g>
<!-- Node2&#45;&gt;Node4 -->
<g id="edge5" class="edge">
<title>Node2&#45;&gt;Node4</title>
<path fill="none" stroke="#191970" d="M191.1814,-56.3511C211.6947,-45.9391 236.054,-33.5748 254.4528,-24.2361"/>
<polygon fill="#191970" stroke="#191970" points="256.146,-27.3018 263.4789,-19.6546 252.9777,-21.0598 256.146,-27.3018"/>
</g>
</g>
</svg>
