<?xml version="1.0" encoding="UTF-8" standalone="no"?>
<!DOCTYPE svg PUBLIC "-//W3C//DTD SVG 1.1//EN"
 "http://www.w3.org/Graphics/SVG/1.1/DTD/svg11.dtd">
<!-- Generated by graphviz version 2.40.1 (20161225.0304)
 -->
<!-- Title: TechnicalServices/Social/FRIEND_ON_SOCIAL_MEDIA_INTERFACE.h Pages: 1 -->
<svg width="289pt" height="106pt"
 viewBox="0.00 0.00 288.50 106.00" xmlns="http://www.w3.org/2000/svg" xmlns:xlink="http://www.w3.org/1999/xlink">
<g id="graph0" class="graph" transform="scale(1 1) rotate(0) translate(4 102)">
<title>TechnicalServices/Social/FRIEND_ON_SOCIAL_MEDIA_INTERFACE.h</title>
<polygon fill="#ffffff" stroke="transparent" points="-4,4 -4,-102 284.5,-102 284.5,4 -4,4"/>
<!-- Node0 -->
<g id="node1" class="node">
<title>Node0</title>
<polygon fill="#bfbfbf" stroke="#000000" points="118.5,-56.5 118.5,-97.5 276.5,-97.5 276.5,-56.5 118.5,-56.5"/>
<text text-anchor="start" x="126.5" y="-85.5" font-family="Helvetica,sans-Serif" font-size="10.00" fill="#000000">TechnicalServices/Social</text>
<text text-anchor="start" x="126.5" y="-74.5" font-family="Helvetica,sans-Serif" font-size="10.00" fill="#000000">/FRIEND_ON_SOCIAL_MEDIA</text>
<text text-anchor="middle" x="197.5" y="-63.5" font-family="Helvetica,sans-Serif" font-size="10.00" fill="#000000">_INTERFACE.h</text>
</g>
<!-- Node1 -->
<g id="node2" class="node">
<title>Node1</title>
<g id="a_node2"><a xlink:href="ForwardDeclarations_8h.html" target="_top" xlink:title="Asteroids/ForwardDeclarations.h">
<polygon fill="#ffffff" stroke="#000000" points="0,-.5 0,-19.5 159,-19.5 159,-.5 0,-.5"/>
<text text-anchor="middle" x="79.5" y="-7.5" font-family="Helvetica,sans-Serif" font-size="10.00" fill="#000000">Asteroids/ForwardDeclarations.h</text>
</a>
</g>
</g>
<!-- Node0&#45;&gt;Node1 -->
<g id="edge1" class="edge">
<title>Node0&#45;&gt;Node1</title>
<path fill="none" stroke="#191970" d="M161.1333,-56.3511C143.1321,-46.1301 121.8178,-34.0279 105.4832,-24.7532"/>
<polygon fill="#191970" stroke="#191970" points="106.9279,-21.5486 96.5037,-19.6546 103.4715,-27.6359 106.9279,-21.5486"/>
</g>
<!-- Node2 -->
<g id="node3" class="node">
<title>Node2</title>
<polygon fill="#ffffff" stroke="#bfbfbf" points="177,-.5 177,-19.5 218,-19.5 218,-.5 177,-.5"/>
<text text-anchor="middle" x="197.5" y="-7.5" font-family="Helvetica,sans-Serif" font-size="10.00" fill="#000000">string</text>
</g>
<!-- Node0&#45;&gt;Node2 -->
<g id="edge2" class="edge">
<title>Node0&#45;&gt;Node2</title>
<path fill="none" stroke="#191970" d="M197.5,-56.168C197.5,-47.8226 197.5,-38.2471 197.5,-29.9879"/>
<polygon fill="#191970" stroke="#191970" points="201.0001,-29.7804 197.5,-19.7805 194.0001,-29.7805 201.0001,-29.7804"/>
</g>
<!-- Node3 -->
<g id="node4" class="node">
<title>Node3</title>
<polygon fill="#ffffff" stroke="#bfbfbf" points="236.5,-.5 236.5,-19.5 280.5,-19.5 280.5,-.5 236.5,-.5"/>
<text text-anchor="middle" x="258.5" y="-7.5" font-family="Helvetica,sans-Serif" font-size="10.00" fill="#000000">vector</text>
</g>
<!-- Node0&#45;&gt;Node3 -->
<g id="edge3" class="edge">
<title>Node0&#45;&gt;Node3</title>
<path fill="none" stroke="#191970" d="M216.4664,-56.168C224.9279,-46.8742 234.7784,-36.0549 242.8157,-27.227"/>
<polygon fill="#191970" stroke="#191970" points="245.4512,-29.5312 249.5954,-19.7805 240.2751,-24.8186 245.4512,-29.5312"/>
</g>
</g>
</svg>
