<?xml version="1.0" encoding="UTF-8" standalone="no"?>
<!DOCTYPE svg PUBLIC "-//W3C//DTD SVG 1.1//EN"
 "http://www.w3.org/Graphics/SVG/1.1/DTD/svg11.dtd">
<!-- Generated by graphviz version 2.40.1 (20161225.0304)
 -->
<!-- Title: TechnicalServices/Social/FRIEND_ON_SOCIAL_MEDIA_INTERFACE.h Pages: 1 -->
<svg width="416pt" height="184pt"
 viewBox="0.00 0.00 416.00 184.00" xmlns="http://www.w3.org/2000/svg" xmlns:xlink="http://www.w3.org/1999/xlink">
<g id="graph0" class="graph" transform="scale(1 1) rotate(0) translate(4 180)">
<title>TechnicalServices/Social/FRIEND_ON_SOCIAL_MEDIA_INTERFACE.h</title>
<polygon fill="#ffffff" stroke="transparent" points="-4,4 -4,-180 412,-180 412,4 -4,4"/>
<!-- Node4 -->
<g id="node1" class="node">
<title>Node4</title>
<polygon fill="#bfbfbf" stroke="#000000" points="178,-134.5 178,-175.5 336,-175.5 336,-134.5 178,-134.5"/>
<text text-anchor="start" x="186" y="-163.5" font-family="Helvetica,sans-Serif" font-size="10.00" fill="#000000">TechnicalServices/Social</text>
<text text-anchor="start" x="186" y="-152.5" font-family="Helvetica,sans-Serif" font-size="10.00" fill="#000000">/FRIEND_ON_SOCIAL_MEDIA</text>
<text text-anchor="middle" x="257" y="-141.5" font-family="Helvetica,sans-Serif" font-size="10.00" fill="#000000">_INTERFACE.h</text>
</g>
<!-- Node5 -->
<g id="node2" class="node">
<title>Node5</title>
<g id="a_node2"><a xlink:href="FRIEND__ON__SOCIAL__MEDIA_8h.html" target="_top" xlink:title="TechnicalServices/Social\l/FRIEND_ON_SOCIAL_MEDIA.h">
<polygon fill="#ffffff" stroke="#000000" points="90,-67.5 90,-97.5 256,-97.5 256,-67.5 90,-67.5"/>
<text text-anchor="start" x="98" y="-85.5" font-family="Helvetica,sans-Serif" font-size="10.00" fill="#000000">TechnicalServices/Social</text>
<text text-anchor="middle" x="173" y="-74.5" font-family="Helvetica,sans-Serif" font-size="10.00" fill="#000000">/FRIEND_ON_SOCIAL_MEDIA.h</text>
</a>
</g>
</g>
<!-- Node4&#45;&gt;Node5 -->
<g id="edge1" class="edge">
<title>Node4&#45;&gt;Node5</title>
<path fill="none" stroke="#191970" d="M225.5723,-127.8749C213.7055,-117.6327 200.6343,-106.351 190.4941,-97.5991"/>
<polygon fill="#191970" stroke="#191970" points="223.2965,-130.534 233.1537,-134.4183 227.8702,-125.2349 223.2965,-130.534"/>
</g>
<!-- Node8 -->
<g id="node5" class="node">
<title>Node8</title>
<g id="a_node5"><a xlink:href="ClientTextUI_8cpp.html" target="_top" xlink:title="UI/ClientTextUI/ClientText\lUI.cpp">
<polygon fill="#ffffff" stroke="#000000" points="274,-67.5 274,-97.5 408,-97.5 408,-67.5 274,-67.5"/>
<text text-anchor="start" x="282" y="-85.5" font-family="Helvetica,sans-Serif" font-size="10.00" fill="#000000">UI/ClientTextUI/ClientText</text>
<text text-anchor="middle" x="341" y="-74.5" font-family="Helvetica,sans-Serif" font-size="10.00" fill="#000000">UI.cpp</text>
</a>
</g>
</g>
<!-- Node4&#45;&gt;Node8 -->
<g id="edge4" class="edge">
<title>Node4&#45;&gt;Node8</title>
<path fill="none" stroke="#191970" d="M288.4277,-127.8749C300.2945,-117.6327 313.3657,-106.351 323.5059,-97.5991"/>
<polygon fill="#191970" stroke="#191970" points="286.1298,-125.2349 280.8463,-134.4183 290.7035,-130.534 286.1298,-125.2349"/>
</g>
<!-- Node6 -->
<g id="node3" class="node">
<title>Node6</title>
<g id="a_node3"><a xlink:href="FRIEND__ON__SOCIAL__MEDIA_8cpp.html" target="_top" xlink:title="TechnicalServices/Social\l/FRIEND_ON_SOCIAL_MEDIA.cpp">
<polygon fill="#ffffff" stroke="#000000" points="0,-.5 0,-30.5 176,-30.5 176,-.5 0,-.5"/>
<text text-anchor="start" x="8" y="-18.5" font-family="Helvetica,sans-Serif" font-size="10.00" fill="#000000">TechnicalServices/Social</text>
<text text-anchor="middle" x="88" y="-7.5" font-family="Helvetica,sans-Serif" font-size="10.00" fill="#000000">/FRIEND_ON_SOCIAL_MEDIA.cpp</text>
</a>
</g>
</g>
<!-- Node5&#45;&gt;Node6 -->
<g id="edge2" class="edge">
<title>Node5&#45;&gt;Node6</title>
<path fill="none" stroke="#191970" d="M145.8055,-61.0643C133.2374,-51.1577 118.6083,-39.6265 107.2115,-30.6432"/>
<polygon fill="#191970" stroke="#191970" points="143.6919,-63.8549 153.7122,-67.2967 148.0253,-58.3574 143.6919,-63.8549"/>
</g>
<!-- Node7 -->
<g id="node4" class="node">
<title>Node7</title>
<g id="a_node4"><a xlink:href="SocialMedia_8cpp.html" target="_top" xlink:title="TechnicalServices/Social\l/SocialMedia.cpp">
<polygon fill="#ffffff" stroke="#000000" points="194.5,-.5 194.5,-30.5 321.5,-30.5 321.5,-.5 194.5,-.5"/>
<text text-anchor="start" x="202.5" y="-18.5" font-family="Helvetica,sans-Serif" font-size="10.00" fill="#000000">TechnicalServices/Social</text>
<text text-anchor="middle" x="258" y="-7.5" font-family="Helvetica,sans-Serif" font-size="10.00" fill="#000000">/SocialMedia.cpp</text>
</a>
</g>
</g>
<!-- Node5&#45;&gt;Node7 -->
<g id="edge3" class="edge">
<title>Node5&#45;&gt;Node7</title>
<path fill="none" stroke="#191970" d="M200.1945,-61.0643C212.7626,-51.1577 227.3917,-39.6265 238.7885,-30.6432"/>
<polygon fill="#191970" stroke="#191970" points="197.9747,-58.3574 192.2878,-67.2967 202.3081,-63.8549 197.9747,-58.3574"/>
</g>
</g>
</svg>
