<?xml version="1.0" encoding="UTF-8" standalone="no"?>
<!DOCTYPE svg PUBLIC "-//W3C//DTD SVG 1.1//EN"
 "http://www.w3.org/Graphics/SVG/1.1/DTD/svg11.dtd">
<!-- Generated by graphviz version 2.40.1 (20161225.0304)
 -->
<!-- Title: Domain/Game/GAME_HISTORY_ENTRY.h Pages: 1 -->
<svg width="270pt" height="162pt"
 viewBox="0.00 0.00 269.65 162.00" xmlns="http://www.w3.org/2000/svg" xmlns:xlink="http://www.w3.org/1999/xlink">
<g id="graph0" class="graph" transform="scale(1 1) rotate(0) translate(4 158)">
<title>Domain/Game/GAME_HISTORY_ENTRY.h</title>
<polygon fill="#ffffff" stroke="transparent" points="-4,4 -4,-158 265.651,-158 265.651,4 -4,4"/>
<!-- Node0 -->
<g id="node1" class="node">
<title>Node0</title>
<polygon fill="#bfbfbf" stroke="#000000" points="61.5,-123.5 61.5,-153.5 223.5,-153.5 223.5,-123.5 61.5,-123.5"/>
<text text-anchor="start" x="69.5" y="-141.5" font-family="Helvetica,sans-Serif" font-size="10.00" fill="#000000">Domain/Game/GAME_HISTORY</text>
<text text-anchor="middle" x="142.5" y="-130.5" font-family="Helvetica,sans-Serif" font-size="10.00" fill="#000000">_ENTRY.h</text>
</g>
<!-- Node1 -->
<g id="node2" class="node">
<title>Node1</title>
<g id="a_node2"><a xlink:href="ForwardDeclarations_8h.html" target="_top" xlink:title="Asteroids/ForwardDeclarations.h">
<polygon fill="#ffffff" stroke="#000000" points="0,-.5 0,-19.5 159,-19.5 159,-.5 0,-.5"/>
<text text-anchor="middle" x="79.5" y="-7.5" font-family="Helvetica,sans-Serif" font-size="10.00" fill="#000000">Asteroids/ForwardDeclarations.h</text>
</a>
</g>
</g>
<!-- Node0&#45;&gt;Node1 -->
<g id="edge1" class="edge">
<title>Node0&#45;&gt;Node1</title>
<path fill="none" stroke="#191970" d="M76.9237,-123.4585C58.0782,-115.7727 39.6309,-104.2424 28.5,-87 21.0275,-75.4246 22.9015,-68.589 28.5,-56 33.9508,-43.7432 44.4599,-33.3755 54.5289,-25.6036"/>
<polygon fill="#191970" stroke="#191970" points="56.6744,-28.3721 62.7627,-19.7012 52.596,-22.6828 56.6744,-28.3721"/>
</g>
<!-- Node2 -->
<g id="node3" class="node">
<title>Node2</title>
<g id="a_node3"><a xlink:href="GAME__HISTORY__ENTRY__INTERFACE_8h.html" target="_top" xlink:title="Asteroids/Domain/Game\l/GAME_HISTORY_ENTRY_INTERFACE.h">
<polygon fill="#ffffff" stroke="#000000" points="37.5,-56.5 37.5,-86.5 247.5,-86.5 247.5,-56.5 37.5,-56.5"/>
<text text-anchor="start" x="45.5" y="-74.5" font-family="Helvetica,sans-Serif" font-size="10.00" fill="#000000">Asteroids/Domain/Game</text>
<text text-anchor="middle" x="142.5" y="-63.5" font-family="Helvetica,sans-Serif" font-size="10.00" fill="#000000">/GAME_HISTORY_ENTRY_INTERFACE.h</text>
</a>
</g>
</g>
<!-- Node0&#45;&gt;Node2 -->
<g id="edge2" class="edge">
<title>Node0&#45;&gt;Node2</title>
<path fill="none" stroke="#191970" d="M142.5,-123.2967C142.5,-115.5013 142.5,-105.7991 142.5,-96.9064"/>
<polygon fill="#191970" stroke="#191970" points="146.0001,-96.6431 142.5,-86.6432 139.0001,-96.6432 146.0001,-96.6431"/>
</g>
<!-- Node3 -->
<g id="node4" class="node">
<title>Node3</title>
<polygon fill="#ffffff" stroke="#bfbfbf" points="184,-.5 184,-19.5 225,-19.5 225,-.5 184,-.5"/>
<text text-anchor="middle" x="204.5" y="-7.5" font-family="Helvetica,sans-Serif" font-size="10.00" fill="#000000">string</text>
</g>
<!-- Node0&#45;&gt;Node3 -->
<g id="edge5" class="edge">
<title>Node0&#45;&gt;Node3</title>
<path fill="none" stroke="#191970" d="M208.0763,-123.4585C226.9218,-115.7727 245.3691,-104.2424 256.5,-87 263.9725,-75.4246 262.1592,-68.5619 256.5,-56 250.9303,-43.6369 240.2137,-33.2563 229.9494,-25.5033"/>
<polygon fill="#191970" stroke="#191970" points="231.7549,-22.4948 221.5567,-19.623 227.7382,-28.2277 231.7549,-22.4948"/>
</g>
<!-- Node2&#45;&gt;Node1 -->
<g id="edge3" class="edge">
<title>Node2&#45;&gt;Node1</title>
<path fill="none" stroke="#191970" d="M126.927,-56.2977C117.8175,-47.4052 106.2966,-36.1586 96.8909,-26.9769"/>
<polygon fill="#191970" stroke="#191970" points="99.1878,-24.3278 89.5871,-19.8469 94.298,-29.3368 99.1878,-24.3278"/>
</g>
<!-- Node2&#45;&gt;Node3 -->
<g id="edge4" class="edge">
<title>Node2&#45;&gt;Node3</title>
<path fill="none" stroke="#191970" d="M157.8258,-56.2977C166.7907,-47.4052 178.1288,-36.1586 187.3851,-26.9769"/>
<polygon fill="#191970" stroke="#191970" points="189.9382,-29.3742 194.573,-19.8469 185.0085,-24.4045 189.9382,-29.3742"/>
</g>
</g>
</svg>
