<?xml version="1.0" encoding="UTF-8" standalone="no"?>
<!DOCTYPE svg PUBLIC "-//W3C//DTD SVG 1.1//EN"
 "http://www.w3.org/Graphics/SVG/1.1/DTD/svg11.dtd">
<!-- Generated by graphviz version 2.40.1 (20161225.0304)
 -->
<!-- Title: Domain/Game/GameFactoryInterface.h Pages: 1 -->
<svg width="737pt" height="151pt"
 viewBox="0.00 0.00 737.00 151.00" xmlns="http://www.w3.org/2000/svg" xmlns:xlink="http://www.w3.org/1999/xlink">
<g id="graph0" class="graph" transform="scale(1 1) rotate(0) translate(4 147)">
<title>Domain/Game/GameFactoryInterface.h</title>
<polygon fill="#ffffff" stroke="transparent" points="-4,4 -4,-147 733,-147 733,4 -4,4"/>
<!-- Node3 -->
<g id="node1" class="node">
<title>Node3</title>
<polygon fill="#bfbfbf" stroke="#000000" points="344,-123.5 344,-142.5 532,-142.5 532,-123.5 344,-123.5"/>
<text text-anchor="middle" x="438" y="-130.5" font-family="Helvetica,sans-Serif" font-size="10.00" fill="#000000">Domain/Game/GameFactoryInterface.h</text>
</g>
<!-- Node4 -->
<g id="node2" class="node">
<title>Node4</title>
<g id="a_node2"><a xlink:href="Game_8h.html" target="_top" xlink:title="Domain/Game/Game.h">
<polygon fill="#ffffff" stroke="#000000" points="168.5,-67.5 168.5,-86.5 285.5,-86.5 285.5,-67.5 168.5,-67.5"/>
<text text-anchor="middle" x="227" y="-74.5" font-family="Helvetica,sans-Serif" font-size="10.00" fill="#000000">Domain/Game/Game.h</text>
</a>
</g>
</g>
<!-- Node3&#45;&gt;Node4 -->
<g id="edge1" class="edge">
<title>Node3&#45;&gt;Node4</title>
<path fill="none" stroke="#191970" d="M391.7303,-120.7199C352.9324,-110.4228 298.3241,-95.9296 262.7989,-86.5011"/>
<polygon fill="#191970" stroke="#191970" points="391.1646,-124.1909 401.7278,-123.3733 392.9603,-117.4251 391.1646,-124.1909"/>
</g>
<!-- Node7 -->
<g id="node5" class="node">
<title>Node7</title>
<g id="a_node5"><a xlink:href="GameFactory_8h.html" target="_top" xlink:title="Domain/Game/GameFactory.h">
<polygon fill="#ffffff" stroke="#000000" points="312,-67.5 312,-86.5 462,-86.5 462,-67.5 312,-67.5"/>
<text text-anchor="middle" x="387" y="-74.5" font-family="Helvetica,sans-Serif" font-size="10.00" fill="#000000">Domain/Game/GameFactory.h</text>
</a>
</g>
</g>
<!-- Node3&#45;&gt;Node7 -->
<g id="edge4" class="edge">
<title>Node3&#45;&gt;Node7</title>
<path fill="none" stroke="#191970" d="M422.3251,-115.7884C413.6006,-106.2085 403.0646,-94.6396 395.7817,-86.6427"/>
<polygon fill="#191970" stroke="#191970" points="419.7954,-118.2088 429.1165,-123.2455 424.9709,-113.4954 419.7954,-118.2088"/>
</g>
<!-- Node9 -->
<g id="node7" class="node">
<title>Node9</title>
<g id="a_node7"><a xlink:href="ClientTextUI_8cpp.html" target="_top" xlink:title="UI/ClientTextUI/ClientText\lUI.cpp">
<polygon fill="#ffffff" stroke="#000000" points="485,-.5 485,-30.5 619,-30.5 619,-.5 485,-.5"/>
<text text-anchor="start" x="493" y="-18.5" font-family="Helvetica,sans-Serif" font-size="10.00" fill="#000000">UI/ClientTextUI/ClientText</text>
<text text-anchor="middle" x="552" y="-7.5" font-family="Helvetica,sans-Serif" font-size="10.00" fill="#000000">UI.cpp</text>
</a>
</g>
</g>
<!-- Node3&#45;&gt;Node9 -->
<g id="edge7" class="edge">
<title>Node3&#45;&gt;Node9</title>
<path fill="none" stroke="#191970" d="M454.4154,-116.0806C476.6257,-93.1884 515.9163,-52.6915 537.2389,-30.7143"/>
<polygon fill="#191970" stroke="#191970" points="451.7805,-113.7701 447.3291,-123.3845 456.8045,-118.6445 451.7805,-113.7701"/>
</g>
<!-- Node10 -->
<g id="node8" class="node">
<title>Node10</title>
<g id="a_node8"><a xlink:href="ClientTextUI_8h.html" target="_top" xlink:title="UI/ClientTextUI/ClientTextUI.h">
<polygon fill="#ffffff" stroke="#000000" points="518,-67.5 518,-86.5 670,-86.5 670,-67.5 518,-67.5"/>
<text text-anchor="middle" x="594" y="-74.5" font-family="Helvetica,sans-Serif" font-size="10.00" fill="#000000">UI/ClientTextUI/ClientTextUI.h</text>
</a>
</g>
</g>
<!-- Node3&#45;&gt;Node10 -->
<g id="edge8" class="edge">
<title>Node3&#45;&gt;Node10</title>
<path fill="none" stroke="#191970" d="M474.4284,-119.9231C502.9461,-109.686 541.9381,-95.6889 567.5326,-86.5011"/>
<polygon fill="#191970" stroke="#191970" points="473.0468,-116.7004 464.8174,-123.3733 475.4119,-123.2887 473.0468,-116.7004"/>
</g>
<!-- Node5 -->
<g id="node3" class="node">
<title>Node5</title>
<g id="a_node3"><a xlink:href="Game_8cpp.html" target="_top" xlink:title="Domain/Game/Game.cpp">
<polygon fill="#ffffff" stroke="#000000" points="0,-6 0,-25 128,-25 128,-6 0,-6"/>
<text text-anchor="middle" x="64" y="-13" font-family="Helvetica,sans-Serif" font-size="10.00" fill="#000000">Domain/Game/Game.cpp</text>
</a>
</g>
</g>
<!-- Node4&#45;&gt;Node5 -->
<g id="edge2" class="edge">
<title>Node4&#45;&gt;Node5</title>
<path fill="none" stroke="#191970" d="M192.0129,-63.7993C161.1289,-52.1468 116.8496,-35.4402 89.2899,-25.0419"/>
<polygon fill="#191970" stroke="#191970" points="190.9395,-67.1351 201.5313,-67.3906 193.4106,-60.5858 190.9395,-67.1351"/>
</g>
<!-- Node6 -->
<g id="node4" class="node">
<title>Node6</title>
<g id="a_node4"><a xlink:href="GameFactory_8cpp.html" target="_top" xlink:title="Domain/Game/GameFactory.cpp">
<polygon fill="#ffffff" stroke="#000000" points="146.5,-6 146.5,-25 307.5,-25 307.5,-6 146.5,-6"/>
<text text-anchor="middle" x="227" y="-13" font-family="Helvetica,sans-Serif" font-size="10.00" fill="#000000">Domain/Game/GameFactory.cpp</text>
</a>
</g>
</g>
<!-- Node4&#45;&gt;Node6 -->
<g id="edge3" class="edge">
<title>Node4&#45;&gt;Node6</title>
<path fill="none" stroke="#191970" d="M227,-57.2462C227,-46.5519 227,-33.814 227,-25.2449"/>
<polygon fill="#191970" stroke="#191970" points="223.5001,-57.3906 227,-67.3906 230.5001,-57.3907 223.5001,-57.3906"/>
</g>
<!-- Node7&#45;&gt;Node6 -->
<g id="edge6" class="edge">
<title>Node7&#45;&gt;Node6</title>
<path fill="none" stroke="#191970" d="M352.6568,-63.7993C322.3413,-52.1468 278.8769,-35.4402 251.8244,-25.0419"/>
<polygon fill="#191970" stroke="#191970" points="351.41,-67.0697 362,-67.3906 353.9216,-60.5357 351.41,-67.0697"/>
</g>
<!-- Node8 -->
<g id="node6" class="node">
<title>Node8</title>
<g id="a_node6"><a xlink:href="Factory_8cpp.html" target="_top" xlink:title="Domain/Factory/Factory.cpp">
<polygon fill="#ffffff" stroke="#000000" points="325.5,-6 325.5,-25 466.5,-25 466.5,-6 325.5,-6"/>
<text text-anchor="middle" x="396" y="-13" font-family="Helvetica,sans-Serif" font-size="10.00" fill="#000000">Domain/Factory/Factory.cpp</text>
</a>
</g>
</g>
<!-- Node7&#45;&gt;Node8 -->
<g id="edge5" class="edge">
<title>Node7&#45;&gt;Node8</title>
<path fill="none" stroke="#191970" d="M389.8908,-57.2462C391.4558,-46.5519 393.3199,-33.814 394.5739,-25.2449"/>
<polygon fill="#191970" stroke="#191970" points="386.3912,-56.9892 388.4063,-67.3906 393.3174,-58.0028 386.3912,-56.9892"/>
</g>
<!-- Node10&#45;&gt;Node9 -->
<g id="edge9" class="edge">
<title>Node10&#45;&gt;Node9</title>
<path fill="none" stroke="#191970" d="M581.7672,-59.0877C575.5819,-50.0307 568.1599,-39.1627 562.2744,-30.5446"/>
<polygon fill="#191970" stroke="#191970" points="578.9075,-61.1065 587.4375,-67.3906 584.6881,-57.1587 578.9075,-61.1065"/>
</g>
<!-- Node11 -->
<g id="node9" class="node">
<title>Node11</title>
<g id="a_node9"><a xlink:href="UIFactory_8cpp.html" target="_top" xlink:title="UI/UIFactory.cpp">
<polygon fill="#ffffff" stroke="#000000" points="637,-6 637,-25 729,-25 729,-6 637,-6"/>
<text text-anchor="middle" x="683" y="-13" font-family="Helvetica,sans-Serif" font-size="10.00" fill="#000000">UI/UIFactory.cpp</text>
</a>
</g>
</g>
<!-- Node10&#45;&gt;Node11 -->
<g id="edge10" class="edge">
<title>Node10&#45;&gt;Node11</title>
<path fill="none" stroke="#191970" d="M616.4764,-61.4685C633.0678,-50.0037 655.1206,-34.765 669.1914,-25.0419"/>
<polygon fill="#191970" stroke="#191970" points="614.1435,-58.8263 607.9063,-67.3906 618.1229,-64.5851 614.1435,-58.8263"/>
</g>
</g>
</svg>
