<?xml version="1.0" encoding="UTF-8" standalone="no"?>
<!DOCTYPE svg PUBLIC "-//W3C//DTD SVG 1.1//EN"
 "http://www.w3.org/Graphics/SVG/1.1/DTD/svg11.dtd">
<!-- Generated by graphviz version 2.40.1 (20161225.0304)
 -->
<!-- Title: Domain/Game/GameHistory.cpp Pages: 1 -->
<svg width="516pt" height="218pt"
 viewBox="0.00 0.00 516.31 218.00" xmlns="http://www.w3.org/2000/svg" xmlns:xlink="http://www.w3.org/1999/xlink">
<g id="graph0" class="graph" transform="scale(1 1) rotate(0) translate(4 214)">
<title>Domain/Game/GameHistory.cpp</title>
<polygon fill="#ffffff" stroke="transparent" points="-4,4 -4,-214 512.3064,-214 512.3064,4 -4,4"/>
<!-- Node0 -->
<g id="node1" class="node">
<title>Node0</title>
<polygon fill="#bfbfbf" stroke="#000000" points="177.5,-190.5 177.5,-209.5 336.5,-209.5 336.5,-190.5 177.5,-190.5"/>
<text text-anchor="middle" x="257" y="-197.5" font-family="Helvetica,sans-Serif" font-size="10.00" fill="#000000">Domain/Game/GameHistory.cpp</text>
</g>
<!-- Node1 -->
<g id="node2" class="node">
<title>Node1</title>
<g id="a_node2"><a xlink:href="GameHistory_8h.html" target="_top" xlink:title="Asteroids/Domain/Game\l/GameHistory.h">
<polygon fill="#ffffff" stroke="#000000" points="118,-123.5 118,-153.5 242,-153.5 242,-123.5 118,-123.5"/>
<text text-anchor="start" x="126" y="-141.5" font-family="Helvetica,sans-Serif" font-size="10.00" fill="#000000">Asteroids/Domain/Game</text>
<text text-anchor="middle" x="180" y="-130.5" font-family="Helvetica,sans-Serif" font-size="10.00" fill="#000000">/GameHistory.h</text>
</a>
</g>
</g>
<!-- Node0&#45;&gt;Node1 -->
<g id="edge1" class="edge">
<title>Node0&#45;&gt;Node1</title>
<path fill="none" stroke="#191970" d="M244.9688,-190.3906C234.8372,-182.2986 219.9658,-170.4207 207.0069,-160.0705"/>
<polygon fill="#191970" stroke="#191970" points="208.8343,-157.0506 198.8363,-153.5446 204.4657,-162.5202 208.8343,-157.0506"/>
</g>
<!-- Node6 -->
<g id="node7" class="node">
<title>Node6</title>
<g id="a_node7"><a xlink:href="GAME__HISTORY__ENTRY_8h.html" target="_top" xlink:title="Asteroids/Domain/Game\l/GAME_HISTORY_ENTRY.h">
<polygon fill="#ffffff" stroke="#000000" points="287.5,-123.5 287.5,-153.5 434.5,-153.5 434.5,-123.5 287.5,-123.5"/>
<text text-anchor="start" x="295.5" y="-141.5" font-family="Helvetica,sans-Serif" font-size="10.00" fill="#000000">Asteroids/Domain/Game</text>
<text text-anchor="middle" x="361" y="-130.5" font-family="Helvetica,sans-Serif" font-size="10.00" fill="#000000">/GAME_HISTORY_ENTRY.h</text>
</a>
</g>
</g>
<!-- Node0&#45;&gt;Node6 -->
<g id="edge9" class="edge">
<title>Node0&#45;&gt;Node6</title>
<path fill="none" stroke="#191970" d="M273.25,-190.3906C287.4555,-181.9903 308.5599,-169.5103 326.5117,-158.8945"/>
<polygon fill="#191970" stroke="#191970" points="328.7327,-161.6474 335.5587,-153.5446 325.1696,-155.622 328.7327,-161.6474"/>
</g>
<!-- Node2 -->
<g id="node3" class="node">
<title>Node2</title>
<g id="a_node3"><a xlink:href="ForwardDeclarations_8h.html" target="_top" xlink:title="Asteroids/ForwardDeclarations.h">
<polygon fill="#ffffff" stroke="#000000" points="157.5,-.5 157.5,-19.5 316.5,-19.5 316.5,-.5 157.5,-.5"/>
<text text-anchor="middle" x="237" y="-7.5" font-family="Helvetica,sans-Serif" font-size="10.00" fill="#000000">Asteroids/ForwardDeclarations.h</text>
</a>
</g>
</g>
<!-- Node1&#45;&gt;Node2 -->
<g id="edge2" class="edge">
<title>Node1&#45;&gt;Node2</title>
<path fill="none" stroke="#191970" d="M186.7625,-123.2548C197.1818,-99.7656 217.1443,-54.7623 228.5172,-29.1235"/>
<polygon fill="#191970" stroke="#191970" points="231.8259,-30.296 232.6814,-19.7358 225.4272,-27.4577 231.8259,-30.296"/>
</g>
<!-- Node3 -->
<g id="node4" class="node">
<title>Node3</title>
<g id="a_node4"><a xlink:href="GameHistoryInterface_8h.html" target="_top" xlink:title="Asteroids/Domain/Game\l/GameHistoryInterface.h">
<polygon fill="#ffffff" stroke="#000000" points="28,-56.5 28,-86.5 152,-86.5 152,-56.5 28,-56.5"/>
<text text-anchor="start" x="36" y="-74.5" font-family="Helvetica,sans-Serif" font-size="10.00" fill="#000000">Asteroids/Domain/Game</text>
<text text-anchor="middle" x="90" y="-63.5" font-family="Helvetica,sans-Serif" font-size="10.00" fill="#000000">/GameHistoryInterface.h</text>
</a>
</g>
</g>
<!-- Node1&#45;&gt;Node3 -->
<g id="edge3" class="edge">
<title>Node1&#45;&gt;Node3</title>
<path fill="none" stroke="#191970" d="M159.5776,-123.2967C147.4952,-114.302 132.0028,-102.7687 118.7052,-92.8694"/>
<polygon fill="#191970" stroke="#191970" points="120.4529,-89.8072 110.3416,-86.6432 116.2729,-95.4221 120.4529,-89.8072"/>
</g>
<!-- Node4 -->
<g id="node5" class="node">
<title>Node4</title>
<polygon fill="#ffffff" stroke="#bfbfbf" points="0,-.5 0,-19.5 52,-19.5 52,-.5 0,-.5"/>
<text text-anchor="middle" x="26" y="-7.5" font-family="Helvetica,sans-Serif" font-size="10.00" fill="#000000">memory</text>
</g>
<!-- Node1&#45;&gt;Node4 -->
<g id="edge7" class="edge">
<title>Node1&#45;&gt;Node4</title>
<path fill="none" stroke="#191970" d="M117.818,-126.4823C77.7923,-117.3395 31.0693,-103.5324 19,-87 6.8088,-70.3007 11.8223,-45.8209 17.7504,-28.969"/>
<polygon fill="#191970" stroke="#191970" points="21.0318,-30.1878 21.414,-19.5998 14.5125,-27.6385 21.0318,-30.1878"/>
</g>
<!-- Node5 -->
<g id="node6" class="node">
<title>Node5</title>
<polygon fill="#ffffff" stroke="#bfbfbf" points="82,-.5 82,-19.5 126,-19.5 126,-.5 82,-.5"/>
<text text-anchor="middle" x="104" y="-7.5" font-family="Helvetica,sans-Serif" font-size="10.00" fill="#000000">vector</text>
</g>
<!-- Node1&#45;&gt;Node5 -->
<g id="edge8" class="edge">
<title>Node1&#45;&gt;Node5</title>
<path fill="none" stroke="#191970" d="M179.4509,-123.3771C178.1867,-105.9211 174.0969,-76.9329 161,-56 153.283,-43.6659 141.0784,-33.1684 129.9389,-25.3296"/>
<polygon fill="#191970" stroke="#191970" points="131.6084,-22.2371 121.3397,-19.6287 127.7405,-28.0714 131.6084,-22.2371"/>
</g>
<!-- Node3&#45;&gt;Node2 -->
<g id="edge4" class="edge">
<title>Node3&#45;&gt;Node2</title>
<path fill="none" stroke="#191970" d="M125.9602,-56.4554C150.0573,-46.374 181.513,-33.2139 204.7903,-23.4755"/>
<polygon fill="#191970" stroke="#191970" points="206.3459,-26.6187 214.2202,-19.5303 203.6442,-20.1611 206.3459,-26.6187"/>
</g>
<!-- Node3&#45;&gt;Node4 -->
<g id="edge5" class="edge">
<title>Node3&#45;&gt;Node4</title>
<path fill="none" stroke="#191970" d="M74.1798,-56.2977C64.9258,-47.4052 53.2219,-36.1586 43.667,-26.9769"/>
<polygon fill="#191970" stroke="#191970" points="45.8828,-24.2521 36.2472,-19.8469 41.0326,-29.2995 45.8828,-24.2521"/>
</g>
<!-- Node3&#45;&gt;Node5 -->
<g id="edge6" class="edge">
<title>Node3&#45;&gt;Node5</title>
<path fill="none" stroke="#191970" d="M93.4607,-56.2977C95.2826,-48.2945 97.5385,-38.3843 99.4952,-29.7889"/>
<polygon fill="#191970" stroke="#191970" points="102.9514,-30.3744 101.7584,-19.8469 96.126,-28.8206 102.9514,-30.3744"/>
</g>
<!-- Node6&#45;&gt;Node2 -->
<g id="edge10" class="edge">
<title>Node6&#45;&gt;Node2</title>
<path fill="none" stroke="#191970" d="M325.9595,-123.3386C308.9372,-114.6291 289.1559,-102.3536 275,-87 259.5821,-70.2777 249.044,-46.1362 243.0457,-29.3596"/>
<polygon fill="#191970" stroke="#191970" points="246.2536,-27.9174 239.7539,-19.5505 239.6173,-30.1444 246.2536,-27.9174"/>
</g>
<!-- Node7 -->
<g id="node8" class="node">
<title>Node7</title>
<g id="a_node8"><a xlink:href="GAME__HISTORY__ENTRY__INTERFACE_8h.html" target="_top" xlink:title="Asteroids/Domain/Game\l/GAME_HISTORY_ENTRY_INTERFACE.h">
<polygon fill="#ffffff" stroke="#000000" points="284,-56.5 284,-86.5 494,-86.5 494,-56.5 284,-56.5"/>
<text text-anchor="start" x="292" y="-74.5" font-family="Helvetica,sans-Serif" font-size="10.00" fill="#000000">Asteroids/Domain/Game</text>
<text text-anchor="middle" x="389" y="-63.5" font-family="Helvetica,sans-Serif" font-size="10.00" fill="#000000">/GAME_HISTORY_ENTRY_INTERFACE.h</text>
</a>
</g>
</g>
<!-- Node6&#45;&gt;Node7 -->
<g id="edge11" class="edge">
<title>Node6&#45;&gt;Node7</title>
<path fill="none" stroke="#191970" d="M367.3536,-123.2967C370.7188,-115.2443 374.9342,-105.1574 378.7488,-96.0296"/>
<polygon fill="#191970" stroke="#191970" points="382.0449,-97.2195 382.6715,-86.6432 375.5862,-94.5203 382.0449,-97.2195"/>
</g>
<!-- Node8 -->
<g id="node9" class="node">
<title>Node8</title>
<polygon fill="#ffffff" stroke="#bfbfbf" points="434.5,-.5 434.5,-19.5 475.5,-19.5 475.5,-.5 434.5,-.5"/>
<text text-anchor="middle" x="455" y="-7.5" font-family="Helvetica,sans-Serif" font-size="10.00" fill="#000000">string</text>
</g>
<!-- Node6&#45;&gt;Node8 -->
<g id="edge14" class="edge">
<title>Node6&#45;&gt;Node8</title>
<path fill="none" stroke="#191970" d="M423.2249,-123.4969C456.7499,-114.0198 493.215,-100.9574 503,-87 510.9091,-75.7184 508.4076,-68.6722 503,-56 497.8844,-44.0122 487.9425,-33.6498 478.4273,-25.8114"/>
<polygon fill="#191970" stroke="#191970" points="480.3754,-22.8949 470.3074,-19.5954 476.1203,-28.4532 480.3754,-22.8949"/>
</g>
<!-- Node7&#45;&gt;Node2 -->
<g id="edge12" class="edge">
<title>Node7&#45;&gt;Node2</title>
<path fill="none" stroke="#191970" d="M351.8166,-56.4554C326.7887,-46.329 294.0837,-33.0964 269.9834,-23.3453"/>
<polygon fill="#191970" stroke="#191970" points="271.1373,-20.0366 260.5546,-19.5303 268.5118,-26.5256 271.1373,-20.0366"/>
</g>
<!-- Node7&#45;&gt;Node8 -->
<g id="edge13" class="edge">
<title>Node7&#45;&gt;Node8</title>
<path fill="none" stroke="#191970" d="M405.3146,-56.2977C414.9533,-47.3163 427.1691,-35.9334 437.0759,-26.702"/>
<polygon fill="#191970" stroke="#191970" points="439.5025,-29.2249 444.4326,-19.8469 434.7304,-24.1036 439.5025,-29.2249"/>
</g>
</g>
</svg>
