<?xml version="1.0" encoding="UTF-8" standalone="no"?>
<!DOCTYPE svg PUBLIC "-//W3C//DTD SVG 1.1//EN"
 "http://www.w3.org/Graphics/SVG/1.1/DTD/svg11.dtd">
<!-- Generated by graphviz version 2.40.1 (20161225.0304)
 -->
<!-- Title: Domain/Game/Game.h Pages: 1 -->
<svg width="392pt" height="151pt"
 viewBox="0.00 0.00 391.50 151.00" xmlns="http://www.w3.org/2000/svg" xmlns:xlink="http://www.w3.org/1999/xlink">
<g id="graph0" class="graph" transform="scale(1 1) rotate(0) translate(4 147)">
<title>Domain/Game/Game.h</title>
<polygon fill="#ffffff" stroke="transparent" points="-4,4 -4,-147 387.5,-147 387.5,4 -4,4"/>
<!-- Node0 -->
<g id="node1" class="node">
<title>Node0</title>
<polygon fill="#bfbfbf" stroke="#000000" points="127,-123.5 127,-142.5 244,-142.5 244,-123.5 127,-123.5"/>
<text text-anchor="middle" x="185.5" y="-130.5" font-family="Helvetica,sans-Serif" font-size="10.00" fill="#000000">Domain/Game/Game.h</text>
</g>
<!-- Node1 -->
<g id="node2" class="node">
<title>Node1</title>
<g id="a_node2"><a xlink:href="ForwardDeclarations_8h.html" target="_top" xlink:title="Asteroids/ForwardDeclarations.h">
<polygon fill="#ffffff" stroke="#000000" points="0,-.5 0,-19.5 159,-19.5 159,-.5 0,-.5"/>
<text text-anchor="middle" x="79.5" y="-7.5" font-family="Helvetica,sans-Serif" font-size="10.00" fill="#000000">Asteroids/ForwardDeclarations.h</text>
</a>
</g>
</g>
<!-- Node0&#45;&gt;Node1 -->
<g id="edge1" class="edge">
<title>Node0&#45;&gt;Node1</title>
<path fill="none" stroke="#191970" d="M148.7865,-123.44C118.1184,-114.6241 77.9323,-100.8435 68.5,-87 56.914,-69.9955 63.0174,-45.9541 69.8569,-29.277"/>
<polygon fill="#191970" stroke="#191970" points="73.1324,-30.5279 74.059,-19.9736 66.7529,-27.6464 73.1324,-30.5279"/>
</g>
<!-- Node2 -->
<g id="node3" class="node">
<title>Node2</title>
<g id="a_node3"><a xlink:href="GameInterface_8h.html" target="_top" xlink:title="Asteroids/Domain/Game\l/GameInterface.h">
<polygon fill="#ffffff" stroke="#000000" points="259.5,-56.5 259.5,-86.5 383.5,-86.5 383.5,-56.5 259.5,-56.5"/>
<text text-anchor="start" x="267.5" y="-74.5" font-family="Helvetica,sans-Serif" font-size="10.00" fill="#000000">Asteroids/Domain/Game</text>
<text text-anchor="middle" x="321.5" y="-63.5" font-family="Helvetica,sans-Serif" font-size="10.00" fill="#000000">/GameInterface.h</text>
</a>
</g>
</g>
<!-- Node0&#45;&gt;Node2 -->
<g id="edge2" class="edge">
<title>Node0&#45;&gt;Node2</title>
<path fill="none" stroke="#191970" d="M206.75,-123.3906C226.0081,-114.682 254.9622,-101.5888 278.9671,-90.7336"/>
<polygon fill="#191970" stroke="#191970" points="280.5611,-93.8541 288.2307,-86.5446 277.6768,-87.4759 280.5611,-93.8541"/>
</g>
<!-- Node4 -->
<g id="node5" class="node">
<title>Node4</title>
<polygon fill="#ffffff" stroke="#bfbfbf" points="205.5,-.5 205.5,-19.5 257.5,-19.5 257.5,-.5 205.5,-.5"/>
<text text-anchor="middle" x="231.5" y="-7.5" font-family="Helvetica,sans-Serif" font-size="10.00" fill="#000000">memory</text>
</g>
<!-- Node0&#45;&gt;Node4 -->
<g id="edge8" class="edge">
<title>Node0&#45;&gt;Node4</title>
<path fill="none" stroke="#191970" d="M191.8465,-123.4996C197.6538,-114.4463 206.1349,-100.2669 211.5,-87 219.0833,-68.2477 224.5356,-45.7507 227.8133,-29.9308"/>
<polygon fill="#191970" stroke="#191970" points="231.3218,-30.2276 229.815,-19.7405 224.4531,-28.8783 231.3218,-30.2276"/>
</g>
<!-- Node5 -->
<g id="node6" class="node">
<title>Node5</title>
<g id="a_node6"><a xlink:href="GameFactoryInterface_8h.html" target="_top" xlink:title="Asteroids/Domain/Game\l/GameFactoryInterface.h">
<polygon fill="#ffffff" stroke="#000000" points="78,-56.5 78,-86.5 203,-86.5 203,-56.5 78,-56.5"/>
<text text-anchor="start" x="86" y="-74.5" font-family="Helvetica,sans-Serif" font-size="10.00" fill="#000000">Asteroids/Domain/Game</text>
<text text-anchor="middle" x="140.5" y="-63.5" font-family="Helvetica,sans-Serif" font-size="10.00" fill="#000000">/GameFactoryInterface.h</text>
</a>
</g>
</g>
<!-- Node0&#45;&gt;Node5 -->
<g id="edge5" class="edge">
<title>Node0&#45;&gt;Node5</title>
<path fill="none" stroke="#191970" d="M178.4688,-123.3906C172.8861,-115.761 164.8409,-104.7658 157.5918,-94.8588"/>
<polygon fill="#191970" stroke="#191970" points="160.238,-92.5481 151.5082,-86.5446 154.5888,-96.6817 160.238,-92.5481"/>
</g>
<!-- Node3 -->
<g id="node4" class="node">
<title>Node3</title>
<polygon fill="#ffffff" stroke="#bfbfbf" points="299.5,-.5 299.5,-19.5 343.5,-19.5 343.5,-.5 299.5,-.5"/>
<text text-anchor="middle" x="321.5" y="-7.5" font-family="Helvetica,sans-Serif" font-size="10.00" fill="#000000">vector</text>
</g>
<!-- Node2&#45;&gt;Node3 -->
<g id="edge3" class="edge">
<title>Node2&#45;&gt;Node3</title>
<path fill="none" stroke="#191970" d="M321.5,-56.2977C321.5,-48.3834 321.5,-38.6043 321.5,-30.0759"/>
<polygon fill="#191970" stroke="#191970" points="325.0001,-29.8469 321.5,-19.8469 318.0001,-29.847 325.0001,-29.8469"/>
</g>
<!-- Node2&#45;&gt;Node4 -->
<g id="edge4" class="edge">
<title>Node2&#45;&gt;Node4</title>
<path fill="none" stroke="#191970" d="M299.2528,-56.2977C285.5033,-46.9022 267.9079,-34.8787 254.0943,-25.4395"/>
<polygon fill="#191970" stroke="#191970" points="255.8725,-22.4155 245.6414,-19.6633 251.9232,-28.195 255.8725,-22.4155"/>
</g>
<!-- Node5&#45;&gt;Node1 -->
<g id="edge6" class="edge">
<title>Node5&#45;&gt;Node1</title>
<path fill="none" stroke="#191970" d="M125.4213,-56.2977C116.6011,-47.4052 105.4459,-36.1586 96.3388,-26.9769"/>
<polygon fill="#191970" stroke="#191970" points="98.794,-24.4821 89.2669,-19.8469 93.8241,-29.4116 98.794,-24.4821"/>
</g>
<!-- Node5&#45;&gt;Node4 -->
<g id="edge7" class="edge">
<title>Node5&#45;&gt;Node4</title>
<path fill="none" stroke="#191970" d="M162.9944,-56.2977C176.8967,-46.9022 194.6876,-34.8787 208.6546,-25.4395"/>
<polygon fill="#191970" stroke="#191970" points="210.876,-28.1626 217.2015,-19.6633 206.9564,-22.3629 210.876,-28.1626"/>
</g>
</g>
</svg>
