<?xml version="1.0" encoding="UTF-8" standalone="no"?>
<!DOCTYPE svg PUBLIC "-//W3C//DTD SVG 1.1//EN"
 "http://www.w3.org/Graphics/SVG/1.1/DTD/svg11.dtd">
<!-- Generated by graphviz version 2.40.1 (20161225.0304)
 -->
<!-- Title: Domain/Game/GameFactory.cpp Pages: 1 -->
<!--zoomable 218 -->
<svg id="main" version="1.1" xmlns="http://www.w3.org/2000/svg" xmlns:xlink="http://www.w3.org/1999/xlink" xml:space="preserve" onload="init(evt)">
<style type="text/css"><![CDATA[
.edge:hover path { stroke: red; }
.edge:hover polygon { stroke: red; fill: red; }
]]></style>
<script type="text/javascript"><![CDATA[
var edges = document.getElementsByTagName('g');
if (edges && edges.length) {
  for (var i=0;i<edges.length;i++) {
    if (edges[i].id.substr(0,4)=='edge') {
      edges[i].setAttribute('class','edge');
    }
  }
}
]]></script>
        <defs>
                <circle id="rim" cx="0" cy="0" r="7"/>
                <circle id="rim2" cx="0" cy="0" r="3.5"/>
                <g id="zoomPlus">
                        <use xlink:href="#rim" fill="#404040">
                                <set attributeName="fill" to="#808080" begin="zoomplus.mouseover" end="zoomplus.mouseout"/>
                        </use>
                        <path d="M-4,0h8M0,-4v8" fill="none" stroke="white" stroke-width="1.5" pointer-events="none"/>
                </g>
                <g id="zoomMin">
                        <use xlink:href="#rim" fill="#404040">
                                <set attributeName="fill" to="#808080" begin="zoomminus.mouseover" end="zoomminus.mouseout"/>
                        </use>
                        <path d="M-4,0h8" fill="none" stroke="white" stroke-width="1.5" pointer-events="none"/>
                </g>
                <g id="dirArrow">
                        <path fill="none" stroke="white" stroke-width="1.5" d="M0,-3.0v7 M-2.5,-0.5L0,-3.0L2.5,-0.5"/>
                </g>
               <g id="resetDef">
                       <use xlink:href="#rim2" fill="#404040">
                               <set attributeName="fill" to="#808080" begin="reset.mouseover" end="reset.mouseout"/>
                       </use>
               </g>
        </defs>

<script type="text/javascript">
var viewWidth = 673;
var viewHeight = 218;
var sectionId = 'dynsection-0';
</script>
<script xlink:href="svgpan.js"/>
<svg id="graph" class="graph">
<g id="viewport">
<title>Domain/Game/GameFactory.cpp</title>
<polygon fill="#ffffff" stroke="transparent" points="-4,4 -4,-214 669.1538,-214 669.1538,4 -4,4"/>
<!-- Node0 -->
<g id="node1" class="node">
<title>Node0</title>
<polygon fill="#bfbfbf" stroke="#000000" points="221.0783,-190.5 221.0783,-209.5 382.0783,-209.5 382.0783,-190.5 221.0783,-190.5"/>
<text text-anchor="middle" x="301.5783" y="-197.5" font-family="Helvetica,sans-Serif" font-size="10.00" fill="#000000">Domain/Game/GameFactory.cpp</text>
</g>
<!-- Node1 -->
<g id="node2" class="node">
<title>Node1</title>
<g id="a_node2"><a xlink:href="GameFactory_8h.html" target="_top" xlink:title="Asteroids/Domain/Game\l/GameFactory.h">
<polygon fill="#ffffff" stroke="#000000" points=".5783,-123.5 .5783,-153.5 124.5783,-153.5 124.5783,-123.5 .5783,-123.5"/>
<text text-anchor="start" x="8.5783" y="-141.5" font-family="Helvetica,sans-Serif" font-size="10.00" fill="#000000">Asteroids/Domain/Game</text>
<text text-anchor="middle" x="62.5783" y="-130.5" font-family="Helvetica,sans-Serif" font-size="10.00" fill="#000000">/GameFactory.h</text>
</a>
</g>
</g>
<!-- Node0&#45;&gt;Node1 -->
<g id="edge1" class="edge">
<title>Node0&#45;&gt;Node1</title>
<path fill="none" stroke="#191970" d="M264.4968,-190.4581C228.9781,-181.3183 174.5191,-167.3048 131.1056,-156.1336"/>
<polygon fill="#191970" stroke="#191970" points="131.7325,-152.681 121.1758,-153.5784 129.9881,-159.4601 131.7325,-152.681"/>
</g>
<!-- Node5 -->
<g id="node6" class="node">
<title>Node5</title>
<g id="a_node6"><a xlink:href="Game_8h.html" target="_top" xlink:title="Asteroids/Domain/Game\l/Game.h">
<polygon fill="#ffffff" stroke="#000000" points="142.5783,-123.5 142.5783,-153.5 266.5783,-153.5 266.5783,-123.5 142.5783,-123.5"/>
<text text-anchor="start" x="150.5783" y="-141.5" font-family="Helvetica,sans-Serif" font-size="10.00" fill="#000000">Asteroids/Domain/Game</text>
<text text-anchor="middle" x="204.5783" y="-130.5" font-family="Helvetica,sans-Serif" font-size="10.00" fill="#000000">/Game.h</text>
</a>
</g>
</g>
<!-- Node0&#45;&gt;Node5 -->
<g id="edge6" class="edge">
<title>Node0&#45;&gt;Node5</title>
<path fill="none" stroke="#191970" d="M286.4221,-190.3906C273.2943,-182.0673 253.8495,-169.7389 237.2069,-159.1872"/>
<polygon fill="#191970" stroke="#191970" points="238.6269,-155.9433 228.3072,-153.5446 234.8786,-161.8553 238.6269,-155.9433"/>
</g>
<!-- Node8 -->
<g id="node9" class="node">
<title>Node8</title>
<g id="a_node9"><a xlink:href="Randomer_8h.html" target="_top" xlink:title="Asteroids/Domain/Game\l/Randomer.h">
<polygon fill="#ffffff" stroke="#000000" points="312.5783,-123.5 312.5783,-153.5 436.5783,-153.5 436.5783,-123.5 312.5783,-123.5"/>
<text text-anchor="start" x="320.5783" y="-141.5" font-family="Helvetica,sans-Serif" font-size="10.00" fill="#000000">Asteroids/Domain/Game</text>
<text text-anchor="middle" x="374.5783" y="-130.5" font-family="Helvetica,sans-Serif" font-size="10.00" fill="#000000">/Randomer.h</text>
</a>
</g>
</g>
<!-- Node0&#45;&gt;Node8 -->
<g id="edge13" class="edge">
<title>Node0&#45;&gt;Node8</title>
<path fill="none" stroke="#191970" d="M312.9846,-190.3906C322.5898,-182.2986 336.6887,-170.4207 348.9744,-160.0705"/>
<polygon fill="#191970" stroke="#191970" points="351.3278,-162.6643 356.7205,-153.5446 346.8177,-157.3109 351.3278,-162.6643"/>
</g>
<!-- Node10 -->
<g id="node11" class="node">
<title>Node10</title>
<g id="a_node11"><a xlink:href="GameHistory_8h.html" target="_top" xlink:title="Asteroids/Domain/Game\l/GameHistory.h">
<polygon fill="#ffffff" stroke="#000000" points="493.5783,-123.5 493.5783,-153.5 617.5783,-153.5 617.5783,-123.5 493.5783,-123.5"/>
<text text-anchor="start" x="501.5783" y="-141.5" font-family="Helvetica,sans-Serif" font-size="10.00" fill="#000000">Asteroids/Domain/Game</text>
<text text-anchor="middle" x="555.5783" y="-130.5" font-family="Helvetica,sans-Serif" font-size="10.00" fill="#000000">/GameHistory.h</text>
</a>
</g>
</g>
<!-- Node0&#45;&gt;Node10 -->
<g id="edge16" class="edge">
<title>Node0&#45;&gt;Node10</title>
<path fill="none" stroke="#191970" d="M340.9872,-190.4581C378.894,-181.2799 437.0998,-167.1867 483.3324,-155.9926"/>
<polygon fill="#191970" stroke="#191970" points="484.4077,-159.3335 493.3032,-153.5784 482.7604,-152.5301 484.4077,-159.3335"/>
</g>
<!-- Node2 -->
<g id="node3" class="node">
<title>Node2</title>
<g id="a_node3"><a xlink:href="GameFactoryInterface_8h.html" target="_top" xlink:title="Asteroids/Domain/Game\l/GameFactoryInterface.h">
<polygon fill="#ffffff" stroke="#000000" points="26.0783,-56.5 26.0783,-86.5 151.0783,-86.5 151.0783,-56.5 26.0783,-56.5"/>
<text text-anchor="start" x="34.0783" y="-74.5" font-family="Helvetica,sans-Serif" font-size="10.00" fill="#000000">Asteroids/Domain/Game</text>
<text text-anchor="middle" x="88.5783" y="-63.5" font-family="Helvetica,sans-Serif" font-size="10.00" fill="#000000">/GameFactoryInterface.h</text>
</a>
</g>
</g>
<!-- Node1&#45;&gt;Node2 -->
<g id="edge2" class="edge">
<title>Node1&#45;&gt;Node2</title>
<path fill="none" stroke="#191970" d="M68.4781,-123.2967C71.603,-115.2443 75.5173,-105.1574 79.0594,-96.0296"/>
<polygon fill="#191970" stroke="#191970" points="82.347,-97.2321 82.7019,-86.6432 75.8211,-94.6996 82.347,-97.2321"/>
</g>
<!-- Node4 -->
<g id="node5" class="node">
<title>Node4</title>
<polygon fill="#ffffff" stroke="#bfbfbf" points="153.5783,-.5 153.5783,-19.5 205.5783,-19.5 205.5783,-.5 153.5783,-.5"/>
<text text-anchor="middle" x="179.5783" y="-7.5" font-family="Helvetica,sans-Serif" font-size="10.00" fill="#000000">memory</text>
</g>
<!-- Node1&#45;&gt;Node4 -->
<g id="edge5" class="edge">
<title>Node1&#45;&gt;Node4</title>
<path fill="none" stroke="#191970" d="M39.4484,-123.2652C16.7984,-106.4529 -11.9463,-78.7597 5.5783,-56 22.2467,-34.3524 97.3391,-20.8146 143.2563,-14.4086"/>
<polygon fill="#191970" stroke="#191970" points="143.9705,-17.8441 153.414,-13.041 143.0363,-10.9067 143.9705,-17.8441"/>
</g>
<!-- Node3 -->
<g id="node4" class="node">
<title>Node3</title>
<g id="a_node4"><a xlink:href="ForwardDeclarations_8h.html" target="_top" xlink:title="Asteroids/ForwardDeclarations.h">
<polygon fill="#ffffff" stroke="#000000" points="348.0783,-.5 348.0783,-19.5 507.0783,-19.5 507.0783,-.5 348.0783,-.5"/>
<text text-anchor="middle" x="427.5783" y="-7.5" font-family="Helvetica,sans-Serif" font-size="10.00" fill="#000000">Asteroids/ForwardDeclarations.h</text>
</a>
</g>
</g>
<!-- Node2&#45;&gt;Node3 -->
<g id="edge3" class="edge">
<title>Node2&#45;&gt;Node3</title>
<path fill="none" stroke="#191970" d="M151.168,-58.7656C156.0412,-57.8154 160.8882,-56.8837 165.5783,-56 231.9833,-43.4889 308.0701,-30.2522 361.0778,-21.2064"/>
<polygon fill="#191970" stroke="#191970" points="361.7602,-24.6407 371.0304,-19.511 360.5846,-17.7401 361.7602,-24.6407"/>
</g>
<!-- Node2&#45;&gt;Node4 -->
<g id="edge4" class="edge">
<title>Node2&#45;&gt;Node4</title>
<path fill="none" stroke="#191970" d="M111.0727,-56.2977C124.975,-46.9022 142.7659,-34.8787 156.733,-25.4395"/>
<polygon fill="#191970" stroke="#191970" points="158.9543,-28.1626 165.2798,-19.6633 155.0347,-22.3629 158.9543,-28.1626"/>
</g>
<!-- Node5&#45;&gt;Node2 -->
<g id="edge11" class="edge">
<title>Node5&#45;&gt;Node2</title>
<path fill="none" stroke="#191970" d="M178.5457,-123.4639C162.391,-114.1332 141.4245,-102.0232 123.7964,-91.8415"/>
<polygon fill="#191970" stroke="#191970" points="125.3354,-88.6885 114.9255,-86.7177 121.8343,-94.7501 125.3354,-88.6885"/>
</g>
<!-- Node5&#45;&gt;Node3 -->
<g id="edge7" class="edge">
<title>Node5&#45;&gt;Node3</title>
<path fill="none" stroke="#191970" d="M197.7644,-123.2183C190.8304,-105.07 183.1085,-74.8863 198.5783,-56 216.3344,-34.3225 281.659,-22.6441 338.0174,-16.4863"/>
<polygon fill="#191970" stroke="#191970" points="338.4781,-19.9573 348.0597,-15.4359 337.7498,-12.9953 338.4781,-19.9573"/>
</g>
<!-- Node5&#45;&gt;Node4 -->
<g id="edge12" class="edge">
<title>Node5&#45;&gt;Node4</title>
<path fill="none" stroke="#191970" d="M142.7624,-123.4661C89.5169,-110.2228 20.581,-92.2466 16.5783,-87 -19.0586,-40.2879 85.2239,-20.6784 143.3797,-13.5414"/>
<polygon fill="#191970" stroke="#191970" points="143.7864,-17.0178 153.3159,-12.3876 142.9789,-10.0645 143.7864,-17.0178"/>
</g>
<!-- Node6 -->
<g id="node7" class="node">
<title>Node6</title>
<g id="a_node7"><a xlink:href="GameInterface_8h.html" target="_top" xlink:title="Asteroids/Domain/Game\l/GameInterface.h">
<polygon fill="#ffffff" stroke="#000000" points="207.5783,-56.5 207.5783,-86.5 331.5783,-86.5 331.5783,-56.5 207.5783,-56.5"/>
<text text-anchor="start" x="215.5783" y="-74.5" font-family="Helvetica,sans-Serif" font-size="10.00" fill="#000000">Asteroids/Domain/Game</text>
<text text-anchor="middle" x="269.5783" y="-63.5" font-family="Helvetica,sans-Serif" font-size="10.00" fill="#000000">/GameInterface.h</text>
</a>
</g>
</g>
<!-- Node5&#45;&gt;Node6 -->
<g id="edge8" class="edge">
<title>Node5&#45;&gt;Node6</title>
<path fill="none" stroke="#191970" d="M219.3278,-123.2967C227.7216,-114.6446 238.3941,-103.6438 247.7426,-94.0076"/>
<polygon fill="#191970" stroke="#191970" points="250.4361,-96.2577 254.8872,-86.6432 245.412,-91.3835 250.4361,-96.2577"/>
</g>
<!-- Node6&#45;&gt;Node4 -->
<g id="edge10" class="edge">
<title>Node6&#45;&gt;Node4</title>
<path fill="none" stroke="#191970" d="M247.3311,-56.2977C233.5816,-46.9022 215.9863,-34.8787 202.1727,-25.4395"/>
<polygon fill="#191970" stroke="#191970" points="203.9509,-22.4155 193.7197,-19.6633 200.0015,-28.195 203.9509,-22.4155"/>
</g>
<!-- Node7 -->
<g id="node8" class="node">
<title>Node7</title>
<polygon fill="#ffffff" stroke="#bfbfbf" points="533.5783,-.5 533.5783,-19.5 577.5783,-19.5 577.5783,-.5 533.5783,-.5"/>
<text text-anchor="middle" x="555.5783" y="-7.5" font-family="Helvetica,sans-Serif" font-size="10.00" fill="#000000">vector</text>
</g>
<!-- Node6&#45;&gt;Node7 -->
<g id="edge9" class="edge">
<title>Node6&#45;&gt;Node7</title>
<path fill="none" stroke="#191970" d="M331.9064,-57.8445C334.8372,-57.2177 337.7393,-56.6002 340.5783,-56 418.6935,-39.4851 438.7737,-37.9208 516.5783,-20 518.8772,-19.4705 521.2478,-18.9068 523.6312,-18.3271"/>
<polygon fill="#191970" stroke="#191970" points="524.496,-21.7187 533.3506,-15.9009 522.8006,-14.9271 524.496,-21.7187"/>
</g>
<!-- Node8&#45;&gt;Node3 -->
<g id="edge14" class="edge">
<title>Node8&#45;&gt;Node3</title>
<path fill="none" stroke="#191970" d="M386.7892,-123.0749C394.0437,-113.2421 402.906,-99.9547 408.5783,-87 416.6665,-68.528 421.7188,-45.9906 424.5616,-30.0847"/>
<polygon fill="#191970" stroke="#191970" points="428.0792,-30.2641 426.253,-19.8278 421.1725,-29.1251 428.0792,-30.2641"/>
</g>
<!-- Node9 -->
<g id="node10" class="node">
<title>Node9</title>
<polygon fill="#ffffff" stroke="#bfbfbf" points="350.0783,-62 350.0783,-81 399.0783,-81 399.0783,-62 350.0783,-62"/>
<text text-anchor="middle" x="374.5783" y="-69" font-family="Helvetica,sans-Serif" font-size="10.00" fill="#000000">random</text>
</g>
<!-- Node8&#45;&gt;Node9 -->
<g id="edge15" class="edge">
<title>Node8&#45;&gt;Node9</title>
<path fill="none" stroke="#191970" d="M374.5783,-123.2967C374.5783,-113.7699 374.5783,-101.3954 374.5783,-91.1306"/>
<polygon fill="#191970" stroke="#191970" points="378.0784,-91.0549 374.5783,-81.055 371.0784,-91.055 378.0784,-91.0549"/>
</g>
<!-- Node10&#45;&gt;Node3 -->
<g id="edge17" class="edge">
<title>Node10&#45;&gt;Node3</title>
<path fill="none" stroke="#191970" d="M584.2203,-123.4422C611.514,-107.1273 645.8083,-80.1822 626.5783,-56 612.545,-38.3528 563.3478,-26.887 517.3853,-19.8161"/>
<polygon fill="#191970" stroke="#191970" points="517.7396,-16.3306 507.3351,-18.3299 516.7155,-23.2553 517.7396,-16.3306"/>
</g>
<!-- Node10&#45;&gt;Node4 -->
<g id="edge22" class="edge">
<title>Node10&#45;&gt;Node4</title>
<path fill="none" stroke="#191970" d="M533.7298,-123.3305C505.912,-104.7185 455.7791,-73.4883 408.5783,-56 342.9629,-31.6889 261.7577,-19.2517 215.7922,-13.7268"/>
<polygon fill="#191970" stroke="#191970" points="216.0526,-10.2337 205.7162,-12.5593 215.2468,-17.1872 216.0526,-10.2337"/>
</g>
<!-- Node10&#45;&gt;Node7 -->
<g id="edge23" class="edge">
<title>Node10&#45;&gt;Node7</title>
<path fill="none" stroke="#191970" d="M612.8052,-123.3888C630.9412,-115.6053 649.006,-104.0329 659.5783,-87 666.8443,-75.2939 667.0964,-67.5459 659.5783,-56 643.7421,-31.6794 611.8012,-20.122 587.4724,-14.6893"/>
<polygon fill="#191970" stroke="#191970" points="588.0725,-11.2401 577.581,-12.7166 586.7033,-18.1049 588.0725,-11.2401"/>
</g>
<!-- Node11 -->
<g id="node12" class="node">
<title>Node11</title>
<g id="a_node12"><a xlink:href="GameHistoryInterface_8h.html" target="_top" xlink:title="Asteroids/Domain/Game\l/GameHistoryInterface.h">
<polygon fill="#ffffff" stroke="#000000" points="493.5783,-56.5 493.5783,-86.5 617.5783,-86.5 617.5783,-56.5 493.5783,-56.5"/>
<text text-anchor="start" x="501.5783" y="-74.5" font-family="Helvetica,sans-Serif" font-size="10.00" fill="#000000">Asteroids/Domain/Game</text>
<text text-anchor="middle" x="555.5783" y="-63.5" font-family="Helvetica,sans-Serif" font-size="10.00" fill="#000000">/GameHistoryInterface.h</text>
</a>
</g>
</g>
<!-- Node10&#45;&gt;Node11 -->
<g id="edge18" class="edge">
<title>Node10&#45;&gt;Node11</title>
<path fill="none" stroke="#191970" d="M555.5783,-123.2967C555.5783,-115.5013 555.5783,-105.7991 555.5783,-96.9064"/>
<polygon fill="#191970" stroke="#191970" points="559.0784,-96.6431 555.5783,-86.6432 552.0784,-96.6432 559.0784,-96.6431"/>
</g>
<!-- Node11&#45;&gt;Node3 -->
<g id="edge19" class="edge">
<title>Node11&#45;&gt;Node3</title>
<path fill="none" stroke="#191970" d="M524.266,-56.4554C503.5646,-46.509 476.626,-33.5659 456.4431,-23.8686"/>
<polygon fill="#191970" stroke="#191970" points="457.9432,-20.7064 447.4138,-19.5303 454.9116,-27.0159 457.9432,-20.7064"/>
</g>
<!-- Node11&#45;&gt;Node4 -->
<g id="edge20" class="edge">
<title>Node11&#45;&gt;Node4</title>
<path fill="none" stroke="#191970" d="M493.4124,-58.563C488.7361,-57.669 484.0855,-56.8047 479.5783,-56 384.7962,-39.0786 272.4804,-22.8778 215.9485,-14.9898"/>
<polygon fill="#191970" stroke="#191970" points="216.1195,-11.48 205.7329,-13.5702 215.156,-18.4134 216.1195,-11.48"/>
</g>
<!-- Node11&#45;&gt;Node7 -->
<g id="edge21" class="edge">
<title>Node11&#45;&gt;Node7</title>
<path fill="none" stroke="#191970" d="M555.5783,-56.2977C555.5783,-48.3834 555.5783,-38.6043 555.5783,-30.0759"/>
<polygon fill="#191970" stroke="#191970" points="559.0784,-29.8469 555.5783,-19.8469 552.0784,-29.847 559.0784,-29.8469"/>
</g>
</g>
</svg>
        <g id="navigator" transform="translate(0 0)" fill="#404254">
                <rect fill="#f2f5e9" fill-opacity="0.5" stroke="#606060" stroke-width=".5" x="0" y="0" width="60" height="60"/>
                <use id="zoomplus" xlink:href="#zoomPlus" x="17" y="9" onmousedown="handleZoom(evt,'in')"/>
                <use id="zoomminus" xlink:href="#zoomMin" x="42" y="9" onmousedown="handleZoom(evt,'out')"/>
                <use id="reset" xlink:href="#resetDef" x="30" y="36" onmousedown="handleReset()"/>
                <g id="arrowUp" xlink:href="#dirArrow" transform="translate(30 24)" onmousedown="handlePan(0,-1)">
                  <use xlink:href="#rim" fill="#404040">
                        <set attributeName="fill" to="#808080" begin="arrowUp.mouseover" end="arrowUp.mouseout"/>
                  </use>
                  <path fill="none" stroke="white" stroke-width="1.5" d="M0,-3.0v7 M-2.5,-0.5L0,-3.0L2.5,-0.5"/>
                </g>
                <g id="arrowRight" xlink:href="#dirArrow" transform="rotate(90) translate(36 -43)" onmousedown="handlePan(1,0)">
                  <use xlink:href="#rim" fill="#404040">
                        <set attributeName="fill" to="#808080" begin="arrowRight.mouseover" end="arrowRight.mouseout"/>
                  </use>
                  <path fill="none" stroke="white" stroke-width="1.5" d="M0,-3.0v7 M-2.5,-0.5L0,-3.0L2.5,-0.5"/>
                </g>
                <g id="arrowDown" xlink:href="#dirArrow" transform="rotate(180) translate(-30 -48)" onmousedown="handlePan(0,1)">
                  <use xlink:href="#rim" fill="#404040">
                        <set attributeName="fill" to="#808080" begin="arrowDown.mouseover" end="arrowDown.mouseout"/>
                  </use>
                  <path fill="none" stroke="white" stroke-width="1.5" d="M0,-3.0v7 M-2.5,-0.5L0,-3.0L2.5,-0.5"/>
                </g>
                <g id="arrowLeft" xlink:href="#dirArrow" transform="rotate(270) translate(-36 17)" onmousedown="handlePan(-1,0)">
                  <use xlink:href="#rim" fill="#404040">
                        <set attributeName="fill" to="#808080" begin="arrowLeft.mouseover" end="arrowLeft.mouseout"/>
                  </use>
                  <path fill="none" stroke="white" stroke-width="1.5" d="M0,-3.0v7 M-2.5,-0.5L0,-3.0L2.5,-0.5"/>
                </g>
        </g>
        <svg viewBox="0 0 15 15" width="100%" height="30px" preserveAspectRatio="xMaxYMin meet">
         <g id="arrow_out" transform="scale(0.3 0.3)">
          <a xlink:href="GameFactory_8cpp__incl_org.svg" target="_base">
           <rect id="button" ry="5" rx="5" y="6" x="6" height="38" width="38"
                fill="#f2f5e9" fill-opacity="0.5" stroke="#606060" stroke-width="1.0"/>
           <path id="arrow"
             d="M 11.500037,31.436501 C 11.940474,20.09759 22.043105,11.32322 32.158766,21.979434 L 37.068811,17.246167 C 37.068811,17.246167 37.088388,32 37.088388,32 L 22.160133,31.978069 C 22.160133,31.978069 26.997745,27.140456 26.997745,27.140456 C 18.528582,18.264221 13.291696,25.230495 11.500037,31.436501 z"
             style="fill:#404040;"/>
          </a>
         </g>
        </svg>
</svg>
