<?xml version="1.0" encoding="UTF-8" standalone="no"?>
<!DOCTYPE svg PUBLIC "-//W3C//DTD SVG 1.1//EN"
 "http://www.w3.org/Graphics/SVG/1.1/DTD/svg11.dtd">
<!-- Generated by graphviz version 2.40.1 (20161225.0304)
 -->
<!-- Title: Domain/Server/HACCS_REPORT_ACTIVITY.h Pages: 1 -->
<svg width="282pt" height="106pt"
 viewBox="0.00 0.00 281.50 106.00" xmlns="http://www.w3.org/2000/svg" xmlns:xlink="http://www.w3.org/1999/xlink">
<g id="graph0" class="graph" transform="scale(1 1) rotate(0) translate(4 102)">
<title>Domain/Server/HACCS_REPORT_ACTIVITY.h</title>
<polygon fill="#ffffff" stroke="transparent" points="-4,4 -4,-102 277.5,-102 277.5,4 -4,4"/>
<!-- Node4 -->
<g id="node1" class="node">
<title>Node4</title>
<polygon fill="#bfbfbf" stroke="#000000" points="72,-67.5 72,-97.5 195,-97.5 195,-67.5 72,-67.5"/>
<text text-anchor="start" x="80" y="-85.5" font-family="Helvetica,sans-Serif" font-size="10.00" fill="#000000">Domain/Server/HACCS</text>
<text text-anchor="middle" x="133.5" y="-74.5" font-family="Helvetica,sans-Serif" font-size="10.00" fill="#000000">_REPORT_ACTIVITY.h</text>
</g>
<!-- Node5 -->
<g id="node2" class="node">
<title>Node5</title>
<g id="a_node2"><a xlink:href="HACCS__REPORT_8cpp.html" target="_top" xlink:title="Domain/Server/HACCS\l_REPORT.cpp">
<polygon fill="#ffffff" stroke="#000000" points="0,-.5 0,-30.5 121,-30.5 121,-.5 0,-.5"/>
<text text-anchor="start" x="8" y="-18.5" font-family="Helvetica,sans-Serif" font-size="10.00" fill="#000000">Domain/Server/HACCS</text>
<text text-anchor="middle" x="60.5" y="-7.5" font-family="Helvetica,sans-Serif" font-size="10.00" fill="#000000">_REPORT.cpp</text>
</a>
</g>
</g>
<!-- Node4&#45;&gt;Node5 -->
<g id="edge1" class="edge">
<title>Node4&#45;&gt;Node5</title>
<path fill="none" stroke="#191970" d="M109.526,-60.4965C98.8733,-50.7193 86.6007,-39.4554 76.9993,-30.6432"/>
<polygon fill="#191970" stroke="#191970" points="107.2011,-63.1134 116.9352,-67.2967 111.9344,-57.9562 107.2011,-63.1134"/>
</g>
<!-- Node6 -->
<g id="node3" class="node">
<title>Node6</title>
<g id="a_node3"><a xlink:href="HACCS__REPORT__ACTIVITY_8cpp.html" target="_top" xlink:title="Domain/Server/HACCS\l_REPORT_ACTIVITY.cpp">
<polygon fill="#ffffff" stroke="#000000" points="139.5,-.5 139.5,-30.5 273.5,-30.5 273.5,-.5 139.5,-.5"/>
<text text-anchor="start" x="147.5" y="-18.5" font-family="Helvetica,sans-Serif" font-size="10.00" fill="#000000">Domain/Server/HACCS</text>
<text text-anchor="middle" x="206.5" y="-7.5" font-family="Helvetica,sans-Serif" font-size="10.00" fill="#000000">_REPORT_ACTIVITY.cpp</text>
</a>
</g>
</g>
<!-- Node4&#45;&gt;Node6 -->
<g id="edge2" class="edge">
<title>Node4&#45;&gt;Node6</title>
<path fill="none" stroke="#191970" d="M157.474,-60.4965C168.1267,-50.7193 180.3993,-39.4554 190.0007,-30.6432"/>
<polygon fill="#191970" stroke="#191970" points="155.0656,-57.9562 150.0648,-67.2967 159.7989,-63.1134 155.0656,-57.9562"/>
</g>
</g>
</svg>
