<?xml version="1.0" encoding="UTF-8" standalone="no"?>
<!DOCTYPE svg PUBLIC "-//W3C//DTD SVG 1.1//EN"
 "http://www.w3.org/Graphics/SVG/1.1/DTD/svg11.dtd">
<!-- Generated by graphviz version 2.40.1 (20161225.0304)
 -->
<!-- Title: Domain/Server/HACCS_REPORT.cpp Pages: 1 -->
<!--zoomable 240 -->
<svg id="main" version="1.1" xmlns="http://www.w3.org/2000/svg" xmlns:xlink="http://www.w3.org/1999/xlink" xml:space="preserve" onload="init(evt)">
<style type="text/css"><![CDATA[
.edge:hover path { stroke: red; }
.edge:hover polygon { stroke: red; fill: red; }
]]></style>
<script type="text/javascript"><![CDATA[
var edges = document.getElementsByTagName('g');
if (edges && edges.length) {
  for (var i=0;i<edges.length;i++) {
    if (edges[i].id.substr(0,4)=='edge') {
      edges[i].setAttribute('class','edge');
    }
  }
}
]]></script>
        <defs>
                <circle id="rim" cx="0" cy="0" r="7"/>
                <circle id="rim2" cx="0" cy="0" r="3.5"/>
                <g id="zoomPlus">
                        <use xlink:href="#rim" fill="#404040">
                                <set attributeName="fill" to="#808080" begin="zoomplus.mouseover" end="zoomplus.mouseout"/>
                        </use>
                        <path d="M-4,0h8M0,-4v8" fill="none" stroke="white" stroke-width="1.5" pointer-events="none"/>
                </g>
                <g id="zoomMin">
                        <use xlink:href="#rim" fill="#404040">
                                <set attributeName="fill" to="#808080" begin="zoomminus.mouseover" end="zoomminus.mouseout"/>
                        </use>
                        <path d="M-4,0h8" fill="none" stroke="white" stroke-width="1.5" pointer-events="none"/>
                </g>
                <g id="dirArrow">
                        <path fill="none" stroke="white" stroke-width="1.5" d="M0,-3.0v7 M-2.5,-0.5L0,-3.0L2.5,-0.5"/>
                </g>
               <g id="resetDef">
                       <use xlink:href="#rim2" fill="#404040">
                               <set attributeName="fill" to="#808080" begin="reset.mouseover" end="reset.mouseout"/>
                       </use>
               </g>
        </defs>

<script type="text/javascript">
var viewWidth = 509;
var viewHeight = 240;
var sectionId = 'dynsection-0';
</script>
<script xlink:href="svgpan.js"/>
<svg id="graph" class="graph">
<g id="viewport">
<title>Domain/Server/HACCS_REPORT.cpp</title>
<polygon fill="#ffffff" stroke="transparent" points="-4,4 -4,-236 505.4266,-236 505.4266,4 -4,4"/>
<!-- Node0 -->
<g id="node1" class="node">
<title>Node0</title>
<polygon fill="#bfbfbf" stroke="#000000" points="123.9266,-201.5 123.9266,-231.5 244.9266,-231.5 244.9266,-201.5 123.9266,-201.5"/>
<text text-anchor="start" x="131.9266" y="-219.5" font-family="Helvetica,sans-Serif" font-size="10.00" fill="#000000">Domain/Server/HACCS</text>
<text text-anchor="middle" x="184.4266" y="-208.5" font-family="Helvetica,sans-Serif" font-size="10.00" fill="#000000">_REPORT.cpp</text>
</g>
<!-- Node1 -->
<g id="node2" class="node">
<title>Node1</title>
<g id="a_node2"><a xlink:href="HACCS__REPORT_8h.html" target="_top" xlink:title="Asteroids/Domain/Server\l/HACCS_REPORT.h">
<polygon fill="#ffffff" stroke="#000000" points="211.4266,-134.5 211.4266,-164.5 337.4266,-164.5 337.4266,-134.5 211.4266,-134.5"/>
<text text-anchor="start" x="219.4266" y="-152.5" font-family="Helvetica,sans-Serif" font-size="10.00" fill="#000000">Asteroids/Domain/Server</text>
<text text-anchor="middle" x="274.4266" y="-141.5" font-family="Helvetica,sans-Serif" font-size="10.00" fill="#000000">/HACCS_REPORT.h</text>
</a>
</g>
</g>
<!-- Node0&#45;&gt;Node1 -->
<g id="edge1" class="edge">
<title>Node0&#45;&gt;Node1</title>
<path fill="none" stroke="#191970" d="M204.849,-201.2967C216.9314,-192.302 232.4238,-180.7687 245.7214,-170.8694"/>
<polygon fill="#191970" stroke="#191970" points="248.1537,-173.4221 254.085,-164.6432 243.9737,-167.8072 248.1537,-173.4221"/>
</g>
<!-- Node7 -->
<g id="node8" class="node">
<title>Node7</title>
<g id="a_node8"><a xlink:href="HACCS__REPORT__ACTIVITY_8h.html" target="_top" xlink:title="Asteroids/Domain/Server\l/HACCS_REPORT_ACTIVITY.h">
<polygon fill="#ffffff" stroke="#000000" points="22.4266,-134.5 22.4266,-164.5 184.4266,-164.5 184.4266,-134.5 22.4266,-134.5"/>
<text text-anchor="start" x="30.4266" y="-152.5" font-family="Helvetica,sans-Serif" font-size="10.00" fill="#000000">Asteroids/Domain/Server</text>
<text text-anchor="middle" x="103.4266" y="-141.5" font-family="Helvetica,sans-Serif" font-size="10.00" fill="#000000">/HACCS_REPORT_ACTIVITY.h</text>
</a>
</g>
</g>
<!-- Node0&#45;&gt;Node7 -->
<g id="edge10" class="edge">
<title>Node0&#45;&gt;Node7</title>
<path fill="none" stroke="#191970" d="M166.0465,-201.2967C155.2758,-192.3876 141.4944,-180.9882 129.6037,-171.1527"/>
<polygon fill="#191970" stroke="#191970" points="131.6704,-168.32 121.734,-164.6432 127.2088,-173.7139 131.6704,-168.32"/>
</g>
<!-- Node2 -->
<g id="node3" class="node">
<title>Node2</title>
<g id="a_node3"><a xlink:href="ForwardDeclarations_8h.html" target="_top" xlink:title="Asteroids/ForwardDeclarations.h">
<polygon fill="#ffffff" stroke="#000000" points="29.9266,-.5 29.9266,-19.5 188.9266,-19.5 188.9266,-.5 29.9266,-.5"/>
<text text-anchor="middle" x="109.4266" y="-7.5" font-family="Helvetica,sans-Serif" font-size="10.00" fill="#000000">Asteroids/ForwardDeclarations.h</text>
</a>
</g>
</g>
<!-- Node1&#45;&gt;Node2 -->
<g id="edge2" class="edge">
<title>Node1&#45;&gt;Node2</title>
<path fill="none" stroke="#191970" d="M260.765,-134.3204C243.0065,-115.0111 210.5711,-81.155 179.4266,-56 165.3634,-44.6413 148.452,-33.4671 134.7748,-24.9767"/>
<polygon fill="#191970" stroke="#191970" points="136.2564,-21.7806 125.8973,-19.5582 132.6095,-27.7556 136.2564,-21.7806"/>
</g>
<!-- Node3 -->
<g id="node4" class="node">
<title>Node3</title>
<g id="a_node4"><a xlink:href="HACCS__REPORT__INTERFACE_8h.html" target="_top" xlink:title="Asteroids/Domain/Server\l/HACCS_REPORT_INTERFACE.h">
<polygon fill="#ffffff" stroke="#000000" points="302.4266,-62 302.4266,-92 476.4266,-92 476.4266,-62 302.4266,-62"/>
<text text-anchor="start" x="310.4266" y="-80" font-family="Helvetica,sans-Serif" font-size="10.00" fill="#000000">Asteroids/Domain/Server</text>
<text text-anchor="middle" x="389.4266" y="-69" font-family="Helvetica,sans-Serif" font-size="10.00" fill="#000000">/HACCS_REPORT_INTERFACE.h</text>
</a>
</g>
</g>
<!-- Node1&#45;&gt;Node3 -->
<g id="edge3" class="edge">
<title>Node1&#45;&gt;Node3</title>
<path fill="none" stroke="#191970" d="M298.2547,-134.478C315.2931,-123.7363 338.422,-109.1551 357.1204,-97.367"/>
<polygon fill="#191970" stroke="#191970" points="359.0364,-100.2966 365.6291,-92.0028 355.3032,-94.3751 359.0364,-100.2966"/>
</g>
<!-- Node4 -->
<g id="node5" class="node">
<title>Node4</title>
<polygon fill="#ffffff" stroke="#bfbfbf" points="237.9266,-.5 237.9266,-19.5 278.9266,-19.5 278.9266,-.5 237.9266,-.5"/>
<text text-anchor="middle" x="258.4266" y="-7.5" font-family="Helvetica,sans-Serif" font-size="10.00" fill="#000000">string</text>
</g>
<!-- Node1&#45;&gt;Node4 -->
<g id="edge8" class="edge">
<title>Node1&#45;&gt;Node4</title>
<path fill="none" stroke="#191970" d="M272.6839,-134.3055C269.7795,-108.9831 263.9498,-58.1556 260.7172,-29.9709"/>
<polygon fill="#191970" stroke="#191970" points="264.1601,-29.2726 259.5434,-19.7366 257.2057,-30.0703 264.1601,-29.2726"/>
</g>
<!-- Node5 -->
<g id="node6" class="node">
<title>Node5</title>
<polygon fill="#ffffff" stroke="#bfbfbf" points="457.4266,-.5 457.4266,-19.5 501.4266,-19.5 501.4266,-.5 457.4266,-.5"/>
<text text-anchor="middle" x="479.4266" y="-7.5" font-family="Helvetica,sans-Serif" font-size="10.00" fill="#000000">vector</text>
</g>
<!-- Node1&#45;&gt;Node5 -->
<g id="edge9" class="edge">
<title>Node1&#45;&gt;Node5</title>
<path fill="none" stroke="#191970" d="M337.5463,-142.6534C392.8829,-135.1956 467.2617,-121.1318 485.4266,-98 500.6682,-78.5909 494.3423,-48.7449 487.5631,-29.294"/>
<polygon fill="#191970" stroke="#191970" points="490.7298,-27.7762 483.8843,-19.6898 484.1929,-30.2801 490.7298,-27.7762"/>
</g>
<!-- Node3&#45;&gt;Node2 -->
<g id="edge4" class="edge">
<title>Node3&#45;&gt;Node2</title>
<path fill="none" stroke="#191970" d="M326.5891,-61.9639C275.9667,-49.8507 205.77,-33.0536 159.0405,-21.8719"/>
<polygon fill="#191970" stroke="#191970" points="159.6902,-18.4286 149.1502,-19.5053 158.0611,-25.2364 159.6902,-18.4286"/>
</g>
<!-- Node3&#45;&gt;Node4 -->
<g id="edge5" class="edge">
<title>Node3&#45;&gt;Node4</title>
<path fill="none" stroke="#191970" d="M360.0277,-61.9639C337.9485,-50.6715 307.9105,-35.3086 286.2283,-24.2192"/>
<polygon fill="#191970" stroke="#191970" points="287.7013,-21.0414 277.2044,-19.6039 284.5138,-27.2736 287.7013,-21.0414"/>
</g>
<!-- Node3&#45;&gt;Node5 -->
<g id="edge6" class="edge">
<title>Node3&#45;&gt;Node5</title>
<path fill="none" stroke="#191970" d="M409.849,-61.7967C424.2798,-51.0537 443.575,-36.6895 458.1854,-25.8129"/>
<polygon fill="#191970" stroke="#191970" points="460.6602,-28.3339 466.5916,-19.555 456.4802,-22.719 460.6602,-28.3339"/>
</g>
<!-- Node6 -->
<g id="node7" class="node">
<title>Node6</title>
<polygon fill="#ffffff" stroke="#bfbfbf" points="363.4266,-.5 363.4266,-19.5 415.4266,-19.5 415.4266,-.5 363.4266,-.5"/>
<text text-anchor="middle" x="389.4266" y="-7.5" font-family="Helvetica,sans-Serif" font-size="10.00" fill="#000000">memory</text>
</g>
<!-- Node3&#45;&gt;Node6 -->
<g id="edge7" class="edge">
<title>Node3&#45;&gt;Node6</title>
<path fill="none" stroke="#191970" d="M389.4266,-61.7967C389.4266,-52.2699 389.4266,-39.8954 389.4266,-29.6306"/>
<polygon fill="#191970" stroke="#191970" points="392.9267,-29.5549 389.4266,-19.555 385.9267,-29.555 392.9267,-29.5549"/>
</g>
<!-- Node7&#45;&gt;Node2 -->
<g id="edge11" class="edge">
<title>Node7&#45;&gt;Node2</title>
<path fill="none" stroke="#191970" d="M52.7664,-134.4444C35.2637,-126.5435 17.5262,-114.8792 7.4266,-98 -2.1579,-81.9818 -2.7025,-71.6795 7.4266,-56 17.6102,-40.2361 34.6341,-29.819 51.8851,-22.9582"/>
<polygon fill="#191970" stroke="#191970" points="53.2354,-26.1919 61.4504,-19.5012 50.8561,-19.6086 53.2354,-26.1919"/>
</g>
<!-- Node7&#45;&gt;Node4 -->
<g id="edge15" class="edge">
<title>Node7&#45;&gt;Node4</title>
<path fill="none" stroke="#191970" d="M128.8378,-134.4732C144.1613,-124.8905 163.6936,-111.7266 179.4266,-98 204.6682,-75.9774 229.8251,-46.2804 244.7518,-27.6373"/>
<polygon fill="#191970" stroke="#191970" points="247.5809,-29.7023 251.0337,-19.6859 242.0882,-25.3629 247.5809,-29.7023"/>
</g>
<!-- Node8 -->
<g id="node9" class="node">
<title>Node8</title>
<g id="a_node9"><a xlink:href="HACCS__REPORT__ACTIVITY__INTERFACE_8h.html" target="_top" xlink:title="Asteroids/Domain/Server\l/HACCS_REPORT_ACTIVITY\l_INTERFACE.h">
<polygon fill="#ffffff" stroke="#000000" points="16.4266,-56.5 16.4266,-97.5 170.4266,-97.5 170.4266,-56.5 16.4266,-56.5"/>
<text text-anchor="start" x="24.4266" y="-85.5" font-family="Helvetica,sans-Serif" font-size="10.00" fill="#000000">Asteroids/Domain/Server</text>
<text text-anchor="start" x="24.4266" y="-74.5" font-family="Helvetica,sans-Serif" font-size="10.00" fill="#000000">/HACCS_REPORT_ACTIVITY</text>
<text text-anchor="middle" x="93.4266" y="-63.5" font-family="Helvetica,sans-Serif" font-size="10.00" fill="#000000">_INTERFACE.h</text>
</a>
</g>
</g>
<!-- Node7&#45;&gt;Node8 -->
<g id="edge12" class="edge">
<title>Node7&#45;&gt;Node8</title>
<path fill="none" stroke="#191970" d="M101.3546,-134.478C100.2822,-126.7032 98.9324,-116.9168 97.652,-107.634"/>
<polygon fill="#191970" stroke="#191970" points="101.088,-106.9295 96.2544,-97.5015 94.1537,-107.886 101.088,-106.9295"/>
</g>
<!-- Node8&#45;&gt;Node2 -->
<g id="edge13" class="edge">
<title>Node8&#45;&gt;Node2</title>
<path fill="none" stroke="#191970" d="M98.4014,-56.168C100.417,-47.7278 102.7331,-38.0293 104.7205,-29.7068"/>
<polygon fill="#191970" stroke="#191970" points="108.1724,-30.32 107.091,-19.7805 101.3639,-28.694 108.1724,-30.32"/>
</g>
<!-- Node8&#45;&gt;Node4 -->
<g id="edge14" class="edge">
<title>Node8&#45;&gt;Node4</title>
<path fill="none" stroke="#191970" d="M144.2784,-56.3511C171.7856,-45.1815 204.8256,-31.7653 228.2647,-22.2476"/>
<polygon fill="#191970" stroke="#191970" points="229.7296,-25.4303 237.6781,-18.4252 227.096,-18.9446 229.7296,-25.4303"/>
</g>
</g>
</svg>
        <g id="navigator" transform="translate(0 0)" fill="#404254">
                <rect fill="#f2f5e9" fill-opacity="0.5" stroke="#606060" stroke-width=".5" x="0" y="0" width="60" height="60"/>
                <use id="zoomplus" xlink:href="#zoomPlus" x="17" y="9" onmousedown="handleZoom(evt,'in')"/>
                <use id="zoomminus" xlink:href="#zoomMin" x="42" y="9" onmousedown="handleZoom(evt,'out')"/>
                <use id="reset" xlink:href="#resetDef" x="30" y="36" onmousedown="handleReset()"/>
                <g id="arrowUp" xlink:href="#dirArrow" transform="translate(30 24)" onmousedown="handlePan(0,-1)">
                  <use xlink:href="#rim" fill="#404040">
                        <set attributeName="fill" to="#808080" begin="arrowUp.mouseover" end="arrowUp.mouseout"/>
                  </use>
                  <path fill="none" stroke="white" stroke-width="1.5" d="M0,-3.0v7 M-2.5,-0.5L0,-3.0L2.5,-0.5"/>
                </g>
                <g id="arrowRight" xlink:href="#dirArrow" transform="rotate(90) translate(36 -43)" onmousedown="handlePan(1,0)">
                  <use xlink:href="#rim" fill="#404040">
                        <set attributeName="fill" to="#808080" begin="arrowRight.mouseover" end="arrowRight.mouseout"/>
                  </use>
                  <path fill="none" stroke="white" stroke-width="1.5" d="M0,-3.0v7 M-2.5,-0.5L0,-3.0L2.5,-0.5"/>
                </g>
                <g id="arrowDown" xlink:href="#dirArrow" transform="rotate(180) translate(-30 -48)" onmousedown="handlePan(0,1)">
                  <use xlink:href="#rim" fill="#404040">
                        <set attributeName="fill" to="#808080" begin="arrowDown.mouseover" end="arrowDown.mouseout"/>
                  </use>
                  <path fill="none" stroke="white" stroke-width="1.5" d="M0,-3.0v7 M-2.5,-0.5L0,-3.0L2.5,-0.5"/>
                </g>
                <g id="arrowLeft" xlink:href="#dirArrow" transform="rotate(270) translate(-36 17)" onmousedown="handlePan(-1,0)">
                  <use xlink:href="#rim" fill="#404040">
                        <set attributeName="fill" to="#808080" begin="arrowLeft.mouseover" end="arrowLeft.mouseout"/>
                  </use>
                  <path fill="none" stroke="white" stroke-width="1.5" d="M0,-3.0v7 M-2.5,-0.5L0,-3.0L2.5,-0.5"/>
                </g>
        </g>
        <svg viewBox="0 0 15 15" width="100%" height="30px" preserveAspectRatio="xMaxYMin meet">
         <g id="arrow_out" transform="scale(0.3 0.3)">
          <a xlink:href="HACCS__REPORT_8cpp__incl_org.svg" target="_base">
           <rect id="button" ry="5" rx="5" y="6" x="6" height="38" width="38"
                fill="#f2f5e9" fill-opacity="0.5" stroke="#606060" stroke-width="1.0"/>
           <path id="arrow"
             d="M 11.500037,31.436501 C 11.940474,20.09759 22.043105,11.32322 32.158766,21.979434 L 37.068811,17.246167 C 37.068811,17.246167 37.088388,32 37.088388,32 L 22.160133,31.978069 C 22.160133,31.978069 26.997745,27.140456 26.997745,27.140456 C 18.528582,18.264221 13.291696,25.230495 11.500037,31.436501 z"
             style="fill:#404040;"/>
          </a>
         </g>
        </svg>
</svg>
