<?xml version="1.0" encoding="UTF-8" standalone="no"?>
<!DOCTYPE svg PUBLIC "-//W3C//DTD SVG 1.1//EN"
 "http://www.w3.org/Graphics/SVG/1.1/DTD/svg11.dtd">
<!-- Generated by graphviz version 2.40.1 (20161225.0304)
 -->
<!-- Title: Domain/Server/HACCS_REPORT_INTERFACE.h Pages: 1 -->
<svg width="648pt" height="173pt"
 viewBox="0.00 0.00 647.50 173.00" xmlns="http://www.w3.org/2000/svg" xmlns:xlink="http://www.w3.org/1999/xlink">
<g id="graph0" class="graph" transform="scale(1 1) rotate(0) translate(4 169)">
<title>Domain/Server/HACCS_REPORT_INTERFACE.h</title>
<polygon fill="#ffffff" stroke="transparent" points="-4,4 -4,-169 643.5,-169 643.5,4 -4,4"/>
<!-- Node5 -->
<g id="node1" class="node">
<title>Node5</title>
<polygon fill="#bfbfbf" stroke="#000000" points="246,-134.5 246,-164.5 381,-164.5 381,-134.5 246,-134.5"/>
<text text-anchor="start" x="254" y="-152.5" font-family="Helvetica,sans-Serif" font-size="10.00" fill="#000000">Domain/Server/HACCS</text>
<text text-anchor="middle" x="313.5" y="-141.5" font-family="Helvetica,sans-Serif" font-size="10.00" fill="#000000">_REPORT_INTERFACE.h</text>
</g>
<!-- Node6 -->
<g id="node2" class="node">
<title>Node6</title>
<g id="a_node2"><a xlink:href="HACCS__REPORT_8h.html" target="_top" xlink:title="Domain/Server/HACCS\l_REPORT.h">
<polygon fill="#ffffff" stroke="#000000" points="0,-67.5 0,-97.5 121,-97.5 121,-67.5 0,-67.5"/>
<text text-anchor="start" x="8" y="-85.5" font-family="Helvetica,sans-Serif" font-size="10.00" fill="#000000">Domain/Server/HACCS</text>
<text text-anchor="middle" x="60.5" y="-74.5" font-family="Helvetica,sans-Serif" font-size="10.00" fill="#000000">_REPORT.h</text>
</a>
</g>
</g>
<!-- Node5&#45;&gt;Node6 -->
<g id="edge1" class="edge">
<title>Node5&#45;&gt;Node6</title>
<path fill="none" stroke="#191970" d="M246.9927,-131.8874C206.7389,-121.2273 155.9378,-107.774 117.5258,-97.6017"/>
<polygon fill="#191970" stroke="#191970" points="246.1591,-135.2872 256.7219,-134.4639 247.9511,-128.5205 246.1591,-135.2872"/>
</g>
<!-- Node9 -->
<g id="node5" class="node">
<title>Node9</title>
<g id="a_node5"><a xlink:href="ServerDaemon_8cpp.html" target="_top" xlink:title="Domain/Server/ServerDaemon.cpp">
<polygon fill="#ffffff" stroke="#000000" points="139,-73 139,-92 308,-92 308,-73 139,-73"/>
<text text-anchor="middle" x="223.5" y="-80" font-family="Helvetica,sans-Serif" font-size="10.00" fill="#000000">Domain/Server/ServerDaemon.cpp</text>
</a>
</g>
</g>
<!-- Node5&#45;&gt;Node9 -->
<g id="edge4" class="edge">
<title>Node5&#45;&gt;Node9</title>
<path fill="none" stroke="#191970" d="M284.9038,-128.2117C268.5868,-116.0646 248.9362,-101.4358 236.335,-92.055"/>
<polygon fill="#191970" stroke="#191970" points="282.9662,-131.1327 293.0776,-134.2967 287.1463,-125.5177 282.9662,-131.1327"/>
</g>
<!-- Node10 -->
<g id="node6" class="node">
<title>Node10</title>
<g id="a_node6"><a xlink:href="ServerFactory_8h.html" target="_top" xlink:title="Domain/Server/ServerFactory.h">
<polygon fill="#ffffff" stroke="#000000" points="326,-73 326,-92 481,-92 481,-73 326,-73"/>
<text text-anchor="middle" x="403.5" y="-80" font-family="Helvetica,sans-Serif" font-size="10.00" fill="#000000">Domain/Server/ServerFactory.h</text>
</a>
</g>
</g>
<!-- Node5&#45;&gt;Node10 -->
<g id="edge5" class="edge">
<title>Node5&#45;&gt;Node10</title>
<path fill="none" stroke="#191970" d="M342.0962,-128.2117C358.4132,-116.0646 378.0638,-101.4358 390.665,-92.055"/>
<polygon fill="#191970" stroke="#191970" points="339.8537,-125.5177 333.9224,-134.2967 344.0338,-131.1327 339.8537,-125.5177"/>
</g>
<!-- Node12 -->
<g id="node8" class="node">
<title>Node12</title>
<g id="a_node8"><a xlink:href="ServerTextUI_8cpp.html" target="_top" xlink:title="UI/ServerTextUI/ServerText\lUI.cpp">
<polygon fill="#ffffff" stroke="#000000" points="499.5,-67.5 499.5,-97.5 639.5,-97.5 639.5,-67.5 499.5,-67.5"/>
<text text-anchor="start" x="507.5" y="-85.5" font-family="Helvetica,sans-Serif" font-size="10.00" fill="#000000">UI/ServerTextUI/ServerText</text>
<text text-anchor="middle" x="569.5" y="-74.5" font-family="Helvetica,sans-Serif" font-size="10.00" fill="#000000">UI.cpp</text>
</a>
</g>
</g>
<!-- Node5&#45;&gt;Node12 -->
<g id="edge8" class="edge">
<title>Node5&#45;&gt;Node12</title>
<path fill="none" stroke="#191970" d="M380.7959,-131.8874C421.527,-121.2273 472.9305,-107.774 511.798,-97.6017"/>
<polygon fill="#191970" stroke="#191970" points="379.7394,-128.546 370.9514,-134.4639 381.5118,-135.3179 379.7394,-128.546"/>
</g>
<!-- Node7 -->
<g id="node3" class="node">
<title>Node7</title>
<g id="a_node3"><a xlink:href="HACCS__REPORT_8cpp.html" target="_top" xlink:title="Domain/Server/HACCS\l_REPORT.cpp">
<polygon fill="#ffffff" stroke="#000000" points="0,-.5 0,-30.5 121,-30.5 121,-.5 0,-.5"/>
<text text-anchor="start" x="8" y="-18.5" font-family="Helvetica,sans-Serif" font-size="10.00" fill="#000000">Domain/Server/HACCS</text>
<text text-anchor="middle" x="60.5" y="-7.5" font-family="Helvetica,sans-Serif" font-size="10.00" fill="#000000">_REPORT.cpp</text>
</a>
</g>
</g>
<!-- Node6&#45;&gt;Node7 -->
<g id="edge2" class="edge">
<title>Node6&#45;&gt;Node7</title>
<path fill="none" stroke="#191970" d="M60.5,-57.0249C60.5,-48.128 60.5,-38.4287 60.5,-30.6432"/>
<polygon fill="#191970" stroke="#191970" points="57.0001,-57.2966 60.5,-67.2967 64.0001,-57.2967 57.0001,-57.2966"/>
</g>
<!-- Node8 -->
<g id="node4" class="node">
<title>Node8</title>
<g id="a_node4"><a xlink:href="ServerFactory_8cpp.html" target="_top" xlink:title="Domain/Server/ServerFactory.cpp">
<polygon fill="#ffffff" stroke="#000000" points="145,-6 145,-25 310,-25 310,-6 145,-6"/>
<text text-anchor="middle" x="227.5" y="-13" font-family="Helvetica,sans-Serif" font-size="10.00" fill="#000000">Domain/Server/ServerFactory.cpp</text>
</a>
</g>
</g>
<!-- Node6&#45;&gt;Node8 -->
<g id="edge3" class="edge">
<title>Node6&#45;&gt;Node8</title>
<path fill="none" stroke="#191970" d="M107.3924,-63.6869C138.6965,-51.1278 178.5594,-35.1349 203.5619,-25.1039"/>
<polygon fill="#191970" stroke="#191970" points="105.9558,-60.492 97.9781,-67.4639 108.5622,-66.9887 105.9558,-60.492"/>
</g>
<!-- Node10&#45;&gt;Node8 -->
<g id="edge7" class="edge">
<title>Node10&#45;&gt;Node8</title>
<path fill="none" stroke="#191970" d="M368.6905,-69.2487C334.4784,-56.2247 283.0999,-36.6659 252.6697,-25.0817"/>
<polygon fill="#191970" stroke="#191970" points="367.6925,-72.6137 378.2835,-72.9005 370.183,-66.0717 367.6925,-72.6137"/>
</g>
<!-- Node11 -->
<g id="node7" class="node">
<title>Node11</title>
<g id="a_node7"><a xlink:href="Factory_8cpp.html" target="_top" xlink:title="Domain/Factory/Factory.cpp">
<polygon fill="#ffffff" stroke="#000000" points="333,-6 333,-25 474,-25 474,-6 333,-6"/>
<text text-anchor="middle" x="403.5" y="-13" font-family="Helvetica,sans-Serif" font-size="10.00" fill="#000000">Domain/Factory/Factory.cpp</text>
</a>
</g>
</g>
<!-- Node10&#45;&gt;Node11 -->
<g id="edge6" class="edge">
<title>Node10&#45;&gt;Node11</title>
<path fill="none" stroke="#191970" d="M403.5,-62.6079C403.5,-50.214 403.5,-34.8263 403.5,-25.0817"/>
<polygon fill="#191970" stroke="#191970" points="400.0001,-62.9005 403.5,-72.9005 407.0001,-62.9006 400.0001,-62.9005"/>
</g>
</g>
</svg>
