<?xml version="1.0" encoding="UTF-8" standalone="no"?>
<!DOCTYPE svg PUBLIC "-//W3C//DTD SVG 1.1//EN"
 "http://www.w3.org/Graphics/SVG/1.1/DTD/svg11.dtd">
<!-- Generated by graphviz version 2.40.1 (20161225.0304)
 -->
<!-- Title: Graphical Class Hierarchy Pages: 1 -->
<svg width="617pt" height="137pt"
 viewBox="0.00 0.00 617.00 137.00" xmlns="http://www.w3.org/2000/svg" xmlns:xlink="http://www.w3.org/1999/xlink">
<g id="graph0" class="graph" transform="scale(1 1) rotate(0) translate(4 133)">
<title>Graphical Class Hierarchy</title>
<polygon fill="#ffffff" stroke="transparent" points="-4,4 -4,-133 613,-133 613,4 -4,4"/>
<!-- Node0 -->
<g id="node1" class="node">
<title>Node0</title>
<g id="a_node1"><a xlink:href="classAsteroids_1_1Domain_1_1Game_1_1Actors_1_1ActorInterface.html" target="_top" xlink:title="Main superclass for game board actors. ">
<polygon fill="#ffffff" stroke="#000000" points="0,-49.5 0,-79.5 145,-79.5 145,-49.5 0,-49.5"/>
<text text-anchor="start" x="8" y="-67.5" font-family="Helvetica,sans-Serif" font-size="10.00" fill="#000000">Asteroids::Domain::</text>
<text text-anchor="middle" x="72.5" y="-56.5" font-family="Helvetica,sans-Serif" font-size="10.00" fill="#000000">Game::Actors::ActorInterface</text>
</a>
</g>
</g>
<!-- Node1 -->
<g id="node2" class="node">
<title>Node1</title>
<g id="a_node2"><a xlink:href="classAsteroids_1_1Domain_1_1Game_1_1Actors_1_1Actor.html" target="_top" xlink:title="Implementation of ActorInterface. ">
<polygon fill="#ffffff" stroke="#000000" points="181,-49.5 181,-79.5 288,-79.5 288,-49.5 181,-49.5"/>
<text text-anchor="start" x="189" y="-67.5" font-family="Helvetica,sans-Serif" font-size="10.00" fill="#000000">Asteroids::Domain::</text>
<text text-anchor="middle" x="234.5" y="-56.5" font-family="Helvetica,sans-Serif" font-size="10.00" fill="#000000">Game::Actors::Actor</text>
</a>
</g>
</g>
<!-- Node0&#45;&gt;Node1 -->
<g id="edge1" class="edge">
<title>Node0&#45;&gt;Node1</title>
<path fill="none" stroke="#191970" d="M155.5382,-64.5C164.1452,-64.5 172.7215,-64.5 180.878,-64.5"/>
<polygon fill="#191970" stroke="#191970" points="155.4435,-61.0001 145.4435,-64.5 155.4435,-68.0001 155.4435,-61.0001"/>
</g>
<!-- Node2 -->
<g id="node3" class="node">
<title>Node2</title>
<g id="a_node3"><a xlink:href="classAsteroids_1_1Domain_1_1Game_1_1Actors_1_1Bullet.html" target="_top" xlink:title="A bullet is... a bullet... Can be shot by the player (eventually Alien too); Player&#39;s bullet kills ro...">
<polygon fill="#ffffff" stroke="#000000" points="330.5,-98.5 330.5,-128.5 438.5,-128.5 438.5,-98.5 330.5,-98.5"/>
<text text-anchor="start" x="338.5" y="-116.5" font-family="Helvetica,sans-Serif" font-size="10.00" fill="#000000">Asteroids::Domain::</text>
<text text-anchor="middle" x="384.5" y="-105.5" font-family="Helvetica,sans-Serif" font-size="10.00" fill="#000000">Game::Actors::Bullet</text>
</a>
</g>
</g>
<!-- Node1&#45;&gt;Node2 -->
<g id="edge2" class="edge">
<title>Node1&#45;&gt;Node2</title>
<path fill="none" stroke="#191970" d="M290.3951,-82.7591C306.2161,-87.9273 323.2523,-93.4924 338.4237,-98.4484"/>
<polygon fill="#191970" stroke="#191970" points="291.3214,-79.3797 280.7289,-79.6014 289.1477,-86.0337 291.3214,-79.3797"/>
</g>
<!-- Node3 -->
<g id="node4" class="node">
<title>Node3</title>
<g id="a_node4"><a xlink:href="classAsteroids_1_1Domain_1_1Game_1_1Actors_1_1GunShip.html" target="_top" xlink:title="GunShip is the player&#39;s main actor; Subclass of Actor; Flies around and shoots at stuff...">
<polygon fill="#ffffff" stroke="#000000" points="324,-49.5 324,-79.5 445,-79.5 445,-49.5 324,-49.5"/>
<text text-anchor="start" x="332" y="-67.5" font-family="Helvetica,sans-Serif" font-size="10.00" fill="#000000">Asteroids::Domain::</text>
<text text-anchor="middle" x="384.5" y="-56.5" font-family="Helvetica,sans-Serif" font-size="10.00" fill="#000000">Game::Actors::GunShip</text>
</a>
</g>
</g>
<!-- Node1&#45;&gt;Node3 -->
<g id="edge3" class="edge">
<title>Node1&#45;&gt;Node3</title>
<path fill="none" stroke="#191970" d="M298.3705,-64.5C306.7859,-64.5 315.3924,-64.5 323.7536,-64.5"/>
<polygon fill="#191970" stroke="#191970" points="298.2298,-61.0001 288.2298,-64.5 298.2297,-68.0001 298.2298,-61.0001"/>
</g>
<!-- Node4 -->
<g id="node5" class="node">
<title>Node4</title>
<g id="a_node5"><a xlink:href="classAsteroids_1_1Domain_1_1Game_1_1Actors_1_1Rock.html" target="_top" xlink:title="A rock is an actor that floats within the game; Can be shot by player; Can smash player. ">
<polygon fill="#ffffff" stroke="#000000" points="331,-.5 331,-30.5 438,-30.5 438,-.5 331,-.5"/>
<text text-anchor="start" x="339" y="-18.5" font-family="Helvetica,sans-Serif" font-size="10.00" fill="#000000">Asteroids::Domain::</text>
<text text-anchor="middle" x="384.5" y="-7.5" font-family="Helvetica,sans-Serif" font-size="10.00" fill="#000000">Game::Actors::Rock</text>
</a>
</g>
</g>
<!-- Node1&#45;&gt;Node4 -->
<g id="edge4" class="edge">
<title>Node1&#45;&gt;Node4</title>
<path fill="none" stroke="#191970" d="M290.3951,-46.2409C306.2161,-41.0727 323.2523,-35.5076 338.4237,-30.5516"/>
<polygon fill="#191970" stroke="#191970" points="289.1477,-42.9663 280.7289,-49.3986 291.3214,-49.6203 289.1477,-42.9663"/>
</g>
<!-- Node5 -->
<g id="node6" class="node">
<title>Node5</title>
<g id="a_node6"><a xlink:href="classAsteroids_1_1Domain_1_1Game_1_1Actors_1_1LongRock.html" target="_top" xlink:title="A long rock is an actor that floats within the game; Can be shot by player; Can smash player...">
<polygon fill="#ffffff" stroke="#000000" points="481,-.5 481,-30.5 609,-30.5 609,-.5 481,-.5"/>
<text text-anchor="start" x="489" y="-18.5" font-family="Helvetica,sans-Serif" font-size="10.00" fill="#000000">Asteroids::Domain::</text>
<text text-anchor="middle" x="545" y="-7.5" font-family="Helvetica,sans-Serif" font-size="10.00" fill="#000000">Game::Actors::LongRock</text>
</a>
</g>
</g>
<!-- Node4&#45;&gt;Node5 -->
<g id="edge5" class="edge">
<title>Node4&#45;&gt;Node5</title>
<path fill="none" stroke="#191970" d="M448.4912,-15.5C459.1819,-15.5 470.2744,-15.5 480.9662,-15.5"/>
<polygon fill="#191970" stroke="#191970" points="448.3907,-12.0001 438.3907,-15.5 448.3906,-19.0001 448.3907,-12.0001"/>
</g>
</g>
</svg>
