<?xml version="1.0" encoding="UTF-8" standalone="no"?>
<!DOCTYPE svg PUBLIC "-//W3C//DTD SVG 1.1//EN"
 "http://www.w3.org/Graphics/SVG/1.1/DTD/svg11.dtd">
<!-- Generated by graphviz version 2.40.1 (20161225.0304)
 -->
<!-- Title: Graphical Class Hierarchy Pages: 1 -->
<svg width="302pt" height="39pt"
 viewBox="0.00 0.00 302.00 39.00" xmlns="http://www.w3.org/2000/svg" xmlns:xlink="http://www.w3.org/1999/xlink">
<g id="graph0" class="graph" transform="scale(1 1) rotate(0) translate(4 35)">
<title>Graphical Class Hierarchy</title>
<polygon fill="#ffffff" stroke="transparent" points="-4,4 -4,-35 298,-35 298,4 -4,4"/>
<!-- Node0 -->
<g id="node1" class="node">
<title>Node0</title>
<g id="a_node1"><a xlink:href="classAsteroids_1_1UI_1_1ServerTextUI_1_1ServerTextUIInterface.html" target="_top" xlink:title="Main interface to the server&#39;s text user interface; Just runs. ">
<polygon fill="#ffffff" stroke="#000000" points="0,-.5 0,-30.5 130,-30.5 130,-.5 0,-.5"/>
<text text-anchor="start" x="8" y="-18.5" font-family="Helvetica,sans-Serif" font-size="10.00" fill="#000000">Asteroids::UI::ServerText</text>
<text text-anchor="middle" x="65" y="-7.5" font-family="Helvetica,sans-Serif" font-size="10.00" fill="#000000">UI::ServerTextUIInterface</text>
</a>
</g>
</g>
<!-- Node1 -->
<g id="node2" class="node">
<title>Node1</title>
<g id="a_node2"><a xlink:href="classAsteroids_1_1UI_1_1ServerTextUI_1_1ServerTextUI.html" target="_top" xlink:title="Implementation of ServerTextUIInterface. ">
<polygon fill="#ffffff" stroke="#000000" points="166,-.5 166,-30.5 294,-30.5 294,-.5 166,-.5"/>
<text text-anchor="start" x="174" y="-18.5" font-family="Helvetica,sans-Serif" font-size="10.00" fill="#000000">Asteroids::UI::ServerText</text>
<text text-anchor="middle" x="230" y="-7.5" font-family="Helvetica,sans-Serif" font-size="10.00" fill="#000000">UI::ServerTextUI</text>
</a>
</g>
</g>
<!-- Node0&#45;&gt;Node1 -->
<g id="edge1" class="edge">
<title>Node0&#45;&gt;Node1</title>
<path fill="none" stroke="#191970" d="M140.4651,-15.5C148.9308,-15.5 157.496,-15.5 165.8007,-15.5"/>
<polygon fill="#191970" stroke="#191970" points="140.2124,-12.0001 130.2124,-15.5 140.2123,-19.0001 140.2124,-12.0001"/>
</g>
</g>
</svg>
