<?xml version="1.0" encoding="UTF-8" standalone="no"?>
<!DOCTYPE svg PUBLIC "-//W3C//DTD SVG 1.1//EN"
 "http://www.w3.org/Graphics/SVG/1.1/DTD/svg11.dtd">
<!-- Generated by graphviz version 2.40.1 (20161225.0304)
 -->
<!-- Title: Graphical Class Hierarchy Pages: 1 -->
<svg width="353pt" height="50pt"
 viewBox="0.00 0.00 353.00 50.00" xmlns="http://www.w3.org/2000/svg" xmlns:xlink="http://www.w3.org/1999/xlink">
<g id="graph0" class="graph" transform="scale(1 1) rotate(0) translate(4 46)">
<title>Graphical Class Hierarchy</title>
<polygon fill="#ffffff" stroke="transparent" points="-4,4 -4,-46 349,-46 349,4 -4,4"/>
<!-- Node0 -->
<g id="node1" class="node">
<title>Node0</title>
<g id="a_node1"><a xlink:href="classAsteroids_1_1Domain_1_1Store_1_1POWERUP__ADDED__INFO__INTERFACE.html" target="_top" xlink:title="Information what powerup was just added to your account. ">
<polygon fill="#ffffff" stroke="#000000" points="0,-.5 0,-41.5 140,-41.5 140,-.5 0,-.5"/>
<text text-anchor="start" x="8" y="-29.5" font-family="Helvetica,sans-Serif" font-size="10.00" fill="#000000">Asteroids::Domain::</text>
<text text-anchor="start" x="8" y="-18.5" font-family="Helvetica,sans-Serif" font-size="10.00" fill="#000000">Store::POWERUP_ADDED</text>
<text text-anchor="middle" x="70" y="-7.5" font-family="Helvetica,sans-Serif" font-size="10.00" fill="#000000">_INFO_INTERFACE</text>
</a>
</g>
</g>
<!-- Node1 -->
<g id="node2" class="node">
<title>Node1</title>
<g id="a_node2"><a xlink:href="classAsteroids_1_1Domain_1_1Store_1_1POWERUP__ADDED__INFO.html" target="_top" xlink:title="Implementation of POWERUP_ADDED_INFO_INTERFACE. ">
<polygon fill="#ffffff" stroke="#000000" points="176,-6 176,-36 345,-36 345,-6 176,-6"/>
<text text-anchor="start" x="184" y="-24" font-family="Helvetica,sans-Serif" font-size="10.00" fill="#000000">Asteroids::Domain::</text>
<text text-anchor="middle" x="260.5" y="-13" font-family="Helvetica,sans-Serif" font-size="10.00" fill="#000000">Store::POWERUP_ADDED_INFO</text>
</a>
</g>
</g>
<!-- Node0&#45;&gt;Node1 -->
<g id="edge1" class="edge">
<title>Node0&#45;&gt;Node1</title>
<path fill="none" stroke="#191970" d="M150.3607,-21C158.8342,-21 167.4688,-21 175.9874,-21"/>
<polygon fill="#191970" stroke="#191970" points="150.1236,-17.5001 140.1236,-21 150.1236,-24.5001 150.1236,-17.5001"/>
</g>
</g>
</svg>
