<?xml version="1.0" encoding="UTF-8" standalone="no"?>
<!DOCTYPE svg PUBLIC "-//W3C//DTD SVG 1.1//EN"
 "http://www.w3.org/Graphics/SVG/1.1/DTD/svg11.dtd">
<!-- Generated by graphviz version 2.40.1 (20161225.0304)
 -->
<!-- Title: Graphical Class Hierarchy Pages: 1 -->
<svg width="394pt" height="50pt"
 viewBox="0.00 0.00 394.00 50.00" xmlns="http://www.w3.org/2000/svg" xmlns:xlink="http://www.w3.org/1999/xlink">
<g id="graph0" class="graph" transform="scale(1 1) rotate(0) translate(4 46)">
<title>Graphical Class Hierarchy</title>
<polygon fill="#ffffff" stroke="transparent" points="-4,4 -4,-46 390,-46 390,4 -4,4"/>
<!-- Node0 -->
<g id="node1" class="node">
<title>Node0</title>
<g id="a_node1"><a xlink:href="classAsteroids_1_1TechnicalServices_1_1Social_1_1FRIEND__ON__SOCIAL__MEDIA__INTERFACE.html" target="_top" xlink:title="Asteroids::TechnicalServices\l::Social::FRIEND_ON_SOCIAL\l_MEDIA_INTERFACE">
<polygon fill="#ffffff" stroke="#000000" points="0,-.5 0,-41.5 156,-41.5 156,-.5 0,-.5"/>
<text text-anchor="start" x="8" y="-29.5" font-family="Helvetica,sans-Serif" font-size="10.00" fill="#000000">Asteroids::TechnicalServices</text>
<text text-anchor="start" x="8" y="-18.5" font-family="Helvetica,sans-Serif" font-size="10.00" fill="#000000">::Social::FRIEND_ON_SOCIAL</text>
<text text-anchor="middle" x="78" y="-7.5" font-family="Helvetica,sans-Serif" font-size="10.00" fill="#000000">_MEDIA_INTERFACE</text>
</a>
</g>
</g>
<!-- Node1 -->
<g id="node2" class="node">
<title>Node1</title>
<g id="a_node2"><a xlink:href="classAsteroids_1_1TechnicalServices_1_1Social_1_1FRIEND__ON__SOCIAL__MEDIA.html" target="_top" xlink:title="Asteroids::TechnicalServices\l::Social::FRIEND_ON_SOCIAL_MEDIA">
<polygon fill="#ffffff" stroke="#000000" points="192,-6 192,-36 386,-36 386,-6 192,-6"/>
<text text-anchor="start" x="200" y="-24" font-family="Helvetica,sans-Serif" font-size="10.00" fill="#000000">Asteroids::TechnicalServices</text>
<text text-anchor="middle" x="289" y="-13" font-family="Helvetica,sans-Serif" font-size="10.00" fill="#000000">::Social::FRIEND_ON_SOCIAL_MEDIA</text>
</a>
</g>
</g>
<!-- Node0&#45;&gt;Node1 -->
<g id="edge1" class="edge">
<title>Node0&#45;&gt;Node1</title>
<path fill="none" stroke="#191970" d="M166.4411,-21C174.8533,-21 183.4141,-21 191.9019,-21"/>
<polygon fill="#191970" stroke="#191970" points="166.2688,-17.5001 156.2688,-21 166.2687,-24.5001 166.2688,-17.5001"/>
</g>
</g>
</svg>
