<?xml version="1.0" encoding="UTF-8" standalone="no"?>
<!DOCTYPE svg PUBLIC "-//W3C//DTD SVG 1.1//EN"
 "http://www.w3.org/Graphics/SVG/1.1/DTD/svg11.dtd">
<!-- Generated by graphviz version 2.40.1 (20161225.0304)
 -->
<!-- Title: Graphical Class Hierarchy Pages: 1 -->
<svg width="296pt" height="52pt"
 viewBox="0.00 0.00 296.00 51.50" xmlns="http://www.w3.org/2000/svg" xmlns:xlink="http://www.w3.org/1999/xlink">
<g id="graph0" class="graph" transform="scale(1 1) rotate(0) translate(4 47.5)">
<title>Graphical Class Hierarchy</title>
<polygon fill="#ffffff" stroke="transparent" points="-4,4 -4,-47.5 292,-47.5 292,4 -4,4"/>
<!-- Node71 -->
<g id="node1" class="node">
<title>Node71</title>
<g id="a_node1"><a xlink:href="classAsteroids_1_1Domain_1_1Factory_1_1FactoryInterface.html" target="_top" xlink:title="The main FactoryInterface is responsible for generating other factories of subpackages. ">
<polygon fill="#ffffff" stroke="#000000" points="0,-.5 0,-30.5 127,-30.5 127,-.5 0,-.5"/>
<text text-anchor="start" x="8" y="-18.5" font-family="Helvetica,sans-Serif" font-size="10.00" fill="#000000">Asteroids::Domain::</text>
<text text-anchor="middle" x="63.5" y="-7.5" font-family="Helvetica,sans-Serif" font-size="10.00" fill="#000000">Factory::FactoryInterface</text>
</a>
</g>
</g>
<!-- Node0 -->
<g id="node2" class="node">
<title>Node0</title>
<g id="a_node2"><a xlink:href="classAsteroids_1_1Domain_1_1Factory_1_1Factory.html" target="_top" xlink:title="Implementation of FactoryInterface. ">
<polygon fill="#ffffff" stroke="#bfbfbf" points="163,-6 163,-25 288,-25 288,-6 163,-6"/>
<text text-anchor="middle" x="225.5" y="-13" font-family="Helvetica,sans-Serif" font-size="10.00" fill="#000000">enable_shared_from_this</text>
</a>
</g>
</g>
<!-- Node71&#45;&gt;Node0 -->
<g id="edge1" class="edge">
<title>Node71&#45;&gt;Node0</title>
<path fill="none" stroke="#191970" d="M137.1082,-15.5C145.7306,-15.5 154.4657,-15.5 162.9182,-15.5"/>
<polygon fill="#191970" stroke="#191970" points="137.0618,-12.0001 127.0617,-15.5 137.0617,-19.0001 137.0618,-12.0001"/>
</g>
<!-- Node0&#45;&gt;Node0 -->
<g id="edge2" class="edge">
<title>Node0&#45;&gt;Node0</title>
<path fill="none" stroke="#191970" d="M195.1856,-33.7746C196.0499,-39.241 206.1547,-43.5 225.5,-43.5 254.293,-43.5 262.6159,-34.0653 250.4689,-25.2571"/>
<polygon fill="#191970" stroke="#191970" points="198.1799,-35.5877 200.5311,-25.2571 192.2508,-31.8667 198.1799,-35.5877"/>
</g>
</g>
</svg>
