<?xml version="1.0" encoding="UTF-8" standalone="no"?>
<!DOCTYPE svg PUBLIC "-//W3C//DTD SVG 1.1//EN"
 "http://www.w3.org/Graphics/SVG/1.1/DTD/svg11.dtd">
<!-- Generated by graphviz version 2.40.1 (20161225.0304)
 -->
<!-- Title: Graphical Class Hierarchy Pages: 1 -->
<svg width="310pt" height="39pt"
 viewBox="0.00 0.00 310.00 39.00" xmlns="http://www.w3.org/2000/svg" xmlns:xlink="http://www.w3.org/1999/xlink">
<g id="graph0" class="graph" transform="scale(1 1) rotate(0) translate(4 35)">
<title>Graphical Class Hierarchy</title>
<polygon fill="#ffffff" stroke="transparent" points="-4,4 -4,-35 306,-35 306,4 -4,4"/>
<!-- Node0 -->
<g id="node1" class="node">
<title>Node0</title>
<g id="a_node1"><a xlink:href="classAsteroids_1_1Domain_1_1Server_1_1ServerUpdaterInterface.html" target="_top" xlink:title="Interface for updating the server. ">
<polygon fill="#ffffff" stroke="#000000" points="0,-.5 0,-30.5 152,-30.5 152,-.5 0,-.5"/>
<text text-anchor="start" x="8" y="-18.5" font-family="Helvetica,sans-Serif" font-size="10.00" fill="#000000">Asteroids::Domain::</text>
<text text-anchor="middle" x="76" y="-7.5" font-family="Helvetica,sans-Serif" font-size="10.00" fill="#000000">Server::ServerUpdaterInterface</text>
</a>
</g>
</g>
<!-- Node1 -->
<g id="node2" class="node">
<title>Node1</title>
<g id="a_node2"><a xlink:href="classAsteroids_1_1Domain_1_1Server_1_1ServerUpdater.html" target="_top" xlink:title="Implements ServerUpdaterInterface. ">
<polygon fill="#ffffff" stroke="#000000" points="188,-.5 188,-30.5 302,-30.5 302,-.5 188,-.5"/>
<text text-anchor="start" x="196" y="-18.5" font-family="Helvetica,sans-Serif" font-size="10.00" fill="#000000">Asteroids::Domain::</text>
<text text-anchor="middle" x="245" y="-7.5" font-family="Helvetica,sans-Serif" font-size="10.00" fill="#000000">Server::ServerUpdater</text>
</a>
</g>
</g>
<!-- Node0&#45;&gt;Node1 -->
<g id="edge1" class="edge">
<title>Node0&#45;&gt;Node1</title>
<path fill="none" stroke="#191970" d="M162.2551,-15.5C170.9186,-15.5 179.5575,-15.5 187.8073,-15.5"/>
<polygon fill="#191970" stroke="#191970" points="162.0954,-12.0001 152.0954,-15.5 162.0953,-19.0001 162.0954,-12.0001"/>
</g>
</g>
</svg>
