<?xml version="1.0" encoding="UTF-8" standalone="no"?>
<!DOCTYPE svg PUBLIC "-//W3C//DTD SVG 1.1//EN"
 "http://www.w3.org/Graphics/SVG/1.1/DTD/svg11.dtd">
<!-- Generated by graphviz version 2.40.1 (20161225.0304)
 -->
<!-- Title: Graphical Class Hierarchy Pages: 1 -->
<svg width="364pt" height="88pt"
 viewBox="0.00 0.00 364.00 88.00" xmlns="http://www.w3.org/2000/svg" xmlns:xlink="http://www.w3.org/1999/xlink">
<g id="graph0" class="graph" transform="scale(1 1) rotate(0) translate(4 84)">
<title>Graphical Class Hierarchy</title>
<polygon fill="#ffffff" stroke="transparent" points="-4,4 -4,-84 360,-84 360,4 -4,4"/>
<!-- Node0 -->
<g id="node1" class="node">
<title>Node0</title>
<g id="a_node1"><a xlink:href="classAsteroids_1_1TechnicalServices_1_1Financial_1_1CreditCardProcessorInterface.html" target="_top" xlink:title="Asteroids::TechnicalServices\l::Financial::CreditCardProcessor\lInterface">
<polygon fill="#ffffff" stroke="#000000" points="0,-19 0,-60 159,-60 159,-19 0,-19"/>
<text text-anchor="start" x="8" y="-48" font-family="Helvetica,sans-Serif" font-size="10.00" fill="#000000">Asteroids::TechnicalServices</text>
<text text-anchor="start" x="8" y="-37" font-family="Helvetica,sans-Serif" font-size="10.00" fill="#000000">::Financial::CreditCardProcessor</text>
<text text-anchor="middle" x="79.5" y="-26" font-family="Helvetica,sans-Serif" font-size="10.00" fill="#000000">Interface</text>
</a>
</g>
</g>
<!-- Node1 -->
<g id="node2" class="node">
<title>Node1</title>
<g id="a_node2"><a xlink:href="classAsteroids_1_1TechnicalServices_1_1Financial_1_1MastercardProcessor.html" target="_top" xlink:title="Asteroids::TechnicalServices\l::Financial::MastercardProcessor">
<polygon fill="#ffffff" stroke="#000000" points="195,-49.5 195,-79.5 356,-79.5 356,-49.5 195,-49.5"/>
<text text-anchor="start" x="203" y="-67.5" font-family="Helvetica,sans-Serif" font-size="10.00" fill="#000000">Asteroids::TechnicalServices</text>
<text text-anchor="middle" x="275.5" y="-56.5" font-family="Helvetica,sans-Serif" font-size="10.00" fill="#000000">::Financial::MastercardProcessor</text>
</a>
</g>
</g>
<!-- Node0&#45;&gt;Node1 -->
<g id="edge1" class="edge">
<title>Node0&#45;&gt;Node1</title>
<path fill="none" stroke="#191970" d="M169.2174,-50.9435C177.7798,-52.0357 186.4271,-53.1387 194.8954,-54.2188"/>
<polygon fill="#191970" stroke="#191970" points="169.5832,-47.4619 159.2207,-49.6685 168.6975,-54.4057 169.5832,-47.4619"/>
</g>
<!-- Node2 -->
<g id="node3" class="node">
<title>Node2</title>
<g id="a_node3"><a xlink:href="classAsteroids_1_1TechnicalServices_1_1Financial_1_1VisaProcessor.html" target="_top" xlink:title="Asteroids::TechnicalServices\l::Financial::VisaProcessor">
<polygon fill="#ffffff" stroke="#000000" points="203.5,-.5 203.5,-30.5 347.5,-30.5 347.5,-.5 203.5,-.5"/>
<text text-anchor="start" x="211.5" y="-18.5" font-family="Helvetica,sans-Serif" font-size="10.00" fill="#000000">Asteroids::TechnicalServices</text>
<text text-anchor="middle" x="275.5" y="-7.5" font-family="Helvetica,sans-Serif" font-size="10.00" fill="#000000">::Financial::VisaProcessor</text>
</a>
</g>
</g>
<!-- Node0&#45;&gt;Node2 -->
<g id="edge2" class="edge">
<title>Node0&#45;&gt;Node2</title>
<path fill="none" stroke="#191970" d="M169.2325,-28.5123C180.6877,-27.1097 192.2947,-25.6884 203.4213,-24.326"/>
<polygon fill="#191970" stroke="#191970" points="168.7211,-25.0487 159.2207,-29.7383 169.572,-31.9968 168.7211,-25.0487"/>
</g>
</g>
</svg>
