<?xml version="1.0" encoding="UTF-8" standalone="no"?>
<!DOCTYPE svg PUBLIC "-//W3C//DTD SVG 1.1//EN"
 "http://www.w3.org/Graphics/SVG/1.1/DTD/svg11.dtd">
<!-- Generated by graphviz version 2.40.1 (20161225.0304)
 -->
<!-- Title: Graphical Class Hierarchy Pages: 1 -->
<svg width="380pt" height="50pt"
 viewBox="0.00 0.00 380.00 50.00" xmlns="http://www.w3.org/2000/svg" xmlns:xlink="http://www.w3.org/1999/xlink">
<g id="graph0" class="graph" transform="scale(1 1) rotate(0) translate(4 46)">
<title>Graphical Class Hierarchy</title>
<polygon fill="#ffffff" stroke="transparent" points="-4,4 -4,-46 376,-46 376,4 -4,4"/>
<!-- Node0 -->
<g id="node1" class="node">
<title>Node0</title>
<g id="a_node1"><a xlink:href="classAsteroids_1_1Domain_1_1Game_1_1GAME__HISTORY__ENTRY__INTERFACE.html" target="_top" xlink:title="Holds one entry of gameplay historical data. ">
<polygon fill="#ffffff" stroke="#000000" points="0,-.5 0,-41.5 168,-41.5 168,-.5 0,-.5"/>
<text text-anchor="start" x="8" y="-29.5" font-family="Helvetica,sans-Serif" font-size="10.00" fill="#000000">Asteroids::Domain::</text>
<text text-anchor="start" x="8" y="-18.5" font-family="Helvetica,sans-Serif" font-size="10.00" fill="#000000">Game::GAME_HISTORY_ENTRY</text>
<text text-anchor="middle" x="84" y="-7.5" font-family="Helvetica,sans-Serif" font-size="10.00" fill="#000000">_INTERFACE</text>
</a>
</g>
</g>
<!-- Node1 -->
<g id="node2" class="node">
<title>Node1</title>
<g id="a_node2"><a xlink:href="classAsteroids_1_1Domain_1_1Game_1_1GAME__HISTORY__ENTRY.html" target="_top" xlink:title="Implements GAME_HISTORY_ENTRY_INTERFACE. ">
<polygon fill="#ffffff" stroke="#000000" points="204,-6 204,-36 372,-36 372,-6 204,-6"/>
<text text-anchor="start" x="212" y="-24" font-family="Helvetica,sans-Serif" font-size="10.00" fill="#000000">Asteroids::Domain::</text>
<text text-anchor="middle" x="288" y="-13" font-family="Helvetica,sans-Serif" font-size="10.00" fill="#000000">Game::GAME_HISTORY_ENTRY</text>
</a>
</g>
</g>
<!-- Node0&#45;&gt;Node1 -->
<g id="edge1" class="edge">
<title>Node0&#45;&gt;Node1</title>
<path fill="none" stroke="#191970" d="M178.4024,-21C186.8467,-21 195.3609,-21 203.7117,-21"/>
<polygon fill="#191970" stroke="#191970" points="178.1524,-17.5001 168.1524,-21 178.1524,-24.5001 178.1524,-17.5001"/>
</g>
</g>
</svg>
