<?xml version="1.0" encoding="UTF-8" standalone="no"?>
<!DOCTYPE svg PUBLIC "-//W3C//DTD SVG 1.1//EN"
 "http://www.w3.org/Graphics/SVG/1.1/DTD/svg11.dtd">
<!-- Generated by graphviz version 2.40.1 (20161225.0304)
 -->
<!-- Title: UI/ClientTextUI/Input.cpp Pages: 1 -->
<svg width="138pt" height="151pt"
 viewBox="0.00 0.00 138.00 151.00" xmlns="http://www.w3.org/2000/svg" xmlns:xlink="http://www.w3.org/1999/xlink">
<g id="graph0" class="graph" transform="scale(1 1) rotate(0) translate(4 147)">
<title>UI/ClientTextUI/Input.cpp</title>
<polygon fill="#ffffff" stroke="transparent" points="-4,4 -4,-147 134,-147 134,4 -4,4"/>
<!-- Node0 -->
<g id="node1" class="node">
<title>Node0</title>
<polygon fill="#bfbfbf" stroke="#000000" points=".5,-123.5 .5,-142.5 129.5,-142.5 129.5,-123.5 .5,-123.5"/>
<text text-anchor="middle" x="65" y="-130.5" font-family="Helvetica,sans-Serif" font-size="10.00" fill="#000000">UI/ClientTextUI/Input.cpp</text>
</g>
<!-- Node1 -->
<g id="node2" class="node">
<title>Node1</title>
<g id="a_node2"><a xlink:href="Input_8h.html" target="_top" xlink:title="Asteroids/UI/ClientTextUI\l/Input.h">
<polygon fill="#ffffff" stroke="#000000" points="0,-56.5 0,-86.5 130,-86.5 130,-56.5 0,-56.5"/>
<text text-anchor="start" x="8" y="-74.5" font-family="Helvetica,sans-Serif" font-size="10.00" fill="#000000">Asteroids/UI/ClientTextUI</text>
<text text-anchor="middle" x="65" y="-63.5" font-family="Helvetica,sans-Serif" font-size="10.00" fill="#000000">/Input.h</text>
</a>
</g>
</g>
<!-- Node0&#45;&gt;Node1 -->
<g id="edge1" class="edge">
<title>Node0&#45;&gt;Node1</title>
<path fill="none" stroke="#191970" d="M65,-123.3906C65,-116.2234 65,-106.0862 65,-96.671"/>
<polygon fill="#191970" stroke="#191970" points="68.5001,-96.5446 65,-86.5446 61.5001,-96.5446 68.5001,-96.5446"/>
</g>
<!-- Node2 -->
<g id="node3" class="node">
<title>Node2</title>
<polygon fill="#ffffff" stroke="#bfbfbf" points="11,-.5 11,-19.5 55,-19.5 55,-.5 11,-.5"/>
<text text-anchor="middle" x="33" y="-7.5" font-family="Helvetica,sans-Serif" font-size="10.00" fill="#000000">vector</text>
</g>
<!-- Node1&#45;&gt;Node2 -->
<g id="edge2" class="edge">
<title>Node1&#45;&gt;Node2</title>
<path fill="none" stroke="#191970" d="M57.0899,-56.2977C52.7868,-48.0277 47.4242,-37.7215 42.8518,-28.9339"/>
<polygon fill="#191970" stroke="#191970" points="45.8443,-27.1024 38.1236,-19.8469 39.6346,-30.3335 45.8443,-27.1024"/>
</g>
<!-- Node3 -->
<g id="node4" class="node">
<title>Node3</title>
<polygon fill="#ffffff" stroke="#bfbfbf" points="73,-.5 73,-19.5 121,-19.5 121,-.5 73,-.5"/>
<text text-anchor="middle" x="97" y="-7.5" font-family="Helvetica,sans-Serif" font-size="10.00" fill="#000000">conio.h</text>
</g>
<!-- Node1&#45;&gt;Node3 -->
<g id="edge3" class="edge">
<title>Node1&#45;&gt;Node3</title>
<path fill="none" stroke="#191970" d="M72.9101,-56.2977C77.2132,-48.0277 82.5758,-37.7215 87.1482,-28.9339"/>
<polygon fill="#191970" stroke="#191970" points="90.3654,-30.3335 91.8764,-19.8469 84.1557,-27.1024 90.3654,-30.3335"/>
</g>
</g>
</svg>
