<?xml version="1.0" encoding="UTF-8" standalone="no"?>
<!DOCTYPE svg PUBLIC "-//W3C//DTD SVG 1.1//EN"
 "http://www.w3.org/Graphics/SVG/1.1/DTD/svg11.dtd">
<!-- Generated by graphviz version 2.40.1 (20161225.0304)
 -->
<!-- Title: UI/ClientTextUI/Input.h Pages: 1 -->
<svg width="403pt" height="151pt"
 viewBox="0.00 0.00 402.50 151.00" xmlns="http://www.w3.org/2000/svg" xmlns:xlink="http://www.w3.org/1999/xlink">
<g id="graph0" class="graph" transform="scale(1 1) rotate(0) translate(4 147)">
<title>UI/ClientTextUI/Input.h</title>
<polygon fill="#ffffff" stroke="transparent" points="-4,4 -4,-147 398.5,-147 398.5,4 -4,4"/>
<!-- Node3 -->
<g id="node1" class="node">
<title>Node3</title>
<polygon fill="#bfbfbf" stroke="#000000" points="111.5,-123.5 111.5,-142.5 230.5,-142.5 230.5,-123.5 111.5,-123.5"/>
<text text-anchor="middle" x="171" y="-130.5" font-family="Helvetica,sans-Serif" font-size="10.00" fill="#000000">UI/ClientTextUI/Input.h</text>
</g>
<!-- Node4 -->
<g id="node2" class="node">
<title>Node4</title>
<g id="a_node2"><a xlink:href="ClientTextUI_8cpp.html" target="_top" xlink:title="UI/ClientTextUI/ClientText\lUI.cpp">
<polygon fill="#ffffff" stroke="#000000" points="0,-.5 0,-30.5 134,-30.5 134,-.5 0,-.5"/>
<text text-anchor="start" x="8" y="-18.5" font-family="Helvetica,sans-Serif" font-size="10.00" fill="#000000">UI/ClientTextUI/ClientText</text>
<text text-anchor="middle" x="67" y="-7.5" font-family="Helvetica,sans-Serif" font-size="10.00" fill="#000000">UI.cpp</text>
</a>
</g>
</g>
<!-- Node3&#45;&gt;Node4 -->
<g id="edge1" class="edge">
<title>Node3&#45;&gt;Node4</title>
<path fill="none" stroke="#191970" d="M131.2541,-119.5615C115.0933,-112.2561 97.5442,-101.6542 86,-87 73.124,-70.6552 68.9356,-46.3645 67.5958,-30.7297"/>
<polygon fill="#191970" stroke="#191970" points="129.9791,-122.8223 140.553,-123.4876 132.7019,-116.3735 129.9791,-122.8223"/>
</g>
<!-- Node5 -->
<g id="node3" class="node">
<title>Node5</title>
<g id="a_node3"><a xlink:href="ClientTextUI_8h.html" target="_top" xlink:title="UI/ClientTextUI/ClientTextUI.h">
<polygon fill="#ffffff" stroke="#000000" points="95,-67.5 95,-86.5 247,-86.5 247,-67.5 95,-67.5"/>
<text text-anchor="middle" x="171" y="-74.5" font-family="Helvetica,sans-Serif" font-size="10.00" fill="#000000">UI/ClientTextUI/ClientTextUI.h</text>
</a>
</g>
</g>
<!-- Node3&#45;&gt;Node5 -->
<g id="edge2" class="edge">
<title>Node3&#45;&gt;Node5</title>
<path fill="none" stroke="#191970" d="M171,-113.1575C171,-104.155 171,-93.9199 171,-86.6427"/>
<polygon fill="#191970" stroke="#191970" points="167.5001,-113.2455 171,-123.2455 174.5001,-113.2456 167.5001,-113.2455"/>
</g>
<!-- Node7 -->
<g id="node5" class="node">
<title>Node7</title>
<g id="a_node5"><a xlink:href="Input_8cpp.html" target="_top" xlink:title="UI/ClientTextUI/Input.cpp">
<polygon fill="#ffffff" stroke="#000000" points="265.5,-67.5 265.5,-86.5 394.5,-86.5 394.5,-67.5 265.5,-67.5"/>
<text text-anchor="middle" x="330" y="-74.5" font-family="Helvetica,sans-Serif" font-size="10.00" fill="#000000">UI/ClientTextUI/Input.cpp</text>
</a>
</g>
</g>
<!-- Node3&#45;&gt;Node7 -->
<g id="edge5" class="edge">
<title>Node3&#45;&gt;Node7</title>
<path fill="none" stroke="#191970" d="M208.129,-119.9231C237.195,-109.686 276.9369,-95.6889 303.0236,-86.5011"/>
<polygon fill="#191970" stroke="#191970" points="206.6025,-116.75 198.3331,-123.3733 208.9279,-123.3524 206.6025,-116.75"/>
</g>
<!-- Node5&#45;&gt;Node4 -->
<g id="edge3" class="edge">
<title>Node5&#45;&gt;Node4</title>
<path fill="none" stroke="#191970" d="M145.8432,-62.1236C129.6551,-52.5508 108.685,-40.1502 92.4413,-30.5446"/>
<polygon fill="#191970" stroke="#191970" points="144.3608,-65.3132 154.75,-67.3906 147.9239,-59.2878 144.3608,-65.3132"/>
</g>
<!-- Node6 -->
<g id="node4" class="node">
<title>Node6</title>
<g id="a_node4"><a xlink:href="UIFactory_8cpp.html" target="_top" xlink:title="UI/UIFactory.cpp">
<polygon fill="#ffffff" stroke="#000000" points="152,-6 152,-25 244,-25 244,-6 152,-6"/>
<text text-anchor="middle" x="198" y="-13" font-family="Helvetica,sans-Serif" font-size="10.00" fill="#000000">UI/UIFactory.cpp</text>
</a>
</g>
</g>
<!-- Node5&#45;&gt;Node6 -->
<g id="edge4" class="edge">
<title>Node5&#45;&gt;Node6</title>
<path fill="none" stroke="#191970" d="M179.3771,-57.9189C184.1312,-47.0901 189.8805,-33.9944 193.7218,-25.2449"/>
<polygon fill="#191970" stroke="#191970" points="176.034,-56.8272 175.2188,-67.3906 182.4435,-59.6412 176.034,-56.8272"/>
</g>
</g>
</svg>
