<?xml version="1.0" encoding="UTF-8" standalone="no"?>
<!DOCTYPE svg PUBLIC "-//W3C//DTD SVG 1.1//EN"
 "http://www.w3.org/Graphics/SVG/1.1/DTD/svg11.dtd">
<!-- Generated by graphviz version 2.40.1 (20161225.0304)
 -->
<!-- Title: Domain/Game/Actors/LongRock.cpp Pages: 1 -->
<!--zoomable 363 -->
<svg id="main" version="1.1" xmlns="http://www.w3.org/2000/svg" xmlns:xlink="http://www.w3.org/1999/xlink" xml:space="preserve" onload="init(evt)">
<style type="text/css"><![CDATA[
.edge:hover path { stroke: red; }
.edge:hover polygon { stroke: red; fill: red; }
]]></style>
<script type="text/javascript"><![CDATA[
var edges = document.getElementsByTagName('g');
if (edges && edges.length) {
  for (var i=0;i<edges.length;i++) {
    if (edges[i].id.substr(0,4)=='edge') {
      edges[i].setAttribute('class','edge');
    }
  }
}
]]></script>
        <defs>
                <circle id="rim" cx="0" cy="0" r="7"/>
                <circle id="rim2" cx="0" cy="0" r="3.5"/>
                <g id="zoomPlus">
                        <use xlink:href="#rim" fill="#404040">
                                <set attributeName="fill" to="#808080" begin="zoomplus.mouseover" end="zoomplus.mouseout"/>
                        </use>
                        <path d="M-4,0h8M0,-4v8" fill="none" stroke="white" stroke-width="1.5" pointer-events="none"/>
                </g>
                <g id="zoomMin">
                        <use xlink:href="#rim" fill="#404040">
                                <set attributeName="fill" to="#808080" begin="zoomminus.mouseover" end="zoomminus.mouseout"/>
                        </use>
                        <path d="M-4,0h8" fill="none" stroke="white" stroke-width="1.5" pointer-events="none"/>
                </g>
                <g id="dirArrow">
                        <path fill="none" stroke="white" stroke-width="1.5" d="M0,-3.0v7 M-2.5,-0.5L0,-3.0L2.5,-0.5"/>
                </g>
               <g id="resetDef">
                       <use xlink:href="#rim2" fill="#404040">
                               <set attributeName="fill" to="#808080" begin="reset.mouseover" end="reset.mouseout"/>
                       </use>
               </g>
        </defs>

<script type="text/javascript">
var viewWidth = 623;
var viewHeight = 363;
var sectionId = 'dynsection-0';
</script>
<script xlink:href="svgpan.js"/>
<svg id="graph" class="graph">
<g id="viewport">
<title>Domain/Game/Actors/LongRock.cpp</title>
<polygon fill="#ffffff" stroke="transparent" points="-4,4 -4,-359 618.5322,-359 618.5322,4 -4,4"/>
<!-- Node0 -->
<g id="node1" class="node">
<title>Node0</title>
<polygon fill="#bfbfbf" stroke="#000000" points="77.5,-324.5 77.5,-354.5 188.5,-354.5 188.5,-324.5 77.5,-324.5"/>
<text text-anchor="start" x="85.5" y="-342.5" font-family="Helvetica,sans-Serif" font-size="10.00" fill="#000000">Domain/Game/Actors</text>
<text text-anchor="middle" x="133" y="-331.5" font-family="Helvetica,sans-Serif" font-size="10.00" fill="#000000">/LongRock.cpp</text>
</g>
<!-- Node1 -->
<g id="node2" class="node">
<title>Node1</title>
<g id="a_node2"><a xlink:href="LongRock_8h.html" target="_top" xlink:title="Asteroids/Domain/Game\l/Actors/LongRock.h">
<polygon fill="#ffffff" stroke="#000000" points="0,-257.5 0,-287.5 124,-287.5 124,-257.5 0,-257.5"/>
<text text-anchor="start" x="8" y="-275.5" font-family="Helvetica,sans-Serif" font-size="10.00" fill="#000000">Asteroids/Domain/Game</text>
<text text-anchor="middle" x="62" y="-264.5" font-family="Helvetica,sans-Serif" font-size="10.00" fill="#000000">/Actors/LongRock.h</text>
</a>
</g>
</g>
<!-- Node0&#45;&gt;Node1 -->
<g id="edge1" class="edge">
<title>Node0&#45;&gt;Node1</title>
<path fill="none" stroke="#191970" d="M116.889,-324.2967C107.6296,-315.559 95.8317,-304.4257 85.5485,-294.7218"/>
<polygon fill="#191970" stroke="#191970" points="87.7224,-291.9609 78.0472,-287.6432 82.9181,-297.052 87.7224,-291.9609"/>
</g>
<!-- Node11 -->
<g id="node12" class="node">
<title>Node11</title>
<g id="a_node12"><a xlink:href="Domain_2Game_2Defines_8h.html" target="_top" xlink:title="Asteroids/Domain/Game\l/Defines.h">
<polygon fill="#ffffff" stroke="#000000" points="142,-257.5 142,-287.5 266,-287.5 266,-257.5 142,-257.5"/>
<text text-anchor="start" x="150" y="-275.5" font-family="Helvetica,sans-Serif" font-size="10.00" fill="#000000">Asteroids/Domain/Game</text>
<text text-anchor="middle" x="204" y="-264.5" font-family="Helvetica,sans-Serif" font-size="10.00" fill="#000000">/Defines.h</text>
</a>
</g>
</g>
<!-- Node0&#45;&gt;Node11 -->
<g id="edge19" class="edge">
<title>Node0&#45;&gt;Node11</title>
<path fill="none" stroke="#191970" d="M149.111,-324.2967C158.3704,-315.559 170.1683,-304.4257 180.4515,-294.7218"/>
<polygon fill="#191970" stroke="#191970" points="183.0819,-297.052 187.9528,-287.6432 178.2776,-291.9609 183.0819,-297.052"/>
</g>
<!-- Node2 -->
<g id="node3" class="node">
<title>Node2</title>
<g id="a_node3"><a xlink:href="ForwardDeclarations_8h.html" target="_top" xlink:title="Asteroids/ForwardDeclarations.h">
<polygon fill="#ffffff" stroke="#000000" points="58.5,-.5 58.5,-19.5 217.5,-19.5 217.5,-.5 58.5,-.5"/>
<text text-anchor="middle" x="138" y="-7.5" font-family="Helvetica,sans-Serif" font-size="10.00" fill="#000000">Asteroids/ForwardDeclarations.h</text>
</a>
</g>
</g>
<!-- Node1&#45;&gt;Node2 -->
<g id="edge2" class="edge">
<title>Node1&#45;&gt;Node2</title>
<path fill="none" stroke="#191970" d="M52.0316,-257.4548C46.0868,-247.5545 39.1089,-234.0561 36,-221 32.8085,-207.597 33.248,-203.5001 36,-190 48.9272,-126.5845 57.084,-109.8394 93,-56 100.2151,-45.1843 110.1697,-34.696 118.8821,-26.4726"/>
<polygon fill="#191970" stroke="#191970" points="121.3798,-28.932 126.4198,-19.6127 116.6683,-23.7549 121.3798,-28.932"/>
</g>
<!-- Node3 -->
<g id="node4" class="node">
<title>Node3</title>
<g id="a_node4"><a xlink:href="Rock_8h.html" target="_top" xlink:title="Asteroids/Domain/Game\l/Actors/Rock.h">
<polygon fill="#ffffff" stroke="#000000" points="45,-190.5 45,-220.5 169,-220.5 169,-190.5 45,-190.5"/>
<text text-anchor="start" x="53" y="-208.5" font-family="Helvetica,sans-Serif" font-size="10.00" fill="#000000">Asteroids/Domain/Game</text>
<text text-anchor="middle" x="107" y="-197.5" font-family="Helvetica,sans-Serif" font-size="10.00" fill="#000000">/Actors/Rock.h</text>
</a>
</g>
</g>
<!-- Node1&#45;&gt;Node3 -->
<g id="edge3" class="edge">
<title>Node1&#45;&gt;Node3</title>
<path fill="none" stroke="#191970" d="M72.2112,-257.2967C77.7921,-248.9873 84.8281,-238.5115 91.1098,-229.1587"/>
<polygon fill="#191970" stroke="#191970" points="94.1591,-230.896 96.8292,-220.6432 88.3481,-226.9931 94.1591,-230.896"/>
</g>
<!-- Node3&#45;&gt;Node2 -->
<g id="edge4" class="edge">
<title>Node3&#45;&gt;Node2</title>
<path fill="none" stroke="#191970" d="M103.1965,-190.1344C97.0761,-162.4544 87.238,-102.7461 103,-56 106.5695,-45.4138 113.6535,-35.3356 120.5202,-27.3256"/>
<polygon fill="#191970" stroke="#191970" points="123.253,-29.5244 127.441,-19.7924 118.0981,-24.7886 123.253,-29.5244"/>
</g>
<!-- Node4 -->
<g id="node5" class="node">
<title>Node4</title>
<g id="a_node5"><a xlink:href="Actor_8h.html" target="_top" xlink:title="Asteroids/Domain/Game\l/Actors/Actor.h">
<polygon fill="#ffffff" stroke="#000000" points="227,-123.5 227,-153.5 351,-153.5 351,-123.5 227,-123.5"/>
<text text-anchor="start" x="235" y="-141.5" font-family="Helvetica,sans-Serif" font-size="10.00" fill="#000000">Asteroids/Domain/Game</text>
<text text-anchor="middle" x="289" y="-130.5" font-family="Helvetica,sans-Serif" font-size="10.00" fill="#000000">/Actors/Actor.h</text>
</a>
</g>
</g>
<!-- Node3&#45;&gt;Node4 -->
<g id="edge5" class="edge">
<title>Node3&#45;&gt;Node4</title>
<path fill="none" stroke="#191970" d="M147.8444,-190.4639C174.6799,-180.5849 209.9782,-167.5905 238.5629,-157.0675"/>
<polygon fill="#191970" stroke="#191970" points="239.8023,-160.3409 247.9775,-153.6017 237.384,-153.7719 239.8023,-160.3409"/>
</g>
<!-- Node4&#45;&gt;Node2 -->
<g id="edge6" class="edge">
<title>Node4&#45;&gt;Node2</title>
<path fill="none" stroke="#191970" d="M226.8125,-128.4956C181.6219,-119.8085 126.0236,-105.6855 112,-87 98.8512,-69.4802 111.2127,-44.8912 122.979,-28.2506"/>
<polygon fill="#191970" stroke="#191970" points="126.0416,-30.0039 129.2888,-19.9189 120.4613,-25.7777 126.0416,-30.0039"/>
</g>
<!-- Node5 -->
<g id="node6" class="node">
<title>Node5</title>
<g id="a_node6"><a xlink:href="ActorInterface_8h.html" target="_top" xlink:title="Asteroids/Domain/Game\l/Actors/ActorInterface.h">
<polygon fill="#ffffff" stroke="#000000" points="121,-56.5 121,-86.5 245,-86.5 245,-56.5 121,-56.5"/>
<text text-anchor="start" x="129" y="-74.5" font-family="Helvetica,sans-Serif" font-size="10.00" fill="#000000">Asteroids/Domain/Game</text>
<text text-anchor="middle" x="183" y="-63.5" font-family="Helvetica,sans-Serif" font-size="10.00" fill="#000000">/Actors/ActorInterface.h</text>
</a>
</g>
</g>
<!-- Node4&#45;&gt;Node5 -->
<g id="edge7" class="edge">
<title>Node4&#45;&gt;Node5</title>
<path fill="none" stroke="#191970" d="M265.2115,-123.4639C250.5849,-114.2188 231.6417,-102.2452 215.6261,-92.1222"/>
<polygon fill="#191970" stroke="#191970" points="217.3989,-89.1022 207.0758,-86.7177 213.6588,-95.0193 217.3989,-89.1022"/>
</g>
<!-- Node6 -->
<g id="node7" class="node">
<title>Node6</title>
<polygon fill="#ffffff" stroke="#bfbfbf" points="413,-.5 413,-19.5 457,-19.5 457,-.5 413,-.5"/>
<text text-anchor="middle" x="435" y="-7.5" font-family="Helvetica,sans-Serif" font-size="10.00" fill="#000000">vector</text>
</g>
<!-- Node4&#45;&gt;Node6 -->
<g id="edge18" class="edge">
<title>Node4&#45;&gt;Node6</title>
<path fill="none" stroke="#191970" d="M351.2245,-132.7695C439.3125,-124.0201 591.5654,-106.3006 608,-87 616.9323,-76.51 616.3979,-66.9226 608,-56 590.9891,-33.8749 512.6965,-20.1532 467.4816,-13.9338"/>
<polygon fill="#191970" stroke="#191970" points="467.6669,-10.4278 457.2935,-12.5821 466.7463,-17.367 467.6669,-10.4278"/>
</g>
<!-- Node7 -->
<g id="node8" class="node">
<title>Node7</title>
<g id="a_node8"><a xlink:href="Rect_8h.html" target="_top" xlink:title="Asteroids/Domain/Game\l/Actors/Rect.h">
<polygon fill="#ffffff" stroke="#000000" points="475,-56.5 475,-86.5 599,-86.5 599,-56.5 475,-56.5"/>
<text text-anchor="start" x="483" y="-74.5" font-family="Helvetica,sans-Serif" font-size="10.00" fill="#000000">Asteroids/Domain/Game</text>
<text text-anchor="middle" x="537" y="-63.5" font-family="Helvetica,sans-Serif" font-size="10.00" fill="#000000">/Actors/Rect.h</text>
</a>
</g>
</g>
<!-- Node4&#45;&gt;Node7 -->
<g id="edge10" class="edge">
<title>Node4&#45;&gt;Node7</title>
<path fill="none" stroke="#191970" d="M344.656,-123.4639C382.1771,-113.3272 431.8392,-99.9104 471.3017,-89.2491"/>
<polygon fill="#191970" stroke="#191970" points="472.3602,-92.5887 481.1012,-86.6017 470.5344,-85.831 472.3602,-92.5887"/>
</g>
<!-- Node9 -->
<g id="node10" class="node">
<title>Node9</title>
<g id="a_node10"><a xlink:href="Vector_8h.html" target="_top" xlink:title="Asteroids/Domain/Game\l/Actors/Vector.h">
<polygon fill="#ffffff" stroke="#000000" points="333,-56.5 333,-86.5 457,-86.5 457,-56.5 333,-56.5"/>
<text text-anchor="start" x="341" y="-74.5" font-family="Helvetica,sans-Serif" font-size="10.00" fill="#000000">Asteroids/Domain/Game</text>
<text text-anchor="middle" x="395" y="-63.5" font-family="Helvetica,sans-Serif" font-size="10.00" fill="#000000">/Actors/Vector.h</text>
</a>
</g>
</g>
<!-- Node4&#45;&gt;Node9 -->
<g id="edge14" class="edge">
<title>Node4&#45;&gt;Node9</title>
<path fill="none" stroke="#191970" d="M312.7885,-123.4639C327.4151,-114.2188 346.3583,-102.2452 362.3739,-92.1222"/>
<polygon fill="#191970" stroke="#191970" points="364.3412,-95.0193 370.9242,-86.7177 360.6011,-89.1022 364.3412,-95.0193"/>
</g>
<!-- Node10 -->
<g id="node11" class="node">
<title>Node10</title>
<polygon fill="#ffffff" stroke="#bfbfbf" points="263,-62 263,-81 315,-81 315,-62 263,-62"/>
<text text-anchor="middle" x="289" y="-69" font-family="Helvetica,sans-Serif" font-size="10.00" fill="#000000">memory</text>
</g>
<!-- Node4&#45;&gt;Node10 -->
<g id="edge17" class="edge">
<title>Node4&#45;&gt;Node10</title>
<path fill="none" stroke="#191970" d="M289,-123.2967C289,-113.7699 289,-101.3954 289,-91.1306"/>
<polygon fill="#191970" stroke="#191970" points="292.5001,-91.0549 289,-81.055 285.5001,-91.055 292.5001,-91.0549"/>
</g>
<!-- Node5&#45;&gt;Node2 -->
<g id="edge8" class="edge">
<title>Node5&#45;&gt;Node2</title>
<path fill="none" stroke="#191970" d="M171.8764,-56.2977C165.6299,-47.7609 157.796,-37.0545 151.2353,-28.0883"/>
<polygon fill="#191970" stroke="#191970" points="153.9348,-25.8505 145.2051,-19.8469 148.2856,-29.984 153.9348,-25.8505"/>
</g>
<!-- Node5&#45;&gt;Node6 -->
<g id="edge9" class="edge">
<title>Node5&#45;&gt;Node6</title>
<path fill="none" stroke="#191970" d="M244.6461,-56.4554C294.6718,-44.2468 363.1979,-27.5231 402.9203,-17.829"/>
<polygon fill="#191970" stroke="#191970" points="403.9604,-21.1779 412.8455,-15.4068 402.3008,-14.3775 403.9604,-21.1779"/>
</g>
<!-- Node7&#45;&gt;Node2 -->
<g id="edge11" class="edge">
<title>Node7&#45;&gt;Node2</title>
<path fill="none" stroke="#191970" d="M474.715,-57.6236C471.7727,-57.0559 468.8564,-56.5113 466,-56 385.7811,-41.6398 293.8551,-29.0812 227.7703,-20.7306"/>
<polygon fill="#191970" stroke="#191970" points="228.1606,-17.2522 217.8023,-19.4782 227.2879,-24.1976 228.1606,-17.2522"/>
</g>
<!-- Node7&#45;&gt;Node6 -->
<g id="edge13" class="edge">
<title>Node7&#45;&gt;Node6</title>
<path fill="none" stroke="#191970" d="M512.048,-56.4554C496.0741,-46.8241 475.4398,-34.3828 459.5457,-24.7996"/>
<polygon fill="#191970" stroke="#191970" points="461.1774,-21.6965 450.8064,-19.5303 457.563,-27.6912 461.1774,-21.6965"/>
</g>
<!-- Node8 -->
<g id="node9" class="node">
<title>Node8</title>
<polygon fill="#ffffff" stroke="#bfbfbf" points="516.5,-.5 516.5,-19.5 557.5,-19.5 557.5,-.5 516.5,-.5"/>
<text text-anchor="middle" x="537" y="-7.5" font-family="Helvetica,sans-Serif" font-size="10.00" fill="#000000">string</text>
</g>
<!-- Node7&#45;&gt;Node8 -->
<g id="edge12" class="edge">
<title>Node7&#45;&gt;Node8</title>
<path fill="none" stroke="#191970" d="M537,-56.2977C537,-48.3834 537,-38.6043 537,-30.0759"/>
<polygon fill="#191970" stroke="#191970" points="540.5001,-29.8469 537,-19.8469 533.5001,-29.847 540.5001,-29.8469"/>
</g>
<!-- Node9&#45;&gt;Node2 -->
<g id="edge15" class="edge">
<title>Node9&#45;&gt;Node2</title>
<path fill="none" stroke="#191970" d="M332.7875,-56.6126C288.3221,-45.972 229.2743,-31.8419 187.8909,-21.9389"/>
<polygon fill="#191970" stroke="#191970" points="188.5728,-18.5033 178.0328,-19.5798 186.9436,-25.3111 188.5728,-18.5033"/>
</g>
<!-- Node9&#45;&gt;Node6 -->
<g id="edge16" class="edge">
<title>Node9&#45;&gt;Node6</title>
<path fill="none" stroke="#191970" d="M404.8876,-56.2977C410.3822,-47.8498 417.2586,-37.2773 423.0527,-28.369"/>
<polygon fill="#191970" stroke="#191970" points="426.0772,-30.1381 428.5955,-19.8469 420.2092,-26.3215 426.0772,-30.1381"/>
</g>
</g>
</svg>
        <g id="navigator" transform="translate(0 0)" fill="#404254">
                <rect fill="#f2f5e9" fill-opacity="0.5" stroke="#606060" stroke-width=".5" x="0" y="0" width="60" height="60"/>
                <use id="zoomplus" xlink:href="#zoomPlus" x="17" y="9" onmousedown="handleZoom(evt,'in')"/>
                <use id="zoomminus" xlink:href="#zoomMin" x="42" y="9" onmousedown="handleZoom(evt,'out')"/>
                <use id="reset" xlink:href="#resetDef" x="30" y="36" onmousedown="handleReset()"/>
                <g id="arrowUp" xlink:href="#dirArrow" transform="translate(30 24)" onmousedown="handlePan(0,-1)">
                  <use xlink:href="#rim" fill="#404040">
                        <set attributeName="fill" to="#808080" begin="arrowUp.mouseover" end="arrowUp.mouseout"/>
                  </use>
                  <path fill="none" stroke="white" stroke-width="1.5" d="M0,-3.0v7 M-2.5,-0.5L0,-3.0L2.5,-0.5"/>
                </g>
                <g id="arrowRight" xlink:href="#dirArrow" transform="rotate(90) translate(36 -43)" onmousedown="handlePan(1,0)">
                  <use xlink:href="#rim" fill="#404040">
                        <set attributeName="fill" to="#808080" begin="arrowRight.mouseover" end="arrowRight.mouseout"/>
                  </use>
                  <path fill="none" stroke="white" stroke-width="1.5" d="M0,-3.0v7 M-2.5,-0.5L0,-3.0L2.5,-0.5"/>
                </g>
                <g id="arrowDown" xlink:href="#dirArrow" transform="rotate(180) translate(-30 -48)" onmousedown="handlePan(0,1)">
                  <use xlink:href="#rim" fill="#404040">
                        <set attributeName="fill" to="#808080" begin="arrowDown.mouseover" end="arrowDown.mouseout"/>
                  </use>
                  <path fill="none" stroke="white" stroke-width="1.5" d="M0,-3.0v7 M-2.5,-0.5L0,-3.0L2.5,-0.5"/>
                </g>
                <g id="arrowLeft" xlink:href="#dirArrow" transform="rotate(270) translate(-36 17)" onmousedown="handlePan(-1,0)">
                  <use xlink:href="#rim" fill="#404040">
                        <set attributeName="fill" to="#808080" begin="arrowLeft.mouseover" end="arrowLeft.mouseout"/>
                  </use>
                  <path fill="none" stroke="white" stroke-width="1.5" d="M0,-3.0v7 M-2.5,-0.5L0,-3.0L2.5,-0.5"/>
                </g>
        </g>
        <svg viewBox="0 0 15 15" width="100%" height="30px" preserveAspectRatio="xMaxYMin meet">
         <g id="arrow_out" transform="scale(0.3 0.3)">
          <a xlink:href="LongRock_8cpp__incl_org.svg" target="_base">
           <rect id="button" ry="5" rx="5" y="6" x="6" height="38" width="38"
                fill="#f2f5e9" fill-opacity="0.5" stroke="#606060" stroke-width="1.0"/>
           <path id="arrow"
             d="M 11.500037,31.436501 C 11.940474,20.09759 22.043105,11.32322 32.158766,21.979434 L 37.068811,17.246167 C 37.068811,17.246167 37.088388,32 37.088388,32 L 22.160133,31.978069 C 22.160133,31.978069 26.997745,27.140456 26.997745,27.140456 C 18.528582,18.264221 13.291696,25.230495 11.500037,31.436501 z"
             style="fill:#404040;"/>
          </a>
         </g>
        </svg>
</svg>
