<?xml version="1.0" encoding="UTF-8" standalone="no"?>
<!DOCTYPE svg PUBLIC "-//W3C//DTD SVG 1.1//EN"
 "http://www.w3.org/Graphics/SVG/1.1/DTD/svg11.dtd">
<!-- Generated by graphviz version 2.40.1 (20161225.0304)
 -->
<!-- Title: Domain/Game/Actors/LongRock.h Pages: 1 -->
<!--zoomable 296 -->
<svg id="main" version="1.1" xmlns="http://www.w3.org/2000/svg" xmlns:xlink="http://www.w3.org/1999/xlink" xml:space="preserve" onload="init(evt)">
<style type="text/css"><![CDATA[
.edge:hover path { stroke: red; }
.edge:hover polygon { stroke: red; fill: red; }
]]></style>
<script type="text/javascript"><![CDATA[
var edges = document.getElementsByTagName('g');
if (edges && edges.length) {
  for (var i=0;i<edges.length;i++) {
    if (edges[i].id.substr(0,4)=='edge') {
      edges[i].setAttribute('class','edge');
    }
  }
}
]]></script>
        <defs>
                <circle id="rim" cx="0" cy="0" r="7"/>
                <circle id="rim2" cx="0" cy="0" r="3.5"/>
                <g id="zoomPlus">
                        <use xlink:href="#rim" fill="#404040">
                                <set attributeName="fill" to="#808080" begin="zoomplus.mouseover" end="zoomplus.mouseout"/>
                        </use>
                        <path d="M-4,0h8M0,-4v8" fill="none" stroke="white" stroke-width="1.5" pointer-events="none"/>
                </g>
                <g id="zoomMin">
                        <use xlink:href="#rim" fill="#404040">
                                <set attributeName="fill" to="#808080" begin="zoomminus.mouseover" end="zoomminus.mouseout"/>
                        </use>
                        <path d="M-4,0h8" fill="none" stroke="white" stroke-width="1.5" pointer-events="none"/>
                </g>
                <g id="dirArrow">
                        <path fill="none" stroke="white" stroke-width="1.5" d="M0,-3.0v7 M-2.5,-0.5L0,-3.0L2.5,-0.5"/>
                </g>
               <g id="resetDef">
                       <use xlink:href="#rim2" fill="#404040">
                               <set attributeName="fill" to="#808080" begin="reset.mouseover" end="reset.mouseout"/>
                       </use>
               </g>
        </defs>

<script type="text/javascript">
var viewWidth = 616;
var viewHeight = 296;
var sectionId = 'dynsection-0';
</script>
<script xlink:href="svgpan.js"/>
<svg id="graph" class="graph">
<g id="viewport">
<title>Domain/Game/Actors/LongRock.h</title>
<polygon fill="#ffffff" stroke="transparent" points="-4,4 -4,-292 612.0322,-292 612.0322,4 -4,4"/>
<!-- Node0 -->
<g id="node1" class="node">
<title>Node0</title>
<polygon fill="#bfbfbf" stroke="#000000" points="0,-257.5 0,-287.5 111,-287.5 111,-257.5 0,-257.5"/>
<text text-anchor="start" x="8" y="-275.5" font-family="Helvetica,sans-Serif" font-size="10.00" fill="#000000">Domain/Game/Actors</text>
<text text-anchor="middle" x="55.5" y="-264.5" font-family="Helvetica,sans-Serif" font-size="10.00" fill="#000000">/LongRock.h</text>
</g>
<!-- Node1 -->
<g id="node2" class="node">
<title>Node1</title>
<g id="a_node2"><a xlink:href="ForwardDeclarations_8h.html" target="_top" xlink:title="Asteroids/ForwardDeclarations.h">
<polygon fill="#ffffff" stroke="#000000" points="52,-.5 52,-19.5 211,-19.5 211,-.5 52,-.5"/>
<text text-anchor="middle" x="131.5" y="-7.5" font-family="Helvetica,sans-Serif" font-size="10.00" fill="#000000">Asteroids/ForwardDeclarations.h</text>
</a>
</g>
</g>
<!-- Node0&#45;&gt;Node1 -->
<g id="edge1" class="edge">
<title>Node0&#45;&gt;Node1</title>
<path fill="none" stroke="#191970" d="M45.5316,-257.4548C39.5868,-247.5545 32.6089,-234.0561 29.5,-221 26.3085,-207.597 26.748,-203.5001 29.5,-190 42.4272,-126.5845 50.584,-109.8394 86.5,-56 93.7151,-45.1843 103.6697,-34.696 112.3821,-26.4726"/>
<polygon fill="#191970" stroke="#191970" points="114.8798,-28.932 119.9198,-19.6127 110.1683,-23.7549 114.8798,-28.932"/>
</g>
<!-- Node2 -->
<g id="node3" class="node">
<title>Node2</title>
<g id="a_node3"><a xlink:href="Rock_8h.html" target="_top" xlink:title="Asteroids/Domain/Game\l/Actors/Rock.h">
<polygon fill="#ffffff" stroke="#000000" points="38.5,-190.5 38.5,-220.5 162.5,-220.5 162.5,-190.5 38.5,-190.5"/>
<text text-anchor="start" x="46.5" y="-208.5" font-family="Helvetica,sans-Serif" font-size="10.00" fill="#000000">Asteroids/Domain/Game</text>
<text text-anchor="middle" x="100.5" y="-197.5" font-family="Helvetica,sans-Serif" font-size="10.00" fill="#000000">/Actors/Rock.h</text>
</a>
</g>
</g>
<!-- Node0&#45;&gt;Node2 -->
<g id="edge2" class="edge">
<title>Node0&#45;&gt;Node2</title>
<path fill="none" stroke="#191970" d="M65.7112,-257.2967C71.2921,-248.9873 78.3281,-238.5115 84.6098,-229.1587"/>
<polygon fill="#191970" stroke="#191970" points="87.6591,-230.896 90.3292,-220.6432 81.8481,-226.9931 87.6591,-230.896"/>
</g>
<!-- Node2&#45;&gt;Node1 -->
<g id="edge3" class="edge">
<title>Node2&#45;&gt;Node1</title>
<path fill="none" stroke="#191970" d="M96.6965,-190.1344C90.5761,-162.4544 80.738,-102.7461 96.5,-56 100.0695,-45.4138 107.1535,-35.3356 114.0202,-27.3256"/>
<polygon fill="#191970" stroke="#191970" points="116.753,-29.5244 120.941,-19.7924 111.5981,-24.7886 116.753,-29.5244"/>
</g>
<!-- Node3 -->
<g id="node4" class="node">
<title>Node3</title>
<g id="a_node4"><a xlink:href="Actor_8h.html" target="_top" xlink:title="Asteroids/Domain/Game\l/Actors/Actor.h">
<polygon fill="#ffffff" stroke="#000000" points="220.5,-123.5 220.5,-153.5 344.5,-153.5 344.5,-123.5 220.5,-123.5"/>
<text text-anchor="start" x="228.5" y="-141.5" font-family="Helvetica,sans-Serif" font-size="10.00" fill="#000000">Asteroids/Domain/Game</text>
<text text-anchor="middle" x="282.5" y="-130.5" font-family="Helvetica,sans-Serif" font-size="10.00" fill="#000000">/Actors/Actor.h</text>
</a>
</g>
</g>
<!-- Node2&#45;&gt;Node3 -->
<g id="edge4" class="edge">
<title>Node2&#45;&gt;Node3</title>
<path fill="none" stroke="#191970" d="M141.3444,-190.4639C168.1799,-180.5849 203.4782,-167.5905 232.0629,-157.0675"/>
<polygon fill="#191970" stroke="#191970" points="233.3023,-160.3409 241.4775,-153.6017 230.884,-153.7719 233.3023,-160.3409"/>
</g>
<!-- Node3&#45;&gt;Node1 -->
<g id="edge5" class="edge">
<title>Node3&#45;&gt;Node1</title>
<path fill="none" stroke="#191970" d="M220.3125,-128.4956C175.1219,-119.8085 119.5236,-105.6855 105.5,-87 92.3512,-69.4802 104.7127,-44.8912 116.479,-28.2506"/>
<polygon fill="#191970" stroke="#191970" points="119.5416,-30.0039 122.7888,-19.9189 113.9613,-25.7777 119.5416,-30.0039"/>
</g>
<!-- Node4 -->
<g id="node5" class="node">
<title>Node4</title>
<g id="a_node5"><a xlink:href="ActorInterface_8h.html" target="_top" xlink:title="Asteroids/Domain/Game\l/Actors/ActorInterface.h">
<polygon fill="#ffffff" stroke="#000000" points="114.5,-56.5 114.5,-86.5 238.5,-86.5 238.5,-56.5 114.5,-56.5"/>
<text text-anchor="start" x="122.5" y="-74.5" font-family="Helvetica,sans-Serif" font-size="10.00" fill="#000000">Asteroids/Domain/Game</text>
<text text-anchor="middle" x="176.5" y="-63.5" font-family="Helvetica,sans-Serif" font-size="10.00" fill="#000000">/Actors/ActorInterface.h</text>
</a>
</g>
</g>
<!-- Node3&#45;&gt;Node4 -->
<g id="edge6" class="edge">
<title>Node3&#45;&gt;Node4</title>
<path fill="none" stroke="#191970" d="M258.7115,-123.4639C244.0849,-114.2188 225.1417,-102.2452 209.1261,-92.1222"/>
<polygon fill="#191970" stroke="#191970" points="210.8989,-89.1022 200.5758,-86.7177 207.1588,-95.0193 210.8989,-89.1022"/>
</g>
<!-- Node5 -->
<g id="node6" class="node">
<title>Node5</title>
<polygon fill="#ffffff" stroke="#bfbfbf" points="406.5,-.5 406.5,-19.5 450.5,-19.5 450.5,-.5 406.5,-.5"/>
<text text-anchor="middle" x="428.5" y="-7.5" font-family="Helvetica,sans-Serif" font-size="10.00" fill="#000000">vector</text>
</g>
<!-- Node3&#45;&gt;Node5 -->
<g id="edge17" class="edge">
<title>Node3&#45;&gt;Node5</title>
<path fill="none" stroke="#191970" d="M344.7245,-132.7695C432.8125,-124.0201 585.0654,-106.3006 601.5,-87 610.4323,-76.51 609.8979,-66.9226 601.5,-56 584.4891,-33.8749 506.1965,-20.1532 460.9816,-13.9338"/>
<polygon fill="#191970" stroke="#191970" points="461.1669,-10.4278 450.7935,-12.5821 460.2463,-17.367 461.1669,-10.4278"/>
</g>
<!-- Node6 -->
<g id="node7" class="node">
<title>Node6</title>
<g id="a_node7"><a xlink:href="Rect_8h.html" target="_top" xlink:title="Asteroids/Domain/Game\l/Actors/Rect.h">
<polygon fill="#ffffff" stroke="#000000" points="468.5,-56.5 468.5,-86.5 592.5,-86.5 592.5,-56.5 468.5,-56.5"/>
<text text-anchor="start" x="476.5" y="-74.5" font-family="Helvetica,sans-Serif" font-size="10.00" fill="#000000">Asteroids/Domain/Game</text>
<text text-anchor="middle" x="530.5" y="-63.5" font-family="Helvetica,sans-Serif" font-size="10.00" fill="#000000">/Actors/Rect.h</text>
</a>
</g>
</g>
<!-- Node3&#45;&gt;Node6 -->
<g id="edge9" class="edge">
<title>Node3&#45;&gt;Node6</title>
<path fill="none" stroke="#191970" d="M338.156,-123.4639C375.6771,-113.3272 425.3392,-99.9104 464.8017,-89.2491"/>
<polygon fill="#191970" stroke="#191970" points="465.8602,-92.5887 474.6012,-86.6017 464.0344,-85.831 465.8602,-92.5887"/>
</g>
<!-- Node8 -->
<g id="node9" class="node">
<title>Node8</title>
<g id="a_node9"><a xlink:href="Vector_8h.html" target="_top" xlink:title="Asteroids/Domain/Game\l/Actors/Vector.h">
<polygon fill="#ffffff" stroke="#000000" points="326.5,-56.5 326.5,-86.5 450.5,-86.5 450.5,-56.5 326.5,-56.5"/>
<text text-anchor="start" x="334.5" y="-74.5" font-family="Helvetica,sans-Serif" font-size="10.00" fill="#000000">Asteroids/Domain/Game</text>
<text text-anchor="middle" x="388.5" y="-63.5" font-family="Helvetica,sans-Serif" font-size="10.00" fill="#000000">/Actors/Vector.h</text>
</a>
</g>
</g>
<!-- Node3&#45;&gt;Node8 -->
<g id="edge13" class="edge">
<title>Node3&#45;&gt;Node8</title>
<path fill="none" stroke="#191970" d="M306.2885,-123.4639C320.9151,-114.2188 339.8583,-102.2452 355.8739,-92.1222"/>
<polygon fill="#191970" stroke="#191970" points="357.8412,-95.0193 364.4242,-86.7177 354.1011,-89.1022 357.8412,-95.0193"/>
</g>
<!-- Node9 -->
<g id="node10" class="node">
<title>Node9</title>
<polygon fill="#ffffff" stroke="#bfbfbf" points="256.5,-62 256.5,-81 308.5,-81 308.5,-62 256.5,-62"/>
<text text-anchor="middle" x="282.5" y="-69" font-family="Helvetica,sans-Serif" font-size="10.00" fill="#000000">memory</text>
</g>
<!-- Node3&#45;&gt;Node9 -->
<g id="edge16" class="edge">
<title>Node3&#45;&gt;Node9</title>
<path fill="none" stroke="#191970" d="M282.5,-123.2967C282.5,-113.7699 282.5,-101.3954 282.5,-91.1306"/>
<polygon fill="#191970" stroke="#191970" points="286.0001,-91.0549 282.5,-81.055 279.0001,-91.055 286.0001,-91.0549"/>
</g>
<!-- Node4&#45;&gt;Node1 -->
<g id="edge7" class="edge">
<title>Node4&#45;&gt;Node1</title>
<path fill="none" stroke="#191970" d="M165.3764,-56.2977C159.1299,-47.7609 151.296,-37.0545 144.7353,-28.0883"/>
<polygon fill="#191970" stroke="#191970" points="147.4348,-25.8505 138.7051,-19.8469 141.7856,-29.984 147.4348,-25.8505"/>
</g>
<!-- Node4&#45;&gt;Node5 -->
<g id="edge8" class="edge">
<title>Node4&#45;&gt;Node5</title>
<path fill="none" stroke="#191970" d="M238.1461,-56.4554C288.1718,-44.2468 356.6979,-27.5231 396.4203,-17.829"/>
<polygon fill="#191970" stroke="#191970" points="397.4604,-21.1779 406.3455,-15.4068 395.8008,-14.3775 397.4604,-21.1779"/>
</g>
<!-- Node6&#45;&gt;Node1 -->
<g id="edge10" class="edge">
<title>Node6&#45;&gt;Node1</title>
<path fill="none" stroke="#191970" d="M468.215,-57.6236C465.2727,-57.0559 462.3564,-56.5113 459.5,-56 379.2811,-41.6398 287.3551,-29.0812 221.2703,-20.7306"/>
<polygon fill="#191970" stroke="#191970" points="221.6606,-17.2522 211.3023,-19.4782 220.7879,-24.1976 221.6606,-17.2522"/>
</g>
<!-- Node6&#45;&gt;Node5 -->
<g id="edge12" class="edge">
<title>Node6&#45;&gt;Node5</title>
<path fill="none" stroke="#191970" d="M505.548,-56.4554C489.5741,-46.8241 468.9398,-34.3828 453.0457,-24.7996"/>
<polygon fill="#191970" stroke="#191970" points="454.6774,-21.6965 444.3064,-19.5303 451.063,-27.6912 454.6774,-21.6965"/>
</g>
<!-- Node7 -->
<g id="node8" class="node">
<title>Node7</title>
<polygon fill="#ffffff" stroke="#bfbfbf" points="510,-.5 510,-19.5 551,-19.5 551,-.5 510,-.5"/>
<text text-anchor="middle" x="530.5" y="-7.5" font-family="Helvetica,sans-Serif" font-size="10.00" fill="#000000">string</text>
</g>
<!-- Node6&#45;&gt;Node7 -->
<g id="edge11" class="edge">
<title>Node6&#45;&gt;Node7</title>
<path fill="none" stroke="#191970" d="M530.5,-56.2977C530.5,-48.3834 530.5,-38.6043 530.5,-30.0759"/>
<polygon fill="#191970" stroke="#191970" points="534.0001,-29.8469 530.5,-19.8469 527.0001,-29.847 534.0001,-29.8469"/>
</g>
<!-- Node8&#45;&gt;Node1 -->
<g id="edge14" class="edge">
<title>Node8&#45;&gt;Node1</title>
<path fill="none" stroke="#191970" d="M326.2875,-56.6126C281.8221,-45.972 222.7743,-31.8419 181.3909,-21.9389"/>
<polygon fill="#191970" stroke="#191970" points="182.0728,-18.5033 171.5328,-19.5798 180.4436,-25.3111 182.0728,-18.5033"/>
</g>
<!-- Node8&#45;&gt;Node5 -->
<g id="edge15" class="edge">
<title>Node8&#45;&gt;Node5</title>
<path fill="none" stroke="#191970" d="M398.3876,-56.2977C403.8822,-47.8498 410.7586,-37.2773 416.5527,-28.369"/>
<polygon fill="#191970" stroke="#191970" points="419.5772,-30.1381 422.0955,-19.8469 413.7092,-26.3215 419.5772,-30.1381"/>
</g>
</g>
</svg>
        <g id="navigator" transform="translate(0 0)" fill="#404254">
                <rect fill="#f2f5e9" fill-opacity="0.5" stroke="#606060" stroke-width=".5" x="0" y="0" width="60" height="60"/>
                <use id="zoomplus" xlink:href="#zoomPlus" x="17" y="9" onmousedown="handleZoom(evt,'in')"/>
                <use id="zoomminus" xlink:href="#zoomMin" x="42" y="9" onmousedown="handleZoom(evt,'out')"/>
                <use id="reset" xlink:href="#resetDef" x="30" y="36" onmousedown="handleReset()"/>
                <g id="arrowUp" xlink:href="#dirArrow" transform="translate(30 24)" onmousedown="handlePan(0,-1)">
                  <use xlink:href="#rim" fill="#404040">
                        <set attributeName="fill" to="#808080" begin="arrowUp.mouseover" end="arrowUp.mouseout"/>
                  </use>
                  <path fill="none" stroke="white" stroke-width="1.5" d="M0,-3.0v7 M-2.5,-0.5L0,-3.0L2.5,-0.5"/>
                </g>
                <g id="arrowRight" xlink:href="#dirArrow" transform="rotate(90) translate(36 -43)" onmousedown="handlePan(1,0)">
                  <use xlink:href="#rim" fill="#404040">
                        <set attributeName="fill" to="#808080" begin="arrowRight.mouseover" end="arrowRight.mouseout"/>
                  </use>
                  <path fill="none" stroke="white" stroke-width="1.5" d="M0,-3.0v7 M-2.5,-0.5L0,-3.0L2.5,-0.5"/>
                </g>
                <g id="arrowDown" xlink:href="#dirArrow" transform="rotate(180) translate(-30 -48)" onmousedown="handlePan(0,1)">
                  <use xlink:href="#rim" fill="#404040">
                        <set attributeName="fill" to="#808080" begin="arrowDown.mouseover" end="arrowDown.mouseout"/>
                  </use>
                  <path fill="none" stroke="white" stroke-width="1.5" d="M0,-3.0v7 M-2.5,-0.5L0,-3.0L2.5,-0.5"/>
                </g>
                <g id="arrowLeft" xlink:href="#dirArrow" transform="rotate(270) translate(-36 17)" onmousedown="handlePan(-1,0)">
                  <use xlink:href="#rim" fill="#404040">
                        <set attributeName="fill" to="#808080" begin="arrowLeft.mouseover" end="arrowLeft.mouseout"/>
                  </use>
                  <path fill="none" stroke="white" stroke-width="1.5" d="M0,-3.0v7 M-2.5,-0.5L0,-3.0L2.5,-0.5"/>
                </g>
        </g>
        <svg viewBox="0 0 15 15" width="100%" height="30px" preserveAspectRatio="xMaxYMin meet">
         <g id="arrow_out" transform="scale(0.3 0.3)">
          <a xlink:href="LongRock_8h__incl_org.svg" target="_base">
           <rect id="button" ry="5" rx="5" y="6" x="6" height="38" width="38"
                fill="#f2f5e9" fill-opacity="0.5" stroke="#606060" stroke-width="1.0"/>
           <path id="arrow"
             d="M 11.500037,31.436501 C 11.940474,20.09759 22.043105,11.32322 32.158766,21.979434 L 37.068811,17.246167 C 37.068811,17.246167 37.088388,32 37.088388,32 L 22.160133,31.978069 C 22.160133,31.978069 26.997745,27.140456 26.997745,27.140456 C 18.528582,18.264221 13.291696,25.230495 11.500037,31.436501 z"
             style="fill:#404040;"/>
          </a>
         </g>
        </svg>
</svg>
