<?xml version="1.0" encoding="UTF-8" standalone="no"?>
<!DOCTYPE svg PUBLIC "-//W3C//DTD SVG 1.1//EN"
 "http://www.w3.org/Graphics/SVG/1.1/DTD/svg11.dtd">
<!-- Generated by graphviz version 2.40.1 (20161225.0304)
 -->
<!-- Title: main&#45;server.cpp Pages: 1 -->
<svg width="500pt" height="218pt"
 viewBox="0.00 0.00 499.97 218.00" xmlns="http://www.w3.org/2000/svg" xmlns:xlink="http://www.w3.org/1999/xlink">
<g id="graph0" class="graph" transform="scale(1 1) rotate(0) translate(4 214)">
<title>main&#45;server.cpp</title>
<polygon fill="#ffffff" stroke="transparent" points="-4,4 -4,-214 495.9693,-214 495.9693,4 -4,4"/>
<!-- Node0 -->
<g id="node1" class="node">
<title>Node0</title>
<polygon fill="#bfbfbf" stroke="#000000" points="267.9693,-190.5 267.9693,-209.5 353.9693,-209.5 353.9693,-190.5 267.9693,-190.5"/>
<text text-anchor="middle" x="310.9693" y="-197.5" font-family="Helvetica,sans-Serif" font-size="10.00" fill="#000000">main&#45;server.cpp</text>
</g>
<!-- Node1 -->
<g id="node2" class="node">
<title>Node1</title>
<g id="a_node2"><a xlink:href="Factory_8h.html" target="_top" xlink:title="Asteroids/Domain/Factory\l/Factory.h">
<polygon fill="#ffffff" stroke="#000000" points="14.4693,-123.5 14.4693,-153.5 145.4693,-153.5 145.4693,-123.5 14.4693,-123.5"/>
<text text-anchor="start" x="22.4693" y="-141.5" font-family="Helvetica,sans-Serif" font-size="10.00" fill="#000000">Asteroids/Domain/Factory</text>
<text text-anchor="middle" x="79.9693" y="-130.5" font-family="Helvetica,sans-Serif" font-size="10.00" fill="#000000">/Factory.h</text>
</a>
</g>
</g>
<!-- Node0&#45;&gt;Node1 -->
<g id="edge1" class="edge">
<title>Node0&#45;&gt;Node1</title>
<path fill="none" stroke="#191970" d="M275.129,-190.4581C240.8715,-181.3376 188.3846,-167.3638 146.4679,-156.2042"/>
<polygon fill="#191970" stroke="#191970" points="147.1692,-152.769 136.6053,-153.5784 145.3683,-159.5334 147.1692,-152.769"/>
</g>
<!-- Node5 -->
<g id="node6" class="node">
<title>Node5</title>
<g id="a_node6"><a xlink:href="UIFactoryInterface_8h.html" target="_top" xlink:title="Asteroids/UI/UIFactoryInterface.h">
<polygon fill="#ffffff" stroke="#000000" points="163.9693,-62 163.9693,-81 327.9693,-81 327.9693,-62 163.9693,-62"/>
<text text-anchor="middle" x="245.9693" y="-69" font-family="Helvetica,sans-Serif" font-size="10.00" fill="#000000">Asteroids/UI/UIFactoryInterface.h</text>
</a>
</g>
</g>
<!-- Node0&#45;&gt;Node5 -->
<g id="edge6" class="edge">
<title>Node0&#45;&gt;Node5</title>
<path fill="none" stroke="#191970" d="M300.0663,-190.4369C290.8217,-181.776 277.8441,-168.2267 269.9693,-154 258.9472,-134.0874 252.5382,-108.6048 249.1588,-91.2652"/>
<polygon fill="#191970" stroke="#191970" points="252.5624,-90.4151 247.3574,-81.1869 245.6716,-91.6468 252.5624,-90.4151"/>
</g>
<!-- Node6 -->
<g id="node7" class="node">
<title>Node6</title>
<g id="a_node7"><a xlink:href="ServerTextUIInterface_8h.html" target="_top" xlink:title="Asteroids/UI/ServerTextUI\l/ServerTextUIInterface.h">
<polygon fill="#ffffff" stroke="#000000" points="346.4693,-56.5 346.4693,-86.5 479.4693,-86.5 479.4693,-56.5 346.4693,-56.5"/>
<text text-anchor="start" x="354.4693" y="-74.5" font-family="Helvetica,sans-Serif" font-size="10.00" fill="#000000">Asteroids/UI/ServerTextUI</text>
<text text-anchor="middle" x="412.9693" y="-63.5" font-family="Helvetica,sans-Serif" font-size="10.00" fill="#000000">/ServerTextUIInterface.h</text>
</a>
</g>
</g>
<!-- Node0&#45;&gt;Node6 -->
<g id="edge9" class="edge">
<title>Node0&#45;&gt;Node6</title>
<path fill="none" stroke="#191970" d="M306.2775,-190.1055C299.6371,-174.516 289.6981,-143.867 302.9693,-123 312.0125,-108.7809 326.1289,-98.4207 341.2699,-90.8958"/>
<polygon fill="#191970" stroke="#191970" points="343.1377,-93.8915 350.7935,-86.5677 340.2415,-87.5187 343.1377,-93.8915"/>
</g>
<!-- Node7 -->
<g id="node8" class="node">
<title>Node7</title>
<polygon fill="#ffffff" stroke="#bfbfbf" points="311.9693,-129 311.9693,-148 365.9693,-148 365.9693,-129 311.9693,-129"/>
<text text-anchor="middle" x="338.9693" y="-136" font-family="Helvetica,sans-Serif" font-size="10.00" fill="#000000">iostream</text>
</g>
<!-- Node0&#45;&gt;Node7 -->
<g id="edge11" class="edge">
<title>Node0&#45;&gt;Node7</title>
<path fill="none" stroke="#191970" d="M315.3443,-190.3906C319.3481,-181.5965 325.3876,-168.3312 330.3578,-157.4145"/>
<polygon fill="#191970" stroke="#191970" points="333.5744,-158.7963 334.5326,-148.2449 327.2036,-155.8957 333.5744,-158.7963"/>
</g>
<!-- Node8 -->
<g id="node9" class="node">
<title>Node8</title>
<polygon fill="#ffffff" stroke="#bfbfbf" points="383.9693,-129 383.9693,-148 429.9693,-148 429.9693,-129 383.9693,-129"/>
<text text-anchor="middle" x="406.9693" y="-136" font-family="Helvetica,sans-Serif" font-size="10.00" fill="#000000">chrono</text>
</g>
<!-- Node0&#45;&gt;Node8 -->
<g id="edge12" class="edge">
<title>Node0&#45;&gt;Node8</title>
<path fill="none" stroke="#191970" d="M325.9693,-190.3906C341.3274,-180.5519 365.4214,-165.1167 383.3439,-153.6351"/>
<polygon fill="#191970" stroke="#191970" points="385.5423,-156.3833 392.0746,-148.0419 381.7663,-150.4891 385.5423,-156.3833"/>
</g>
<!-- Node9 -->
<g id="node10" class="node">
<title>Node9</title>
<polygon fill="#ffffff" stroke="#bfbfbf" points="447.9693,-129 447.9693,-148 491.9693,-148 491.9693,-129 447.9693,-129"/>
<text text-anchor="middle" x="469.9693" y="-136" font-family="Helvetica,sans-Serif" font-size="10.00" fill="#000000">thread</text>
</g>
<!-- Node0&#45;&gt;Node9 -->
<g id="edge13" class="edge">
<title>Node0&#45;&gt;Node9</title>
<path fill="none" stroke="#191970" d="M340.584,-190.4697C366.7767,-181.7787 405.8621,-168.1666 438.9693,-154 440.1518,-153.494 441.3529,-152.9645 442.5613,-152.4188"/>
<polygon fill="#191970" stroke="#191970" points="444.2454,-155.4938 451.7793,-148.0446 441.2444,-149.1697 444.2454,-155.4938"/>
</g>
<!-- Node2 -->
<g id="node3" class="node">
<title>Node2</title>
<g id="a_node3"><a xlink:href="FactoryInterface_8h.html" target="_top" xlink:title="Asteroids/Domain/Factory\l/FactoryInterface.h">
<polygon fill="#ffffff" stroke="#000000" points="14.4693,-56.5 14.4693,-86.5 145.4693,-86.5 145.4693,-56.5 14.4693,-56.5"/>
<text text-anchor="start" x="22.4693" y="-74.5" font-family="Helvetica,sans-Serif" font-size="10.00" fill="#000000">Asteroids/Domain/Factory</text>
<text text-anchor="middle" x="79.9693" y="-63.5" font-family="Helvetica,sans-Serif" font-size="10.00" fill="#000000">/FactoryInterface.h</text>
</a>
</g>
</g>
<!-- Node1&#45;&gt;Node2 -->
<g id="edge2" class="edge">
<title>Node1&#45;&gt;Node2</title>
<path fill="none" stroke="#191970" d="M79.9693,-123.2967C79.9693,-115.5013 79.9693,-105.7991 79.9693,-96.9064"/>
<polygon fill="#191970" stroke="#191970" points="83.4694,-96.6431 79.9693,-86.6432 76.4694,-96.6432 83.4694,-96.6431"/>
</g>
<!-- Node4 -->
<g id="node5" class="node">
<title>Node4</title>
<polygon fill="#ffffff" stroke="#bfbfbf" points="53.9693,-.5 53.9693,-19.5 105.9693,-19.5 105.9693,-.5 53.9693,-.5"/>
<text text-anchor="middle" x="79.9693" y="-7.5" font-family="Helvetica,sans-Serif" font-size="10.00" fill="#000000">memory</text>
</g>
<!-- Node1&#45;&gt;Node4 -->
<g id="edge5" class="edge">
<title>Node1&#45;&gt;Node4</title>
<path fill="none" stroke="#191970" d="M44.4762,-123.4687C29.4243,-115.0984 13.4302,-103.0734 4.9693,-87 -1.4484,-74.8082 -1.7605,-68.0224 4.9693,-56 13.5576,-40.6575 29.5862,-29.812 44.6276,-22.5214"/>
<polygon fill="#191970" stroke="#191970" points="46.0842,-25.7041 53.7901,-18.4329 43.2318,-19.3117 46.0842,-25.7041"/>
</g>
<!-- Node3 -->
<g id="node4" class="node">
<title>Node3</title>
<g id="a_node4"><a xlink:href="ForwardDeclarations_8h.html" target="_top" xlink:title="Asteroids/ForwardDeclarations.h">
<polygon fill="#ffffff" stroke="#000000" points="166.4693,-.5 166.4693,-19.5 325.4693,-19.5 325.4693,-.5 166.4693,-.5"/>
<text text-anchor="middle" x="245.9693" y="-7.5" font-family="Helvetica,sans-Serif" font-size="10.00" fill="#000000">Asteroids/ForwardDeclarations.h</text>
</a>
</g>
</g>
<!-- Node2&#45;&gt;Node3 -->
<g id="edge3" class="edge">
<title>Node2&#45;&gt;Node3</title>
<path fill="none" stroke="#191970" d="M120.5775,-56.4554C148.1535,-46.239 184.2635,-32.8609 210.6476,-23.0861"/>
<polygon fill="#191970" stroke="#191970" points="212.084,-26.2864 220.2452,-19.5303 209.6521,-19.7224 212.084,-26.2864"/>
</g>
<!-- Node2&#45;&gt;Node4 -->
<g id="edge4" class="edge">
<title>Node2&#45;&gt;Node4</title>
<path fill="none" stroke="#191970" d="M79.9693,-56.2977C79.9693,-48.3834 79.9693,-38.6043 79.9693,-30.0759"/>
<polygon fill="#191970" stroke="#191970" points="83.4694,-29.8469 79.9693,-19.8469 76.4694,-29.847 83.4694,-29.8469"/>
</g>
<!-- Node5&#45;&gt;Node3 -->
<g id="edge7" class="edge">
<title>Node5&#45;&gt;Node3</title>
<path fill="none" stroke="#191970" d="M245.9693,-61.8906C245.9693,-53.3657 245.9693,-40.6392 245.9693,-29.9235"/>
<polygon fill="#191970" stroke="#191970" points="249.4694,-29.7448 245.9693,-19.7449 242.4694,-29.7449 249.4694,-29.7448"/>
</g>
<!-- Node5&#45;&gt;Node4 -->
<g id="edge8" class="edge">
<title>Node5&#45;&gt;Node4</title>
<path fill="none" stroke="#191970" d="M220.0318,-61.8906C191.8915,-51.4652 146.79,-34.7559 115.3967,-23.1252"/>
<polygon fill="#191970" stroke="#191970" points="116.3178,-19.734 105.7247,-19.5419 113.8859,-26.298 116.3178,-19.734"/>
</g>
<!-- Node6&#45;&gt;Node3 -->
<g id="edge10" class="edge">
<title>Node6&#45;&gt;Node3</title>
<path fill="none" stroke="#191970" d="M372.1165,-56.4554C344.3743,-46.239 308.0468,-32.8609 281.5039,-23.0861"/>
<polygon fill="#191970" stroke="#191970" points="282.4418,-19.7018 271.8484,-19.5303 280.0228,-26.2705 282.4418,-19.7018"/>
</g>
</g>
</svg>
