<?xml version="1.0" encoding="UTF-8" standalone="no"?>
<!DOCTYPE svg PUBLIC "-//W3C//DTD SVG 1.1//EN"
 "http://www.w3.org/Graphics/SVG/1.1/DTD/svg11.dtd">
<!-- Generated by graphviz version 2.40.1 (20161225.0304)
 -->
<!-- Title: main&#45;console&#45;client.cpp Pages: 1 -->
<svg width="484pt" height="218pt"
 viewBox="0.00 0.00 483.97 218.00" xmlns="http://www.w3.org/2000/svg" xmlns:xlink="http://www.w3.org/1999/xlink">
<g id="graph0" class="graph" transform="scale(1 1) rotate(0) translate(4 214)">
<title>main&#45;console&#45;client.cpp</title>
<polygon fill="#ffffff" stroke="transparent" points="-4,4 -4,-214 479.9693,-214 479.9693,4 -4,4"/>
<!-- Node0 -->
<g id="node1" class="node">
<title>Node0</title>
<polygon fill="#bfbfbf" stroke="#000000" points="205.4693,-190.5 205.4693,-209.5 324.4693,-209.5 324.4693,-190.5 205.4693,-190.5"/>
<text text-anchor="middle" x="264.9693" y="-197.5" font-family="Helvetica,sans-Serif" font-size="10.00" fill="#000000">main&#45;console&#45;client.cpp</text>
</g>
<!-- Node1 -->
<g id="node2" class="node">
<title>Node1</title>
<g id="a_node2"><a xlink:href="Factory_8h.html" target="_top" xlink:title="Asteroids/Domain/Factory\l/Factory.h">
<polygon fill="#ffffff" stroke="#000000" points="14.4693,-123.5 14.4693,-153.5 145.4693,-153.5 145.4693,-123.5 14.4693,-123.5"/>
<text text-anchor="start" x="22.4693" y="-141.5" font-family="Helvetica,sans-Serif" font-size="10.00" fill="#000000">Asteroids/Domain/Factory</text>
<text text-anchor="middle" x="79.9693" y="-130.5" font-family="Helvetica,sans-Serif" font-size="10.00" fill="#000000">/Factory.h</text>
</a>
</g>
</g>
<!-- Node0&#45;&gt;Node1 -->
<g id="edge1" class="edge">
<title>Node0&#45;&gt;Node1</title>
<path fill="none" stroke="#191970" d="M236.0631,-190.3906C209.055,-181.4123 168.0278,-167.7735 134.8124,-156.7316"/>
<polygon fill="#191970" stroke="#191970" points="135.8189,-153.378 125.2254,-153.5446 133.6107,-160.0205 135.8189,-153.378"/>
</g>
<!-- Node5 -->
<g id="node6" class="node">
<title>Node5</title>
<g id="a_node6"><a xlink:href="UIFactoryInterface_8h.html" target="_top" xlink:title="Asteroids/UI/UIFactoryInterface.h">
<polygon fill="#ffffff" stroke="#000000" points="163.9693,-62 163.9693,-81 327.9693,-81 327.9693,-62 163.9693,-62"/>
<text text-anchor="middle" x="245.9693" y="-69" font-family="Helvetica,sans-Serif" font-size="10.00" fill="#000000">Asteroids/UI/UIFactoryInterface.h</text>
</a>
</g>
</g>
<!-- Node0&#45;&gt;Node5 -->
<g id="edge6" class="edge">
<title>Node0&#45;&gt;Node5</title>
<path fill="none" stroke="#191970" d="M263.5412,-190.3416C260.4465,-169.4114 253.0672,-119.504 248.923,-91.4762"/>
<polygon fill="#191970" stroke="#191970" points="252.3391,-90.6509 247.414,-81.2705 245.4144,-91.6749 252.3391,-90.6509"/>
</g>
<!-- Node6 -->
<g id="node7" class="node">
<title>Node6</title>
<g id="a_node7"><a xlink:href="ClientTextUIInterface_8h.html" target="_top" xlink:title="Asteroids/UI/ClientTextUI\l/ClientTextUIInterface.h">
<polygon fill="#ffffff" stroke="#000000" points="345.9693,-56.5 345.9693,-86.5 475.9693,-86.5 475.9693,-56.5 345.9693,-56.5"/>
<text text-anchor="start" x="353.9693" y="-74.5" font-family="Helvetica,sans-Serif" font-size="10.00" fill="#000000">Asteroids/UI/ClientTextUI</text>
<text text-anchor="middle" x="410.9693" y="-63.5" font-family="Helvetica,sans-Serif" font-size="10.00" fill="#000000">/ClientTextUIInterface.h</text>
</a>
</g>
</g>
<!-- Node0&#45;&gt;Node6 -->
<g id="edge9" class="edge">
<title>Node0&#45;&gt;Node6</title>
<path fill="none" stroke="#191970" d="M267.5118,-190.2451C272.1151,-174.2975 283.2312,-142.4738 302.9693,-123 316.9432,-109.2133 335.317,-98.5874 352.9382,-90.6674"/>
<polygon fill="#191970" stroke="#191970" points="354.7901,-93.6829 362.6177,-86.5429 352.046,-87.2431 354.7901,-93.6829"/>
</g>
<!-- Node7 -->
<g id="node8" class="node">
<title>Node7</title>
<polygon fill="#ffffff" stroke="#bfbfbf" points="311.9693,-129 311.9693,-148 365.9693,-148 365.9693,-129 311.9693,-129"/>
<text text-anchor="middle" x="338.9693" y="-136" font-family="Helvetica,sans-Serif" font-size="10.00" fill="#000000">iostream</text>
</g>
<!-- Node0&#45;&gt;Node7 -->
<g id="edge11" class="edge">
<title>Node0&#45;&gt;Node7</title>
<path fill="none" stroke="#191970" d="M276.5318,-190.3906C287.9772,-180.8786 305.7166,-166.1357 319.3663,-154.7917"/>
<polygon fill="#191970" stroke="#191970" points="321.7901,-157.3283 327.2438,-148.2449 317.316,-151.9447 321.7901,-157.3283"/>
</g>
<!-- Node2 -->
<g id="node3" class="node">
<title>Node2</title>
<g id="a_node3"><a xlink:href="FactoryInterface_8h.html" target="_top" xlink:title="Asteroids/Domain/Factory\l/FactoryInterface.h">
<polygon fill="#ffffff" stroke="#000000" points="14.4693,-56.5 14.4693,-86.5 145.4693,-86.5 145.4693,-56.5 14.4693,-56.5"/>
<text text-anchor="start" x="22.4693" y="-74.5" font-family="Helvetica,sans-Serif" font-size="10.00" fill="#000000">Asteroids/Domain/Factory</text>
<text text-anchor="middle" x="79.9693" y="-63.5" font-family="Helvetica,sans-Serif" font-size="10.00" fill="#000000">/FactoryInterface.h</text>
</a>
</g>
</g>
<!-- Node1&#45;&gt;Node2 -->
<g id="edge2" class="edge">
<title>Node1&#45;&gt;Node2</title>
<path fill="none" stroke="#191970" d="M79.9693,-123.2967C79.9693,-115.5013 79.9693,-105.7991 79.9693,-96.9064"/>
<polygon fill="#191970" stroke="#191970" points="83.4694,-96.6431 79.9693,-86.6432 76.4694,-96.6432 83.4694,-96.6431"/>
</g>
<!-- Node4 -->
<g id="node5" class="node">
<title>Node4</title>
<polygon fill="#ffffff" stroke="#bfbfbf" points="53.9693,-.5 53.9693,-19.5 105.9693,-19.5 105.9693,-.5 53.9693,-.5"/>
<text text-anchor="middle" x="79.9693" y="-7.5" font-family="Helvetica,sans-Serif" font-size="10.00" fill="#000000">memory</text>
</g>
<!-- Node1&#45;&gt;Node4 -->
<g id="edge5" class="edge">
<title>Node1&#45;&gt;Node4</title>
<path fill="none" stroke="#191970" d="M44.4762,-123.4687C29.4243,-115.0984 13.4302,-103.0734 4.9693,-87 -1.4484,-74.8082 -1.7605,-68.0224 4.9693,-56 13.5576,-40.6575 29.5862,-29.812 44.6276,-22.5214"/>
<polygon fill="#191970" stroke="#191970" points="46.0842,-25.7041 53.7901,-18.4329 43.2318,-19.3117 46.0842,-25.7041"/>
</g>
<!-- Node3 -->
<g id="node4" class="node">
<title>Node3</title>
<g id="a_node4"><a xlink:href="ForwardDeclarations_8h.html" target="_top" xlink:title="Asteroids/ForwardDeclarations.h">
<polygon fill="#ffffff" stroke="#000000" points="166.4693,-.5 166.4693,-19.5 325.4693,-19.5 325.4693,-.5 166.4693,-.5"/>
<text text-anchor="middle" x="245.9693" y="-7.5" font-family="Helvetica,sans-Serif" font-size="10.00" fill="#000000">Asteroids/ForwardDeclarations.h</text>
</a>
</g>
</g>
<!-- Node2&#45;&gt;Node3 -->
<g id="edge3" class="edge">
<title>Node2&#45;&gt;Node3</title>
<path fill="none" stroke="#191970" d="M120.5775,-56.4554C148.1535,-46.239 184.2635,-32.8609 210.6476,-23.0861"/>
<polygon fill="#191970" stroke="#191970" points="212.084,-26.2864 220.2452,-19.5303 209.6521,-19.7224 212.084,-26.2864"/>
</g>
<!-- Node2&#45;&gt;Node4 -->
<g id="edge4" class="edge">
<title>Node2&#45;&gt;Node4</title>
<path fill="none" stroke="#191970" d="M79.9693,-56.2977C79.9693,-48.3834 79.9693,-38.6043 79.9693,-30.0759"/>
<polygon fill="#191970" stroke="#191970" points="83.4694,-29.8469 79.9693,-19.8469 76.4694,-29.847 83.4694,-29.8469"/>
</g>
<!-- Node5&#45;&gt;Node3 -->
<g id="edge7" class="edge">
<title>Node5&#45;&gt;Node3</title>
<path fill="none" stroke="#191970" d="M245.9693,-61.8906C245.9693,-53.3657 245.9693,-40.6392 245.9693,-29.9235"/>
<polygon fill="#191970" stroke="#191970" points="249.4694,-29.7448 245.9693,-19.7449 242.4694,-29.7449 249.4694,-29.7448"/>
</g>
<!-- Node5&#45;&gt;Node4 -->
<g id="edge8" class="edge">
<title>Node5&#45;&gt;Node4</title>
<path fill="none" stroke="#191970" d="M220.0318,-61.8906C191.8915,-51.4652 146.79,-34.7559 115.3967,-23.1252"/>
<polygon fill="#191970" stroke="#191970" points="116.3178,-19.734 105.7247,-19.5419 113.8859,-26.298 116.3178,-19.734"/>
</g>
<!-- Node6&#45;&gt;Node3 -->
<g id="edge10" class="edge">
<title>Node6&#45;&gt;Node3</title>
<path fill="none" stroke="#191970" d="M370.6058,-56.4554C343.1958,-46.239 307.3034,-32.8609 281.0783,-23.0861"/>
<polygon fill="#191970" stroke="#191970" points="282.1312,-19.7433 271.5385,-19.5303 279.6863,-26.3025 282.1312,-19.7433"/>
</g>
</g>
</svg>
