<?xml version="1.0" encoding="UTF-8" standalone="no"?>
<!DOCTYPE svg PUBLIC "-//W3C//DTD SVG 1.1//EN"
 "http://www.w3.org/Graphics/SVG/1.1/DTD/svg11.dtd">
<!-- Generated by graphviz version 2.40.1 (20161225.0304)
 -->
<!-- Title: TechnicalServices/Financial/MastercardProcessor.cpp Pages: 1 -->
<svg width="283pt" height="229pt"
 viewBox="0.00 0.00 283.00 229.00" xmlns="http://www.w3.org/2000/svg" xmlns:xlink="http://www.w3.org/1999/xlink">
<g id="graph0" class="graph" transform="scale(1 1) rotate(0) translate(4 225)">
<title>TechnicalServices/Financial/MastercardProcessor.cpp</title>
<polygon fill="#ffffff" stroke="transparent" points="-4,4 -4,-225 279,-225 279,4 -4,4"/>
<!-- Node0 -->
<g id="node1" class="node">
<title>Node0</title>
<polygon fill="#bfbfbf" stroke="#000000" points="136,-190.5 136,-220.5 275,-220.5 275,-190.5 136,-190.5"/>
<text text-anchor="start" x="144" y="-208.5" font-family="Helvetica,sans-Serif" font-size="10.00" fill="#000000">TechnicalServices/Financial</text>
<text text-anchor="middle" x="205.5" y="-197.5" font-family="Helvetica,sans-Serif" font-size="10.00" fill="#000000">/MastercardProcessor.cpp</text>
</g>
<!-- Node1 -->
<g id="node2" class="node">
<title>Node1</title>
<g id="a_node2"><a xlink:href="MastercardProcessor_8h.html" target="_top" xlink:title="Asteroids/TechnicalServices\l/Financial/MastercardProcessor.h">
<polygon fill="#ffffff" stroke="#000000" points="60,-123.5 60,-153.5 223,-153.5 223,-123.5 60,-123.5"/>
<text text-anchor="start" x="68" y="-141.5" font-family="Helvetica,sans-Serif" font-size="10.00" fill="#000000">Asteroids/TechnicalServices</text>
<text text-anchor="middle" x="141.5" y="-130.5" font-family="Helvetica,sans-Serif" font-size="10.00" fill="#000000">/Financial/MastercardProcessor.h</text>
</a>
</g>
</g>
<!-- Node0&#45;&gt;Node1 -->
<g id="edge1" class="edge">
<title>Node0&#45;&gt;Node1</title>
<path fill="none" stroke="#191970" d="M190.9774,-190.2967C182.7128,-181.6446 172.2045,-170.6438 162.9998,-161.0076"/>
<polygon fill="#191970" stroke="#191970" points="165.4034,-158.4567 155.9651,-153.6432 160.3416,-163.2919 165.4034,-158.4567"/>
</g>
<!-- Node4 -->
<g id="node5" class="node">
<title>Node4</title>
<polygon fill="#ffffff" stroke="#bfbfbf" points="182,-.5 182,-19.5 223,-19.5 223,-.5 182,-.5"/>
<text text-anchor="middle" x="202.5" y="-7.5" font-family="Helvetica,sans-Serif" font-size="10.00" fill="#000000">string</text>
</g>
<!-- Node0&#45;&gt;Node4 -->
<g id="edge6" class="edge">
<title>Node0&#45;&gt;Node4</title>
<path fill="none" stroke="#191970" d="M216.9614,-190.2582C236.1345,-162.7747 270.7131,-103.3673 250.5,-56 245.3844,-44.0122 235.4425,-33.6498 225.9273,-25.8114"/>
<polygon fill="#191970" stroke="#191970" points="227.8754,-22.8949 217.8074,-19.5954 223.6203,-28.4532 227.8754,-22.8949"/>
</g>
<!-- Node2 -->
<g id="node3" class="node">
<title>Node2</title>
<g id="a_node3"><a xlink:href="ForwardDeclarations_8h.html" target="_top" xlink:title="Asteroids/ForwardDeclarations.h">
<polygon fill="#ffffff" stroke="#000000" points="0,-.5 0,-19.5 159,-19.5 159,-.5 0,-.5"/>
<text text-anchor="middle" x="79.5" y="-7.5" font-family="Helvetica,sans-Serif" font-size="10.00" fill="#000000">Asteroids/ForwardDeclarations.h</text>
</a>
</g>
</g>
<!-- Node1&#45;&gt;Node2 -->
<g id="edge2" class="edge">
<title>Node1&#45;&gt;Node2</title>
<path fill="none" stroke="#191970" d="M80.1617,-123.4253C61.6452,-115.697 43.3647,-104.1497 32.5,-87 25.1266,-75.3613 27.1591,-68.7005 32.5,-56 37.4978,-44.1153 47.2314,-33.765 56.5503,-25.908"/>
<polygon fill="#191970" stroke="#191970" points="58.7957,-28.5951 64.5035,-19.6692 54.4752,-23.0874 58.7957,-28.5951"/>
</g>
<!-- Node3 -->
<g id="node4" class="node">
<title>Node3</title>
<g id="a_node4"><a xlink:href="CreditCardProcessorInterface_8h.html" target="_top" xlink:title="Asteroids/TechnicalServices\l/Financial/CreditCardProcessorInterface.h">
<polygon fill="#ffffff" stroke="#000000" points="41.5,-56.5 41.5,-86.5 241.5,-86.5 241.5,-56.5 41.5,-56.5"/>
<text text-anchor="start" x="49.5" y="-74.5" font-family="Helvetica,sans-Serif" font-size="10.00" fill="#000000">Asteroids/TechnicalServices</text>
<text text-anchor="middle" x="141.5" y="-63.5" font-family="Helvetica,sans-Serif" font-size="10.00" fill="#000000">/Financial/CreditCardProcessorInterface.h</text>
</a>
</g>
</g>
<!-- Node1&#45;&gt;Node3 -->
<g id="edge3" class="edge">
<title>Node1&#45;&gt;Node3</title>
<path fill="none" stroke="#191970" d="M141.5,-123.2967C141.5,-115.5013 141.5,-105.7991 141.5,-96.9064"/>
<polygon fill="#191970" stroke="#191970" points="145.0001,-96.6431 141.5,-86.6432 138.0001,-96.6432 145.0001,-96.6431"/>
</g>
<!-- Node3&#45;&gt;Node2 -->
<g id="edge4" class="edge">
<title>Node3&#45;&gt;Node2</title>
<path fill="none" stroke="#191970" d="M126.1742,-56.2977C117.2093,-47.4052 105.8712,-36.1586 96.6149,-26.9769"/>
<polygon fill="#191970" stroke="#191970" points="98.9915,-24.4045 89.427,-19.8469 94.0618,-29.3742 98.9915,-24.4045"/>
</g>
<!-- Node3&#45;&gt;Node4 -->
<g id="edge5" class="edge">
<title>Node3&#45;&gt;Node4</title>
<path fill="none" stroke="#191970" d="M156.5787,-56.2977C165.3989,-47.4052 176.5541,-36.1586 185.6612,-26.9769"/>
<polygon fill="#191970" stroke="#191970" points="188.1759,-29.4116 192.7331,-19.8469 183.206,-24.4821 188.1759,-29.4116"/>
</g>
</g>
</svg>
