<?xml version="1.0" encoding="UTF-8" standalone="no"?>
<!DOCTYPE svg PUBLIC "-//W3C//DTD SVG 1.1//EN"
 "http://www.w3.org/Graphics/SVG/1.1/DTD/svg11.dtd">
<!-- Generated by graphviz version 2.40.1 (20161225.0304)
 -->
<!-- Title: Domain/Net/NetFactoryInterface.h Pages: 1 -->
<svg width="634pt" height="151pt"
 viewBox="0.00 0.00 633.50 151.00" xmlns="http://www.w3.org/2000/svg" xmlns:xlink="http://www.w3.org/1999/xlink">
<g id="graph0" class="graph" transform="scale(1 1) rotate(0) translate(4 147)">
<title>Domain/Net/NetFactoryInterface.h</title>
<polygon fill="#ffffff" stroke="transparent" points="-4,4 -4,-147 629.5,-147 629.5,4 -4,4"/>
<!-- Node3 -->
<g id="node1" class="node">
<title>Node3</title>
<polygon fill="#bfbfbf" stroke="#000000" points="306,-123.5 306,-142.5 473,-142.5 473,-123.5 306,-123.5"/>
<text text-anchor="middle" x="389.5" y="-130.5" font-family="Helvetica,sans-Serif" font-size="10.00" fill="#000000">Domain/Net/NetFactoryInterface.h</text>
</g>
<!-- Node4 -->
<g id="node2" class="node">
<title>Node4</title>
<g id="a_node2"><a xlink:href="NetFactory_8h.html" target="_top" xlink:title="Domain/Net/NetFactory.h">
<polygon fill="#ffffff" stroke="#000000" points="104,-67.5 104,-86.5 233,-86.5 233,-67.5 104,-67.5"/>
<text text-anchor="middle" x="168.5" y="-74.5" font-family="Helvetica,sans-Serif" font-size="10.00" fill="#000000">Domain/Net/NetFactory.h</text>
</a>
</g>
</g>
<!-- Node3&#45;&gt;Node4 -->
<g id="edge1" class="edge">
<title>Node3&#45;&gt;Node4</title>
<path fill="none" stroke="#191970" d="M341.8137,-120.9166C301.164,-110.6162 243.5333,-96.013 206.0845,-86.5237"/>
<polygon fill="#191970" stroke="#191970" points="341.2065,-124.3733 351.7599,-123.4369 342.9259,-117.5877 341.2065,-124.3733"/>
</g>
<!-- Node7 -->
<g id="node5" class="node">
<title>Node7</title>
<g id="a_node5"><a xlink:href="PaymentHelper_8cpp.html" target="_top" xlink:title="Domain/Store/PaymentHelper.cpp">
<polygon fill="#ffffff" stroke="#000000" points="251.5,-67.5 251.5,-86.5 417.5,-86.5 417.5,-67.5 251.5,-67.5"/>
<text text-anchor="middle" x="334.5" y="-74.5" font-family="Helvetica,sans-Serif" font-size="10.00" fill="#000000">Domain/Store/PaymentHelper.cpp</text>
</a>
</g>
</g>
<!-- Node3&#45;&gt;Node7 -->
<g id="edge4" class="edge">
<title>Node3&#45;&gt;Node7</title>
<path fill="none" stroke="#191970" d="M372.8774,-116.0751C363.4145,-106.4402 351.9031,-94.7196 343.9705,-86.6427"/>
<polygon fill="#191970" stroke="#191970" points="370.4155,-118.5635 379.9197,-123.2455 375.4097,-113.6585 370.4155,-118.5635"/>
</g>
<!-- Node8 -->
<g id="node6" class="node">
<title>Node8</title>
<g id="a_node6"><a xlink:href="ClientTextUI_8cpp.html" target="_top" xlink:title="UI/ClientTextUI/ClientText\lUI.cpp">
<polygon fill="#ffffff" stroke="#000000" points="378.5,-.5 378.5,-30.5 512.5,-30.5 512.5,-.5 378.5,-.5"/>
<text text-anchor="start" x="386.5" y="-18.5" font-family="Helvetica,sans-Serif" font-size="10.00" fill="#000000">UI/ClientTextUI/ClientText</text>
<text text-anchor="middle" x="445.5" y="-7.5" font-family="Helvetica,sans-Serif" font-size="10.00" fill="#000000">UI.cpp</text>
</a>
</g>
</g>
<!-- Node3&#45;&gt;Node8 -->
<g id="edge5" class="edge">
<title>Node3&#45;&gt;Node8</title>
<path fill="none" stroke="#191970" d="M406.1527,-115.8638C413.3093,-107.6866 421.2236,-97.4245 426.5,-87 435.7226,-68.7791 440.8184,-45.6103 443.356,-30.6687"/>
<polygon fill="#191970" stroke="#191970" points="403.5409,-113.5335 399.3746,-123.2748 408.7063,-118.2578 403.5409,-113.5335"/>
</g>
<!-- Node9 -->
<g id="node7" class="node">
<title>Node9</title>
<g id="a_node7"><a xlink:href="ClientTextUI_8h.html" target="_top" xlink:title="UI/ClientTextUI/ClientTextUI.h">
<polygon fill="#ffffff" stroke="#000000" points="473.5,-67.5 473.5,-86.5 625.5,-86.5 625.5,-67.5 473.5,-67.5"/>
<text text-anchor="middle" x="549.5" y="-74.5" font-family="Helvetica,sans-Serif" font-size="10.00" fill="#000000">UI/ClientTextUI/ClientTextUI.h</text>
</a>
</g>
</g>
<!-- Node3&#45;&gt;Node9 -->
<g id="edge6" class="edge">
<title>Node3&#45;&gt;Node9</title>
<path fill="none" stroke="#191970" d="M426.4799,-120.057C455.7618,-109.8084 495.9885,-95.729 522.3539,-86.5011"/>
<polygon fill="#191970" stroke="#191970" points="425.2873,-116.7662 417.005,-123.3733 427.5998,-123.3732 425.2873,-116.7662"/>
</g>
<!-- Node5 -->
<g id="node3" class="node">
<title>Node5</title>
<g id="a_node3"><a xlink:href="Factory_8cpp.html" target="_top" xlink:title="Domain/Factory/Factory.cpp">
<polygon fill="#ffffff" stroke="#000000" points="0,-6 0,-25 141,-25 141,-6 0,-6"/>
<text text-anchor="middle" x="70.5" y="-13" font-family="Helvetica,sans-Serif" font-size="10.00" fill="#000000">Domain/Factory/Factory.cpp</text>
</a>
</g>
</g>
<!-- Node4&#45;&gt;Node5 -->
<g id="edge2" class="edge">
<title>Node4&#45;&gt;Node5</title>
<path fill="none" stroke="#191970" d="M144.5084,-61.944C126.1578,-50.4281 101.4138,-34.9 85.705,-25.0419"/>
<polygon fill="#191970" stroke="#191970" points="142.8568,-65.0397 153.1875,-67.3906 146.5777,-59.1105 142.8568,-65.0397"/>
</g>
<!-- Node6 -->
<g id="node4" class="node">
<title>Node6</title>
<g id="a_node4"><a xlink:href="NetFactory_8cpp.html" target="_top" xlink:title="Domain/Net/NetFactory.cpp">
<polygon fill="#ffffff" stroke="#000000" points="159.5,-6 159.5,-25 299.5,-25 299.5,-6 159.5,-6"/>
<text text-anchor="middle" x="229.5" y="-13" font-family="Helvetica,sans-Serif" font-size="10.00" fill="#000000">Domain/Net/NetFactory.cpp</text>
</a>
</g>
</g>
<!-- Node4&#45;&gt;Node6 -->
<g id="edge3" class="edge">
<title>Node4&#45;&gt;Node6</title>
<path fill="none" stroke="#191970" d="M185.1383,-60.2253C196.2696,-49.0028 210.5297,-34.6258 219.8344,-25.2449"/>
<polygon fill="#191970" stroke="#191970" points="182.5885,-57.826 178.0313,-67.3906 187.5584,-62.7555 182.5885,-57.826"/>
</g>
<!-- Node9&#45;&gt;Node8 -->
<g id="edge7" class="edge">
<title>Node9&#45;&gt;Node8</title>
<path fill="none" stroke="#191970" d="M524.3432,-62.1236C508.1551,-52.5508 487.185,-40.1502 470.9413,-30.5446"/>
<polygon fill="#191970" stroke="#191970" points="522.8608,-65.3132 533.25,-67.3906 526.4239,-59.2878 522.8608,-65.3132"/>
</g>
<!-- Node10 -->
<g id="node8" class="node">
<title>Node10</title>
<g id="a_node8"><a xlink:href="UIFactory_8cpp.html" target="_top" xlink:title="UI/UIFactory.cpp">
<polygon fill="#ffffff" stroke="#000000" points="530.5,-6 530.5,-25 622.5,-25 622.5,-6 530.5,-6"/>
<text text-anchor="middle" x="576.5" y="-13" font-family="Helvetica,sans-Serif" font-size="10.00" fill="#000000">UI/UIFactory.cpp</text>
</a>
</g>
</g>
<!-- Node9&#45;&gt;Node10 -->
<g id="edge8" class="edge">
<title>Node9&#45;&gt;Node10</title>
<path fill="none" stroke="#191970" d="M557.8771,-57.9189C562.6312,-47.0901 568.3805,-33.9944 572.2218,-25.2449"/>
<polygon fill="#191970" stroke="#191970" points="554.534,-56.8272 553.7188,-67.3906 560.9435,-59.6412 554.534,-56.8272"/>
</g>
</g>
</svg>
