<?xml version="1.0" encoding="UTF-8" standalone="no"?>
<!DOCTYPE svg PUBLIC "-//W3C//DTD SVG 1.1//EN"
 "http://www.w3.org/Graphics/SVG/1.1/DTD/svg11.dtd">
<!-- Generated by graphviz version 2.40.1 (20161225.0304)
 -->
<!-- Title: Domain/Net/NetFactory.h Pages: 1 -->
<svg width="308pt" height="84pt"
 viewBox="0.00 0.00 307.50 84.00" xmlns="http://www.w3.org/2000/svg" xmlns:xlink="http://www.w3.org/1999/xlink">
<g id="graph0" class="graph" transform="scale(1 1) rotate(0) translate(4 80)">
<title>Domain/Net/NetFactory.h</title>
<polygon fill="#ffffff" stroke="transparent" points="-4,4 -4,-80 303.5,-80 303.5,4 -4,4"/>
<!-- Node9 -->
<g id="node1" class="node">
<title>Node9</title>
<polygon fill="#bfbfbf" stroke="#000000" points="85,-56.5 85,-75.5 214,-75.5 214,-56.5 85,-56.5"/>
<text text-anchor="middle" x="149.5" y="-63.5" font-family="Helvetica,sans-Serif" font-size="10.00" fill="#000000">Domain/Net/NetFactory.h</text>
</g>
<!-- Node10 -->
<g id="node2" class="node">
<title>Node10</title>
<g id="a_node2"><a xlink:href="Factory_8cpp.html" target="_top" xlink:title="Domain/Factory/Factory.cpp">
<polygon fill="#ffffff" stroke="#000000" points="0,-.5 0,-19.5 141,-19.5 141,-.5 0,-.5"/>
<text text-anchor="middle" x="70.5" y="-7.5" font-family="Helvetica,sans-Serif" font-size="10.00" fill="#000000">Domain/Factory/Factory.cpp</text>
</a>
</g>
</g>
<!-- Node9&#45;&gt;Node10 -->
<g id="edge1" class="edge">
<title>Node9&#45;&gt;Node10</title>
<path fill="none" stroke="#191970" d="M127.2244,-50.2097C113.3495,-40.3743 95.9485,-28.0394 84.1031,-19.6427"/>
<polygon fill="#191970" stroke="#191970" points="125.5569,-53.3178 135.7393,-56.2455 129.6051,-47.6071 125.5569,-53.3178"/>
</g>
<!-- Node11 -->
<g id="node3" class="node">
<title>Node11</title>
<g id="a_node3"><a xlink:href="NetFactory_8cpp.html" target="_top" xlink:title="Domain/Net/NetFactory.cpp">
<polygon fill="#ffffff" stroke="#000000" points="159.5,-.5 159.5,-19.5 299.5,-19.5 299.5,-.5 159.5,-.5"/>
<text text-anchor="middle" x="229.5" y="-7.5" font-family="Helvetica,sans-Serif" font-size="10.00" fill="#000000">Domain/Net/NetFactory.cpp</text>
</a>
</g>
</g>
<!-- Node9&#45;&gt;Node11 -->
<g id="edge2" class="edge">
<title>Node9&#45;&gt;Node11</title>
<path fill="none" stroke="#191970" d="M171.6571,-50.49C185.772,-40.6096 203.6151,-28.1194 215.7248,-19.6427"/>
<polygon fill="#191970" stroke="#191970" points="169.6201,-47.6436 163.4349,-56.2455 173.6344,-53.3782 169.6201,-47.6436"/>
</g>
</g>
</svg>
