<?xml version="1.0" encoding="UTF-8" standalone="no"?>
<!DOCTYPE svg PUBLIC "-//W3C//DTD SVG 1.1//EN"
 "http://www.w3.org/Graphics/SVG/1.1/DTD/svg11.dtd">
<!-- Generated by graphviz version 2.40.1 (20161225.0304)
 -->
<!-- Title: Domain/Net/NetFactory.cpp Pages: 1 -->
<svg width="648pt" height="296pt"
 viewBox="0.00 0.00 647.61 296.00" xmlns="http://www.w3.org/2000/svg" xmlns:xlink="http://www.w3.org/1999/xlink">
<g id="graph0" class="graph" transform="scale(1 1) rotate(0) translate(4 292)">
<title>Domain/Net/NetFactory.cpp</title>
<polygon fill="#ffffff" stroke="transparent" points="-4,4 -4,-292 643.6122,-292 643.6122,4 -4,4"/>
<!-- Node0 -->
<g id="node1" class="node">
<title>Node0</title>
<polygon fill="#bfbfbf" stroke="#000000" points="278.5077,-268.5 278.5077,-287.5 418.5077,-287.5 418.5077,-268.5 278.5077,-268.5"/>
<text text-anchor="middle" x="348.5077" y="-275.5" font-family="Helvetica,sans-Serif" font-size="10.00" fill="#000000">Domain/Net/NetFactory.cpp</text>
</g>
<!-- Node1 -->
<g id="node2" class="node">
<title>Node1</title>
<g id="a_node2"><a xlink:href="NetFactory_8h.html" target="_top" xlink:title="Asteroids/Domain/Net\l/NetFactory.h">
<polygon fill="#ffffff" stroke="#000000" points="292.0077,-201.5 292.0077,-231.5 405.0077,-231.5 405.0077,-201.5 292.0077,-201.5"/>
<text text-anchor="start" x="300.0077" y="-219.5" font-family="Helvetica,sans-Serif" font-size="10.00" fill="#000000">Asteroids/Domain/Net</text>
<text text-anchor="middle" x="348.5077" y="-208.5" font-family="Helvetica,sans-Serif" font-size="10.00" fill="#000000">/NetFactory.h</text>
</a>
</g>
</g>
<!-- Node0&#45;&gt;Node1 -->
<g id="edge1" class="edge">
<title>Node0&#45;&gt;Node1</title>
<path fill="none" stroke="#191970" d="M348.5077,-268.3906C348.5077,-261.2234 348.5077,-251.0862 348.5077,-241.671"/>
<polygon fill="#191970" stroke="#191970" points="352.0078,-241.5446 348.5077,-231.5446 345.0078,-241.5446 352.0078,-241.5446"/>
</g>
<!-- Node2 -->
<g id="node3" class="node">
<title>Node2</title>
<g id="a_node3"><a xlink:href="ForwardDeclarations_8h.html" target="_top" xlink:title="Asteroids/ForwardDeclarations.h">
<polygon fill="#ffffff" stroke="#000000" points="15.0077,-.5 15.0077,-19.5 174.0077,-19.5 174.0077,-.5 15.0077,-.5"/>
<text text-anchor="middle" x="94.5077" y="-7.5" font-family="Helvetica,sans-Serif" font-size="10.00" fill="#000000">Asteroids/ForwardDeclarations.h</text>
</a>
</g>
</g>
<!-- Node1&#45;&gt;Node2 -->
<g id="edge2" class="edge">
<title>Node1&#45;&gt;Node2</title>
<path fill="none" stroke="#191970" d="M291.9496,-210.1479C222.5407,-201.6342 109.5031,-185.2258 72.5077,-165 23.4118,-138.1587 -19.1343,-104.0677 9.5077,-56 18.3988,-41.0789 33.9974,-30.7035 49.4254,-23.6373"/>
<polygon fill="#191970" stroke="#191970" points="51.0731,-26.742 58.948,-19.6541 48.3719,-20.2841 51.0731,-26.742"/>
</g>
<!-- Node3 -->
<g id="node4" class="node">
<title>Node3</title>
<g id="a_node4"><a xlink:href="NetFactoryInterface_8h.html" target="_top" xlink:title="Asteroids/Domain/Net\l/NetFactoryInterface.h">
<polygon fill="#ffffff" stroke="#000000" points="507.0077,-62 507.0077,-92 622.0077,-92 622.0077,-62 507.0077,-62"/>
<text text-anchor="start" x="515.0077" y="-80" font-family="Helvetica,sans-Serif" font-size="10.00" fill="#000000">Asteroids/Domain/Net</text>
<text text-anchor="middle" x="564.5077" y="-69" font-family="Helvetica,sans-Serif" font-size="10.00" fill="#000000">/NetFactoryInterface.h</text>
</a>
</g>
</g>
<!-- Node1&#45;&gt;Node3 -->
<g id="edge3" class="edge">
<title>Node1&#45;&gt;Node3</title>
<path fill="none" stroke="#191970" d="M373.9903,-201.4836C390.9752,-191.3714 413.7282,-177.6258 433.5077,-165 468.3655,-142.7493 507.6582,-116.1454 534.0387,-98.0565"/>
<polygon fill="#191970" stroke="#191970" points="536.205,-100.8147 542.4651,-92.267 532.241,-95.0452 536.205,-100.8147"/>
</g>
<!-- Node4 -->
<g id="node5" class="node">
<title>Node4</title>
<polygon fill="#ffffff" stroke="#bfbfbf" points="452.5077,-.5 452.5077,-19.5 504.5077,-19.5 504.5077,-.5 452.5077,-.5"/>
<text text-anchor="middle" x="478.5077" y="-7.5" font-family="Helvetica,sans-Serif" font-size="10.00" fill="#000000">memory</text>
</g>
<!-- Node1&#45;&gt;Node4 -->
<g id="edge20" class="edge">
<title>Node1&#45;&gt;Node4</title>
<path fill="none" stroke="#191970" d="M405.2883,-210.9763C472.3699,-201.0682 581.1977,-173.6088 631.5077,-98 641.8485,-82.4593 642.6459,-70.9795 631.5077,-56 617.5387,-37.2134 555.4668,-23.2015 514.8037,-15.8359"/>
<polygon fill="#191970" stroke="#191970" points="515.1718,-12.3471 504.7172,-14.0647 513.9611,-19.2416 515.1718,-12.3471"/>
</g>
<!-- Node5 -->
<g id="node6" class="node">
<title>Node5</title>
<g id="a_node6"><a xlink:href="ClientServerCommunicator_8h.html" target="_top" xlink:title="Asteroids/Domain/Net\l/ClientServerCommunicator.h">
<polygon fill="#ffffff" stroke="#000000" points="81.5077,-134.5 81.5077,-164.5 227.5077,-164.5 227.5077,-134.5 81.5077,-134.5"/>
<text text-anchor="start" x="89.5077" y="-152.5" font-family="Helvetica,sans-Serif" font-size="10.00" fill="#000000">Asteroids/Domain/Net</text>
<text text-anchor="middle" x="154.5077" y="-141.5" font-family="Helvetica,sans-Serif" font-size="10.00" fill="#000000">/ClientServerCommunicator.h</text>
</a>
</g>
</g>
<!-- Node1&#45;&gt;Node5 -->
<g id="edge6" class="edge">
<title>Node1&#45;&gt;Node5</title>
<path fill="none" stroke="#191970" d="M304.9703,-201.4639C276.241,-191.5419 238.4124,-178.4774 207.8734,-167.9304"/>
<polygon fill="#191970" stroke="#191970" points="208.8298,-164.5579 198.235,-164.6017 206.5446,-171.1744 208.8298,-164.5579"/>
</g>
<!-- Node8 -->
<g id="node9" class="node">
<title>Node8</title>
<g id="a_node9"><a xlink:href="Authenticator_8h.html" target="_top" xlink:title="Asteroids/Domain/Net\l/Authentication/Authenticator.h">
<polygon fill="#ffffff" stroke="#000000" points="273.0077,-134.5 273.0077,-164.5 424.0077,-164.5 424.0077,-134.5 273.0077,-134.5"/>
<text text-anchor="start" x="281.0077" y="-152.5" font-family="Helvetica,sans-Serif" font-size="10.00" fill="#000000">Asteroids/Domain/Net</text>
<text text-anchor="middle" x="348.5077" y="-141.5" font-family="Helvetica,sans-Serif" font-size="10.00" fill="#000000">/Authentication/Authenticator.h</text>
</a>
</g>
</g>
<!-- Node1&#45;&gt;Node8 -->
<g id="edge12" class="edge">
<title>Node1&#45;&gt;Node8</title>
<path fill="none" stroke="#191970" d="M348.5077,-201.2967C348.5077,-193.5013 348.5077,-183.7991 348.5077,-174.9064"/>
<polygon fill="#191970" stroke="#191970" points="352.0078,-174.6431 348.5077,-164.6432 345.0078,-174.6432 352.0078,-174.6431"/>
</g>
<!-- Node3&#45;&gt;Node2 -->
<g id="edge4" class="edge">
<title>Node3&#45;&gt;Node2</title>
<path fill="none" stroke="#191970" d="M506.8765,-64.6972C491.5237,-61.6327 474.9206,-58.5092 459.5077,-56 366.0355,-40.783 258.3934,-27.7616 184.3535,-19.4973"/>
<polygon fill="#191970" stroke="#191970" points="184.4592,-15.9876 174.1341,-18.363 183.6869,-22.9449 184.4592,-15.9876"/>
</g>
<!-- Node3&#45;&gt;Node4 -->
<g id="edge5" class="edge">
<title>Node3&#45;&gt;Node4</title>
<path fill="none" stroke="#191970" d="M544.993,-61.7967C531.2035,-51.0537 512.7659,-36.6895 498.8049,-25.8129"/>
<polygon fill="#191970" stroke="#191970" points="500.8119,-22.9398 490.7723,-19.555 496.5099,-28.4618 500.8119,-22.9398"/>
</g>
<!-- Node5&#45;&gt;Node2 -->
<g id="edge7" class="edge">
<title>Node5&#45;&gt;Node2</title>
<path fill="none" stroke="#191970" d="M97.2032,-134.4995C65.1573,-124.8266 29.8219,-111.558 20.5077,-98 9.9379,-82.6142 11.4389,-72.3156 20.5077,-56 28.4656,-41.6832 42.9306,-31.2479 56.9744,-23.972"/>
<polygon fill="#191970" stroke="#191970" points="58.5479,-27.0993 66.0697,-19.6379 55.5366,-20.7801 58.5479,-27.0993"/>
</g>
<!-- Node6 -->
<g id="node7" class="node">
<title>Node6</title>
<g id="a_node7"><a xlink:href="ClientServerCommunicatorInterface_8h.html" target="_top" xlink:title="Asteroids/Domain/Net\l/ClientServerCommunicatorInterface.h">
<polygon fill="#ffffff" stroke="#000000" points="62.5077,-62 62.5077,-92 246.5077,-92 246.5077,-62 62.5077,-62"/>
<text text-anchor="start" x="70.5077" y="-80" font-family="Helvetica,sans-Serif" font-size="10.00" fill="#000000">Asteroids/Domain/Net</text>
<text text-anchor="middle" x="154.5077" y="-69" font-family="Helvetica,sans-Serif" font-size="10.00" fill="#000000">/ClientServerCommunicatorInterface.h</text>
</a>
</g>
</g>
<!-- Node5&#45;&gt;Node6 -->
<g id="edge8" class="edge">
<title>Node5&#45;&gt;Node6</title>
<path fill="none" stroke="#191970" d="M154.5077,-134.478C154.5077,-125.1459 154.5077,-112.9157 154.5077,-102.1368"/>
<polygon fill="#191970" stroke="#191970" points="158.0078,-102.0028 154.5077,-92.0028 151.0078,-102.0028 158.0078,-102.0028"/>
</g>
<!-- Node6&#45;&gt;Node2 -->
<g id="edge9" class="edge">
<title>Node6&#45;&gt;Node2</title>
<path fill="none" stroke="#191970" d="M140.8928,-61.7967C131.6353,-51.4591 119.375,-37.7684 109.7842,-27.0588"/>
<polygon fill="#191970" stroke="#191970" points="112.343,-24.6696 103.0644,-19.555 107.1283,-29.3394 112.343,-24.6696"/>
</g>
<!-- Node6&#45;&gt;Node4 -->
<g id="edge11" class="edge">
<title>Node6&#45;&gt;Node4</title>
<path fill="none" stroke="#191970" d="M227.2197,-61.9639C294.0719,-48.1395 390.4257,-28.2145 442.2468,-17.4984"/>
<polygon fill="#191970" stroke="#191970" points="443.2149,-20.8723 452.2989,-15.4197 441.7973,-14.0174 443.2149,-20.8723"/>
</g>
<!-- Node7 -->
<g id="node8" class="node">
<title>Node7</title>
<polygon fill="#ffffff" stroke="#bfbfbf" points="254.0077,-.5 254.0077,-19.5 295.0077,-19.5 295.0077,-.5 254.0077,-.5"/>
<text text-anchor="middle" x="274.5077" y="-7.5" font-family="Helvetica,sans-Serif" font-size="10.00" fill="#000000">string</text>
</g>
<!-- Node6&#45;&gt;Node7 -->
<g id="edge10" class="edge">
<title>Node6&#45;&gt;Node7</title>
<path fill="none" stroke="#191970" d="M181.4381,-61.9639C201.4818,-50.7728 228.686,-35.5838 248.5043,-24.5186"/>
<polygon fill="#191970" stroke="#191970" points="250.2817,-27.5349 257.3067,-19.6039 246.8692,-21.423 250.2817,-27.5349"/>
</g>
<!-- Node8&#45;&gt;Node2 -->
<g id="edge13" class="edge">
<title>Node8&#45;&gt;Node2</title>
<path fill="none" stroke="#191970" d="M272.6553,-138.7223C187.6222,-126.2754 60.5954,-106.4322 53.5077,-98 41.4969,-83.7107 46.8622,-73.4437 53.5077,-56 57.7352,-44.9034 66.0048,-34.7814 74.0165,-26.8751"/>
<polygon fill="#191970" stroke="#191970" points="76.7781,-29.0916 81.7829,-19.7534 72.0471,-23.9323 76.7781,-29.0916"/>
</g>
<!-- Node8&#45;&gt;Node4 -->
<g id="edge19" class="edge">
<title>Node8&#45;&gt;Node4</title>
<path fill="none" stroke="#191970" d="M405.9938,-134.3849C425.6047,-126.5369 445.9751,-114.9235 459.5077,-98 475.0928,-78.5098 478.6282,-49.1004 479.082,-29.7262"/>
<polygon fill="#191970" stroke="#191970" points="482.5819,-29.622 479.0609,-19.6294 475.5819,-29.6367 482.5819,-29.622"/>
</g>
<!-- Node8&#45;&gt;Node7 -->
<g id="edge18" class="edge">
<title>Node8&#45;&gt;Node7</title>
<path fill="none" stroke="#191970" d="M327.3784,-134.3479C315.983,-125.0948 302.6297,-112.3084 294.5077,-98 282.3454,-76.5737 277.5784,-48.2654 275.7105,-29.6148"/>
<polygon fill="#191970" stroke="#191970" points="279.198,-29.3186 274.8967,-19.6363 272.2212,-29.8877 279.198,-29.3186"/>
</g>
<!-- Node9 -->
<g id="node10" class="node">
<title>Node9</title>
<g id="a_node10"><a xlink:href="AuthenticationInterface_8h.html" target="_top" xlink:title="Asteroids/Domain/Net\l/Authentication/Authentication\lInterface.h">
<polygon fill="#ffffff" stroke="#000000" points="303.0077,-56.5 303.0077,-97.5 450.0077,-97.5 450.0077,-56.5 303.0077,-56.5"/>
<text text-anchor="start" x="311.0077" y="-85.5" font-family="Helvetica,sans-Serif" font-size="10.00" fill="#000000">Asteroids/Domain/Net</text>
<text text-anchor="start" x="311.0077" y="-74.5" font-family="Helvetica,sans-Serif" font-size="10.00" fill="#000000">/Authentication/Authentication</text>
<text text-anchor="middle" x="376.5077" y="-63.5" font-family="Helvetica,sans-Serif" font-size="10.00" fill="#000000">Interface.h</text>
</a>
</g>
</g>
<!-- Node8&#45;&gt;Node9 -->
<g id="edge14" class="edge">
<title>Node8&#45;&gt;Node9</title>
<path fill="none" stroke="#191970" d="M354.3093,-134.478C357.3766,-126.536 361.2545,-116.495 364.9077,-107.0359"/>
<polygon fill="#191970" stroke="#191970" points="368.2521,-108.091 368.5899,-97.5015 361.7222,-105.569 368.2521,-108.091"/>
</g>
<!-- Node9&#45;&gt;Node2 -->
<g id="edge15" class="edge">
<title>Node9&#45;&gt;Node2</title>
<path fill="none" stroke="#191970" d="M302.7839,-59.4841C252.9738,-47.6497 188.5332,-32.3394 144.6076,-21.9032"/>
<polygon fill="#191970" stroke="#191970" points="145.2712,-18.4635 134.733,-19.5571 143.6531,-25.2739 145.2712,-18.4635"/>
</g>
<!-- Node9&#45;&gt;Node4 -->
<g id="edge16" class="edge">
<title>Node9&#45;&gt;Node4</title>
<path fill="none" stroke="#191970" d="M407.9434,-56.3511C423.2128,-46.3212 441.2402,-34.4797 455.2515,-25.2762"/>
<polygon fill="#191970" stroke="#191970" points="457.373,-28.0702 463.8096,-19.6546 453.5299,-22.2195 457.373,-28.0702"/>
</g>
<!-- Node9&#45;&gt;Node7 -->
<g id="edge17" class="edge">
<title>Node9&#45;&gt;Node7</title>
<path fill="none" stroke="#191970" d="M345.0721,-56.3511C329.8026,-46.3212 311.7753,-34.4797 297.764,-25.2762"/>
<polygon fill="#191970" stroke="#191970" points="299.4855,-22.2195 289.2058,-19.6546 295.6424,-28.0702 299.4855,-22.2195"/>
</g>
</g>
</svg>
