<?xml version="1.0" encoding="UTF-8" standalone="no"?>
<!DOCTYPE svg PUBLIC "-//W3C//DTD SVG 1.1//EN"
 "http://www.w3.org/Graphics/SVG/1.1/DTD/svg11.dtd">
<!-- Generated by graphviz version 2.40.1 (20161225.0304)
 -->
<!-- Title: Domain/Store/PAYMENT_RESULT_DETAILS_INTERFACE.h Pages: 1 -->
<svg width="494pt" height="173pt"
 viewBox="0.00 0.00 493.50 173.00" xmlns="http://www.w3.org/2000/svg" xmlns:xlink="http://www.w3.org/1999/xlink">
<g id="graph0" class="graph" transform="scale(1 1) rotate(0) translate(4 169)">
<title>Domain/Store/PAYMENT_RESULT_DETAILS_INTERFACE.h</title>
<polygon fill="#ffffff" stroke="transparent" points="-4,4 -4,-169 489.5,-169 489.5,4 -4,4"/>
<!-- Node3 -->
<g id="node1" class="node">
<title>Node3</title>
<polygon fill="#bfbfbf" stroke="#000000" points="213,-134.5 213,-164.5 393,-164.5 393,-134.5 213,-134.5"/>
<text text-anchor="start" x="221" y="-152.5" font-family="Helvetica,sans-Serif" font-size="10.00" fill="#000000">Domain/Store/PAYMENT</text>
<text text-anchor="middle" x="303" y="-141.5" font-family="Helvetica,sans-Serif" font-size="10.00" fill="#000000">_RESULT_DETAILS_INTERFACE.h</text>
</g>
<!-- Node4 -->
<g id="node2" class="node">
<title>Node4</title>
<g id="a_node2"><a xlink:href="PAYMENT__RESULT__DETAILS_8h.html" target="_top" xlink:title="Domain/Store/PAYMENT\l_RESULT_DETAILS.h">
<polygon fill="#ffffff" stroke="#000000" points="165,-67.5 165,-97.5 293,-97.5 293,-67.5 165,-67.5"/>
<text text-anchor="start" x="173" y="-85.5" font-family="Helvetica,sans-Serif" font-size="10.00" fill="#000000">Domain/Store/PAYMENT</text>
<text text-anchor="middle" x="229" y="-74.5" font-family="Helvetica,sans-Serif" font-size="10.00" fill="#000000">_RESULT_DETAILS.h</text>
</a>
</g>
</g>
<!-- Node3&#45;&gt;Node4 -->
<g id="edge1" class="edge">
<title>Node3&#45;&gt;Node4</title>
<path fill="none" stroke="#191970" d="M278.6976,-127.4965C267.899,-117.7193 255.4582,-106.4554 245.7253,-97.6432"/>
<polygon fill="#191970" stroke="#191970" points="276.4461,-130.1794 286.2083,-134.2967 281.1444,-124.9903 276.4461,-130.1794"/>
</g>
<!-- Node8 -->
<g id="node6" class="node">
<title>Node8</title>
<g id="a_node6"><a xlink:href="ClientTextUI_8cpp.html" target="_top" xlink:title="UI/ClientTextUI/ClientText\lUI.cpp">
<polygon fill="#ffffff" stroke="#000000" points="311,-67.5 311,-97.5 445,-97.5 445,-67.5 311,-67.5"/>
<text text-anchor="start" x="319" y="-85.5" font-family="Helvetica,sans-Serif" font-size="10.00" fill="#000000">UI/ClientTextUI/ClientText</text>
<text text-anchor="middle" x="378" y="-74.5" font-family="Helvetica,sans-Serif" font-size="10.00" fill="#000000">UI.cpp</text>
</a>
</g>
</g>
<!-- Node3&#45;&gt;Node8 -->
<g id="edge5" class="edge">
<title>Node3&#45;&gt;Node8</title>
<path fill="none" stroke="#191970" d="M327.6308,-127.4965C338.5754,-117.7193 351.1843,-106.4554 361.0487,-97.6432"/>
<polygon fill="#191970" stroke="#191970" points="325.1445,-125.0243 320.0187,-134.2967 329.8081,-130.2447 325.1445,-125.0243"/>
</g>
<!-- Node5 -->
<g id="node3" class="node">
<title>Node5</title>
<g id="a_node3"><a xlink:href="PAYMENT__RESULT__DETAILS_8cpp.html" target="_top" xlink:title="Domain/Store/PAYMENT\l_RESULT_DETAILS.cpp">
<polygon fill="#ffffff" stroke="#000000" points="0,-.5 0,-30.5 128,-30.5 128,-.5 0,-.5"/>
<text text-anchor="start" x="8" y="-18.5" font-family="Helvetica,sans-Serif" font-size="10.00" fill="#000000">Domain/Store/PAYMENT</text>
<text text-anchor="middle" x="64" y="-7.5" font-family="Helvetica,sans-Serif" font-size="10.00" fill="#000000">_RESULT_DETAILS.cpp</text>
</a>
</g>
</g>
<!-- Node4&#45;&gt;Node5 -->
<g id="edge2" class="edge">
<title>Node4&#45;&gt;Node5</title>
<path fill="none" stroke="#191970" d="M182.4298,-63.5897C156.7245,-53.1518 125.2358,-40.3654 101.1907,-30.6017"/>
<polygon fill="#191970" stroke="#191970" points="181.3887,-66.9444 191.9708,-67.4639 184.0223,-60.4587 181.3887,-66.9444"/>
</g>
<!-- Node6 -->
<g id="node4" class="node">
<title>Node6</title>
<g id="a_node4"><a xlink:href="PaymentHelper_8cpp.html" target="_top" xlink:title="Domain/Store/PaymentHelper.cpp">
<polygon fill="#ffffff" stroke="#000000" points="146,-6 146,-25 312,-25 312,-6 146,-6"/>
<text text-anchor="middle" x="229" y="-13" font-family="Helvetica,sans-Serif" font-size="10.00" fill="#000000">Domain/Store/PaymentHelper.cpp</text>
</a>
</g>
</g>
<!-- Node4&#45;&gt;Node6 -->
<g id="edge3" class="edge">
<title>Node4&#45;&gt;Node6</title>
<path fill="none" stroke="#191970" d="M229,-57.1199C229,-45.9072 229,-33.4031 229,-25.055"/>
<polygon fill="#191970" stroke="#191970" points="225.5001,-57.2966 229,-67.2967 232.5001,-57.2967 225.5001,-57.2966"/>
</g>
<!-- Node7 -->
<g id="node5" class="node">
<title>Node7</title>
<g id="a_node5"><a xlink:href="StoreFactory_8cpp.html" target="_top" xlink:title="Domain/Store/StoreFactory.cpp">
<polygon fill="#ffffff" stroke="#000000" points="330.5,-6 330.5,-25 485.5,-25 485.5,-6 330.5,-6"/>
<text text-anchor="middle" x="408" y="-13" font-family="Helvetica,sans-Serif" font-size="10.00" fill="#000000">Domain/Store/StoreFactory.cpp</text>
</a>
</g>
</g>
<!-- Node4&#45;&gt;Node7 -->
<g id="edge4" class="edge">
<title>Node4&#45;&gt;Node7</title>
<path fill="none" stroke="#191970" d="M278.8582,-63.838C312.5819,-51.2151 355.7163,-35.0699 382.6053,-25.0053"/>
<polygon fill="#191970" stroke="#191970" points="277.3096,-60.6804 269.1711,-67.4639 279.7635,-67.2362 277.3096,-60.6804"/>
</g>
</g>
</svg>
