<?xml version="1.0" encoding="UTF-8" standalone="no"?>
<!DOCTYPE svg PUBLIC "-//W3C//DTD SVG 1.1//EN"
 "http://www.w3.org/Graphics/SVG/1.1/DTD/svg11.dtd">
<!-- Generated by graphviz version 2.40.1 (20161225.0304)
 -->
<!-- Title: Domain/Store/PAYMENT_RESULT_DETAILS.h Pages: 1 -->
<svg width="277pt" height="173pt"
 viewBox="0.00 0.00 277.00 173.00" xmlns="http://www.w3.org/2000/svg" xmlns:xlink="http://www.w3.org/1999/xlink">
<g id="graph0" class="graph" transform="scale(1 1) rotate(0) translate(4 169)">
<title>Domain/Store/PAYMENT_RESULT_DETAILS.h</title>
<polygon fill="#ffffff" stroke="transparent" points="-4,4 -4,-169 273,-169 273,4 -4,4"/>
<!-- Node0 -->
<g id="node1" class="node">
<title>Node0</title>
<polygon fill="#bfbfbf" stroke="#000000" points="69.5,-134.5 69.5,-164.5 197.5,-164.5 197.5,-134.5 69.5,-134.5"/>
<text text-anchor="start" x="77.5" y="-152.5" font-family="Helvetica,sans-Serif" font-size="10.00" fill="#000000">Domain/Store/PAYMENT</text>
<text text-anchor="middle" x="133.5" y="-141.5" font-family="Helvetica,sans-Serif" font-size="10.00" fill="#000000">_RESULT_DETAILS.h</text>
</g>
<!-- Node1 -->
<g id="node2" class="node">
<title>Node1</title>
<g id="a_node2"><a xlink:href="ForwardDeclarations_8h.html" target="_top" xlink:title="Asteroids/ForwardDeclarations.h">
<polygon fill="#ffffff" stroke="#000000" points="0,-.5 0,-19.5 159,-19.5 159,-.5 0,-.5"/>
<text text-anchor="middle" x="79.5" y="-7.5" font-family="Helvetica,sans-Serif" font-size="10.00" fill="#000000">Asteroids/ForwardDeclarations.h</text>
</a>
</g>
</g>
<!-- Node0&#45;&gt;Node1 -->
<g id="edge1" class="edge">
<title>Node0&#45;&gt;Node1</title>
<path fill="none" stroke="#191970" d="M121.2049,-134.1113C113.9187,-124.2922 105.0527,-111.0064 99.5,-98 89.9228,-75.5666 84.5974,-47.8722 81.8945,-29.6128"/>
<polygon fill="#191970" stroke="#191970" points="85.348,-29.0333 80.5358,-19.5944 78.4115,-29.9741 85.348,-29.0333"/>
</g>
<!-- Node2 -->
<g id="node3" class="node">
<title>Node2</title>
<g id="a_node3"><a xlink:href="PAYMENT__RESULT__DETAILS__INTERFACE_8h.html" target="_top" xlink:title="Asteroids/Domain/Store\l/PAYMENT_RESULT_DETAILS\l_INTERFACE.h">
<polygon fill="#ffffff" stroke="#000000" points="108,-56.5 108,-97.5 269,-97.5 269,-56.5 108,-56.5"/>
<text text-anchor="start" x="116" y="-85.5" font-family="Helvetica,sans-Serif" font-size="10.00" fill="#000000">Asteroids/Domain/Store</text>
<text text-anchor="start" x="116" y="-74.5" font-family="Helvetica,sans-Serif" font-size="10.00" fill="#000000">/PAYMENT_RESULT_DETAILS</text>
<text text-anchor="middle" x="188.5" y="-63.5" font-family="Helvetica,sans-Serif" font-size="10.00" fill="#000000">_INTERFACE.h</text>
</a>
</g>
</g>
<!-- Node0&#45;&gt;Node2 -->
<g id="edge2" class="edge">
<title>Node0&#45;&gt;Node2</title>
<path fill="none" stroke="#191970" d="M144.896,-134.478C151.2381,-126.118 159.3445,-115.4322 166.8432,-105.5476"/>
<polygon fill="#191970" stroke="#191970" points="169.6917,-107.5838 172.9471,-97.5015 164.1148,-103.3531 169.6917,-107.5838"/>
</g>
<!-- Node2&#45;&gt;Node1 -->
<g id="edge3" class="edge">
<title>Node2&#45;&gt;Node1</title>
<path fill="none" stroke="#191970" d="M154.907,-56.3511C138.4342,-46.2256 118.9579,-34.254 103.9257,-25.0139"/>
<polygon fill="#191970" stroke="#191970" points="105.5589,-21.9095 95.2068,-19.6546 101.8932,-27.873 105.5589,-21.9095"/>
</g>
<!-- Node3 -->
<g id="node4" class="node">
<title>Node3</title>
<polygon fill="#ffffff" stroke="#bfbfbf" points="177,-.5 177,-19.5 218,-19.5 218,-.5 177,-.5"/>
<text text-anchor="middle" x="197.5" y="-7.5" font-family="Helvetica,sans-Serif" font-size="10.00" fill="#000000">string</text>
</g>
<!-- Node2&#45;&gt;Node3 -->
<g id="edge4" class="edge">
<title>Node2&#45;&gt;Node3</title>
<path fill="none" stroke="#191970" d="M191.2983,-56.168C192.4321,-47.7278 193.7349,-38.0293 194.8528,-29.7068"/>
<polygon fill="#191970" stroke="#191970" points="198.3236,-30.1574 196.1862,-19.7805 191.3859,-29.2255 198.3236,-30.1574"/>
</g>
</g>
</svg>
