<?xml version="1.0" encoding="UTF-8" standalone="no"?>
<!DOCTYPE svg PUBLIC "-//W3C//DTD SVG 1.1//EN"
 "http://www.w3.org/Graphics/SVG/1.1/DTD/svg11.dtd">
<!-- Generated by graphviz version 2.40.1 (20161225.0304)
 -->
<!-- Title: Domain/Store/PaymentHelper.cpp Pages: 1 -->
<svg width="963pt" height="229pt"
 viewBox="0.00 0.00 962.50 229.00" xmlns="http://www.w3.org/2000/svg" xmlns:xlink="http://www.w3.org/1999/xlink">
<g id="graph0" class="graph" transform="scale(1 1) rotate(0) translate(4 225)">
<title>Domain/Store/PaymentHelper.cpp</title>
<polygon fill="#ffffff" stroke="transparent" points="-4,4 -4,-225 958.5,-225 958.5,4 -4,4"/>
<!-- Node0 -->
<g id="node1" class="node">
<title>Node0</title>
<polygon fill="#bfbfbf" stroke="#000000" points="465.5,-201.5 465.5,-220.5 631.5,-220.5 631.5,-201.5 465.5,-201.5"/>
<text text-anchor="middle" x="548.5" y="-208.5" font-family="Helvetica,sans-Serif" font-size="10.00" fill="#000000">Domain/Store/PaymentHelper.cpp</text>
</g>
<!-- Node1 -->
<g id="node2" class="node">
<title>Node1</title>
<g id="a_node2"><a xlink:href="PaymentHelper_8h.html" target="_top" xlink:title="Asteroids/Domain/Store\l/PaymentHelper.h">
<polygon fill="#ffffff" stroke="#000000" points="384,-134.5 384,-164.5 505,-164.5 505,-134.5 384,-134.5"/>
<text text-anchor="start" x="392" y="-152.5" font-family="Helvetica,sans-Serif" font-size="10.00" fill="#000000">Asteroids/Domain/Store</text>
<text text-anchor="middle" x="444.5" y="-141.5" font-family="Helvetica,sans-Serif" font-size="10.00" fill="#000000">/PaymentHelper.h</text>
</a>
</g>
</g>
<!-- Node0&#45;&gt;Node1 -->
<g id="edge1" class="edge">
<title>Node0&#45;&gt;Node1</title>
<path fill="none" stroke="#191970" d="M532.25,-201.3906C518.0445,-192.9903 496.9401,-180.5103 478.9883,-169.8945"/>
<polygon fill="#191970" stroke="#191970" points="480.3304,-166.622 469.9413,-164.5446 476.7673,-172.6474 480.3304,-166.622"/>
</g>
<!-- Node7 -->
<g id="node8" class="node">
<title>Node7</title>
<g id="a_node8"><a xlink:href="FactoryInterface_8h.html" target="_top" xlink:title="Asteroids/Domain/Factory\l/FactoryInterface.h">
<polygon fill="#ffffff" stroke="#000000" points="0,-62 0,-92 131,-92 131,-62 0,-62"/>
<text text-anchor="start" x="8" y="-80" font-family="Helvetica,sans-Serif" font-size="10.00" fill="#000000">Asteroids/Domain/Factory</text>
<text text-anchor="middle" x="65.5" y="-69" font-family="Helvetica,sans-Serif" font-size="10.00" fill="#000000">/FactoryInterface.h</text>
</a>
</g>
</g>
<!-- Node0&#45;&gt;Node7 -->
<g id="edge8" class="edge">
<title>Node0&#45;&gt;Node7</title>
<path fill="none" stroke="#191970" d="M481.7974,-201.4975C432.3636,-193.7155 363.6057,-181.3304 304.5,-165 235.3211,-145.8864 157.785,-115.6329 110.3009,-96.0501"/>
<polygon fill="#191970" stroke="#191970" points="111.5052,-92.7606 100.9273,-92.1618 108.8231,-99.2264 111.5052,-92.7606"/>
</g>
<!-- Node8 -->
<g id="node9" class="node">
<title>Node8</title>
<g id="a_node9"><a xlink:href="NetFactoryInterface_8h.html" target="_top" xlink:title="Asteroids/Domain/Net\l/NetFactoryInterface.h">
<polygon fill="#ffffff" stroke="#000000" points="149,-62 149,-92 264,-92 264,-62 149,-62"/>
<text text-anchor="start" x="157" y="-80" font-family="Helvetica,sans-Serif" font-size="10.00" fill="#000000">Asteroids/Domain/Net</text>
<text text-anchor="middle" x="206.5" y="-69" font-family="Helvetica,sans-Serif" font-size="10.00" fill="#000000">/NetFactoryInterface.h</text>
</a>
</g>
</g>
<!-- Node0&#45;&gt;Node8 -->
<g id="edge11" class="edge">
<title>Node0&#45;&gt;Node8</title>
<path fill="none" stroke="#191970" d="M501.0684,-201.4807C465.5622,-193.6353 416.1504,-181.1779 374.5,-165 325.8259,-146.094 272.9849,-116.8405 239.8193,-97.3154"/>
<polygon fill="#191970" stroke="#191970" points="241.392,-94.1787 231.0065,-92.083 237.8183,-100.1978 241.392,-94.1787"/>
</g>
<!-- Node9 -->
<g id="node10" class="node">
<title>Node9</title>
<g id="a_node10"><a xlink:href="ClientServerCommunicatorInterface_8h.html" target="_top" xlink:title="Asteroids/Domain/Net\l/ClientServerCommunicatorInterface.h">
<polygon fill="#ffffff" stroke="#000000" points="472.5,-62 472.5,-92 656.5,-92 656.5,-62 472.5,-62"/>
<text text-anchor="start" x="480.5" y="-80" font-family="Helvetica,sans-Serif" font-size="10.00" fill="#000000">Asteroids/Domain/Net</text>
<text text-anchor="middle" x="564.5" y="-69" font-family="Helvetica,sans-Serif" font-size="10.00" fill="#000000">/ClientServerCommunicatorInterface.h</text>
</a>
</g>
</g>
<!-- Node0&#45;&gt;Node9 -->
<g id="edge14" class="edge">
<title>Node0&#45;&gt;Node9</title>
<path fill="none" stroke="#191970" d="M549.6507,-201.3631C552.1012,-180.8397 557.9035,-132.2457 561.4864,-102.2388"/>
<polygon fill="#191970" stroke="#191970" points="564.9853,-102.4555 562.6957,-92.111 558.0347,-101.6255 564.9853,-102.4555"/>
</g>
<!-- Node10 -->
<g id="node11" class="node">
<title>Node10</title>
<g id="a_node11"><a xlink:href="Domain_2Store_2Enums_2Enums_8h.html" target="_top" xlink:title="Asteroids/Domain/Store\l/Enums/Enums.h">
<polygon fill="#ffffff" stroke="#000000" points="763,-134.5 763,-164.5 884,-164.5 884,-134.5 763,-134.5"/>
<text text-anchor="start" x="771" y="-152.5" font-family="Helvetica,sans-Serif" font-size="10.00" fill="#000000">Asteroids/Domain/Store</text>
<text text-anchor="middle" x="823.5" y="-141.5" font-family="Helvetica,sans-Serif" font-size="10.00" fill="#000000">/Enums/Enums.h</text>
</a>
</g>
</g>
<!-- Node0&#45;&gt;Node10 -->
<g id="edge18" class="edge">
<title>Node0&#45;&gt;Node10</title>
<path fill="none" stroke="#191970" d="M591.5094,-201.4127C631.0698,-192.5904 691.6391,-179.0736 753.0574,-165.3218"/>
<polygon fill="#191970" stroke="#191970" points="753.9255,-168.7142 762.9189,-163.1134 752.3957,-161.8834 753.9255,-168.7142"/>
</g>
<!-- Node11 -->
<g id="node12" class="node">
<title>Node11</title>
<g id="a_node12"><a xlink:href="PAYMENT__RESULT__DETAILS_8h.html" target="_top" xlink:title="Asteroids/Domain/Store\l/PAYMENT_RESULT_DETAILS.h">
<polygon fill="#ffffff" stroke="#000000" points="576,-134.5 576,-164.5 745,-164.5 745,-134.5 576,-134.5"/>
<text text-anchor="start" x="584" y="-152.5" font-family="Helvetica,sans-Serif" font-size="10.00" fill="#000000">Asteroids/Domain/Store</text>
<text text-anchor="middle" x="660.5" y="-141.5" font-family="Helvetica,sans-Serif" font-size="10.00" fill="#000000">/PAYMENT_RESULT_DETAILS.h</text>
</a>
</g>
</g>
<!-- Node0&#45;&gt;Node11 -->
<g id="edge19" class="edge">
<title>Node0&#45;&gt;Node11</title>
<path fill="none" stroke="#191970" d="M566,-201.3906C581.5087,-192.8747 604.653,-180.166 624.1549,-169.4573"/>
<polygon fill="#191970" stroke="#191970" points="626.0209,-172.4257 633.1017,-164.5446 622.6516,-166.2899 626.0209,-172.4257"/>
</g>
<!-- Node13 -->
<g id="node14" class="node">
<title>Node13</title>
<polygon fill="#ffffff" stroke="#bfbfbf" points="902.5,-140 902.5,-159 954.5,-159 954.5,-140 902.5,-140"/>
<text text-anchor="middle" x="928.5" y="-147" font-family="Helvetica,sans-Serif" font-size="10.00" fill="#000000">sstream</text>
</g>
<!-- Node0&#45;&gt;Node13 -->
<g id="edge24" class="edge">
<title>Node0&#45;&gt;Node13</title>
<path fill="none" stroke="#191970" d="M631.7407,-206.5451C702.4632,-201.1939 806.1147,-189.6297 893.5,-165 895.6828,-164.3848 897.9055,-163.6582 900.1188,-162.8608"/>
<polygon fill="#191970" stroke="#191970" points="901.6406,-166.0211 909.6083,-159.0379 899.0248,-159.5282 901.6406,-166.0211"/>
</g>
<!-- Node2 -->
<g id="node3" class="node">
<title>Node2</title>
<g id="a_node3"><a xlink:href="ForwardDeclarations_8h.html" target="_top" xlink:title="Asteroids/ForwardDeclarations.h">
<polygon fill="#ffffff" stroke="#000000" points="366,-.5 366,-19.5 525,-19.5 525,-.5 366,-.5"/>
<text text-anchor="middle" x="445.5" y="-7.5" font-family="Helvetica,sans-Serif" font-size="10.00" fill="#000000">Asteroids/ForwardDeclarations.h</text>
</a>
</g>
</g>
<!-- Node1&#45;&gt;Node2 -->
<g id="edge2" class="edge">
<title>Node1&#45;&gt;Node2</title>
<path fill="none" stroke="#191970" d="M444.6089,-134.3055C444.7904,-108.9831 445.1548,-58.1556 445.3568,-29.9709"/>
<polygon fill="#191970" stroke="#191970" points="448.8583,-29.7615 445.4302,-19.7366 441.8585,-29.7112 448.8583,-29.7615"/>
</g>
<!-- Node3 -->
<g id="node4" class="node">
<title>Node3</title>
<g id="a_node4"><a xlink:href="PaymentHelperInterface_8h.html" target="_top" xlink:title="Asteroids/Domain/Store\l/PaymentHelperInterface.h">
<polygon fill="#ffffff" stroke="#000000" points="282.5,-62 282.5,-92 416.5,-92 416.5,-62 282.5,-62"/>
<text text-anchor="start" x="290.5" y="-80" font-family="Helvetica,sans-Serif" font-size="10.00" fill="#000000">Asteroids/Domain/Store</text>
<text text-anchor="middle" x="349.5" y="-69" font-family="Helvetica,sans-Serif" font-size="10.00" fill="#000000">/PaymentHelperInterface.h</text>
</a>
</g>
</g>
<!-- Node1&#45;&gt;Node3 -->
<g id="edge3" class="edge">
<title>Node1&#45;&gt;Node3</title>
<path fill="none" stroke="#191970" d="M424.8159,-134.478C411.0591,-123.9793 392.4962,-109.8129 377.2417,-98.1713"/>
<polygon fill="#191970" stroke="#191970" points="379.2317,-95.2872 369.1588,-92.0028 374.985,-100.8519 379.2317,-95.2872"/>
</g>
<!-- Node3&#45;&gt;Node2 -->
<g id="edge4" class="edge">
<title>Node3&#45;&gt;Node2</title>
<path fill="none" stroke="#191970" d="M371.2839,-61.7967C386.822,-50.9524 407.6471,-36.4182 423.2824,-25.506"/>
<polygon fill="#191970" stroke="#191970" points="425.6121,-28.1483 431.8093,-19.555 421.6058,-22.408 425.6121,-28.1483"/>
</g>
<!-- Node4 -->
<g id="node5" class="node">
<title>Node4</title>
<polygon fill="#ffffff" stroke="#bfbfbf" points="544,-.5 544,-19.5 585,-19.5 585,-.5 544,-.5"/>
<text text-anchor="middle" x="564.5" y="-7.5" font-family="Helvetica,sans-Serif" font-size="10.00" fill="#000000">string</text>
</g>
<!-- Node3&#45;&gt;Node4 -->
<g id="edge5" class="edge">
<title>Node3&#45;&gt;Node4</title>
<path fill="none" stroke="#191970" d="M398.7496,-61.9136C435.833,-50.5126 487.9025,-34.4165 533.5,-20 533.7089,-19.9339 533.9187,-19.8676 534.1291,-19.801"/>
<polygon fill="#191970" stroke="#191970" points="535.3714,-23.0785 543.8336,-16.7035 533.2429,-16.4099 535.3714,-23.0785"/>
</g>
<!-- Node5 -->
<g id="node6" class="node">
<title>Node5</title>
<polygon fill="#ffffff" stroke="#bfbfbf" points="304.5,-.5 304.5,-19.5 348.5,-19.5 348.5,-.5 304.5,-.5"/>
<text text-anchor="middle" x="326.5" y="-7.5" font-family="Helvetica,sans-Serif" font-size="10.00" fill="#000000">vector</text>
</g>
<!-- Node3&#45;&gt;Node5 -->
<g id="edge6" class="edge">
<title>Node3&#45;&gt;Node5</title>
<path fill="none" stroke="#191970" d="M344.2809,-61.7967C340.9758,-52.1685 336.6721,-39.6318 333.1267,-29.3038"/>
<polygon fill="#191970" stroke="#191970" points="336.3374,-27.8768 329.7801,-19.555 329.7166,-30.1496 336.3374,-27.8768"/>
</g>
<!-- Node6 -->
<g id="node7" class="node">
<title>Node6</title>
<polygon fill="#ffffff" stroke="#bfbfbf" points="208.5,-.5 208.5,-19.5 260.5,-19.5 260.5,-.5 208.5,-.5"/>
<text text-anchor="middle" x="234.5" y="-7.5" font-family="Helvetica,sans-Serif" font-size="10.00" fill="#000000">memory</text>
</g>
<!-- Node3&#45;&gt;Node6 -->
<g id="edge7" class="edge">
<title>Node3&#45;&gt;Node6</title>
<path fill="none" stroke="#191970" d="M323.6918,-61.9639C304.5701,-50.8234 278.6483,-35.7212 259.6782,-24.6691"/>
<polygon fill="#191970" stroke="#191970" points="261.3868,-21.6138 250.9843,-19.6039 257.8629,-27.6622 261.3868,-21.6138"/>
</g>
<!-- Node7&#45;&gt;Node2 -->
<g id="edge9" class="edge">
<title>Node7&#45;&gt;Node2</title>
<path fill="none" stroke="#191970" d="M115.4379,-61.8967C123.4425,-59.7456 131.6681,-57.6927 139.5,-56 211.6235,-40.4115 294.442,-28.3085 355.7166,-20.4383"/>
<polygon fill="#191970" stroke="#191970" points="356.2656,-23.8968 365.7443,-19.1634 355.3827,-16.9527 356.2656,-23.8968"/>
</g>
<!-- Node7&#45;&gt;Node6 -->
<g id="edge10" class="edge">
<title>Node7&#45;&gt;Node6</title>
<path fill="none" stroke="#191970" d="M103.4269,-61.9639C132.677,-50.3677 172.7547,-34.4789 200.8676,-23.3335"/>
<polygon fill="#191970" stroke="#191970" points="202.269,-26.5431 210.2752,-19.6039 199.6892,-20.0358 202.269,-26.5431"/>
</g>
<!-- Node8&#45;&gt;Node2 -->
<g id="edge12" class="edge">
<title>Node8&#45;&gt;Node2</title>
<path fill="none" stroke="#191970" d="M253.6434,-61.9482C260.2967,-59.9044 267.0614,-57.8691 273.5,-56 315.5131,-43.8038 363.6428,-31.0334 398.285,-22.0513"/>
<polygon fill="#191970" stroke="#191970" points="399.3249,-25.3976 408.1308,-19.5063 397.573,-18.6204 399.3249,-25.3976"/>
</g>
<!-- Node8&#45;&gt;Node6 -->
<g id="edge13" class="edge">
<title>Node8&#45;&gt;Node6</title>
<path fill="none" stroke="#191970" d="M212.8536,-61.7967C216.9197,-52.0672 222.227,-39.3675 226.5687,-28.9784"/>
<polygon fill="#191970" stroke="#191970" points="229.8802,-30.1313 230.5069,-19.555 223.4215,-27.4321 229.8802,-30.1313"/>
</g>
<!-- Node9&#45;&gt;Node2 -->
<g id="edge15" class="edge">
<title>Node9&#45;&gt;Node2</title>
<path fill="none" stroke="#191970" d="M537.7941,-61.9639C517.9173,-50.7728 490.9399,-35.5838 471.2868,-24.5186"/>
<polygon fill="#191970" stroke="#191970" points="472.9887,-21.4602 462.5577,-19.6039 469.5544,-27.5599 472.9887,-21.4602"/>
</g>
<!-- Node9&#45;&gt;Node4 -->
<g id="edge16" class="edge">
<title>Node9&#45;&gt;Node4</title>
<path fill="none" stroke="#191970" d="M564.5,-61.7967C564.5,-52.2699 564.5,-39.8954 564.5,-29.6306"/>
<polygon fill="#191970" stroke="#191970" points="568.0001,-29.5549 564.5,-19.555 561.0001,-29.555 568.0001,-29.5549"/>
</g>
<!-- Node9&#45;&gt;Node6 -->
<g id="edge17" class="edge">
<title>Node9&#45;&gt;Node6</title>
<path fill="none" stroke="#191970" d="M490.4416,-61.9639C422.031,-48.0745 323.2892,-28.0269 270.6906,-17.3478"/>
<polygon fill="#191970" stroke="#191970" points="271.3052,-13.9012 260.8088,-15.3415 269.9124,-20.7613 271.3052,-13.9012"/>
</g>
<!-- Node11&#45;&gt;Node2 -->
<g id="edge20" class="edge">
<title>Node11&#45;&gt;Node2</title>
<path fill="none" stroke="#191970" d="M666.9454,-134.3194C674.4129,-114.0711 683.5419,-78.2044 665.5,-56 656.2247,-44.5847 581.5593,-30.6591 521.7475,-21.14"/>
<polygon fill="#191970" stroke="#191970" points="521.954,-17.6296 511.5316,-19.5335 520.8665,-24.5446 521.954,-17.6296"/>
</g>
<!-- Node12 -->
<g id="node13" class="node">
<title>Node12</title>
<g id="a_node13"><a xlink:href="PAYMENT__RESULT__DETAILS__INTERFACE_8h.html" target="_top" xlink:title="Asteroids/Domain/Store\l/PAYMENT_RESULT_DETAILS\l_INTERFACE.h">
<polygon fill="#ffffff" stroke="#000000" points="713,-56.5 713,-97.5 874,-97.5 874,-56.5 713,-56.5"/>
<text text-anchor="start" x="721" y="-85.5" font-family="Helvetica,sans-Serif" font-size="10.00" fill="#000000">Asteroids/Domain/Store</text>
<text text-anchor="start" x="721" y="-74.5" font-family="Helvetica,sans-Serif" font-size="10.00" fill="#000000">/PAYMENT_RESULT_DETAILS</text>
<text text-anchor="middle" x="793.5" y="-63.5" font-family="Helvetica,sans-Serif" font-size="10.00" fill="#000000">_INTERFACE.h</text>
</a>
</g>
</g>
<!-- Node11&#45;&gt;Node12 -->
<g id="edge21" class="edge">
<title>Node11&#45;&gt;Node12</title>
<path fill="none" stroke="#191970" d="M688.0577,-134.478C705.081,-125.1984 727.361,-113.0532 747.053,-102.3189"/>
<polygon fill="#191970" stroke="#191970" points="748.7853,-105.3608 755.8903,-97.5015 745.4349,-99.2147 748.7853,-105.3608"/>
</g>
<!-- Node12&#45;&gt;Node2 -->
<g id="edge22" class="edge">
<title>Node12&#45;&gt;Node2</title>
<path fill="none" stroke="#191970" d="M712.9511,-58.9743C708.0652,-57.9492 703.2193,-56.9503 698.5,-56 635.1087,-43.2355 562.4589,-30.1894 511.3205,-21.2667"/>
<polygon fill="#191970" stroke="#191970" points="511.8408,-17.8047 501.3888,-19.5384 510.6407,-24.7011 511.8408,-17.8047"/>
</g>
<!-- Node12&#45;&gt;Node4 -->
<g id="edge23" class="edge">
<title>Node12&#45;&gt;Node4</title>
<path fill="none" stroke="#191970" d="M723.2362,-56.4425C680.2898,-43.8774 627.5321,-28.4417 594.9623,-18.9126"/>
<polygon fill="#191970" stroke="#191970" points="595.7156,-15.4863 585.1351,-16.0373 593.7499,-22.2046 595.7156,-15.4863"/>
</g>
</g>
</svg>
