<?xml version="1.0" encoding="UTF-8" standalone="no"?>
<!DOCTYPE svg PUBLIC "-//W3C//DTD SVG 1.1//EN"
 "http://www.w3.org/Graphics/SVG/1.1/DTD/svg11.dtd">
<!-- Generated by graphviz version 2.40.1 (20161225.0304)
 -->
<!-- Title: Domain/Store/POWERUP_ADDED_INFO.h Pages: 1 -->
<svg width="324pt" height="162pt"
 viewBox="0.00 0.00 323.50 162.00" xmlns="http://www.w3.org/2000/svg" xmlns:xlink="http://www.w3.org/1999/xlink">
<g id="graph0" class="graph" transform="scale(1 1) rotate(0) translate(4 158)">
<title>Domain/Store/POWERUP_ADDED_INFO.h</title>
<polygon fill="#ffffff" stroke="transparent" points="-4,4 -4,-158 319.5,-158 319.5,4 -4,4"/>
<!-- Node0 -->
<g id="node1" class="node">
<title>Node0</title>
<polygon fill="#bfbfbf" stroke="#000000" points="74.5,-123.5 74.5,-153.5 206.5,-153.5 206.5,-123.5 74.5,-123.5"/>
<text text-anchor="start" x="82.5" y="-141.5" font-family="Helvetica,sans-Serif" font-size="10.00" fill="#000000">Domain/Store/POWERUP</text>
<text text-anchor="middle" x="140.5" y="-130.5" font-family="Helvetica,sans-Serif" font-size="10.00" fill="#000000">_ADDED_INFO.h</text>
</g>
<!-- Node1 -->
<g id="node2" class="node">
<title>Node1</title>
<g id="a_node2"><a xlink:href="ForwardDeclarations_8h.html" target="_top" xlink:title="Asteroids/ForwardDeclarations.h">
<polygon fill="#ffffff" stroke="#000000" points="0,-.5 0,-19.5 159,-19.5 159,-.5 0,-.5"/>
<text text-anchor="middle" x="79.5" y="-7.5" font-family="Helvetica,sans-Serif" font-size="10.00" fill="#000000">Asteroids/ForwardDeclarations.h</text>
</a>
</g>
</g>
<!-- Node0&#45;&gt;Node1 -->
<g id="edge1" class="edge">
<title>Node0&#45;&gt;Node1</title>
<path fill="none" stroke="#191970" d="M121.6958,-123.2703C111.4278,-113.9021 99.4278,-101.0271 92.5,-87 83.6111,-69.0022 80.6557,-46.0658 79.7437,-29.9239"/>
<polygon fill="#191970" stroke="#191970" points="83.2282,-29.412 79.3852,-19.5388 76.2324,-29.6536 83.2282,-29.412"/>
</g>
<!-- Node2 -->
<g id="node3" class="node">
<title>Node2</title>
<g id="a_node3"><a xlink:href="POWERUP__ADDED__INFO__INTERFACE_8h.html" target="_top" xlink:title="Asteroids/Domain/Store\l/POWERUP_ADDED_INFO_INTERFACE.h">
<polygon fill="#ffffff" stroke="#000000" points="101.5,-56.5 101.5,-86.5 315.5,-86.5 315.5,-56.5 101.5,-56.5"/>
<text text-anchor="start" x="109.5" y="-74.5" font-family="Helvetica,sans-Serif" font-size="10.00" fill="#000000">Asteroids/Domain/Store</text>
<text text-anchor="middle" x="208.5" y="-63.5" font-family="Helvetica,sans-Serif" font-size="10.00" fill="#000000">/POWERUP_ADDED_INFO_INTERFACE.h</text>
</a>
</g>
</g>
<!-- Node0&#45;&gt;Node2 -->
<g id="edge2" class="edge">
<title>Node0&#45;&gt;Node2</title>
<path fill="none" stroke="#191970" d="M155.9303,-123.2967C164.7984,-114.559 176.0978,-103.4257 185.9465,-93.7218"/>
<polygon fill="#191970" stroke="#191970" points="188.464,-96.1548 193.1308,-86.6432 183.551,-91.1685 188.464,-96.1548"/>
</g>
<!-- Node2&#45;&gt;Node1 -->
<g id="edge3" class="edge">
<title>Node2&#45;&gt;Node1</title>
<path fill="none" stroke="#191970" d="M176.943,-56.4554C156.0799,-46.509 128.9309,-33.5659 108.5902,-23.8686"/>
<polygon fill="#191970" stroke="#191970" points="110.0233,-20.6744 99.4904,-19.5303 107.0109,-26.9931 110.0233,-20.6744"/>
</g>
<!-- Node3 -->
<g id="node4" class="node">
<title>Node3</title>
<polygon fill="#ffffff" stroke="#bfbfbf" points="182.5,-.5 182.5,-19.5 234.5,-19.5 234.5,-.5 182.5,-.5"/>
<text text-anchor="middle" x="208.5" y="-7.5" font-family="Helvetica,sans-Serif" font-size="10.00" fill="#000000">memory</text>
</g>
<!-- Node2&#45;&gt;Node3 -->
<g id="edge4" class="edge">
<title>Node2&#45;&gt;Node3</title>
<path fill="none" stroke="#191970" d="M208.5,-56.2977C208.5,-48.3834 208.5,-38.6043 208.5,-30.0759"/>
<polygon fill="#191970" stroke="#191970" points="212.0001,-29.8469 208.5,-19.8469 205.0001,-29.847 212.0001,-29.8469"/>
</g>
</g>
</svg>
