<?xml version="1.0" encoding="UTF-8" standalone="no"?>
<!DOCTYPE svg PUBLIC "-//W3C//DTD SVG 1.1//EN"
 "http://www.w3.org/Graphics/SVG/1.1/DTD/svg11.dtd">
<!-- Generated by graphviz version 2.40.1 (20161225.0304)
 -->
<!-- Title: Domain/Game/Randomer.cpp Pages: 1 -->
<svg width="275pt" height="151pt"
 viewBox="0.00 0.00 274.50 151.00" xmlns="http://www.w3.org/2000/svg" xmlns:xlink="http://www.w3.org/1999/xlink">
<g id="graph0" class="graph" transform="scale(1 1) rotate(0) translate(4 147)">
<title>Domain/Game/Randomer.cpp</title>
<polygon fill="#ffffff" stroke="transparent" points="-4,4 -4,-147 270.5,-147 270.5,4 -4,4"/>
<!-- Node0 -->
<g id="node1" class="node">
<title>Node0</title>
<polygon fill="#bfbfbf" stroke="#000000" points="118.5,-123.5 118.5,-142.5 264.5,-142.5 264.5,-123.5 118.5,-123.5"/>
<text text-anchor="middle" x="191.5" y="-130.5" font-family="Helvetica,sans-Serif" font-size="10.00" fill="#000000">Domain/Game/Randomer.cpp</text>
</g>
<!-- Node1 -->
<g id="node2" class="node">
<title>Node1</title>
<g id="a_node2"><a xlink:href="Randomer_8h.html" target="_top" xlink:title="Asteroids/Domain/Game\l/Randomer.h">
<polygon fill="#ffffff" stroke="#000000" points="78.5,-56.5 78.5,-86.5 202.5,-86.5 202.5,-56.5 78.5,-56.5"/>
<text text-anchor="start" x="86.5" y="-74.5" font-family="Helvetica,sans-Serif" font-size="10.00" fill="#000000">Asteroids/Domain/Game</text>
<text text-anchor="middle" x="140.5" y="-63.5" font-family="Helvetica,sans-Serif" font-size="10.00" fill="#000000">/Randomer.h</text>
</a>
</g>
</g>
<!-- Node0&#45;&gt;Node1 -->
<g id="edge1" class="edge">
<title>Node0&#45;&gt;Node1</title>
<path fill="none" stroke="#191970" d="M183.5313,-123.3906C177.0764,-115.6068 167.7168,-104.3202 159.3739,-94.2597"/>
<polygon fill="#191970" stroke="#191970" points="162.0536,-92.008 152.976,-86.5446 156.6652,-96.4764 162.0536,-92.008"/>
</g>
<!-- Node4 -->
<g id="node5" class="node">
<title>Node4</title>
<polygon fill="#ffffff" stroke="#bfbfbf" points="220.5,-62 220.5,-81 266.5,-81 266.5,-62 220.5,-62"/>
<text text-anchor="middle" x="243.5" y="-69" font-family="Helvetica,sans-Serif" font-size="10.00" fill="#000000">chrono</text>
</g>
<!-- Node0&#45;&gt;Node4 -->
<g id="edge4" class="edge">
<title>Node0&#45;&gt;Node4</title>
<path fill="none" stroke="#191970" d="M199.625,-123.3906C207.3642,-114.2376 219.1987,-100.2409 228.6272,-89.09"/>
<polygon fill="#191970" stroke="#191970" points="231.4765,-91.1409 235.2604,-81.2449 226.1311,-86.6213 231.4765,-91.1409"/>
</g>
<!-- Node2 -->
<g id="node3" class="node">
<title>Node2</title>
<g id="a_node3"><a xlink:href="ForwardDeclarations_8h.html" target="_top" xlink:title="Asteroids/ForwardDeclarations.h">
<polygon fill="#ffffff" stroke="#000000" points="0,-.5 0,-19.5 159,-19.5 159,-.5 0,-.5"/>
<text text-anchor="middle" x="79.5" y="-7.5" font-family="Helvetica,sans-Serif" font-size="10.00" fill="#000000">Asteroids/ForwardDeclarations.h</text>
</a>
</g>
</g>
<!-- Node1&#45;&gt;Node2 -->
<g id="edge2" class="edge">
<title>Node1&#45;&gt;Node2</title>
<path fill="none" stroke="#191970" d="M125.4213,-56.2977C116.6011,-47.4052 105.4459,-36.1586 96.3388,-26.9769"/>
<polygon fill="#191970" stroke="#191970" points="98.794,-24.4821 89.2669,-19.8469 93.8241,-29.4116 98.794,-24.4821"/>
</g>
<!-- Node3 -->
<g id="node4" class="node">
<title>Node3</title>
<polygon fill="#ffffff" stroke="#bfbfbf" points="177,-.5 177,-19.5 226,-19.5 226,-.5 177,-.5"/>
<text text-anchor="middle" x="201.5" y="-7.5" font-family="Helvetica,sans-Serif" font-size="10.00" fill="#000000">random</text>
</g>
<!-- Node1&#45;&gt;Node3 -->
<g id="edge3" class="edge">
<title>Node1&#45;&gt;Node3</title>
<path fill="none" stroke="#191970" d="M155.5787,-56.2977C164.3989,-47.4052 175.5541,-36.1586 184.6612,-26.9769"/>
<polygon fill="#191970" stroke="#191970" points="187.1759,-29.4116 191.7331,-19.8469 182.206,-24.4821 187.1759,-29.4116"/>
</g>
</g>
</svg>
