<?xml version="1.0" encoding="UTF-8" standalone="no"?>
<!DOCTYPE svg PUBLIC "-//W3C//DTD SVG 1.1//EN"
 "http://www.w3.org/Graphics/SVG/1.1/DTD/svg11.dtd">
<!-- Generated by graphviz version 2.40.1 (20161225.0304)
 -->
<!-- Title: Domain/Game/Actors/Rock.h Pages: 1 -->
<svg width="395pt" height="173pt"
 viewBox="0.00 0.00 394.50 173.00" xmlns="http://www.w3.org/2000/svg" xmlns:xlink="http://www.w3.org/1999/xlink">
<g id="graph0" class="graph" transform="scale(1 1) rotate(0) translate(4 169)">
<title>Domain/Game/Actors/Rock.h</title>
<polygon fill="#ffffff" stroke="transparent" points="-4,4 -4,-169 390.5,-169 390.5,4 -4,4"/>
<!-- Node9 -->
<g id="node1" class="node">
<title>Node9</title>
<polygon fill="#bfbfbf" stroke="#000000" points="129,-134.5 129,-164.5 240,-164.5 240,-134.5 129,-134.5"/>
<text text-anchor="start" x="137" y="-152.5" font-family="Helvetica,sans-Serif" font-size="10.00" fill="#000000">Domain/Game/Actors</text>
<text text-anchor="middle" x="184.5" y="-141.5" font-family="Helvetica,sans-Serif" font-size="10.00" fill="#000000">/Rock.h</text>
</g>
<!-- Node10 -->
<g id="node2" class="node">
<title>Node10</title>
<g id="a_node2"><a xlink:href="LongRock_8h.html" target="_top" xlink:title="Domain/Game/Actors\l/LongRock.h">
<polygon fill="#ffffff" stroke="#000000" points="0,-67.5 0,-97.5 111,-97.5 111,-67.5 0,-67.5"/>
<text text-anchor="start" x="8" y="-85.5" font-family="Helvetica,sans-Serif" font-size="10.00" fill="#000000">Domain/Game/Actors</text>
<text text-anchor="middle" x="55.5" y="-74.5" font-family="Helvetica,sans-Serif" font-size="10.00" fill="#000000">/LongRock.h</text>
</a>
</g>
</g>
<!-- Node9&#45;&gt;Node10 -->
<g id="edge1" class="edge">
<title>Node9&#45;&gt;Node10</title>
<path fill="none" stroke="#191970" d="M146.5207,-129.7743C126.8033,-119.5335 103.0821,-107.2132 84.7998,-97.7177"/>
<polygon fill="#191970" stroke="#191970" points="145.0622,-132.9607 155.5499,-134.4639 148.2887,-126.7486 145.0622,-132.9607"/>
</g>
<!-- Node12 -->
<g id="node4" class="node">
<title>Node12</title>
<g id="a_node4"><a xlink:href="Rock_8cpp.html" target="_top" xlink:title="Domain/Game/Actors\l/Rock.cpp">
<polygon fill="#ffffff" stroke="#000000" points="129,-67.5 129,-97.5 240,-97.5 240,-67.5 129,-67.5"/>
<text text-anchor="start" x="137" y="-85.5" font-family="Helvetica,sans-Serif" font-size="10.00" fill="#000000">Domain/Game/Actors</text>
<text text-anchor="middle" x="184.5" y="-74.5" font-family="Helvetica,sans-Serif" font-size="10.00" fill="#000000">/Rock.cpp</text>
</a>
</g>
</g>
<!-- Node9&#45;&gt;Node12 -->
<g id="edge3" class="edge">
<title>Node9&#45;&gt;Node12</title>
<path fill="none" stroke="#191970" d="M184.5,-124.0249C184.5,-115.128 184.5,-105.4287 184.5,-97.6432"/>
<polygon fill="#191970" stroke="#191970" points="181.0001,-124.2966 184.5,-134.2967 188.0001,-124.2967 181.0001,-124.2966"/>
</g>
<!-- Node13 -->
<g id="node5" class="node">
<title>Node13</title>
<g id="a_node5"><a xlink:href="Game_8cpp.html" target="_top" xlink:title="Domain/Game/Game.cpp">
<polygon fill="#ffffff" stroke="#000000" points="258.5,-73 258.5,-92 386.5,-92 386.5,-73 258.5,-73"/>
<text text-anchor="middle" x="322.5" y="-80" font-family="Helvetica,sans-Serif" font-size="10.00" fill="#000000">Domain/Game/Game.cpp</text>
</a>
</g>
</g>
<!-- Node9&#45;&gt;Node13 -->
<g id="edge4" class="edge">
<title>Node9&#45;&gt;Node13</title>
<path fill="none" stroke="#191970" d="M224.5936,-130.0343C250.2497,-117.5781 282.4143,-101.9619 302.7188,-92.1039"/>
<polygon fill="#191970" stroke="#191970" points="222.9371,-126.9478 215.4699,-134.4639 225.9944,-133.2448 222.9371,-126.9478"/>
</g>
<!-- Node11 -->
<g id="node3" class="node">
<title>Node11</title>
<g id="a_node3"><a xlink:href="LongRock_8cpp.html" target="_top" xlink:title="Domain/Game/Actors\l/LongRock.cpp">
<polygon fill="#ffffff" stroke="#000000" points="0,-.5 0,-30.5 111,-30.5 111,-.5 0,-.5"/>
<text text-anchor="start" x="8" y="-18.5" font-family="Helvetica,sans-Serif" font-size="10.00" fill="#000000">Domain/Game/Actors</text>
<text text-anchor="middle" x="55.5" y="-7.5" font-family="Helvetica,sans-Serif" font-size="10.00" fill="#000000">/LongRock.cpp</text>
</a>
</g>
</g>
<!-- Node10&#45;&gt;Node11 -->
<g id="edge2" class="edge">
<title>Node10&#45;&gt;Node11</title>
<path fill="none" stroke="#191970" d="M55.5,-57.0249C55.5,-48.128 55.5,-38.4287 55.5,-30.6432"/>
<polygon fill="#191970" stroke="#191970" points="52.0001,-57.2966 55.5,-67.2967 59.0001,-57.2967 52.0001,-57.2966"/>
</g>
</g>
</svg>
