<?xml version="1.0" encoding="UTF-8" standalone="no"?>
<!DOCTYPE svg PUBLIC "-//W3C//DTD SVG 1.1//EN"
 "http://www.w3.org/Graphics/SVG/1.1/DTD/svg11.dtd">
<!-- Generated by graphviz version 2.40.1 (20161225.0304)
 -->
<!-- Title: Domain/Game/Actors/Rock.h Pages: 1 -->
<!--zoomable 229 -->
<svg id="main" version="1.1" xmlns="http://www.w3.org/2000/svg" xmlns:xlink="http://www.w3.org/1999/xlink" xml:space="preserve" onload="init(evt)">
<style type="text/css"><![CDATA[
.edge:hover path { stroke: red; }
.edge:hover polygon { stroke: red; fill: red; }
]]></style>
<script type="text/javascript"><![CDATA[
var edges = document.getElementsByTagName('g');
if (edges && edges.length) {
  for (var i=0;i<edges.length;i++) {
    if (edges[i].id.substr(0,4)=='edge') {
      edges[i].setAttribute('class','edge');
    }
  }
}
]]></script>
        <defs>
                <circle id="rim" cx="0" cy="0" r="7"/>
                <circle id="rim2" cx="0" cy="0" r="3.5"/>
                <g id="zoomPlus">
                        <use xlink:href="#rim" fill="#404040">
                                <set attributeName="fill" to="#808080" begin="zoomplus.mouseover" end="zoomplus.mouseout"/>
                        </use>
                        <path d="M-4,0h8M0,-4v8" fill="none" stroke="white" stroke-width="1.5" pointer-events="none"/>
                </g>
                <g id="zoomMin">
                        <use xlink:href="#rim" fill="#404040">
                                <set attributeName="fill" to="#808080" begin="zoomminus.mouseover" end="zoomminus.mouseout"/>
                        </use>
                        <path d="M-4,0h8" fill="none" stroke="white" stroke-width="1.5" pointer-events="none"/>
                </g>
                <g id="dirArrow">
                        <path fill="none" stroke="white" stroke-width="1.5" d="M0,-3.0v7 M-2.5,-0.5L0,-3.0L2.5,-0.5"/>
                </g>
               <g id="resetDef">
                       <use xlink:href="#rim2" fill="#404040">
                               <set attributeName="fill" to="#808080" begin="reset.mouseover" end="reset.mouseout"/>
                       </use>
               </g>
        </defs>

<script type="text/javascript">
var viewWidth = 551;
var viewHeight = 229;
var sectionId = 'dynsection-0';
</script>
<script xlink:href="svgpan.js"/>
<svg id="graph" class="graph">
<g id="viewport">
<title>Domain/Game/Actors/Rock.h</title>
<polygon fill="#ffffff" stroke="transparent" points="-4,4 -4,-225 547.0192,-225 547.0192,4 -4,4"/>
<!-- Node0 -->
<g id="node1" class="node">
<title>Node0</title>
<polygon fill="#bfbfbf" stroke="#000000" points="22.5192,-190.5 22.5192,-220.5 133.5192,-220.5 133.5192,-190.5 22.5192,-190.5"/>
<text text-anchor="start" x="30.5192" y="-208.5" font-family="Helvetica,sans-Serif" font-size="10.00" fill="#000000">Domain/Game/Actors</text>
<text text-anchor="middle" x="78.0192" y="-197.5" font-family="Helvetica,sans-Serif" font-size="10.00" fill="#000000">/Rock.h</text>
</g>
<!-- Node1 -->
<g id="node2" class="node">
<title>Node1</title>
<g id="a_node2"><a xlink:href="ForwardDeclarations_8h.html" target="_top" xlink:title="Asteroids/ForwardDeclarations.h">
<polygon fill="#ffffff" stroke="#000000" points="9.5192,-.5 9.5192,-19.5 168.5192,-19.5 168.5192,-.5 9.5192,-.5"/>
<text text-anchor="middle" x="89.0192" y="-7.5" font-family="Helvetica,sans-Serif" font-size="10.00" fill="#000000">Asteroids/ForwardDeclarations.h</text>
</a>
</g>
</g>
<!-- Node0&#45;&gt;Node1 -->
<g id="edge1" class="edge">
<title>Node0&#45;&gt;Node1</title>
<path fill="none" stroke="#191970" d="M60.9978,-190.197C32.4533,-162.6162 -19.3745,-103.0599 8.0192,-56 16.6431,-41.185 32.0126,-30.752 47.063,-23.6123"/>
<polygon fill="#191970" stroke="#191970" points="48.5549,-26.7802 56.3295,-19.5826 45.7633,-20.3609 48.5549,-26.7802"/>
</g>
<!-- Node2 -->
<g id="node3" class="node">
<title>Node2</title>
<g id="a_node3"><a xlink:href="Actor_8h.html" target="_top" xlink:title="Asteroids/Domain/Game\l/Actors/Actor.h">
<polygon fill="#ffffff" stroke="#000000" points="133.0192,-123.5 133.0192,-153.5 257.0192,-153.5 257.0192,-123.5 133.0192,-123.5"/>
<text text-anchor="start" x="141.0192" y="-141.5" font-family="Helvetica,sans-Serif" font-size="10.00" fill="#000000">Asteroids/Domain/Game</text>
<text text-anchor="middle" x="195.0192" y="-130.5" font-family="Helvetica,sans-Serif" font-size="10.00" fill="#000000">/Actors/Actor.h</text>
</a>
</g>
</g>
<!-- Node0&#45;&gt;Node2 -->
<g id="edge2" class="edge">
<title>Node0&#45;&gt;Node2</title>
<path fill="none" stroke="#191970" d="M104.2763,-190.4639C120.5703,-181.1332 141.7175,-169.0232 159.4976,-158.8415"/>
<polygon fill="#191970" stroke="#191970" points="161.5064,-161.7244 168.445,-153.7177 158.0278,-155.6499 161.5064,-161.7244"/>
</g>
<!-- Node2&#45;&gt;Node1 -->
<g id="edge3" class="edge">
<title>Node2&#45;&gt;Node1</title>
<path fill="none" stroke="#191970" d="M132.8317,-128.4956C87.6411,-119.8085 32.0428,-105.6855 18.0192,-87 9.749,-75.9805 11.4386,-68.1046 18.0192,-56 25.6569,-41.9511 39.6402,-31.5317 53.19,-24.1958"/>
<polygon fill="#191970" stroke="#191970" points="55.0252,-27.1921 62.4182,-19.603 51.9062,-20.9253 55.0252,-27.1921"/>
</g>
<!-- Node3 -->
<g id="node4" class="node">
<title>Node3</title>
<g id="a_node4"><a xlink:href="ActorInterface_8h.html" target="_top" xlink:title="Asteroids/Domain/Game\l/Actors/ActorInterface.h">
<polygon fill="#ffffff" stroke="#000000" points="239.0192,-56.5 239.0192,-86.5 363.0192,-86.5 363.0192,-56.5 239.0192,-56.5"/>
<text text-anchor="start" x="247.0192" y="-74.5" font-family="Helvetica,sans-Serif" font-size="10.00" fill="#000000">Asteroids/Domain/Game</text>
<text text-anchor="middle" x="301.0192" y="-63.5" font-family="Helvetica,sans-Serif" font-size="10.00" fill="#000000">/Actors/ActorInterface.h</text>
</a>
</g>
</g>
<!-- Node2&#45;&gt;Node3 -->
<g id="edge4" class="edge">
<title>Node2&#45;&gt;Node3</title>
<path fill="none" stroke="#191970" d="M218.8077,-123.4639C233.4343,-114.2188 252.3776,-102.2452 268.3931,-92.1222"/>
<polygon fill="#191970" stroke="#191970" points="270.3604,-95.0193 276.9434,-86.7177 266.6204,-89.1022 270.3604,-95.0193"/>
</g>
<!-- Node4 -->
<g id="node5" class="node">
<title>Node4</title>
<polygon fill="#ffffff" stroke="#bfbfbf" points="324.0192,-.5 324.0192,-19.5 368.0192,-19.5 368.0192,-.5 324.0192,-.5"/>
<text text-anchor="middle" x="346.0192" y="-7.5" font-family="Helvetica,sans-Serif" font-size="10.00" fill="#000000">vector</text>
</g>
<!-- Node2&#45;&gt;Node4 -->
<g id="edge15" class="edge">
<title>Node2&#45;&gt;Node4</title>
<path fill="none" stroke="#191970" d="M257.2067,-128.4956C302.3973,-119.8085 357.9956,-105.6855 372.0192,-87 385.168,-69.4802 372.8066,-44.8912 361.0402,-28.2506"/>
<polygon fill="#191970" stroke="#191970" points="363.5579,-25.7777 354.7304,-19.9189 357.9776,-30.0039 363.5579,-25.7777"/>
</g>
<!-- Node5 -->
<g id="node6" class="node">
<title>Node5</title>
<g id="a_node6"><a xlink:href="Rect_8h.html" target="_top" xlink:title="Asteroids/Domain/Game\l/Actors/Rect.h">
<polygon fill="#ffffff" stroke="#000000" points="419.0192,-56.5 419.0192,-86.5 543.0192,-86.5 543.0192,-56.5 419.0192,-56.5"/>
<text text-anchor="start" x="427.0192" y="-74.5" font-family="Helvetica,sans-Serif" font-size="10.00" fill="#000000">Asteroids/Domain/Game</text>
<text text-anchor="middle" x="481.0192" y="-63.5" font-family="Helvetica,sans-Serif" font-size="10.00" fill="#000000">/Actors/Rect.h</text>
</a>
</g>
</g>
<!-- Node2&#45;&gt;Node5 -->
<g id="edge7" class="edge">
<title>Node2&#45;&gt;Node5</title>
<path fill="none" stroke="#191970" d="M257.077,-123.962C301.7097,-113.5061 362.0286,-99.3754 408.8204,-88.4137"/>
<polygon fill="#191970" stroke="#191970" points="409.6514,-91.8139 418.5894,-86.1252 408.0547,-84.9984 409.6514,-91.8139"/>
</g>
<!-- Node7 -->
<g id="node8" class="node">
<title>Node7</title>
<g id="a_node8"><a xlink:href="Vector_8h.html" target="_top" xlink:title="Asteroids/Domain/Game\l/Actors/Vector.h">
<polygon fill="#ffffff" stroke="#000000" points="27.0192,-56.5 27.0192,-86.5 151.0192,-86.5 151.0192,-56.5 27.0192,-56.5"/>
<text text-anchor="start" x="35.0192" y="-74.5" font-family="Helvetica,sans-Serif" font-size="10.00" fill="#000000">Asteroids/Domain/Game</text>
<text text-anchor="middle" x="89.0192" y="-63.5" font-family="Helvetica,sans-Serif" font-size="10.00" fill="#000000">/Actors/Vector.h</text>
</a>
</g>
</g>
<!-- Node2&#45;&gt;Node7 -->
<g id="edge11" class="edge">
<title>Node2&#45;&gt;Node7</title>
<path fill="none" stroke="#191970" d="M171.2308,-123.4639C156.6041,-114.2188 137.6609,-102.2452 121.6453,-92.1222"/>
<polygon fill="#191970" stroke="#191970" points="123.4181,-89.1022 113.095,-86.7177 119.678,-95.0193 123.4181,-89.1022"/>
</g>
<!-- Node8 -->
<g id="node9" class="node">
<title>Node8</title>
<polygon fill="#ffffff" stroke="#bfbfbf" points="169.0192,-62 169.0192,-81 221.0192,-81 221.0192,-62 169.0192,-62"/>
<text text-anchor="middle" x="195.0192" y="-69" font-family="Helvetica,sans-Serif" font-size="10.00" fill="#000000">memory</text>
</g>
<!-- Node2&#45;&gt;Node8 -->
<g id="edge14" class="edge">
<title>Node2&#45;&gt;Node8</title>
<path fill="none" stroke="#191970" d="M195.0192,-123.2967C195.0192,-113.7699 195.0192,-101.3954 195.0192,-91.1306"/>
<polygon fill="#191970" stroke="#191970" points="198.5193,-91.0549 195.0192,-81.055 191.5193,-91.055 198.5193,-91.0549"/>
</g>
<!-- Node3&#45;&gt;Node1 -->
<g id="edge5" class="edge">
<title>Node3&#45;&gt;Node1</title>
<path fill="none" stroke="#191970" d="M249.1582,-56.4554C213.0097,-45.9689 165.3787,-32.1515 131.4835,-22.3187"/>
<polygon fill="#191970" stroke="#191970" points="132.4509,-18.9551 121.8717,-19.5303 130.5006,-25.6779 132.4509,-18.9551"/>
</g>
<!-- Node3&#45;&gt;Node4 -->
<g id="edge6" class="edge">
<title>Node3&#45;&gt;Node4</title>
<path fill="none" stroke="#191970" d="M312.1428,-56.2977C318.3893,-47.7609 326.2232,-37.0545 332.7839,-28.0883"/>
<polygon fill="#191970" stroke="#191970" points="335.7336,-29.984 338.8142,-19.8469 330.0844,-25.8505 335.7336,-29.984"/>
</g>
<!-- Node5&#45;&gt;Node1 -->
<g id="edge8" class="edge">
<title>Node5&#45;&gt;Node1</title>
<path fill="none" stroke="#191970" d="M418.9057,-61.7551C348.4926,-50.7082 233.9198,-32.7331 160.0235,-21.1397"/>
<polygon fill="#191970" stroke="#191970" points="160.2969,-17.6399 149.8752,-19.5476 159.2119,-24.5553 160.2969,-17.6399"/>
</g>
<!-- Node5&#45;&gt;Node4 -->
<g id="edge10" class="edge">
<title>Node5&#45;&gt;Node4</title>
<path fill="none" stroke="#191970" d="M447.9945,-56.4554C426.0622,-46.464 397.4919,-33.4487 376.174,-23.7372"/>
<polygon fill="#191970" stroke="#191970" points="377.4906,-20.4909 366.9394,-19.5303 374.5886,-26.8611 377.4906,-20.4909"/>
</g>
<!-- Node6 -->
<g id="node7" class="node">
<title>Node6</title>
<polygon fill="#ffffff" stroke="#bfbfbf" points="460.5192,-.5 460.5192,-19.5 501.5192,-19.5 501.5192,-.5 460.5192,-.5"/>
<text text-anchor="middle" x="481.0192" y="-7.5" font-family="Helvetica,sans-Serif" font-size="10.00" fill="#000000">string</text>
</g>
<!-- Node5&#45;&gt;Node6 -->
<g id="edge9" class="edge">
<title>Node5&#45;&gt;Node6</title>
<path fill="none" stroke="#191970" d="M481.0192,-56.2977C481.0192,-48.3834 481.0192,-38.6043 481.0192,-30.0759"/>
<polygon fill="#191970" stroke="#191970" points="484.5193,-29.8469 481.0192,-19.8469 477.5193,-29.847 484.5193,-29.8469"/>
</g>
<!-- Node7&#45;&gt;Node1 -->
<g id="edge12" class="edge">
<title>Node7&#45;&gt;Node1</title>
<path fill="none" stroke="#191970" d="M89.0192,-56.2977C89.0192,-48.3834 89.0192,-38.6043 89.0192,-30.0759"/>
<polygon fill="#191970" stroke="#191970" points="92.5193,-29.8469 89.0192,-19.8469 85.5193,-29.847 92.5193,-29.8469"/>
</g>
<!-- Node7&#45;&gt;Node4 -->
<g id="edge13" class="edge">
<title>Node7&#45;&gt;Node4</title>
<path fill="none" stroke="#191970" d="M151.2318,-56.6126C202.6153,-44.3165 273.4721,-27.3605 314.0401,-17.6526"/>
<polygon fill="#191970" stroke="#191970" points="315.0021,-21.0213 323.913,-15.29 313.373,-14.2135 315.0021,-21.0213"/>
</g>
</g>
</svg>
        <g id="navigator" transform="translate(0 0)" fill="#404254">
                <rect fill="#f2f5e9" fill-opacity="0.5" stroke="#606060" stroke-width=".5" x="0" y="0" width="60" height="60"/>
                <use id="zoomplus" xlink:href="#zoomPlus" x="17" y="9" onmousedown="handleZoom(evt,'in')"/>
                <use id="zoomminus" xlink:href="#zoomMin" x="42" y="9" onmousedown="handleZoom(evt,'out')"/>
                <use id="reset" xlink:href="#resetDef" x="30" y="36" onmousedown="handleReset()"/>
                <g id="arrowUp" xlink:href="#dirArrow" transform="translate(30 24)" onmousedown="handlePan(0,-1)">
                  <use xlink:href="#rim" fill="#404040">
                        <set attributeName="fill" to="#808080" begin="arrowUp.mouseover" end="arrowUp.mouseout"/>
                  </use>
                  <path fill="none" stroke="white" stroke-width="1.5" d="M0,-3.0v7 M-2.5,-0.5L0,-3.0L2.5,-0.5"/>
                </g>
                <g id="arrowRight" xlink:href="#dirArrow" transform="rotate(90) translate(36 -43)" onmousedown="handlePan(1,0)">
                  <use xlink:href="#rim" fill="#404040">
                        <set attributeName="fill" to="#808080" begin="arrowRight.mouseover" end="arrowRight.mouseout"/>
                  </use>
                  <path fill="none" stroke="white" stroke-width="1.5" d="M0,-3.0v7 M-2.5,-0.5L0,-3.0L2.5,-0.5"/>
                </g>
                <g id="arrowDown" xlink:href="#dirArrow" transform="rotate(180) translate(-30 -48)" onmousedown="handlePan(0,1)">
                  <use xlink:href="#rim" fill="#404040">
                        <set attributeName="fill" to="#808080" begin="arrowDown.mouseover" end="arrowDown.mouseout"/>
                  </use>
                  <path fill="none" stroke="white" stroke-width="1.5" d="M0,-3.0v7 M-2.5,-0.5L0,-3.0L2.5,-0.5"/>
                </g>
                <g id="arrowLeft" xlink:href="#dirArrow" transform="rotate(270) translate(-36 17)" onmousedown="handlePan(-1,0)">
                  <use xlink:href="#rim" fill="#404040">
                        <set attributeName="fill" to="#808080" begin="arrowLeft.mouseover" end="arrowLeft.mouseout"/>
                  </use>
                  <path fill="none" stroke="white" stroke-width="1.5" d="M0,-3.0v7 M-2.5,-0.5L0,-3.0L2.5,-0.5"/>
                </g>
        </g>
        <svg viewBox="0 0 15 15" width="100%" height="30px" preserveAspectRatio="xMaxYMin meet">
         <g id="arrow_out" transform="scale(0.3 0.3)">
          <a xlink:href="Rock_8h__incl_org.svg" target="_base">
           <rect id="button" ry="5" rx="5" y="6" x="6" height="38" width="38"
                fill="#f2f5e9" fill-opacity="0.5" stroke="#606060" stroke-width="1.0"/>
           <path id="arrow"
             d="M 11.500037,31.436501 C 11.940474,20.09759 22.043105,11.32322 32.158766,21.979434 L 37.068811,17.246167 C 37.068811,17.246167 37.088388,32 37.088388,32 L 22.160133,31.978069 C 22.160133,31.978069 26.997745,27.140456 26.997745,27.140456 C 18.528582,18.264221 13.291696,25.230495 11.500037,31.436501 z"
             style="fill:#404040;"/>
          </a>
         </g>
        </svg>
</svg>
