<?xml version="1.0" encoding="UTF-8" standalone="no"?>
<!DOCTYPE svg PUBLIC "-//W3C//DTD SVG 1.1//EN"
 "http://www.w3.org/Graphics/SVG/1.1/DTD/svg11.dtd">
<!-- Generated by graphviz version 2.40.1 (20161225.0304)
 -->
<!-- Title: UI/ServerTextUI/ServerTextUI.cpp Pages: 1 -->
<!--zoomable 240 -->
<svg id="main" version="1.1" xmlns="http://www.w3.org/2000/svg" xmlns:xlink="http://www.w3.org/1999/xlink" xml:space="preserve" onload="init(evt)">
<style type="text/css"><![CDATA[
.edge:hover path { stroke: red; }
.edge:hover polygon { stroke: red; fill: red; }
]]></style>
<script type="text/javascript"><![CDATA[
var edges = document.getElementsByTagName('g');
if (edges && edges.length) {
  for (var i=0;i<edges.length;i++) {
    if (edges[i].id.substr(0,4)=='edge') {
      edges[i].setAttribute('class','edge');
    }
  }
}
]]></script>
        <defs>
                <circle id="rim" cx="0" cy="0" r="7"/>
                <circle id="rim2" cx="0" cy="0" r="3.5"/>
                <g id="zoomPlus">
                        <use xlink:href="#rim" fill="#404040">
                                <set attributeName="fill" to="#808080" begin="zoomplus.mouseover" end="zoomplus.mouseout"/>
                        </use>
                        <path d="M-4,0h8M0,-4v8" fill="none" stroke="white" stroke-width="1.5" pointer-events="none"/>
                </g>
                <g id="zoomMin">
                        <use xlink:href="#rim" fill="#404040">
                                <set attributeName="fill" to="#808080" begin="zoomminus.mouseover" end="zoomminus.mouseout"/>
                        </use>
                        <path d="M-4,0h8" fill="none" stroke="white" stroke-width="1.5" pointer-events="none"/>
                </g>
                <g id="dirArrow">
                        <path fill="none" stroke="white" stroke-width="1.5" d="M0,-3.0v7 M-2.5,-0.5L0,-3.0L2.5,-0.5"/>
                </g>
               <g id="resetDef">
                       <use xlink:href="#rim2" fill="#404040">
                               <set attributeName="fill" to="#808080" begin="reset.mouseover" end="reset.mouseout"/>
                       </use>
               </g>
        </defs>

<script type="text/javascript">
var viewWidth = 1512;
var viewHeight = 240;
var sectionId = 'dynsection-0';
</script>
<script xlink:href="svgpan.js"/>
<svg id="graph" class="graph">
<g id="viewport">
<title>UI/ServerTextUI/ServerTextUI.cpp</title>
<polygon fill="#ffffff" stroke="transparent" points="-4,4 -4,-236 1507.5,-236 1507.5,4 -4,4"/>
<!-- Node0 -->
<g id="node1" class="node">
<title>Node0</title>
<polygon fill="#bfbfbf" stroke="#000000" points="731.5,-201.5 731.5,-231.5 871.5,-231.5 871.5,-201.5 731.5,-201.5"/>
<text text-anchor="start" x="739.5" y="-219.5" font-family="Helvetica,sans-Serif" font-size="10.00" fill="#000000">UI/ServerTextUI/ServerText</text>
<text text-anchor="middle" x="801.5" y="-208.5" font-family="Helvetica,sans-Serif" font-size="10.00" fill="#000000">UI.cpp</text>
</g>
<!-- Node1 -->
<g id="node2" class="node">
<title>Node1</title>
<g id="a_node2"><a xlink:href="ServerTextUI_8h.html" target="_top" xlink:title="Asteroids/UI/ServerTextUI\l/ServerTextUI.h">
<polygon fill="#ffffff" stroke="#000000" points="0,-129 0,-159 133,-159 133,-129 0,-129"/>
<text text-anchor="start" x="8" y="-147" font-family="Helvetica,sans-Serif" font-size="10.00" fill="#000000">Asteroids/UI/ServerTextUI</text>
<text text-anchor="middle" x="66.5" y="-136" font-family="Helvetica,sans-Serif" font-size="10.00" fill="#000000">/ServerTextUI.h</text>
</a>
</g>
</g>
<!-- Node0&#45;&gt;Node1 -->
<g id="edge1" class="edge">
<title>Node0&#45;&gt;Node1</title>
<path fill="none" stroke="#191970" d="M731.0867,-215.5014C609.787,-212.7827 353.9718,-202.6634 141.5,-165 136.0912,-164.0412 130.5103,-162.8579 124.9482,-161.5454"/>
<polygon fill="#191970" stroke="#191970" points="125.5476,-158.0878 114.9978,-159.0642 123.8538,-164.8798 125.5476,-158.0878"/>
</g>
<!-- Node6 -->
<g id="node7" class="node">
<title>Node6</title>
<g id="a_node7"><a xlink:href="FactoryInterface_8h.html" target="_top" xlink:title="Asteroids/Domain/Factory\l/FactoryInterface.h">
<polygon fill="#ffffff" stroke="#000000" points="151,-129 151,-159 282,-159 282,-129 151,-129"/>
<text text-anchor="start" x="159" y="-147" font-family="Helvetica,sans-Serif" font-size="10.00" fill="#000000">Asteroids/Domain/Factory</text>
<text text-anchor="middle" x="216.5" y="-136" font-family="Helvetica,sans-Serif" font-size="10.00" fill="#000000">/FactoryInterface.h</text>
</a>
</g>
</g>
<!-- Node0&#45;&gt;Node6 -->
<g id="edge7" class="edge">
<title>Node0&#45;&gt;Node6</title>
<path fill="none" stroke="#191970" d="M731.0944,-213.3299C632.028,-207.982 446.1834,-194.6955 290.5,-165 285.384,-164.0242 280.1093,-162.8583 274.843,-161.5829"/>
<polygon fill="#191970" stroke="#191970" points="275.3246,-158.0938 264.77,-159.0164 273.5963,-164.8771 275.3246,-158.0938"/>
</g>
<!-- Node7 -->
<g id="node8" class="node">
<title>Node7</title>
<g id="a_node8"><a xlink:href="TechnicalServicesFactoryInterface_8h.html" target="_top" xlink:title="Asteroids/TechnicalServices\l/TechnicalServicesFactoryInterface.h">
<polygon fill="#ffffff" stroke="#000000" points="300,-129 300,-159 479,-159 479,-129 300,-129"/>
<text text-anchor="start" x="308" y="-147" font-family="Helvetica,sans-Serif" font-size="10.00" fill="#000000">Asteroids/TechnicalServices</text>
<text text-anchor="middle" x="389.5" y="-136" font-family="Helvetica,sans-Serif" font-size="10.00" fill="#000000">/TechnicalServicesFactoryInterface.h</text>
</a>
</g>
</g>
<!-- Node0&#45;&gt;Node7 -->
<g id="edge10" class="edge">
<title>Node0&#45;&gt;Node7</title>
<path fill="none" stroke="#191970" d="M731.4121,-205.9114C667.8709,-196.0878 571.7103,-180.6624 488.5,-165 481.9454,-163.7663 475.1578,-162.4366 468.3505,-161.0667"/>
<polygon fill="#191970" stroke="#191970" points="468.8852,-157.6038 458.3877,-159.0373 467.4879,-164.463 468.8852,-157.6038"/>
</g>
<!-- Node8 -->
<g id="node9" class="node">
<title>Node8</title>
<g id="a_node9"><a xlink:href="CreditCardProcessorInterface_8h.html" target="_top" xlink:title="Asteroids/TechnicalServices\l/Financial/CreditCardProcessorInterface.h">
<polygon fill="#ffffff" stroke="#000000" points="793.5,-129 793.5,-159 993.5,-159 993.5,-129 793.5,-129"/>
<text text-anchor="start" x="801.5" y="-147" font-family="Helvetica,sans-Serif" font-size="10.00" fill="#000000">Asteroids/TechnicalServices</text>
<text text-anchor="middle" x="893.5" y="-136" font-family="Helvetica,sans-Serif" font-size="10.00" fill="#000000">/Financial/CreditCardProcessorInterface.h</text>
</a>
</g>
</g>
<!-- Node0&#45;&gt;Node8 -->
<g id="edge13" class="edge">
<title>Node0&#45;&gt;Node8</title>
<path fill="none" stroke="#191970" d="M820.5625,-201.478C833.7615,-191.0766 851.5291,-177.0749 866.2232,-165.4953"/>
<polygon fill="#191970" stroke="#191970" points="868.774,-167.9414 874.462,-159.0028 864.4413,-162.4434 868.774,-167.9414"/>
</g>
<!-- Node10 -->
<g id="node11" class="node">
<title>Node10</title>
<g id="a_node11"><a xlink:href="ServerFactoryInterface_8h.html" target="_top" xlink:title="Asteroids/Domain/Server\l/ServerFactoryInterface.h">
<polygon fill="#ffffff" stroke="#000000" points="497.5,-129 497.5,-159 625.5,-159 625.5,-129 497.5,-129"/>
<text text-anchor="start" x="505.5" y="-147" font-family="Helvetica,sans-Serif" font-size="10.00" fill="#000000">Asteroids/Domain/Server</text>
<text text-anchor="middle" x="561.5" y="-136" font-family="Helvetica,sans-Serif" font-size="10.00" fill="#000000">/ServerFactoryInterface.h</text>
</a>
</g>
</g>
<!-- Node0&#45;&gt;Node10 -->
<g id="edge16" class="edge">
<title>Node0&#45;&gt;Node10</title>
<path fill="none" stroke="#191970" d="M751.7718,-201.478C713.7194,-189.983 661.1111,-174.0909 620.8551,-161.9302"/>
<polygon fill="#191970" stroke="#191970" points="621.7494,-158.5442 611.1644,-159.0028 619.7251,-165.2451 621.7494,-158.5442"/>
</g>
<!-- Node11 -->
<g id="node12" class="node">
<title>Node11</title>
<g id="a_node12"><a xlink:href="ServerDaemonInterface_8h.html" target="_top" xlink:title="Asteroids/Domain/Server\l/ServerDaemonInterface.h">
<polygon fill="#ffffff" stroke="#000000" points="644,-129 644,-159 775,-159 775,-129 644,-129"/>
<text text-anchor="start" x="652" y="-147" font-family="Helvetica,sans-Serif" font-size="10.00" fill="#000000">Asteroids/Domain/Server</text>
<text text-anchor="middle" x="709.5" y="-136" font-family="Helvetica,sans-Serif" font-size="10.00" fill="#000000">/ServerDaemonInterface.h</text>
</a>
</g>
</g>
<!-- Node0&#45;&gt;Node11 -->
<g id="edge19" class="edge">
<title>Node0&#45;&gt;Node11</title>
<path fill="none" stroke="#191970" d="M782.4375,-201.478C769.2385,-191.0766 751.4709,-177.0749 736.7768,-165.4953"/>
<polygon fill="#191970" stroke="#191970" points="738.5587,-162.4434 728.538,-159.0028 734.226,-167.9414 738.5587,-162.4434"/>
</g>
<!-- Node12 -->
<g id="node13" class="node">
<title>Node12</title>
<g id="a_node13"><a xlink:href="HACCS__REPORT__INTERFACE_8h.html" target="_top" xlink:title="Asteroids/Domain/Server\l/HACCS_REPORT_INTERFACE.h">
<polygon fill="#ffffff" stroke="#000000" points="1011.5,-129 1011.5,-159 1185.5,-159 1185.5,-129 1011.5,-129"/>
<text text-anchor="start" x="1019.5" y="-147" font-family="Helvetica,sans-Serif" font-size="10.00" fill="#000000">Asteroids/Domain/Server</text>
<text text-anchor="middle" x="1098.5" y="-136" font-family="Helvetica,sans-Serif" font-size="10.00" fill="#000000">/HACCS_REPORT_INTERFACE.h</text>
</a>
</g>
</g>
<!-- Node0&#45;&gt;Node12 -->
<g id="edge23" class="edge">
<title>Node0&#45;&gt;Node12</title>
<path fill="none" stroke="#191970" d="M863.0386,-201.478C910.8253,-189.8128 977.1621,-173.6195 1027.2497,-161.3928"/>
<polygon fill="#191970" stroke="#191970" points="1028.1555,-164.7745 1037.0402,-159.0028 1026.4955,-157.9742 1028.1555,-164.7745"/>
</g>
<!-- Node14 -->
<g id="node15" class="node">
<title>Node14</title>
<g id="a_node15"><a xlink:href="HACCS__REPORT__ACTIVITY__INTERFACE_8h.html" target="_top" xlink:title="Asteroids/Domain/Server\l/HACCS_REPORT_ACTIVITY\l_INTERFACE.h">
<polygon fill="#ffffff" stroke="#000000" points="1203.5,-123.5 1203.5,-164.5 1357.5,-164.5 1357.5,-123.5 1203.5,-123.5"/>
<text text-anchor="start" x="1211.5" y="-152.5" font-family="Helvetica,sans-Serif" font-size="10.00" fill="#000000">Asteroids/Domain/Server</text>
<text text-anchor="start" x="1211.5" y="-141.5" font-family="Helvetica,sans-Serif" font-size="10.00" fill="#000000">/HACCS_REPORT_ACTIVITY</text>
<text text-anchor="middle" x="1280.5" y="-130.5" font-family="Helvetica,sans-Serif" font-size="10.00" fill="#000000">_INTERFACE.h</text>
</a>
</g>
</g>
<!-- Node0&#45;&gt;Node14 -->
<g id="edge28" class="edge">
<title>Node0&#45;&gt;Node14</title>
<path fill="none" stroke="#191970" d="M871.7908,-209.6295C948.5463,-201.5997 1075.2254,-186.8062 1193.2952,-165.1338"/>
<polygon fill="#191970" stroke="#191970" points="1194.0378,-168.5559 1203.2312,-163.2897 1192.7604,-161.6734 1194.0378,-168.5559"/>
</g>
<!-- Node15 -->
<g id="node16" class="node">
<title>Node15</title>
<polygon fill="#ffffff" stroke="#bfbfbf" points="1375.5,-134.5 1375.5,-153.5 1429.5,-153.5 1429.5,-134.5 1375.5,-134.5"/>
<text text-anchor="middle" x="1402.5" y="-141.5" font-family="Helvetica,sans-Serif" font-size="10.00" fill="#000000">iostream</text>
</g>
<!-- Node0&#45;&gt;Node15 -->
<g id="edge31" class="edge">
<title>Node0&#45;&gt;Node15</title>
<path fill="none" stroke="#191970" d="M871.6217,-213.9063C1001.8773,-208.4631 1276.1422,-193.893 1366.5,-165 1371.2468,-163.4822 1376.0452,-161.261 1380.5239,-158.8248"/>
<polygon fill="#191970" stroke="#191970" points="1382.3548,-161.8081 1389.149,-153.6786 1378.7681,-155.7968 1382.3548,-161.8081"/>
</g>
<!-- Node16 -->
<g id="node17" class="node">
<title>Node16</title>
<polygon fill="#ffffff" stroke="#bfbfbf" points="1447.5,-134.5 1447.5,-153.5 1503.5,-153.5 1503.5,-134.5 1447.5,-134.5"/>
<text text-anchor="middle" x="1475.5" y="-141.5" font-family="Helvetica,sans-Serif" font-size="10.00" fill="#000000">algorithm</text>
</g>
<!-- Node0&#45;&gt;Node16 -->
<g id="edge32" class="edge">
<title>Node0&#45;&gt;Node16</title>
<path fill="none" stroke="#191970" d="M871.5789,-214.65C1014.3558,-210.2591 1334.2432,-197.0736 1438.5,-165 1443.3623,-163.5042 1448.2865,-161.2931 1452.8873,-158.8601"/>
<polygon fill="#191970" stroke="#191970" points="1454.8631,-161.7601 1461.7535,-153.7119 1451.3481,-155.7066 1454.8631,-161.7601"/>
</g>
<!-- Node2 -->
<g id="node3" class="node">
<title>Node2</title>
<g id="a_node3"><a xlink:href="ForwardDeclarations_8h.html" target="_top" xlink:title="Asteroids/ForwardDeclarations.h">
<polygon fill="#ffffff" stroke="#000000" points="482,-.5 482,-19.5 641,-19.5 641,-.5 482,-.5"/>
<text text-anchor="middle" x="561.5" y="-7.5" font-family="Helvetica,sans-Serif" font-size="10.00" fill="#000000">Asteroids/ForwardDeclarations.h</text>
</a>
</g>
</g>
<!-- Node1&#45;&gt;Node2 -->
<g id="edge2" class="edge">
<title>Node1&#45;&gt;Node2</title>
<path fill="none" stroke="#191970" d="M85.8032,-128.9886C112.8994,-108.7768 164.5147,-73.3514 214.5,-56 260.5422,-40.0174 385.1121,-26.0043 471.7301,-17.7672"/>
<polygon fill="#191970" stroke="#191970" points="472.2051,-21.238 481.833,-16.8162 471.549,-14.2688 472.2051,-21.238"/>
</g>
<!-- Node3 -->
<g id="node4" class="node">
<title>Node3</title>
<g id="a_node4"><a xlink:href="ServerTextUIInterface_8h.html" target="_top" xlink:title="Asteroids/UI/ServerTextUI\l/ServerTextUIInterface.h">
<polygon fill="#ffffff" stroke="#000000" points="224,-56.5 224,-86.5 357,-86.5 357,-56.5 224,-56.5"/>
<text text-anchor="start" x="232" y="-74.5" font-family="Helvetica,sans-Serif" font-size="10.00" fill="#000000">Asteroids/UI/ServerTextUI</text>
<text text-anchor="middle" x="290.5" y="-63.5" font-family="Helvetica,sans-Serif" font-size="10.00" fill="#000000">/ServerTextUIInterface.h</text>
</a>
</g>
</g>
<!-- Node1&#45;&gt;Node3 -->
<g id="edge3" class="edge">
<title>Node1&#45;&gt;Node3</title>
<path fill="none" stroke="#191970" d="M112.9129,-128.978C148.2033,-117.5559 196.9073,-101.7923 234.3856,-89.662"/>
<polygon fill="#191970" stroke="#191970" points="235.7102,-92.9121 244.1465,-86.5028 233.5546,-86.2523 235.7102,-92.9121"/>
</g>
<!-- Node4 -->
<g id="node5" class="node">
<title>Node4</title>
<g id="a_node5"><a xlink:href="UI_2ServerTextUI_2Enums_2Enums_8h.html" target="_top" xlink:title="Asteroids/UI/ServerTextUI\l/Enums/Enums.h">
<polygon fill="#ffffff" stroke="#000000" points="0,-56.5 0,-86.5 133,-86.5 133,-56.5 0,-56.5"/>
<text text-anchor="start" x="8" y="-74.5" font-family="Helvetica,sans-Serif" font-size="10.00" fill="#000000">Asteroids/UI/ServerTextUI</text>
<text text-anchor="middle" x="66.5" y="-63.5" font-family="Helvetica,sans-Serif" font-size="10.00" fill="#000000">/Enums/Enums.h</text>
</a>
</g>
</g>
<!-- Node1&#45;&gt;Node4 -->
<g id="edge5" class="edge">
<title>Node1&#45;&gt;Node4</title>
<path fill="none" stroke="#191970" d="M66.5,-128.978C66.5,-119.6459 66.5,-107.4157 66.5,-96.6368"/>
<polygon fill="#191970" stroke="#191970" points="70.0001,-96.5028 66.5,-86.5028 63.0001,-96.5028 70.0001,-96.5028"/>
</g>
<!-- Node5 -->
<g id="node6" class="node">
<title>Node5</title>
<polygon fill="#ffffff" stroke="#bfbfbf" points="479.5,-62 479.5,-81 531.5,-81 531.5,-62 479.5,-62"/>
<text text-anchor="middle" x="505.5" y="-69" font-family="Helvetica,sans-Serif" font-size="10.00" fill="#000000">memory</text>
</g>
<!-- Node1&#45;&gt;Node5 -->
<g id="edge6" class="edge">
<title>Node1&#45;&gt;Node5</title>
<path fill="none" stroke="#191970" d="M116.703,-128.9564C124.9437,-126.7722 133.4275,-124.6934 141.5,-123 203.8208,-109.9265 390.1383,-85.9444 469.289,-76.0022"/>
<polygon fill="#191970" stroke="#191970" points="469.7939,-79.4664 479.2811,-74.7502 468.9235,-72.5207 469.7939,-79.4664"/>
</g>
<!-- Node3&#45;&gt;Node2 -->
<g id="edge4" class="edge">
<title>Node3&#45;&gt;Node2</title>
<path fill="none" stroke="#191970" d="M356.7941,-56.4554C403.8952,-45.7664 466.2469,-31.6165 509.7083,-21.7535"/>
<polygon fill="#191970" stroke="#191970" points="510.5272,-25.1567 519.5046,-19.5303 508.978,-18.3303 510.5272,-25.1567"/>
</g>
<!-- Node6&#45;&gt;Node2 -->
<g id="edge8" class="edge">
<title>Node6&#45;&gt;Node2</title>
<path fill="none" stroke="#191970" d="M257.8824,-128.9583C287.9365,-117.843 329.4788,-102.0834 365.5,-87 396.1371,-74.1711 402.7339,-68.5162 433.5,-56 463.237,-43.9025 497.4894,-31.6807 523.0745,-22.8785"/>
<polygon fill="#191970" stroke="#191970" points="524.4443,-26.1092 532.7742,-19.5623 522.1797,-19.4856 524.4443,-26.1092"/>
</g>
<!-- Node6&#45;&gt;Node5 -->
<g id="edge9" class="edge">
<title>Node6&#45;&gt;Node5</title>
<path fill="none" stroke="#191970" d="M268.5788,-128.9286C275.9257,-126.8877 283.394,-124.8585 290.5,-123 353.1062,-106.626 426.5028,-89.4819 469.3222,-79.6841"/>
<polygon fill="#191970" stroke="#191970" points="470.2963,-83.0519 479.2671,-77.4149 468.739,-76.2273 470.2963,-83.0519"/>
</g>
<!-- Node7&#45;&gt;Node2 -->
<g id="edge11" class="edge">
<title>Node7&#45;&gt;Node2</title>
<path fill="none" stroke="#191970" d="M400.7382,-128.7515C415.2401,-109.8606 442.0121,-77.5406 470.5,-56 487.8944,-42.8476 509.6198,-31.7016 527.4804,-23.6765"/>
<polygon fill="#191970" stroke="#191970" points="529.1855,-26.7513 536.9532,-19.5463 526.3877,-20.3347 529.1855,-26.7513"/>
</g>
<!-- Node7&#45;&gt;Node5 -->
<g id="edge12" class="edge">
<title>Node7&#45;&gt;Node5</title>
<path fill="none" stroke="#191970" d="M413.5353,-128.978C433.4469,-116.5332 461.6044,-98.9348 481.5048,-86.497"/>
<polygon fill="#191970" stroke="#191970" points="483.383,-89.4505 490.008,-81.1825 479.673,-83.5145 483.383,-89.4505"/>
</g>
<!-- Node8&#45;&gt;Node2 -->
<g id="edge14" class="edge">
<title>Node8&#45;&gt;Node2</title>
<path fill="none" stroke="#191970" d="M856.0607,-128.889C790.7064,-102.511 656.8507,-48.4849 594.6428,-23.3769"/>
<polygon fill="#191970" stroke="#191970" points="595.8786,-20.1014 585.2954,-19.6042 593.2586,-26.5926 595.8786,-20.1014"/>
</g>
<!-- Node9 -->
<g id="node10" class="node">
<title>Node9</title>
<polygon fill="#ffffff" stroke="#bfbfbf" points="899,-62 899,-81 940,-81 940,-62 899,-62"/>
<text text-anchor="middle" x="919.5" y="-69" font-family="Helvetica,sans-Serif" font-size="10.00" fill="#000000">string</text>
</g>
<!-- Node8&#45;&gt;Node9 -->
<g id="edge15" class="edge">
<title>Node8&#45;&gt;Node9</title>
<path fill="none" stroke="#191970" d="M898.8872,-128.978C902.8447,-117.9428 908.2554,-102.8552 912.5403,-90.9068"/>
<polygon fill="#191970" stroke="#191970" points="915.87,-91.9902 915.9512,-81.3957 909.2809,-89.6272 915.87,-91.9902"/>
</g>
<!-- Node10&#45;&gt;Node2 -->
<g id="edge17" class="edge">
<title>Node10&#45;&gt;Node2</title>
<path fill="none" stroke="#191970" d="M561.5,-128.889C561.5,-104.5735 561.5,-56.7644 561.5,-29.7698"/>
<polygon fill="#191970" stroke="#191970" points="565.0001,-29.6041 561.5,-19.6042 558.0001,-29.6042 565.0001,-29.6041"/>
</g>
<!-- Node10&#45;&gt;Node5 -->
<g id="edge18" class="edge">
<title>Node10&#45;&gt;Node5</title>
<path fill="none" stroke="#191970" d="M549.8968,-128.978C541.0286,-117.4969 528.7723,-101.6294 519.3837,-89.4744"/>
<polygon fill="#191970" stroke="#191970" points="522.0264,-87.1702 513.1435,-81.3957 516.4866,-91.4493 522.0264,-87.1702"/>
</g>
<!-- Node11&#45;&gt;Node2 -->
<g id="edge20" class="edge">
<title>Node11&#45;&gt;Node2</title>
<path fill="none" stroke="#191970" d="M692.8102,-128.889C664.8753,-103.5965 608.8652,-52.8847 579.856,-26.6196"/>
<polygon fill="#191970" stroke="#191970" points="581.8697,-23.7214 572.1076,-19.6042 577.1715,-28.9105 581.8697,-23.7214"/>
</g>
<!-- Node11&#45;&gt;Node5 -->
<g id="edge21" class="edge">
<title>Node11&#45;&gt;Node5</title>
<path fill="none" stroke="#191970" d="M667.2311,-128.978C630.0542,-115.7656 576.5317,-96.7441 541.3947,-84.2567"/>
<polygon fill="#191970" stroke="#191970" points="542.1549,-80.8124 531.5602,-80.7616 539.8107,-87.4083 542.1549,-80.8124"/>
</g>
<!-- Node11&#45;&gt;Node9 -->
<g id="edge22" class="edge">
<title>Node11&#45;&gt;Node9</title>
<path fill="none" stroke="#191970" d="M753.0121,-128.978C793.688,-114.9351 853.372,-94.3299 889.1371,-81.9824"/>
<polygon fill="#191970" stroke="#191970" points="890.6776,-85.1534 898.988,-78.5815 888.3932,-78.5366 890.6776,-85.1534"/>
</g>
<!-- Node12&#45;&gt;Node2 -->
<g id="edge24" class="edge">
<title>Node12&#45;&gt;Node2</title>
<path fill="none" stroke="#191970" d="M1078.9336,-128.8983C1051.4685,-108.5817 999.1526,-73.0353 948.5,-56 895.2327,-38.0853 748.137,-24.0508 651.4154,-16.4043"/>
<polygon fill="#191970" stroke="#191970" points="651.5848,-12.9069 641.3423,-15.6166 651.039,-19.8856 651.5848,-12.9069"/>
</g>
<!-- Node12&#45;&gt;Node5 -->
<g id="edge27" class="edge">
<title>Node12&#45;&gt;Node5</title>
<path fill="none" stroke="#191970" d="M1034.658,-128.9895C1023.9597,-126.7749 1012.9437,-124.678 1002.5,-123 831.0118,-95.4475 623.7501,-79.4905 541.5757,-73.8451"/>
<polygon fill="#191970" stroke="#191970" points="541.7184,-70.3468 531.5045,-73.1621 541.2447,-77.3308 541.7184,-70.3468"/>
</g>
<!-- Node12&#45;&gt;Node9 -->
<g id="edge25" class="edge">
<title>Node12&#45;&gt;Node9</title>
<path fill="none" stroke="#191970" d="M1061.4111,-128.978C1028.331,-115.5796 980.5018,-96.2074 949.7035,-83.7332"/>
<polygon fill="#191970" stroke="#191970" points="950.9253,-80.452 940.3427,-79.9419 948.2974,-86.94 950.9253,-80.452"/>
</g>
<!-- Node13 -->
<g id="node14" class="node">
<title>Node13</title>
<polygon fill="#ffffff" stroke="#bfbfbf" points="1076.5,-62 1076.5,-81 1120.5,-81 1120.5,-62 1076.5,-62"/>
<text text-anchor="middle" x="1098.5" y="-69" font-family="Helvetica,sans-Serif" font-size="10.00" fill="#000000">vector</text>
</g>
<!-- Node12&#45;&gt;Node13 -->
<g id="edge26" class="edge">
<title>Node12&#45;&gt;Node13</title>
<path fill="none" stroke="#191970" d="M1098.5,-128.978C1098.5,-118.1657 1098.5,-103.4631 1098.5,-91.6348"/>
<polygon fill="#191970" stroke="#191970" points="1102.0001,-91.3956 1098.5,-81.3957 1095.0001,-91.3957 1102.0001,-91.3956"/>
</g>
<!-- Node14&#45;&gt;Node2 -->
<g id="edge29" class="edge">
<title>Node14&#45;&gt;Node2</title>
<path fill="none" stroke="#191970" d="M1253.8771,-123.463C1225.001,-102.4408 1176.6865,-70.8158 1129.5,-56 1042.824,-28.7851 788.1831,-16.9437 651.1817,-12.4243"/>
<polygon fill="#191970" stroke="#191970" points="651.2298,-8.9242 641.1218,-12.0987 651.0033,-15.9205 651.2298,-8.9242"/>
</g>
<!-- Node14&#45;&gt;Node9 -->
<g id="edge30" class="edge">
<title>Node14&#45;&gt;Node9</title>
<path fill="none" stroke="#191970" d="M1203.1906,-124.912C1200.2592,-124.255 1197.3546,-123.6153 1194.5,-123 1106.2848,-103.9841 1001.2738,-85.445 950.3059,-76.7059"/>
<polygon fill="#191970" stroke="#191970" points="950.7222,-73.2264 940.2757,-74.9932 949.5439,-80.1265 950.7222,-73.2264"/>
</g>
</g>
</svg>
        <g id="navigator" transform="translate(0 0)" fill="#404254">
                <rect fill="#f2f5e9" fill-opacity="0.5" stroke="#606060" stroke-width=".5" x="0" y="0" width="60" height="60"/>
                <use id="zoomplus" xlink:href="#zoomPlus" x="17" y="9" onmousedown="handleZoom(evt,'in')"/>
                <use id="zoomminus" xlink:href="#zoomMin" x="42" y="9" onmousedown="handleZoom(evt,'out')"/>
                <use id="reset" xlink:href="#resetDef" x="30" y="36" onmousedown="handleReset()"/>
                <g id="arrowUp" xlink:href="#dirArrow" transform="translate(30 24)" onmousedown="handlePan(0,-1)">
                  <use xlink:href="#rim" fill="#404040">
                        <set attributeName="fill" to="#808080" begin="arrowUp.mouseover" end="arrowUp.mouseout"/>
                  </use>
                  <path fill="none" stroke="white" stroke-width="1.5" d="M0,-3.0v7 M-2.5,-0.5L0,-3.0L2.5,-0.5"/>
                </g>
                <g id="arrowRight" xlink:href="#dirArrow" transform="rotate(90) translate(36 -43)" onmousedown="handlePan(1,0)">
                  <use xlink:href="#rim" fill="#404040">
                        <set attributeName="fill" to="#808080" begin="arrowRight.mouseover" end="arrowRight.mouseout"/>
                  </use>
                  <path fill="none" stroke="white" stroke-width="1.5" d="M0,-3.0v7 M-2.5,-0.5L0,-3.0L2.5,-0.5"/>
                </g>
                <g id="arrowDown" xlink:href="#dirArrow" transform="rotate(180) translate(-30 -48)" onmousedown="handlePan(0,1)">
                  <use xlink:href="#rim" fill="#404040">
                        <set attributeName="fill" to="#808080" begin="arrowDown.mouseover" end="arrowDown.mouseout"/>
                  </use>
                  <path fill="none" stroke="white" stroke-width="1.5" d="M0,-3.0v7 M-2.5,-0.5L0,-3.0L2.5,-0.5"/>
                </g>
                <g id="arrowLeft" xlink:href="#dirArrow" transform="rotate(270) translate(-36 17)" onmousedown="handlePan(-1,0)">
                  <use xlink:href="#rim" fill="#404040">
                        <set attributeName="fill" to="#808080" begin="arrowLeft.mouseover" end="arrowLeft.mouseout"/>
                  </use>
                  <path fill="none" stroke="white" stroke-width="1.5" d="M0,-3.0v7 M-2.5,-0.5L0,-3.0L2.5,-0.5"/>
                </g>
        </g>
        <svg viewBox="0 0 15 15" width="100%" height="30px" preserveAspectRatio="xMaxYMin meet">
         <g id="arrow_out" transform="scale(0.3 0.3)">
          <a xlink:href="ServerTextUI_8cpp__incl_org.svg" target="_base">
           <rect id="button" ry="5" rx="5" y="6" x="6" height="38" width="38"
                fill="#f2f5e9" fill-opacity="0.5" stroke="#606060" stroke-width="1.0"/>
           <path id="arrow"
             d="M 11.500037,31.436501 C 11.940474,20.09759 22.043105,11.32322 32.158766,21.979434 L 37.068811,17.246167 C 37.068811,17.246167 37.088388,32 37.088388,32 L 22.160133,31.978069 C 22.160133,31.978069 26.997745,27.140456 26.997745,27.140456 C 18.528582,18.264221 13.291696,25.230495 11.500037,31.436501 z"
             style="fill:#404040;"/>
          </a>
         </g>
        </svg>
</svg>
