<?xml version="1.0" encoding="UTF-8" standalone="no"?>
<!DOCTYPE svg PUBLIC "-//W3C//DTD SVG 1.1//EN"
 "http://www.w3.org/Graphics/SVG/1.1/DTD/svg11.dtd">
<!-- Generated by graphviz version 2.40.1 (20161225.0304)
 -->
<!-- Title: UI/ServerTextUI/ServerTextUI.h Pages: 1 -->
<svg width="424pt" height="151pt"
 viewBox="0.00 0.00 423.50 151.00" xmlns="http://www.w3.org/2000/svg" xmlns:xlink="http://www.w3.org/1999/xlink">
<g id="graph0" class="graph" transform="scale(1 1) rotate(0) translate(4 147)">
<title>UI/ServerTextUI/ServerTextUI.h</title>
<polygon fill="#ffffff" stroke="transparent" points="-4,4 -4,-147 419.5,-147 419.5,4 -4,4"/>
<!-- Node0 -->
<g id="node1" class="node">
<title>Node0</title>
<polygon fill="#bfbfbf" stroke="#000000" points="123.5,-123.5 123.5,-142.5 281.5,-142.5 281.5,-123.5 123.5,-123.5"/>
<text text-anchor="middle" x="202.5" y="-130.5" font-family="Helvetica,sans-Serif" font-size="10.00" fill="#000000">UI/ServerTextUI/ServerTextUI.h</text>
</g>
<!-- Node1 -->
<g id="node2" class="node">
<title>Node1</title>
<g id="a_node2"><a xlink:href="ForwardDeclarations_8h.html" target="_top" xlink:title="Asteroids/ForwardDeclarations.h">
<polygon fill="#ffffff" stroke="#000000" points="0,-.5 0,-19.5 159,-19.5 159,-.5 0,-.5"/>
<text text-anchor="middle" x="79.5" y="-7.5" font-family="Helvetica,sans-Serif" font-size="10.00" fill="#000000">Asteroids/ForwardDeclarations.h</text>
</a>
</g>
</g>
<!-- Node0&#45;&gt;Node1 -->
<g id="edge1" class="edge">
<title>Node0&#45;&gt;Node1</title>
<path fill="none" stroke="#191970" d="M148.2249,-123.4773C109.8759,-115.5154 63.2854,-102.9104 51.5,-87 38.2336,-69.0903 51.6962,-44.2587 64.1381,-27.6877"/>
<polygon fill="#191970" stroke="#191970" points="66.89,-29.8505 70.4044,-19.8555 61.4241,-25.4774 66.89,-29.8505"/>
</g>
<!-- Node2 -->
<g id="node3" class="node">
<title>Node2</title>
<g id="a_node3"><a xlink:href="ServerTextUIInterface_8h.html" target="_top" xlink:title="Asteroids/UI/ServerTextUI\l/ServerTextUIInterface.h">
<polygon fill="#ffffff" stroke="#000000" points="61,-56.5 61,-86.5 194,-86.5 194,-56.5 61,-56.5"/>
<text text-anchor="start" x="69" y="-74.5" font-family="Helvetica,sans-Serif" font-size="10.00" fill="#000000">Asteroids/UI/ServerTextUI</text>
<text text-anchor="middle" x="127.5" y="-63.5" font-family="Helvetica,sans-Serif" font-size="10.00" fill="#000000">/ServerTextUIInterface.h</text>
</a>
</g>
</g>
<!-- Node0&#45;&gt;Node2 -->
<g id="edge2" class="edge">
<title>Node0&#45;&gt;Node2</title>
<path fill="none" stroke="#191970" d="M190.7813,-123.3906C180.9129,-115.2986 166.4277,-103.4207 153.8054,-93.0705"/>
<polygon fill="#191970" stroke="#191970" points="155.7991,-90.179 145.8471,-86.5446 151.3605,-95.5919 155.7991,-90.179"/>
</g>
<!-- Node3 -->
<g id="node4" class="node">
<title>Node3</title>
<g id="a_node4"><a xlink:href="UI_2ServerTextUI_2Enums_2Enums_8h.html" target="_top" xlink:title="Asteroids/UI/ServerTextUI\l/Enums/Enums.h">
<polygon fill="#ffffff" stroke="#000000" points="212,-56.5 212,-86.5 345,-86.5 345,-56.5 212,-56.5"/>
<text text-anchor="start" x="220" y="-74.5" font-family="Helvetica,sans-Serif" font-size="10.00" fill="#000000">Asteroids/UI/ServerTextUI</text>
<text text-anchor="middle" x="278.5" y="-63.5" font-family="Helvetica,sans-Serif" font-size="10.00" fill="#000000">/Enums/Enums.h</text>
</a>
</g>
</g>
<!-- Node0&#45;&gt;Node3 -->
<g id="edge4" class="edge">
<title>Node0&#45;&gt;Node3</title>
<path fill="none" stroke="#191970" d="M214.375,-123.3906C224.375,-115.2986 239.0533,-103.4207 251.8438,-93.0705"/>
<polygon fill="#191970" stroke="#191970" points="254.3363,-95.5559 259.9083,-86.5446 249.933,-90.1144 254.3363,-95.5559"/>
</g>
<!-- Node4 -->
<g id="node5" class="node">
<title>Node4</title>
<polygon fill="#ffffff" stroke="#bfbfbf" points="363.5,-62 363.5,-81 415.5,-81 415.5,-62 363.5,-62"/>
<text text-anchor="middle" x="389.5" y="-69" font-family="Helvetica,sans-Serif" font-size="10.00" fill="#000000">memory</text>
</g>
<!-- Node0&#45;&gt;Node4 -->
<g id="edge5" class="edge">
<title>Node0&#45;&gt;Node4</title>
<path fill="none" stroke="#191970" d="M238.538,-123.4433C269.5996,-114.887 315.4695,-101.4859 354.5,-87 356.1277,-86.3959 357.7876,-85.7537 359.4564,-85.0874"/>
<polygon fill="#191970" stroke="#191970" points="361.0781,-88.2026 368.9454,-81.1064 358.37,-81.7477 361.0781,-88.2026"/>
</g>
<!-- Node2&#45;&gt;Node1 -->
<g id="edge3" class="edge">
<title>Node2&#45;&gt;Node1</title>
<path fill="none" stroke="#191970" d="M115.6348,-56.2977C108.9025,-47.672 100.4415,-36.8312 93.3994,-27.8087"/>
<polygon fill="#191970" stroke="#191970" points="96.0973,-25.5766 87.1854,-19.8469 90.579,-29.8836 96.0973,-25.5766"/>
</g>
</g>
</svg>
