<?xml version="1.0" encoding="UTF-8" standalone="no"?>
<!DOCTYPE svg PUBLIC "-//W3C//DTD SVG 1.1//EN"
 "http://www.w3.org/Graphics/SVG/1.1/DTD/svg11.dtd">
<!-- Generated by graphviz version 2.40.1 (20161225.0304)
 -->
<!-- Title: Domain/Server/ServerUpdater.cpp Pages: 1 -->
<svg width="349pt" height="218pt"
 viewBox="0.00 0.00 348.50 218.00" xmlns="http://www.w3.org/2000/svg" xmlns:xlink="http://www.w3.org/1999/xlink">
<g id="graph0" class="graph" transform="scale(1 1) rotate(0) translate(4 214)">
<title>Domain/Server/ServerUpdater.cpp</title>
<polygon fill="#ffffff" stroke="transparent" points="-4,4 -4,-214 344.5,-214 344.5,4 -4,4"/>
<!-- Node0 -->
<g id="node1" class="node">
<title>Node0</title>
<polygon fill="#bfbfbf" stroke="#000000" points="137,-190.5 137,-209.5 304,-209.5 304,-190.5 137,-190.5"/>
<text text-anchor="middle" x="220.5" y="-197.5" font-family="Helvetica,sans-Serif" font-size="10.00" fill="#000000">Domain/Server/ServerUpdater.cpp</text>
</g>
<!-- Node1 -->
<g id="node2" class="node">
<title>Node1</title>
<g id="a_node2"><a xlink:href="ServerUpdater_8h.html" target="_top" xlink:title="Asteroids/Domain/Server\l/ServerUpdater.h">
<polygon fill="#ffffff" stroke="#000000" points="16.5,-123.5 16.5,-153.5 142.5,-153.5 142.5,-123.5 16.5,-123.5"/>
<text text-anchor="start" x="24.5" y="-141.5" font-family="Helvetica,sans-Serif" font-size="10.00" fill="#000000">Asteroids/Domain/Server</text>
<text text-anchor="middle" x="79.5" y="-130.5" font-family="Helvetica,sans-Serif" font-size="10.00" fill="#000000">/ServerUpdater.h</text>
</a>
</g>
</g>
<!-- Node0&#45;&gt;Node1 -->
<g id="edge1" class="edge">
<title>Node0&#45;&gt;Node1</title>
<path fill="none" stroke="#191970" d="M198.4688,-190.3906C178.4143,-181.6435 148.2182,-168.4728 123.2666,-157.5897"/>
<polygon fill="#191970" stroke="#191970" points="124.5578,-154.3345 113.9925,-153.5446 121.7592,-160.7507 124.5578,-154.3345"/>
</g>
<!-- Node4 -->
<g id="node5" class="node">
<title>Node4</title>
<polygon fill="#ffffff" stroke="#bfbfbf" points="160.5,-129 160.5,-148 214.5,-148 214.5,-129 160.5,-129"/>
<text text-anchor="middle" x="187.5" y="-136" font-family="Helvetica,sans-Serif" font-size="10.00" fill="#000000">iostream</text>
</g>
<!-- Node0&#45;&gt;Node4 -->
<g id="edge5" class="edge">
<title>Node0&#45;&gt;Node4</title>
<path fill="none" stroke="#191970" d="M215.3438,-190.3906C210.5768,-181.5068 203.3615,-168.0601 197.4703,-157.0811"/>
<polygon fill="#191970" stroke="#191970" points="200.5412,-155.4016 192.7289,-148.2449 194.3731,-158.7114 200.5412,-155.4016"/>
</g>
<!-- Node5 -->
<g id="node6" class="node">
<title>Node5</title>
<polygon fill="#ffffff" stroke="#bfbfbf" points="232.5,-129 232.5,-148 276.5,-148 276.5,-129 232.5,-129"/>
<text text-anchor="middle" x="254.5" y="-136" font-family="Helvetica,sans-Serif" font-size="10.00" fill="#000000">thread</text>
</g>
<!-- Node0&#45;&gt;Node5 -->
<g id="edge6" class="edge">
<title>Node0&#45;&gt;Node5</title>
<path fill="none" stroke="#191970" d="M225.8125,-190.3906C230.7239,-181.5068 238.1579,-168.0601 244.2275,-157.0811"/>
<polygon fill="#191970" stroke="#191970" points="247.3373,-158.6899 249.1126,-148.2449 241.2112,-155.3031 247.3373,-158.6899"/>
</g>
<!-- Node6 -->
<g id="node7" class="node">
<title>Node6</title>
<polygon fill="#ffffff" stroke="#bfbfbf" points="294.5,-129 294.5,-148 340.5,-148 340.5,-129 294.5,-129"/>
<text text-anchor="middle" x="317.5" y="-136" font-family="Helvetica,sans-Serif" font-size="10.00" fill="#000000">chrono</text>
</g>
<!-- Node0&#45;&gt;Node6 -->
<g id="edge7" class="edge">
<title>Node0&#45;&gt;Node6</title>
<path fill="none" stroke="#191970" d="M235.6563,-190.3906C251.1743,-180.5519 275.5193,-165.1167 293.6284,-153.6351"/>
<polygon fill="#191970" stroke="#191970" points="295.8787,-156.3526 302.4502,-148.0419 292.1304,-150.4407 295.8787,-156.3526"/>
</g>
<!-- Node2 -->
<g id="node3" class="node">
<title>Node2</title>
<g id="a_node3"><a xlink:href="ForwardDeclarations_8h.html" target="_top" xlink:title="Asteroids/ForwardDeclarations.h">
<polygon fill="#ffffff" stroke="#000000" points="0,-.5 0,-19.5 159,-19.5 159,-.5 0,-.5"/>
<text text-anchor="middle" x="79.5" y="-7.5" font-family="Helvetica,sans-Serif" font-size="10.00" fill="#000000">Asteroids/ForwardDeclarations.h</text>
</a>
</g>
</g>
<!-- Node1&#45;&gt;Node2 -->
<g id="edge2" class="edge">
<title>Node1&#45;&gt;Node2</title>
<path fill="none" stroke="#191970" d="M68.8752,-123.064C62.7651,-113.2271 55.6862,-99.9392 52.5,-87 49.2057,-73.6218 48.8863,-69.2954 52.5,-56 55.2176,-46.0015 60.7175,-35.9556 66.0484,-27.8139"/>
<polygon fill="#191970" stroke="#191970" points="68.9755,-29.7354 71.8381,-19.5346 63.239,-25.7239 68.9755,-29.7354"/>
</g>
<!-- Node3 -->
<g id="node4" class="node">
<title>Node3</title>
<g id="a_node4"><a xlink:href="ServerUpdaterInterface_8h.html" target="_top" xlink:title="Asteroids/Domain/Server\l/ServerUpdaterInterface.h">
<polygon fill="#ffffff" stroke="#000000" points="62,-56.5 62,-86.5 191,-86.5 191,-56.5 62,-56.5"/>
<text text-anchor="start" x="70" y="-74.5" font-family="Helvetica,sans-Serif" font-size="10.00" fill="#000000">Asteroids/Domain/Server</text>
<text text-anchor="middle" x="126.5" y="-63.5" font-family="Helvetica,sans-Serif" font-size="10.00" fill="#000000">/ServerUpdaterInterface.h</text>
</a>
</g>
</g>
<!-- Node1&#45;&gt;Node3 -->
<g id="edge3" class="edge">
<title>Node1&#45;&gt;Node3</title>
<path fill="none" stroke="#191970" d="M90.165,-123.2967C96.0541,-114.9016 103.4944,-104.2952 110.1062,-94.8698"/>
<polygon fill="#191970" stroke="#191970" points="112.9996,-96.8398 115.8772,-86.6432 107.269,-92.8198 112.9996,-96.8398"/>
</g>
<!-- Node3&#45;&gt;Node2 -->
<g id="edge4" class="edge">
<title>Node3&#45;&gt;Node2</title>
<path fill="none" stroke="#191970" d="M114.882,-56.2977C108.29,-47.672 100.0052,-36.8312 93.1099,-27.8087"/>
<polygon fill="#191970" stroke="#191970" points="95.8783,-25.6671 87.0253,-19.8469 90.3165,-29.9176 95.8783,-25.6671"/>
</g>
</g>
</svg>
