<?xml version="1.0" encoding="UTF-8" standalone="no"?>
<!DOCTYPE svg PUBLIC "-//W3C//DTD SVG 1.1//EN"
 "http://www.w3.org/Graphics/SVG/1.1/DTD/svg11.dtd">
<!-- Generated by graphviz version 2.40.1 (20161225.0304)
 -->
<!-- Title: Domain/Server/ServerUpdater.h Pages: 1 -->
<svg width="199pt" height="151pt"
 viewBox="0.00 0.00 199.00 151.00" xmlns="http://www.w3.org/2000/svg" xmlns:xlink="http://www.w3.org/1999/xlink">
<g id="graph0" class="graph" transform="scale(1 1) rotate(0) translate(4 147)">
<title>Domain/Server/ServerUpdater.h</title>
<polygon fill="#ffffff" stroke="transparent" points="-4,4 -4,-147 195,-147 195,4 -4,4"/>
<!-- Node0 -->
<g id="node1" class="node">
<title>Node0</title>
<polygon fill="#bfbfbf" stroke="#000000" points="1.5,-123.5 1.5,-142.5 157.5,-142.5 157.5,-123.5 1.5,-123.5"/>
<text text-anchor="middle" x="79.5" y="-130.5" font-family="Helvetica,sans-Serif" font-size="10.00" fill="#000000">Domain/Server/ServerUpdater.h</text>
</g>
<!-- Node1 -->
<g id="node2" class="node">
<title>Node1</title>
<g id="a_node2"><a xlink:href="ForwardDeclarations_8h.html" target="_top" xlink:title="Asteroids/ForwardDeclarations.h">
<polygon fill="#ffffff" stroke="#000000" points="0,-.5 0,-19.5 159,-19.5 159,-.5 0,-.5"/>
<text text-anchor="middle" x="79.5" y="-7.5" font-family="Helvetica,sans-Serif" font-size="10.00" fill="#000000">Asteroids/ForwardDeclarations.h</text>
</a>
</g>
</g>
<!-- Node0&#45;&gt;Node1 -->
<g id="edge1" class="edge">
<title>Node0&#45;&gt;Node1</title>
<path fill="none" stroke="#191970" d="M71.8381,-123.4654C65.2513,-114.6125 56.2403,-100.7614 52.5,-87 48.8863,-73.7046 48.8863,-69.2954 52.5,-56 55.2176,-46.0015 60.7175,-35.9556 66.0484,-27.8139"/>
<polygon fill="#191970" stroke="#191970" points="68.9755,-29.7354 71.8381,-19.5346 63.239,-25.7239 68.9755,-29.7354"/>
</g>
<!-- Node2 -->
<g id="node3" class="node">
<title>Node2</title>
<g id="a_node3"><a xlink:href="ServerUpdaterInterface_8h.html" target="_top" xlink:title="Asteroids/Domain/Server\l/ServerUpdaterInterface.h">
<polygon fill="#ffffff" stroke="#000000" points="62,-56.5 62,-86.5 191,-86.5 191,-56.5 62,-56.5"/>
<text text-anchor="start" x="70" y="-74.5" font-family="Helvetica,sans-Serif" font-size="10.00" fill="#000000">Asteroids/Domain/Server</text>
<text text-anchor="middle" x="126.5" y="-63.5" font-family="Helvetica,sans-Serif" font-size="10.00" fill="#000000">/ServerUpdaterInterface.h</text>
</a>
</g>
</g>
<!-- Node0&#45;&gt;Node2 -->
<g id="edge2" class="edge">
<title>Node0&#45;&gt;Node2</title>
<path fill="none" stroke="#191970" d="M86.8437,-123.3906C92.7335,-115.6839 101.2473,-104.5434 108.8778,-94.5589"/>
<polygon fill="#191970" stroke="#191970" points="111.7113,-96.6153 115.0025,-86.5446 106.1495,-92.3648 111.7113,-96.6153"/>
</g>
<!-- Node2&#45;&gt;Node1 -->
<g id="edge3" class="edge">
<title>Node2&#45;&gt;Node1</title>
<path fill="none" stroke="#191970" d="M114.882,-56.2977C108.29,-47.672 100.0052,-36.8312 93.1099,-27.8087"/>
<polygon fill="#191970" stroke="#191970" points="95.8783,-25.6671 87.0253,-19.8469 90.3165,-29.9176 95.8783,-25.6671"/>
</g>
</g>
</svg>
