<?xml version="1.0" encoding="UTF-8" standalone="no"?>
<!DOCTYPE svg PUBLIC "-//W3C//DTD SVG 1.1//EN"
 "http://www.w3.org/Graphics/SVG/1.1/DTD/svg11.dtd">
<!-- Generated by graphviz version 2.40.1 (20161225.0304)
 -->
<!-- Title: Domain/Server/ServerUpdaterInterface.h Pages: 1 -->
<!--zoomable 151 -->
<svg id="main" version="1.1" xmlns="http://www.w3.org/2000/svg" xmlns:xlink="http://www.w3.org/1999/xlink" xml:space="preserve" onload="init(evt)">
<style type="text/css"><![CDATA[
.edge:hover path { stroke: red; }
.edge:hover polygon { stroke: red; fill: red; }
]]></style>
<script type="text/javascript"><![CDATA[
var edges = document.getElementsByTagName('g');
if (edges && edges.length) {
  for (var i=0;i<edges.length;i++) {
    if (edges[i].id.substr(0,4)=='edge') {
      edges[i].setAttribute('class','edge');
    }
  }
}
]]></script>
        <defs>
                <circle id="rim" cx="0" cy="0" r="7"/>
                <circle id="rim2" cx="0" cy="0" r="3.5"/>
                <g id="zoomPlus">
                        <use xlink:href="#rim" fill="#404040">
                                <set attributeName="fill" to="#808080" begin="zoomplus.mouseover" end="zoomplus.mouseout"/>
                        </use>
                        <path d="M-4,0h8M0,-4v8" fill="none" stroke="white" stroke-width="1.5" pointer-events="none"/>
                </g>
                <g id="zoomMin">
                        <use xlink:href="#rim" fill="#404040">
                                <set attributeName="fill" to="#808080" begin="zoomminus.mouseover" end="zoomminus.mouseout"/>
                        </use>
                        <path d="M-4,0h8" fill="none" stroke="white" stroke-width="1.5" pointer-events="none"/>
                </g>
                <g id="dirArrow">
                        <path fill="none" stroke="white" stroke-width="1.5" d="M0,-3.0v7 M-2.5,-0.5L0,-3.0L2.5,-0.5"/>
                </g>
               <g id="resetDef">
                       <use xlink:href="#rim2" fill="#404040">
                               <set attributeName="fill" to="#808080" begin="reset.mouseover" end="reset.mouseout"/>
                       </use>
               </g>
        </defs>

<script type="text/javascript">
var viewWidth = 704;
var viewHeight = 151;
var sectionId = 'dynsection-1';
</script>
<script xlink:href="svgpan.js"/>
<svg id="graph" class="graph">
<g id="viewport">
<title>Domain/Server/ServerUpdaterInterface.h</title>
<polygon fill="#ffffff" stroke="transparent" points="-4,4 -4,-147 700,-147 700,4 -4,4"/>
<!-- Node2 -->
<g id="node1" class="node">
<title>Node2</title>
<polygon fill="#bfbfbf" stroke="#000000" points="254.5,-112.5 254.5,-142.5 402.5,-142.5 402.5,-112.5 254.5,-112.5"/>
<text text-anchor="start" x="262.5" y="-130.5" font-family="Helvetica,sans-Serif" font-size="10.00" fill="#000000">Domain/Server/ServerUpdater</text>
<text text-anchor="middle" x="328.5" y="-119.5" font-family="Helvetica,sans-Serif" font-size="10.00" fill="#000000">Interface.h</text>
</g>
<!-- Node3 -->
<g id="node2" class="node">
<title>Node3</title>
<g id="a_node2"><a xlink:href="ServerFactory_8h.html" target="_top" xlink:title="Domain/Server/ServerFactory.h">
<polygon fill="#ffffff" stroke="#000000" points="164,-56.5 164,-75.5 319,-75.5 319,-56.5 164,-56.5"/>
<text text-anchor="middle" x="241.5" y="-63.5" font-family="Helvetica,sans-Serif" font-size="10.00" fill="#000000">Domain/Server/ServerFactory.h</text>
</a>
</g>
</g>
<!-- Node2&#45;&gt;Node3 -->
<g id="edge1" class="edge">
<title>Node2&#45;&gt;Node3</title>
<path fill="none" stroke="#191970" d="M298.6325,-106.3868C283.8733,-95.9535 266.7849,-83.8738 255.17,-75.6633"/>
<polygon fill="#191970" stroke="#191970" points="296.8082,-109.3834 306.9944,-112.2977 300.8489,-103.6673 296.8082,-109.3834"/>
</g>
<!-- Node6 -->
<g id="node5" class="node">
<title>Node6</title>
<g id="a_node5"><a xlink:href="ServerUpdater_8h.html" target="_top" xlink:title="Domain/Server/ServerUpdater.h">
<polygon fill="#ffffff" stroke="#000000" points="342.5,-56.5 342.5,-75.5 498.5,-75.5 498.5,-56.5 342.5,-56.5"/>
<text text-anchor="middle" x="420.5" y="-63.5" font-family="Helvetica,sans-Serif" font-size="10.00" fill="#000000">Domain/Server/ServerUpdater.h</text>
</a>
</g>
</g>
<!-- Node2&#45;&gt;Node6 -->
<g id="edge4" class="edge">
<title>Node2&#45;&gt;Node6</title>
<path fill="none" stroke="#191970" d="M359.6471,-106.6789C375.3532,-96.1797 393.6472,-83.9505 406.0444,-75.6633"/>
<polygon fill="#191970" stroke="#191970" points="357.61,-103.8305 351.2416,-112.2977 361.5003,-109.65 357.61,-103.8305"/>
</g>
<!-- Node4 -->
<g id="node3" class="node">
<title>Node4</title>
<g id="a_node3"><a xlink:href="Factory_8cpp.html" target="_top" xlink:title="Domain/Factory/Factory.cpp">
<polygon fill="#ffffff" stroke="#000000" points="0,-.5 0,-19.5 141,-19.5 141,-.5 0,-.5"/>
<text text-anchor="middle" x="70.5" y="-7.5" font-family="Helvetica,sans-Serif" font-size="10.00" fill="#000000">Domain/Factory/Factory.cpp</text>
</a>
</g>
</g>
<!-- Node3&#45;&gt;Node4 -->
<g id="edge2" class="edge">
<title>Node3&#45;&gt;Node4</title>
<path fill="none" stroke="#191970" d="M202.3852,-53.1905C171.0568,-42.9309 127.8129,-28.7691 99.5124,-19.5011"/>
<polygon fill="#191970" stroke="#191970" points="201.5114,-56.5872 212.1041,-56.3733 203.69,-49.9348 201.5114,-56.5872"/>
</g>
<!-- Node5 -->
<g id="node4" class="node">
<title>Node5</title>
<g id="a_node4"><a xlink:href="ServerFactory_8cpp.html" target="_top" xlink:title="Domain/Server/ServerFactory.cpp">
<polygon fill="#ffffff" stroke="#000000" points="159,-.5 159,-19.5 324,-19.5 324,-.5 159,-.5"/>
<text text-anchor="middle" x="241.5" y="-7.5" font-family="Helvetica,sans-Serif" font-size="10.00" fill="#000000">Domain/Server/ServerFactory.cpp</text>
</a>
</g>
</g>
<!-- Node3&#45;&gt;Node5 -->
<g id="edge3" class="edge">
<title>Node3&#45;&gt;Node5</title>
<path fill="none" stroke="#191970" d="M241.5,-46.1575C241.5,-37.155 241.5,-26.9199 241.5,-19.6427"/>
<polygon fill="#191970" stroke="#191970" points="238.0001,-46.2455 241.5,-56.2455 245.0001,-46.2456 238.0001,-46.2455"/>
</g>
<!-- Node6&#45;&gt;Node5 -->
<g id="edge6" class="edge">
<title>Node6&#45;&gt;Node5</title>
<path fill="none" stroke="#191970" d="M379.9805,-53.3235C347.1534,-43.0536 301.6224,-28.8093 271.8697,-19.5011"/>
<polygon fill="#191970" stroke="#191970" points="379.1399,-56.7278 389.7288,-56.3733 381.23,-50.0471 379.1399,-56.7278"/>
</g>
<!-- Node7 -->
<g id="node6" class="node">
<title>Node7</title>
<g id="a_node6"><a xlink:href="ServerDaemon_8cpp.html" target="_top" xlink:title="Domain/Server/ServerDaemon.cpp">
<polygon fill="#ffffff" stroke="#000000" points="342,-.5 342,-19.5 511,-19.5 511,-.5 342,-.5"/>
<text text-anchor="middle" x="426.5" y="-7.5" font-family="Helvetica,sans-Serif" font-size="10.00" fill="#000000">Domain/Server/ServerDaemon.cpp</text>
</a>
</g>
</g>
<!-- Node6&#45;&gt;Node7 -->
<g id="edge5" class="edge">
<title>Node6&#45;&gt;Node7</title>
<path fill="none" stroke="#191970" d="M422.626,-46.1575C423.5905,-37.155 424.6872,-26.9199 425.4669,-19.6427"/>
<polygon fill="#191970" stroke="#191970" points="419.1305,-45.9296 421.5451,-56.2455 426.0906,-46.6753 419.1305,-45.9296"/>
</g>
<!-- Node8 -->
<g id="node7" class="node">
<title>Node8</title>
<g id="a_node7"><a xlink:href="ServerUpdater_8cpp.html" target="_top" xlink:title="Domain/Server/ServerUpdater.cpp">
<polygon fill="#ffffff" stroke="#000000" points="529,-.5 529,-19.5 696,-19.5 696,-.5 529,-.5"/>
<text text-anchor="middle" x="612.5" y="-7.5" font-family="Helvetica,sans-Serif" font-size="10.00" fill="#000000">Domain/Server/ServerUpdater.cpp</text>
</a>
</g>
</g>
<!-- Node6&#45;&gt;Node8 -->
<g id="edge7" class="edge">
<title>Node6&#45;&gt;Node8</title>
<path fill="none" stroke="#191970" d="M463.5077,-53.4561C498.7521,-43.1765 547.8736,-28.8494 579.9247,-19.5011"/>
<polygon fill="#191970" stroke="#191970" points="462.126,-50.2132 453.506,-56.3733 464.086,-56.9332 462.126,-50.2132"/>
</g>
</g>
</svg>
        <g id="navigator" transform="translate(0 0)" fill="#404254">
                <rect fill="#f2f5e9" fill-opacity="0.5" stroke="#606060" stroke-width=".5" x="0" y="0" width="60" height="60"/>
                <use id="zoomplus" xlink:href="#zoomPlus" x="17" y="9" onmousedown="handleZoom(evt,'in')"/>
                <use id="zoomminus" xlink:href="#zoomMin" x="42" y="9" onmousedown="handleZoom(evt,'out')"/>
                <use id="reset" xlink:href="#resetDef" x="30" y="36" onmousedown="handleReset()"/>
                <g id="arrowUp" xlink:href="#dirArrow" transform="translate(30 24)" onmousedown="handlePan(0,-1)">
                  <use xlink:href="#rim" fill="#404040">
                        <set attributeName="fill" to="#808080" begin="arrowUp.mouseover" end="arrowUp.mouseout"/>
                  </use>
                  <path fill="none" stroke="white" stroke-width="1.5" d="M0,-3.0v7 M-2.5,-0.5L0,-3.0L2.5,-0.5"/>
                </g>
                <g id="arrowRight" xlink:href="#dirArrow" transform="rotate(90) translate(36 -43)" onmousedown="handlePan(1,0)">
                  <use xlink:href="#rim" fill="#404040">
                        <set attributeName="fill" to="#808080" begin="arrowRight.mouseover" end="arrowRight.mouseout"/>
                  </use>
                  <path fill="none" stroke="white" stroke-width="1.5" d="M0,-3.0v7 M-2.5,-0.5L0,-3.0L2.5,-0.5"/>
                </g>
                <g id="arrowDown" xlink:href="#dirArrow" transform="rotate(180) translate(-30 -48)" onmousedown="handlePan(0,1)">
                  <use xlink:href="#rim" fill="#404040">
                        <set attributeName="fill" to="#808080" begin="arrowDown.mouseover" end="arrowDown.mouseout"/>
                  </use>
                  <path fill="none" stroke="white" stroke-width="1.5" d="M0,-3.0v7 M-2.5,-0.5L0,-3.0L2.5,-0.5"/>
                </g>
                <g id="arrowLeft" xlink:href="#dirArrow" transform="rotate(270) translate(-36 17)" onmousedown="handlePan(-1,0)">
                  <use xlink:href="#rim" fill="#404040">
                        <set attributeName="fill" to="#808080" begin="arrowLeft.mouseover" end="arrowLeft.mouseout"/>
                  </use>
                  <path fill="none" stroke="white" stroke-width="1.5" d="M0,-3.0v7 M-2.5,-0.5L0,-3.0L2.5,-0.5"/>
                </g>
        </g>
        <svg viewBox="0 0 15 15" width="100%" height="30px" preserveAspectRatio="xMaxYMin meet">
         <g id="arrow_out" transform="scale(0.3 0.3)">
          <a xlink:href="ServerUpdaterInterface_8h__dep__incl_org.svg" target="_base">
           <rect id="button" ry="5" rx="5" y="6" x="6" height="38" width="38"
                fill="#f2f5e9" fill-opacity="0.5" stroke="#606060" stroke-width="1.0"/>
           <path id="arrow"
             d="M 11.500037,31.436501 C 11.940474,20.09759 22.043105,11.32322 32.158766,21.979434 L 37.068811,17.246167 C 37.068811,17.246167 37.088388,32 37.088388,32 L 22.160133,31.978069 C 22.160133,31.978069 26.997745,27.140456 26.997745,27.140456 C 18.528582,18.264221 13.291696,25.230495 11.500037,31.436501 z"
             style="fill:#404040;"/>
          </a>
         </g>
        </svg>
</svg>
