<?xml version="1.0" encoding="UTF-8" standalone="no"?>
<!DOCTYPE svg PUBLIC "-//W3C//DTD SVG 1.1//EN"
 "http://www.w3.org/Graphics/SVG/1.1/DTD/svg11.dtd">
<!-- Generated by graphviz version 2.40.1 (20161225.0304)
 -->
<!-- Title: Domain/Server/ServerFactory.cpp Pages: 1 -->
<!--zoomable 218 -->
<svg id="main" version="1.1" xmlns="http://www.w3.org/2000/svg" xmlns:xlink="http://www.w3.org/1999/xlink" xml:space="preserve" onload="init(evt)">
<style type="text/css"><![CDATA[
.edge:hover path { stroke: red; }
.edge:hover polygon { stroke: red; fill: red; }
]]></style>
<script type="text/javascript"><![CDATA[
var edges = document.getElementsByTagName('g');
if (edges && edges.length) {
  for (var i=0;i<edges.length;i++) {
    if (edges[i].id.substr(0,4)=='edge') {
      edges[i].setAttribute('class','edge');
    }
  }
}
]]></script>
        <defs>
                <circle id="rim" cx="0" cy="0" r="7"/>
                <circle id="rim2" cx="0" cy="0" r="3.5"/>
                <g id="zoomPlus">
                        <use xlink:href="#rim" fill="#404040">
                                <set attributeName="fill" to="#808080" begin="zoomplus.mouseover" end="zoomplus.mouseout"/>
                        </use>
                        <path d="M-4,0h8M0,-4v8" fill="none" stroke="white" stroke-width="1.5" pointer-events="none"/>
                </g>
                <g id="zoomMin">
                        <use xlink:href="#rim" fill="#404040">
                                <set attributeName="fill" to="#808080" begin="zoomminus.mouseover" end="zoomminus.mouseout"/>
                        </use>
                        <path d="M-4,0h8" fill="none" stroke="white" stroke-width="1.5" pointer-events="none"/>
                </g>
                <g id="dirArrow">
                        <path fill="none" stroke="white" stroke-width="1.5" d="M0,-3.0v7 M-2.5,-0.5L0,-3.0L2.5,-0.5"/>
                </g>
               <g id="resetDef">
                       <use xlink:href="#rim2" fill="#404040">
                               <set attributeName="fill" to="#808080" begin="reset.mouseover" end="reset.mouseout"/>
                       </use>
               </g>
        </defs>

<script type="text/javascript">
var viewWidth = 899;
var viewHeight = 218;
var sectionId = 'dynsection-0';
</script>
<script xlink:href="svgpan.js"/>
<svg id="graph" class="graph">
<g id="viewport">
<title>Domain/Server/ServerFactory.cpp</title>
<polygon fill="#ffffff" stroke="transparent" points="-4,4 -4,-214 895.0924,-214 895.0924,4 -4,4"/>
<!-- Node0 -->
<g id="node1" class="node">
<title>Node0</title>
<polygon fill="#bfbfbf" stroke="#000000" points="296.5924,-190.5 296.5924,-209.5 461.5924,-209.5 461.5924,-190.5 296.5924,-190.5"/>
<text text-anchor="middle" x="379.0924" y="-197.5" font-family="Helvetica,sans-Serif" font-size="10.00" fill="#000000">Domain/Server/ServerFactory.cpp</text>
</g>
<!-- Node1 -->
<g id="node2" class="node">
<title>Node1</title>
<g id="a_node2"><a xlink:href="ServerFactory_8h.html" target="_top" xlink:title="Asteroids/Domain/Server\l/ServerFactory.h">
<polygon fill="#ffffff" stroke="#000000" points="242.0924,-123.5 242.0924,-153.5 368.0924,-153.5 368.0924,-123.5 242.0924,-123.5"/>
<text text-anchor="start" x="250.0924" y="-141.5" font-family="Helvetica,sans-Serif" font-size="10.00" fill="#000000">Asteroids/Domain/Server</text>
<text text-anchor="middle" x="305.0924" y="-130.5" font-family="Helvetica,sans-Serif" font-size="10.00" fill="#000000">/ServerFactory.h</text>
</a>
</g>
</g>
<!-- Node0&#45;&gt;Node1 -->
<g id="edge1" class="edge">
<title>Node0&#45;&gt;Node1</title>
<path fill="none" stroke="#191970" d="M367.5299,-190.3906C357.7931,-182.2986 343.5011,-170.4207 331.0471,-160.0705"/>
<polygon fill="#191970" stroke="#191970" points="333.1226,-157.2445 323.1948,-153.5446 328.6485,-162.628 333.1226,-157.2445"/>
</g>
<!-- Node10 -->
<g id="node11" class="node">
<title>Node10</title>
<g id="a_node11"><a xlink:href="ServerDaemon_8h.html" target="_top" xlink:title="Asteroids/Domain/Server\l/ServerDaemon.h">
<polygon fill="#ffffff" stroke="#000000" points="388.0924,-123.5 388.0924,-153.5 514.0924,-153.5 514.0924,-123.5 388.0924,-123.5"/>
<text text-anchor="start" x="396.0924" y="-141.5" font-family="Helvetica,sans-Serif" font-size="10.00" fill="#000000">Asteroids/Domain/Server</text>
<text text-anchor="middle" x="451.0924" y="-130.5" font-family="Helvetica,sans-Serif" font-size="10.00" fill="#000000">/ServerDaemon.h</text>
</a>
</g>
</g>
<!-- Node0&#45;&gt;Node10 -->
<g id="edge17" class="edge">
<title>Node0&#45;&gt;Node10</title>
<path fill="none" stroke="#191970" d="M390.3424,-190.3906C399.816,-182.2986 413.7218,-170.4207 425.8392,-160.0705"/>
<polygon fill="#191970" stroke="#191970" points="428.1487,-162.7008 433.4792,-153.5446 423.6022,-157.3782 428.1487,-162.7008"/>
</g>
<!-- Node12 -->
<g id="node13" class="node">
<title>Node12</title>
<g id="a_node13"><a xlink:href="ServerUpdater_8h.html" target="_top" xlink:title="Asteroids/Domain/Server\l/ServerUpdater.h">
<polygon fill="#ffffff" stroke="#000000" points="17.0924,-123.5 17.0924,-153.5 143.0924,-153.5 143.0924,-123.5 17.0924,-123.5"/>
<text text-anchor="start" x="25.0924" y="-141.5" font-family="Helvetica,sans-Serif" font-size="10.00" fill="#000000">Asteroids/Domain/Server</text>
<text text-anchor="middle" x="80.0924" y="-130.5" font-family="Helvetica,sans-Serif" font-size="10.00" fill="#000000">/ServerUpdater.h</text>
</a>
</g>
</g>
<!-- Node0&#45;&gt;Node12 -->
<g id="edge22" class="edge">
<title>Node0&#45;&gt;Node12</title>
<path fill="none" stroke="#191970" d="M332.7017,-190.4581C284.7324,-180.5915 209.1494,-165.0452 153.1468,-153.5262"/>
<polygon fill="#191970" stroke="#191970" points="153.7814,-150.0836 143.2813,-151.4971 152.3711,-156.94 153.7814,-150.0836"/>
</g>
<!-- Node13 -->
<g id="node14" class="node">
<title>Node13</title>
<g id="a_node14"><a xlink:href="HACCS__REPORT_8h.html" target="_top" xlink:title="Asteroids/Domain/Server\l/HACCS_REPORT.h">
<polygon fill="#ffffff" stroke="#000000" points="699.0924,-123.5 699.0924,-153.5 825.0924,-153.5 825.0924,-123.5 699.0924,-123.5"/>
<text text-anchor="start" x="707.0924" y="-141.5" font-family="Helvetica,sans-Serif" font-size="10.00" fill="#000000">Asteroids/Domain/Server</text>
<text text-anchor="middle" x="762.0924" y="-130.5" font-family="Helvetica,sans-Serif" font-size="10.00" fill="#000000">/HACCS_REPORT.h</text>
</a>
</g>
</g>
<!-- Node0&#45;&gt;Node13 -->
<g id="edge25" class="edge">
<title>Node0&#45;&gt;Node13</title>
<path fill="none" stroke="#191970" d="M438.5159,-190.4581C506.0426,-179.615 616.2885,-161.9124 689.0175,-150.234"/>
<polygon fill="#191970" stroke="#191970" points="689.7039,-153.6687 699.0225,-148.6274 688.594,-146.7572 689.7039,-153.6687"/>
</g>
<!-- Node2 -->
<g id="node3" class="node">
<title>Node2</title>
<g id="a_node3"><a xlink:href="ForwardDeclarations_8h.html" target="_top" xlink:title="Asteroids/ForwardDeclarations.h">
<polygon fill="#ffffff" stroke="#000000" points="177.5924,-.5 177.5924,-19.5 336.5924,-19.5 336.5924,-.5 177.5924,-.5"/>
<text text-anchor="middle" x="257.0924" y="-7.5" font-family="Helvetica,sans-Serif" font-size="10.00" fill="#000000">Asteroids/ForwardDeclarations.h</text>
</a>
</g>
</g>
<!-- Node1&#45;&gt;Node2 -->
<g id="edge2" class="edge">
<title>Node1&#45;&gt;Node2</title>
<path fill="none" stroke="#191970" d="M244.5865,-123.4182C226.142,-115.6799 207.9007,-104.1283 197.0924,-87 189.7398,-75.3481 190.9961,-68.3556 197.0924,-56 203.5717,-42.8681 215.7986,-32.4457 227.5331,-24.8651"/>
<polygon fill="#191970" stroke="#191970" points="229.5168,-27.7572 236.3072,-19.6244 225.9272,-21.7475 229.5168,-27.7572"/>
</g>
<!-- Node3 -->
<g id="node4" class="node">
<title>Node3</title>
<g id="a_node4"><a xlink:href="ServerFactoryInterface_8h.html" target="_top" xlink:title="Asteroids/Domain/Server\l/ServerFactoryInterface.h">
<polygon fill="#ffffff" stroke="#000000" points="239.0924,-56.5 239.0924,-86.5 367.0924,-86.5 367.0924,-56.5 239.0924,-56.5"/>
<text text-anchor="start" x="247.0924" y="-74.5" font-family="Helvetica,sans-Serif" font-size="10.00" fill="#000000">Asteroids/Domain/Server</text>
<text text-anchor="middle" x="303.0924" y="-63.5" font-family="Helvetica,sans-Serif" font-size="10.00" fill="#000000">/ServerFactoryInterface.h</text>
</a>
</g>
</g>
<!-- Node1&#45;&gt;Node3 -->
<g id="edge3" class="edge">
<title>Node1&#45;&gt;Node3</title>
<path fill="none" stroke="#191970" d="M304.6386,-123.2967C304.4059,-115.5013 304.1162,-105.7991 303.8508,-96.9064"/>
<polygon fill="#191970" stroke="#191970" points="307.3413,-96.5343 303.5444,-86.6432 300.3444,-96.7432 307.3413,-96.5343"/>
</g>
<!-- Node5 -->
<g id="node6" class="node">
<title>Node5</title>
<g id="a_node6"><a xlink:href="ServerDaemonInterface_8h.html" target="_top" xlink:title="Asteroids/Domain/Server\l/ServerDaemonInterface.h">
<polygon fill="#ffffff" stroke="#000000" points="385.5924,-56.5 385.5924,-86.5 516.5924,-86.5 516.5924,-56.5 385.5924,-56.5"/>
<text text-anchor="start" x="393.5924" y="-74.5" font-family="Helvetica,sans-Serif" font-size="10.00" fill="#000000">Asteroids/Domain/Server</text>
<text text-anchor="middle" x="451.0924" y="-63.5" font-family="Helvetica,sans-Serif" font-size="10.00" fill="#000000">/ServerDaemonInterface.h</text>
</a>
</g>
</g>
<!-- Node1&#45;&gt;Node5 -->
<g id="edge6" class="edge">
<title>Node1&#45;&gt;Node5</title>
<path fill="none" stroke="#191970" d="M337.8576,-123.4639C358.8235,-113.8426 386.2285,-101.2663 408.8265,-90.896"/>
<polygon fill="#191970" stroke="#191970" points="410.5553,-93.9536 418.1842,-86.6017 407.6357,-87.5915 410.5553,-93.9536"/>
</g>
<!-- Node7 -->
<g id="node8" class="node">
<title>Node7</title>
<g id="a_node8"><a xlink:href="ServerUpdaterInterface_8h.html" target="_top" xlink:title="Asteroids/Domain/Server\l/ServerUpdaterInterface.h">
<polygon fill="#ffffff" stroke="#000000" points="15.5924,-56.5 15.5924,-86.5 144.5924,-86.5 144.5924,-56.5 15.5924,-56.5"/>
<text text-anchor="start" x="23.5924" y="-74.5" font-family="Helvetica,sans-Serif" font-size="10.00" fill="#000000">Asteroids/Domain/Server</text>
<text text-anchor="middle" x="80.0924" y="-63.5" font-family="Helvetica,sans-Serif" font-size="10.00" fill="#000000">/ServerUpdaterInterface.h</text>
</a>
</g>
</g>
<!-- Node1&#45;&gt;Node7 -->
<g id="edge10" class="edge">
<title>Node1&#45;&gt;Node7</title>
<path fill="none" stroke="#191970" d="M254.598,-123.4639C220.8452,-113.4131 176.2632,-100.1375 140.6099,-89.5208"/>
<polygon fill="#191970" stroke="#191970" points="141.39,-86.1013 130.807,-86.6017 139.3922,-92.8101 141.39,-86.1013"/>
</g>
<!-- Node8 -->
<g id="node9" class="node">
<title>Node8</title>
<g id="a_node9"><a xlink:href="HACCS__REPORT__INTERFACE_8h.html" target="_top" xlink:title="Asteroids/Domain/Server\l/HACCS_REPORT_INTERFACE.h">
<polygon fill="#ffffff" stroke="#000000" points="675.0924,-56.5 675.0924,-86.5 849.0924,-86.5 849.0924,-56.5 675.0924,-56.5"/>
<text text-anchor="start" x="683.0924" y="-74.5" font-family="Helvetica,sans-Serif" font-size="10.00" fill="#000000">Asteroids/Domain/Server</text>
<text text-anchor="middle" x="762.0924" y="-63.5" font-family="Helvetica,sans-Serif" font-size="10.00" fill="#000000">/HACCS_REPORT_INTERFACE.h</text>
</a>
</g>
</g>
<!-- Node1&#45;&gt;Node8 -->
<g id="edge12" class="edge">
<title>Node1&#45;&gt;Node8</title>
<path fill="none" stroke="#191970" d="M368.4117,-124.9208C372.0202,-124.2455 375.5995,-123.5998 379.0924,-123 475.7561,-106.4002 586.9136,-91.9652 664.4909,-82.6356"/>
<polygon fill="#191970" stroke="#191970" points="665.2194,-86.0735 674.7327,-81.4101 664.3876,-79.1231 665.2194,-86.0735"/>
</g>
<!-- Node3&#45;&gt;Node2 -->
<g id="edge4" class="edge">
<title>Node3&#45;&gt;Node2</title>
<path fill="none" stroke="#191970" d="M291.7216,-56.2977C285.3363,-47.7609 277.3283,-37.0545 270.6218,-28.0883"/>
<polygon fill="#191970" stroke="#191970" points="273.2499,-25.7584 264.4576,-19.8469 267.6444,-29.9511 273.2499,-25.7584"/>
</g>
<!-- Node4 -->
<g id="node5" class="node">
<title>Node4</title>
<polygon fill="#ffffff" stroke="#bfbfbf" points="504.0924,-.5 504.0924,-19.5 556.0924,-19.5 556.0924,-.5 504.0924,-.5"/>
<text text-anchor="middle" x="530.0924" y="-7.5" font-family="Helvetica,sans-Serif" font-size="10.00" fill="#000000">memory</text>
</g>
<!-- Node3&#45;&gt;Node4 -->
<g id="edge5" class="edge">
<title>Node3&#45;&gt;Node4</title>
<path fill="none" stroke="#191970" d="M358.6228,-56.4554C400.8544,-45.0138 457.7227,-29.6068 494.1542,-19.7366"/>
<polygon fill="#191970" stroke="#191970" points="495.1218,-23.1007 503.8586,-17.1074 493.2913,-16.3442 495.1218,-23.1007"/>
</g>
<!-- Node5&#45;&gt;Node2 -->
<g id="edge7" class="edge">
<title>Node5&#45;&gt;Node2</title>
<path fill="none" stroke="#191970" d="M403.6346,-56.4554C370.8393,-46.059 327.716,-32.3884 296.7527,-22.5727"/>
<polygon fill="#191970" stroke="#191970" points="297.7457,-19.2159 287.1555,-19.5303 295.6303,-25.8886 297.7457,-19.2159"/>
</g>
<!-- Node5&#45;&gt;Node4 -->
<g id="edge8" class="edge">
<title>Node5&#45;&gt;Node4</title>
<path fill="none" stroke="#191970" d="M470.6205,-56.2977C482.3861,-47.1384 497.3599,-35.4816 509.3389,-26.1562"/>
<polygon fill="#191970" stroke="#191970" points="511.7026,-28.7516 517.4435,-19.8469 507.4026,-23.228 511.7026,-28.7516"/>
</g>
<!-- Node6 -->
<g id="node7" class="node">
<title>Node6</title>
<polygon fill="#ffffff" stroke="#bfbfbf" points="741.5924,-.5 741.5924,-19.5 782.5924,-19.5 782.5924,-.5 741.5924,-.5"/>
<text text-anchor="middle" x="762.0924" y="-7.5" font-family="Helvetica,sans-Serif" font-size="10.00" fill="#000000">string</text>
</g>
<!-- Node5&#45;&gt;Node6 -->
<g id="edge9" class="edge">
<title>Node5&#45;&gt;Node6</title>
<path fill="none" stroke="#191970" d="M516.9339,-57.8489C520.0293,-57.2209 523.0941,-56.602 526.0924,-56 599.7864,-41.2034 686.5695,-24.464 731.5692,-15.8353"/>
<polygon fill="#191970" stroke="#191970" points="732.3953,-19.2407 741.5581,-13.9216 731.0781,-12.3658 732.3953,-19.2407"/>
</g>
<!-- Node7&#45;&gt;Node2 -->
<g id="edge11" class="edge">
<title>Node7&#45;&gt;Node2</title>
<path fill="none" stroke="#191970" d="M123.3915,-56.4554C153.0539,-46.149 191.9768,-32.6249 220.1712,-22.8286"/>
<polygon fill="#191970" stroke="#191970" points="221.3664,-26.1186 229.6637,-19.5303 219.0689,-19.5064 221.3664,-26.1186"/>
</g>
<!-- Node8&#45;&gt;Node2 -->
<g id="edge13" class="edge">
<title>Node8&#45;&gt;Node2</title>
<path fill="none" stroke="#191970" d="M675.0771,-57.9264C670.3491,-57.2575 665.6642,-56.6108 661.0924,-56 553.2866,-41.5959 428.9082,-27.8677 346.9556,-19.2194"/>
<polygon fill="#191970" stroke="#191970" points="347.2381,-15.7299 336.9267,-18.164 346.5055,-22.6914 347.2381,-15.7299"/>
</g>
<!-- Node8&#45;&gt;Node4 -->
<g id="edge16" class="edge">
<title>Node8&#45;&gt;Node4</title>
<path fill="none" stroke="#191970" d="M705.3388,-56.4554C661.9318,-44.9488 603.3951,-29.4315 566.1896,-19.5689"/>
<polygon fill="#191970" stroke="#191970" points="566.8546,-16.1243 556.2916,-16.9451 565.0609,-22.8906 566.8546,-16.1243"/>
</g>
<!-- Node8&#45;&gt;Node6 -->
<g id="edge14" class="edge">
<title>Node8&#45;&gt;Node6</title>
<path fill="none" stroke="#191970" d="M762.0924,-56.2977C762.0924,-48.3834 762.0924,-38.6043 762.0924,-30.0759"/>
<polygon fill="#191970" stroke="#191970" points="765.5925,-29.8469 762.0924,-19.8469 758.5925,-29.847 765.5925,-29.8469"/>
</g>
<!-- Node9 -->
<g id="node10" class="node">
<title>Node9</title>
<polygon fill="#ffffff" stroke="#bfbfbf" points="847.0924,-.5 847.0924,-19.5 891.0924,-19.5 891.0924,-.5 847.0924,-.5"/>
<text text-anchor="middle" x="869.0924" y="-7.5" font-family="Helvetica,sans-Serif" font-size="10.00" fill="#000000">vector</text>
</g>
<!-- Node8&#45;&gt;Node9 -->
<g id="edge15" class="edge">
<title>Node8&#45;&gt;Node9</title>
<path fill="none" stroke="#191970" d="M788.2675,-56.4554C805.1811,-46.734 827.0753,-34.15 843.8096,-24.5317"/>
<polygon fill="#191970" stroke="#191970" points="845.5854,-27.548 852.5112,-19.5303 842.0971,-21.4791 845.5854,-27.548"/>
</g>
<!-- Node10&#45;&gt;Node2 -->
<g id="edge18" class="edge">
<title>Node10&#45;&gt;Node2</title>
<path fill="none" stroke="#191970" d="M387.8345,-124.7459C323.4202,-110.5944 232.6144,-90.1773 230.0924,-87 216.2926,-69.6147 229.5001,-44.6655 241.8244,-27.9244"/>
<polygon fill="#191970" stroke="#191970" points="244.6214,-30.0295 248.0409,-20.0016 239.1143,-25.7083 244.6214,-30.0295"/>
</g>
<!-- Node10&#45;&gt;Node4 -->
<g id="edge20" class="edge">
<title>Node10&#45;&gt;Node4</title>
<path fill="none" stroke="#191970" d="M511.6408,-123.4417C544.5671,-113.8966 580.5005,-100.783 590.0924,-87 597.9625,-75.6912 596.1887,-68.3556 590.0924,-56 583.613,-42.8681 571.3862,-32.4457 559.6517,-24.8651"/>
<polygon fill="#191970" stroke="#191970" points="561.2575,-21.7475 550.8776,-19.6244 557.668,-27.7572 561.2575,-21.7475"/>
</g>
<!-- Node10&#45;&gt;Node5 -->
<g id="edge19" class="edge">
<title>Node10&#45;&gt;Node5</title>
<path fill="none" stroke="#191970" d="M451.0924,-123.2967C451.0924,-115.5013 451.0924,-105.7991 451.0924,-96.9064"/>
<polygon fill="#191970" stroke="#191970" points="454.5925,-96.6431 451.0924,-86.6432 447.5925,-96.6432 454.5925,-96.6431"/>
</g>
<!-- Node11 -->
<g id="node12" class="node">
<title>Node11</title>
<polygon fill="#ffffff" stroke="#bfbfbf" points="535.0924,-62 535.0924,-81 581.0924,-81 581.0924,-62 535.0924,-62"/>
<text text-anchor="middle" x="558.0924" y="-69" font-family="Helvetica,sans-Serif" font-size="10.00" fill="#000000">atomic</text>
</g>
<!-- Node10&#45;&gt;Node11 -->
<g id="edge21" class="edge">
<title>Node10&#45;&gt;Node11</title>
<path fill="none" stroke="#191970" d="M475.1053,-123.4639C492.735,-112.4247 516.5773,-97.4954 534.1827,-86.4715"/>
<polygon fill="#191970" stroke="#191970" points="536.1367,-89.3775 542.7548,-81.1039 532.4217,-83.4446 536.1367,-89.3775"/>
</g>
<!-- Node12&#45;&gt;Node2 -->
<g id="edge23" class="edge">
<title>Node12&#45;&gt;Node2</title>
<path fill="none" stroke="#191970" d="M50.202,-123.4359C21.7229,-107.1158 -14.0475,-80.1662 6.0924,-56 26.587,-31.408 103.9331,-19.922 167.4111,-14.5817"/>
<polygon fill="#191970" stroke="#191970" points="167.7803,-18.0635 177.469,-13.7764 167.2215,-11.0858 167.7803,-18.0635"/>
</g>
<!-- Node12&#45;&gt;Node7 -->
<g id="edge24" class="edge">
<title>Node12&#45;&gt;Node7</title>
<path fill="none" stroke="#191970" d="M80.0924,-123.2967C80.0924,-115.5013 80.0924,-105.7991 80.0924,-96.9064"/>
<polygon fill="#191970" stroke="#191970" points="83.5925,-96.6431 80.0924,-86.6432 76.5925,-96.6432 83.5925,-96.6431"/>
</g>
<!-- Node13&#45;&gt;Node2 -->
<g id="edge26" class="edge">
<title>Node13&#45;&gt;Node2</title>
<path fill="none" stroke="#191970" d="M733.5041,-123.4523C692.4821,-102.0931 618.7144,-64.6114 590.0924,-56 509.8239,-31.8498 414.8054,-20.3188 346.8538,-14.8489"/>
<polygon fill="#191970" stroke="#191970" points="346.8495,-11.3382 336.6086,-14.0536 346.3076,-18.3172 346.8495,-11.3382"/>
</g>
<!-- Node13&#45;&gt;Node6 -->
<g id="edge28" class="edge">
<title>Node13&#45;&gt;Node6</title>
<path fill="none" stroke="#191970" d="M812.7526,-123.4444C830.2553,-115.5435 847.9928,-103.8792 858.0924,-87 865.1666,-75.177 865.434,-67.6588 858.0924,-56 843.8306,-33.3517 814.9827,-21.6069 792.6156,-15.6772"/>
<polygon fill="#191970" stroke="#191970" points="793.4107,-12.2688 782.8705,-13.3437 791.7805,-19.0763 793.4107,-12.2688"/>
</g>
<!-- Node13&#45;&gt;Node8 -->
<g id="edge27" class="edge">
<title>Node13&#45;&gt;Node8</title>
<path fill="none" stroke="#191970" d="M762.0924,-123.2967C762.0924,-115.5013 762.0924,-105.7991 762.0924,-96.9064"/>
<polygon fill="#191970" stroke="#191970" points="765.5925,-96.6431 762.0924,-86.6432 758.5925,-96.6432 765.5925,-96.6431"/>
</g>
<!-- Node13&#45;&gt;Node9 -->
<g id="edge29" class="edge">
<title>Node13&#45;&gt;Node9</title>
<path fill="none" stroke="#191970" d="M825.3702,-123.6865C844.2926,-115.9855 862.9493,-104.3885 874.0924,-87 885.002,-69.9758 881.3089,-46.2592 876.4401,-29.6599"/>
<polygon fill="#191970" stroke="#191970" points="879.6808,-28.3126 873.2124,-19.9215 873.0363,-30.5149 879.6808,-28.3126"/>
</g>
</g>
</svg>
        <g id="navigator" transform="translate(0 0)" fill="#404254">
                <rect fill="#f2f5e9" fill-opacity="0.5" stroke="#606060" stroke-width=".5" x="0" y="0" width="60" height="60"/>
                <use id="zoomplus" xlink:href="#zoomPlus" x="17" y="9" onmousedown="handleZoom(evt,'in')"/>
                <use id="zoomminus" xlink:href="#zoomMin" x="42" y="9" onmousedown="handleZoom(evt,'out')"/>
                <use id="reset" xlink:href="#resetDef" x="30" y="36" onmousedown="handleReset()"/>
                <g id="arrowUp" xlink:href="#dirArrow" transform="translate(30 24)" onmousedown="handlePan(0,-1)">
                  <use xlink:href="#rim" fill="#404040">
                        <set attributeName="fill" to="#808080" begin="arrowUp.mouseover" end="arrowUp.mouseout"/>
                  </use>
                  <path fill="none" stroke="white" stroke-width="1.5" d="M0,-3.0v7 M-2.5,-0.5L0,-3.0L2.5,-0.5"/>
                </g>
                <g id="arrowRight" xlink:href="#dirArrow" transform="rotate(90) translate(36 -43)" onmousedown="handlePan(1,0)">
                  <use xlink:href="#rim" fill="#404040">
                        <set attributeName="fill" to="#808080" begin="arrowRight.mouseover" end="arrowRight.mouseout"/>
                  </use>
                  <path fill="none" stroke="white" stroke-width="1.5" d="M0,-3.0v7 M-2.5,-0.5L0,-3.0L2.5,-0.5"/>
                </g>
                <g id="arrowDown" xlink:href="#dirArrow" transform="rotate(180) translate(-30 -48)" onmousedown="handlePan(0,1)">
                  <use xlink:href="#rim" fill="#404040">
                        <set attributeName="fill" to="#808080" begin="arrowDown.mouseover" end="arrowDown.mouseout"/>
                  </use>
                  <path fill="none" stroke="white" stroke-width="1.5" d="M0,-3.0v7 M-2.5,-0.5L0,-3.0L2.5,-0.5"/>
                </g>
                <g id="arrowLeft" xlink:href="#dirArrow" transform="rotate(270) translate(-36 17)" onmousedown="handlePan(-1,0)">
                  <use xlink:href="#rim" fill="#404040">
                        <set attributeName="fill" to="#808080" begin="arrowLeft.mouseover" end="arrowLeft.mouseout"/>
                  </use>
                  <path fill="none" stroke="white" stroke-width="1.5" d="M0,-3.0v7 M-2.5,-0.5L0,-3.0L2.5,-0.5"/>
                </g>
        </g>
        <svg viewBox="0 0 15 15" width="100%" height="30px" preserveAspectRatio="xMaxYMin meet">
         <g id="arrow_out" transform="scale(0.3 0.3)">
          <a xlink:href="ServerFactory_8cpp__incl_org.svg" target="_base">
           <rect id="button" ry="5" rx="5" y="6" x="6" height="38" width="38"
                fill="#f2f5e9" fill-opacity="0.5" stroke="#606060" stroke-width="1.0"/>
           <path id="arrow"
             d="M 11.500037,31.436501 C 11.940474,20.09759 22.043105,11.32322 32.158766,21.979434 L 37.068811,17.246167 C 37.068811,17.246167 37.088388,32 37.088388,32 L 22.160133,31.978069 C 22.160133,31.978069 26.997745,27.140456 26.997745,27.140456 C 18.528582,18.264221 13.291696,25.230495 11.500037,31.436501 z"
             style="fill:#404040;"/>
          </a>
         </g>
        </svg>
</svg>
