<?xml version="1.0" encoding="UTF-8" standalone="no"?>
<!DOCTYPE svg PUBLIC "-//W3C//DTD SVG 1.1//EN"
 "http://www.w3.org/Graphics/SVG/1.1/DTD/svg11.dtd">
<!-- Generated by graphviz version 2.40.1 (20161225.0304)
 -->
<!-- Title: Domain/Server/ServerDaemon.cpp Pages: 1 -->
<svg width="1335pt" height="218pt"
 viewBox="0.00 0.00 1334.50 218.00" xmlns="http://www.w3.org/2000/svg" xmlns:xlink="http://www.w3.org/1999/xlink">
<g id="graph0" class="graph" transform="scale(1 1) rotate(0) translate(4 214)">
<title>Domain/Server/ServerDaemon.cpp</title>
<polygon fill="#ffffff" stroke="transparent" points="-4,4 -4,-214 1330.5,-214 1330.5,4 -4,4"/>
<!-- Node0 -->
<g id="node1" class="node">
<title>Node0</title>
<polygon fill="#bfbfbf" stroke="#000000" points="753,-190.5 753,-209.5 922,-209.5 922,-190.5 753,-190.5"/>
<text text-anchor="middle" x="837.5" y="-197.5" font-family="Helvetica,sans-Serif" font-size="10.00" fill="#000000">Domain/Server/ServerDaemon.cpp</text>
</g>
<!-- Node1 -->
<g id="node2" class="node">
<title>Node1</title>
<g id="a_node2"><a xlink:href="ServerDaemon_8h.html" target="_top" xlink:title="Asteroids/Domain/Server\l/ServerDaemon.h">
<polygon fill="#ffffff" stroke="#000000" points="585.5,-123.5 585.5,-153.5 711.5,-153.5 711.5,-123.5 585.5,-123.5"/>
<text text-anchor="start" x="593.5" y="-141.5" font-family="Helvetica,sans-Serif" font-size="10.00" fill="#000000">Asteroids/Domain/Server</text>
<text text-anchor="middle" x="648.5" y="-130.5" font-family="Helvetica,sans-Serif" font-size="10.00" fill="#000000">/ServerDaemon.h</text>
</a>
</g>
</g>
<!-- Node0&#45;&gt;Node1 -->
<g id="edge1" class="edge">
<title>Node0&#45;&gt;Node1</title>
<path fill="none" stroke="#191970" d="M807.9688,-190.3906C780.3767,-181.4123 738.4625,-167.7735 704.5289,-156.7316"/>
<polygon fill="#191970" stroke="#191970" points="705.3269,-153.3107 694.7346,-153.5446 703.1608,-159.9672 705.3269,-153.3107"/>
</g>
<!-- Node7 -->
<g id="node8" class="node">
<title>Node7</title>
<g id="a_node8"><a xlink:href="FactoryInterface_8h.html" target="_top" xlink:title="Asteroids/Domain/Factory\l/FactoryInterface.h">
<polygon fill="#ffffff" stroke="#000000" points="0,-56.5 0,-86.5 131,-86.5 131,-56.5 0,-56.5"/>
<text text-anchor="start" x="8" y="-74.5" font-family="Helvetica,sans-Serif" font-size="10.00" fill="#000000">Asteroids/Domain/Factory</text>
<text text-anchor="middle" x="65.5" y="-63.5" font-family="Helvetica,sans-Serif" font-size="10.00" fill="#000000">/FactoryInterface.h</text>
</a>
</g>
</g>
<!-- Node0&#45;&gt;Node7 -->
<g id="edge9" class="edge">
<title>Node0&#45;&gt;Node7</title>
<path fill="none" stroke="#191970" d="M752.765,-195.0246C662.2927,-188.8459 514.9794,-176.2927 389.5,-154 295.9225,-137.375 189.5024,-108.2662 124.951,-89.4444"/>
<polygon fill="#191970" stroke="#191970" points="125.5395,-85.9697 114.9587,-86.5155 123.5704,-92.6871 125.5395,-85.9697"/>
</g>
<!-- Node8 -->
<g id="node9" class="node">
<title>Node8</title>
<g id="a_node9"><a xlink:href="TechnicalServicesFactoryInterface_8h.html" target="_top" xlink:title="Asteroids/TechnicalServices\l/TechnicalServicesFactoryInterface.h">
<polygon fill="#ffffff" stroke="#000000" points="149,-56.5 149,-86.5 328,-86.5 328,-56.5 149,-56.5"/>
<text text-anchor="start" x="157" y="-74.5" font-family="Helvetica,sans-Serif" font-size="10.00" fill="#000000">Asteroids/TechnicalServices</text>
<text text-anchor="middle" x="238.5" y="-63.5" font-family="Helvetica,sans-Serif" font-size="10.00" fill="#000000">/TechnicalServicesFactoryInterface.h</text>
</a>
</g>
</g>
<!-- Node0&#45;&gt;Node8 -->
<g id="edge12" class="edge">
<title>Node0&#45;&gt;Node8</title>
<path fill="none" stroke="#191970" d="M752.8274,-192.3109C684.6799,-185.1811 586.7232,-172.805 502.5,-154 426.615,-137.0567 341.1083,-108.5415 288.5105,-89.8715"/>
<polygon fill="#191970" stroke="#191970" points="289.6767,-86.5715 279.0821,-86.505 287.3228,-93.1639 289.6767,-86.5715"/>
</g>
<!-- Node9 -->
<g id="node10" class="node">
<title>Node9</title>
<g id="a_node10"><a xlink:href="DatabaserInterface_8h.html" target="_top" xlink:title="Asteroids/TechnicalServices\l/Persistence/DatabaserInterface.h">
<polygon fill="#ffffff" stroke="#000000" points="1160.5,-56.5 1160.5,-86.5 1326.5,-86.5 1326.5,-56.5 1160.5,-56.5"/>
<text text-anchor="start" x="1168.5" y="-74.5" font-family="Helvetica,sans-Serif" font-size="10.00" fill="#000000">Asteroids/TechnicalServices</text>
<text text-anchor="middle" x="1243.5" y="-63.5" font-family="Helvetica,sans-Serif" font-size="10.00" fill="#000000">/Persistence/DatabaserInterface.h</text>
</a>
</g>
</g>
<!-- Node0&#45;&gt;Node9 -->
<g id="edge15" class="edge">
<title>Node0&#45;&gt;Node9</title>
<path fill="none" stroke="#191970" d="M852.4666,-190.4008C866.2664,-181.3928 887.1733,-167.3444 904.5,-154 921.2284,-141.1164 921.3932,-131.9866 940.5,-123 941.1084,-122.7138 1061.2171,-102.3468 1150.0104,-87.3151"/>
<polygon fill="#191970" stroke="#191970" points="1150.8528,-90.7224 1160.1284,-85.6024 1149.6845,-83.8206 1150.8528,-90.7224"/>
</g>
<!-- Node12 -->
<g id="node13" class="node">
<title>Node12</title>
<g id="a_node13"><a xlink:href="ServerFactoryInterface_8h.html" target="_top" xlink:title="Asteroids/Domain/Server\l/ServerFactoryInterface.h">
<polygon fill="#ffffff" stroke="#000000" points="346.5,-56.5 346.5,-86.5 474.5,-86.5 474.5,-56.5 346.5,-56.5"/>
<text text-anchor="start" x="354.5" y="-74.5" font-family="Helvetica,sans-Serif" font-size="10.00" fill="#000000">Asteroids/Domain/Server</text>
<text text-anchor="middle" x="410.5" y="-63.5" font-family="Helvetica,sans-Serif" font-size="10.00" fill="#000000">/ServerFactoryInterface.h</text>
</a>
</g>
</g>
<!-- Node0&#45;&gt;Node12 -->
<g id="edge20" class="edge">
<title>Node0&#45;&gt;Node12</title>
<path fill="none" stroke="#191970" d="M752.8354,-191.3207C701.0135,-184.485 633.8645,-172.8728 576.5,-154 528.2979,-138.1416 476.4996,-110.5211 443.821,-91.6436"/>
<polygon fill="#191970" stroke="#191970" points="445.5302,-88.5887 435.1298,-86.5681 442.0001,-94.6335 445.5302,-88.5887"/>
</g>
<!-- Node13 -->
<g id="node14" class="node">
<title>Node13</title>
<g id="a_node14"><a xlink:href="ServerUpdater_8h.html" target="_top" xlink:title="Asteroids/Domain/Server\l/ServerUpdater.h">
<polygon fill="#ffffff" stroke="#000000" points="729.5,-123.5 729.5,-153.5 855.5,-153.5 855.5,-123.5 729.5,-123.5"/>
<text text-anchor="start" x="737.5" y="-141.5" font-family="Helvetica,sans-Serif" font-size="10.00" fill="#000000">Asteroids/Domain/Server</text>
<text text-anchor="middle" x="792.5" y="-130.5" font-family="Helvetica,sans-Serif" font-size="10.00" fill="#000000">/ServerUpdater.h</text>
</a>
</g>
</g>
<!-- Node0&#45;&gt;Node13 -->
<g id="edge23" class="edge">
<title>Node0&#45;&gt;Node13</title>
<path fill="none" stroke="#191970" d="M830.4688,-190.3906C824.8861,-182.761 816.8409,-171.7658 809.5918,-161.8588"/>
<polygon fill="#191970" stroke="#191970" points="812.238,-159.5481 803.5082,-153.5446 806.5888,-163.6817 812.238,-159.5481"/>
</g>
<!-- Node15 -->
<g id="node16" class="node">
<title>Node15</title>
<g id="a_node16"><a xlink:href="HACCS__REPORT__INTERFACE_8h.html" target="_top" xlink:title="Asteroids/Domain/Server\l/HACCS_REPORT_INTERFACE.h">
<polygon fill="#ffffff" stroke="#000000" points="968.5,-56.5 968.5,-86.5 1142.5,-86.5 1142.5,-56.5 968.5,-56.5"/>
<text text-anchor="start" x="976.5" y="-74.5" font-family="Helvetica,sans-Serif" font-size="10.00" fill="#000000">Asteroids/Domain/Server</text>
<text text-anchor="middle" x="1055.5" y="-63.5" font-family="Helvetica,sans-Serif" font-size="10.00" fill="#000000">/HACCS_REPORT_INTERFACE.h</text>
</a>
</g>
</g>
<!-- Node0&#45;&gt;Node15 -->
<g id="edge27" class="edge">
<title>Node0&#45;&gt;Node15</title>
<path fill="none" stroke="#191970" d="M843.8716,-190.2932C854.9549,-174.1262 879.3137,-141.6253 907.5,-123 929.5417,-108.435 956.1574,-97.5095 980.7052,-89.5581"/>
<polygon fill="#191970" stroke="#191970" points="981.8523,-92.8667 990.3561,-86.5472 979.7675,-86.1843 981.8523,-92.8667"/>
</g>
<!-- Node16 -->
<g id="node17" class="node">
<title>Node16</title>
<polygon fill="#ffffff" stroke="#bfbfbf" points="949.5,-129 949.5,-148 1003.5,-148 1003.5,-129 949.5,-129"/>
<text text-anchor="middle" x="976.5" y="-136" font-family="Helvetica,sans-Serif" font-size="10.00" fill="#000000">iostream</text>
</g>
<!-- Node0&#45;&gt;Node16 -->
<g id="edge32" class="edge">
<title>Node0&#45;&gt;Node16</title>
<path fill="none" stroke="#191970" d="M859.2188,-190.3906C882.374,-180.1457 919.2441,-163.8326 945.4591,-152.2339"/>
<polygon fill="#191970" stroke="#191970" points="947.205,-155.2888 954.9338,-148.0419 944.3727,-148.8874 947.205,-155.2888"/>
</g>
<!-- Node17 -->
<g id="node18" class="node">
<title>Node17</title>
<polygon fill="#ffffff" stroke="#bfbfbf" points="1021.5,-129 1021.5,-148 1065.5,-148 1065.5,-129 1021.5,-129"/>
<text text-anchor="middle" x="1043.5" y="-136" font-family="Helvetica,sans-Serif" font-size="10.00" fill="#000000">thread</text>
</g>
<!-- Node0&#45;&gt;Node17 -->
<g id="edge33" class="edge">
<title>Node0&#45;&gt;Node17</title>
<path fill="none" stroke="#191970" d="M884.372,-190.4489C920.0894,-182.5111 970.1691,-169.9501 1012.5,-154 1013.8725,-153.4828 1015.2647,-152.9237 1016.6603,-152.3351"/>
<polygon fill="#191970" stroke="#191970" points="1018.1237,-155.5146 1025.7499,-148.1598 1015.2018,-149.1535 1018.1237,-155.5146"/>
</g>
<!-- Node18 -->
<g id="node19" class="node">
<title>Node18</title>
<polygon fill="#ffffff" stroke="#bfbfbf" points="1083.5,-129 1083.5,-148 1129.5,-148 1129.5,-129 1083.5,-129"/>
<text text-anchor="middle" x="1106.5" y="-136" font-family="Helvetica,sans-Serif" font-size="10.00" fill="#000000">chrono</text>
</g>
<!-- Node0&#45;&gt;Node18 -->
<g id="edge34" class="edge">
<title>Node0&#45;&gt;Node18</title>
<path fill="none" stroke="#191970" d="M912.9643,-190.4607C960.1711,-183.2489 1021.8079,-171.5429 1074.5,-154 1076.1509,-153.4504 1077.8262,-152.8338 1079.5006,-152.1718"/>
<polygon fill="#191970" stroke="#191970" points="1081.1609,-155.2651 1088.9024,-148.0318 1078.3399,-148.8587 1081.1609,-155.2651"/>
</g>
<!-- Node2 -->
<g id="node3" class="node">
<title>Node2</title>
<g id="a_node3"><a xlink:href="ForwardDeclarations_8h.html" target="_top" xlink:title="Asteroids/ForwardDeclarations.h">
<polygon fill="#ffffff" stroke="#000000" points="675,-.5 675,-19.5 834,-19.5 834,-.5 675,-.5"/>
<text text-anchor="middle" x="754.5" y="-7.5" font-family="Helvetica,sans-Serif" font-size="10.00" fill="#000000">Asteroids/ForwardDeclarations.h</text>
</a>
</g>
</g>
<!-- Node1&#45;&gt;Node2 -->
<g id="edge2" class="edge">
<title>Node1&#45;&gt;Node2</title>
<path fill="none" stroke="#191970" d="M688.0915,-123.3662C705.0068,-115.0292 723.5646,-103.06 735.5,-87 747.912,-70.2987 752.2909,-46.4821 753.7957,-29.7713"/>
<polygon fill="#191970" stroke="#191970" points="757.3062,-29.7125 754.4416,-19.5123 750.32,-29.2726 757.3062,-29.7125"/>
</g>
<!-- Node3 -->
<g id="node4" class="node">
<title>Node3</title>
<g id="a_node4"><a xlink:href="ServerDaemonInterface_8h.html" target="_top" xlink:title="Asteroids/Domain/Server\l/ServerDaemonInterface.h">
<polygon fill="#ffffff" stroke="#000000" points="531,-56.5 531,-86.5 662,-86.5 662,-56.5 531,-56.5"/>
<text text-anchor="start" x="539" y="-74.5" font-family="Helvetica,sans-Serif" font-size="10.00" fill="#000000">Asteroids/Domain/Server</text>
<text text-anchor="middle" x="596.5" y="-63.5" font-family="Helvetica,sans-Serif" font-size="10.00" fill="#000000">/ServerDaemonInterface.h</text>
</a>
</g>
</g>
<!-- Node1&#45;&gt;Node3 -->
<g id="edge3" class="edge">
<title>Node1&#45;&gt;Node3</title>
<path fill="none" stroke="#191970" d="M636.7004,-123.2967C630.1184,-114.816 621.7848,-104.0785 614.4141,-94.5817"/>
<polygon fill="#191970" stroke="#191970" points="617.1491,-92.3971 608.2529,-86.6432 611.6192,-96.689 617.1491,-92.3971"/>
</g>
<!-- Node4 -->
<g id="node5" class="node">
<title>Node4</title>
<polygon fill="#ffffff" stroke="#bfbfbf" points="430.5,-.5 430.5,-19.5 482.5,-19.5 482.5,-.5 430.5,-.5"/>
<text text-anchor="middle" x="456.5" y="-7.5" font-family="Helvetica,sans-Serif" font-size="10.00" fill="#000000">memory</text>
</g>
<!-- Node1&#45;&gt;Node4 -->
<g id="edge7" class="edge">
<title>Node1&#45;&gt;Node4</title>
<path fill="none" stroke="#191970" d="M595.5171,-123.4601C571.5272,-115.088 543.6493,-103.064 521.5,-87 499.1553,-70.7943 479.6628,-45.3151 467.9948,-28.1496"/>
<polygon fill="#191970" stroke="#191970" points="470.7734,-26.0052 462.349,-19.5801 464.9279,-29.8563 470.7734,-26.0052"/>
</g>
<!-- Node6 -->
<g id="node7" class="node">
<title>Node6</title>
<polygon fill="#ffffff" stroke="#bfbfbf" points="680.5,-62 680.5,-81 726.5,-81 726.5,-62 680.5,-62"/>
<text text-anchor="middle" x="703.5" y="-69" font-family="Helvetica,sans-Serif" font-size="10.00" fill="#000000">atomic</text>
</g>
<!-- Node1&#45;&gt;Node6 -->
<g id="edge8" class="edge">
<title>Node1&#45;&gt;Node6</title>
<path fill="none" stroke="#191970" d="M660.9804,-123.2967C669.3832,-113.0605 680.4849,-99.5366 689.2373,-88.8746"/>
<polygon fill="#191970" stroke="#191970" points="692.0167,-91.005 695.6564,-81.055 686.6061,-86.5635 692.0167,-91.005"/>
</g>
<!-- Node3&#45;&gt;Node2 -->
<g id="edge4" class="edge">
<title>Node3&#45;&gt;Node2</title>
<path fill="none" stroke="#191970" d="M635.1511,-56.4554C661.2826,-46.284 695.4653,-32.9787 720.5481,-23.2155"/>
<polygon fill="#191970" stroke="#191970" points="721.9662,-26.4193 730.0156,-19.5303 719.4271,-19.8961 721.9662,-26.4193"/>
</g>
<!-- Node3&#45;&gt;Node4 -->
<g id="edge5" class="edge">
<title>Node3&#45;&gt;Node4</title>
<path fill="none" stroke="#191970" d="M562.2521,-56.4554C539.4051,-46.419 509.6121,-33.3314 487.4733,-23.6061"/>
<polygon fill="#191970" stroke="#191970" points="488.7583,-20.3478 478.195,-19.5303 485.9429,-26.7567 488.7583,-20.3478"/>
</g>
<!-- Node5 -->
<g id="node6" class="node">
<title>Node5</title>
<polygon fill="#ffffff" stroke="#bfbfbf" points="1035,-.5 1035,-19.5 1076,-19.5 1076,-.5 1035,-.5"/>
<text text-anchor="middle" x="1055.5" y="-7.5" font-family="Helvetica,sans-Serif" font-size="10.00" fill="#000000">string</text>
</g>
<!-- Node3&#45;&gt;Node5 -->
<g id="edge6" class="edge">
<title>Node3&#45;&gt;Node5</title>
<path fill="none" stroke="#191970" d="M662.2917,-57.575C665.4004,-57.0203 668.4817,-56.4918 671.5,-56 802.0715,-34.726 959.1221,-18.9504 1024.5461,-12.8114"/>
<polygon fill="#191970" stroke="#191970" points="1024.9674,-16.2874 1034.6004,-11.8765 1024.3192,-9.3175 1024.9674,-16.2874"/>
</g>
<!-- Node7&#45;&gt;Node2 -->
<g id="edge10" class="edge">
<title>Node7&#45;&gt;Node2</title>
<path fill="none" stroke="#191970" d="M131.1882,-57.2721C133.9913,-56.8133 136.7707,-56.3862 139.5,-56 324.9193,-29.7633 544.0462,-17.9052 664.272,-13.0252"/>
<polygon fill="#191970" stroke="#191970" points="664.6763,-16.512 674.5289,-12.6161 664.3973,-9.5175 664.6763,-16.512"/>
</g>
<!-- Node7&#45;&gt;Node4 -->
<g id="edge11" class="edge">
<title>Node7&#45;&gt;Node4</title>
<path fill="none" stroke="#191970" d="M131.2263,-57.511C134.0189,-56.9869 136.7858,-56.4807 139.5,-56 240.7485,-38.0682 361.1074,-22.0429 420.1543,-14.5244"/>
<polygon fill="#191970" stroke="#191970" points="420.6286,-17.9924 430.1095,-13.2636 419.749,-11.0479 420.6286,-17.9924"/>
</g>
<!-- Node8&#45;&gt;Node2 -->
<g id="edge13" class="edge">
<title>Node8&#45;&gt;Node2</title>
<path fill="none" stroke="#191970" d="M328.0521,-57.2925C331.2391,-56.8464 334.396,-56.414 337.5,-56 450.0619,-40.9878 580.1897,-27.1991 664.7357,-18.7119"/>
<polygon fill="#191970" stroke="#191970" points="665.2141,-22.1816 674.8159,-17.7035 664.5172,-15.2164 665.2141,-22.1816"/>
</g>
<!-- Node8&#45;&gt;Node4 -->
<g id="edge14" class="edge">
<title>Node8&#45;&gt;Node4</title>
<path fill="none" stroke="#191970" d="M291.8288,-56.4554C331.8685,-45.1598 385.6082,-29.9993 420.6378,-20.1171"/>
<polygon fill="#191970" stroke="#191970" points="421.7593,-23.4374 430.4333,-17.3537 419.8586,-16.7004 421.7593,-23.4374"/>
</g>
<!-- Node9&#45;&gt;Node2 -->
<g id="edge16" class="edge">
<title>Node9&#45;&gt;Node2</title>
<path fill="none" stroke="#191970" d="M1160.2852,-57.2825C1157.322,-56.8392 1154.3865,-56.4101 1151.5,-56 1046.261,-41.0479 924.8057,-27.518 844.2305,-19.0627"/>
<polygon fill="#191970" stroke="#191970" points="844.4304,-15.5646 834.1207,-18.0059 843.7026,-22.5266 844.4304,-15.5646"/>
</g>
<!-- Node9&#45;&gt;Node5 -->
<g id="edge17" class="edge">
<title>Node9&#45;&gt;Node5</title>
<path fill="none" stroke="#191970" d="M1197.51,-56.4554C1162.7413,-45.0816 1115.9938,-29.7892 1085.8019,-19.9126"/>
<polygon fill="#191970" stroke="#191970" points="1086.8314,-16.5669 1076.2388,-16.7842 1084.655,-23.22 1086.8314,-16.5669"/>
</g>
<!-- Node10 -->
<g id="node11" class="node">
<title>Node10</title>
<polygon fill="#ffffff" stroke="#bfbfbf" points="1129.5,-.5 1129.5,-19.5 1173.5,-19.5 1173.5,-.5 1129.5,-.5"/>
<text text-anchor="middle" x="1151.5" y="-7.5" font-family="Helvetica,sans-Serif" font-size="10.00" fill="#000000">vector</text>
</g>
<!-- Node9&#45;&gt;Node10 -->
<g id="edge18" class="edge">
<title>Node9&#45;&gt;Node10</title>
<path fill="none" stroke="#191970" d="M1220.7584,-56.2977C1206.7033,-46.9022 1188.717,-34.8787 1174.5964,-25.4395"/>
<polygon fill="#191970" stroke="#191970" points="1176.2143,-22.311 1165.9556,-19.6633 1172.3241,-28.1305 1176.2143,-22.311"/>
</g>
<!-- Node11 -->
<g id="node12" class="node">
<title>Node11</title>
<polygon fill="#ffffff" stroke="#bfbfbf" points="1226,-.5 1226,-19.5 1261,-19.5 1261,-.5 1226,-.5"/>
<text text-anchor="middle" x="1243.5" y="-7.5" font-family="Helvetica,sans-Serif" font-size="10.00" fill="#000000">map</text>
</g>
<!-- Node9&#45;&gt;Node11 -->
<g id="edge19" class="edge">
<title>Node9&#45;&gt;Node11</title>
<path fill="none" stroke="#191970" d="M1243.5,-56.2977C1243.5,-48.3834 1243.5,-38.6043 1243.5,-30.0759"/>
<polygon fill="#191970" stroke="#191970" points="1247.0001,-29.8469 1243.5,-19.8469 1240.0001,-29.847 1247.0001,-29.8469"/>
</g>
<!-- Node12&#45;&gt;Node2 -->
<g id="edge21" class="edge">
<title>Node12&#45;&gt;Node2</title>
<path fill="none" stroke="#191970" d="M474.8002,-60.0045C536.6948,-48.939 629.7239,-32.3074 691.2599,-21.306"/>
<polygon fill="#191970" stroke="#191970" points="692.0055,-24.7283 701.2334,-19.523 690.7735,-17.8375 692.0055,-24.7283"/>
</g>
<!-- Node12&#45;&gt;Node4 -->
<g id="edge22" class="edge">
<title>Node12&#45;&gt;Node4</title>
<path fill="none" stroke="#191970" d="M421.8708,-56.2977C428.2561,-47.7609 436.2641,-37.0545 442.9705,-28.0883"/>
<polygon fill="#191970" stroke="#191970" points="445.9479,-29.9511 449.1348,-19.8469 440.3425,-25.7584 445.9479,-29.9511"/>
</g>
<!-- Node13&#45;&gt;Node2 -->
<g id="edge24" class="edge">
<title>Node13&#45;&gt;Node2</title>
<path fill="none" stroke="#191970" d="M788.1327,-123.278C783.3652,-106.7105 775.4782,-79.447 768.5,-56 765.884,-47.2102 762.935,-37.4931 760.4206,-29.2634"/>
<polygon fill="#191970" stroke="#191970" points="763.7065,-28.0401 757.4301,-19.5045 757.0137,-30.0911 763.7065,-28.0401"/>
</g>
<!-- Node14 -->
<g id="node15" class="node">
<title>Node14</title>
<g id="a_node15"><a xlink:href="ServerUpdaterInterface_8h.html" target="_top" xlink:title="Asteroids/Domain/Server\l/ServerUpdaterInterface.h">
<polygon fill="#ffffff" stroke="#000000" points="821,-56.5 821,-86.5 950,-86.5 950,-56.5 821,-56.5"/>
<text text-anchor="start" x="829" y="-74.5" font-family="Helvetica,sans-Serif" font-size="10.00" fill="#000000">Asteroids/Domain/Server</text>
<text text-anchor="middle" x="885.5" y="-63.5" font-family="Helvetica,sans-Serif" font-size="10.00" fill="#000000">/ServerUpdaterInterface.h</text>
</a>
</g>
</g>
<!-- Node13&#45;&gt;Node14 -->
<g id="edge25" class="edge">
<title>Node13&#45;&gt;Node14</title>
<path fill="none" stroke="#191970" d="M813.6031,-123.2967C826.2072,-114.2163 842.4024,-102.5488 856.23,-92.587"/>
<polygon fill="#191970" stroke="#191970" points="858.4126,-95.3284 864.4804,-86.6432 854.3208,-89.6488 858.4126,-95.3284"/>
</g>
<!-- Node14&#45;&gt;Node2 -->
<g id="edge26" class="edge">
<title>Node14&#45;&gt;Node2</title>
<path fill="none" stroke="#191970" d="M853.4538,-56.4554C832.2672,-46.509 804.6972,-33.5659 784.0412,-23.8686"/>
<polygon fill="#191970" stroke="#191970" points="785.3399,-20.6118 774.8004,-19.5303 782.3651,-26.9483 785.3399,-20.6118"/>
</g>
<!-- Node15&#45;&gt;Node2 -->
<g id="edge28" class="edge">
<title>Node15&#45;&gt;Node2</title>
<path fill="none" stroke="#191970" d="M981.8671,-56.4554C929.2215,-45.6989 859.4223,-31.4376 811.1129,-21.5671"/>
<polygon fill="#191970" stroke="#191970" points="811.6426,-18.1031 801.1443,-19.5303 810.2412,-24.9614 811.6426,-18.1031"/>
</g>
<!-- Node15&#45;&gt;Node4 -->
<g id="edge31" class="edge">
<title>Node15&#45;&gt;Node4</title>
<path fill="none" stroke="#191970" d="M968.4168,-57.1714C965.4102,-56.7622 962.4312,-56.3702 959.5,-56 785.3062,-33.9989 575.9008,-18.274 492.9207,-12.4662"/>
<polygon fill="#191970" stroke="#191970" points="492.9698,-8.9612 482.7513,-11.7599 492.4848,-15.9444 492.9698,-8.9612"/>
</g>
<!-- Node15&#45;&gt;Node5 -->
<g id="edge29" class="edge">
<title>Node15&#45;&gt;Node5</title>
<path fill="none" stroke="#191970" d="M1055.5,-56.2977C1055.5,-48.3834 1055.5,-38.6043 1055.5,-30.0759"/>
<polygon fill="#191970" stroke="#191970" points="1059.0001,-29.8469 1055.5,-19.8469 1052.0001,-29.847 1059.0001,-29.8469"/>
</g>
<!-- Node15&#45;&gt;Node10 -->
<g id="edge30" class="edge">
<title>Node15&#45;&gt;Node10</title>
<path fill="none" stroke="#191970" d="M1079.2303,-56.2977C1094.0362,-46.8127 1113.0228,-34.6495 1127.8193,-25.1705"/>
<polygon fill="#191970" stroke="#191970" points="1129.8835,-28.0047 1136.4159,-19.6633 1126.1075,-22.1105 1129.8835,-28.0047"/>
</g>
</g>
</svg>
