<?xml version="1.0" encoding="UTF-8" standalone="no"?>
<!DOCTYPE svg PUBLIC "-//W3C//DTD SVG 1.1//EN"
 "http://www.w3.org/Graphics/SVG/1.1/DTD/svg11.dtd">
<!-- Generated by graphviz version 2.40.1 (20161225.0304)
 -->
<!-- Title: Domain/Server/ServerDaemonInterface.h Pages: 1 -->
<svg width="599pt" height="162pt"
 viewBox="0.00 0.00 598.50 162.00" xmlns="http://www.w3.org/2000/svg" xmlns:xlink="http://www.w3.org/1999/xlink">
<g id="graph0" class="graph" transform="scale(1 1) rotate(0) translate(4 158)">
<title>Domain/Server/ServerDaemonInterface.h</title>
<polygon fill="#ffffff" stroke="transparent" points="-4,4 -4,-158 594.5,-158 594.5,4 -4,4"/>
<!-- Node4 -->
<g id="node1" class="node">
<title>Node4</title>
<polygon fill="#bfbfbf" stroke="#000000" points="279.5,-123.5 279.5,-153.5 429.5,-153.5 429.5,-123.5 279.5,-123.5"/>
<text text-anchor="start" x="287.5" y="-141.5" font-family="Helvetica,sans-Serif" font-size="10.00" fill="#000000">Domain/Server/ServerDaemon</text>
<text text-anchor="middle" x="354.5" y="-130.5" font-family="Helvetica,sans-Serif" font-size="10.00" fill="#000000">Interface.h</text>
</g>
<!-- Node5 -->
<g id="node2" class="node">
<title>Node5</title>
<g id="a_node2"><a xlink:href="ServerDaemon_8h.html" target="_top" xlink:title="Domain/Server/ServerDaemon.h">
<polygon fill="#ffffff" stroke="#000000" points="100.5,-62 100.5,-81 258.5,-81 258.5,-62 100.5,-62"/>
<text text-anchor="middle" x="179.5" y="-69" font-family="Helvetica,sans-Serif" font-size="10.00" fill="#000000">Domain/Server/ServerDaemon.h</text>
</a>
</g>
</g>
<!-- Node4&#45;&gt;Node5 -->
<g id="edge1" class="edge">
<title>Node4&#45;&gt;Node5</title>
<path fill="none" stroke="#191970" d="M305.756,-119.838C272.7858,-107.2151 230.6154,-91.0699 204.3272,-81.0053"/>
<polygon fill="#191970" stroke="#191970" points="304.6362,-123.157 315.2266,-123.4639 307.1391,-116.6197 304.6362,-123.157"/>
</g>
<!-- Node8 -->
<g id="node5" class="node">
<title>Node8</title>
<g id="a_node5"><a xlink:href="ServerFactory_8h.html" target="_top" xlink:title="Domain/Server/ServerFactory.h">
<polygon fill="#ffffff" stroke="#000000" points="277,-62 277,-81 432,-81 432,-62 277,-62"/>
<text text-anchor="middle" x="354.5" y="-69" font-family="Helvetica,sans-Serif" font-size="10.00" fill="#000000">Domain/Server/ServerFactory.h</text>
</a>
</g>
</g>
<!-- Node4&#45;&gt;Node8 -->
<g id="edge4" class="edge">
<title>Node4&#45;&gt;Node8</title>
<path fill="none" stroke="#191970" d="M354.5,-113.1199C354.5,-101.9072 354.5,-89.4031 354.5,-81.055"/>
<polygon fill="#191970" stroke="#191970" points="351.0001,-113.2966 354.5,-123.2967 358.0001,-113.2967 351.0001,-113.2966"/>
</g>
<!-- Node10 -->
<g id="node7" class="node">
<title>Node10</title>
<g id="a_node7"><a xlink:href="ServerTextUI_8cpp.html" target="_top" xlink:title="UI/ServerTextUI/ServerText\lUI.cpp">
<polygon fill="#ffffff" stroke="#000000" points="450.5,-56.5 450.5,-86.5 590.5,-86.5 590.5,-56.5 450.5,-56.5"/>
<text text-anchor="start" x="458.5" y="-74.5" font-family="Helvetica,sans-Serif" font-size="10.00" fill="#000000">UI/ServerTextUI/ServerText</text>
<text text-anchor="middle" x="520.5" y="-63.5" font-family="Helvetica,sans-Serif" font-size="10.00" fill="#000000">UI.cpp</text>
</a>
</g>
</g>
<!-- Node4&#45;&gt;Node10 -->
<g id="edge7" class="edge">
<title>Node4&#45;&gt;Node10</title>
<path fill="none" stroke="#191970" d="M401.3525,-119.5897C427.2135,-109.1518 458.8931,-96.3654 483.0839,-86.6017"/>
<polygon fill="#191970" stroke="#191970" points="399.7168,-116.4754 391.7536,-123.4639 402.3368,-122.9667 399.7168,-116.4754"/>
</g>
<!-- Node6 -->
<g id="node3" class="node">
<title>Node6</title>
<g id="a_node3"><a xlink:href="ServerDaemon_8cpp.html" target="_top" xlink:title="Domain/Server/ServerDaemon.cpp">
<polygon fill="#ffffff" stroke="#000000" points="0,-.5 0,-19.5 169,-19.5 169,-.5 0,-.5"/>
<text text-anchor="middle" x="84.5" y="-7.5" font-family="Helvetica,sans-Serif" font-size="10.00" fill="#000000">Domain/Server/ServerDaemon.cpp</text>
</a>
</g>
</g>
<!-- Node5&#45;&gt;Node6 -->
<g id="edge2" class="edge">
<title>Node5&#45;&gt;Node6</title>
<path fill="none" stroke="#191970" d="M155.9987,-56.286C138.2351,-44.7864 114.3979,-29.355 99.2395,-19.5419"/>
<polygon fill="#191970" stroke="#191970" points="154.3597,-59.3943 164.6563,-61.8906 158.1638,-53.5182 154.3597,-59.3943"/>
</g>
<!-- Node7 -->
<g id="node4" class="node">
<title>Node7</title>
<g id="a_node4"><a xlink:href="ServerFactory_8cpp.html" target="_top" xlink:title="Domain/Server/ServerFactory.cpp">
<polygon fill="#ffffff" stroke="#000000" points="187,-.5 187,-19.5 352,-19.5 352,-.5 187,-.5"/>
<text text-anchor="middle" x="269.5" y="-7.5" font-family="Helvetica,sans-Serif" font-size="10.00" fill="#000000">Domain/Server/ServerFactory.cpp</text>
</a>
</g>
</g>
<!-- Node5&#45;&gt;Node7 -->
<g id="edge3" class="edge">
<title>Node5&#45;&gt;Node7</title>
<path fill="none" stroke="#191970" d="M202.229,-55.9685C219.0068,-44.5037 241.3074,-29.265 255.5362,-19.5419"/>
<polygon fill="#191970" stroke="#191970" points="199.8443,-53.3589 193.5625,-61.8906 203.7936,-59.1384 199.8443,-53.3589"/>
</g>
<!-- Node8&#45;&gt;Node7 -->
<g id="edge6" class="edge">
<title>Node8&#45;&gt;Node7</title>
<path fill="none" stroke="#191970" d="M333.0338,-55.9685C317.1881,-44.5037 296.1264,-29.265 282.688,-19.5419"/>
<polygon fill="#191970" stroke="#191970" points="331.0653,-58.8643 341.2188,-61.8906 335.1686,-53.1931 331.0653,-58.8643"/>
</g>
<!-- Node9 -->
<g id="node6" class="node">
<title>Node9</title>
<g id="a_node6"><a xlink:href="Factory_8cpp.html" target="_top" xlink:title="Domain/Factory/Factory.cpp">
<polygon fill="#ffffff" stroke="#000000" points="370,-.5 370,-19.5 511,-19.5 511,-.5 370,-.5"/>
<text text-anchor="middle" x="440.5" y="-7.5" font-family="Helvetica,sans-Serif" font-size="10.00" fill="#000000">Domain/Factory/Factory.cpp</text>
</a>
</g>
</g>
<!-- Node8&#45;&gt;Node9 -->
<g id="edge5" class="edge">
<title>Node8&#45;&gt;Node9</title>
<path fill="none" stroke="#191970" d="M376.2188,-55.9685C392.2509,-44.5037 413.5604,-29.265 427.1569,-19.5419"/>
<polygon fill="#191970" stroke="#191970" points="374.0357,-53.2268 367.9375,-61.8906 378.1076,-58.9207 374.0357,-53.2268"/>
</g>
</g>
</svg>
