<?xml version="1.0" encoding="UTF-8" standalone="no"?>
<!DOCTYPE svg PUBLIC "-//W3C//DTD SVG 1.1//EN"
 "http://www.w3.org/Graphics/SVG/1.1/DTD/svg11.dtd">
<!-- Generated by graphviz version 2.40.1 (20161225.0304)
 -->
<!-- Title: Domain/Server/ServerDaemon.h Pages: 1 -->
<svg width="350pt" height="151pt"
 viewBox="0.00 0.00 349.50 151.00" xmlns="http://www.w3.org/2000/svg" xmlns:xlink="http://www.w3.org/1999/xlink">
<g id="graph0" class="graph" transform="scale(1 1) rotate(0) translate(4 147)">
<title>Domain/Server/ServerDaemon.h</title>
<polygon fill="#ffffff" stroke="transparent" points="-4,4 -4,-147 345.5,-147 345.5,4 -4,4"/>
<!-- Node0 -->
<g id="node1" class="node">
<title>Node0</title>
<polygon fill="#bfbfbf" stroke="#000000" points="141.5,-123.5 141.5,-142.5 299.5,-142.5 299.5,-123.5 141.5,-123.5"/>
<text text-anchor="middle" x="220.5" y="-130.5" font-family="Helvetica,sans-Serif" font-size="10.00" fill="#000000">Domain/Server/ServerDaemon.h</text>
</g>
<!-- Node1 -->
<g id="node2" class="node">
<title>Node1</title>
<g id="a_node2"><a xlink:href="ForwardDeclarations_8h.html" target="_top" xlink:title="Asteroids/ForwardDeclarations.h">
<polygon fill="#ffffff" stroke="#000000" points="0,-.5 0,-19.5 159,-19.5 159,-.5 0,-.5"/>
<text text-anchor="middle" x="79.5" y="-7.5" font-family="Helvetica,sans-Serif" font-size="10.00" fill="#000000">Asteroids/ForwardDeclarations.h</text>
</a>
</g>
</g>
<!-- Node0&#45;&gt;Node1 -->
<g id="edge1" class="edge">
<title>Node0&#45;&gt;Node1</title>
<path fill="none" stroke="#191970" d="M163.162,-123.4389C140.1078,-116.832 115.1071,-105.7043 98.5,-87 84.4766,-71.2057 80.4372,-46.6924 79.4518,-29.5802"/>
<polygon fill="#191970" stroke="#191970" points="82.9501,-29.4677 79.1711,-19.5698 75.9529,-29.664 82.9501,-29.4677"/>
</g>
<!-- Node2 -->
<g id="node3" class="node">
<title>Node2</title>
<g id="a_node3"><a xlink:href="ServerDaemonInterface_8h.html" target="_top" xlink:title="Asteroids/Domain/Server\l/ServerDaemonInterface.h">
<polygon fill="#ffffff" stroke="#000000" points="108,-56.5 108,-86.5 239,-86.5 239,-56.5 108,-56.5"/>
<text text-anchor="start" x="116" y="-74.5" font-family="Helvetica,sans-Serif" font-size="10.00" fill="#000000">Asteroids/Domain/Server</text>
<text text-anchor="middle" x="173.5" y="-63.5" font-family="Helvetica,sans-Serif" font-size="10.00" fill="#000000">/ServerDaemonInterface.h</text>
</a>
</g>
</g>
<!-- Node0&#45;&gt;Node2 -->
<g id="edge2" class="edge">
<title>Node0&#45;&gt;Node2</title>
<path fill="none" stroke="#191970" d="M213.1563,-123.3906C207.2665,-115.6839 198.7527,-104.5434 191.1222,-94.5589"/>
<polygon fill="#191970" stroke="#191970" points="193.8505,-92.3648 184.9975,-86.5446 188.2887,-96.6153 193.8505,-92.3648"/>
</g>
<!-- Node3 -->
<g id="node4" class="node">
<title>Node3</title>
<polygon fill="#ffffff" stroke="#bfbfbf" points="238.5,-.5 238.5,-19.5 290.5,-19.5 290.5,-.5 238.5,-.5"/>
<text text-anchor="middle" x="264.5" y="-7.5" font-family="Helvetica,sans-Serif" font-size="10.00" fill="#000000">memory</text>
</g>
<!-- Node0&#45;&gt;Node3 -->
<g id="edge6" class="edge">
<title>Node0&#45;&gt;Node3</title>
<path fill="none" stroke="#191970" d="M227.7762,-123.2899C234.1562,-114.3188 243.2153,-100.3929 248.5,-87 255.8395,-68.3996 260.0179,-45.8806 262.2499,-30.0142"/>
<polygon fill="#191970" stroke="#191970" points="265.7608,-30.1491 263.5485,-19.7878 258.8166,-29.2672 265.7608,-30.1491"/>
</g>
<!-- Node5 -->
<g id="node6" class="node">
<title>Node5</title>
<polygon fill="#ffffff" stroke="#bfbfbf" points="295.5,-62 295.5,-81 341.5,-81 341.5,-62 295.5,-62"/>
<text text-anchor="middle" x="318.5" y="-69" font-family="Helvetica,sans-Serif" font-size="10.00" fill="#000000">atomic</text>
</g>
<!-- Node0&#45;&gt;Node5 -->
<g id="edge7" class="edge">
<title>Node0&#45;&gt;Node5</title>
<path fill="none" stroke="#191970" d="M235.8125,-123.3906C251.5624,-113.5067 276.3123,-97.9749 294.6337,-86.4773"/>
<polygon fill="#191970" stroke="#191970" points="296.6852,-89.3221 303.295,-81.0419 292.9643,-83.3929 296.6852,-89.3221"/>
</g>
<!-- Node2&#45;&gt;Node1 -->
<g id="edge3" class="edge">
<title>Node2&#45;&gt;Node1</title>
<path fill="none" stroke="#191970" d="M150.264,-56.2977C135.7666,-46.8127 117.1756,-34.6495 102.6874,-25.1705"/>
<polygon fill="#191970" stroke="#191970" points="104.5543,-22.2094 94.2699,-19.6633 100.7218,-28.0671 104.5543,-22.2094"/>
</g>
<!-- Node2&#45;&gt;Node3 -->
<g id="edge4" class="edge">
<title>Node2&#45;&gt;Node3</title>
<path fill="none" stroke="#191970" d="M195.9944,-56.2977C209.8967,-46.9022 227.6876,-34.8787 241.6546,-25.4395"/>
<polygon fill="#191970" stroke="#191970" points="243.876,-28.1626 250.2015,-19.6633 239.9564,-22.3629 243.876,-28.1626"/>
</g>
<!-- Node4 -->
<g id="node5" class="node">
<title>Node4</title>
<polygon fill="#ffffff" stroke="#bfbfbf" points="177,-.5 177,-19.5 218,-19.5 218,-.5 177,-.5"/>
<text text-anchor="middle" x="197.5" y="-7.5" font-family="Helvetica,sans-Serif" font-size="10.00" fill="#000000">string</text>
</g>
<!-- Node2&#45;&gt;Node4 -->
<g id="edge5" class="edge">
<title>Node2&#45;&gt;Node4</title>
<path fill="none" stroke="#191970" d="M179.4326,-56.2977C182.6252,-48.1166 186.5954,-37.943 190.0004,-29.2179"/>
<polygon fill="#191970" stroke="#191970" points="193.2823,-30.4351 193.6573,-19.8469 186.7613,-27.8903 193.2823,-30.4351"/>
</g>
</g>
</svg>
