<?xml version="1.0" encoding="UTF-8" standalone="no"?>
<!DOCTYPE svg PUBLIC "-//W3C//DTD SVG 1.1//EN"
 "http://www.w3.org/Graphics/SVG/1.1/DTD/svg11.dtd">
<!-- Generated by graphviz version 2.40.1 (20161225.0304)
 -->
<!-- Title: TechnicalServices/Social/SocialMedia.cpp Pages: 1 -->
<svg width="651pt" height="251pt"
 viewBox="0.00 0.00 651.00 251.00" xmlns="http://www.w3.org/2000/svg" xmlns:xlink="http://www.w3.org/1999/xlink">
<g id="graph0" class="graph" transform="scale(1 1) rotate(0) translate(4 247)">
<title>TechnicalServices/Social/SocialMedia.cpp</title>
<polygon fill="#ffffff" stroke="transparent" points="-4,4 -4,-247 647,-247 647,4 -4,4"/>
<!-- Node0 -->
<g id="node1" class="node">
<title>Node0</title>
<polygon fill="#bfbfbf" stroke="#000000" points="422.5,-212.5 422.5,-242.5 549.5,-242.5 549.5,-212.5 422.5,-212.5"/>
<text text-anchor="start" x="430.5" y="-230.5" font-family="Helvetica,sans-Serif" font-size="10.00" fill="#000000">TechnicalServices/Social</text>
<text text-anchor="middle" x="486" y="-219.5" font-family="Helvetica,sans-Serif" font-size="10.00" fill="#000000">/SocialMedia.cpp</text>
</g>
<!-- Node1 -->
<g id="node2" class="node">
<title>Node1</title>
<g id="a_node2"><a xlink:href="SocialMedia_8h.html" target="_top" xlink:title="Asteroids/TechnicalServices\l/Social/SocialMedia.h">
<polygon fill="#ffffff" stroke="#000000" points="56.5,-140 56.5,-170 197.5,-170 197.5,-140 56.5,-140"/>
<text text-anchor="start" x="64.5" y="-158" font-family="Helvetica,sans-Serif" font-size="10.00" fill="#000000">Asteroids/TechnicalServices</text>
<text text-anchor="middle" x="127" y="-147" font-family="Helvetica,sans-Serif" font-size="10.00" fill="#000000">/Social/SocialMedia.h</text>
</a>
</g>
</g>
<!-- Node0&#45;&gt;Node1 -->
<g id="edge1" class="edge">
<title>Node0&#45;&gt;Node1</title>
<path fill="none" stroke="#191970" d="M422.2317,-214.622C362.3682,-202.5326 272.5671,-184.3973 207.7309,-171.3036"/>
<polygon fill="#191970" stroke="#191970" points="208.0428,-167.796 197.5478,-169.2471 206.6571,-174.6575 208.0428,-167.796"/>
</g>
<!-- Node7 -->
<g id="node8" class="node">
<title>Node7</title>
<g id="a_node8"><a xlink:href="FRIEND__ON__SOCIAL__MEDIA_8h.html" target="_top" xlink:title="Asteroids/TechnicalServices\l/Social/FRIEND_ON_SOCIAL\l_MEDIA.h">
<polygon fill="#ffffff" stroke="#000000" points="295,-134.5 295,-175.5 445,-175.5 445,-134.5 295,-134.5"/>
<text text-anchor="start" x="303" y="-163.5" font-family="Helvetica,sans-Serif" font-size="10.00" fill="#000000">Asteroids/TechnicalServices</text>
<text text-anchor="start" x="303" y="-152.5" font-family="Helvetica,sans-Serif" font-size="10.00" fill="#000000">/Social/FRIEND_ON_SOCIAL</text>
<text text-anchor="middle" x="370" y="-141.5" font-family="Helvetica,sans-Serif" font-size="10.00" fill="#000000">_MEDIA.h</text>
</a>
</g>
</g>
<!-- Node0&#45;&gt;Node7 -->
<g id="edge10" class="edge">
<title>Node0&#45;&gt;Node7</title>
<path fill="none" stroke="#191970" d="M461.9647,-212.478C447.3849,-203.3656 428.3839,-191.4899 411.4407,-180.9005"/>
<polygon fill="#191970" stroke="#191970" points="413.1374,-177.8335 402.8024,-175.5015 409.4274,-183.7695 413.1374,-177.8335"/>
</g>
<!-- Node9 -->
<g id="node10" class="node">
<title>Node9</title>
<polygon fill="#ffffff" stroke="#bfbfbf" points="463,-145.5 463,-164.5 509,-164.5 509,-145.5 463,-145.5"/>
<text text-anchor="middle" x="486" y="-152.5" font-family="Helvetica,sans-Serif" font-size="10.00" fill="#000000">chrono</text>
</g>
<!-- Node0&#45;&gt;Node9 -->
<g id="edge18" class="edge">
<title>Node0&#45;&gt;Node9</title>
<path fill="none" stroke="#191970" d="M486,-212.478C486,-201.6657 486,-186.9631 486,-175.1348"/>
<polygon fill="#191970" stroke="#191970" points="489.5001,-174.8956 486,-164.8957 482.5001,-174.8957 489.5001,-174.8956"/>
</g>
<!-- Node10 -->
<g id="node11" class="node">
<title>Node10</title>
<polygon fill="#ffffff" stroke="#bfbfbf" points="527,-145.5 527,-164.5 571,-164.5 571,-145.5 527,-145.5"/>
<text text-anchor="middle" x="549" y="-152.5" font-family="Helvetica,sans-Serif" font-size="10.00" fill="#000000">thread</text>
</g>
<!-- Node0&#45;&gt;Node10 -->
<g id="edge19" class="edge">
<title>Node0&#45;&gt;Node10</title>
<path fill="none" stroke="#191970" d="M499.0536,-212.478C509.1272,-200.8854 523.0867,-184.8209 533.6876,-172.6214"/>
<polygon fill="#191970" stroke="#191970" points="536.4837,-174.7397 540.401,-164.8957 531.1999,-170.1482 536.4837,-174.7397"/>
</g>
<!-- Node11 -->
<g id="node12" class="node">
<title>Node11</title>
<polygon fill="#ffffff" stroke="#bfbfbf" points="589,-145.5 589,-164.5 643,-164.5 643,-145.5 589,-145.5"/>
<text text-anchor="middle" x="616" y="-152.5" font-family="Helvetica,sans-Serif" font-size="10.00" fill="#000000">iostream</text>
</g>
<!-- Node0&#45;&gt;Node11 -->
<g id="edge20" class="edge">
<title>Node0&#45;&gt;Node11</title>
<path fill="none" stroke="#191970" d="M514.0783,-212.3722C532.8184,-202.2129 557.9709,-188.4568 580,-176 583.5822,-173.9744 587.3496,-171.8123 591.0432,-169.6743"/>
<polygon fill="#191970" stroke="#191970" points="593.0452,-172.5587 599.9246,-164.5011 589.5219,-166.51 593.0452,-172.5587"/>
</g>
<!-- Node2 -->
<g id="node3" class="node">
<title>Node2</title>
<g id="a_node3"><a xlink:href="ForwardDeclarations_8h.html" target="_top" xlink:title="Asteroids/ForwardDeclarations.h">
<polygon fill="#ffffff" stroke="#000000" points="168.5,-.5 168.5,-19.5 327.5,-19.5 327.5,-.5 168.5,-.5"/>
<text text-anchor="middle" x="248" y="-7.5" font-family="Helvetica,sans-Serif" font-size="10.00" fill="#000000">Asteroids/ForwardDeclarations.h</text>
</a>
</g>
</g>
<!-- Node1&#45;&gt;Node2 -->
<g id="edge2" class="edge">
<title>Node1&#45;&gt;Node2</title>
<path fill="none" stroke="#191970" d="M157.0363,-139.9226C174.3863,-129.975 195.5643,-115.5505 210,-98 226.8687,-77.4916 237.4723,-48.3592 243.0671,-29.322"/>
<polygon fill="#191970" stroke="#191970" points="246.4466,-30.2327 245.7302,-19.6622 239.6983,-28.3723 246.4466,-30.2327"/>
</g>
<!-- Node3 -->
<g id="node4" class="node">
<title>Node3</title>
<g id="a_node4"><a xlink:href="SocialMediaInterface_8h.html" target="_top" xlink:title="Asteroids/TechnicalServices\l/Social/SocialMediaInterface.h">
<polygon fill="#ffffff" stroke="#000000" points="52.5,-62 52.5,-92 201.5,-92 201.5,-62 52.5,-62"/>
<text text-anchor="start" x="60.5" y="-80" font-family="Helvetica,sans-Serif" font-size="10.00" fill="#000000">Asteroids/TechnicalServices</text>
<text text-anchor="middle" x="127" y="-69" font-family="Helvetica,sans-Serif" font-size="10.00" fill="#000000">/Social/SocialMediaInterface.h</text>
</a>
</g>
</g>
<!-- Node1&#45;&gt;Node3 -->
<g id="edge3" class="edge">
<title>Node1&#45;&gt;Node3</title>
<path fill="none" stroke="#191970" d="M127,-139.9608C127,-129.3466 127,-114.8663 127,-102.4685"/>
<polygon fill="#191970" stroke="#191970" points="130.5001,-102.2591 127,-92.2592 123.5001,-102.2592 130.5001,-102.2591"/>
</g>
<!-- Node4 -->
<g id="node5" class="node">
<title>Node4</title>
<polygon fill="#ffffff" stroke="#bfbfbf" points="107.5,-.5 107.5,-19.5 148.5,-19.5 148.5,-.5 107.5,-.5"/>
<text text-anchor="middle" x="128" y="-7.5" font-family="Helvetica,sans-Serif" font-size="10.00" fill="#000000">string</text>
</g>
<!-- Node1&#45;&gt;Node4 -->
<g id="edge8" class="edge">
<title>Node1&#45;&gt;Node4</title>
<path fill="none" stroke="#191970" d="M89.8885,-139.8844C72.2972,-130.6072 52.9852,-116.8427 43,-98 34.2595,-81.5061 33.4448,-72.0357 43,-56 54.7757,-36.2377 78.3179,-24.4493 97.6458,-17.7621"/>
<polygon fill="#191970" stroke="#191970" points="98.8046,-21.0666 107.2844,-14.7149 96.6944,-14.3922 98.8046,-21.0666"/>
</g>
<!-- Node6 -->
<g id="node7" class="node">
<title>Node6</title>
<polygon fill="#ffffff" stroke="#bfbfbf" points="0,-.5 0,-19.5 52,-19.5 52,-.5 0,-.5"/>
<text text-anchor="middle" x="26" y="-7.5" font-family="Helvetica,sans-Serif" font-size="10.00" fill="#000000">memory</text>
</g>
<!-- Node1&#45;&gt;Node6 -->
<g id="edge9" class="edge">
<title>Node1&#45;&gt;Node6</title>
<path fill="none" stroke="#191970" d="M84.8076,-139.8783C65.715,-130.7776 44.82,-117.1696 33,-98 20.2838,-77.377 20.6034,-48.6669 22.708,-29.7219"/>
<polygon fill="#191970" stroke="#191970" points="26.2064,-29.974 24.1084,-19.589 19.2723,-29.0156 26.2064,-29.974"/>
</g>
<!-- Node3&#45;&gt;Node2 -->
<g id="edge4" class="edge">
<title>Node3&#45;&gt;Node2</title>
<path fill="none" stroke="#191970" d="M154.1548,-61.9639C174.3656,-50.7728 201.7964,-35.5838 221.7799,-24.5186"/>
<polygon fill="#191970" stroke="#191970" points="223.6027,-27.5101 230.6556,-19.6039 220.2117,-21.3862 223.6027,-27.5101"/>
</g>
<!-- Node3&#45;&gt;Node4 -->
<g id="edge5" class="edge">
<title>Node3&#45;&gt;Node4</title>
<path fill="none" stroke="#191970" d="M127.2269,-61.7967C127.3691,-52.2699 127.5538,-39.8954 127.707,-29.6306"/>
<polygon fill="#191970" stroke="#191970" points="131.2077,-29.6061 127.8574,-19.555 124.2084,-29.5016 131.2077,-29.6061"/>
</g>
<!-- Node5 -->
<g id="node6" class="node">
<title>Node5</title>
<polygon fill="#ffffff" stroke="#bfbfbf" points="348,-.5 348,-19.5 392,-19.5 392,-.5 348,-.5"/>
<text text-anchor="middle" x="370" y="-7.5" font-family="Helvetica,sans-Serif" font-size="10.00" fill="#000000">vector</text>
</g>
<!-- Node3&#45;&gt;Node5 -->
<g id="edge6" class="edge">
<title>Node3&#45;&gt;Node5</title>
<path fill="none" stroke="#191970" d="M183.4119,-61.9392C225.5192,-50.6188 284.4364,-34.6127 336,-20 336.592,-19.8322 337.1896,-19.6623 337.7915,-19.4907"/>
<polygon fill="#191970" stroke="#191970" points="339.0705,-22.7644 347.7057,-16.6257 337.1271,-16.0395 339.0705,-22.7644"/>
</g>
<!-- Node3&#45;&gt;Node6 -->
<g id="edge7" class="edge">
<title>Node3&#45;&gt;Node6</title>
<path fill="none" stroke="#191970" d="M104.3336,-61.9639C87.8451,-51.026 65.5996,-36.269 49.0278,-25.2759"/>
<polygon fill="#191970" stroke="#191970" points="50.7455,-22.2153 40.4776,-19.6039 46.8759,-28.0485 50.7455,-22.2153"/>
</g>
<!-- Node7&#45;&gt;Node2 -->
<g id="edge11" class="edge">
<title>Node7&#45;&gt;Node2</title>
<path fill="none" stroke="#191970" d="M416.811,-134.3755C431.417,-125.434 445.8303,-113.4168 454,-98 462.7405,-81.5061 465.6728,-70.5668 454,-56 445.2857,-45.1251 374.1929,-30.9324 317.9299,-21.2044"/>
<polygon fill="#191970" stroke="#191970" points="318.4195,-17.7374 307.9727,-19.5022 317.2398,-24.6373 318.4195,-17.7374"/>
</g>
<!-- Node7&#45;&gt;Node4 -->
<g id="edge16" class="edge">
<title>Node7&#45;&gt;Node4</title>
<path fill="none" stroke="#191970" d="M337.7652,-134.491C305.6273,-114.1776 254.7421,-82.3754 210,-56 191.6627,-45.1902 170.7294,-33.457 154.6032,-24.5461"/>
<polygon fill="#191970" stroke="#191970" points="156.1678,-21.4121 145.7198,-19.654 152.791,-27.5438 156.1678,-21.4121"/>
</g>
<!-- Node7&#45;&gt;Node5 -->
<g id="edge17" class="edge">
<title>Node7&#45;&gt;Node5</title>
<path fill="none" stroke="#191970" d="M443.2418,-134.4771C460.5001,-126.0397 476.819,-114.285 487,-98 496.8954,-82.172 497.5107,-71.4263 487,-56 477.0903,-41.4558 433.2347,-26.981 402.135,-18.2601"/>
<polygon fill="#191970" stroke="#191970" points="402.7134,-14.79 392.1446,-15.5314 400.869,-21.5426 402.7134,-14.79"/>
</g>
<!-- Node8 -->
<g id="node9" class="node">
<title>Node8</title>
<g id="a_node9"><a xlink:href="FRIEND__ON__SOCIAL__MEDIA__INTERFACE_8h.html" target="_top" xlink:title="Asteroids/TechnicalServices\l/Social/FRIEND_ON_SOCIAL\l_MEDIA_INTERFACE.h">
<polygon fill="#ffffff" stroke="#000000" points="295,-56.5 295,-97.5 445,-97.5 445,-56.5 295,-56.5"/>
<text text-anchor="start" x="303" y="-85.5" font-family="Helvetica,sans-Serif" font-size="10.00" fill="#000000">Asteroids/TechnicalServices</text>
<text text-anchor="start" x="303" y="-74.5" font-family="Helvetica,sans-Serif" font-size="10.00" fill="#000000">/Social/FRIEND_ON_SOCIAL</text>
<text text-anchor="middle" x="370" y="-63.5" font-family="Helvetica,sans-Serif" font-size="10.00" fill="#000000">_MEDIA_INTERFACE.h</text>
</a>
</g>
</g>
<!-- Node7&#45;&gt;Node8 -->
<g id="edge12" class="edge">
<title>Node7&#45;&gt;Node8</title>
<path fill="none" stroke="#191970" d="M370,-134.0974C370,-126.077 370,-116.7444 370,-107.9772"/>
<polygon fill="#191970" stroke="#191970" points="373.5001,-107.6898 370,-97.6898 366.5001,-107.6898 373.5001,-107.6898"/>
</g>
<!-- Node8&#45;&gt;Node2 -->
<g id="edge13" class="edge">
<title>Node8&#45;&gt;Node2</title>
<path fill="none" stroke="#191970" d="M332.4005,-56.3511C313.6152,-46.0346 291.3401,-33.8015 274.3918,-24.4939"/>
<polygon fill="#191970" stroke="#191970" points="276.0301,-21.4005 265.5801,-19.6546 272.6605,-27.5362 276.0301,-21.4005"/>
</g>
<!-- Node8&#45;&gt;Node4 -->
<g id="edge14" class="edge">
<title>Node8&#45;&gt;Node4</title>
<path fill="none" stroke="#191970" d="M294.558,-57.5633C254.2084,-46.9303 203.7509,-33.2541 159,-20 158.7899,-19.9378 158.579,-19.8751 158.3675,-19.8121"/>
<polygon fill="#191970" stroke="#191970" points="159.2215,-16.4129 148.634,-16.8091 157.1577,-23.1017 159.2215,-16.4129"/>
</g>
<!-- Node8&#45;&gt;Node5 -->
<g id="edge15" class="edge">
<title>Node8&#45;&gt;Node5</title>
<path fill="none" stroke="#191970" d="M370,-56.168C370,-47.8226 370,-38.2471 370,-29.9879"/>
<polygon fill="#191970" stroke="#191970" points="373.5001,-29.7804 370,-19.7805 366.5001,-29.7805 373.5001,-29.7804"/>
</g>
</g>
</svg>
