<?xml version="1.0" encoding="UTF-8" standalone="no"?>
<!DOCTYPE svg PUBLIC "-//W3C//DTD SVG 1.1//EN"
 "http://www.w3.org/Graphics/SVG/1.1/DTD/svg11.dtd">
<!-- Generated by graphviz version 2.40.1 (20161225.0304)
 -->
<!-- Title: TechnicalServices/Social/SocialMedia.h Pages: 1 -->
<svg width="296pt" height="106pt"
 viewBox="0.00 0.00 295.50 106.00" xmlns="http://www.w3.org/2000/svg" xmlns:xlink="http://www.w3.org/1999/xlink">
<g id="graph0" class="graph" transform="scale(1 1) rotate(0) translate(4 102)">
<title>TechnicalServices/Social/SocialMedia.h</title>
<polygon fill="#ffffff" stroke="transparent" points="-4,4 -4,-102 291.5,-102 291.5,4 -4,4"/>
<!-- Node6 -->
<g id="node1" class="node">
<title>Node6</title>
<polygon fill="#bfbfbf" stroke="#000000" points="76,-67.5 76,-97.5 203,-97.5 203,-67.5 76,-67.5"/>
<text text-anchor="start" x="84" y="-85.5" font-family="Helvetica,sans-Serif" font-size="10.00" fill="#000000">TechnicalServices/Social</text>
<text text-anchor="middle" x="139.5" y="-74.5" font-family="Helvetica,sans-Serif" font-size="10.00" fill="#000000">/SocialMedia.h</text>
</g>
<!-- Node7 -->
<g id="node2" class="node">
<title>Node7</title>
<g id="a_node2"><a xlink:href="SocialMedia_8cpp.html" target="_top" xlink:title="TechnicalServices/Social\l/SocialMedia.cpp">
<polygon fill="#ffffff" stroke="#000000" points="0,-.5 0,-30.5 127,-30.5 127,-.5 0,-.5"/>
<text text-anchor="start" x="8" y="-18.5" font-family="Helvetica,sans-Serif" font-size="10.00" fill="#000000">TechnicalServices/Social</text>
<text text-anchor="middle" x="63.5" y="-7.5" font-family="Helvetica,sans-Serif" font-size="10.00" fill="#000000">/SocialMedia.cpp</text>
</a>
</g>
</g>
<!-- Node6&#45;&gt;Node7 -->
<g id="edge1" class="edge">
<title>Node6&#45;&gt;Node7</title>
<path fill="none" stroke="#191970" d="M114.5408,-60.4965C103.4503,-50.7193 90.6733,-39.4554 80.6773,-30.6432"/>
<polygon fill="#191970" stroke="#191970" points="112.4386,-63.3091 122.2544,-67.2967 117.0677,-58.0582 112.4386,-63.3091"/>
</g>
<!-- Node8 -->
<g id="node3" class="node">
<title>Node8</title>
<g id="a_node3"><a xlink:href="TechnicalServicesFactory_8cpp.html" target="_top" xlink:title="TechnicalServices/Technical\lServicesFactory.cpp">
<polygon fill="#ffffff" stroke="#000000" points="145.5,-.5 145.5,-30.5 287.5,-30.5 287.5,-.5 145.5,-.5"/>
<text text-anchor="start" x="153.5" y="-18.5" font-family="Helvetica,sans-Serif" font-size="10.00" fill="#000000">TechnicalServices/Technical</text>
<text text-anchor="middle" x="216.5" y="-7.5" font-family="Helvetica,sans-Serif" font-size="10.00" fill="#000000">ServicesFactory.cpp</text>
</a>
</g>
</g>
<!-- Node6&#45;&gt;Node8 -->
<g id="edge2" class="edge">
<title>Node6&#45;&gt;Node8</title>
<path fill="none" stroke="#191970" d="M164.7876,-60.4965C176.024,-50.7193 188.9692,-39.4554 199.0967,-30.6432"/>
<polygon fill="#191970" stroke="#191970" points="162.219,-58.092 156.9725,-67.2967 166.8139,-63.3728 162.219,-58.092"/>
</g>
</g>
</svg>
