<?xml version="1.0" encoding="UTF-8" standalone="no"?>
<!DOCTYPE svg PUBLIC "-//W3C//DTD SVG 1.1//EN"
 "http://www.w3.org/Graphics/SVG/1.1/DTD/svg11.dtd">
<!-- Generated by graphviz version 2.40.1 (20161225.0304)
 -->
<!-- Title: Domain/Store/STORE_ITEM_INTERFACE.h Pages: 1 -->
<svg width="346pt" height="173pt"
 viewBox="0.00 0.00 346.00 173.00" xmlns="http://www.w3.org/2000/svg" xmlns:xlink="http://www.w3.org/1999/xlink">
<g id="graph0" class="graph" transform="scale(1 1) rotate(0) translate(4 169)">
<title>Domain/Store/STORE_ITEM_INTERFACE.h</title>
<polygon fill="#ffffff" stroke="transparent" points="-4,4 -4,-169 342,-169 342,4 -4,4"/>
<!-- Node3 -->
<g id="node1" class="node">
<title>Node3</title>
<polygon fill="#bfbfbf" stroke="#000000" points="141.5,-134.5 141.5,-164.5 258.5,-164.5 258.5,-134.5 141.5,-134.5"/>
<text text-anchor="start" x="149.5" y="-152.5" font-family="Helvetica,sans-Serif" font-size="10.00" fill="#000000">Domain/Store/STORE</text>
<text text-anchor="middle" x="200" y="-141.5" font-family="Helvetica,sans-Serif" font-size="10.00" fill="#000000">_ITEM_INTERFACE.h</text>
</g>
<!-- Node4 -->
<g id="node2" class="node">
<title>Node4</title>
<g id="a_node2"><a xlink:href="STORE__ITEM_8h.html" target="_top" xlink:title="Domain/Store/STORE\l_ITEM.h">
<polygon fill="#ffffff" stroke="#000000" points="72,-67.5 72,-97.5 186,-97.5 186,-67.5 72,-67.5"/>
<text text-anchor="start" x="80" y="-85.5" font-family="Helvetica,sans-Serif" font-size="10.00" fill="#000000">Domain/Store/STORE</text>
<text text-anchor="middle" x="129" y="-74.5" font-family="Helvetica,sans-Serif" font-size="10.00" fill="#000000">_ITEM.h</text>
</a>
</g>
</g>
<!-- Node3&#45;&gt;Node4 -->
<g id="edge1" class="edge">
<title>Node3&#45;&gt;Node4</title>
<path fill="none" stroke="#191970" d="M176.3806,-127.2113C166.0905,-117.5009 154.2949,-106.3698 145.0472,-97.6432"/>
<polygon fill="#191970" stroke="#191970" points="174.2139,-129.979 183.889,-134.2967 179.0181,-124.8879 174.2139,-129.979"/>
</g>
<!-- Node7 -->
<g id="node5" class="node">
<title>Node7</title>
<g id="a_node5"><a xlink:href="ClientTextUI_8cpp.html" target="_top" xlink:title="UI/ClientTextUI/ClientText\lUI.cpp">
<polygon fill="#ffffff" stroke="#000000" points="204,-67.5 204,-97.5 338,-97.5 338,-67.5 204,-67.5"/>
<text text-anchor="start" x="212" y="-85.5" font-family="Helvetica,sans-Serif" font-size="10.00" fill="#000000">UI/ClientTextUI/ClientText</text>
<text text-anchor="middle" x="271" y="-74.5" font-family="Helvetica,sans-Serif" font-size="10.00" fill="#000000">UI.cpp</text>
</a>
</g>
</g>
<!-- Node3&#45;&gt;Node7 -->
<g id="edge4" class="edge">
<title>Node3&#45;&gt;Node7</title>
<path fill="none" stroke="#191970" d="M223.6194,-127.2113C233.9095,-117.5009 245.7051,-106.3698 254.9528,-97.6432"/>
<polygon fill="#191970" stroke="#191970" points="220.9819,-124.8879 216.111,-134.2967 225.7861,-129.979 220.9819,-124.8879"/>
</g>
<!-- Node5 -->
<g id="node3" class="node">
<title>Node5</title>
<g id="a_node3"><a xlink:href="Store_8cpp.html" target="_top" xlink:title="Domain/Store/Store.cpp">
<polygon fill="#ffffff" stroke="#000000" points="0,-6 0,-25 122,-25 122,-6 0,-6"/>
<text text-anchor="middle" x="61" y="-13" font-family="Helvetica,sans-Serif" font-size="10.00" fill="#000000">Domain/Store/Store.cpp</text>
</a>
</g>
</g>
<!-- Node4&#45;&gt;Node5 -->
<g id="edge2" class="edge">
<title>Node4&#45;&gt;Node5</title>
<path fill="none" stroke="#191970" d="M106.3705,-60.2032C94.2524,-48.2634 79.9564,-34.1776 70.6976,-25.055"/>
<polygon fill="#191970" stroke="#191970" points="103.99,-62.7713 113.5697,-67.2967 108.903,-57.785 103.99,-62.7713"/>
</g>
<!-- Node6 -->
<g id="node4" class="node">
<title>Node6</title>
<g id="a_node4"><a xlink:href="STORE__ITEM_8cpp.html" target="_top" xlink:title="Domain/Store/STORE\l_ITEM.cpp">
<polygon fill="#ffffff" stroke="#000000" points="140,-.5 140,-30.5 254,-30.5 254,-.5 140,-.5"/>
<text text-anchor="start" x="148" y="-18.5" font-family="Helvetica,sans-Serif" font-size="10.00" fill="#000000">Domain/Store/STORE</text>
<text text-anchor="middle" x="197" y="-7.5" font-family="Helvetica,sans-Serif" font-size="10.00" fill="#000000">_ITEM.cpp</text>
</a>
</g>
</g>
<!-- Node4&#45;&gt;Node6 -->
<g id="edge3" class="edge">
<title>Node4&#45;&gt;Node6</title>
<path fill="none" stroke="#191970" d="M151.6214,-60.2113C161.4767,-50.5009 172.7739,-39.3698 181.6308,-30.6432"/>
<polygon fill="#191970" stroke="#191970" points="149.097,-57.785 144.4303,-67.2967 154.01,-62.7713 149.097,-57.785"/>
</g>
</g>
</svg>
