<?xml version="1.0" encoding="UTF-8" standalone="no"?>
<!DOCTYPE svg PUBLIC "-//W3C//DTD SVG 1.1//EN"
 "http://www.w3.org/Graphics/SVG/1.1/DTD/svg11.dtd">
<!-- Generated by graphviz version 2.40.1 (20161225.0304)
 -->
<!-- Title: Domain/Store/StoreFactory.h Pages: 1 -->
<svg width="264pt" height="151pt"
 viewBox="0.00 0.00 263.50 151.00" xmlns="http://www.w3.org/2000/svg" xmlns:xlink="http://www.w3.org/1999/xlink">
<g id="graph0" class="graph" transform="scale(1 1) rotate(0) translate(4 147)">
<title>Domain/Store/StoreFactory.h</title>
<polygon fill="#ffffff" stroke="transparent" points="-4,4 -4,-147 259.5,-147 259.5,4 -4,4"/>
<!-- Node0 -->
<g id="node1" class="node">
<title>Node0</title>
<polygon fill="#bfbfbf" stroke="#000000" points="82.5,-123.5 82.5,-142.5 226.5,-142.5 226.5,-123.5 82.5,-123.5"/>
<text text-anchor="middle" x="154.5" y="-130.5" font-family="Helvetica,sans-Serif" font-size="10.00" fill="#000000">Domain/Store/StoreFactory.h</text>
</g>
<!-- Node1 -->
<g id="node2" class="node">
<title>Node1</title>
<g id="a_node2"><a xlink:href="ForwardDeclarations_8h.html" target="_top" xlink:title="Asteroids/ForwardDeclarations.h">
<polygon fill="#ffffff" stroke="#000000" points="0,-.5 0,-19.5 159,-19.5 159,-.5 0,-.5"/>
<text text-anchor="middle" x="79.5" y="-7.5" font-family="Helvetica,sans-Serif" font-size="10.00" fill="#000000">Asteroids/ForwardDeclarations.h</text>
</a>
</g>
</g>
<!-- Node0&#45;&gt;Node1 -->
<g id="edge1" class="edge">
<title>Node0&#45;&gt;Node1</title>
<path fill="none" stroke="#191970" d="M129.3351,-123.4204C113.583,-116.0065 94.4489,-104.0924 84.5,-87 74.4251,-69.6913 74.4122,-46.3387 76.1451,-29.9042"/>
<polygon fill="#191970" stroke="#191970" points="79.6409,-30.1717 77.5215,-19.7911 72.7048,-29.2277 79.6409,-30.1717"/>
</g>
<!-- Node2 -->
<g id="node3" class="node">
<title>Node2</title>
<g id="a_node3"><a xlink:href="StoreFactoryInterface_8h.html" target="_top" xlink:title="Asteroids/Domain/Store\l/StoreFactoryInterface.h">
<polygon fill="#ffffff" stroke="#000000" points="93.5,-56.5 93.5,-86.5 215.5,-86.5 215.5,-56.5 93.5,-56.5"/>
<text text-anchor="start" x="101.5" y="-74.5" font-family="Helvetica,sans-Serif" font-size="10.00" fill="#000000">Asteroids/Domain/Store</text>
<text text-anchor="middle" x="154.5" y="-63.5" font-family="Helvetica,sans-Serif" font-size="10.00" fill="#000000">/StoreFactoryInterface.h</text>
</a>
</g>
</g>
<!-- Node0&#45;&gt;Node2 -->
<g id="edge2" class="edge">
<title>Node0&#45;&gt;Node2</title>
<path fill="none" stroke="#191970" d="M154.5,-123.3906C154.5,-116.2234 154.5,-106.0862 154.5,-96.671"/>
<polygon fill="#191970" stroke="#191970" points="158.0001,-96.5446 154.5,-86.5446 151.0001,-96.5446 158.0001,-96.5446"/>
</g>
<!-- Node3 -->
<g id="node4" class="node">
<title>Node3</title>
<polygon fill="#ffffff" stroke="#bfbfbf" points="203.5,-.5 203.5,-19.5 255.5,-19.5 255.5,-.5 203.5,-.5"/>
<text text-anchor="middle" x="229.5" y="-7.5" font-family="Helvetica,sans-Serif" font-size="10.00" fill="#000000">memory</text>
</g>
<!-- Node0&#45;&gt;Node3 -->
<g id="edge5" class="edge">
<title>Node0&#45;&gt;Node3</title>
<path fill="none" stroke="#191970" d="M179.6649,-123.4204C195.417,-116.0065 214.5511,-104.0924 224.5,-87 234.5749,-69.6913 234.5878,-46.3387 232.8549,-29.9042"/>
<polygon fill="#191970" stroke="#191970" points="236.2952,-29.2277 231.4785,-19.7911 229.3591,-30.1717 236.2952,-29.2277"/>
</g>
<!-- Node2&#45;&gt;Node1 -->
<g id="edge3" class="edge">
<title>Node2&#45;&gt;Node1</title>
<path fill="none" stroke="#191970" d="M135.9607,-56.2977C124.8992,-47.2274 110.8509,-35.7077 99.5347,-26.4285"/>
<polygon fill="#191970" stroke="#191970" points="101.4604,-23.4813 91.5084,-19.8469 97.0219,-28.8942 101.4604,-23.4813"/>
</g>
<!-- Node2&#45;&gt;Node3 -->
<g id="edge4" class="edge">
<title>Node2&#45;&gt;Node3</title>
<path fill="none" stroke="#191970" d="M173.0393,-56.2977C184.1008,-47.2274 198.1491,-35.7077 209.4653,-26.4285"/>
<polygon fill="#191970" stroke="#191970" points="211.9781,-28.8942 217.4916,-19.8469 207.5396,-23.4813 211.9781,-28.8942"/>
</g>
</g>
</svg>
