<?xml version="1.0" encoding="UTF-8" standalone="no"?>
<!DOCTYPE svg PUBLIC "-//W3C//DTD SVG 1.1//EN"
 "http://www.w3.org/Graphics/SVG/1.1/DTD/svg11.dtd">
<!-- Generated by graphviz version 2.40.1 (20161225.0304)
 -->
<!-- Title: Domain/Store/StoreFactoryInterface.h Pages: 1 -->
<svg width="585pt" height="162pt"
 viewBox="0.00 0.00 584.50 162.00" xmlns="http://www.w3.org/2000/svg" xmlns:xlink="http://www.w3.org/1999/xlink">
<g id="graph0" class="graph" transform="scale(1 1) rotate(0) translate(4 158)">
<title>Domain/Store/StoreFactoryInterface.h</title>
<polygon fill="#ffffff" stroke="transparent" points="-4,4 -4,-158 580.5,-158 580.5,4 -4,4"/>
<!-- Node3 -->
<g id="node1" class="node">
<title>Node3</title>
<polygon fill="#bfbfbf" stroke="#000000" points="299.5,-123.5 299.5,-153.5 435.5,-153.5 435.5,-123.5 299.5,-123.5"/>
<text text-anchor="start" x="307.5" y="-141.5" font-family="Helvetica,sans-Serif" font-size="10.00" fill="#000000">Domain/Store/StoreFactory</text>
<text text-anchor="middle" x="367.5" y="-130.5" font-family="Helvetica,sans-Serif" font-size="10.00" fill="#000000">Interface.h</text>
</g>
<!-- Node4 -->
<g id="node2" class="node">
<title>Node4</title>
<g id="a_node2"><a xlink:href="StoreFactory_8h.html" target="_top" xlink:title="Domain/Store/StoreFactory.h">
<polygon fill="#ffffff" stroke="#000000" points="164.5,-67.5 164.5,-86.5 308.5,-86.5 308.5,-67.5 164.5,-67.5"/>
<text text-anchor="middle" x="236.5" y="-74.5" font-family="Helvetica,sans-Serif" font-size="10.00" fill="#000000">Domain/Store/StoreFactory.h</text>
</a>
</g>
</g>
<!-- Node3&#45;&gt;Node4 -->
<g id="edge1" class="edge">
<title>Node3&#45;&gt;Node4</title>
<path fill="none" stroke="#191970" d="M326.1981,-119.1102C303.0711,-108.2529 275.2611,-95.197 256.8004,-86.5303"/>
<polygon fill="#191970" stroke="#191970" points="324.9143,-122.3739 335.4538,-123.4554 327.8891,-116.0375 324.9143,-122.3739"/>
</g>
<!-- Node7 -->
<g id="node5" class="node">
<title>Node7</title>
<g id="a_node5"><a xlink:href="ClientTextUI_8cpp.html" target="_top" xlink:title="UI/ClientTextUI/ClientText\lUI.cpp">
<polygon fill="#ffffff" stroke="#000000" points="332.5,-.5 332.5,-30.5 466.5,-30.5 466.5,-.5 332.5,-.5"/>
<text text-anchor="start" x="340.5" y="-18.5" font-family="Helvetica,sans-Serif" font-size="10.00" fill="#000000">UI/ClientTextUI/ClientText</text>
<text text-anchor="middle" x="399.5" y="-7.5" font-family="Helvetica,sans-Serif" font-size="10.00" fill="#000000">UI.cpp</text>
</a>
</g>
</g>
<!-- Node3&#45;&gt;Node7 -->
<g id="edge4" class="edge">
<title>Node3&#45;&gt;Node7</title>
<path fill="none" stroke="#191970" d="M373.9709,-113.6276C380.4314,-88.7948 390.1529,-51.428 395.5441,-30.7056"/>
<polygon fill="#191970" stroke="#191970" points="370.5545,-112.8587 371.4238,-123.4178 377.329,-114.6212 370.5545,-112.8587"/>
</g>
<!-- Node8 -->
<g id="node6" class="node">
<title>Node8</title>
<g id="a_node6"><a xlink:href="ClientTextUI_8h.html" target="_top" xlink:title="UI/ClientTextUI/ClientTextUI.h">
<polygon fill="#ffffff" stroke="#000000" points="395.5,-67.5 395.5,-86.5 547.5,-86.5 547.5,-67.5 395.5,-67.5"/>
<text text-anchor="middle" x="471.5" y="-74.5" font-family="Helvetica,sans-Serif" font-size="10.00" fill="#000000">UI/ClientTextUI/ClientTextUI.h</text>
</a>
</g>
</g>
<!-- Node3&#45;&gt;Node8 -->
<g id="edge5" class="edge">
<title>Node3&#45;&gt;Node8</title>
<path fill="none" stroke="#191970" d="M402.0134,-118.0906C420.0162,-107.4447 441.1838,-94.9274 455.3837,-86.5303"/>
<polygon fill="#191970" stroke="#191970" points="399.7673,-115.3526 392.9413,-123.4554 403.3304,-121.378 399.7673,-115.3526"/>
</g>
<!-- Node5 -->
<g id="node3" class="node">
<title>Node5</title>
<g id="a_node3"><a xlink:href="Factory_8cpp.html" target="_top" xlink:title="Domain/Factory/Factory.cpp">
<polygon fill="#ffffff" stroke="#000000" points="0,-6 0,-25 141,-25 141,-6 0,-6"/>
<text text-anchor="middle" x="70.5" y="-13" font-family="Helvetica,sans-Serif" font-size="10.00" fill="#000000">Domain/Factory/Factory.cpp</text>
</a>
</g>
</g>
<!-- Node4&#45;&gt;Node5 -->
<g id="edge2" class="edge">
<title>Node4&#45;&gt;Node5</title>
<path fill="none" stroke="#191970" d="M200.8689,-63.7993C169.4166,-52.1468 124.3222,-35.4402 96.2554,-25.0419"/>
<polygon fill="#191970" stroke="#191970" points="199.9694,-67.1985 210.5625,-67.3906 202.4013,-60.6345 199.9694,-67.1985"/>
</g>
<!-- Node6 -->
<g id="node4" class="node">
<title>Node6</title>
<g id="a_node4"><a xlink:href="StoreFactory_8cpp.html" target="_top" xlink:title="Domain/Store/StoreFactory.cpp">
<polygon fill="#ffffff" stroke="#000000" points="159,-6 159,-25 314,-25 314,-6 159,-6"/>
<text text-anchor="middle" x="236.5" y="-13" font-family="Helvetica,sans-Serif" font-size="10.00" fill="#000000">Domain/Store/StoreFactory.cpp</text>
</a>
</g>
</g>
<!-- Node4&#45;&gt;Node6 -->
<g id="edge3" class="edge">
<title>Node4&#45;&gt;Node6</title>
<path fill="none" stroke="#191970" d="M236.5,-57.2462C236.5,-46.5519 236.5,-33.814 236.5,-25.2449"/>
<polygon fill="#191970" stroke="#191970" points="233.0001,-57.3906 236.5,-67.3906 240.0001,-57.3907 233.0001,-57.3906"/>
</g>
<!-- Node8&#45;&gt;Node7 -->
<g id="edge6" class="edge">
<title>Node8&#45;&gt;Node7</title>
<path fill="none" stroke="#191970" d="M452.4916,-60.7637C441.5269,-51.398 427.8333,-39.7014 417.1132,-30.5446"/>
<polygon fill="#191970" stroke="#191970" points="450.373,-63.557 460.25,-67.3906 454.9195,-58.2344 450.373,-63.557"/>
</g>
<!-- Node9 -->
<g id="node7" class="node">
<title>Node9</title>
<g id="a_node7"><a xlink:href="UIFactory_8cpp.html" target="_top" xlink:title="UI/UIFactory.cpp">
<polygon fill="#ffffff" stroke="#000000" points="484.5,-6 484.5,-25 576.5,-25 576.5,-6 484.5,-6"/>
<text text-anchor="middle" x="530.5" y="-13" font-family="Helvetica,sans-Serif" font-size="10.00" fill="#000000">UI/UIFactory.cpp</text>
</a>
</g>
</g>
<!-- Node8&#45;&gt;Node9 -->
<g id="edge7" class="edge">
<title>Node8&#45;&gt;Node9</title>
<path fill="none" stroke="#191970" d="M487.9042,-59.9007C498.6239,-48.7268 512.2382,-34.5356 521.1513,-25.2449"/>
<polygon fill="#191970" stroke="#191970" points="485.116,-57.7514 480.7188,-67.3906 490.1673,-62.5974 485.116,-57.7514"/>
</g>
</g>
</svg>
