<?xml version="1.0" encoding="UTF-8" standalone="no"?>
<!DOCTYPE svg PUBLIC "-//W3C//DTD SVG 1.1//EN"
 "http://www.w3.org/Graphics/SVG/1.1/DTD/svg11.dtd">
<!-- Generated by graphviz version 2.40.1 (20161225.0304)
 -->
<!-- Title: TechnicalServices/TechnicalServicesFactory.h Pages: 1 -->
<svg width="310pt" height="106pt"
 viewBox="0.00 0.00 309.50 106.00" xmlns="http://www.w3.org/2000/svg" xmlns:xlink="http://www.w3.org/1999/xlink">
<g id="graph0" class="graph" transform="scale(1 1) rotate(0) translate(4 102)">
<title>TechnicalServices/TechnicalServicesFactory.h</title>
<polygon fill="#ffffff" stroke="transparent" points="-4,4 -4,-102 305.5,-102 305.5,4 -4,4"/>
<!-- Node4 -->
<g id="node1" class="node">
<title>Node4</title>
<polygon fill="#bfbfbf" stroke="#000000" points="79.5,-67.5 79.5,-97.5 221.5,-97.5 221.5,-67.5 79.5,-67.5"/>
<text text-anchor="start" x="87.5" y="-85.5" font-family="Helvetica,sans-Serif" font-size="10.00" fill="#000000">TechnicalServices/Technical</text>
<text text-anchor="middle" x="150.5" y="-74.5" font-family="Helvetica,sans-Serif" font-size="10.00" fill="#000000">ServicesFactory.h</text>
</g>
<!-- Node5 -->
<g id="node2" class="node">
<title>Node5</title>
<g id="a_node2"><a xlink:href="Factory_8cpp.html" target="_top" xlink:title="Domain/Factory/Factory.cpp">
<polygon fill="#ffffff" stroke="#000000" points="0,-6 0,-25 141,-25 141,-6 0,-6"/>
<text text-anchor="middle" x="70.5" y="-13" font-family="Helvetica,sans-Serif" font-size="10.00" fill="#000000">Domain/Factory/Factory.cpp</text>
</a>
</g>
</g>
<!-- Node4&#45;&gt;Node5 -->
<g id="edge1" class="edge">
<title>Node4&#45;&gt;Node5</title>
<path fill="none" stroke="#191970" d="M124.2798,-60.5406C109.9383,-48.5296 92.9044,-34.2637 81.9089,-25.055"/>
<polygon fill="#191970" stroke="#191970" points="122.433,-63.5592 132.3468,-67.2967 126.9275,-58.1927 122.433,-63.5592"/>
</g>
<!-- Node6 -->
<g id="node3" class="node">
<title>Node6</title>
<g id="a_node3"><a xlink:href="TechnicalServicesFactory_8cpp.html" target="_top" xlink:title="TechnicalServices/Technical\lServicesFactory.cpp">
<polygon fill="#ffffff" stroke="#000000" points="159.5,-.5 159.5,-30.5 301.5,-30.5 301.5,-.5 159.5,-.5"/>
<text text-anchor="start" x="167.5" y="-18.5" font-family="Helvetica,sans-Serif" font-size="10.00" fill="#000000">TechnicalServices/Technical</text>
<text text-anchor="middle" x="230.5" y="-7.5" font-family="Helvetica,sans-Serif" font-size="10.00" fill="#000000">ServicesFactory.cpp</text>
</a>
</g>
</g>
<!-- Node4&#45;&gt;Node6 -->
<g id="edge2" class="edge">
<title>Node4&#45;&gt;Node6</title>
<path fill="none" stroke="#191970" d="M176.4333,-60.7808C188.1856,-50.9383 201.7944,-39.541 212.4186,-30.6432"/>
<polygon fill="#191970" stroke="#191970" points="174.0725,-58.1927 168.6532,-67.2967 178.567,-63.5592 174.0725,-58.1927"/>
</g>
</g>
</svg>
