<?xml version="1.0" encoding="UTF-8" standalone="no"?>
<!DOCTYPE svg PUBLIC "-//W3C//DTD SVG 1.1//EN"
 "http://www.w3.org/Graphics/SVG/1.1/DTD/svg11.dtd">
<!-- Generated by graphviz version 2.40.1 (20161225.0304)
 -->
<!-- Title: UI/UIFactoryInterface.h Pages: 1 -->
<svg width="404pt" height="140pt"
 viewBox="0.00 0.00 403.50 140.00" xmlns="http://www.w3.org/2000/svg" xmlns:xlink="http://www.w3.org/1999/xlink">
<g id="graph0" class="graph" transform="scale(1 1) rotate(0) translate(4 136)">
<title>UI/UIFactoryInterface.h</title>
<polygon fill="#ffffff" stroke="transparent" points="-4,4 -4,-136 399.5,-136 399.5,4 -4,4"/>
<!-- Node3 -->
<g id="node1" class="node">
<title>Node3</title>
<polygon fill="#bfbfbf" stroke="#000000" points="120.5,-112.5 120.5,-131.5 240.5,-131.5 240.5,-112.5 120.5,-112.5"/>
<text text-anchor="middle" x="180.5" y="-119.5" font-family="Helvetica,sans-Serif" font-size="10.00" fill="#000000">UI/UIFactoryInterface.h</text>
</g>
<!-- Node4 -->
<g id="node2" class="node">
<title>Node4</title>
<g id="a_node2"><a xlink:href="main-console-client_8cpp.html" target="_top" xlink:title="main&#45;console&#45;client.cpp">
<polygon fill="#ffffff" stroke="#000000" points="0,-56.5 0,-75.5 119,-75.5 119,-56.5 0,-56.5"/>
<text text-anchor="middle" x="59.5" y="-63.5" font-family="Helvetica,sans-Serif" font-size="10.00" fill="#000000">main&#45;console&#45;client.cpp</text>
</a>
</g>
</g>
<!-- Node3&#45;&gt;Node4 -->
<g id="edge1" class="edge">
<title>Node3&#45;&gt;Node4</title>
<path fill="none" stroke="#191970" d="M150.4896,-108.1109C128.5475,-97.9559 99.3612,-84.4482 80.0292,-75.5011"/>
<polygon fill="#191970" stroke="#191970" points="149.1541,-111.3494 159.6994,-112.3733 152.0942,-104.9968 149.1541,-111.3494"/>
</g>
<!-- Node5 -->
<g id="node3" class="node">
<title>Node5</title>
<g id="a_node3"><a xlink:href="main-server_8cpp.html" target="_top" xlink:title="main&#45;server.cpp">
<polygon fill="#ffffff" stroke="#000000" points="137.5,-56.5 137.5,-75.5 223.5,-75.5 223.5,-56.5 137.5,-56.5"/>
<text text-anchor="middle" x="180.5" y="-63.5" font-family="Helvetica,sans-Serif" font-size="10.00" fill="#000000">main&#45;server.cpp</text>
</a>
</g>
</g>
<!-- Node3&#45;&gt;Node5 -->
<g id="edge2" class="edge">
<title>Node3&#45;&gt;Node5</title>
<path fill="none" stroke="#191970" d="M180.5,-102.1575C180.5,-93.155 180.5,-82.9199 180.5,-75.6427"/>
<polygon fill="#191970" stroke="#191970" points="177.0001,-102.2455 180.5,-112.2455 184.0001,-102.2456 177.0001,-102.2455"/>
</g>
<!-- Node6 -->
<g id="node4" class="node">
<title>Node6</title>
<g id="a_node4"><a xlink:href="UIFactory_8h.html" target="_top" xlink:title="UI/UIFactory.h">
<polygon fill="#ffffff" stroke="#000000" points="241.5,-56.5 241.5,-75.5 323.5,-75.5 323.5,-56.5 241.5,-56.5"/>
<text text-anchor="middle" x="282.5" y="-63.5" font-family="Helvetica,sans-Serif" font-size="10.00" fill="#000000">UI/UIFactory.h</text>
</a>
</g>
</g>
<!-- Node3&#45;&gt;Node6 -->
<g id="edge3" class="edge">
<title>Node3&#45;&gt;Node6</title>
<path fill="none" stroke="#191970" d="M207.234,-107.3225C225.4532,-97.3198 249.0598,-84.3593 264.9366,-75.6427"/>
<polygon fill="#191970" stroke="#191970" points="205.3484,-104.3649 198.267,-112.2455 208.7173,-110.5009 205.3484,-104.3649"/>
</g>
<!-- Node7 -->
<g id="node5" class="node">
<title>Node7</title>
<g id="a_node5"><a xlink:href="Factory_8cpp.html" target="_top" xlink:title="Domain/Factory/Factory.cpp">
<polygon fill="#ffffff" stroke="#000000" points="144,-.5 144,-19.5 285,-19.5 285,-.5 144,-.5"/>
<text text-anchor="middle" x="214.5" y="-7.5" font-family="Helvetica,sans-Serif" font-size="10.00" fill="#000000">Domain/Factory/Factory.cpp</text>
</a>
</g>
</g>
<!-- Node6&#45;&gt;Node7 -->
<g id="edge4" class="edge">
<title>Node6&#45;&gt;Node7</title>
<path fill="none" stroke="#191970" d="M262.6404,-49.645C250.8142,-39.9058 236.2108,-27.8795 226.209,-19.6427"/>
<polygon fill="#191970" stroke="#191970" points="260.711,-52.5902 270.6553,-56.2455 265.161,-47.1867 260.711,-52.5902"/>
</g>
<!-- Node8 -->
<g id="node6" class="node">
<title>Node8</title>
<g id="a_node6"><a xlink:href="UIFactory_8cpp.html" target="_top" xlink:title="UI/UIFactory.cpp">
<polygon fill="#ffffff" stroke="#000000" points="303.5,-.5 303.5,-19.5 395.5,-19.5 395.5,-.5 303.5,-.5"/>
<text text-anchor="middle" x="349.5" y="-7.5" font-family="Helvetica,sans-Serif" font-size="10.00" fill="#000000">UI/UIFactory.cpp</text>
</a>
</g>
</g>
<!-- Node6&#45;&gt;Node8 -->
<g id="edge5" class="edge">
<title>Node6&#45;&gt;Node8</title>
<path fill="none" stroke="#191970" d="M302.0676,-49.645C313.7198,-39.9058 328.1084,-27.8795 337.9632,-19.6427"/>
<polygon fill="#191970" stroke="#191970" points="299.5988,-47.1469 294.1705,-56.2455 304.0879,-52.5179 299.5988,-47.1469"/>
</g>
</g>
</svg>
