<?xml version="1.0" encoding="UTF-8" standalone="no"?>
<!DOCTYPE svg PUBLIC "-//W3C//DTD SVG 1.1//EN"
 "http://www.w3.org/Graphics/SVG/1.1/DTD/svg11.dtd">
<!-- Generated by graphviz version 2.40.1 (20161225.0304)
 -->
<!-- Title: UI/UIFactory.cpp Pages: 1 -->
<svg width="2270pt" height="218pt"
 viewBox="0.00 0.00 2270.21 218.00" xmlns="http://www.w3.org/2000/svg" xmlns:xlink="http://www.w3.org/1999/xlink">
<g id="graph0" class="graph" transform="scale(1 1) rotate(0) translate(4 214)">
<title>UI/UIFactory.cpp</title>
<polygon fill="#ffffff" stroke="transparent" points="-4,4 -4,-214 2266.2113,-214 2266.2113,4 -4,4"/>
<!-- Node0 -->
<g id="node1" class="node">
<title>Node0</title>
<polygon fill="#bfbfbf" stroke="#000000" points="417.2113,-190.5 417.2113,-209.5 509.2113,-209.5 509.2113,-190.5 417.2113,-190.5"/>
<text text-anchor="middle" x="463.2113" y="-197.5" font-family="Helvetica,sans-Serif" font-size="10.00" fill="#000000">UI/UIFactory.cpp</text>
</g>
<!-- Node1 -->
<g id="node2" class="node">
<title>Node1</title>
<g id="a_node2"><a xlink:href="UIFactory_8h.html" target="_top" xlink:title="Asteroids/UI/UIFactory.h">
<polygon fill="#ffffff" stroke="#000000" points="35.2113,-129 35.2113,-148 161.2113,-148 161.2113,-129 35.2113,-129"/>
<text text-anchor="middle" x="98.2113" y="-136" font-family="Helvetica,sans-Serif" font-size="10.00" fill="#000000">Asteroids/UI/UIFactory.h</text>
</a>
</g>
</g>
<!-- Node0&#45;&gt;Node1 -->
<g id="edge1" class="edge">
<title>Node0&#45;&gt;Node1</title>
<path fill="none" stroke="#191970" d="M416.9838,-192.211C353.2262,-181.4683 237.9144,-162.039 164.8492,-149.728"/>
<polygon fill="#191970" stroke="#191970" points="165.2721,-146.25 154.8296,-148.0398 164.109,-153.1527 165.2721,-146.25"/>
</g>
<!-- Node5 -->
<g id="node6" class="node">
<title>Node5</title>
<g id="a_node6"><a xlink:href="ServerTextUI_8h.html" target="_top" xlink:title="Asteroids/UI/ServerTextUI\l/ServerTextUI.h">
<polygon fill="#ffffff" stroke="#000000" points="396.7113,-123.5 396.7113,-153.5 529.7113,-153.5 529.7113,-123.5 396.7113,-123.5"/>
<text text-anchor="start" x="404.7113" y="-141.5" font-family="Helvetica,sans-Serif" font-size="10.00" fill="#000000">Asteroids/UI/ServerTextUI</text>
<text text-anchor="middle" x="463.2113" y="-130.5" font-family="Helvetica,sans-Serif" font-size="10.00" fill="#000000">/ServerTextUI.h</text>
</a>
</g>
</g>
<!-- Node0&#45;&gt;Node5 -->
<g id="edge6" class="edge">
<title>Node0&#45;&gt;Node5</title>
<path fill="none" stroke="#191970" d="M463.2113,-190.3906C463.2113,-183.2234 463.2113,-173.0862 463.2113,-163.671"/>
<polygon fill="#191970" stroke="#191970" points="466.7114,-163.5446 463.2113,-153.5446 459.7114,-163.5446 466.7114,-163.5446"/>
</g>
<!-- Node8 -->
<g id="node9" class="node">
<title>Node8</title>
<g id="a_node9"><a xlink:href="ClientTextUI_8h.html" target="_top" xlink:title="Asteroids/UI/ClientTextUI\l/ClientTextUI.h">
<polygon fill="#ffffff" stroke="#000000" points="1334.2113,-123.5 1334.2113,-153.5 1464.2113,-153.5 1464.2113,-123.5 1334.2113,-123.5"/>
<text text-anchor="start" x="1342.2113" y="-141.5" font-family="Helvetica,sans-Serif" font-size="10.00" fill="#000000">Asteroids/UI/ClientTextUI</text>
<text text-anchor="middle" x="1399.2113" y="-130.5" font-family="Helvetica,sans-Serif" font-size="10.00" fill="#000000">/ClientTextUI.h</text>
</a>
</g>
</g>
<!-- Node0&#45;&gt;Node8 -->
<g id="edge12" class="edge">
<title>Node0&#45;&gt;Node8</title>
<path fill="none" stroke="#191970" d="M509.3084,-196.9712C659.8089,-187.0825 1137.7698,-155.678 1323.9533,-143.4448"/>
<polygon fill="#191970" stroke="#191970" points="1324.4469,-146.92 1334.1959,-142.7718 1323.9879,-139.9351 1324.4469,-146.92"/>
</g>
<!-- Node2 -->
<g id="node3" class="node">
<title>Node2</title>
<g id="a_node3"><a xlink:href="ForwardDeclarations_8h.html" target="_top" xlink:title="Asteroids/ForwardDeclarations.h">
<polygon fill="#ffffff" stroke="#000000" points="795.7113,-.5 795.7113,-19.5 954.7113,-19.5 954.7113,-.5 795.7113,-.5"/>
<text text-anchor="middle" x="875.2113" y="-7.5" font-family="Helvetica,sans-Serif" font-size="10.00" fill="#000000">Asteroids/ForwardDeclarations.h</text>
</a>
</g>
</g>
<!-- Node1&#45;&gt;Node2 -->
<g id="edge2" class="edge">
<title>Node1&#45;&gt;Node2</title>
<path fill="none" stroke="#191970" d="M73.392,-128.9862C38.0807,-114.1422 -19.5695,-84.2376 7.2113,-56 33.6932,-28.0775 569.219,-15.4452 785.6351,-11.4661"/>
<polygon fill="#191970" stroke="#191970" points="785.7615,-14.9645 795.6961,-11.2831 785.6341,-7.9656 785.7615,-14.9645"/>
</g>
<!-- Node3 -->
<g id="node4" class="node">
<title>Node3</title>
<g id="a_node4"><a xlink:href="UIFactoryInterface_8h.html" target="_top" xlink:title="Asteroids/UI/UIFactoryInterface.h">
<polygon fill="#ffffff" stroke="#000000" points="16.2113,-62 16.2113,-81 180.2113,-81 180.2113,-62 16.2113,-62"/>
<text text-anchor="middle" x="98.2113" y="-69" font-family="Helvetica,sans-Serif" font-size="10.00" fill="#000000">Asteroids/UI/UIFactoryInterface.h</text>
</a>
</g>
</g>
<!-- Node1&#45;&gt;Node3 -->
<g id="edge3" class="edge">
<title>Node1&#45;&gt;Node3</title>
<path fill="none" stroke="#191970" d="M98.2113,-128.9005C98.2113,-119.149 98.2113,-103.7597 98.2113,-91.3695"/>
<polygon fill="#191970" stroke="#191970" points="101.7114,-91.0816 98.2113,-81.0817 94.7114,-91.0817 101.7114,-91.0816"/>
</g>
<!-- Node3&#45;&gt;Node2 -->
<g id="edge4" class="edge">
<title>Node3&#45;&gt;Node2</title>
<path fill="none" stroke="#191970" d="M148.6194,-61.9739C161.7922,-59.7428 176.0018,-57.5638 189.2113,-56 402.2147,-30.7844 654.1862,-18.3035 785.4729,-13.1035"/>
<polygon fill="#191970" stroke="#191970" points="785.6297,-16.6001 795.4852,-12.7118 785.356,-9.6055 785.6297,-16.6001"/>
</g>
<!-- Node4 -->
<g id="node5" class="node">
<title>Node4</title>
<polygon fill="#ffffff" stroke="#bfbfbf" points="1519.2113,-.5 1519.2113,-19.5 1571.2113,-19.5 1571.2113,-.5 1519.2113,-.5"/>
<text text-anchor="middle" x="1545.2113" y="-7.5" font-family="Helvetica,sans-Serif" font-size="10.00" fill="#000000">memory</text>
</g>
<!-- Node3&#45;&gt;Node4 -->
<g id="edge5" class="edge">
<title>Node3&#45;&gt;Node4</title>
<path fill="none" stroke="#191970" d="M146.6894,-61.9973C160.387,-59.652 175.34,-57.4101 189.2113,-56 456.0177,-28.8769 1321.0027,-13.6109 1508.9546,-10.5676"/>
<polygon fill="#191970" stroke="#191970" points="1509.1833,-14.0645 1519.1257,-10.4042 1509.0708,-7.0654 1509.1833,-14.0645"/>
</g>
<!-- Node5&#45;&gt;Node2 -->
<g id="edge7" class="edge">
<title>Node5&#45;&gt;Node2</title>
<path fill="none" stroke="#191970" d="M470.8087,-123.3586C481.3152,-104.1648 502.2016,-71.6906 530.2113,-56 572.6175,-32.2446 697.9767,-20.1798 785.2796,-14.4938"/>
<polygon fill="#191970" stroke="#191970" points="785.7047,-17.974 795.4631,-13.8481 785.2616,-10.988 785.7047,-17.974"/>
</g>
<!-- Node5&#45;&gt;Node4 -->
<g id="edge11" class="edge">
<title>Node5&#45;&gt;Node4</title>
<path fill="none" stroke="#191970" d="M529.8093,-130.4275C573.6756,-123.2472 631.4305,-110.16 678.2113,-87 697.7445,-77.3296 695.8893,-63.879 716.2113,-56 790.7763,-27.0907 1359.054,-13.7349 1509.0198,-10.6915"/>
<polygon fill="#191970" stroke="#191970" points="1509.1539,-14.1896 1519.0819,-10.4901 1509.0138,-7.191 1509.1539,-14.1896"/>
</g>
<!-- Node6 -->
<g id="node7" class="node">
<title>Node6</title>
<g id="a_node7"><a xlink:href="ServerTextUIInterface_8h.html" target="_top" xlink:title="Asteroids/UI/ServerTextUI\l/ServerTextUIInterface.h">
<polygon fill="#ffffff" stroke="#000000" points="349.7113,-56.5 349.7113,-86.5 482.7113,-86.5 482.7113,-56.5 349.7113,-56.5"/>
<text text-anchor="start" x="357.7113" y="-74.5" font-family="Helvetica,sans-Serif" font-size="10.00" fill="#000000">Asteroids/UI/ServerTextUI</text>
<text text-anchor="middle" x="416.2113" y="-63.5" font-family="Helvetica,sans-Serif" font-size="10.00" fill="#000000">/ServerTextUIInterface.h</text>
</a>
</g>
</g>
<!-- Node5&#45;&gt;Node6 -->
<g id="edge8" class="edge">
<title>Node5&#45;&gt;Node6</title>
<path fill="none" stroke="#191970" d="M452.5463,-123.2967C446.6572,-114.9016 439.2169,-104.2952 432.6051,-94.8698"/>
<polygon fill="#191970" stroke="#191970" points="435.4423,-92.8198 426.8341,-86.6432 429.7117,-96.8398 435.4423,-92.8198"/>
</g>
<!-- Node7 -->
<g id="node8" class="node">
<title>Node7</title>
<g id="a_node8"><a xlink:href="UI_2ServerTextUI_2Enums_2Enums_8h.html" target="_top" xlink:title="Asteroids/UI/ServerTextUI\l/Enums/Enums.h">
<polygon fill="#ffffff" stroke="#000000" points="198.7113,-56.5 198.7113,-86.5 331.7113,-86.5 331.7113,-56.5 198.7113,-56.5"/>
<text text-anchor="start" x="206.7113" y="-74.5" font-family="Helvetica,sans-Serif" font-size="10.00" fill="#000000">Asteroids/UI/ServerTextUI</text>
<text text-anchor="middle" x="265.2113" y="-63.5" font-family="Helvetica,sans-Serif" font-size="10.00" fill="#000000">/Enums/Enums.h</text>
</a>
</g>
</g>
<!-- Node5&#45;&gt;Node7 -->
<g id="edge10" class="edge">
<title>Node5&#45;&gt;Node7</title>
<path fill="none" stroke="#191970" d="M418.7762,-123.4639C389.4546,-113.5419 350.846,-100.4774 319.6773,-89.9304"/>
<polygon fill="#191970" stroke="#191970" points="320.4344,-86.4917 309.8402,-86.6017 318.1907,-93.1224 320.4344,-86.4917"/>
</g>
<!-- Node6&#45;&gt;Node2 -->
<g id="edge9" class="edge">
<title>Node6&#45;&gt;Node2</title>
<path fill="none" stroke="#191970" d="M482.8938,-58.3676C487.7326,-57.529 492.5432,-56.7298 497.2113,-56 595.3507,-40.6568 708.5041,-27.478 785.2394,-19.2084"/>
<polygon fill="#191970" stroke="#191970" points="785.7804,-22.6706 795.3503,-18.1245 785.0342,-15.7105 785.7804,-22.6706"/>
</g>
<!-- Node8&#45;&gt;Node2 -->
<g id="edge13" class="edge">
<title>Node8&#45;&gt;Node2</title>
<path fill="none" stroke="#191970" d="M1333.8717,-135.9848C1204.8037,-130.4245 926.7697,-115.2836 894.2113,-87 878.0189,-72.9336 874.4975,-47.4747 874.2221,-29.6966"/>
<polygon fill="#191970" stroke="#191970" points="877.7239,-29.6141 874.3974,-19.555 870.725,-29.493 877.7239,-29.6141"/>
</g>
<!-- Node8&#45;&gt;Node4 -->
<g id="edge42" class="edge">
<title>Node8&#45;&gt;Node4</title>
<path fill="none" stroke="#191970" d="M1464.5485,-133.6864C1562.5875,-125.7918 1738.3481,-108.7709 1757.2113,-87 1807.8021,-28.6107 1654.4927,-14.4863 1581.522,-11.0789"/>
<polygon fill="#191970" stroke="#191970" points="1581.5115,-7.5754 1571.3726,-10.65 1581.2159,-14.5692 1581.5115,-7.5754"/>
</g>
<!-- Node9 -->
<g id="node10" class="node">
<title>Node9</title>
<g id="a_node10"><a xlink:href="ClientTextUIInterface_8h.html" target="_top" xlink:title="Asteroids/UI/ClientTextUI\l/ClientTextUIInterface.h">
<polygon fill="#ffffff" stroke="#000000" points="539.2113,-56.5 539.2113,-86.5 669.2113,-86.5 669.2113,-56.5 539.2113,-56.5"/>
<text text-anchor="start" x="547.2113" y="-74.5" font-family="Helvetica,sans-Serif" font-size="10.00" fill="#000000">Asteroids/UI/ClientTextUI</text>
<text text-anchor="middle" x="604.2113" y="-63.5" font-family="Helvetica,sans-Serif" font-size="10.00" fill="#000000">/ClientTextUIInterface.h</text>
</a>
</g>
</g>
<!-- Node8&#45;&gt;Node9 -->
<g id="edge14" class="edge">
<title>Node8&#45;&gt;Node9</title>
<path fill="none" stroke="#191970" d="M1334.1097,-134.9448C1212.5004,-128.0031 942.6422,-111.1812 716.2113,-87 704.317,-85.7298 691.7392,-84.186 679.4772,-82.5709"/>
<polygon fill="#191970" stroke="#191970" points="679.65,-79.0628 669.2734,-81.2019 678.7191,-86.0007 679.65,-79.0628"/>
</g>
<!-- Node10 -->
<g id="node11" class="node">
<title>Node10</title>
<g id="a_node11"><a xlink:href="UI_2ClientTextUI_2Defines_8h.html" target="_top" xlink:title="Asteroids/UI/ClientTextUI\l/Defines.h">
<polygon fill="#ffffff" stroke="#000000" points="1037.2113,-56.5 1037.2113,-86.5 1167.2113,-86.5 1167.2113,-56.5 1037.2113,-56.5"/>
<text text-anchor="start" x="1045.2113" y="-74.5" font-family="Helvetica,sans-Serif" font-size="10.00" fill="#000000">Asteroids/UI/ClientTextUI</text>
<text text-anchor="middle" x="1102.2113" y="-63.5" font-family="Helvetica,sans-Serif" font-size="10.00" fill="#000000">/Defines.h</text>
</a>
</g>
</g>
<!-- Node8&#45;&gt;Node10 -->
<g id="edge16" class="edge">
<title>Node8&#45;&gt;Node10</title>
<path fill="none" stroke="#191970" d="M1334.0334,-123.7966C1287.706,-113.3456 1225.3821,-99.286 1177.0233,-88.3768"/>
<polygon fill="#191970" stroke="#191970" points="1177.7623,-84.9556 1167.2372,-86.1691 1176.2218,-91.784 1177.7623,-84.9556"/>
</g>
<!-- Node11 -->
<g id="node12" class="node">
<title>Node11</title>
<g id="a_node12"><a xlink:href="UI_2ClientTextUI_2Enums_2Enums_8h.html" target="_top" xlink:title="Asteroids/UI/ClientTextUI\l/Enums/Enums.h">
<polygon fill="#ffffff" stroke="#000000" points="1185.2113,-56.5 1185.2113,-86.5 1315.2113,-86.5 1315.2113,-56.5 1185.2113,-56.5"/>
<text text-anchor="start" x="1193.2113" y="-74.5" font-family="Helvetica,sans-Serif" font-size="10.00" fill="#000000">Asteroids/UI/ClientTextUI</text>
<text text-anchor="middle" x="1250.2113" y="-63.5" font-family="Helvetica,sans-Serif" font-size="10.00" fill="#000000">/Enums/Enums.h</text>
</a>
</g>
</g>
<!-- Node8&#45;&gt;Node11 -->
<g id="edge17" class="edge">
<title>Node8&#45;&gt;Node11</title>
<path fill="none" stroke="#191970" d="M1365.7728,-123.4639C1344.2806,-113.7996 1316.1582,-101.154 1293.0371,-90.7572"/>
<polygon fill="#191970" stroke="#191970" points="1294.3514,-87.5107 1283.7957,-86.6017 1291.4806,-93.895 1294.3514,-87.5107"/>
</g>
<!-- Node12 -->
<g id="node13" class="node">
<title>Node12</title>
<g id="a_node13"><a xlink:href="Input_8h.html" target="_top" xlink:title="Asteroids/UI/ClientTextUI\l/Input.h">
<polygon fill="#ffffff" stroke="#000000" points="2132.2113,-56.5 2132.2113,-86.5 2262.2113,-86.5 2262.2113,-56.5 2132.2113,-56.5"/>
<text text-anchor="start" x="2140.2113" y="-74.5" font-family="Helvetica,sans-Serif" font-size="10.00" fill="#000000">Asteroids/UI/ClientTextUI</text>
<text text-anchor="middle" x="2197.2113" y="-63.5" font-family="Helvetica,sans-Serif" font-size="10.00" fill="#000000">/Input.h</text>
</a>
</g>
</g>
<!-- Node8&#45;&gt;Node12 -->
<g id="edge18" class="edge">
<title>Node8&#45;&gt;Node12</title>
<path fill="none" stroke="#191970" d="M1464.4222,-136.4985C1590.971,-132.025 1878.4901,-118.9803 2118.2113,-87 2119.3196,-86.8521 2120.4358,-86.6984 2121.5583,-86.5393"/>
<polygon fill="#191970" stroke="#191970" points="2122.4322,-89.9464 2131.7885,-84.9755 2121.3745,-83.0268 2122.4322,-89.9464"/>
</g>
<!-- Node15 -->
<g id="node16" class="node">
<title>Node15</title>
<g id="a_node16"><a xlink:href="DisplayGrid_8h.html" target="_top" xlink:title="Asteroids/UI/ClientTextUI\l/DisplayGrid.h">
<polygon fill="#ffffff" stroke="#000000" points="1946.2113,-56.5 1946.2113,-86.5 2076.2113,-86.5 2076.2113,-56.5 1946.2113,-56.5"/>
<text text-anchor="start" x="1954.2113" y="-74.5" font-family="Helvetica,sans-Serif" font-size="10.00" fill="#000000">Asteroids/UI/ClientTextUI</text>
<text text-anchor="middle" x="2011.2113" y="-63.5" font-family="Helvetica,sans-Serif" font-size="10.00" fill="#000000">/DisplayGrid.h</text>
</a>
</g>
</g>
<!-- Node8&#45;&gt;Node15 -->
<g id="edge21" class="edge">
<title>Node8&#45;&gt;Node15</title>
<path fill="none" stroke="#191970" d="M1464.5083,-134.5973C1564.1467,-128.1238 1760.2386,-113.3482 1935.9686,-87.0894"/>
<polygon fill="#191970" stroke="#191970" points="1936.5475,-90.5418 1945.9128,-85.5878 1935.5022,-83.6202 1936.5475,-90.5418"/>
</g>
<!-- Node16 -->
<g id="node17" class="node">
<title>Node16</title>
<polygon fill="#ffffff" stroke="#bfbfbf" points="2067.7113,-.5 2067.7113,-19.5 2108.7113,-19.5 2108.7113,-.5 2067.7113,-.5"/>
<text text-anchor="middle" x="2088.2113" y="-7.5" font-family="Helvetica,sans-Serif" font-size="10.00" fill="#000000">string</text>
</g>
<!-- Node8&#45;&gt;Node16 -->
<g id="edge43" class="edge">
<title>Node8&#45;&gt;Node16</title>
<path fill="none" stroke="#191970" d="M1464.443,-135.9319C1631.6237,-129.0417 2063.834,-109.1609 2085.2113,-87 2099.6716,-72.0096 2097.6533,-46.7736 2093.8513,-29.298"/>
<polygon fill="#191970" stroke="#191970" points="2097.2375,-28.4124 2091.3848,-19.5808 2090.4527,-30.1346 2097.2375,-28.4124"/>
</g>
<!-- Node17 -->
<g id="node18" class="node">
<title>Node17</title>
<g id="a_node18"><a xlink:href="FactoryInterface_8h.html" target="_top" xlink:title="Asteroids/Domain/Factory\l/FactoryInterface.h">
<polygon fill="#ffffff" stroke="#000000" points="1333.7113,-56.5 1333.7113,-86.5 1464.7113,-86.5 1464.7113,-56.5 1333.7113,-56.5"/>
<text text-anchor="start" x="1341.7113" y="-74.5" font-family="Helvetica,sans-Serif" font-size="10.00" fill="#000000">Asteroids/Domain/Factory</text>
<text text-anchor="middle" x="1399.2113" y="-63.5" font-family="Helvetica,sans-Serif" font-size="10.00" fill="#000000">/FactoryInterface.h</text>
</a>
</g>
</g>
<!-- Node8&#45;&gt;Node17 -->
<g id="edge26" class="edge">
<title>Node8&#45;&gt;Node17</title>
<path fill="none" stroke="#191970" d="M1399.2113,-123.2967C1399.2113,-115.5013 1399.2113,-105.7991 1399.2113,-96.9064"/>
<polygon fill="#191970" stroke="#191970" points="1402.7114,-96.6431 1399.2113,-86.6432 1395.7114,-96.6432 1402.7114,-96.6431"/>
</g>
<!-- Node18 -->
<g id="node19" class="node">
<title>Node18</title>
<g id="a_node19"><a xlink:href="GameFactoryInterface_8h.html" target="_top" xlink:title="Asteroids/Domain/Game\l/GameFactoryInterface.h">
<polygon fill="#ffffff" stroke="#000000" points="1482.7113,-56.5 1482.7113,-86.5 1607.7113,-86.5 1607.7113,-56.5 1482.7113,-56.5"/>
<text text-anchor="start" x="1490.7113" y="-74.5" font-family="Helvetica,sans-Serif" font-size="10.00" fill="#000000">Asteroids/Domain/Game</text>
<text text-anchor="middle" x="1545.2113" y="-63.5" font-family="Helvetica,sans-Serif" font-size="10.00" fill="#000000">/GameFactoryInterface.h</text>
</a>
</g>
</g>
<!-- Node8&#45;&gt;Node18 -->
<g id="edge29" class="edge">
<title>Node8&#45;&gt;Node18</title>
<path fill="none" stroke="#191970" d="M1431.9766,-123.4639C1452.9424,-113.8426 1480.3474,-101.2663 1502.9454,-90.896"/>
<polygon fill="#191970" stroke="#191970" points="1504.6743,-93.9536 1512.3031,-86.6017 1501.7546,-87.5915 1504.6743,-93.9536"/>
</g>
<!-- Node19 -->
<g id="node20" class="node">
<title>Node19</title>
<g id="a_node20"><a xlink:href="GameInterface_8h.html" target="_top" xlink:title="Asteroids/Domain/Game\l/GameInterface.h">
<polygon fill="#ffffff" stroke="#000000" points="1804.2113,-56.5 1804.2113,-86.5 1928.2113,-86.5 1928.2113,-56.5 1804.2113,-56.5"/>
<text text-anchor="start" x="1812.2113" y="-74.5" font-family="Helvetica,sans-Serif" font-size="10.00" fill="#000000">Asteroids/Domain/Game</text>
<text text-anchor="middle" x="1866.2113" y="-63.5" font-family="Helvetica,sans-Serif" font-size="10.00" fill="#000000">/GameInterface.h</text>
</a>
</g>
</g>
<!-- Node8&#45;&gt;Node19 -->
<g id="edge32" class="edge">
<title>Node8&#45;&gt;Node19</title>
<path fill="none" stroke="#191970" d="M1464.4519,-131.3266C1542.2456,-122.4454 1676.092,-106.1284 1790.2113,-87 1791.4813,-86.7871 1792.7624,-86.5685 1794.0521,-86.3449"/>
<polygon fill="#191970" stroke="#191970" points="1794.8412,-89.7593 1804.064,-84.5449 1793.6025,-82.8697 1794.8412,-89.7593"/>
</g>
<!-- Node20 -->
<g id="node21" class="node">
<title>Node20</title>
<g id="a_node21"><a xlink:href="NetFactoryInterface_8h.html" target="_top" xlink:title="Asteroids/Domain/Net\l/NetFactoryInterface.h">
<polygon fill="#ffffff" stroke="#000000" points="903.7113,-56.5 903.7113,-86.5 1018.7113,-86.5 1018.7113,-56.5 903.7113,-56.5"/>
<text text-anchor="start" x="911.7113" y="-74.5" font-family="Helvetica,sans-Serif" font-size="10.00" fill="#000000">Asteroids/Domain/Net</text>
<text text-anchor="middle" x="961.2113" y="-63.5" font-family="Helvetica,sans-Serif" font-size="10.00" fill="#000000">/NetFactoryInterface.h</text>
</a>
</g>
</g>
<!-- Node8&#45;&gt;Node20 -->
<g id="edge35" class="edge">
<title>Node8&#45;&gt;Node20</title>
<path fill="none" stroke="#191970" d="M1333.9202,-131.2279C1261.6979,-122.7809 1141.7156,-107.5577 1028.745,-86.9987"/>
<polygon fill="#191970" stroke="#191970" points="1029.3543,-83.5522 1018.8864,-85.1876 1028.0894,-90.437 1029.3543,-83.5522"/>
</g>
<!-- Node21 -->
<g id="node22" class="node">
<title>Node21</title>
<g id="a_node22"><a xlink:href="Domain_2Store_2Enums_2Enums_8h.html" target="_top" xlink:title="Asteroids/Domain/Store\l/Enums/Enums.h">
<polygon fill="#ffffff" stroke="#000000" points="725.7113,-56.5 725.7113,-86.5 846.7113,-86.5 846.7113,-56.5 725.7113,-56.5"/>
<text text-anchor="start" x="733.7113" y="-74.5" font-family="Helvetica,sans-Serif" font-size="10.00" fill="#000000">Asteroids/Domain/Store</text>
<text text-anchor="middle" x="786.2113" y="-63.5" font-family="Helvetica,sans-Serif" font-size="10.00" fill="#000000">/Enums/Enums.h</text>
</a>
</g>
</g>
<!-- Node8&#45;&gt;Node21 -->
<g id="edge38" class="edge">
<title>Node8&#45;&gt;Node21</title>
<path fill="none" stroke="#191970" d="M1333.9228,-134.5415C1232.4119,-127.8716 1030.7695,-112.5596 861.2113,-87 859.9171,-86.8049 858.6115,-86.6019 857.2974,-86.3919"/>
<polygon fill="#191970" stroke="#191970" points="857.5459,-82.884 847.1008,-84.6592 856.3731,-89.7851 857.5459,-82.884"/>
</g>
<!-- Node22 -->
<g id="node23" class="node">
<title>Node22</title>
<g id="a_node23"><a xlink:href="StoreFactoryInterface_8h.html" target="_top" xlink:title="Asteroids/Domain/Store\l/StoreFactoryInterface.h">
<polygon fill="#ffffff" stroke="#000000" points="1626.2113,-56.5 1626.2113,-86.5 1748.2113,-86.5 1748.2113,-56.5 1626.2113,-56.5"/>
<text text-anchor="start" x="1634.2113" y="-74.5" font-family="Helvetica,sans-Serif" font-size="10.00" fill="#000000">Asteroids/Domain/Store</text>
<text text-anchor="middle" x="1687.2113" y="-63.5" font-family="Helvetica,sans-Serif" font-size="10.00" fill="#000000">/StoreFactoryInterface.h</text>
</a>
</g>
</g>
<!-- Node8&#45;&gt;Node22 -->
<g id="edge39" class="edge">
<title>Node8&#45;&gt;Node22</title>
<path fill="none" stroke="#191970" d="M1463.8441,-123.4639C1508.9601,-112.9682 1569.1917,-98.9559 1615.7397,-88.1271"/>
<polygon fill="#191970" stroke="#191970" points="1616.8069,-91.4723 1625.7538,-85.7974 1615.2208,-84.6544 1616.8069,-91.4723"/>
</g>
<!-- Node9&#45;&gt;Node2 -->
<g id="edge15" class="edge">
<title>Node9&#45;&gt;Node2</title>
<path fill="none" stroke="#191970" d="M669.4674,-56.691C716.69,-45.9744 779.6456,-31.6874 823.4274,-21.7517"/>
<polygon fill="#191970" stroke="#191970" points="824.3156,-25.1392 833.293,-19.5128 822.7663,-18.3128 824.3156,-25.1392"/>
</g>
<!-- Node13 -->
<g id="node14" class="node">
<title>Node13</title>
<polygon fill="#ffffff" stroke="#bfbfbf" points="1989.2113,-.5 1989.2113,-19.5 2033.2113,-19.5 2033.2113,-.5 1989.2113,-.5"/>
<text text-anchor="middle" x="2011.2113" y="-7.5" font-family="Helvetica,sans-Serif" font-size="10.00" fill="#000000">vector</text>
</g>
<!-- Node12&#45;&gt;Node13 -->
<g id="edge19" class="edge">
<title>Node12&#45;&gt;Node13</title>
<path fill="none" stroke="#191970" d="M2151.7106,-56.4554C2118.0847,-45.3372 2073.1342,-30.4745 2043.2291,-20.5865"/>
<polygon fill="#191970" stroke="#191970" points="2044.2955,-17.2528 2033.7022,-17.4365 2042.0979,-23.8989 2044.2955,-17.2528"/>
</g>
<!-- Node14 -->
<g id="node15" class="node">
<title>Node14</title>
<polygon fill="#ffffff" stroke="#bfbfbf" points="2173.2113,-.5 2173.2113,-19.5 2221.2113,-19.5 2221.2113,-.5 2173.2113,-.5"/>
<text text-anchor="middle" x="2197.2113" y="-7.5" font-family="Helvetica,sans-Serif" font-size="10.00" fill="#000000">conio.h</text>
</g>
<!-- Node12&#45;&gt;Node14 -->
<g id="edge20" class="edge">
<title>Node12&#45;&gt;Node14</title>
<path fill="none" stroke="#191970" d="M2197.2113,-56.2977C2197.2113,-48.3834 2197.2113,-38.6043 2197.2113,-30.0759"/>
<polygon fill="#191970" stroke="#191970" points="2200.7114,-29.8469 2197.2113,-19.8469 2193.7114,-29.847 2200.7114,-29.8469"/>
</g>
<!-- Node15&#45;&gt;Node2 -->
<g id="edge22" class="edge">
<title>Node15&#45;&gt;Node2</title>
<path fill="none" stroke="#191970" d="M1945.9387,-57.2253C1942.9958,-56.772 1940.0765,-56.3597 1937.2113,-56 1750.315,-32.5381 1186.2098,-17.2443 965.3073,-12.0102"/>
<polygon fill="#191970" stroke="#191970" points="965.1301,-8.5052 955.0505,-11.7686 964.9652,-15.5033 965.1301,-8.5052"/>
</g>
<!-- Node15&#45;&gt;Node4 -->
<g id="edge25" class="edge">
<title>Node15&#45;&gt;Node4</title>
<path fill="none" stroke="#191970" d="M1945.9007,-57.4887C1942.9681,-56.9641 1940.0614,-56.4648 1937.2113,-56 1806.949,-34.7586 1650.7946,-19.4406 1581.4508,-13.1572"/>
<polygon fill="#191970" stroke="#191970" points="1581.7461,-9.6697 1571.4731,-12.2614 1581.1201,-16.6417 1581.7461,-9.6697"/>
</g>
<!-- Node15&#45;&gt;Node13 -->
<g id="edge23" class="edge">
<title>Node15&#45;&gt;Node13</title>
<path fill="none" stroke="#191970" d="M2011.2113,-56.2977C2011.2113,-48.3834 2011.2113,-38.6043 2011.2113,-30.0759"/>
<polygon fill="#191970" stroke="#191970" points="2014.7114,-29.8469 2011.2113,-19.8469 2007.7114,-29.847 2014.7114,-29.8469"/>
</g>
<!-- Node15&#45;&gt;Node16 -->
<g id="edge24" class="edge">
<title>Node15&#45;&gt;Node16</title>
<path fill="none" stroke="#191970" d="M2030.245,-56.2977C2041.7128,-47.1384 2056.3075,-35.4816 2067.9832,-26.1562"/>
<polygon fill="#191970" stroke="#191970" points="2070.2532,-28.8225 2075.8826,-19.8469 2065.8847,-23.3529 2070.2532,-28.8225"/>
</g>
<!-- Node17&#45;&gt;Node2 -->
<g id="edge27" class="edge">
<title>Node17&#45;&gt;Node2</title>
<path fill="none" stroke="#191970" d="M1333.4298,-57.5107C1330.3184,-56.9732 1327.2337,-56.4659 1324.2113,-56 1200.2983,-36.8989 1055.8835,-23.7053 964.9992,-16.4962"/>
<polygon fill="#191970" stroke="#191970" points="965.2513,-13.0053 955.0078,-15.7107 964.7027,-19.9838 965.2513,-13.0053"/>
</g>
<!-- Node17&#45;&gt;Node4 -->
<g id="edge28" class="edge">
<title>Node17&#45;&gt;Node4</title>
<path fill="none" stroke="#191970" d="M1434.9269,-56.4554C1458.86,-46.374 1490.1018,-33.2139 1513.2207,-23.4755"/>
<polygon fill="#191970" stroke="#191970" points="1514.7294,-26.6379 1522.5865,-19.5303 1512.012,-20.1868 1514.7294,-26.6379"/>
</g>
<!-- Node18&#45;&gt;Node2 -->
<g id="edge30" class="edge">
<title>Node18&#45;&gt;Node2</title>
<path fill="none" stroke="#191970" d="M1482.5777,-57.3345C1479.7561,-56.8516 1476.9575,-56.4032 1474.2113,-56 1294.7274,-29.6459 1082.6296,-17.8687 965.0858,-13.0261"/>
<polygon fill="#191970" stroke="#191970" points="965.1856,-9.5273 955.0522,-12.6201 964.9025,-16.5216 965.1856,-9.5273"/>
</g>
<!-- Node18&#45;&gt;Node4 -->
<g id="edge31" class="edge">
<title>Node18&#45;&gt;Node4</title>
<path fill="none" stroke="#191970" d="M1545.2113,-56.2977C1545.2113,-48.3834 1545.2113,-38.6043 1545.2113,-30.0759"/>
<polygon fill="#191970" stroke="#191970" points="1548.7114,-29.8469 1545.2113,-19.8469 1541.7114,-29.847 1548.7114,-29.8469"/>
</g>
<!-- Node19&#45;&gt;Node4 -->
<g id="edge34" class="edge">
<title>Node19&#45;&gt;Node4</title>
<path fill="none" stroke="#191970" d="M1804.0136,-58.7327C1799.3446,-57.7995 1794.7044,-56.8799 1790.2113,-56 1716.0216,-41.4708 1629.0054,-25.3518 1581.2105,-16.5775"/>
<polygon fill="#191970" stroke="#191970" points="1581.8109,-13.1293 1571.3436,-14.7682 1580.5483,-20.0145 1581.8109,-13.1293"/>
</g>
<!-- Node19&#45;&gt;Node13 -->
<g id="edge33" class="edge">
<title>Node19&#45;&gt;Node13</title>
<path fill="none" stroke="#191970" d="M1901.6823,-56.4554C1925.5982,-46.3118 1956.8626,-33.0513 1979.8641,-23.2955"/>
<polygon fill="#191970" stroke="#191970" points="1981.3309,-26.4753 1989.1704,-19.3484 1978.5976,-20.0309 1981.3309,-26.4753"/>
</g>
<!-- Node20&#45;&gt;Node2 -->
<g id="edge36" class="edge">
<title>Node20&#45;&gt;Node2</title>
<path fill="none" stroke="#191970" d="M939.9529,-56.2977C926.9395,-46.9917 910.321,-35.1075 897.1796,-25.7099"/>
<polygon fill="#191970" stroke="#191970" points="898.8942,-22.6332 888.7242,-19.6633 894.8224,-28.3271 898.8942,-22.6332"/>
</g>
<!-- Node20&#45;&gt;Node4 -->
<g id="edge37" class="edge">
<title>Node20&#45;&gt;Node4</title>
<path fill="none" stroke="#191970" d="M1018.8551,-57.6302C1022.0119,-57.0377 1025.1458,-56.4886 1028.2113,-56 1207.209,-27.4729 1424.1003,-15.3759 1508.8286,-11.5016"/>
<polygon fill="#191970" stroke="#191970" points="1509.1277,-14.9918 1518.9615,-11.0489 1508.8153,-7.9988 1509.1277,-14.9918"/>
</g>
<!-- Node22&#45;&gt;Node2 -->
<g id="edge40" class="edge">
<title>Node22&#45;&gt;Node2</title>
<path fill="none" stroke="#191970" d="M1625.8499,-57.345C1622.9367,-56.8519 1620.0462,-56.3992 1617.2113,-56 1493.7648,-38.6145 1134.1097,-21.2737 965.0277,-13.8099"/>
<polygon fill="#191970" stroke="#191970" points="965.0518,-10.3077 954.9077,-13.3649 964.7443,-17.3009 965.0518,-10.3077"/>
</g>
<!-- Node22&#45;&gt;Node4 -->
<g id="edge41" class="edge">
<title>Node22&#45;&gt;Node4</title>
<path fill="none" stroke="#191970" d="M1652.4742,-56.4554C1629.3007,-46.419 1599.0821,-33.3314 1576.6271,-23.6061"/>
<polygon fill="#191970" stroke="#191970" points="1577.7836,-20.2929 1567.2163,-19.5303 1575.0016,-26.7164 1577.7836,-20.2929"/>
</g>
</g>
</svg>
