<?xml version="1.0" encoding="UTF-8" standalone="no"?>
<!DOCTYPE svg PUBLIC "-//W3C//DTD SVG 1.1//EN"
 "http://www.w3.org/Graphics/SVG/1.1/DTD/svg11.dtd">
<!-- Generated by graphviz version 2.40.1 (20161225.0304)
 -->
<!-- Title: Domain/Game/Actors/Vector.h Pages: 1 -->
<svg width="782pt" height="307pt"
 viewBox="0.00 0.00 782.00 307.00" xmlns="http://www.w3.org/2000/svg" xmlns:xlink="http://www.w3.org/1999/xlink">
<g id="graph0" class="graph" transform="scale(1 1) rotate(0) translate(4 303)">
<title>Domain/Game/Actors/Vector.h</title>
<polygon fill="#ffffff" stroke="transparent" points="-4,4 -4,-303 778,-303 778,4 -4,4"/>
<!-- Node3 -->
<g id="node1" class="node">
<title>Node3</title>
<polygon fill="#bfbfbf" stroke="#000000" points="129,-268.5 129,-298.5 240,-298.5 240,-268.5 129,-268.5"/>
<text text-anchor="start" x="137" y="-286.5" font-family="Helvetica,sans-Serif" font-size="10.00" fill="#000000">Domain/Game/Actors</text>
<text text-anchor="middle" x="184.5" y="-275.5" font-family="Helvetica,sans-Serif" font-size="10.00" fill="#000000">/Vector.h</text>
</g>
<!-- Node4 -->
<g id="node2" class="node">
<title>Node4</title>
<g id="a_node2"><a xlink:href="Actor_8cpp.html" target="_top" xlink:title="Domain/Game/Actors\l/Actor.cpp">
<polygon fill="#ffffff" stroke="#000000" points="0,-67.5 0,-97.5 111,-97.5 111,-67.5 0,-67.5"/>
<text text-anchor="start" x="8" y="-85.5" font-family="Helvetica,sans-Serif" font-size="10.00" fill="#000000">Domain/Game/Actors</text>
<text text-anchor="middle" x="55.5" y="-74.5" font-family="Helvetica,sans-Serif" font-size="10.00" fill="#000000">/Actor.cpp</text>
</a>
</g>
</g>
<!-- Node3&#45;&gt;Node4 -->
<g id="edge1" class="edge">
<title>Node3&#45;&gt;Node4</title>
<path fill="none" stroke="#191970" d="M151.7535,-262.3994C140.4743,-253.9595 128.4436,-243.5029 119.5,-232 86.2268,-189.2055 66.8634,-126.509 59.2613,-97.8354"/>
<polygon fill="#191970" stroke="#191970" points="150.0049,-265.4528 160.1687,-268.4443 154.0888,-259.7675 150.0049,-265.4528"/>
</g>
<!-- Node5 -->
<g id="node3" class="node">
<title>Node5</title>
<g id="a_node3"><a xlink:href="Actor_8h.html" target="_top" xlink:title="Domain/Game/Actors\l/Actor.h">
<polygon fill="#ffffff" stroke="#000000" points="129,-201.5 129,-231.5 240,-231.5 240,-201.5 129,-201.5"/>
<text text-anchor="start" x="137" y="-219.5" font-family="Helvetica,sans-Serif" font-size="10.00" fill="#000000">Domain/Game/Actors</text>
<text text-anchor="middle" x="184.5" y="-208.5" font-family="Helvetica,sans-Serif" font-size="10.00" fill="#000000">/Actor.h</text>
</a>
</g>
</g>
<!-- Node3&#45;&gt;Node5 -->
<g id="edge2" class="edge">
<title>Node3&#45;&gt;Node5</title>
<path fill="none" stroke="#191970" d="M184.5,-258.0249C184.5,-249.128 184.5,-239.4287 184.5,-231.6432"/>
<polygon fill="#191970" stroke="#191970" points="181.0001,-258.2966 184.5,-268.2967 188.0001,-258.2967 181.0001,-258.2966"/>
</g>
<!-- Node15 -->
<g id="node13" class="node">
<title>Node15</title>
<g id="a_node13"><a xlink:href="Vector_8cpp.html" target="_top" xlink:title="Domain/Game/Actors\l/Vector.cpp">
<polygon fill="#ffffff" stroke="#000000" points="258,-201.5 258,-231.5 369,-231.5 369,-201.5 258,-201.5"/>
<text text-anchor="start" x="266" y="-219.5" font-family="Helvetica,sans-Serif" font-size="10.00" fill="#000000">Domain/Game/Actors</text>
<text text-anchor="middle" x="313.5" y="-208.5" font-family="Helvetica,sans-Serif" font-size="10.00" fill="#000000">/Vector.cpp</text>
</a>
</g>
</g>
<!-- Node3&#45;&gt;Node15 -->
<g id="edge16" class="edge">
<title>Node3&#45;&gt;Node15</title>
<path fill="none" stroke="#191970" d="M222.4793,-263.7743C242.1967,-253.5335 265.9179,-241.2132 284.2002,-231.7177"/>
<polygon fill="#191970" stroke="#191970" points="220.7113,-260.7486 213.4501,-268.4639 223.9378,-266.9607 220.7113,-260.7486"/>
</g>
<!-- Node5&#45;&gt;Node4 -->
<g id="edge3" class="edge">
<title>Node5&#45;&gt;Node4</title>
<path fill="none" stroke="#191970" d="M154.8326,-195.4028C143.2789,-186.5845 130.2581,-175.8689 119.5,-165 98.2039,-143.4845 77.4572,-114.9319 65.6057,-97.6794"/>
<polygon fill="#191970" stroke="#191970" points="152.8293,-198.2751 162.933,-201.4636 157.023,-192.6703 152.8293,-198.2751"/>
</g>
<!-- Node6 -->
<g id="node4" class="node">
<title>Node6</title>
<g id="a_node4"><a xlink:href="Bullet_8h.html" target="_top" xlink:title="Domain/Game/Actors\l/Bullet.h">
<polygon fill="#ffffff" stroke="#000000" points="129,-134.5 129,-164.5 240,-164.5 240,-134.5 129,-134.5"/>
<text text-anchor="start" x="137" y="-152.5" font-family="Helvetica,sans-Serif" font-size="10.00" fill="#000000">Domain/Game/Actors</text>
<text text-anchor="middle" x="184.5" y="-141.5" font-family="Helvetica,sans-Serif" font-size="10.00" fill="#000000">/Bullet.h</text>
</a>
</g>
</g>
<!-- Node5&#45;&gt;Node6 -->
<g id="edge4" class="edge">
<title>Node5&#45;&gt;Node6</title>
<path fill="none" stroke="#191970" d="M184.5,-191.0249C184.5,-182.128 184.5,-172.4287 184.5,-164.6432"/>
<polygon fill="#191970" stroke="#191970" points="181.0001,-191.2966 184.5,-201.2967 188.0001,-191.2967 181.0001,-191.2966"/>
</g>
<!-- Node9 -->
<g id="node7" class="node">
<title>Node9</title>
<g id="a_node7"><a xlink:href="GunShip_8h.html" target="_top" xlink:title="Domain/Game/Actors\l/GunShip.h">
<polygon fill="#ffffff" stroke="#000000" points="267,-134.5 267,-164.5 378,-164.5 378,-134.5 267,-134.5"/>
<text text-anchor="start" x="275" y="-152.5" font-family="Helvetica,sans-Serif" font-size="10.00" fill="#000000">Domain/Game/Actors</text>
<text text-anchor="middle" x="322.5" y="-141.5" font-family="Helvetica,sans-Serif" font-size="10.00" fill="#000000">/GunShip.h</text>
</a>
</g>
</g>
<!-- Node5&#45;&gt;Node9 -->
<g id="edge8" class="edge">
<title>Node5&#45;&gt;Node9</title>
<path fill="none" stroke="#191970" d="M224.5575,-197.0518C245.7623,-186.7567 271.4212,-174.2991 291.156,-164.7177"/>
<polygon fill="#191970" stroke="#191970" points="222.9371,-193.9478 215.4699,-201.4639 225.9944,-200.2448 222.9371,-193.9478"/>
</g>
<!-- Node11 -->
<g id="node9" class="node">
<title>Node11</title>
<g id="a_node9"><a xlink:href="Rock_8h.html" target="_top" xlink:title="Domain/Game/Actors\l/Rock.h">
<polygon fill="#ffffff" stroke="#000000" points="465,-134.5 465,-164.5 576,-164.5 576,-134.5 465,-134.5"/>
<text text-anchor="start" x="473" y="-152.5" font-family="Helvetica,sans-Serif" font-size="10.00" fill="#000000">Domain/Game/Actors</text>
<text text-anchor="middle" x="520.5" y="-141.5" font-family="Helvetica,sans-Serif" font-size="10.00" fill="#000000">/Rock.h</text>
</a>
</g>
</g>
<!-- Node5&#45;&gt;Node11 -->
<g id="edge11" class="edge">
<title>Node5&#45;&gt;Node11</title>
<path fill="none" stroke="#191970" d="M250.5119,-200.6169C330.1404,-183.6212 412.0217,-168.5762 464.8545,-159.1872"/>
<polygon fill="#191970" stroke="#191970" points="249.3517,-197.2862 240.3096,-202.808 250.8216,-204.1301 249.3517,-197.2862"/>
</g>
<!-- Node6&#45;&gt;Node4 -->
<g id="edge5" class="edge">
<title>Node6&#45;&gt;Node4</title>
<path fill="none" stroke="#191970" d="M146.5207,-129.7743C126.8033,-119.5335 103.0821,-107.2132 84.7998,-97.7177"/>
<polygon fill="#191970" stroke="#191970" points="145.0622,-132.9607 155.5499,-134.4639 148.2887,-126.7486 145.0622,-132.9607"/>
</g>
<!-- Node7 -->
<g id="node5" class="node">
<title>Node7</title>
<g id="a_node5"><a xlink:href="Bullet_8cpp.html" target="_top" xlink:title="Domain/Game/Actors\l/Bullet.cpp">
<polygon fill="#ffffff" stroke="#000000" points="129,-67.5 129,-97.5 240,-97.5 240,-67.5 129,-67.5"/>
<text text-anchor="start" x="137" y="-85.5" font-family="Helvetica,sans-Serif" font-size="10.00" fill="#000000">Domain/Game/Actors</text>
<text text-anchor="middle" x="184.5" y="-74.5" font-family="Helvetica,sans-Serif" font-size="10.00" fill="#000000">/Bullet.cpp</text>
</a>
</g>
</g>
<!-- Node6&#45;&gt;Node7 -->
<g id="edge6" class="edge">
<title>Node6&#45;&gt;Node7</title>
<path fill="none" stroke="#191970" d="M184.5,-124.0249C184.5,-115.128 184.5,-105.4287 184.5,-97.6432"/>
<polygon fill="#191970" stroke="#191970" points="181.0001,-124.2966 184.5,-134.2967 188.0001,-124.2967 181.0001,-124.2966"/>
</g>
<!-- Node8 -->
<g id="node6" class="node">
<title>Node8</title>
<g id="a_node6"><a xlink:href="Game_8cpp.html" target="_top" xlink:title="Domain/Game/Game.cpp">
<polygon fill="#ffffff" stroke="#000000" points="258.5,-73 258.5,-92 386.5,-92 386.5,-73 258.5,-73"/>
<text text-anchor="middle" x="322.5" y="-80" font-family="Helvetica,sans-Serif" font-size="10.00" fill="#000000">Domain/Game/Game.cpp</text>
</a>
</g>
</g>
<!-- Node6&#45;&gt;Node8 -->
<g id="edge7" class="edge">
<title>Node6&#45;&gt;Node8</title>
<path fill="none" stroke="#191970" d="M224.5936,-130.0343C250.2497,-117.5781 282.4143,-101.9619 302.7188,-92.1039"/>
<polygon fill="#191970" stroke="#191970" points="222.9371,-126.9478 215.4699,-134.4639 225.9944,-133.2448 222.9371,-126.9478"/>
</g>
<!-- Node9&#45;&gt;Node8 -->
<g id="edge10" class="edge">
<title>Node9&#45;&gt;Node8</title>
<path fill="none" stroke="#191970" d="M322.5,-124.1199C322.5,-112.9072 322.5,-100.4031 322.5,-92.055"/>
<polygon fill="#191970" stroke="#191970" points="319.0001,-124.2966 322.5,-134.2967 326.0001,-124.2967 319.0001,-124.2966"/>
</g>
<!-- Node10 -->
<g id="node8" class="node">
<title>Node10</title>
<g id="a_node8"><a xlink:href="GunShip_8cpp.html" target="_top" xlink:title="Domain/Game/Actors\l/GunShip.cpp">
<polygon fill="#ffffff" stroke="#000000" points="405,-67.5 405,-97.5 516,-97.5 516,-67.5 405,-67.5"/>
<text text-anchor="start" x="413" y="-85.5" font-family="Helvetica,sans-Serif" font-size="10.00" fill="#000000">Domain/Game/Actors</text>
<text text-anchor="middle" x="460.5" y="-74.5" font-family="Helvetica,sans-Serif" font-size="10.00" fill="#000000">/GunShip.cpp</text>
</a>
</g>
</g>
<!-- Node9&#45;&gt;Node10 -->
<g id="edge9" class="edge">
<title>Node9&#45;&gt;Node10</title>
<path fill="none" stroke="#191970" d="M362.5575,-130.0518C383.7623,-119.7567 409.4212,-107.2991 429.156,-97.7177"/>
<polygon fill="#191970" stroke="#191970" points="360.9371,-126.9478 353.4699,-134.4639 363.9944,-133.2448 360.9371,-126.9478"/>
</g>
<!-- Node11&#45;&gt;Node8 -->
<g id="edge15" class="edge">
<title>Node11&#45;&gt;Node8</title>
<path fill="none" stroke="#191970" d="M466.3079,-131.1623C428.8667,-118.4928 380.5887,-102.1563 350.5902,-92.0053"/>
<polygon fill="#191970" stroke="#191970" points="465.4707,-134.5739 476.0649,-134.4639 467.7144,-127.9432 465.4707,-134.5739"/>
</g>
<!-- Node12 -->
<g id="node10" class="node">
<title>Node12</title>
<g id="a_node10"><a xlink:href="LongRock_8h.html" target="_top" xlink:title="Domain/Game/Actors\l/LongRock.h">
<polygon fill="#ffffff" stroke="#000000" points="534,-67.5 534,-97.5 645,-97.5 645,-67.5 534,-67.5"/>
<text text-anchor="start" x="542" y="-85.5" font-family="Helvetica,sans-Serif" font-size="10.00" fill="#000000">Domain/Game/Actors</text>
<text text-anchor="middle" x="589.5" y="-74.5" font-family="Helvetica,sans-Serif" font-size="10.00" fill="#000000">/LongRock.h</text>
</a>
</g>
</g>
<!-- Node11&#45;&gt;Node12 -->
<g id="edge12" class="edge">
<title>Node11&#45;&gt;Node12</title>
<path fill="none" stroke="#191970" d="M543.454,-127.2113C553.4543,-117.5009 564.9176,-106.3698 573.9048,-97.6432"/>
<polygon fill="#191970" stroke="#191970" points="540.8932,-124.8193 536.1572,-134.2967 545.7697,-129.8413 540.8932,-124.8193"/>
</g>
<!-- Node14 -->
<g id="node12" class="node">
<title>Node14</title>
<g id="a_node12"><a xlink:href="Rock_8cpp.html" target="_top" xlink:title="Domain/Game/Actors\l/Rock.cpp">
<polygon fill="#ffffff" stroke="#000000" points="663,-67.5 663,-97.5 774,-97.5 774,-67.5 663,-67.5"/>
<text text-anchor="start" x="671" y="-85.5" font-family="Helvetica,sans-Serif" font-size="10.00" fill="#000000">Domain/Game/Actors</text>
<text text-anchor="middle" x="718.5" y="-74.5" font-family="Helvetica,sans-Serif" font-size="10.00" fill="#000000">/Rock.cpp</text>
</a>
</g>
</g>
<!-- Node11&#45;&gt;Node14 -->
<g id="edge14" class="edge">
<title>Node11&#45;&gt;Node14</title>
<path fill="none" stroke="#191970" d="M574.7602,-131.1392C605.8961,-120.6033 644.5087,-107.5375 673.8711,-97.6017"/>
<polygon fill="#191970" stroke="#191970" points="573.2856,-127.9432 564.9351,-134.4639 575.5293,-134.5739 573.2856,-127.9432"/>
</g>
<!-- Node13 -->
<g id="node11" class="node">
<title>Node13</title>
<g id="a_node11"><a xlink:href="LongRock_8cpp.html" target="_top" xlink:title="Domain/Game/Actors\l/LongRock.cpp">
<polygon fill="#ffffff" stroke="#000000" points="534,-.5 534,-30.5 645,-30.5 645,-.5 534,-.5"/>
<text text-anchor="start" x="542" y="-18.5" font-family="Helvetica,sans-Serif" font-size="10.00" fill="#000000">Domain/Game/Actors</text>
<text text-anchor="middle" x="589.5" y="-7.5" font-family="Helvetica,sans-Serif" font-size="10.00" fill="#000000">/LongRock.cpp</text>
</a>
</g>
</g>
<!-- Node12&#45;&gt;Node13 -->
<g id="edge13" class="edge">
<title>Node12&#45;&gt;Node13</title>
<path fill="none" stroke="#191970" d="M589.5,-57.0249C589.5,-48.128 589.5,-38.4287 589.5,-30.6432"/>
<polygon fill="#191970" stroke="#191970" points="586.0001,-57.2966 589.5,-67.2967 593.0001,-57.2967 586.0001,-57.2966"/>
</g>
</g>
</svg>
