<?xml version="1.0" encoding="UTF-8" standalone="no"?>
<!DOCTYPE svg PUBLIC "-//W3C//DTD SVG 1.1//EN"
 "http://www.w3.org/Graphics/SVG/1.1/DTD/svg11.dtd">
<!-- Generated by graphviz version 2.40.1 (20161225.0304)
 -->
<!-- Title: TechnicalServices/Financial/VisaProcessor.h Pages: 1 -->
<svg width="308pt" height="106pt"
 viewBox="0.00 0.00 307.50 106.00" xmlns="http://www.w3.org/2000/svg" xmlns:xlink="http://www.w3.org/1999/xlink">
<g id="graph0" class="graph" transform="scale(1 1) rotate(0) translate(4 102)">
<title>TechnicalServices/Financial/VisaProcessor.h</title>
<polygon fill="#ffffff" stroke="transparent" points="-4,4 -4,-102 303.5,-102 303.5,4 -4,4"/>
<!-- Node4 -->
<g id="node1" class="node">
<title>Node4</title>
<polygon fill="#bfbfbf" stroke="#000000" points="79,-67.5 79,-97.5 218,-97.5 218,-67.5 79,-67.5"/>
<text text-anchor="start" x="87" y="-85.5" font-family="Helvetica,sans-Serif" font-size="10.00" fill="#000000">TechnicalServices/Financial</text>
<text text-anchor="middle" x="148.5" y="-74.5" font-family="Helvetica,sans-Serif" font-size="10.00" fill="#000000">/VisaProcessor.h</text>
</g>
<!-- Node5 -->
<g id="node2" class="node">
<title>Node5</title>
<g id="a_node2"><a xlink:href="VisaProcessor_8cpp.html" target="_top" xlink:title="TechnicalServices/Financial\l/VisaProcessor.cpp">
<polygon fill="#ffffff" stroke="#000000" points="0,-.5 0,-30.5 139,-30.5 139,-.5 0,-.5"/>
<text text-anchor="start" x="8" y="-18.5" font-family="Helvetica,sans-Serif" font-size="10.00" fill="#000000">TechnicalServices/Financial</text>
<text text-anchor="middle" x="69.5" y="-7.5" font-family="Helvetica,sans-Serif" font-size="10.00" fill="#000000">/VisaProcessor.cpp</text>
</a>
</g>
</g>
<!-- Node4&#45;&gt;Node5 -->
<g id="edge1" class="edge">
<title>Node4&#45;&gt;Node5</title>
<path fill="none" stroke="#191970" d="M122.8908,-60.7808C111.2854,-50.9383 97.8468,-39.541 87.3554,-30.6432"/>
<polygon fill="#191970" stroke="#191970" points="120.6833,-63.4978 130.5737,-67.2967 125.211,-58.1593 120.6833,-63.4978"/>
</g>
<!-- Node6 -->
<g id="node3" class="node">
<title>Node6</title>
<g id="a_node3"><a xlink:href="TechnicalServicesFactory_8cpp.html" target="_top" xlink:title="TechnicalServices/Technical\lServicesFactory.cpp">
<polygon fill="#ffffff" stroke="#000000" points="157.5,-.5 157.5,-30.5 299.5,-30.5 299.5,-.5 157.5,-.5"/>
<text text-anchor="start" x="165.5" y="-18.5" font-family="Helvetica,sans-Serif" font-size="10.00" fill="#000000">TechnicalServices/Technical</text>
<text text-anchor="middle" x="228.5" y="-7.5" font-family="Helvetica,sans-Serif" font-size="10.00" fill="#000000">ServicesFactory.cpp</text>
</a>
</g>
</g>
<!-- Node4&#45;&gt;Node6 -->
<g id="edge2" class="edge">
<title>Node4&#45;&gt;Node6</title>
<path fill="none" stroke="#191970" d="M174.4333,-60.7808C186.1856,-50.9383 199.7944,-39.541 210.4186,-30.6432"/>
<polygon fill="#191970" stroke="#191970" points="172.0725,-58.1927 166.6532,-67.2967 176.567,-63.5592 172.0725,-58.1927"/>
</g>
</g>
</svg>
