<?xml version="1.0" encoding="UTF-8" standalone="no"?>
<!DOCTYPE svg PUBLIC "-//W3C//DTD SVG 1.1//EN"
 "http://www.w3.org/Graphics/SVG/1.1/DTD/svg11.dtd">
<!-- Generated by graphviz version 2.40.1 (20161225.0304)
 -->
<!-- Title: Domain/Game/Actors/Actor.h Pages: 1 -->
<svg width="540pt" height="162pt"
 viewBox="0.00 0.00 539.96 162.00" xmlns="http://www.w3.org/2000/svg" xmlns:xlink="http://www.w3.org/1999/xlink">
<g id="graph0" class="graph" transform="scale(1 1) rotate(0) translate(4 158)">
<title>Domain/Game/Actors/Actor.h</title>
<polygon fill="#ffffff" stroke="transparent" points="-4,4 -4,-158 535.957,-158 535.957,4 -4,4"/>
<!-- Node0 -->
<g id="node1" class="node">
<title>Node0</title>
<polygon fill="#bfbfbf" stroke="#000000" points="235.457,-123.5 235.457,-153.5 346.457,-153.5 346.457,-123.5 235.457,-123.5"/>
<text text-anchor="start" x="243.457" y="-141.5" font-family="Helvetica,sans-Serif" font-size="10.00" fill="#000000">Domain/Game/Actors</text>
<text text-anchor="middle" x="290.957" y="-130.5" font-family="Helvetica,sans-Serif" font-size="10.00" fill="#000000">/Actor.h</text>
</g>
<!-- Node1 -->
<g id="node2" class="node">
<title>Node1</title>
<g id="a_node2"><a xlink:href="$ForwardDeclarations_8h.html" xlink:title="Asteroids/ForwardDeclarations.h">
<polygon fill="#ffffff" stroke="#000000" points="50.457,-.5 50.457,-19.5 209.457,-19.5 209.457,-.5 50.457,-.5"/>
<text text-anchor="middle" x="129.957" y="-7.5" font-family="Helvetica,sans-Serif" font-size="10.00" fill="#000000">Asteroids/ForwardDeclarations.h</text>
</a>
</g>
</g>
<!-- Node0&#45;&gt;Node1 -->
<g id="edge1" class="edge">
<title>Node0&#45;&gt;Node1</title>
<path fill="none" stroke="#191970" d="M235.2623,-136.572C160.9699,-132.6941 35.4605,-121.1371 6.957,-87 -18.2627,-56.7957 33.0755,-34.7853 76.942,-22.2135"/>
<polygon fill="#191970" stroke="#191970" points="78.0153,-25.5484 86.7304,-19.5236 76.1604,-18.7986 78.0153,-25.5484"/>
</g>
<!-- Node2 -->
<g id="node3" class="node">
<title>Node2</title>
<g id="a_node3"><a xlink:href="$ActorInterface_8h.html" xlink:title="Asteroids/Domain/Game\l/Actors/ActorInterface.h">
<polygon fill="#ffffff" stroke="#000000" points="15.957,-56.5 15.957,-86.5 139.957,-86.5 139.957,-56.5 15.957,-56.5"/>
<text text-anchor="start" x="23.957" y="-74.5" font-family="Helvetica,sans-Serif" font-size="10.00" fill="#000000">Asteroids/Domain/Game</text>
<text text-anchor="middle" x="77.957" y="-63.5" font-family="Helvetica,sans-Serif" font-size="10.00" fill="#000000">/Actors/ActorInterface.h</text>
</a>
</g>
</g>
<!-- Node0&#45;&gt;Node2 -->
<g id="edge2" class="edge">
<title>Node0&#45;&gt;Node2</title>
<path fill="none" stroke="#191970" d="M243.1557,-123.4639C211.3396,-113.456 169.3593,-100.2509 135.6801,-89.657"/>
<polygon fill="#191970" stroke="#191970" points="136.5563,-86.2636 125.9669,-86.6017 134.4558,-92.9411 136.5563,-86.2636"/>
</g>
<!-- Node3 -->
<g id="node4" class="node">
<title>Node3</title>
<polygon fill="#ffffff" stroke="#bfbfbf" points="237.957,-.5 237.957,-19.5 281.957,-19.5 281.957,-.5 237.957,-.5"/>
<text text-anchor="middle" x="259.957" y="-7.5" font-family="Helvetica,sans-Serif" font-size="10.00" fill="#000000">vector</text>
</g>
<!-- Node0&#45;&gt;Node3 -->
<g id="edge13" class="edge">
<title>Node0&#45;&gt;Node3</title>
<path fill="none" stroke="#191970" d="M346.6674,-127.883C397.5585,-115.6395 460.9362,-92.3909 432.957,-56 415.9461,-33.8749 337.6535,-20.1532 292.4386,-13.9338"/>
<polygon fill="#191970" stroke="#191970" points="292.624,-10.4278 282.2505,-12.5821 291.7033,-17.367 292.624,-10.4278"/>
</g>
<!-- Node4 -->
<g id="node5" class="node">
<title>Node4</title>
<g id="a_node5"><a xlink:href="$Rect_8h.html" xlink:title="Asteroids/Domain/Game\l/Actors/Rect.h">
<polygon fill="#ffffff" stroke="#000000" points="299.957,-56.5 299.957,-86.5 423.957,-86.5 423.957,-56.5 299.957,-56.5"/>
<text text-anchor="start" x="307.957" y="-74.5" font-family="Helvetica,sans-Serif" font-size="10.00" fill="#000000">Asteroids/Domain/Game</text>
<text text-anchor="middle" x="361.957" y="-63.5" font-family="Helvetica,sans-Serif" font-size="10.00" fill="#000000">/Actors/Rect.h</text>
</a>
</g>
</g>
<!-- Node0&#45;&gt;Node4 -->
<g id="edge5" class="edge">
<title>Node0&#45;&gt;Node4</title>
<path fill="none" stroke="#191970" d="M307.068,-123.2967C316.3274,-114.559 328.1253,-103.4257 338.4085,-93.7218"/>
<polygon fill="#191970" stroke="#191970" points="341.0389,-96.052 345.9098,-86.6432 336.2346,-90.9609 341.0389,-96.052"/>
</g>
<!-- Node6 -->
<g id="node7" class="node">
<title>Node6</title>
<g id="a_node7"><a xlink:href="$Vector_8h.html" xlink:title="Asteroids/Domain/Game\l/Actors/Vector.h">
<polygon fill="#ffffff" stroke="#000000" points="157.957,-56.5 157.957,-86.5 281.957,-86.5 281.957,-56.5 157.957,-56.5"/>
<text text-anchor="start" x="165.957" y="-74.5" font-family="Helvetica,sans-Serif" font-size="10.00" fill="#000000">Asteroids/Domain/Game</text>
<text text-anchor="middle" x="219.957" y="-63.5" font-family="Helvetica,sans-Serif" font-size="10.00" fill="#000000">/Actors/Vector.h</text>
</a>
</g>
</g>
<!-- Node0&#45;&gt;Node6 -->
<g id="edge9" class="edge">
<title>Node0&#45;&gt;Node6</title>
<path fill="none" stroke="#191970" d="M274.846,-123.2967C265.5867,-114.559 253.7887,-103.4257 243.5055,-93.7218"/>
<polygon fill="#191970" stroke="#191970" points="245.6794,-90.9609 236.0043,-86.6432 240.8751,-96.052 245.6794,-90.9609"/>
</g>
<!-- Node7 -->
<g id="node8" class="node">
<title>Node7</title>
<polygon fill="#ffffff" stroke="#bfbfbf" points="479.957,-62 479.957,-81 531.957,-81 531.957,-62 479.957,-62"/>
<text text-anchor="middle" x="505.957" y="-69" font-family="Helvetica,sans-Serif" font-size="10.00" fill="#000000">memory</text>
</g>
<!-- Node0&#45;&gt;Node7 -->
<g id="edge12" class="edge">
<title>Node0&#45;&gt;Node7</title>
<path fill="none" stroke="#191970" d="M346.5004,-123.4342C381.0899,-113.7367 426.3802,-100.4652 465.957,-87 468.2176,-86.2309 470.5394,-85.4113 472.8717,-84.5659"/>
<polygon fill="#191970" stroke="#191970" points="474.246,-87.7887 482.3875,-81.0089 471.795,-81.2319 474.246,-87.7887"/>
</g>
<!-- Node2&#45;&gt;Node1 -->
<g id="edge3" class="edge">
<title>Node2&#45;&gt;Node1</title>
<path fill="none" stroke="#191970" d="M90.8109,-56.2977C98.1795,-47.5831 107.4596,-36.6075 115.1347,-27.5302"/>
<polygon fill="#191970" stroke="#191970" points="117.8472,-29.743 121.6312,-19.8469 112.5018,-25.2233 117.8472,-29.743"/>
</g>
<!-- Node2&#45;&gt;Node3 -->
<g id="edge4" class="edge">
<title>Node2&#45;&gt;Node3</title>
<path fill="none" stroke="#191970" d="M122.4792,-56.4554C155.2389,-45.3855 198.9835,-30.6037 228.2453,-20.7158"/>
<polygon fill="#191970" stroke="#191970" points="229.5965,-23.9537 237.9498,-17.4365 227.3556,-17.3221 229.5965,-23.9537"/>
</g>
<!-- Node4&#45;&gt;Node1 -->
<g id="edge6" class="edge">
<title>Node4&#45;&gt;Node1</title>
<path fill="none" stroke="#191970" d="M305.2034,-56.4554C265.4749,-45.9239 213.0726,-32.0328 175.9506,-22.1923"/>
<polygon fill="#191970" stroke="#191970" points="176.4718,-18.7096 165.9088,-19.5303 174.6781,-25.4759 176.4718,-18.7096"/>
</g>
<!-- Node4&#45;&gt;Node3 -->
<g id="edge8" class="edge">
<title>Node4&#45;&gt;Node3</title>
<path fill="none" stroke="#191970" d="M337.005,-56.4554C321.0311,-46.8241 300.3968,-34.3828 284.5027,-24.7996"/>
<polygon fill="#191970" stroke="#191970" points="286.1344,-21.6965 275.7634,-19.5303 282.52,-27.6912 286.1344,-21.6965"/>
</g>
<!-- Node5 -->
<g id="node6" class="node">
<title>Node5</title>
<polygon fill="#ffffff" stroke="#bfbfbf" points="341.457,-.5 341.457,-19.5 382.457,-19.5 382.457,-.5 341.457,-.5"/>
<text text-anchor="middle" x="361.957" y="-7.5" font-family="Helvetica,sans-Serif" font-size="10.00" fill="#000000">string</text>
</g>
<!-- Node4&#45;&gt;Node5 -->
<g id="edge7" class="edge">
<title>Node4&#45;&gt;Node5</title>
<path fill="none" stroke="#191970" d="M361.957,-56.2977C361.957,-48.3834 361.957,-38.6043 361.957,-30.0759"/>
<polygon fill="#191970" stroke="#191970" points="365.4571,-29.8469 361.957,-19.8469 358.4571,-29.847 365.4571,-29.8469"/>
</g>
<!-- Node6&#45;&gt;Node1 -->
<g id="edge10" class="edge">
<title>Node6&#45;&gt;Node1</title>
<path fill="none" stroke="#191970" d="M197.7098,-56.2977C183.9603,-46.9022 166.3649,-34.8787 152.5513,-25.4395"/>
<polygon fill="#191970" stroke="#191970" points="154.3295,-22.4155 144.0984,-19.6633 150.3802,-28.195 154.3295,-22.4155"/>
</g>
<!-- Node6&#45;&gt;Node3 -->
<g id="edge11" class="edge">
<title>Node6&#45;&gt;Node3</title>
<path fill="none" stroke="#191970" d="M229.8447,-56.2977C235.3392,-47.8498 242.2157,-37.2773 248.0097,-28.369"/>
<polygon fill="#191970" stroke="#191970" points="251.0342,-30.1381 253.5525,-19.8469 245.1662,-26.3215 251.0342,-30.1381"/>
</g>
</g>
</svg>
