<?xml version="1.0" encoding="UTF-8" standalone="no"?>
<!DOCTYPE svg PUBLIC "-//W3C//DTD SVG 1.1//EN"
 "http://www.w3.org/Graphics/SVG/1.1/DTD/svg11.dtd">
<!-- Generated by graphviz version 2.40.1 (20161225.0304)
 -->
<!-- Title: Domain/Game/Actors/Actor.cpp Pages: 1 -->
<svg width="562pt" height="296pt"
 viewBox="0.00 0.00 562.00 296.00" xmlns="http://www.w3.org/2000/svg" xmlns:xlink="http://www.w3.org/1999/xlink">
<g id="graph0" class="graph" transform="scale(1 1) rotate(0) translate(4 292)">
<title>Domain/Game/Actors/Actor.cpp</title>
<polygon fill="#ffffff" stroke="transparent" points="-4,4 -4,-292 558,-292 558,4 -4,4"/>
<!-- Node0 -->
<g id="node1" class="node">
<title>Node0</title>
<polygon fill="#bfbfbf" stroke="#000000" points="253.5,-257.5 253.5,-287.5 364.5,-287.5 364.5,-257.5 253.5,-257.5"/>
<text text-anchor="start" x="261.5" y="-275.5" font-family="Helvetica,sans-Serif" font-size="10.00" fill="#000000">Domain/Game/Actors</text>
<text text-anchor="middle" x="309" y="-264.5" font-family="Helvetica,sans-Serif" font-size="10.00" fill="#000000">/Actor.cpp</text>
</g>
<!-- Node1 -->
<g id="node2" class="node">
<title>Node1</title>
<g id="a_node2"><a xlink:href="$Actor_8h.html" xlink:title="Asteroids/Domain/Game\l/Actors/Actor.h">
<polygon fill="#ffffff" stroke="#000000" points="180,-123.5 180,-153.5 304,-153.5 304,-123.5 180,-123.5"/>
<text text-anchor="start" x="188" y="-141.5" font-family="Helvetica,sans-Serif" font-size="10.00" fill="#000000">Asteroids/Domain/Game</text>
<text text-anchor="middle" x="242" y="-130.5" font-family="Helvetica,sans-Serif" font-size="10.00" fill="#000000">/Actors/Actor.h</text>
</a>
</g>
</g>
<!-- Node0&#45;&gt;Node1 -->
<g id="edge1" class="edge">
<title>Node0&#45;&gt;Node1</title>
<path fill="none" stroke="#191970" d="M301.4445,-257.389C289.9338,-234.3676 267.8933,-190.2866 254.1249,-162.7499"/>
<polygon fill="#191970" stroke="#191970" points="257.2334,-161.1404 249.6307,-153.7614 250.9724,-164.2709 257.2334,-161.1404"/>
</g>
<!-- Node7 -->
<g id="node8" class="node">
<title>Node7</title>
<g id="a_node8"><a xlink:href="$Vector_8h.html" xlink:title="Asteroids/Domain/Game\l/Actors/Vector.h">
<polygon fill="#ffffff" stroke="#000000" points="38,-56.5 38,-86.5 162,-86.5 162,-56.5 38,-56.5"/>
<text text-anchor="start" x="46" y="-74.5" font-family="Helvetica,sans-Serif" font-size="10.00" fill="#000000">Asteroids/Domain/Game</text>
<text text-anchor="middle" x="100" y="-63.5" font-family="Helvetica,sans-Serif" font-size="10.00" fill="#000000">/Actors/Vector.h</text>
</a>
</g>
</g>
<!-- Node0&#45;&gt;Node7 -->
<g id="edge18" class="edge">
<title>Node0&#45;&gt;Node7</title>
<path fill="none" stroke="#191970" d="M289.4491,-257.2647C261.9516,-235.4976 210.769,-193.7253 171,-154 151.9278,-134.9488 132.0641,-111.5115 118.2134,-94.4925"/>
<polygon fill="#191970" stroke="#191970" points="120.9301,-92.2857 111.9269,-86.7006 115.4821,-96.6811 120.9301,-92.2857"/>
</g>
<!-- Node8 -->
<g id="node9" class="node">
<title>Node8</title>
<polygon fill="#ffffff" stroke="#bfbfbf" points="502,-62 502,-81 554,-81 554,-62 502,-62"/>
<text text-anchor="middle" x="528" y="-69" font-family="Helvetica,sans-Serif" font-size="10.00" fill="#000000">memory</text>
</g>
<!-- Node0&#45;&gt;Node8 -->
<g id="edge20" class="edge">
<title>Node0&#45;&gt;Node8</title>
<path fill="none" stroke="#191970" d="M314.0083,-257.4303C320.4416,-239.7619 332.9703,-210.3151 351,-190 393.5427,-142.0647 459.6071,-104.7217 497.8461,-85.5992"/>
<polygon fill="#191970" stroke="#191970" points="499.5038,-88.6845 506.9371,-81.1348 496.4182,-82.4012 499.5038,-88.6845"/>
</g>
<!-- Node9 -->
<g id="node10" class="node">
<title>Node9</title>
<g id="a_node10"><a xlink:href="$Bullet_8h.html" xlink:title="Asteroids/Domain/Game\l/Actors/Bullet.h">
<polygon fill="#ffffff" stroke="#000000" points="0,-190.5 0,-220.5 124,-220.5 124,-190.5 0,-190.5"/>
<text text-anchor="start" x="8" y="-208.5" font-family="Helvetica,sans-Serif" font-size="10.00" fill="#000000">Asteroids/Domain/Game</text>
<text text-anchor="middle" x="62" y="-197.5" font-family="Helvetica,sans-Serif" font-size="10.00" fill="#000000">/Actors/Bullet.h</text>
</a>
</g>
</g>
<!-- Node0&#45;&gt;Node9 -->
<g id="edge15" class="edge">
<title>Node0&#45;&gt;Node9</title>
<path fill="none" stroke="#191970" d="M253.5684,-257.4639C216.1986,-247.3272 166.7367,-233.9104 127.4334,-223.2491"/>
<polygon fill="#191970" stroke="#191970" points="128.2409,-219.8418 117.6734,-220.6017 126.4083,-226.5976 128.2409,-219.8418"/>
</g>
<!-- Node10 -->
<g id="node11" class="node">
<title>Node10</title>
<g id="a_node11"><a xlink:href="$Domain_2Game_2Defines_8h.html" xlink:title="Asteroids/Domain/Game\l/Defines.h">
<polygon fill="#ffffff" stroke="#000000" points="360,-190.5 360,-220.5 484,-220.5 484,-190.5 360,-190.5"/>
<text text-anchor="start" x="368" y="-208.5" font-family="Helvetica,sans-Serif" font-size="10.00" fill="#000000">Asteroids/Domain/Game</text>
<text text-anchor="middle" x="422" y="-197.5" font-family="Helvetica,sans-Serif" font-size="10.00" fill="#000000">/Defines.h</text>
</a>
</g>
</g>
<!-- Node0&#45;&gt;Node10 -->
<g id="edge19" class="edge">
<title>Node0&#45;&gt;Node10</title>
<path fill="none" stroke="#191970" d="M334.3594,-257.4639C350.0963,-248.1332 370.5205,-236.0232 387.6928,-225.8415"/>
<polygon fill="#191970" stroke="#191970" points="389.5176,-228.8285 396.3343,-220.7177 385.9475,-222.8073 389.5176,-228.8285"/>
</g>
<!-- Node11 -->
<g id="node12" class="node">
<title>Node11</title>
<polygon fill="#ffffff" stroke="#bfbfbf" points="502.5,-196 502.5,-215 549.5,-215 549.5,-196 502.5,-196"/>
<text text-anchor="middle" x="526" y="-203" font-family="Helvetica,sans-Serif" font-size="10.00" fill="#000000">math.h</text>
</g>
<!-- Node0&#45;&gt;Node11 -->
<g id="edge21" class="edge">
<title>Node0&#45;&gt;Node11</title>
<path fill="none" stroke="#191970" d="M364.5127,-259.5258C401.428,-250.2759 450.7148,-236.7239 493,-221 494.5907,-220.4085 496.2102,-219.7708 497.835,-219.1032"/>
<polygon fill="#191970" stroke="#191970" points="499.2858,-222.2888 507.0355,-215.0643 496.472,-215.8792 499.2858,-222.2888"/>
</g>
<!-- Node2 -->
<g id="node3" class="node">
<title>Node2</title>
<g id="a_node3"><a xlink:href="$ForwardDeclarations_8h.html" xlink:title="Asteroids/ForwardDeclarations.h">
<polygon fill="#ffffff" stroke="#000000" points="20.5,-.5 20.5,-19.5 179.5,-19.5 179.5,-.5 20.5,-.5"/>
<text text-anchor="middle" x="100" y="-7.5" font-family="Helvetica,sans-Serif" font-size="10.00" fill="#000000">Asteroids/ForwardDeclarations.h</text>
</a>
</g>
</g>
<!-- Node1&#45;&gt;Node2 -->
<g id="edge2" class="edge">
<title>Node1&#45;&gt;Node2</title>
<path fill="none" stroke="#191970" d="M179.895,-131.9506C123.8822,-124.6107 47.5292,-110.5432 29,-87 20.479,-76.1732 22.4193,-68.1046 29,-56 36.6377,-41.9511 50.6209,-31.5317 64.1708,-24.1958"/>
<polygon fill="#191970" stroke="#191970" points="66.0059,-27.1921 73.399,-19.603 62.887,-20.9253 66.0059,-27.1921"/>
</g>
<!-- Node3 -->
<g id="node4" class="node">
<title>Node3</title>
<g id="a_node4"><a xlink:href="$ActorInterface_8h.html" xlink:title="Asteroids/Domain/Game\l/Actors/ActorInterface.h">
<polygon fill="#ffffff" stroke="#000000" points="180,-56.5 180,-86.5 304,-86.5 304,-56.5 180,-56.5"/>
<text text-anchor="start" x="188" y="-74.5" font-family="Helvetica,sans-Serif" font-size="10.00" fill="#000000">Asteroids/Domain/Game</text>
<text text-anchor="middle" x="242" y="-63.5" font-family="Helvetica,sans-Serif" font-size="10.00" fill="#000000">/Actors/ActorInterface.h</text>
</a>
</g>
</g>
<!-- Node1&#45;&gt;Node3 -->
<g id="edge3" class="edge">
<title>Node1&#45;&gt;Node3</title>
<path fill="none" stroke="#191970" d="M242,-123.2967C242,-115.5013 242,-105.7991 242,-96.9064"/>
<polygon fill="#191970" stroke="#191970" points="245.5001,-96.6431 242,-86.6432 238.5001,-96.6432 245.5001,-96.6431"/>
</g>
<!-- Node4 -->
<g id="node5" class="node">
<title>Node4</title>
<polygon fill="#ffffff" stroke="#bfbfbf" points="260,-.5 260,-19.5 304,-19.5 304,-.5 260,-.5"/>
<text text-anchor="middle" x="282" y="-7.5" font-family="Helvetica,sans-Serif" font-size="10.00" fill="#000000">vector</text>
</g>
<!-- Node1&#45;&gt;Node4 -->
<g id="edge14" class="edge">
<title>Node1&#45;&gt;Node4</title>
<path fill="none" stroke="#191970" d="M304.009,-125.46C365.1643,-112.3044 450.2059,-93.0913 455,-87 463.521,-76.1732 463.3979,-66.9226 455,-56 437.9891,-33.8749 359.6965,-20.1532 314.4816,-13.9338"/>
<polygon fill="#191970" stroke="#191970" points="314.6669,-10.4278 304.2935,-12.5821 313.7463,-17.367 314.6669,-10.4278"/>
</g>
<!-- Node5 -->
<g id="node6" class="node">
<title>Node5</title>
<g id="a_node6"><a xlink:href="$Rect_8h.html" xlink:title="Asteroids/Domain/Game\l/Actors/Rect.h">
<polygon fill="#ffffff" stroke="#000000" points="322,-56.5 322,-86.5 446,-86.5 446,-56.5 322,-56.5"/>
<text text-anchor="start" x="330" y="-74.5" font-family="Helvetica,sans-Serif" font-size="10.00" fill="#000000">Asteroids/Domain/Game</text>
<text text-anchor="middle" x="384" y="-63.5" font-family="Helvetica,sans-Serif" font-size="10.00" fill="#000000">/Actors/Rect.h</text>
</a>
</g>
</g>
<!-- Node1&#45;&gt;Node5 -->
<g id="edge6" class="edge">
<title>Node1&#45;&gt;Node5</title>
<path fill="none" stroke="#191970" d="M273.8676,-123.4639C294.1875,-113.8763 320.7262,-101.3545 342.6605,-91.0052"/>
<polygon fill="#191970" stroke="#191970" points="344.1972,-94.1503 351.7475,-86.7177 341.2101,-87.8196 344.1972,-94.1503"/>
</g>
<!-- Node1&#45;&gt;Node7 -->
<g id="edge10" class="edge">
<title>Node1&#45;&gt;Node7</title>
<path fill="none" stroke="#191970" d="M210.1324,-123.4639C189.8125,-113.8763 163.2738,-101.3545 141.3395,-91.0052"/>
<polygon fill="#191970" stroke="#191970" points="142.7899,-87.8196 132.2525,-86.7177 139.8028,-94.1503 142.7899,-87.8196"/>
</g>
<!-- Node1&#45;&gt;Node8 -->
<g id="edge13" class="edge">
<title>Node1&#45;&gt;Node8</title>
<path fill="none" stroke="#191970" d="M304.2416,-125.7336C374.1661,-111.3517 479.1358,-89.6261 488,-87 490.5885,-86.2331 493.246,-85.3726 495.9011,-84.4604"/>
<polygon fill="#191970" stroke="#191970" points="497.1816,-87.719 505.3777,-81.0052 494.7837,-81.1424 497.1816,-87.719"/>
</g>
<!-- Node3&#45;&gt;Node2 -->
<g id="edge4" class="edge">
<title>Node3&#45;&gt;Node2</title>
<path fill="none" stroke="#191970" d="M207.2629,-56.4554C184.0894,-46.419 153.8708,-33.3314 131.4158,-23.6061"/>
<polygon fill="#191970" stroke="#191970" points="132.5723,-20.2929 122.005,-19.5303 129.7903,-26.7164 132.5723,-20.2929"/>
</g>
<!-- Node3&#45;&gt;Node4 -->
<g id="edge5" class="edge">
<title>Node3&#45;&gt;Node4</title>
<path fill="none" stroke="#191970" d="M251.8876,-56.2977C257.3822,-47.8498 264.2586,-37.2773 270.0527,-28.369"/>
<polygon fill="#191970" stroke="#191970" points="273.0772,-30.1381 275.5955,-19.8469 267.2092,-26.3215 273.0772,-30.1381"/>
</g>
<!-- Node5&#45;&gt;Node2 -->
<g id="edge7" class="edge">
<title>Node5&#45;&gt;Node2</title>
<path fill="none" stroke="#191970" d="M321.6636,-57.8831C318.7351,-57.246 315.8358,-56.6157 313,-56 259.0936,-44.295 197.4944,-31.0007 154.4537,-21.7248"/>
<polygon fill="#191970" stroke="#191970" points="154.9863,-18.2593 144.4734,-19.5742 153.5118,-25.1022 154.9863,-18.2593"/>
</g>
<!-- Node5&#45;&gt;Node4 -->
<g id="edge9" class="edge">
<title>Node5&#45;&gt;Node4</title>
<path fill="none" stroke="#191970" d="M359.048,-56.4554C343.0741,-46.8241 322.4398,-34.3828 306.5457,-24.7996"/>
<polygon fill="#191970" stroke="#191970" points="308.1774,-21.6965 297.8064,-19.5303 304.563,-27.6912 308.1774,-21.6965"/>
</g>
<!-- Node6 -->
<g id="node7" class="node">
<title>Node6</title>
<polygon fill="#ffffff" stroke="#bfbfbf" points="363.5,-.5 363.5,-19.5 404.5,-19.5 404.5,-.5 363.5,-.5"/>
<text text-anchor="middle" x="384" y="-7.5" font-family="Helvetica,sans-Serif" font-size="10.00" fill="#000000">string</text>
</g>
<!-- Node5&#45;&gt;Node6 -->
<g id="edge8" class="edge">
<title>Node5&#45;&gt;Node6</title>
<path fill="none" stroke="#191970" d="M384,-56.2977C384,-48.3834 384,-38.6043 384,-30.0759"/>
<polygon fill="#191970" stroke="#191970" points="387.5001,-29.8469 384,-19.8469 380.5001,-29.847 387.5001,-29.8469"/>
</g>
<!-- Node7&#45;&gt;Node2 -->
<g id="edge11" class="edge">
<title>Node7&#45;&gt;Node2</title>
<path fill="none" stroke="#191970" d="M100,-56.2977C100,-48.3834 100,-38.6043 100,-30.0759"/>
<polygon fill="#191970" stroke="#191970" points="103.5001,-29.8469 100,-19.8469 96.5001,-29.847 103.5001,-29.8469"/>
</g>
<!-- Node7&#45;&gt;Node4 -->
<g id="edge12" class="edge">
<title>Node7&#45;&gt;Node4</title>
<path fill="none" stroke="#191970" d="M144.5222,-56.4554C177.2819,-45.3855 221.0265,-30.6037 250.2883,-20.7158"/>
<polygon fill="#191970" stroke="#191970" points="251.6395,-23.9537 259.9928,-17.4365 249.3985,-17.3221 251.6395,-23.9537"/>
</g>
<!-- Node9&#45;&gt;Node1 -->
<g id="edge17" class="edge">
<title>Node9&#45;&gt;Node1</title>
<path fill="none" stroke="#191970" d="M102.3955,-190.4639C128.8208,-180.6278 163.5431,-167.7034 191.748,-157.2049"/>
<polygon fill="#191970" stroke="#191970" points="193.2774,-160.3703 201.4283,-153.6017 190.8355,-153.81 193.2774,-160.3703"/>
</g>
<!-- Node9&#45;&gt;Node2 -->
<g id="edge16" class="edge">
<title>Node9&#45;&gt;Node2</title>
<path fill="none" stroke="#191970" d="M50.2649,-190.1006C30.2852,-161.854 -5.7858,-100.5715 20,-56 28.5707,-41.1854 43.9193,-30.7247 58.8965,-23.5639"/>
<polygon fill="#191970" stroke="#191970" points="60.3583,-26.7446 68.11,-19.5223 57.5463,-20.3342 60.3583,-26.7446"/>
</g>
</g>
</svg>
