<?xml version="1.0" encoding="UTF-8" standalone="no"?>
<!DOCTYPE svg PUBLIC "-//W3C//DTD SVG 1.1//EN"
 "http://www.w3.org/Graphics/SVG/1.1/DTD/svg11.dtd">
<!-- Generated by graphviz version 2.40.1 (20161225.0304)
 -->
<!-- Title: Domain/Net/Authentication/AuthenticationInterface.h Pages: 1 -->
<svg width="296pt" height="95pt"
 viewBox="0.00 0.00 296.00 95.00" xmlns="http://www.w3.org/2000/svg" xmlns:xlink="http://www.w3.org/1999/xlink">
<g id="graph0" class="graph" transform="scale(1 1) rotate(0) translate(4 91)">
<title>Domain/Net/Authentication/AuthenticationInterface.h</title>
<polygon fill="#ffffff" stroke="transparent" points="-4,4 -4,-91 292,-91 292,4 -4,4"/>
<!-- Node0 -->
<g id="node1" class="node">
<title>Node0</title>
<polygon fill="#bfbfbf" stroke="#000000" points="135.5,-56.5 135.5,-86.5 269.5,-86.5 269.5,-56.5 135.5,-56.5"/>
<text text-anchor="start" x="143.5" y="-74.5" font-family="Helvetica,sans-Serif" font-size="10.00" fill="#000000">Domain/Net/Authentication</text>
<text text-anchor="middle" x="202.5" y="-63.5" font-family="Helvetica,sans-Serif" font-size="10.00" fill="#000000">/AuthenticationInterface.h</text>
</g>
<!-- Node1 -->
<g id="node2" class="node">
<title>Node1</title>
<g id="a_node2"><a xlink:href="$ForwardDeclarations_8h.html" xlink:title="Asteroids/ForwardDeclarations.h">
<polygon fill="#ffffff" stroke="#000000" points="0,-.5 0,-19.5 159,-19.5 159,-.5 0,-.5"/>
<text text-anchor="middle" x="79.5" y="-7.5" font-family="Helvetica,sans-Serif" font-size="10.00" fill="#000000">Asteroids/ForwardDeclarations.h</text>
</a>
</g>
</g>
<!-- Node0&#45;&gt;Node1 -->
<g id="edge1" class="edge">
<title>Node0&#45;&gt;Node1</title>
<path fill="none" stroke="#191970" d="M172.4108,-56.4554C152.6981,-46.599 127.0998,-33.7999 107.7653,-24.1327"/>
<polygon fill="#191970" stroke="#191970" points="109.0702,-20.872 98.5606,-19.5303 105.9397,-27.133 109.0702,-20.872"/>
</g>
<!-- Node2 -->
<g id="node3" class="node">
<title>Node2</title>
<polygon fill="#ffffff" stroke="#bfbfbf" points="176.5,-.5 176.5,-19.5 228.5,-19.5 228.5,-.5 176.5,-.5"/>
<text text-anchor="middle" x="202.5" y="-7.5" font-family="Helvetica,sans-Serif" font-size="10.00" fill="#000000">memory</text>
</g>
<!-- Node0&#45;&gt;Node2 -->
<g id="edge2" class="edge">
<title>Node0&#45;&gt;Node2</title>
<path fill="none" stroke="#191970" d="M202.5,-56.2977C202.5,-48.3834 202.5,-38.6043 202.5,-30.0759"/>
<polygon fill="#191970" stroke="#191970" points="206.0001,-29.8469 202.5,-19.8469 199.0001,-29.847 206.0001,-29.8469"/>
</g>
<!-- Node3 -->
<g id="node4" class="node">
<title>Node3</title>
<polygon fill="#ffffff" stroke="#bfbfbf" points="247,-.5 247,-19.5 288,-19.5 288,-.5 247,-.5"/>
<text text-anchor="middle" x="267.5" y="-7.5" font-family="Helvetica,sans-Serif" font-size="10.00" fill="#000000">string</text>
</g>
<!-- Node0&#45;&gt;Node3 -->
<g id="edge3" class="edge">
<title>Node0&#45;&gt;Node3</title>
<path fill="none" stroke="#191970" d="M218.5674,-56.2977C227.966,-47.4052 239.8527,-36.1586 249.557,-26.9769"/>
<polygon fill="#191970" stroke="#191970" points="252.2342,-29.2621 257.0927,-19.8469 247.4232,-24.1774 252.2342,-29.2621"/>
</g>
</g>
</svg>
