<?xml version="1.0" encoding="UTF-8" standalone="no"?>
<!DOCTYPE svg PUBLIC "-//W3C//DTD SVG 1.1//EN"
 "http://www.w3.org/Graphics/SVG/1.1/DTD/svg11.dtd">
<!-- Generated by graphviz version 2.40.1 (20161225.0304)
 -->
<!-- Title: Domain/Net/Messages/AUTH_STATE.h Pages: 1 -->
<svg width="430pt" height="106pt"
 viewBox="0.00 0.00 430.00 106.00" xmlns="http://www.w3.org/2000/svg" xmlns:xlink="http://www.w3.org/1999/xlink">
<g id="graph0" class="graph" transform="scale(1 1) rotate(0) translate(4 102)">
<title>Domain/Net/Messages/AUTH_STATE.h</title>
<polygon fill="#ffffff" stroke="transparent" points="-4,4 -4,-102 426,-102 426,4 -4,4"/>
<!-- Node3 -->
<g id="node1" class="node">
<title>Node3</title>
<polygon fill="#bfbfbf" stroke="#000000" points="152.5,-67.5 152.5,-97.5 269.5,-97.5 269.5,-67.5 152.5,-67.5"/>
<text text-anchor="start" x="160.5" y="-85.5" font-family="Helvetica,sans-Serif" font-size="10.00" fill="#000000">Domain/Net/Messages</text>
<text text-anchor="middle" x="211" y="-74.5" font-family="Helvetica,sans-Serif" font-size="10.00" fill="#000000">/AUTH_STATE.h</text>
</g>
<!-- Node4 -->
<g id="node2" class="node">
<title>Node4</title>
<g id="a_node2"><a xlink:href="$Authenticator_8cpp.html" xlink:title="Domain/Net/Authentication\l/Authenticator.cpp">
<polygon fill="#ffffff" stroke="#000000" points="0,-.5 0,-30.5 134,-30.5 134,-.5 0,-.5"/>
<text text-anchor="start" x="8" y="-18.5" font-family="Helvetica,sans-Serif" font-size="10.00" fill="#000000">Domain/Net/Authentication</text>
<text text-anchor="middle" x="67" y="-7.5" font-family="Helvetica,sans-Serif" font-size="10.00" fill="#000000">/Authenticator.cpp</text>
</a>
</g>
</g>
<!-- Node3&#45;&gt;Node4 -->
<g id="edge1" class="edge">
<title>Node3&#45;&gt;Node4</title>
<path fill="none" stroke="#191970" d="M169.4983,-63.1902C147.3144,-52.8685 120.3919,-40.3421 99.7068,-30.7177"/>
<polygon fill="#191970" stroke="#191970" points="168.1404,-66.4187 178.6836,-67.4639 171.0934,-60.072 168.1404,-66.4187"/>
</g>
<!-- Node5 -->
<g id="node3" class="node">
<title>Node5</title>
<g id="a_node3"><a xlink:href="$AUTH__STATE_8cpp.html" xlink:title="Domain/Net/Messages\l/AUTH_STATE.cpp">
<polygon fill="#ffffff" stroke="#000000" points="152.5,-.5 152.5,-30.5 269.5,-30.5 269.5,-.5 152.5,-.5"/>
<text text-anchor="start" x="160.5" y="-18.5" font-family="Helvetica,sans-Serif" font-size="10.00" fill="#000000">Domain/Net/Messages</text>
<text text-anchor="middle" x="211" y="-7.5" font-family="Helvetica,sans-Serif" font-size="10.00" fill="#000000">/AUTH_STATE.cpp</text>
</a>
</g>
</g>
<!-- Node3&#45;&gt;Node5 -->
<g id="edge2" class="edge">
<title>Node3&#45;&gt;Node5</title>
<path fill="none" stroke="#191970" d="M211,-57.0249C211,-48.128 211,-38.4287 211,-30.6432"/>
<polygon fill="#191970" stroke="#191970" points="207.5001,-57.2966 211,-67.2967 214.5001,-57.2967 207.5001,-57.2966"/>
</g>
<!-- Node6 -->
<g id="node4" class="node">
<title>Node6</title>
<g id="a_node4"><a xlink:href="$ClientTextUI_8cpp.html" xlink:title="UI/ClientTextUI/ClientText\lUI.cpp">
<polygon fill="#ffffff" stroke="#000000" points="288,-.5 288,-30.5 422,-30.5 422,-.5 288,-.5"/>
<text text-anchor="start" x="296" y="-18.5" font-family="Helvetica,sans-Serif" font-size="10.00" fill="#000000">UI/ClientTextUI/ClientText</text>
<text text-anchor="middle" x="355" y="-7.5" font-family="Helvetica,sans-Serif" font-size="10.00" fill="#000000">UI.cpp</text>
</a>
</g>
</g>
<!-- Node3&#45;&gt;Node6 -->
<g id="edge3" class="edge">
<title>Node3&#45;&gt;Node6</title>
<path fill="none" stroke="#191970" d="M252.5017,-63.1902C274.6856,-52.8685 301.6081,-40.3421 322.2932,-30.7177"/>
<polygon fill="#191970" stroke="#191970" points="250.9066,-60.072 243.3164,-67.4639 253.8596,-66.4187 250.9066,-60.072"/>
</g>
</g>
</svg>
