<?xml version="1.0" encoding="UTF-8" standalone="no"?>
<!DOCTYPE svg PUBLIC "-//W3C//DTD SVG 1.1//EN"
 "http://www.w3.org/Graphics/SVG/1.1/DTD/svg11.dtd">
<!-- Generated by graphviz version 2.40.1 (20161225.0304)
 -->
<!-- Title: Domain/Net/Messages/AUTH_ATTEMPT.cpp Pages: 1 -->
<svg width="226pt" height="162pt"
 viewBox="0.00 0.00 226.00 162.00" xmlns="http://www.w3.org/2000/svg" xmlns:xlink="http://www.w3.org/1999/xlink">
<g id="graph0" class="graph" transform="scale(1 1) rotate(0) translate(4 158)">
<title>Domain/Net/Messages/AUTH_ATTEMPT.cpp</title>
<polygon fill="#ffffff" stroke="transparent" points="-4,4 -4,-158 222,-158 222,4 -4,4"/>
<!-- Node0 -->
<g id="node1" class="node">
<title>Node0</title>
<polygon fill="#bfbfbf" stroke="#000000" points="79.5,-123.5 79.5,-153.5 197.5,-153.5 197.5,-123.5 79.5,-123.5"/>
<text text-anchor="start" x="87.5" y="-141.5" font-family="Helvetica,sans-Serif" font-size="10.00" fill="#000000">Domain/Net/Messages</text>
<text text-anchor="middle" x="138.5" y="-130.5" font-family="Helvetica,sans-Serif" font-size="10.00" fill="#000000">/AUTH_ATTEMPT.cpp</text>
</g>
<!-- Node1 -->
<g id="node2" class="node">
<title>Node1</title>
<g id="a_node2"><a xlink:href="$AUTH__ATTEMPT_8h.html" xlink:title="Asteroids/Domain/Net\l/Messages/AUTH_ATTEMPT.h">
<polygon fill="#ffffff" stroke="#000000" points="61,-56.5 61,-86.5 216,-86.5 216,-56.5 61,-56.5"/>
<text text-anchor="start" x="69" y="-74.5" font-family="Helvetica,sans-Serif" font-size="10.00" fill="#000000">Asteroids/Domain/Net</text>
<text text-anchor="middle" x="138.5" y="-63.5" font-family="Helvetica,sans-Serif" font-size="10.00" fill="#000000">/Messages/AUTH_ATTEMPT.h</text>
</a>
</g>
</g>
<!-- Node0&#45;&gt;Node1 -->
<g id="edge1" class="edge">
<title>Node0&#45;&gt;Node1</title>
<path fill="none" stroke="#191970" d="M138.5,-123.2967C138.5,-115.5013 138.5,-105.7991 138.5,-96.9064"/>
<polygon fill="#191970" stroke="#191970" points="142.0001,-96.6431 138.5,-86.6432 135.0001,-96.6432 142.0001,-96.6431"/>
</g>
<!-- Node2 -->
<g id="node3" class="node">
<title>Node2</title>
<g id="a_node3"><a xlink:href="$ForwardDeclarations_8h.html" xlink:title="Asteroids/ForwardDeclarations.h">
<polygon fill="#ffffff" stroke="#000000" points="0,-.5 0,-19.5 159,-19.5 159,-.5 0,-.5"/>
<text text-anchor="middle" x="79.5" y="-7.5" font-family="Helvetica,sans-Serif" font-size="10.00" fill="#000000">Asteroids/ForwardDeclarations.h</text>
</a>
</g>
</g>
<!-- Node1&#45;&gt;Node2 -->
<g id="edge2" class="edge">
<title>Node1&#45;&gt;Node2</title>
<path fill="none" stroke="#191970" d="M123.9157,-56.2977C115.47,-47.4941 104.8108,-36.3833 96.0516,-27.2529"/>
<polygon fill="#191970" stroke="#191970" points="98.3952,-24.6402 88.9466,-19.8469 93.3439,-29.4862 98.3952,-24.6402"/>
</g>
<!-- Node3 -->
<g id="node4" class="node">
<title>Node3</title>
<polygon fill="#ffffff" stroke="#bfbfbf" points="177,-.5 177,-19.5 218,-19.5 218,-.5 177,-.5"/>
<text text-anchor="middle" x="197.5" y="-7.5" font-family="Helvetica,sans-Serif" font-size="10.00" fill="#000000">string</text>
</g>
<!-- Node1&#45;&gt;Node3 -->
<g id="edge3" class="edge">
<title>Node1&#45;&gt;Node3</title>
<path fill="none" stroke="#191970" d="M153.0843,-56.2977C161.53,-47.4941 172.1892,-36.3833 180.9484,-27.2529"/>
<polygon fill="#191970" stroke="#191970" points="183.6561,-29.4862 188.0534,-19.8469 178.6048,-24.6402 183.6561,-29.4862"/>
</g>
</g>
</svg>
