<?xml version="1.0" encoding="UTF-8" standalone="no"?>
<!DOCTYPE svg PUBLIC "-//W3C//DTD SVG 1.1//EN"
 "http://www.w3.org/Graphics/SVG/1.1/DTD/svg11.dtd">
<!-- Generated by graphviz version 2.40.1 (20161225.0304)
 -->
<!-- Title: Domain/Net/Authentication/Authenticator.h Pages: 1 -->
<svg width="316pt" height="173pt"
 viewBox="0.00 0.00 316.00 173.00" xmlns="http://www.w3.org/2000/svg" xmlns:xlink="http://www.w3.org/1999/xlink">
<g id="graph0" class="graph" transform="scale(1 1) rotate(0) translate(4 169)">
<title>Domain/Net/Authentication/Authenticator.h</title>
<polygon fill="#ffffff" stroke="transparent" points="-4,4 -4,-169 312,-169 312,4 -4,4"/>
<!-- Node0 -->
<g id="node1" class="node">
<title>Node0</title>
<polygon fill="#bfbfbf" stroke="#000000" points="138.5,-134.5 138.5,-164.5 272.5,-164.5 272.5,-134.5 138.5,-134.5"/>
<text text-anchor="start" x="146.5" y="-152.5" font-family="Helvetica,sans-Serif" font-size="10.00" fill="#000000">Domain/Net/Authentication</text>
<text text-anchor="middle" x="205.5" y="-141.5" font-family="Helvetica,sans-Serif" font-size="10.00" fill="#000000">/Authenticator.h</text>
</g>
<!-- Node1 -->
<g id="node2" class="node">
<title>Node1</title>
<g id="a_node2"><a xlink:href="$ForwardDeclarations_8h.html" xlink:title="Asteroids/ForwardDeclarations.h">
<polygon fill="#ffffff" stroke="#000000" points="0,-.5 0,-19.5 159,-19.5 159,-.5 0,-.5"/>
<text text-anchor="middle" x="79.5" y="-7.5" font-family="Helvetica,sans-Serif" font-size="10.00" fill="#000000">Asteroids/ForwardDeclarations.h</text>
</a>
</g>
</g>
<!-- Node0&#45;&gt;Node1 -->
<g id="edge1" class="edge">
<title>Node0&#45;&gt;Node1</title>
<path fill="none" stroke="#191970" d="M148.1954,-134.4995C116.1495,-124.8266 80.8141,-111.558 71.5,-98 57.5744,-77.7293 64.227,-48.3371 71.1458,-29.1967"/>
<polygon fill="#191970" stroke="#191970" points="74.4625,-30.3272 74.8879,-19.7409 67.9536,-27.7512 74.4625,-30.3272"/>
</g>
<!-- Node2 -->
<g id="node3" class="node">
<title>Node2</title>
<g id="a_node3"><a xlink:href="$AuthenticationInterface_8h.html" xlink:title="Asteroids/Domain/Net\l/Authentication/Authentication\lInterface.h">
<polygon fill="#ffffff" stroke="#000000" points="81,-56.5 81,-97.5 228,-97.5 228,-56.5 81,-56.5"/>
<text text-anchor="start" x="89" y="-85.5" font-family="Helvetica,sans-Serif" font-size="10.00" fill="#000000">Asteroids/Domain/Net</text>
<text text-anchor="start" x="89" y="-74.5" font-family="Helvetica,sans-Serif" font-size="10.00" fill="#000000">/Authentication/Authentication</text>
<text text-anchor="middle" x="154.5" y="-63.5" font-family="Helvetica,sans-Serif" font-size="10.00" fill="#000000">Interface.h</text>
</a>
</g>
</g>
<!-- Node0&#45;&gt;Node2 -->
<g id="edge2" class="edge">
<title>Node0&#45;&gt;Node2</title>
<path fill="none" stroke="#191970" d="M194.9328,-134.478C189.1107,-126.2016 181.6852,-115.6457 174.7905,-105.8443"/>
<polygon fill="#191970" stroke="#191970" points="177.538,-103.6668 168.9218,-97.5015 171.8127,-107.6943 177.538,-103.6668"/>
</g>
<!-- Node3 -->
<g id="node4" class="node">
<title>Node3</title>
<polygon fill="#ffffff" stroke="#bfbfbf" points="189.5,-.5 189.5,-19.5 241.5,-19.5 241.5,-.5 189.5,-.5"/>
<text text-anchor="middle" x="215.5" y="-7.5" font-family="Helvetica,sans-Serif" font-size="10.00" fill="#000000">memory</text>
</g>
<!-- Node0&#45;&gt;Node3 -->
<g id="edge7" class="edge">
<title>Node0&#45;&gt;Node3</title>
<path fill="none" stroke="#191970" d="M218.0664,-134.3612C225.2983,-124.6361 233.6869,-111.3614 237.5,-98 242.6225,-80.05 241.6292,-74.2042 237.5,-56 235.356,-46.548 231.022,-36.7672 226.7633,-28.6675"/>
<polygon fill="#191970" stroke="#191970" points="229.7071,-26.7615 221.7583,-19.7567 223.6039,-30.1895 229.7071,-26.7615"/>
</g>
<!-- Node4 -->
<g id="node5" class="node">
<title>Node4</title>
<polygon fill="#ffffff" stroke="#bfbfbf" points="267,-.5 267,-19.5 308,-19.5 308,-.5 267,-.5"/>
<text text-anchor="middle" x="287.5" y="-7.5" font-family="Helvetica,sans-Serif" font-size="10.00" fill="#000000">string</text>
</g>
<!-- Node0&#45;&gt;Node4 -->
<g id="edge6" class="edge">
<title>Node0&#45;&gt;Node4</title>
<path fill="none" stroke="#191970" d="M221.9331,-134.4902C231.7932,-124.8138 244.0242,-111.5448 252.5,-98 266.2797,-75.9793 276.3818,-47.6213 282.0972,-29.1356"/>
<polygon fill="#191970" stroke="#191970" points="285.4626,-30.0973 284.95,-19.5149 278.7514,-28.1072 285.4626,-30.0973"/>
</g>
<!-- Node2&#45;&gt;Node1 -->
<g id="edge3" class="edge">
<title>Node2&#45;&gt;Node1</title>
<path fill="none" stroke="#191970" d="M131.1807,-56.168C120.5648,-46.6846 108.1709,-35.6127 98.1818,-26.689"/>
<polygon fill="#191970" stroke="#191970" points="100.2377,-23.8325 90.4483,-19.7805 95.5742,-29.0528 100.2377,-23.8325"/>
</g>
<!-- Node2&#45;&gt;Node3 -->
<g id="edge4" class="edge">
<title>Node2&#45;&gt;Node3</title>
<path fill="none" stroke="#191970" d="M173.4664,-56.168C181.9279,-46.8742 191.7784,-36.0549 199.8157,-27.227"/>
<polygon fill="#191970" stroke="#191970" points="202.4512,-29.5312 206.5954,-19.7805 197.2751,-24.8186 202.4512,-29.5312"/>
</g>
<!-- Node2&#45;&gt;Node4 -->
<g id="edge5" class="edge">
<title>Node2&#45;&gt;Node4</title>
<path fill="none" stroke="#191970" d="M195.4896,-56.3511C216.1583,-45.9391 240.7022,-33.5748 259.2403,-24.2361"/>
<polygon fill="#191970" stroke="#191970" points="260.9787,-27.2795 268.3348,-19.6546 257.8294,-21.0279 260.9787,-27.2795"/>
</g>
</g>
</svg>
