<?xml version="1.0" encoding="UTF-8" standalone="no"?>
<!DOCTYPE svg PUBLIC "-//W3C//DTD SVG 1.1//EN"
 "http://www.w3.org/Graphics/SVG/1.1/DTD/svg11.dtd">
<!-- Generated by graphviz version 2.40.1 (20161225.0304)
 -->
<!-- Title: Domain/Net/Authentication/AuthenticationInterface.h Pages: 1 -->
<svg width="389pt" height="229pt"
 viewBox="0.00 0.00 389.00 229.00" xmlns="http://www.w3.org/2000/svg" xmlns:xlink="http://www.w3.org/1999/xlink">
<g id="graph0" class="graph" transform="scale(1 1) rotate(0) translate(4 225)">
<title>Domain/Net/Authentication/AuthenticationInterface.h</title>
<polygon fill="#ffffff" stroke="transparent" points="-4,4 -4,-225 385,-225 385,4 -4,4"/>
<!-- Node4 -->
<g id="node1" class="node">
<title>Node4</title>
<polygon fill="#bfbfbf" stroke="#000000" points="95,-190.5 95,-220.5 229,-220.5 229,-190.5 95,-190.5"/>
<text text-anchor="start" x="103" y="-208.5" font-family="Helvetica,sans-Serif" font-size="10.00" fill="#000000">Domain/Net/Authentication</text>
<text text-anchor="middle" x="162" y="-197.5" font-family="Helvetica,sans-Serif" font-size="10.00" fill="#000000">/AuthenticationInterface.h</text>
</g>
<!-- Node5 -->
<g id="node2" class="node">
<title>Node5</title>
<g id="a_node2"><a xlink:href="$Authenticator_8cpp.html" xlink:title="Domain/Net/Authentication\l/Authenticator.cpp">
<polygon fill="#ffffff" stroke="#000000" points="0,-56.5 0,-86.5 134,-86.5 134,-56.5 0,-56.5"/>
<text text-anchor="start" x="8" y="-74.5" font-family="Helvetica,sans-Serif" font-size="10.00" fill="#000000">Domain/Net/Authentication</text>
<text text-anchor="middle" x="67" y="-63.5" font-family="Helvetica,sans-Serif" font-size="10.00" fill="#000000">/Authenticator.cpp</text>
</a>
</g>
</g>
<!-- Node4&#45;&gt;Node5 -->
<g id="edge1" class="edge">
<title>Node4&#45;&gt;Node5</title>
<path fill="none" stroke="#191970" d="M120.4556,-185.2587C107.6838,-177.1679 94.7116,-166.7119 86,-154 71.9583,-133.5104 68.1757,-104.1195 67.2265,-86.5092"/>
<polygon fill="#191970" stroke="#191970" points="118.8296,-188.3641 129.2108,-190.4808 122.4154,-182.3523 118.8296,-188.3641"/>
</g>
<!-- Node6 -->
<g id="node3" class="node">
<title>Node6</title>
<g id="a_node3"><a xlink:href="$Authenticator_8h.html" xlink:title="Domain/Net/Authentication\l/Authenticator.h">
<polygon fill="#ffffff" stroke="#000000" points="95,-123.5 95,-153.5 229,-153.5 229,-123.5 95,-123.5"/>
<text text-anchor="start" x="103" y="-141.5" font-family="Helvetica,sans-Serif" font-size="10.00" fill="#000000">Domain/Net/Authentication</text>
<text text-anchor="middle" x="162" y="-130.5" font-family="Helvetica,sans-Serif" font-size="10.00" fill="#000000">/Authenticator.h</text>
</a>
</g>
</g>
<!-- Node4&#45;&gt;Node6 -->
<g id="edge2" class="edge">
<title>Node4&#45;&gt;Node6</title>
<path fill="none" stroke="#191970" d="M162,-180.0249C162,-171.128 162,-161.4287 162,-153.6432"/>
<polygon fill="#191970" stroke="#191970" points="158.5001,-180.2966 162,-190.2967 165.5001,-180.2967 158.5001,-180.2966"/>
</g>
<!-- Node10 -->
<g id="node7" class="node">
<title>Node10</title>
<g id="a_node7"><a xlink:href="$ClientTextUI_8cpp.html" xlink:title="UI/ClientTextUI/ClientText\lUI.cpp">
<polygon fill="#ffffff" stroke="#000000" points="247,-123.5 247,-153.5 381,-153.5 381,-123.5 247,-123.5"/>
<text text-anchor="start" x="255" y="-141.5" font-family="Helvetica,sans-Serif" font-size="10.00" fill="#000000">UI/ClientTextUI/ClientText</text>
<text text-anchor="middle" x="314" y="-130.5" font-family="Helvetica,sans-Serif" font-size="10.00" fill="#000000">UI.cpp</text>
</a>
</g>
</g>
<!-- Node4&#45;&gt;Node10 -->
<g id="edge7" class="edge">
<title>Node4&#45;&gt;Node10</title>
<path fill="none" stroke="#191970" d="M205.5282,-186.3132C229.0917,-175.9267 257.784,-163.2794 279.7395,-153.6017"/>
<polygon fill="#191970" stroke="#191970" points="203.8505,-183.2277 196.1118,-190.4639 206.674,-189.6331 203.8505,-183.2277"/>
</g>
<!-- Node6&#45;&gt;Node5 -->
<g id="edge3" class="edge">
<title>Node6&#45;&gt;Node5</title>
<path fill="none" stroke="#191970" d="M132.0068,-117.3469C117.8712,-107.3776 101.3305,-95.7121 88.4717,-86.6432"/>
<polygon fill="#191970" stroke="#191970" points="130.2537,-120.3934 140.443,-123.2967 134.2882,-114.6729 130.2537,-120.3934"/>
</g>
<!-- Node7 -->
<g id="node4" class="node">
<title>Node7</title>
<g id="a_node4"><a xlink:href="$NetFactory_8h.html" xlink:title="Domain/Net/NetFactory.h">
<polygon fill="#ffffff" stroke="#000000" points="152.5,-62 152.5,-81 281.5,-81 281.5,-62 152.5,-62"/>
<text text-anchor="middle" x="217" y="-69" font-family="Helvetica,sans-Serif" font-size="10.00" fill="#000000">Domain/Net/NetFactory.h</text>
</a>
</g>
</g>
<!-- Node6&#45;&gt;Node7 -->
<g id="edge4" class="edge">
<title>Node6&#45;&gt;Node7</title>
<path fill="none" stroke="#191970" d="M180.8599,-115.5252C190.5396,-103.7336 201.8089,-90.0055 209.1564,-81.055"/>
<polygon fill="#191970" stroke="#191970" points="178.1201,-113.3466 174.4804,-123.2967 183.5306,-117.7881 178.1201,-113.3466"/>
</g>
<!-- Node8 -->
<g id="node5" class="node">
<title>Node8</title>
<g id="a_node5"><a xlink:href="$Factory_8cpp.html" xlink:title="Domain/Factory/Factory.cpp">
<polygon fill="#ffffff" stroke="#000000" points="66.5,-.5 66.5,-19.5 207.5,-19.5 207.5,-.5 66.5,-.5"/>
<text text-anchor="middle" x="137" y="-7.5" font-family="Helvetica,sans-Serif" font-size="10.00" fill="#000000">Domain/Factory/Factory.cpp</text>
</a>
</g>
</g>
<!-- Node7&#45;&gt;Node8 -->
<g id="edge5" class="edge">
<title>Node7&#45;&gt;Node8</title>
<path fill="none" stroke="#191970" d="M196.381,-55.6491C181.5164,-44.222 161.943,-29.1749 149.4122,-19.5419"/>
<polygon fill="#191970" stroke="#191970" points="194.4387,-58.5707 204.5,-61.8906 198.7051,-53.021 194.4387,-58.5707"/>
</g>
<!-- Node9 -->
<g id="node6" class="node">
<title>Node9</title>
<g id="a_node6"><a xlink:href="$NetFactory_8cpp.html" xlink:title="Domain/Net/NetFactory.cpp">
<polygon fill="#ffffff" stroke="#000000" points="226,-.5 226,-19.5 366,-19.5 366,-.5 226,-.5"/>
<text text-anchor="middle" x="296" y="-7.5" font-family="Helvetica,sans-Serif" font-size="10.00" fill="#000000">Domain/Net/NetFactory.cpp</text>
</a>
</g>
</g>
<!-- Node7&#45;&gt;Node9 -->
<g id="edge6" class="edge">
<title>Node7&#45;&gt;Node9</title>
<path fill="none" stroke="#191970" d="M237.3613,-55.6491C252.04,-44.222 271.3688,-29.1749 283.7429,-19.5419"/>
<polygon fill="#191970" stroke="#191970" points="235.0846,-52.9859 229.3438,-61.8906 239.3846,-58.5095 235.0846,-52.9859"/>
</g>
</g>
</svg>
