<?xml version="1.0" encoding="UTF-8" standalone="no"?>
<!DOCTYPE svg PUBLIC "-//W3C//DTD SVG 1.1//EN"
 "http://www.w3.org/Graphics/SVG/1.1/DTD/svg11.dtd">
<!-- Generated by graphviz version 2.40.1 (20161225.0304)
 -->
<!-- Title: Domain/Game/Actors/Bullet.h Pages: 1 -->
<svg width="395pt" height="106pt"
 viewBox="0.00 0.00 394.50 106.00" xmlns="http://www.w3.org/2000/svg" xmlns:xlink="http://www.w3.org/1999/xlink">
<g id="graph0" class="graph" transform="scale(1 1) rotate(0) translate(4 102)">
<title>Domain/Game/Actors/Bullet.h</title>
<polygon fill="#ffffff" stroke="transparent" points="-4,4 -4,-102 390.5,-102 390.5,4 -4,4"/>
<!-- Node9 -->
<g id="node1" class="node">
<title>Node9</title>
<polygon fill="#bfbfbf" stroke="#000000" points="129,-67.5 129,-97.5 240,-97.5 240,-67.5 129,-67.5"/>
<text text-anchor="start" x="137" y="-85.5" font-family="Helvetica,sans-Serif" font-size="10.00" fill="#000000">Domain/Game/Actors</text>
<text text-anchor="middle" x="184.5" y="-74.5" font-family="Helvetica,sans-Serif" font-size="10.00" fill="#000000">/Bullet.h</text>
</g>
<!-- Node10 -->
<g id="node2" class="node">
<title>Node10</title>
<g id="a_node2"><a xlink:href="$Actor_8cpp.html" xlink:title="Domain/Game/Actors\l/Actor.cpp">
<polygon fill="#ffffff" stroke="#000000" points="0,-.5 0,-30.5 111,-30.5 111,-.5 0,-.5"/>
<text text-anchor="start" x="8" y="-18.5" font-family="Helvetica,sans-Serif" font-size="10.00" fill="#000000">Domain/Game/Actors</text>
<text text-anchor="middle" x="55.5" y="-7.5" font-family="Helvetica,sans-Serif" font-size="10.00" fill="#000000">/Actor.cpp</text>
</a>
</g>
</g>
<!-- Node9&#45;&gt;Node10 -->
<g id="edge1" class="edge">
<title>Node9&#45;&gt;Node10</title>
<path fill="none" stroke="#191970" d="M146.5207,-62.7743C126.8033,-52.5335 103.0821,-40.2132 84.7998,-30.7177"/>
<polygon fill="#191970" stroke="#191970" points="145.0622,-65.9607 155.5499,-67.4639 148.2887,-59.7486 145.0622,-65.9607"/>
</g>
<!-- Node11 -->
<g id="node3" class="node">
<title>Node11</title>
<g id="a_node3"><a xlink:href="$Bullet_8cpp.html" xlink:title="Domain/Game/Actors\l/Bullet.cpp">
<polygon fill="#ffffff" stroke="#000000" points="129,-.5 129,-30.5 240,-30.5 240,-.5 129,-.5"/>
<text text-anchor="start" x="137" y="-18.5" font-family="Helvetica,sans-Serif" font-size="10.00" fill="#000000">Domain/Game/Actors</text>
<text text-anchor="middle" x="184.5" y="-7.5" font-family="Helvetica,sans-Serif" font-size="10.00" fill="#000000">/Bullet.cpp</text>
</a>
</g>
</g>
<!-- Node9&#45;&gt;Node11 -->
<g id="edge2" class="edge">
<title>Node9&#45;&gt;Node11</title>
<path fill="none" stroke="#191970" d="M184.5,-57.0249C184.5,-48.128 184.5,-38.4287 184.5,-30.6432"/>
<polygon fill="#191970" stroke="#191970" points="181.0001,-57.2966 184.5,-67.2967 188.0001,-57.2967 181.0001,-57.2966"/>
</g>
<!-- Node12 -->
<g id="node4" class="node">
<title>Node12</title>
<g id="a_node4"><a xlink:href="$Game_8cpp.html" xlink:title="Domain/Game/Game.cpp">
<polygon fill="#ffffff" stroke="#000000" points="258.5,-6 258.5,-25 386.5,-25 386.5,-6 258.5,-6"/>
<text text-anchor="middle" x="322.5" y="-13" font-family="Helvetica,sans-Serif" font-size="10.00" fill="#000000">Domain/Game/Game.cpp</text>
</a>
</g>
</g>
<!-- Node9&#45;&gt;Node12 -->
<g id="edge3" class="edge">
<title>Node9&#45;&gt;Node12</title>
<path fill="none" stroke="#191970" d="M224.5936,-63.0343C250.2497,-50.5781 282.4143,-34.9619 302.7188,-25.1039"/>
<polygon fill="#191970" stroke="#191970" points="222.9371,-59.9478 215.4699,-67.4639 225.9944,-66.2448 222.9371,-59.9478"/>
</g>
</g>
</svg>
