<?xml version="1.0" encoding="UTF-8" standalone="no"?>
<!DOCTYPE svg PUBLIC "-//W3C//DTD SVG 1.1//EN"
 "http://www.w3.org/Graphics/SVG/1.1/DTD/svg11.dtd">
<!-- Generated by graphviz version 2.40.1 (20161225.0304)
 -->
<!-- Title: Asteroids::Domain::Game::Actors::Actor::check_collision Pages: 1 -->
<svg width="407pt" height="110pt"
 viewBox="0.00 0.00 407.00 110.00" xmlns="http://www.w3.org/2000/svg" xmlns:xlink="http://www.w3.org/1999/xlink">
<g id="graph0" class="graph" transform="scale(1 1) rotate(0) translate(4 106)">
<title>Asteroids::Domain::Game::Actors::Actor::check_collision</title>
<polygon fill="#ffffff" stroke="transparent" points="-4,4 -4,-106 403,-106 403,4 -4,4"/>
<!-- Node17 -->
<g id="node1" class="node">
<title>Node17</title>
<polygon fill="#bfbfbf" stroke="#000000" points="0,-30.5 0,-71.5 107,-71.5 107,-30.5 0,-30.5"/>
<text text-anchor="start" x="8" y="-59.5" font-family="Helvetica,sans-Serif" font-size="10.00" fill="#000000">Asteroids::Domain::</text>
<text text-anchor="start" x="8" y="-48.5" font-family="Helvetica,sans-Serif" font-size="10.00" fill="#000000">Game::Actors::Actor</text>
<text text-anchor="middle" x="53.5" y="-37.5" font-family="Helvetica,sans-Serif" font-size="10.00" fill="#000000">::check_collision</text>
</g>
<!-- Node18 -->
<g id="node2" class="node">
<title>Node18</title>
<g id="a_node2"><a xlink:href="$classAsteroids_1_1Domain_1_1Game_1_1Actors_1_1Rect.html#acc14c3d293e2bfd3b55aa6e727457bf0" xlink:title="Asteroids::Domain::\lGame::Actors::Rect::\lcollides_with_rect">
<polygon fill="#ffffff" stroke="#000000" points="143,-60.5 143,-101.5 253,-101.5 253,-60.5 143,-60.5"/>
<text text-anchor="start" x="151" y="-89.5" font-family="Helvetica,sans-Serif" font-size="10.00" fill="#000000">Asteroids::Domain::</text>
<text text-anchor="start" x="151" y="-78.5" font-family="Helvetica,sans-Serif" font-size="10.00" fill="#000000">Game::Actors::Rect::</text>
<text text-anchor="middle" x="198" y="-67.5" font-family="Helvetica,sans-Serif" font-size="10.00" fill="#000000">collides_with_rect</text>
</a>
</g>
</g>
<!-- Node17&#45;&gt;Node18 -->
<g id="edge1" class="edge">
<title>Node17&#45;&gt;Node18</title>
<path fill="none" stroke="#191970" d="M107.3065,-62.1709C115.6114,-63.8951 124.2648,-65.6917 132.7864,-67.4608"/>
<polygon fill="#191970" stroke="#191970" points="132.1979,-70.9132 142.7006,-69.5192 133.6209,-64.0594 132.1979,-70.9132"/>
</g>
<!-- Node20 -->
<g id="node4" class="node">
<title>Node20</title>
<g id="a_node4"><a xlink:href="$classAsteroids_1_1Domain_1_1Game_1_1Actors_1_1Actor.html#a445d9ee9ca02625b5385727aa4cbab1b" xlink:title="Asteroids::Domain::\lGame::Actors::Actor\l::get_rect">
<polygon fill="#ffffff" stroke="#000000" points="144.5,-.5 144.5,-41.5 251.5,-41.5 251.5,-.5 144.5,-.5"/>
<text text-anchor="start" x="152.5" y="-29.5" font-family="Helvetica,sans-Serif" font-size="10.00" fill="#000000">Asteroids::Domain::</text>
<text text-anchor="start" x="152.5" y="-18.5" font-family="Helvetica,sans-Serif" font-size="10.00" fill="#000000">Game::Actors::Actor</text>
<text text-anchor="middle" x="198" y="-7.5" font-family="Helvetica,sans-Serif" font-size="10.00" fill="#000000">::get_rect</text>
</a>
</g>
</g>
<!-- Node17&#45;&gt;Node20 -->
<g id="edge3" class="edge">
<title>Node17&#45;&gt;Node20</title>
<path fill="none" stroke="#191970" d="M107.3065,-39.8291C116.0515,-38.0135 125.1828,-36.1177 134.1398,-34.2582"/>
<polygon fill="#191970" stroke="#191970" points="135.0689,-37.64 144.1486,-32.1802 133.6459,-30.7862 135.0689,-37.64"/>
</g>
<!-- Node19 -->
<g id="node3" class="node">
<title>Node19</title>
<g id="a_node3"><a xlink:href="$classAsteroids_1_1Domain_1_1Game_1_1Actors_1_1Rect.html#a9e3bfefa639425d77c9f417061b4867e" xlink:title="Asteroids::Domain::\lGame::Actors::Rect::\lis_point_within">
<polygon fill="#ffffff" stroke="#000000" points="289,-60.5 289,-101.5 399,-101.5 399,-60.5 289,-60.5"/>
<text text-anchor="start" x="297" y="-89.5" font-family="Helvetica,sans-Serif" font-size="10.00" fill="#000000">Asteroids::Domain::</text>
<text text-anchor="start" x="297" y="-78.5" font-family="Helvetica,sans-Serif" font-size="10.00" fill="#000000">Game::Actors::Rect::</text>
<text text-anchor="middle" x="344" y="-67.5" font-family="Helvetica,sans-Serif" font-size="10.00" fill="#000000">is_point_within</text>
</a>
</g>
</g>
<!-- Node18&#45;&gt;Node19 -->
<g id="edge2" class="edge">
<title>Node18&#45;&gt;Node19</title>
<path fill="none" stroke="#191970" d="M253.1963,-81C261.4633,-81 270.0546,-81 278.5101,-81"/>
<polygon fill="#191970" stroke="#191970" points="278.7256,-84.5001 288.7256,-81 278.7256,-77.5001 278.7256,-84.5001"/>
</g>
</g>
</svg>
