<?xml version="1.0" encoding="UTF-8" standalone="no"?>
<!DOCTYPE svg PUBLIC "-//W3C//DTD SVG 1.1//EN"
 "http://www.w3.org/Graphics/SVG/1.1/DTD/svg11.dtd">
<!-- Generated by graphviz version 2.40.1 (20161225.0304)
 -->
<!-- Title: Asteroids::Domain::Net::ClientServerCommunicatorInterface::notifyServerOfGameHistoryEntrySocialMediaShare Pages: 1 -->
<svg width="892pt" height="61pt"
 viewBox="0.00 0.00 892.00 61.00" xmlns="http://www.w3.org/2000/svg" xmlns:xlink="http://www.w3.org/1999/xlink">
<g id="graph0" class="graph" transform="scale(1 1) rotate(0) translate(4 57)">
<title>Asteroids::Domain::Net::ClientServerCommunicatorInterface::notifyServerOfGameHistoryEntrySocialMediaShare</title>
<polygon fill="#ffffff" stroke="transparent" points="-4,4 -4,-57 888,-57 888,4 -4,4"/>
<!-- Node3 -->
<g id="node1" class="node">
<title>Node3</title>
<polygon fill="#bfbfbf" stroke="#000000" points="0,-.5 0,-52.5 182,-52.5 182,-.5 0,-.5"/>
<text text-anchor="start" x="8" y="-40.5" font-family="Helvetica,sans-Serif" font-size="10.00" fill="#000000">Asteroids::Domain::</text>
<text text-anchor="start" x="8" y="-29.5" font-family="Helvetica,sans-Serif" font-size="10.00" fill="#000000">Net::ClientServerCommunicator</text>
<text text-anchor="start" x="8" y="-18.5" font-family="Helvetica,sans-Serif" font-size="10.00" fill="#000000">Interface::notifyServerOfGameHistory</text>
<text text-anchor="middle" x="91" y="-7.5" font-family="Helvetica,sans-Serif" font-size="10.00" fill="#000000">EntrySocialMediaShare</text>
</g>
<!-- Node4 -->
<g id="node2" class="node">
<title>Node4</title>
<g id="a_node2"><a xlink:href="$classAsteroids_1_1UI_1_1ClientTextUI_1_1ClientTextUI.html#ab0a3f9e22046b77a85dc7771d3502365" xlink:title="Asteroids::UI::ClientText\lUI::ClientTextUI::share\l_game_history_entry_to_social_media">
<polygon fill="#ffffff" stroke="#000000" points="218,-6 218,-47 401,-47 401,-6 218,-6"/>
<text text-anchor="start" x="226" y="-35" font-family="Helvetica,sans-Serif" font-size="10.00" fill="#000000">Asteroids::UI::ClientText</text>
<text text-anchor="start" x="226" y="-24" font-family="Helvetica,sans-Serif" font-size="10.00" fill="#000000">UI::ClientTextUI::share</text>
<text text-anchor="middle" x="309.5" y="-13" font-family="Helvetica,sans-Serif" font-size="10.00" fill="#000000">_game_history_entry_to_social_media</text>
</a>
</g>
</g>
<!-- Node3&#45;&gt;Node4 -->
<g id="edge1" class="edge">
<title>Node3&#45;&gt;Node4</title>
<path fill="none" stroke="#191970" d="M192.1169,-26.5C200.7029,-26.5 209.3563,-26.5 217.8633,-26.5"/>
<polygon fill="#191970" stroke="#191970" points="192.0815,-23.0001 182.0815,-26.5 192.0814,-30.0001 192.0815,-23.0001"/>
</g>
<!-- Node5 -->
<g id="node3" class="node">
<title>Node5</title>
<g id="a_node3"><a xlink:href="$classAsteroids_1_1UI_1_1ClientTextUI_1_1ClientTextUI.html#a27ec39f73edbb3688a3ebe67533abf5a" xlink:title="Asteroids::UI::ClientText\lUI::ClientTextUI::review\l_game_history">
<polygon fill="#ffffff" stroke="#000000" points="437,-6 437,-47 562,-47 562,-6 437,-6"/>
<text text-anchor="start" x="445" y="-35" font-family="Helvetica,sans-Serif" font-size="10.00" fill="#000000">Asteroids::UI::ClientText</text>
<text text-anchor="start" x="445" y="-24" font-family="Helvetica,sans-Serif" font-size="10.00" fill="#000000">UI::ClientTextUI::review</text>
<text text-anchor="middle" x="499.5" y="-13" font-family="Helvetica,sans-Serif" font-size="10.00" fill="#000000">_game_history</text>
</a>
</g>
</g>
<!-- Node4&#45;&gt;Node5 -->
<g id="edge2" class="edge">
<title>Node4&#45;&gt;Node5</title>
<path fill="none" stroke="#191970" d="M411.3292,-26.5C419.9762,-26.5 428.5474,-26.5 436.7541,-26.5"/>
<polygon fill="#191970" stroke="#191970" points="411.1608,-23.0001 401.1608,-26.5 411.1607,-30.0001 411.1608,-23.0001"/>
</g>
<!-- Node6 -->
<g id="node4" class="node">
<title>Node6</title>
<g id="a_node4"><a xlink:href="$classAsteroids_1_1UI_1_1ClientTextUI_1_1ClientTextUI.html#a67521714973f97f76618f9598d34d3b8" xlink:title="Asteroids::UI::ClientText\lUI::ClientTextUI::main\l_menu_loop">
<polygon fill="#ffffff" stroke="#000000" points="598,-6 598,-47 723,-47 723,-6 598,-6"/>
<text text-anchor="start" x="606" y="-35" font-family="Helvetica,sans-Serif" font-size="10.00" fill="#000000">Asteroids::UI::ClientText</text>
<text text-anchor="start" x="606" y="-24" font-family="Helvetica,sans-Serif" font-size="10.00" fill="#000000">UI::ClientTextUI::main</text>
<text text-anchor="middle" x="660.5" y="-13" font-family="Helvetica,sans-Serif" font-size="10.00" fill="#000000">_menu_loop</text>
</a>
</g>
</g>
<!-- Node5&#45;&gt;Node6 -->
<g id="edge3" class="edge">
<title>Node5&#45;&gt;Node6</title>
<path fill="none" stroke="#191970" d="M572.2184,-26.5C580.8129,-26.5 589.5268,-26.5 597.9633,-26.5"/>
<polygon fill="#191970" stroke="#191970" points="572.2078,-23.0001 562.2078,-26.5 572.2078,-30.0001 572.2078,-23.0001"/>
</g>
<!-- Node7 -->
<g id="node5" class="node">
<title>Node7</title>
<g id="a_node5"><a xlink:href="$classAsteroids_1_1UI_1_1ClientTextUI_1_1ClientTextUI.html#a835f455a627e77a5ef99661350281ec3" xlink:title="Begin the user interface. ">
<polygon fill="#ffffff" stroke="#000000" points="759,-11.5 759,-41.5 884,-41.5 884,-11.5 759,-11.5"/>
<text text-anchor="start" x="767" y="-29.5" font-family="Helvetica,sans-Serif" font-size="10.00" fill="#000000">Asteroids::UI::ClientText</text>
<text text-anchor="middle" x="821.5" y="-18.5" font-family="Helvetica,sans-Serif" font-size="10.00" fill="#000000">UI::ClientTextUI::run</text>
</a>
</g>
</g>
<!-- Node6&#45;&gt;Node7 -->
<g id="edge4" class="edge">
<title>Node6&#45;&gt;Node7</title>
<path fill="none" stroke="#191970" d="M733.2184,-26.5C741.8129,-26.5 750.5268,-26.5 758.9633,-26.5"/>
<polygon fill="#191970" stroke="#191970" points="733.2078,-23.0001 723.2078,-26.5 733.2078,-30.0001 733.2078,-23.0001"/>
</g>
</g>
</svg>
