<?xml version="1.0" encoding="UTF-8" standalone="no"?>
<!DOCTYPE svg PUBLIC "-//W3C//DTD SVG 1.1//EN"
 "http://www.w3.org/Graphics/SVG/1.1/DTD/svg11.dtd">
<!-- Generated by graphviz version 2.40.1 (20161225.0304)
 -->
<!-- Title: Asteroids::UI::ClientTextUI::ClientTextUI::store_loop Pages: 1 -->
<svg width="991pt" height="192pt"
 viewBox="0.00 0.00 991.00 192.00" xmlns="http://www.w3.org/2000/svg" xmlns:xlink="http://www.w3.org/1999/xlink">
<g id="graph0" class="graph" transform="scale(1 1) rotate(0) translate(4 188)">
<title>Asteroids::UI::ClientTextUI::ClientTextUI::store_loop</title>
<polygon fill="#ffffff" stroke="transparent" points="-4,4 -4,-188 987,-188 987,4 -4,4"/>
<!-- Node179 -->
<g id="node1" class="node">
<title>Node179</title>
<polygon fill="#bfbfbf" stroke="#000000" points="0,-144 0,-174 140,-174 140,-144 0,-144"/>
<text text-anchor="start" x="8" y="-162" font-family="Helvetica,sans-Serif" font-size="10.00" fill="#000000">Asteroids::UI::ClientText</text>
<text text-anchor="middle" x="70" y="-151" font-family="Helvetica,sans-Serif" font-size="10.00" fill="#000000">UI::ClientTextUI::store_loop</text>
</g>
<!-- Node180 -->
<g id="node2" class="node">
<title>Node180</title>
<g id="a_node2"><a xlink:href="$classAsteroids_1_1UI_1_1ClientTextUI_1_1ClientTextUI.html#a41f904ea570af3e3a8c4d70da8411ef3" xlink:title="Asteroids::UI::ClientText\lUI::ClientTextUI::print">
<polygon fill="#ffffff" stroke="#000000" points="858,-93 858,-123 983,-123 983,-93 858,-93"/>
<text text-anchor="start" x="866" y="-111" font-family="Helvetica,sans-Serif" font-size="10.00" fill="#000000">Asteroids::UI::ClientText</text>
<text text-anchor="middle" x="920.5" y="-100" font-family="Helvetica,sans-Serif" font-size="10.00" fill="#000000">UI::ClientTextUI::print</text>
</a>
</g>
</g>
<!-- Node179&#45;&gt;Node180 -->
<g id="edge1" class="edge">
<title>Node179&#45;&gt;Node180</title>
<path fill="none" stroke="#191970" d="M140.1259,-167.2206C208.4083,-174.5071 315.1786,-184 408,-184 408,-184 408,-184 578.5,-184 684.3719,-184 804.3834,-148.8639 870.36,-126.3725"/>
<polygon fill="#191970" stroke="#191970" points="871.774,-129.5871 880.0842,-123.0152 869.4895,-122.9704 871.774,-129.5871"/>
</g>
<!-- Node181 -->
<g id="node3" class="node">
<title>Node181</title>
<g id="a_node3"><a xlink:href="$classAsteroids_1_1UI_1_1ClientTextUI_1_1ClientTextUI.html#a9175792a129c214f55dd0bda9ac36b33" xlink:title="Asteroids::UI::ClientText\lUI::ClientTextUI::store\l_offer_available_items">
<polygon fill="#ffffff" stroke="#000000" points="176,-114.5 176,-155.5 301,-155.5 301,-114.5 176,-114.5"/>
<text text-anchor="start" x="184" y="-143.5" font-family="Helvetica,sans-Serif" font-size="10.00" fill="#000000">Asteroids::UI::ClientText</text>
<text text-anchor="start" x="184" y="-132.5" font-family="Helvetica,sans-Serif" font-size="10.00" fill="#000000">UI::ClientTextUI::store</text>
<text text-anchor="middle" x="238.5" y="-121.5" font-family="Helvetica,sans-Serif" font-size="10.00" fill="#000000">_offer_available_items</text>
</a>
</g>
</g>
<!-- Node179&#45;&gt;Node181 -->
<g id="edge2" class="edge">
<title>Node179&#45;&gt;Node181</title>
<path fill="none" stroke="#191970" d="M140.4829,-148.9609C148.8177,-147.7737 157.3373,-146.5603 165.7033,-145.3687"/>
<polygon fill="#191970" stroke="#191970" points="166.4027,-148.8045 175.8092,-143.9293 165.4156,-141.8744 166.4027,-148.8045"/>
</g>
<!-- Node181&#45;&gt;Node180 -->
<g id="edge3" class="edge">
<title>Node181&#45;&gt;Node180</title>
<path fill="none" stroke="#191970" d="M301.1736,-134.6535C408.1101,-133.7312 632.634,-130.3549 822,-118 830.3215,-117.4571 839.0265,-116.7608 847.671,-115.9887"/>
<polygon fill="#191970" stroke="#191970" points="848.1304,-119.4612 857.7643,-115.0523 847.4837,-112.4912 848.1304,-119.4612"/>
</g>
<!-- Node182 -->
<g id="node4" class="node">
<title>Node182</title>
<g id="a_node4"><a xlink:href="$classAsteroids_1_1UI_1_1ClientTextUI_1_1ClientTextUI.html#a469a7cd3423794fa0ca7c34d95db5a10" xlink:title="Asteroids::UI::ClientText\lUI::ClientTextUI::purchasing\l_store_item">
<polygon fill="#ffffff" stroke="#000000" points="337,-76.5 337,-117.5 479,-117.5 479,-76.5 337,-76.5"/>
<text text-anchor="start" x="345" y="-105.5" font-family="Helvetica,sans-Serif" font-size="10.00" fill="#000000">Asteroids::UI::ClientText</text>
<text text-anchor="start" x="345" y="-94.5" font-family="Helvetica,sans-Serif" font-size="10.00" fill="#000000">UI::ClientTextUI::purchasing</text>
<text text-anchor="middle" x="408" y="-83.5" font-family="Helvetica,sans-Serif" font-size="10.00" fill="#000000">_store_item</text>
</a>
</g>
</g>
<!-- Node181&#45;&gt;Node182 -->
<g id="edge4" class="edge">
<title>Node181&#45;&gt;Node182</title>
<path fill="none" stroke="#191970" d="M301.134,-120.9582C309.5618,-119.0688 318.3033,-117.109 326.9922,-115.161"/>
<polygon fill="#191970" stroke="#191970" points="327.7684,-118.574 336.7605,-112.9711 326.237,-111.7435 327.7684,-118.574"/>
</g>
<!-- Node182&#45;&gt;Node180 -->
<g id="edge9" class="edge">
<title>Node182&#45;&gt;Node180</title>
<path fill="none" stroke="#191970" d="M479.2609,-98.5295C576.4852,-100.6163 749.7842,-104.3359 847.7687,-106.4389"/>
<polygon fill="#191970" stroke="#191970" points="847.809,-109.9405 857.8818,-106.656 847.9592,-102.9421 847.809,-109.9405"/>
</g>
<!-- Node183 -->
<g id="node5" class="node">
<title>Node183</title>
<g id="a_node5"><a xlink:href="$classAsteroids_1_1UI_1_1ClientTextUI_1_1ClientTextUI.html#a4613a9af03e06c960c467b0b6be44db9" xlink:title="Asteroids::UI::ClientText\lUI::ClientTextUI::pay_for\l_store_item">
<polygon fill="#ffffff" stroke="#000000" points="515,-38.5 515,-79.5 642,-79.5 642,-38.5 515,-38.5"/>
<text text-anchor="start" x="523" y="-67.5" font-family="Helvetica,sans-Serif" font-size="10.00" fill="#000000">Asteroids::UI::ClientText</text>
<text text-anchor="start" x="523" y="-56.5" font-family="Helvetica,sans-Serif" font-size="10.00" fill="#000000">UI::ClientTextUI::pay_for</text>
<text text-anchor="middle" x="578.5" y="-45.5" font-family="Helvetica,sans-Serif" font-size="10.00" fill="#000000">_store_item</text>
</a>
</g>
</g>
<!-- Node182&#45;&gt;Node183 -->
<g id="edge5" class="edge">
<title>Node182&#45;&gt;Node183</title>
<path fill="none" stroke="#191970" d="M479.3194,-81.1048C487.7803,-79.2191 496.4293,-77.2914 504.9208,-75.3989"/>
<polygon fill="#191970" stroke="#191970" points="505.797,-78.7895 514.7962,-73.1979 504.2742,-71.9572 505.797,-78.7895"/>
</g>
<!-- Node183&#45;&gt;Node180 -->
<g id="edge8" class="edge">
<title>Node183&#45;&gt;Node180</title>
<path fill="none" stroke="#191970" d="M642.0261,-68.1017C700.3982,-76.4649 786.8685,-88.854 847.9378,-97.6037"/>
<polygon fill="#191970" stroke="#191970" points="847.4963,-101.0761 857.8916,-99.0298 848.4891,-94.1468 847.4963,-101.0761"/>
</g>
<!-- Node184 -->
<g id="node6" class="node">
<title>Node184</title>
<g id="a_node6"><a xlink:href="$classAsteroids_1_1UI_1_1ClientTextUI_1_1ClientTextUI.html#a02d420d49c44459fe7a2af9b0000adf9" xlink:title="Asteroids::UI::ClientText\lUI::ClientTextUI::pay_for\l_store_item_with_credit_card">
<polygon fill="#ffffff" stroke="#000000" points="678,-.5 678,-41.5 822,-41.5 822,-.5 678,-.5"/>
<text text-anchor="start" x="686" y="-29.5" font-family="Helvetica,sans-Serif" font-size="10.00" fill="#000000">Asteroids::UI::ClientText</text>
<text text-anchor="start" x="686" y="-18.5" font-family="Helvetica,sans-Serif" font-size="10.00" fill="#000000">UI::ClientTextUI::pay_for</text>
<text text-anchor="middle" x="750" y="-7.5" font-family="Helvetica,sans-Serif" font-size="10.00" fill="#000000">_store_item_with_credit_card</text>
</a>
</g>
</g>
<!-- Node183&#45;&gt;Node184 -->
<g id="edge6" class="edge">
<title>Node183&#45;&gt;Node184</title>
<path fill="none" stroke="#191970" d="M642.3603,-44.8502C650.6427,-43.015 659.217,-41.1152 667.7453,-39.2255"/>
<polygon fill="#191970" stroke="#191970" points="668.7091,-42.5969 677.7152,-37.0165 667.1948,-35.7627 668.7091,-42.5969"/>
</g>
<!-- Node184&#45;&gt;Node180 -->
<g id="edge7" class="edge">
<title>Node184&#45;&gt;Node180</title>
<path fill="none" stroke="#191970" d="M793.1376,-41.6807C802.6723,-46.3321 812.7021,-51.2875 822,-56 842.5102,-66.3953 865.2184,-78.3527 883.6576,-88.1782"/>
<polygon fill="#191970" stroke="#191970" points="882.1371,-91.334 892.6067,-92.9579 885.4349,-85.1595 882.1371,-91.334"/>
</g>
</g>
</svg>
