<?xml version="1.0" encoding="UTF-8" standalone="no"?>
<!DOCTYPE svg PUBLIC "-//W3C//DTD SVG 1.1//EN"
 "http://www.w3.org/Graphics/SVG/1.1/DTD/svg11.dtd">
<!-- Generated by graphviz version 2.40.1 (20161225.0304)
 -->
<!-- Title: Asteroids::UI::UIFactory Pages: 1 -->
<svg width="132pt" height="215pt"
 viewBox="0.00 0.00 132.00 215.00" xmlns="http://www.w3.org/2000/svg" xmlns:xlink="http://www.w3.org/1999/xlink">
<g id="graph0" class="graph" transform="scale(1 1) rotate(0) translate(4 211)">
<title>Asteroids::UI::UIFactory</title>
<polygon fill="#ffffff" stroke="transparent" points="-4,4 -4,-211 128,-211 128,4 -4,4"/>
<!-- Node0 -->
<g id="node1" class="node">
<title>Node0</title>
<polygon fill="#bfbfbf" stroke="#000000" points="0,-.5 0,-90.5 124,-90.5 124,-.5 0,-.5"/>
<text text-anchor="middle" x="62" y="-78.5" font-family="Helvetica,sans-Serif" font-size="10.00" fill="#000000">Asteroids::UI::UIFactory</text>
<polyline fill="none" stroke="#000000" points="0,-71.5 124,-71.5 "/>
<text text-anchor="start" x="8" y="-59.5" font-family="Helvetica,sans-Serif" font-size="10.00" fill="#000000">&#45; _factory</text>
<polyline fill="none" stroke="#000000" points="0,-52.5 124,-52.5 "/>
<text text-anchor="start" x="8" y="-40.5" font-family="Helvetica,sans-Serif" font-size="10.00" fill="#000000">+ UIFactory()</text>
<text text-anchor="start" x="8" y="-29.5" font-family="Helvetica,sans-Serif" font-size="10.00" fill="#000000">+ createClientTextUI()</text>
<text text-anchor="start" x="8" y="-18.5" font-family="Helvetica,sans-Serif" font-size="10.00" fill="#000000">+ createServerTextUI()</text>
<text text-anchor="start" x="8" y="-7.5" font-family="Helvetica,sans-Serif" font-size="10.00" fill="#000000">&#45; init()</text>
</g>
<!-- Node1 -->
<g id="node2" class="node">
<title>Node1</title>
<g id="a_node2"><a xlink:href="$classAsteroids_1_1UI_1_1UIFactoryInterface.html" xlink:title="Creates things inside the UI package. ">
<polygon fill="#ffffff" stroke="#000000" points="0,-127.5 0,-206.5 124,-206.5 124,-127.5 0,-127.5"/>
<text text-anchor="start" x="8" y="-194.5" font-family="Helvetica,sans-Serif" font-size="10.00" fill="#000000">Asteroids::UI::UIFactory</text>
<text text-anchor="middle" x="62" y="-183.5" font-family="Helvetica,sans-Serif" font-size="10.00" fill="#000000">Interface</text>
<polyline fill="none" stroke="#000000" points="0,-176.5 124,-176.5 "/>
<text text-anchor="middle" x="62" y="-164.5" font-family="Helvetica,sans-Serif" font-size="10.00" fill="#000000"> </text>
<polyline fill="none" stroke="#000000" points="0,-157.5 124,-157.5 "/>
<text text-anchor="start" x="8" y="-145.5" font-family="Helvetica,sans-Serif" font-size="10.00" fill="#000000">+ createClientTextUI()</text>
<text text-anchor="start" x="8" y="-134.5" font-family="Helvetica,sans-Serif" font-size="10.00" fill="#000000">+ createServerTextUI()</text>
</a>
</g>
</g>
<!-- Node1&#45;&gt;Node0 -->
<g id="edge1" class="edge">
<title>Node1&#45;&gt;Node0</title>
<path fill="none" stroke="#191970" d="M62,-117.1739C62,-108.4596 62,-99.4352 62,-90.8501"/>
<polygon fill="none" stroke="#191970" points="58.5001,-117.2163 62,-127.2164 65.5001,-117.2164 58.5001,-117.2163"/>
</g>
</g>
</svg>
