<?xml version="1.0" encoding="UTF-8" standalone="no"?>
<!DOCTYPE svg PUBLIC "-//W3C//DTD SVG 1.1//EN"
 "http://www.w3.org/Graphics/SVG/1.1/DTD/svg11.dtd">
<!-- Generated by graphviz version 2.40.1 (20161225.0304)
 -->
<!-- Title: Asteroids::Domain::Store::STORE_ITEM Pages: 1 -->
<svg width="277pt" height="541pt"
 viewBox="0.00 0.00 277.00 541.00" xmlns="http://www.w3.org/2000/svg" xmlns:xlink="http://www.w3.org/1999/xlink">
<g id="graph0" class="graph" transform="scale(1 1) rotate(0) translate(4 537)">
<title>Asteroids::Domain::Store::STORE_ITEM</title>
<polygon fill="#ffffff" stroke="transparent" points="-4,4 -4,-537 273,-537 273,4 -4,4"/>
<!-- Node2 -->
<g id="node1" class="node">
<title>Node2</title>
<polygon fill="#bfbfbf" stroke="#000000" points="33.5,-.5 33.5,-233.5 171.5,-233.5 171.5,-.5 33.5,-.5"/>
<text text-anchor="start" x="41.5" y="-221.5" font-family="Helvetica,sans-Serif" font-size="10.00" fill="#000000">Asteroids::Domain::</text>
<text text-anchor="middle" x="102.5" y="-210.5" font-family="Helvetica,sans-Serif" font-size="10.00" fill="#000000">Store::STORE_ITEM</text>
<polyline fill="none" stroke="#000000" points="33.5,-203.5 171.5,-203.5 "/>
<text text-anchor="start" x="41.5" y="-191.5" font-family="Helvetica,sans-Serif" font-size="10.00" fill="#000000">&#45; _price_currency_type</text>
<text text-anchor="start" x="41.5" y="-180.5" font-family="Helvetica,sans-Serif" font-size="10.00" fill="#000000">&#45; _price_units</text>
<polyline fill="none" stroke="#000000" points="33.5,-173.5 171.5,-173.5 "/>
<text text-anchor="start" x="41.5" y="-161.5" font-family="Helvetica,sans-Serif" font-size="10.00" fill="#000000">+ STORE_ITEM()</text>
<text text-anchor="start" x="41.5" y="-150.5" font-family="Helvetica,sans-Serif" font-size="10.00" fill="#000000">+ get_description()</text>
<text text-anchor="start" x="41.5" y="-139.5" font-family="Helvetica,sans-Serif" font-size="10.00" fill="#000000">+ get_formatted_price()</text>
<text text-anchor="start" x="41.5" y="-128.5" font-family="Helvetica,sans-Serif" font-size="10.00" fill="#000000">+ get_name()</text>
<text text-anchor="start" x="41.5" y="-117.5" font-family="Helvetica,sans-Serif" font-size="10.00" fill="#000000">+ get_price_currency()</text>
<text text-anchor="start" x="41.5" y="-106.5" font-family="Helvetica,sans-Serif" font-size="10.00" fill="#000000">+ get_price_currency</text>
<text text-anchor="start" x="41.5" y="-95.5" font-family="Helvetica,sans-Serif" font-size="10.00" fill="#000000">_as_string()</text>
<text text-anchor="start" x="41.5" y="-84.5" font-family="Helvetica,sans-Serif" font-size="10.00" fill="#000000">+ get_price_units()</text>
<text text-anchor="start" x="41.5" y="-73.5" font-family="Helvetica,sans-Serif" font-size="10.00" fill="#000000">+ reset()</text>
<text text-anchor="start" x="41.5" y="-62.5" font-family="Helvetica,sans-Serif" font-size="10.00" fill="#000000">+ set_description()</text>
<text text-anchor="start" x="41.5" y="-51.5" font-family="Helvetica,sans-Serif" font-size="10.00" fill="#000000">+ set_name()</text>
<text text-anchor="start" x="41.5" y="-40.5" font-family="Helvetica,sans-Serif" font-size="10.00" fill="#000000">+ set_price_currency()</text>
<text text-anchor="start" x="41.5" y="-29.5" font-family="Helvetica,sans-Serif" font-size="10.00" fill="#000000">+ set_price_units()</text>
<text text-anchor="start" x="41.5" y="-18.5" font-family="Helvetica,sans-Serif" font-size="10.00" fill="#000000">+ price_currency_to_string()</text>
<text text-anchor="start" x="41.5" y="-7.5" font-family="Helvetica,sans-Serif" font-size="10.00" fill="#000000">&#45; init()</text>
</g>
<!-- Node3 -->
<g id="node2" class="node">
<title>Node3</title>
<g id="a_node2"><a xlink:href="$classAsteroids_1_1Domain_1_1Store_1_1STORE__ITEM__INTERFACE.html" xlink:title="Interface for one item available for purchase, inside the Store. ">
<polygon fill="#ffffff" stroke="#000000" points="0,-292.5 0,-426.5 173,-426.5 173,-292.5 0,-292.5"/>
<text text-anchor="start" x="8" y="-414.5" font-family="Helvetica,sans-Serif" font-size="10.00" fill="#000000">Asteroids::Domain::</text>
<text text-anchor="middle" x="86.5" y="-403.5" font-family="Helvetica,sans-Serif" font-size="10.00" fill="#000000">Store::STORE_ITEM_INTERFACE</text>
<polyline fill="none" stroke="#000000" points="0,-396.5 173,-396.5 "/>
<text text-anchor="middle" x="86.5" y="-384.5" font-family="Helvetica,sans-Serif" font-size="10.00" fill="#000000"> </text>
<polyline fill="none" stroke="#000000" points="0,-377.5 173,-377.5 "/>
<text text-anchor="start" x="8" y="-365.5" font-family="Helvetica,sans-Serif" font-size="10.00" fill="#000000">+ get_description()</text>
<text text-anchor="start" x="8" y="-354.5" font-family="Helvetica,sans-Serif" font-size="10.00" fill="#000000">+ get_formatted_price()</text>
<text text-anchor="start" x="8" y="-343.5" font-family="Helvetica,sans-Serif" font-size="10.00" fill="#000000">+ get_name()</text>
<text text-anchor="start" x="8" y="-332.5" font-family="Helvetica,sans-Serif" font-size="10.00" fill="#000000">+ get_price_currency()</text>
<text text-anchor="start" x="8" y="-321.5" font-family="Helvetica,sans-Serif" font-size="10.00" fill="#000000">+ get_price_currency</text>
<text text-anchor="start" x="8" y="-310.5" font-family="Helvetica,sans-Serif" font-size="10.00" fill="#000000">_as_string()</text>
<text text-anchor="start" x="8" y="-299.5" font-family="Helvetica,sans-Serif" font-size="10.00" fill="#000000">+ get_price_units()</text>
</a>
</g>
</g>
<!-- Node3&#45;&gt;Node2 -->
<g id="edge1" class="edge">
<title>Node3&#45;&gt;Node2</title>
<path fill="none" stroke="#191970" d="M91.596,-282.2641C92.6181,-266.7718 93.7135,-250.1703 94.8014,-233.6816"/>
<polygon fill="none" stroke="#191970" points="88.1017,-282.0635 90.9356,-292.2723 95.0865,-282.5244 88.1017,-282.0635"/>
</g>
<!-- Node4 -->
<g id="node3" class="node">
<title>Node4</title>
<g id="a_node3"><a xlink:title="STL class. ">
<polygon fill="#ffffff" stroke="#bfbfbf" points="191.5,-331 191.5,-388 251.5,-388 251.5,-331 191.5,-331"/>
<text text-anchor="middle" x="221.5" y="-376" font-family="Helvetica,sans-Serif" font-size="10.00" fill="#000000">std::string</text>
<polyline fill="none" stroke="#bfbfbf" points="191.5,-369 251.5,-369 "/>
<text text-anchor="middle" x="221.5" y="-357" font-family="Helvetica,sans-Serif" font-size="10.00" fill="#000000"> </text>
<polyline fill="none" stroke="#bfbfbf" points="191.5,-350 251.5,-350 "/>
<text text-anchor="middle" x="221.5" y="-338" font-family="Helvetica,sans-Serif" font-size="10.00" fill="#000000"> </text>
</a>
</g>
</g>
<!-- Node4&#45;&gt;Node2 -->
<g id="edge2" class="edge">
<title>Node4&#45;&gt;Node2</title>
<path fill="none" stroke="#404040" d="M207.3818,-330.7298C196.651,-308.8624 181.0717,-277.1146 165.1885,-244.7476"/>
<polygon fill="none" stroke="#404040" points="165.0835,-244.5335 158.8493,-240.9092 159.797,-233.7607 166.0312,-237.3849 165.0835,-244.5335"/>
<text text-anchor="middle" x="205" y="-266" font-family="Helvetica,sans-Serif" font-size="10.00" fill="#000000"> &#45;_description</text>
<text text-anchor="middle" x="205" y="-255" font-family="Helvetica,sans-Serif" font-size="10.00" fill="#000000">&#45;_name</text>
</g>
<!-- Node5 -->
<g id="node4" class="node">
<title>Node5</title>
<g id="a_node4"><a xlink:title="STL class. ">
<polygon fill="#ffffff" stroke="#bfbfbf" points="174,-464.5 174,-532.5 269,-532.5 269,-464.5 174,-464.5"/>
<text text-anchor="start" x="182" y="-520.5" font-family="Helvetica,sans-Serif" font-size="10.00" fill="#000000">std::basic_string&lt;</text>
<text text-anchor="middle" x="221.5" y="-509.5" font-family="Helvetica,sans-Serif" font-size="10.00" fill="#000000"> char &gt;</text>
<polyline fill="none" stroke="#bfbfbf" points="174,-502.5 269,-502.5 "/>
<text text-anchor="middle" x="221.5" y="-490.5" font-family="Helvetica,sans-Serif" font-size="10.00" fill="#000000"> </text>
<polyline fill="none" stroke="#bfbfbf" points="174,-483.5 269,-483.5 "/>
<text text-anchor="middle" x="221.5" y="-471.5" font-family="Helvetica,sans-Serif" font-size="10.00" fill="#000000"> </text>
</a>
</g>
</g>
<!-- Node5&#45;&gt;Node4 -->
<g id="edge3" class="edge">
<title>Node5&#45;&gt;Node4</title>
<path fill="none" stroke="#191970" d="M221.5,-454.2755C221.5,-432.7526 221.5,-407.4856 221.5,-388.4552"/>
<polygon fill="none" stroke="#191970" points="218.0001,-454.4967 221.5,-464.4968 225.0001,-454.4968 218.0001,-454.4967"/>
</g>
</g>
</svg>
