<?xml version="1.0" encoding="UTF-8" standalone="no"?>
<!DOCTYPE svg PUBLIC "-//W3C//DTD SVG 1.1//EN"
 "http://www.w3.org/Graphics/SVG/1.1/DTD/svg11.dtd">
<!-- Generated by graphviz version 2.40.1 (20161225.0304)
 -->
<!-- Title: Asteroids::Domain::Game::Randomer::roll_bool Pages: 1 -->
<svg width="293pt" height="50pt"
 viewBox="0.00 0.00 293.00 50.00" xmlns="http://www.w3.org/2000/svg" xmlns:xlink="http://www.w3.org/1999/xlink">
<g id="graph0" class="graph" transform="scale(1 1) rotate(0) translate(4 46)">
<title>Asteroids::Domain::Game::Randomer::roll_bool</title>
<polygon fill="#ffffff" stroke="transparent" points="-4,4 -4,-46 289,-46 289,4 -4,4"/>
<!-- Node17 -->
<g id="node1" class="node">
<title>Node17</title>
<polygon fill="#bfbfbf" stroke="#000000" points="0,-6 0,-36 136,-36 136,-6 0,-6"/>
<text text-anchor="start" x="8" y="-24" font-family="Helvetica,sans-Serif" font-size="10.00" fill="#000000">Asteroids::Domain::</text>
<text text-anchor="middle" x="68" y="-13" font-family="Helvetica,sans-Serif" font-size="10.00" fill="#000000">Game::Randomer::roll_bool</text>
</g>
<!-- Node18 -->
<g id="node2" class="node">
<title>Node18</title>
<g id="a_node2"><a xlink:href="$classAsteroids_1_1Domain_1_1Game_1_1Randomer.html#a43965ff48fe73e5eef6e1c223a94f463" xlink:title="Asteroids::Domain::\lGame::Randomer::get\l_double">
<polygon fill="#ffffff" stroke="#000000" points="172,-.5 172,-41.5 285,-41.5 285,-.5 172,-.5"/>
<text text-anchor="start" x="180" y="-29.5" font-family="Helvetica,sans-Serif" font-size="10.00" fill="#000000">Asteroids::Domain::</text>
<text text-anchor="start" x="180" y="-18.5" font-family="Helvetica,sans-Serif" font-size="10.00" fill="#000000">Game::Randomer::get</text>
<text text-anchor="middle" x="228.5" y="-7.5" font-family="Helvetica,sans-Serif" font-size="10.00" fill="#000000">_double</text>
</a>
</g>
</g>
<!-- Node17&#45;&gt;Node18 -->
<g id="edge1" class="edge">
<title>Node17&#45;&gt;Node18</title>
<path fill="none" stroke="#191970" d="M136.0664,-21C144.5702,-21 153.2608,-21 161.7443,-21"/>
<polygon fill="#191970" stroke="#191970" points="161.9631,-24.5001 171.9631,-21 161.9631,-17.5001 161.9631,-24.5001"/>
</g>
</g>
</svg>
