<?xml version="1.0" encoding="UTF-8" standalone="no"?>
<!DOCTYPE svg PUBLIC "-//W3C//DTD SVG 1.1//EN"
 "http://www.w3.org/Graphics/SVG/1.1/DTD/svg11.dtd">
<!-- Generated by graphviz version 2.40.1 (20161225.0304)
 -->
<!-- Title: Asteroids::Domain::Game::Game::start Pages: 1 -->
<svg width="603pt" height="110pt"
 viewBox="0.00 0.00 603.00 110.00" xmlns="http://www.w3.org/2000/svg" xmlns:xlink="http://www.w3.org/1999/xlink">
<g id="graph0" class="graph" transform="scale(1 1) rotate(0) translate(4 106)">
<title>Asteroids::Domain::Game::Game::start</title>
<polygon fill="#ffffff" stroke="transparent" points="-4,4 -4,-106 599,-106 599,4 -4,4"/>
<!-- Node87 -->
<g id="node1" class="node">
<title>Node87</title>
<polygon fill="#bfbfbf" stroke="#000000" points="0,-36 0,-66 104,-66 104,-36 0,-36"/>
<text text-anchor="start" x="8" y="-54" font-family="Helvetica,sans-Serif" font-size="10.00" fill="#000000">Asteroids::Domain::</text>
<text text-anchor="middle" x="52" y="-43" font-family="Helvetica,sans-Serif" font-size="10.00" fill="#000000">Game::Game::start</text>
</g>
<!-- Node88 -->
<g id="node2" class="node">
<title>Node88</title>
<g id="a_node2"><a xlink:href="$classAsteroids_1_1Domain_1_1Game_1_1Game.html#a5de32d7dcb5350720e625be3d40cee54" xlink:title="Asteroids::Domain::\lGame::Game::randomly\l_place_player">
<polygon fill="#ffffff" stroke="#000000" points="306,-60.5 306,-101.5 427,-101.5 427,-60.5 306,-60.5"/>
<text text-anchor="start" x="314" y="-89.5" font-family="Helvetica,sans-Serif" font-size="10.00" fill="#000000">Asteroids::Domain::</text>
<text text-anchor="start" x="314" y="-78.5" font-family="Helvetica,sans-Serif" font-size="10.00" fill="#000000">Game::Game::randomly</text>
<text text-anchor="middle" x="366.5" y="-67.5" font-family="Helvetica,sans-Serif" font-size="10.00" fill="#000000">_place_player</text>
</a>
</g>
</g>
<!-- Node87&#45;&gt;Node88 -->
<g id="edge1" class="edge">
<title>Node87&#45;&gt;Node88</title>
<path fill="none" stroke="#191970" d="M104.2863,-55.9876C156.6019,-60.9779 237.443,-68.6893 295.5318,-74.2304"/>
<polygon fill="#191970" stroke="#191970" points="295.4507,-77.7384 305.7379,-75.2039 296.1154,-70.7701 295.4507,-77.7384"/>
</g>
<!-- Node90 -->
<g id="node4" class="node">
<title>Node90</title>
<g id="a_node4"><a xlink:href="$classAsteroids_1_1Domain_1_1Game_1_1Game.html#aa242712e038fce29760d53eb1d57c9fb" xlink:title="Asteroids::Domain::\lGame::Game::start_round">
<polygon fill="#ffffff" stroke="#000000" points="140,-14 140,-44 270,-44 270,-14 140,-14"/>
<text text-anchor="start" x="148" y="-32" font-family="Helvetica,sans-Serif" font-size="10.00" fill="#000000">Asteroids::Domain::</text>
<text text-anchor="middle" x="205" y="-21" font-family="Helvetica,sans-Serif" font-size="10.00" fill="#000000">Game::Game::start_round</text>
</a>
</g>
</g>
<!-- Node87&#45;&gt;Node90 -->
<g id="edge3" class="edge">
<title>Node87&#45;&gt;Node90</title>
<path fill="none" stroke="#191970" d="M104.226,-43.4904C112.4392,-42.3094 121.0688,-41.0685 129.6785,-39.8305"/>
<polygon fill="#191970" stroke="#191970" points="130.3502,-43.27 139.7502,-38.3823 129.3538,-36.3413 130.3502,-43.27"/>
</g>
<!-- Node89 -->
<g id="node3" class="node">
<title>Node89</title>
<g id="a_node3"><a xlink:href="$classAsteroids_1_1Domain_1_1Game_1_1Game.html#a798922774fed23c593a476338acf7100" xlink:title="Asteroids::Domain::\lGame::Game::get_random\l_board_position">
<polygon fill="#ffffff" stroke="#000000" points="463,-30.5 463,-71.5 595,-71.5 595,-30.5 463,-30.5"/>
<text text-anchor="start" x="471" y="-59.5" font-family="Helvetica,sans-Serif" font-size="10.00" fill="#000000">Asteroids::Domain::</text>
<text text-anchor="start" x="471" y="-48.5" font-family="Helvetica,sans-Serif" font-size="10.00" fill="#000000">Game::Game::get_random</text>
<text text-anchor="middle" x="529" y="-37.5" font-family="Helvetica,sans-Serif" font-size="10.00" fill="#000000">_board_position</text>
</a>
</g>
</g>
<!-- Node88&#45;&gt;Node89 -->
<g id="edge2" class="edge">
<title>Node88&#45;&gt;Node89</title>
<path fill="none" stroke="#191970" d="M427.009,-69.8291C435.5321,-68.2556 444.3816,-66.6219 453.1469,-65.0037"/>
<polygon fill="#191970" stroke="#191970" points="453.7872,-68.4447 462.9856,-63.1873 452.5163,-61.561 453.7872,-68.4447"/>
</g>
<!-- Node91 -->
<g id="node5" class="node">
<title>Node91</title>
<g id="a_node5"><a xlink:href="$classAsteroids_1_1Domain_1_1Game_1_1Game.html#ad3a7040e8cc0b14228f46577ecf2bc78" xlink:title="Asteroids::Domain::\lGame::Game::initialize\l_random_rocks">
<polygon fill="#ffffff" stroke="#000000" points="308.5,-.5 308.5,-41.5 424.5,-41.5 424.5,-.5 308.5,-.5"/>
<text text-anchor="start" x="316.5" y="-29.5" font-family="Helvetica,sans-Serif" font-size="10.00" fill="#000000">Asteroids::Domain::</text>
<text text-anchor="start" x="316.5" y="-18.5" font-family="Helvetica,sans-Serif" font-size="10.00" fill="#000000">Game::Game::initialize</text>
<text text-anchor="middle" x="366.5" y="-7.5" font-family="Helvetica,sans-Serif" font-size="10.00" fill="#000000">_random_rocks</text>
</a>
</g>
</g>
<!-- Node90&#45;&gt;Node91 -->
<g id="edge4" class="edge">
<title>Node90&#45;&gt;Node91</title>
<path fill="none" stroke="#191970" d="M270.2227,-25.7692C279.4804,-25.3106 289.0211,-24.838 298.3329,-24.3767"/>
<polygon fill="#191970" stroke="#191970" points="298.5086,-27.8724 308.3232,-23.8818 298.1622,-20.881 298.5086,-27.8724"/>
</g>
<!-- Node91&#45;&gt;Node89 -->
<g id="edge5" class="edge">
<title>Node91&#45;&gt;Node89</title>
<path fill="none" stroke="#191970" d="M424.7072,-31.746C433.8996,-33.443 443.5209,-35.2192 453.0448,-36.9775"/>
<polygon fill="#191970" stroke="#191970" points="452.4431,-40.4255 462.9124,-38.7992 453.714,-33.5418 452.4431,-40.4255"/>
</g>
</g>
</svg>
