<?xml version="1.0" encoding="UTF-8" standalone="no"?>
<!DOCTYPE svg PUBLIC "-//W3C//DTD SVG 1.1//EN"
 "http://www.w3.org/Graphics/SVG/1.1/DTD/svg11.dtd">
<!-- Generated by graphviz version 2.40.1 (20161225.0304)
 -->
<!-- Title: Asteroids::UI::UIFactory::UIFactory Pages: 1 -->
<svg width="292pt" height="39pt"
 viewBox="0.00 0.00 292.00 39.00" xmlns="http://www.w3.org/2000/svg" xmlns:xlink="http://www.w3.org/1999/xlink">
<g id="graph0" class="graph" transform="scale(1 1) rotate(0) translate(4 35)">
<title>Asteroids::UI::UIFactory::UIFactory</title>
<polygon fill="#ffffff" stroke="transparent" points="-4,4 -4,-35 288,-35 288,4 -4,4"/>
<!-- Node0 -->
<g id="node1" class="node">
<title>Node0</title>
<polygon fill="#bfbfbf" stroke="#000000" points="0,-.5 0,-30.5 124,-30.5 124,-.5 0,-.5"/>
<text text-anchor="start" x="8" y="-18.5" font-family="Helvetica,sans-Serif" font-size="10.00" fill="#000000">Asteroids::UI::UIFactory</text>
<text text-anchor="middle" x="62" y="-7.5" font-family="Helvetica,sans-Serif" font-size="10.00" fill="#000000">::UIFactory</text>
</g>
<!-- Node1 -->
<g id="node2" class="node">
<title>Node1</title>
<g id="a_node2"><a xlink:href="$classAsteroids_1_1UI_1_1UIFactory.html#a4b3a29aad342a46b3ab713ca402095b6" xlink:title="Asteroids::UI::UIFactory\l::init">
<polygon fill="#ffffff" stroke="#000000" points="160,-.5 160,-30.5 284,-30.5 284,-.5 160,-.5"/>
<text text-anchor="start" x="168" y="-18.5" font-family="Helvetica,sans-Serif" font-size="10.00" fill="#000000">Asteroids::UI::UIFactory</text>
<text text-anchor="middle" x="222" y="-7.5" font-family="Helvetica,sans-Serif" font-size="10.00" fill="#000000">::init</text>
</a>
</g>
</g>
<!-- Node0&#45;&gt;Node1 -->
<g id="edge1" class="edge">
<title>Node0&#45;&gt;Node1</title>
<path fill="none" stroke="#191970" d="M124.3183,-15.5C132.615,-15.5 141.1788,-15.5 149.628,-15.5"/>
<polygon fill="#191970" stroke="#191970" points="149.8518,-19.0001 159.8518,-15.5 149.8517,-12.0001 149.8518,-19.0001"/>
</g>
</g>
</svg>
