<?xml version="1.0" encoding="UTF-8" standalone="no"?>
<!DOCTYPE svg PUBLIC "-//W3C//DTD SVG 1.1//EN"
 "http://www.w3.org/Graphics/SVG/1.1/DTD/svg11.dtd">
<!-- Generated by graphviz version 2.40.1 (20161225.0304)
 -->
<!-- Title: Asteroids::Domain::Server::HACCS_REPORT::HACCS_REPORT Pages: 1 -->
<svg width="312pt" height="50pt"
 viewBox="0.00 0.00 312.00 50.00" xmlns="http://www.w3.org/2000/svg" xmlns:xlink="http://www.w3.org/1999/xlink">
<g id="graph0" class="graph" transform="scale(1 1) rotate(0) translate(4 46)">
<title>Asteroids::Domain::Server::HACCS_REPORT::HACCS_REPORT</title>
<polygon fill="#ffffff" stroke="transparent" points="-4,4 -4,-46 308,-46 308,4 -4,4"/>
<!-- Node0 -->
<g id="node1" class="node">
<title>Node0</title>
<polygon fill="#bfbfbf" stroke="#000000" points="0,-.5 0,-41.5 134,-41.5 134,-.5 0,-.5"/>
<text text-anchor="start" x="8" y="-29.5" font-family="Helvetica,sans-Serif" font-size="10.00" fill="#000000">Asteroids::Domain::</text>
<text text-anchor="start" x="8" y="-18.5" font-family="Helvetica,sans-Serif" font-size="10.00" fill="#000000">Server::HACCS_REPORT</text>
<text text-anchor="middle" x="67" y="-7.5" font-family="Helvetica,sans-Serif" font-size="10.00" fill="#000000">::HACCS_REPORT</text>
</g>
<!-- Node1 -->
<g id="node2" class="node">
<title>Node1</title>
<g id="a_node2"><a xlink:href="$classAsteroids_1_1Domain_1_1Server_1_1HACCS__REPORT.html#a8ac70a5b53e7c93a8cefd963c35f3efa" xlink:title="Asteroids::Domain::\lServer::HACCS_REPORT\l::reset">
<polygon fill="#ffffff" stroke="#000000" points="170,-.5 170,-41.5 304,-41.5 304,-.5 170,-.5"/>
<text text-anchor="start" x="178" y="-29.5" font-family="Helvetica,sans-Serif" font-size="10.00" fill="#000000">Asteroids::Domain::</text>
<text text-anchor="start" x="178" y="-18.5" font-family="Helvetica,sans-Serif" font-size="10.00" fill="#000000">Server::HACCS_REPORT</text>
<text text-anchor="middle" x="237" y="-7.5" font-family="Helvetica,sans-Serif" font-size="10.00" fill="#000000">::reset</text>
</a>
</g>
</g>
<!-- Node0&#45;&gt;Node1 -->
<g id="edge1" class="edge">
<title>Node0&#45;&gt;Node1</title>
<path fill="none" stroke="#191970" d="M134.1885,-21C142.5021,-21 151.0537,-21 159.5056,-21"/>
<polygon fill="#191970" stroke="#191970" points="159.7429,-24.5001 169.7428,-21 159.7428,-17.5001 159.7429,-24.5001"/>
</g>
</g>
</svg>
