<?xml version="1.0" encoding="UTF-8" standalone="no"?>
<!DOCTYPE svg PUBLIC "-//W3C//DTD SVG 1.1//EN"
 "http://www.w3.org/Graphics/SVG/1.1/DTD/svg11.dtd">
<!-- Generated by graphviz version 2.40.1 (20161225.0304)
 -->
<!-- Title: Asteroids::Domain::Game::Game::get_random_board_position Pages: 1 -->
<svg width="961pt" height="103pt"
 viewBox="0.00 0.00 961.00 103.00" xmlns="http://www.w3.org/2000/svg" xmlns:xlink="http://www.w3.org/1999/xlink">
<g id="graph0" class="graph" transform="scale(1 1) rotate(0) translate(4 99)">
<title>Asteroids::Domain::Game::Game::get_random_board_position</title>
<polygon fill="#ffffff" stroke="transparent" points="-4,4 -4,-99 957,-99 957,4 -4,4"/>
<!-- Node25 -->
<g id="node1" class="node">
<title>Node25</title>
<polygon fill="#bfbfbf" stroke="#000000" points="0,-27.5 0,-68.5 132,-68.5 132,-27.5 0,-27.5"/>
<text text-anchor="start" x="8" y="-56.5" font-family="Helvetica,sans-Serif" font-size="10.00" fill="#000000">Asteroids::Domain::</text>
<text text-anchor="start" x="8" y="-45.5" font-family="Helvetica,sans-Serif" font-size="10.00" fill="#000000">Game::Game::get_random</text>
<text text-anchor="middle" x="66" y="-34.5" font-family="Helvetica,sans-Serif" font-size="10.00" fill="#000000">_board_position</text>
</g>
<!-- Node26 -->
<g id="node2" class="node">
<title>Node26</title>
<g id="a_node2"><a xlink:href="$classAsteroids_1_1Domain_1_1Game_1_1Game.html#ad3a7040e8cc0b14228f46577ecf2bc78" xlink:title="Asteroids::Domain::\lGame::Game::initialize\l_random_rocks">
<polygon fill="#ffffff" stroke="#000000" points="168,-53.5 168,-94.5 284,-94.5 284,-53.5 168,-53.5"/>
<text text-anchor="start" x="176" y="-82.5" font-family="Helvetica,sans-Serif" font-size="10.00" fill="#000000">Asteroids::Domain::</text>
<text text-anchor="start" x="176" y="-71.5" font-family="Helvetica,sans-Serif" font-size="10.00" fill="#000000">Game::Game::initialize</text>
<text text-anchor="middle" x="226" y="-60.5" font-family="Helvetica,sans-Serif" font-size="10.00" fill="#000000">_random_rocks</text>
</a>
</g>
</g>
<!-- Node25&#45;&gt;Node26 -->
<g id="edge1" class="edge">
<title>Node25&#45;&gt;Node26</title>
<path fill="none" stroke="#191970" d="M142.1016,-60.3665C150.7495,-61.7718 159.4584,-63.187 167.8226,-64.5462"/>
<polygon fill="#191970" stroke="#191970" points="142.4338,-56.8747 132.0019,-58.7253 141.311,-63.784 142.4338,-56.8747"/>
</g>
<!-- Node32 -->
<g id="node8" class="node">
<title>Node32</title>
<g id="a_node8"><a xlink:href="$classAsteroids_1_1Domain_1_1Game_1_1Game.html#a5de32d7dcb5350720e625be3d40cee54" xlink:title="Asteroids::Domain::\lGame::Game::randomly\l_place_player">
<polygon fill="#ffffff" stroke="#000000" points="324.5,-.5 324.5,-41.5 445.5,-41.5 445.5,-.5 324.5,-.5"/>
<text text-anchor="start" x="332.5" y="-29.5" font-family="Helvetica,sans-Serif" font-size="10.00" fill="#000000">Asteroids::Domain::</text>
<text text-anchor="start" x="332.5" y="-18.5" font-family="Helvetica,sans-Serif" font-size="10.00" fill="#000000">Game::Game::randomly</text>
<text text-anchor="middle" x="385" y="-7.5" font-family="Helvetica,sans-Serif" font-size="10.00" fill="#000000">_place_player</text>
</a>
</g>
</g>
<!-- Node25&#45;&gt;Node32 -->
<g id="edge7" class="edge">
<title>Node25&#45;&gt;Node32</title>
<path fill="none" stroke="#191970" d="M142.2808,-41.5436C198.0478,-36.8235 272.6679,-30.5077 324.3828,-26.1306"/>
<polygon fill="#191970" stroke="#191970" points="141.7662,-38.0746 132.097,-42.4056 142.3566,-45.0496 141.7662,-38.0746"/>
</g>
<!-- Node27 -->
<g id="node3" class="node">
<title>Node27</title>
<g id="a_node3"><a xlink:href="$classAsteroids_1_1Domain_1_1Game_1_1Game.html#aa242712e038fce29760d53eb1d57c9fb" xlink:title="Asteroids::Domain::\lGame::Game::start_round">
<polygon fill="#ffffff" stroke="#000000" points="320,-61 320,-91 450,-91 450,-61 320,-61"/>
<text text-anchor="start" x="328" y="-79" font-family="Helvetica,sans-Serif" font-size="10.00" fill="#000000">Asteroids::Domain::</text>
<text text-anchor="middle" x="385" y="-68" font-family="Helvetica,sans-Serif" font-size="10.00" fill="#000000">Game::Game::start_round</text>
</a>
</g>
</g>
<!-- Node26&#45;&gt;Node27 -->
<g id="edge2" class="edge">
<title>Node26&#45;&gt;Node27</title>
<path fill="none" stroke="#191970" d="M294.5081,-74.8617C302.965,-74.9681 311.591,-75.0766 319.9935,-75.1823"/>
<polygon fill="#191970" stroke="#191970" points="294.3461,-71.3595 284.3029,-74.7334 294.258,-78.359 294.3461,-71.3595"/>
</g>
<!-- Node28 -->
<g id="node4" class="node">
<title>Node28</title>
<g id="a_node4"><a xlink:href="$classAsteroids_1_1Domain_1_1Game_1_1Game.html#a824018131c10d49c8addd305ff36209b" xlink:title="Asteroids::Domain::\lGame::Game::start">
<polygon fill="#ffffff" stroke="#000000" points="496.5,-9 496.5,-39 600.5,-39 600.5,-9 496.5,-9"/>
<text text-anchor="start" x="504.5" y="-27" font-family="Helvetica,sans-Serif" font-size="10.00" fill="#000000">Asteroids::Domain::</text>
<text text-anchor="middle" x="548.5" y="-16" font-family="Helvetica,sans-Serif" font-size="10.00" fill="#000000">Game::Game::start</text>
</a>
</g>
</g>
<!-- Node27&#45;&gt;Node28 -->
<g id="edge3" class="edge">
<title>Node27&#45;&gt;Node28</title>
<path fill="none" stroke="#191970" d="M441.9207,-57.8968C461.3153,-51.7285 482.7698,-44.905 501.3153,-39.0068"/>
<polygon fill="#191970" stroke="#191970" points="440.7598,-54.5932 432.291,-60.9594 442.8814,-61.2639 440.7598,-54.5932"/>
</g>
<!-- Node29 -->
<g id="node5" class="node">
<title>Node29</title>
<g id="a_node5"><a xlink:href="$classAsteroids_1_1Domain_1_1Game_1_1Game.html#ac3e1c5498adb64ea278d1a4b69db412b" xlink:title="Asteroids::Domain::\lGame::Game::win_round">
<polygon fill="#ffffff" stroke="#000000" points="486,-61 486,-91 611,-91 611,-61 486,-61"/>
<text text-anchor="start" x="494" y="-79" font-family="Helvetica,sans-Serif" font-size="10.00" fill="#000000">Asteroids::Domain::</text>
<text text-anchor="middle" x="548.5" y="-68" font-family="Helvetica,sans-Serif" font-size="10.00" fill="#000000">Game::Game::win_round</text>
</a>
</g>
</g>
<!-- Node27&#45;&gt;Node29 -->
<g id="edge4" class="edge">
<title>Node27&#45;&gt;Node29</title>
<path fill="none" stroke="#191970" d="M460.0986,-76C468.683,-76 477.3658,-76 485.7652,-76"/>
<polygon fill="#191970" stroke="#191970" points="460.0894,-72.5001 450.0893,-76 460.0893,-79.5001 460.0894,-72.5001"/>
</g>
<!-- Node30 -->
<g id="node6" class="node">
<title>Node30</title>
<g id="a_node6"><a xlink:href="$classAsteroids_1_1Domain_1_1Game_1_1Game.html#abf55b1a7206729ce7e384bc8e6cb73d0" xlink:title="Asteroids::Domain::\lGame::Game::maybe_win_round">
<polygon fill="#ffffff" stroke="#000000" points="647,-61 647,-91 807,-91 807,-61 647,-61"/>
<text text-anchor="start" x="655" y="-79" font-family="Helvetica,sans-Serif" font-size="10.00" fill="#000000">Asteroids::Domain::</text>
<text text-anchor="middle" x="727" y="-68" font-family="Helvetica,sans-Serif" font-size="10.00" fill="#000000">Game::Game::maybe_win_round</text>
</a>
</g>
</g>
<!-- Node29&#45;&gt;Node30 -->
<g id="edge5" class="edge">
<title>Node29&#45;&gt;Node30</title>
<path fill="none" stroke="#191970" d="M621.3421,-76C629.7716,-76 638.4033,-76 646.9224,-76"/>
<polygon fill="#191970" stroke="#191970" points="621.1815,-72.5001 611.1814,-76 621.1814,-79.5001 621.1815,-72.5001"/>
</g>
<!-- Node31 -->
<g id="node7" class="node">
<title>Node31</title>
<g id="a_node7"><a xlink:href="$classAsteroids_1_1Domain_1_1Game_1_1Game.html#aa63114be578393b0113f116798346ac4" xlink:title="Asteroids::Domain::\lGame::Game::update">
<polygon fill="#ffffff" stroke="#000000" points="843,-61 843,-91 953,-91 953,-61 843,-61"/>
<text text-anchor="start" x="851" y="-79" font-family="Helvetica,sans-Serif" font-size="10.00" fill="#000000">Asteroids::Domain::</text>
<text text-anchor="middle" x="898" y="-68" font-family="Helvetica,sans-Serif" font-size="10.00" fill="#000000">Game::Game::update</text>
</a>
</g>
</g>
<!-- Node30&#45;&gt;Node31 -->
<g id="edge6" class="edge">
<title>Node30&#45;&gt;Node31</title>
<path fill="none" stroke="#191970" d="M817.3583,-76C825.9673,-76 834.5105,-76 842.6371,-76"/>
<polygon fill="#191970" stroke="#191970" points="817.2427,-72.5001 807.2427,-76 817.2427,-79.5001 817.2427,-72.5001"/>
</g>
<!-- Node32&#45;&gt;Node28 -->
<g id="edge8" class="edge">
<title>Node32&#45;&gt;Node28</title>
<path fill="none" stroke="#191970" d="M456.1334,-22.3052C469.6737,-22.5536 483.6092,-22.8093 496.42,-23.0444"/>
<polygon fill="#191970" stroke="#191970" points="455.9439,-18.8012 445.8814,-22.1171 455.8154,-25.8001 455.9439,-18.8012"/>
</g>
</g>
</svg>
