<?xml version="1.0" encoding="UTF-8" standalone="no"?>
<!DOCTYPE svg PUBLIC "-//W3C//DTD SVG 1.1//EN"
 "http://www.w3.org/Graphics/SVG/1.1/DTD/svg11.dtd">
<!-- Generated by graphviz version 2.40.1 (20161225.0304)
 -->
<!-- Title: Asteroids::Domain::Game::Actors::Actor::update Pages: 1 -->
<svg width="717pt" height="110pt"
 viewBox="0.00 0.00 717.00 110.00" xmlns="http://www.w3.org/2000/svg" xmlns:xlink="http://www.w3.org/1999/xlink">
<g id="graph0" class="graph" transform="scale(1 1) rotate(0) translate(4 106)">
<title>Asteroids::Domain::Game::Actors::Actor::update</title>
<polygon fill="#ffffff" stroke="transparent" points="-4,4 -4,-106 713,-106 713,4 -4,4"/>
<!-- Node157 -->
<g id="node1" class="node">
<title>Node157</title>
<polygon fill="#bfbfbf" stroke="#000000" points="0,-30.5 0,-71.5 107,-71.5 107,-30.5 0,-30.5"/>
<text text-anchor="start" x="8" y="-59.5" font-family="Helvetica,sans-Serif" font-size="10.00" fill="#000000">Asteroids::Domain::</text>
<text text-anchor="start" x="8" y="-48.5" font-family="Helvetica,sans-Serif" font-size="10.00" fill="#000000">Game::Actors::Actor</text>
<text text-anchor="middle" x="53.5" y="-37.5" font-family="Helvetica,sans-Serif" font-size="10.00" fill="#000000">::update</text>
</g>
<!-- Node158 -->
<g id="node2" class="node">
<title>Node158</title>
<g id="a_node2"><a xlink:href="$classAsteroids_1_1Domain_1_1Game_1_1Actors_1_1Actor.html#aafec1372aa2f5b203112aae5f6b16310" xlink:title="Asteroids::Domain::\lGame::Actors::Actor\l::apply_vector_to_position">
<polygon fill="#ffffff" stroke="#000000" points="143,-30.5 143,-71.5 274,-71.5 274,-30.5 143,-30.5"/>
<text text-anchor="start" x="151" y="-59.5" font-family="Helvetica,sans-Serif" font-size="10.00" fill="#000000">Asteroids::Domain::</text>
<text text-anchor="start" x="151" y="-48.5" font-family="Helvetica,sans-Serif" font-size="10.00" fill="#000000">Game::Actors::Actor</text>
<text text-anchor="middle" x="208.5" y="-37.5" font-family="Helvetica,sans-Serif" font-size="10.00" fill="#000000">::apply_vector_to_position</text>
</a>
</g>
</g>
<!-- Node157&#45;&gt;Node158 -->
<g id="edge1" class="edge">
<title>Node157&#45;&gt;Node158</title>
<path fill="none" stroke="#191970" d="M107.2765,-51C115.5092,-51 124.1372,-51 132.7367,-51"/>
<polygon fill="#191970" stroke="#191970" points="132.7933,-54.5001 142.7933,-51 132.7932,-47.5001 132.7933,-54.5001"/>
</g>
<!-- Node159 -->
<g id="node3" class="node">
<title>Node159</title>
<g id="a_node3"><a xlink:href="$classAsteroids_1_1Domain_1_1Game_1_1Actors_1_1Actor.html#a4bb89af7457ff402fa5a4a11d62ab4ca" xlink:title="Asteroids::Domain::\lGame::Actors::Actor\l::update_rect">
<polygon fill="#ffffff" stroke="#000000" points="310,-30.5 310,-71.5 417,-71.5 417,-30.5 310,-30.5"/>
<text text-anchor="start" x="318" y="-59.5" font-family="Helvetica,sans-Serif" font-size="10.00" fill="#000000">Asteroids::Domain::</text>
<text text-anchor="start" x="318" y="-48.5" font-family="Helvetica,sans-Serif" font-size="10.00" fill="#000000">Game::Actors::Actor</text>
<text text-anchor="middle" x="363.5" y="-37.5" font-family="Helvetica,sans-Serif" font-size="10.00" fill="#000000">::update_rect</text>
</a>
</g>
</g>
<!-- Node158&#45;&gt;Node159 -->
<g id="edge2" class="edge">
<title>Node158&#45;&gt;Node159</title>
<path fill="none" stroke="#191970" d="M274.234,-51C282.6809,-51 291.3189,-51 299.7336,-51"/>
<polygon fill="#191970" stroke="#191970" points="299.8593,-54.5001 309.8593,-51 299.8593,-47.5001 299.8593,-54.5001"/>
</g>
<!-- Node160 -->
<g id="node4" class="node">
<title>Node160</title>
<g id="a_node4"><a xlink:href="$classAsteroids_1_1Domain_1_1Game_1_1Actors_1_1Rect.html#a687d0848c13d1b8dfbd2f896636b4145" xlink:title="Create a rect from polygon points. ">
<polygon fill="#ffffff" stroke="#000000" points="453,-60.5 453,-101.5 563,-101.5 563,-60.5 453,-60.5"/>
<text text-anchor="start" x="461" y="-89.5" font-family="Helvetica,sans-Serif" font-size="10.00" fill="#000000">Asteroids::Domain::</text>
<text text-anchor="start" x="461" y="-78.5" font-family="Helvetica,sans-Serif" font-size="10.00" fill="#000000">Game::Actors::Rect::</text>
<text text-anchor="middle" x="508" y="-67.5" font-family="Helvetica,sans-Serif" font-size="10.00" fill="#000000">consume_polygon</text>
</a>
</g>
</g>
<!-- Node159&#45;&gt;Node160 -->
<g id="edge3" class="edge">
<title>Node159&#45;&gt;Node160</title>
<path fill="none" stroke="#191970" d="M417.3065,-62.1709C425.6114,-63.8951 434.2648,-65.6917 442.7864,-67.4608"/>
<polygon fill="#191970" stroke="#191970" points="442.1979,-70.9132 452.7006,-69.5192 443.6209,-64.0594 442.1979,-70.9132"/>
</g>
<!-- Node162 -->
<g id="node6" class="node">
<title>Node162</title>
<g id="a_node6"><a xlink:href="$classAsteroids_1_1Domain_1_1Game_1_1Actors_1_1Rect.html#a0ab06f4fe6e0dbd681c89397f22aa08f" xlink:title="Asteroids::Domain::\lGame::Actors::Rect::\ladd_offset">
<polygon fill="#ffffff" stroke="#000000" points="453,-.5 453,-41.5 563,-41.5 563,-.5 453,-.5"/>
<text text-anchor="start" x="461" y="-29.5" font-family="Helvetica,sans-Serif" font-size="10.00" fill="#000000">Asteroids::Domain::</text>
<text text-anchor="start" x="461" y="-18.5" font-family="Helvetica,sans-Serif" font-size="10.00" fill="#000000">Game::Actors::Rect::</text>
<text text-anchor="middle" x="508" y="-7.5" font-family="Helvetica,sans-Serif" font-size="10.00" fill="#000000">add_offset</text>
</a>
</g>
</g>
<!-- Node159&#45;&gt;Node162 -->
<g id="edge5" class="edge">
<title>Node159&#45;&gt;Node162</title>
<path fill="none" stroke="#191970" d="M417.3065,-39.8291C425.6114,-38.1049 434.2648,-36.3083 442.7864,-34.5392"/>
<polygon fill="#191970" stroke="#191970" points="443.6209,-37.9406 452.7006,-32.4808 442.1979,-31.0868 443.6209,-37.9406"/>
</g>
<!-- Node161 -->
<g id="node5" class="node">
<title>Node161</title>
<g id="a_node5"><a xlink:href="$classAsteroids_1_1Domain_1_1Game_1_1Actors_1_1Rect.html#a40c593b8be9c243d6cdc30e2f8ee67df" xlink:title="Asteroids::Domain::\lGame::Actors::Rect::\lupdate_dimensions">
<polygon fill="#ffffff" stroke="#000000" points="599,-30.5 599,-71.5 709,-71.5 709,-30.5 599,-30.5"/>
<text text-anchor="start" x="607" y="-59.5" font-family="Helvetica,sans-Serif" font-size="10.00" fill="#000000">Asteroids::Domain::</text>
<text text-anchor="start" x="607" y="-48.5" font-family="Helvetica,sans-Serif" font-size="10.00" fill="#000000">Game::Actors::Rect::</text>
<text text-anchor="middle" x="654" y="-37.5" font-family="Helvetica,sans-Serif" font-size="10.00" fill="#000000">update_dimensions</text>
</a>
</g>
</g>
<!-- Node160&#45;&gt;Node161 -->
<g id="edge4" class="edge">
<title>Node160&#45;&gt;Node161</title>
<path fill="none" stroke="#191970" d="M563.1963,-69.6583C571.5541,-67.9409 580.2434,-66.1555 588.7888,-64.3996"/>
<polygon fill="#191970" stroke="#191970" points="589.6347,-67.7989 598.7256,-62.3578 588.2258,-60.9422 589.6347,-67.7989"/>
</g>
<!-- Node162&#45;&gt;Node161 -->
<g id="edge6" class="edge">
<title>Node162&#45;&gt;Node161</title>
<path fill="none" stroke="#191970" d="M563.1963,-32.3417C571.5541,-34.0591 580.2434,-35.8445 588.7888,-37.6004"/>
<polygon fill="#191970" stroke="#191970" points="588.2258,-41.0578 598.7256,-39.6422 589.6347,-34.2011 588.2258,-41.0578"/>
</g>
</g>
</svg>
