<?xml version="1.0" encoding="UTF-8" standalone="no"?>
<!DOCTYPE svg PUBLIC "-//W3C//DTD SVG 1.1//EN"
 "http://www.w3.org/Graphics/SVG/1.1/DTD/svg11.dtd">
<!-- Generated by graphviz version 2.40.1 (20161225.0304)
 -->
<!-- Title: Asteroids::Domain::Game::Actors::Bullet Pages: 1 -->
<svg width="810pt" height="1345pt"
 viewBox="0.00 0.00 809.50 1345.00" xmlns="http://www.w3.org/2000/svg" xmlns:xlink="http://www.w3.org/1999/xlink">
<g id="graph0" class="graph" transform="scale(1 1) rotate(0) translate(4 1341)">
<title>Asteroids::Domain::Game::Actors::Bullet</title>
<polygon fill="#ffffff" stroke="transparent" points="-4,4 -4,-1341 805.5,-1341 805.5,4 -4,4"/>
<!-- Node3 -->
<g id="node1" class="node">
<title>Node3</title>
<polygon fill="#bfbfbf" stroke="#000000" points="309.5,-.5 309.5,-123.5 417.5,-123.5 417.5,-.5 309.5,-.5"/>
<text text-anchor="start" x="317.5" y="-111.5" font-family="Helvetica,sans-Serif" font-size="10.00" fill="#000000">Asteroids::Domain::</text>
<text text-anchor="middle" x="363.5" y="-100.5" font-family="Helvetica,sans-Serif" font-size="10.00" fill="#000000">Game::Actors::Bullet</text>
<polyline fill="none" stroke="#000000" points="309.5,-93.5 417.5,-93.5 "/>
<text text-anchor="middle" x="363.5" y="-81.5" font-family="Helvetica,sans-Serif" font-size="10.00" fill="#000000"> </text>
<polyline fill="none" stroke="#000000" points="309.5,-74.5 417.5,-74.5 "/>
<text text-anchor="start" x="317.5" y="-62.5" font-family="Helvetica,sans-Serif" font-size="10.00" fill="#000000">+ Bullet()</text>
<text text-anchor="start" x="317.5" y="-51.5" font-family="Helvetica,sans-Serif" font-size="10.00" fill="#000000">+ reset()</text>
<text text-anchor="start" x="317.5" y="-40.5" font-family="Helvetica,sans-Serif" font-size="10.00" fill="#000000">+ update()</text>
<text text-anchor="start" x="317.5" y="-29.5" font-family="Helvetica,sans-Serif" font-size="10.00" fill="#000000">&#45; init()</text>
<text text-anchor="start" x="317.5" y="-18.5" font-family="Helvetica,sans-Serif" font-size="10.00" fill="#000000">&#45; initialize_polygon()</text>
<text text-anchor="start" x="317.5" y="-7.5" font-family="Helvetica,sans-Serif" font-size="10.00" fill="#000000">&#45; maybe_die()</text>
</g>
<!-- Node4 -->
<g id="node2" class="node">
<title>Node4</title>
<g id="a_node2"><a xlink:href="$classAsteroids_1_1Domain_1_1Game_1_1Actors_1_1Actor.html" xlink:title="Implementation of ActorInterface. ">
<polygon fill="#ffffff" stroke="#000000" points="295,-161.5 295,-691.5 432,-691.5 432,-161.5 295,-161.5"/>
<text text-anchor="start" x="303" y="-679.5" font-family="Helvetica,sans-Serif" font-size="10.00" fill="#000000">Asteroids::Domain::</text>
<text text-anchor="middle" x="363.5" y="-668.5" font-family="Helvetica,sans-Serif" font-size="10.00" fill="#000000">Game::Actors::Actor</text>
<polyline fill="none" stroke="#000000" points="295,-661.5 432,-661.5 "/>
<text text-anchor="start" x="303" y="-649.5" font-family="Helvetica,sans-Serif" font-size="10.00" fill="#000000"># _input_down</text>
<text text-anchor="start" x="303" y="-638.5" font-family="Helvetica,sans-Serif" font-size="10.00" fill="#000000"># _input_fire</text>
<text text-anchor="start" x="303" y="-627.5" font-family="Helvetica,sans-Serif" font-size="10.00" fill="#000000"># _input_left</text>
<text text-anchor="start" x="303" y="-616.5" font-family="Helvetica,sans-Serif" font-size="10.00" fill="#000000"># _input_right</text>
<text text-anchor="start" x="303" y="-605.5" font-family="Helvetica,sans-Serif" font-size="10.00" fill="#000000"># _input_up</text>
<text text-anchor="start" x="303" y="-594.5" font-family="Helvetica,sans-Serif" font-size="10.00" fill="#000000">&#45; _bullet_speed</text>
<text text-anchor="start" x="303" y="-583.5" font-family="Helvetica,sans-Serif" font-size="10.00" fill="#000000">&#45; _lifetime_ticks</text>
<text text-anchor="start" x="303" y="-572.5" font-family="Helvetica,sans-Serif" font-size="10.00" fill="#000000">&#45; _pos_x</text>
<text text-anchor="start" x="303" y="-561.5" font-family="Helvetica,sans-Serif" font-size="10.00" fill="#000000">&#45; _pos_y</text>
<text text-anchor="start" x="303" y="-550.5" font-family="Helvetica,sans-Serif" font-size="10.00" fill="#000000">&#45; _rotation_radians</text>
<text text-anchor="start" x="303" y="-539.5" font-family="Helvetica,sans-Serif" font-size="10.00" fill="#000000">&#45; _wants_to_be_deleted</text>
<polyline fill="none" stroke="#000000" points="295,-532.5 432,-532.5 "/>
<text text-anchor="start" x="303" y="-520.5" font-family="Helvetica,sans-Serif" font-size="10.00" fill="#000000">+ Actor()</text>
<text text-anchor="start" x="303" y="-509.5" font-family="Helvetica,sans-Serif" font-size="10.00" fill="#000000">+ adjust_rotation()</text>
<text text-anchor="start" x="303" y="-498.5" font-family="Helvetica,sans-Serif" font-size="10.00" fill="#000000">+ check_collision()</text>
<text text-anchor="start" x="303" y="-487.5" font-family="Helvetica,sans-Serif" font-size="10.00" fill="#000000">+ check_collision()</text>
<text text-anchor="start" x="303" y="-476.5" font-family="Helvetica,sans-Serif" font-size="10.00" fill="#000000">+ clear_input()</text>
<text text-anchor="start" x="303" y="-465.5" font-family="Helvetica,sans-Serif" font-size="10.00" fill="#000000">+ get_fired_bullets()</text>
<text text-anchor="start" x="303" y="-454.5" font-family="Helvetica,sans-Serif" font-size="10.00" fill="#000000">+ get_lifetime_ticks()</text>
<text text-anchor="start" x="303" y="-443.5" font-family="Helvetica,sans-Serif" font-size="10.00" fill="#000000">+ get_polygon()</text>
<text text-anchor="start" x="303" y="-432.5" font-family="Helvetica,sans-Serif" font-size="10.00" fill="#000000">+ get_position()</text>
<text text-anchor="start" x="303" y="-421.5" font-family="Helvetica,sans-Serif" font-size="10.00" fill="#000000">+ get_rect()</text>
<text text-anchor="start" x="303" y="-410.5" font-family="Helvetica,sans-Serif" font-size="10.00" fill="#000000">+ get_rotated_polygon()</text>
<text text-anchor="start" x="303" y="-399.5" font-family="Helvetica,sans-Serif" font-size="10.00" fill="#000000">+ get_rotation()</text>
<text text-anchor="start" x="303" y="-388.5" font-family="Helvetica,sans-Serif" font-size="10.00" fill="#000000">+ get_x()</text>
<text text-anchor="start" x="303" y="-377.5" font-family="Helvetica,sans-Serif" font-size="10.00" fill="#000000">+ get_y()</text>
<text text-anchor="start" x="303" y="-366.5" font-family="Helvetica,sans-Serif" font-size="10.00" fill="#000000">+ reset()</text>
<text text-anchor="start" x="303" y="-355.5" font-family="Helvetica,sans-Serif" font-size="10.00" fill="#000000">+ rotate_polygon()</text>
<text text-anchor="start" x="303" y="-344.5" font-family="Helvetica,sans-Serif" font-size="10.00" fill="#000000">+ set_input_down()</text>
<text text-anchor="start" x="303" y="-333.5" font-family="Helvetica,sans-Serif" font-size="10.00" fill="#000000">+ set_input_fire()</text>
<text text-anchor="start" x="303" y="-322.5" font-family="Helvetica,sans-Serif" font-size="10.00" fill="#000000">+ set_input_left()</text>
<text text-anchor="start" x="303" y="-311.5" font-family="Helvetica,sans-Serif" font-size="10.00" fill="#000000">+ set_input_right()</text>
<text text-anchor="start" x="303" y="-300.5" font-family="Helvetica,sans-Serif" font-size="10.00" fill="#000000">+ set_input_up()</text>
<text text-anchor="start" x="303" y="-289.5" font-family="Helvetica,sans-Serif" font-size="10.00" fill="#000000">+ set_polygon()</text>
<text text-anchor="start" x="303" y="-278.5" font-family="Helvetica,sans-Serif" font-size="10.00" fill="#000000">+ set_position()</text>
<text text-anchor="start" x="303" y="-267.5" font-family="Helvetica,sans-Serif" font-size="10.00" fill="#000000">+ set_rotation()</text>
<text text-anchor="start" x="303" y="-256.5" font-family="Helvetica,sans-Serif" font-size="10.00" fill="#000000">+ set_velocity()</text>
<text text-anchor="start" x="303" y="-245.5" font-family="Helvetica,sans-Serif" font-size="10.00" fill="#000000">+ update()</text>
<text text-anchor="start" x="303" y="-234.5" font-family="Helvetica,sans-Serif" font-size="10.00" fill="#000000">+ wants_to_be_deleted()</text>
<text text-anchor="start" x="303" y="-223.5" font-family="Helvetica,sans-Serif" font-size="10.00" fill="#000000"># deleteme()</text>
<text text-anchor="start" x="303" y="-212.5" font-family="Helvetica,sans-Serif" font-size="10.00" fill="#000000"># fire_bullet()</text>
<text text-anchor="start" x="303" y="-201.5" font-family="Helvetica,sans-Serif" font-size="10.00" fill="#000000"># set_bullet_speed()</text>
<text text-anchor="start" x="303" y="-190.5" font-family="Helvetica,sans-Serif" font-size="10.00" fill="#000000"># update_rect()</text>
<text text-anchor="start" x="303" y="-179.5" font-family="Helvetica,sans-Serif" font-size="10.00" fill="#000000">&#45; apply_vector_to_position()</text>
<text text-anchor="start" x="303" y="-168.5" font-family="Helvetica,sans-Serif" font-size="10.00" fill="#000000">&#45; init()</text>
</a>
</g>
</g>
<!-- Node4&#45;&gt;Node3 -->
<g id="edge1" class="edge">
<title>Node4&#45;&gt;Node3</title>
<path fill="none" stroke="#191970" d="M363.5,-150.9044C363.5,-141.2612 363.5,-132.0956 363.5,-123.5699"/>
<polygon fill="none" stroke="#191970" points="360.0001,-151.1197 363.5,-161.1198 367.0001,-151.1198 360.0001,-151.1197"/>
</g>
<!-- Node5 -->
<g id="node3" class="node">
<title>Node5</title>
<g id="a_node3"><a xlink:href="$classAsteroids_1_1Domain_1_1Game_1_1Actors_1_1ActorInterface.html" xlink:title="Main superclass for game board actors. ">
<polygon fill="#ffffff" stroke="#000000" points="0,-750.5 0,-928.5 145,-928.5 145,-750.5 0,-750.5"/>
<text text-anchor="start" x="8" y="-916.5" font-family="Helvetica,sans-Serif" font-size="10.00" fill="#000000">Asteroids::Domain::</text>
<text text-anchor="middle" x="72.5" y="-905.5" font-family="Helvetica,sans-Serif" font-size="10.00" fill="#000000">Game::Actors::ActorInterface</text>
<polyline fill="none" stroke="#000000" points="0,-898.5 145,-898.5 "/>
<text text-anchor="middle" x="72.5" y="-886.5" font-family="Helvetica,sans-Serif" font-size="10.00" fill="#000000"> </text>
<polyline fill="none" stroke="#000000" points="0,-879.5 145,-879.5 "/>
<text text-anchor="start" x="8" y="-867.5" font-family="Helvetica,sans-Serif" font-size="10.00" fill="#000000">+ clear_input()</text>
<text text-anchor="start" x="8" y="-856.5" font-family="Helvetica,sans-Serif" font-size="10.00" fill="#000000">+ get_polygon()</text>
<text text-anchor="start" x="8" y="-845.5" font-family="Helvetica,sans-Serif" font-size="10.00" fill="#000000">+ get_rotated_polygon()</text>
<text text-anchor="start" x="8" y="-834.5" font-family="Helvetica,sans-Serif" font-size="10.00" fill="#000000">+ get_x()</text>
<text text-anchor="start" x="8" y="-823.5" font-family="Helvetica,sans-Serif" font-size="10.00" fill="#000000">+ get_y()</text>
<text text-anchor="start" x="8" y="-812.5" font-family="Helvetica,sans-Serif" font-size="10.00" fill="#000000">+ set_input_down()</text>
<text text-anchor="start" x="8" y="-801.5" font-family="Helvetica,sans-Serif" font-size="10.00" fill="#000000">+ set_input_fire()</text>
<text text-anchor="start" x="8" y="-790.5" font-family="Helvetica,sans-Serif" font-size="10.00" fill="#000000">+ set_input_left()</text>
<text text-anchor="start" x="8" y="-779.5" font-family="Helvetica,sans-Serif" font-size="10.00" fill="#000000">+ set_input_right()</text>
<text text-anchor="start" x="8" y="-768.5" font-family="Helvetica,sans-Serif" font-size="10.00" fill="#000000">+ set_input_up()</text>
<text text-anchor="start" x="8" y="-757.5" font-family="Helvetica,sans-Serif" font-size="10.00" fill="#000000">+ set_position()</text>
</a>
</g>
</g>
<!-- Node5&#45;&gt;Node4 -->
<g id="edge2" class="edge">
<title>Node5&#45;&gt;Node4</title>
<path fill="none" stroke="#191970" d="M141.1566,-742.0595C187.5659,-676.1934 248.6029,-589.5671 294.9828,-523.7426"/>
<polygon fill="none" stroke="#191970" points="138.1832,-740.203 135.2844,-750.3936 143.9054,-744.2349 138.1832,-740.203"/>
</g>
<!-- Node6 -->
<g id="node4" class="node">
<title>Node6</title>
<g id="a_node4"><a xlink:href="$classAsteroids_1_1Domain_1_1Game_1_1Actors_1_1Rect.html" xlink:title="Convenience class to help manage actor rectangle boundaries and collisions. ">
<polygon fill="#ffffff" stroke="#000000" points="163.5,-739.5 163.5,-939.5 279.5,-939.5 279.5,-739.5 163.5,-739.5"/>
<text text-anchor="start" x="171.5" y="-927.5" font-family="Helvetica,sans-Serif" font-size="10.00" fill="#000000">Asteroids::Domain::</text>
<text text-anchor="middle" x="221.5" y="-916.5" font-family="Helvetica,sans-Serif" font-size="10.00" fill="#000000">Game::Actors::Rect</text>
<polyline fill="none" stroke="#000000" points="163.5,-909.5 279.5,-909.5 "/>
<text text-anchor="start" x="171.5" y="-897.5" font-family="Helvetica,sans-Serif" font-size="10.00" fill="#000000">+ height</text>
<text text-anchor="start" x="171.5" y="-886.5" font-family="Helvetica,sans-Serif" font-size="10.00" fill="#000000">+ width</text>
<text text-anchor="start" x="171.5" y="-875.5" font-family="Helvetica,sans-Serif" font-size="10.00" fill="#000000">+ x1</text>
<text text-anchor="start" x="171.5" y="-864.5" font-family="Helvetica,sans-Serif" font-size="10.00" fill="#000000">+ x2</text>
<text text-anchor="start" x="171.5" y="-853.5" font-family="Helvetica,sans-Serif" font-size="10.00" fill="#000000">+ y1</text>
<text text-anchor="start" x="171.5" y="-842.5" font-family="Helvetica,sans-Serif" font-size="10.00" fill="#000000">+ y2</text>
<polyline fill="none" stroke="#000000" points="163.5,-835.5 279.5,-835.5 "/>
<text text-anchor="start" x="171.5" y="-823.5" font-family="Helvetica,sans-Serif" font-size="10.00" fill="#000000">+ Rect()</text>
<text text-anchor="start" x="171.5" y="-812.5" font-family="Helvetica,sans-Serif" font-size="10.00" fill="#000000">+ add_offset()</text>
<text text-anchor="start" x="171.5" y="-801.5" font-family="Helvetica,sans-Serif" font-size="10.00" fill="#000000">+ collides_with_rect()</text>
<text text-anchor="start" x="171.5" y="-790.5" font-family="Helvetica,sans-Serif" font-size="10.00" fill="#000000">+ is_point_within()</text>
<text text-anchor="start" x="171.5" y="-779.5" font-family="Helvetica,sans-Serif" font-size="10.00" fill="#000000">+ reset()</text>
<text text-anchor="start" x="171.5" y="-768.5" font-family="Helvetica,sans-Serif" font-size="10.00" fill="#000000">+ to_string()</text>
<text text-anchor="start" x="171.5" y="-757.5" font-family="Helvetica,sans-Serif" font-size="10.00" fill="#000000">+ update_dimensions()</text>
<text text-anchor="start" x="171.5" y="-746.5" font-family="Helvetica,sans-Serif" font-size="10.00" fill="#000000">+ consume_polygon()</text>
</a>
</g>
</g>
<!-- Node6&#45;&gt;Node4 -->
<g id="edge3" class="edge">
<title>Node6&#45;&gt;Node4</title>
<path fill="none" stroke="#404040" d="M255.9648,-739.2607C266.5941,-708.3461 278.7249,-673.0641 290.918,-637.6011"/>
<polygon fill="none" stroke="#404040" points="290.9754,-637.4341 289.1436,-630.4595 294.8772,-626.0861 296.7089,-633.0607 290.9754,-637.4341"/>
<text text-anchor="middle" x="277.5" y="-713" font-family="Helvetica,sans-Serif" font-size="10.00" fill="#000000"> &#45;_rect</text>
</g>
<!-- Node7 -->
<g id="node5" class="node">
<title>Node7</title>
<polygon fill="#ffffff" stroke="#bfbfbf" points="297.5,-800 297.5,-879 429.5,-879 429.5,-800 297.5,-800"/>
<text text-anchor="start" x="305.5" y="-867" font-family="Helvetica,sans-Serif" font-size="10.00" fill="#000000">std::vector&lt; std::shared</text>
<text text-anchor="start" x="305.5" y="-856" font-family="Helvetica,sans-Serif" font-size="10.00" fill="#000000">_ptr&lt; Asteroids::Domain</text>
<text text-anchor="middle" x="363.5" y="-845" font-family="Helvetica,sans-Serif" font-size="10.00" fill="#000000">::Game::Actors::Bullet &gt; &gt;</text>
<polyline fill="none" stroke="#bfbfbf" points="297.5,-838 429.5,-838 "/>
<text text-anchor="start" x="305.5" y="-826" font-family="Helvetica,sans-Serif" font-size="10.00" fill="#000000">+ elements</text>
<polyline fill="none" stroke="#bfbfbf" points="297.5,-819 429.5,-819 "/>
<text text-anchor="middle" x="363.5" y="-807" font-family="Helvetica,sans-Serif" font-size="10.00" fill="#000000"> </text>
</g>
<!-- Node7&#45;&gt;Node4 -->
<g id="edge4" class="edge">
<title>Node7&#45;&gt;Node4</title>
<path fill="none" stroke="#404040" d="M363.5,-799.8998C363.5,-775.3967 363.5,-741.5293 363.5,-704.1138"/>
<polygon fill="none" stroke="#404040" points="363.5001,-703.8486 359.5,-697.8486 363.5,-691.8486 367.5,-697.8485 363.5001,-703.8486"/>
<text text-anchor="middle" x="395.5" y="-713" font-family="Helvetica,sans-Serif" font-size="10.00" fill="#000000"> &#45;_fired_bullets</text>
</g>
<!-- Node8 -->
<g id="node6" class="node">
<title>Node8</title>
<g id="a_node6"><a xlink:title="STL class. ">
<polygon fill="#ffffff" stroke="#bfbfbf" points="454,-1092 454,-1149 541,-1149 541,-1092 454,-1092"/>
<text text-anchor="middle" x="497.5" y="-1137" font-family="Helvetica,sans-Serif" font-size="10.00" fill="#000000">std::vector&lt; T &gt;</text>
<polyline fill="none" stroke="#bfbfbf" points="454,-1130 541,-1130 "/>
<text text-anchor="middle" x="497.5" y="-1118" font-family="Helvetica,sans-Serif" font-size="10.00" fill="#000000"> </text>
<polyline fill="none" stroke="#bfbfbf" points="454,-1111 541,-1111 "/>
<text text-anchor="middle" x="497.5" y="-1099" font-family="Helvetica,sans-Serif" font-size="10.00" fill="#000000"> </text>
</a>
</g>
</g>
<!-- Node8&#45;&gt;Node7 -->
<g id="edge5" class="edge">
<title>Node8&#45;&gt;Node7</title>
<path fill="none" stroke="#ffa500" d="M456.5322,-1084.8063C431.819,-1060.8454 402.0144,-1027.139 385.5,-991 369.2616,-955.4649 364.418,-910.7859 363.2372,-879.1812"/>
<polygon fill="#ffa500" stroke="#ffa500" points="454.3584,-1087.569 464.018,-1091.9215 459.181,-1082.4953 454.3584,-1087.569"/>
<text text-anchor="start" x="385.5" y="-983" font-family="Helvetica,sans-Serif" font-size="10.00" fill="#000000"> &lt; std::shared_ptr&lt;</text>
<text text-anchor="start" x="385.5" y="-972" font-family="Helvetica,sans-Serif" font-size="10.00" fill="#000000"> Asteroids::Domain::</text>
<text text-anchor="middle" x="440.5" y="-961" font-family="Helvetica,sans-Serif" font-size="10.00" fill="#000000">Game::Actors::Bullet &gt; &gt;</text>
</g>
<!-- Node13 -->
<g id="node11" class="node">
<title>Node13</title>
<polygon fill="#ffffff" stroke="#bfbfbf" points="448,-805.5 448,-873.5 555,-873.5 555,-805.5 448,-805.5"/>
<text text-anchor="start" x="456" y="-861.5" font-family="Helvetica,sans-Serif" font-size="10.00" fill="#000000">std::vector&lt; std::pair</text>
<text text-anchor="middle" x="501.5" y="-850.5" font-family="Helvetica,sans-Serif" font-size="10.00" fill="#000000">&lt; double, double &gt; &gt;</text>
<polyline fill="none" stroke="#bfbfbf" points="448,-843.5 555,-843.5 "/>
<text text-anchor="start" x="456" y="-831.5" font-family="Helvetica,sans-Serif" font-size="10.00" fill="#000000">+ elements</text>
<polyline fill="none" stroke="#bfbfbf" points="448,-824.5 555,-824.5 "/>
<text text-anchor="middle" x="501.5" y="-812.5" font-family="Helvetica,sans-Serif" font-size="10.00" fill="#000000"> </text>
</g>
<!-- Node8&#45;&gt;Node13 -->
<g id="edge12" class="edge">
<title>Node8&#45;&gt;Node13</title>
<path fill="none" stroke="#ffa500" d="M498.0529,-1081.6602C498.8388,-1026.4485 500.2664,-926.1579 501.014,-873.644"/>
<polygon fill="#ffa500" stroke="#ffa500" points="494.5521,-1081.6998 497.9093,-1091.7486 501.5513,-1081.7995 494.5521,-1081.6998"/>
<text text-anchor="start" x="500.5" y="-977.5" font-family="Helvetica,sans-Serif" font-size="10.00" fill="#000000"> &lt; std::pair&lt; double,</text>
<text text-anchor="middle" x="544.5" y="-966.5" font-family="Helvetica,sans-Serif" font-size="10.00" fill="#000000"> double &gt; &gt;</text>
</g>
<!-- Node9 -->
<g id="node7" class="node">
<title>Node9</title>
<polygon fill="#ffffff" stroke="#bfbfbf" points="540,-1279.5 540,-1336.5 569,-1336.5 569,-1279.5 540,-1279.5"/>
<text text-anchor="middle" x="554.5" y="-1324.5" font-family="Helvetica,sans-Serif" font-size="10.00" fill="#000000">T</text>
<polyline fill="none" stroke="#bfbfbf" points="540,-1317.5 569,-1317.5 "/>
<text text-anchor="middle" x="554.5" y="-1305.5" font-family="Helvetica,sans-Serif" font-size="10.00" fill="#000000"> </text>
<polyline fill="none" stroke="#bfbfbf" points="540,-1298.5 569,-1298.5 "/>
<text text-anchor="middle" x="554.5" y="-1286.5" font-family="Helvetica,sans-Serif" font-size="10.00" fill="#000000"> </text>
</g>
<!-- Node9&#45;&gt;Node8 -->
<g id="edge6" class="edge">
<title>Node9&#45;&gt;Node8</title>
<path fill="none" stroke="#404040" d="M539.9976,-1283.6906C536.1785,-1276.5577 532.3377,-1268.6221 529.5,-1261 517.3348,-1228.3236 508.9308,-1189.5821 503.7985,-1161.0652"/>
<polygon fill="none" stroke="#404040" points="503.7793,-1160.954 498.8149,-1155.7239 501.7333,-1149.1297 506.6978,-1154.3599 503.7793,-1160.954"/>
<text text-anchor="middle" x="554" y="-1253" font-family="Helvetica,sans-Serif" font-size="10.00" fill="#000000"> +elements</text>
</g>
<!-- Node12 -->
<g id="node10" class="node">
<title>Node12</title>
<g id="a_node10"><a xlink:title="STL class. ">
<polygon fill="#ffffff" stroke="#bfbfbf" points="559,-1092 559,-1149 664,-1149 664,-1092 559,-1092"/>
<text text-anchor="middle" x="611.5" y="-1137" font-family="Helvetica,sans-Serif" font-size="10.00" fill="#000000">std::unique_ptr&lt; T &gt;</text>
<polyline fill="none" stroke="#bfbfbf" points="559,-1130 664,-1130 "/>
<text text-anchor="middle" x="611.5" y="-1118" font-family="Helvetica,sans-Serif" font-size="10.00" fill="#000000"> </text>
<polyline fill="none" stroke="#bfbfbf" points="559,-1111 664,-1111 "/>
<text text-anchor="start" x="567" y="-1099" font-family="Helvetica,sans-Serif" font-size="10.00" fill="#000000">+ operator&#45;&gt;()</text>
</a>
</g>
</g>
<!-- Node9&#45;&gt;Node12 -->
<g id="edge10" class="edge">
<title>Node9&#45;&gt;Node12</title>
<path fill="none" stroke="#404040" d="M569.1062,-1282.1533C572.5222,-1275.4109 575.9139,-1268.0537 578.5,-1261 590.5209,-1228.2121 599.2341,-1189.4806 604.6781,-1160.9958"/>
<polygon fill="none" stroke="#404040" points="604.7002,-1160.876 601.8568,-1154.2492 606.8804,-1149.0757 609.7237,-1155.7026 604.7002,-1160.876"/>
<text text-anchor="middle" x="592" y="-1253" font-family="Helvetica,sans-Serif" font-size="10.00" fill="#000000"> +ptr</text>
</g>
<!-- Node10 -->
<g id="node8" class="node">
<title>Node10</title>
<polygon fill="#ffffff" stroke="#bfbfbf" points="573,-800 573,-879 704,-879 704,-800 573,-800"/>
<text text-anchor="start" x="581" y="-867" font-family="Helvetica,sans-Serif" font-size="10.00" fill="#000000">std::unique_ptr&lt; Asteroids</text>
<text text-anchor="start" x="581" y="-856" font-family="Helvetica,sans-Serif" font-size="10.00" fill="#000000">::Domain::Game::Actors::</text>
<text text-anchor="middle" x="638.5" y="-845" font-family="Helvetica,sans-Serif" font-size="10.00" fill="#000000">Vector &gt;</text>
<polyline fill="none" stroke="#bfbfbf" points="573,-838 704,-838 "/>
<text text-anchor="middle" x="638.5" y="-826" font-family="Helvetica,sans-Serif" font-size="10.00" fill="#000000"> </text>
<polyline fill="none" stroke="#bfbfbf" points="573,-819 704,-819 "/>
<text text-anchor="start" x="581" y="-807" font-family="Helvetica,sans-Serif" font-size="10.00" fill="#000000">+ operator&#45;&gt;()</text>
</g>
<!-- Node10&#45;&gt;Node4 -->
<g id="edge7" class="edge">
<title>Node10&#45;&gt;Node4</title>
<path fill="none" stroke="#404040" d="M612.1318,-799.8998C572.6264,-740.5698 496.5643,-626.3385 438.9234,-539.7722"/>
<polygon fill="none" stroke="#404040" points="438.8176,-539.6133 432.1627,-536.8361 432.1668,-529.625 438.8216,-532.4022 438.8176,-539.6133"/>
<text text-anchor="middle" x="578" y="-713" font-family="Helvetica,sans-Serif" font-size="10.00" fill="#000000"> #_vector</text>
</g>
<!-- Node11 -->
<g id="node9" class="node">
<title>Node11</title>
<g id="a_node9"><a xlink:href="$classAsteroids_1_1Domain_1_1Game_1_1Actors_1_1Vector.html" xlink:title="Simple class to store 2D vector and rotation, to lend physics to game actors. ">
<polygon fill="#ffffff" stroke="#000000" points="689.5,-1009.5 689.5,-1231.5 801.5,-1231.5 801.5,-1009.5 689.5,-1009.5"/>
<text text-anchor="start" x="697.5" y="-1219.5" font-family="Helvetica,sans-Serif" font-size="10.00" fill="#000000">Asteroids::Domain::</text>
<text text-anchor="middle" x="745.5" y="-1208.5" font-family="Helvetica,sans-Serif" font-size="10.00" fill="#000000">Game::Actors::Vector</text>
<polyline fill="none" stroke="#000000" points="689.5,-1201.5 801.5,-1201.5 "/>
<text text-anchor="start" x="697.5" y="-1189.5" font-family="Helvetica,sans-Serif" font-size="10.00" fill="#000000">&#45; _r</text>
<text text-anchor="start" x="697.5" y="-1178.5" font-family="Helvetica,sans-Serif" font-size="10.00" fill="#000000">&#45; _x</text>
<text text-anchor="start" x="697.5" y="-1167.5" font-family="Helvetica,sans-Serif" font-size="10.00" fill="#000000">&#45; _y</text>
<polyline fill="none" stroke="#000000" points="689.5,-1160.5 801.5,-1160.5 "/>
<text text-anchor="start" x="697.5" y="-1148.5" font-family="Helvetica,sans-Serif" font-size="10.00" fill="#000000">+ Vector()</text>
<text text-anchor="start" x="697.5" y="-1137.5" font-family="Helvetica,sans-Serif" font-size="10.00" fill="#000000">+ adjust()</text>
<text text-anchor="start" x="697.5" y="-1126.5" font-family="Helvetica,sans-Serif" font-size="10.00" fill="#000000">+ get_linear()</text>
<text text-anchor="start" x="697.5" y="-1115.5" font-family="Helvetica,sans-Serif" font-size="10.00" fill="#000000">+ get_rotated_linear()</text>
<text text-anchor="start" x="697.5" y="-1104.5" font-family="Helvetica,sans-Serif" font-size="10.00" fill="#000000">+ get_rotational()</text>
<text text-anchor="start" x="697.5" y="-1093.5" font-family="Helvetica,sans-Serif" font-size="10.00" fill="#000000">+ get_x()</text>
<text text-anchor="start" x="697.5" y="-1082.5" font-family="Helvetica,sans-Serif" font-size="10.00" fill="#000000">+ get_y()</text>
<text text-anchor="start" x="697.5" y="-1071.5" font-family="Helvetica,sans-Serif" font-size="10.00" fill="#000000">+ reset()</text>
<text text-anchor="start" x="697.5" y="-1060.5" font-family="Helvetica,sans-Serif" font-size="10.00" fill="#000000">+ set()</text>
<text text-anchor="start" x="697.5" y="-1049.5" font-family="Helvetica,sans-Serif" font-size="10.00" fill="#000000">+ update()</text>
<text text-anchor="start" x="697.5" y="-1038.5" font-family="Helvetica,sans-Serif" font-size="10.00" fill="#000000">+ rotate_velocity()</text>
<text text-anchor="start" x="697.5" y="-1027.5" font-family="Helvetica,sans-Serif" font-size="10.00" fill="#000000">&#45; apply_limits()</text>
<text text-anchor="start" x="697.5" y="-1016.5" font-family="Helvetica,sans-Serif" font-size="10.00" fill="#000000">&#45; dampen()</text>
</a>
</g>
</g>
<!-- Node11&#45;&gt;Node10 -->
<g id="edge8" class="edge">
<title>Node11&#45;&gt;Node10</title>
<path fill="none" stroke="#404040" d="M737.8196,-1009.3722C734.5231,-991.8111 729.9157,-974.1376 723.5,-958 713.6532,-933.2322 697.531,-908.7957 681.9596,-888.6063"/>
<polygon fill="none" stroke="#404040" points="681.8425,-888.4586 674.9811,-886.2403 674.3897,-879.0535 681.2511,-881.2717 681.8425,-888.4586"/>
<text text-anchor="middle" x="744" y="-972" font-family="Helvetica,sans-Serif" font-size="10.00" fill="#000000"> +ptr</text>
</g>
<!-- Node12&#45;&gt;Node10 -->
<g id="edge9" class="edge">
<title>Node12&#45;&gt;Node10</title>
<path fill="none" stroke="#ffa500" d="M609.4655,-1081.7816C608.2737,-1048.7746 607.8018,-1000.1251 612.5,-958 615.4649,-931.4157 621.8869,-902.0441 627.6062,-879.1934"/>
<polygon fill="#ffa500" stroke="#ffa500" points="605.9741,-1082.0687 609.872,-1091.9204 612.9684,-1081.7881 605.9741,-1082.0687"/>
<text text-anchor="start" x="612.5" y="-977.5" font-family="Helvetica,sans-Serif" font-size="10.00" fill="#000000"> &lt; Asteroids::Domain</text>
<text text-anchor="middle" x="668" y="-966.5" font-family="Helvetica,sans-Serif" font-size="10.00" fill="#000000">::Game::Actors::Vector &gt;</text>
</g>
<!-- Node13&#45;&gt;Node4 -->
<g id="edge11" class="edge">
<title>Node13&#45;&gt;Node4</title>
<path fill="none" stroke="#404040" d="M490.0895,-805.3511C477.7535,-768.4324 457.0004,-706.3238 435.8286,-642.9616"/>
<polygon fill="none" stroke="#404040" points="435.8153,-642.9216 430.1199,-638.4986 432.0122,-631.5401 437.7076,-635.9632 435.8153,-642.9216"/>
<text text-anchor="middle" x="500" y="-713" font-family="Helvetica,sans-Serif" font-size="10.00" fill="#000000"> &#45;_polygon_points</text>
</g>
</g>
</svg>
