<?xml version="1.0" encoding="UTF-8" standalone="no"?>
<!DOCTYPE svg PUBLIC "-//W3C//DTD SVG 1.1//EN"
 "http://www.w3.org/Graphics/SVG/1.1/DTD/svg11.dtd">
<!-- Generated by graphviz version 2.40.1 (20161225.0304)
 -->
<!-- Title: Asteroids::UI::ClientTextUI::ClientTextUI::ClientTextUI Pages: 1 -->
<svg width="319pt" height="88pt"
 viewBox="0.00 0.00 319.00 88.00" xmlns="http://www.w3.org/2000/svg" xmlns:xlink="http://www.w3.org/1999/xlink">
<g id="graph0" class="graph" transform="scale(1 1) rotate(0) translate(4 84)">
<title>Asteroids::UI::ClientTextUI::ClientTextUI::ClientTextUI</title>
<polygon fill="#ffffff" stroke="transparent" points="-4,4 -4,-84 315,-84 315,4 -4,4"/>
<!-- Node0 -->
<g id="node1" class="node">
<title>Node0</title>
<polygon fill="#bfbfbf" stroke="#000000" points="0,-24.5 0,-54.5 150,-54.5 150,-24.5 0,-24.5"/>
<text text-anchor="start" x="8" y="-42.5" font-family="Helvetica,sans-Serif" font-size="10.00" fill="#000000">Asteroids::UI::ClientText</text>
<text text-anchor="middle" x="75" y="-31.5" font-family="Helvetica,sans-Serif" font-size="10.00" fill="#000000">UI::ClientTextUI::ClientTextUI</text>
</g>
<!-- Node1 -->
<g id="node2" class="node">
<title>Node1</title>
<g id="a_node2"><a xlink:href="$classAsteroids_1_1UI_1_1ClientTextUI_1_1ClientTextUI.html#af89b843cd3eecc9b5b54cf3067b5fab8" xlink:title="Asteroids::UI::ClientText\lUI::ClientTextUI::init">
<polygon fill="#ffffff" stroke="#000000" points="186,-49.5 186,-79.5 311,-79.5 311,-49.5 186,-49.5"/>
<text text-anchor="start" x="194" y="-67.5" font-family="Helvetica,sans-Serif" font-size="10.00" fill="#000000">Asteroids::UI::ClientText</text>
<text text-anchor="middle" x="248.5" y="-56.5" font-family="Helvetica,sans-Serif" font-size="10.00" fill="#000000">UI::ClientTextUI::init</text>
</a>
</g>
</g>
<!-- Node0&#45;&gt;Node1 -->
<g id="edge1" class="edge">
<title>Node0&#45;&gt;Node1</title>
<path fill="none" stroke="#191970" d="M150.0905,-50.32C158.6478,-51.553 167.3592,-52.8082 175.8835,-54.0365"/>
<polygon fill="#191970" stroke="#191970" points="175.387,-57.5011 185.784,-55.4631 176.3854,-50.5726 175.387,-57.5011"/>
</g>
<!-- Node2 -->
<g id="node3" class="node">
<title>Node2</title>
<g id="a_node3"><a xlink:href="$classAsteroids_1_1UI_1_1ClientTextUI_1_1ClientTextUI.html#a6efe3f748a4eee4913824be2aab9ab18" xlink:title="Asteroids::UI::ClientText\lUI::ClientTextUI::reset">
<polygon fill="#ffffff" stroke="#000000" points="186,-.5 186,-30.5 311,-30.5 311,-.5 186,-.5"/>
<text text-anchor="start" x="194" y="-18.5" font-family="Helvetica,sans-Serif" font-size="10.00" fill="#000000">Asteroids::UI::ClientText</text>
<text text-anchor="middle" x="248.5" y="-7.5" font-family="Helvetica,sans-Serif" font-size="10.00" fill="#000000">UI::ClientTextUI::reset</text>
</a>
</g>
</g>
<!-- Node0&#45;&gt;Node2 -->
<g id="edge2" class="edge">
<title>Node0&#45;&gt;Node2</title>
<path fill="none" stroke="#191970" d="M150.0905,-29.1128C158.5548,-27.942 167.1699,-26.7503 175.6055,-25.5834"/>
<polygon fill="#191970" stroke="#191970" points="176.3579,-29.0127 185.784,-24.1754 175.3987,-22.0788 176.3579,-29.0127"/>
</g>
</g>
</svg>
