<?xml version="1.0" encoding="UTF-8" standalone="no"?>
<!DOCTYPE svg PUBLIC "-//W3C//DTD SVG 1.1//EN"
 "http://www.w3.org/Graphics/SVG/1.1/DTD/svg11.dtd">
<!-- Generated by graphviz version 2.40.1 (20161225.0304)
 -->
<!-- Title: Asteroids::Domain::Game::Actors::Actor::update_rect Pages: 1 -->
<svg width="964pt" height="350pt"
 viewBox="0.00 0.00 964.00 350.00" xmlns="http://www.w3.org/2000/svg" xmlns:xlink="http://www.w3.org/1999/xlink">
<g id="graph0" class="graph" transform="scale(1 1) rotate(0) translate(4 346)">
<title>Asteroids::Domain::Game::Actors::Actor::update_rect</title>
<polygon fill="#ffffff" stroke="transparent" points="-4,4 -4,-346 960,-346 960,4 -4,4"/>
<!-- Node170 -->
<g id="node1" class="node">
<title>Node170</title>
<polygon fill="#bfbfbf" stroke="#000000" points="0,-120.5 0,-161.5 107,-161.5 107,-120.5 0,-120.5"/>
<text text-anchor="start" x="8" y="-149.5" font-family="Helvetica,sans-Serif" font-size="10.00" fill="#000000">Asteroids::Domain::</text>
<text text-anchor="start" x="8" y="-138.5" font-family="Helvetica,sans-Serif" font-size="10.00" fill="#000000">Game::Actors::Actor</text>
<text text-anchor="middle" x="53.5" y="-127.5" font-family="Helvetica,sans-Serif" font-size="10.00" fill="#000000">::update_rect</text>
</g>
<!-- Node171 -->
<g id="node2" class="node">
<title>Node171</title>
<g id="a_node2"><a xlink:href="$classAsteroids_1_1Domain_1_1Game_1_1Actors_1_1Actor.html#aafec1372aa2f5b203112aae5f6b16310" xlink:title="Asteroids::Domain::\lGame::Actors::Actor\l::apply_vector_to_position">
<polygon fill="#ffffff" stroke="#000000" points="143,-210.5 143,-251.5 274,-251.5 274,-210.5 143,-210.5"/>
<text text-anchor="start" x="151" y="-239.5" font-family="Helvetica,sans-Serif" font-size="10.00" fill="#000000">Asteroids::Domain::</text>
<text text-anchor="start" x="151" y="-228.5" font-family="Helvetica,sans-Serif" font-size="10.00" fill="#000000">Game::Actors::Actor</text>
<text text-anchor="middle" x="208.5" y="-217.5" font-family="Helvetica,sans-Serif" font-size="10.00" fill="#000000">::apply_vector_to_position</text>
</a>
</g>
</g>
<!-- Node170&#45;&gt;Node171 -->
<g id="edge1" class="edge">
<title>Node170&#45;&gt;Node171</title>
<path fill="none" stroke="#191970" d="M97.9271,-166.7964C121.7846,-180.6491 150.789,-197.4904 173.1053,-210.4483"/>
<polygon fill="#191970" stroke="#191970" points="99.4655,-163.6425 89.0601,-161.6478 95.9505,-169.696 99.4655,-163.6425"/>
</g>
<!-- Node175 -->
<g id="node6" class="node">
<title>Node175</title>
<g id="a_node6"><a xlink:href="$classAsteroids_1_1Domain_1_1Game_1_1Actors_1_1Actor.html#a224abd0a9dff102361ce2a305ba4734f" xlink:title="Asteroids::Domain::\lGame::Actors::Actor\l::set_polygon">
<polygon fill="#ffffff" stroke="#000000" points="155,-120.5 155,-161.5 262,-161.5 262,-120.5 155,-120.5"/>
<text text-anchor="start" x="163" y="-149.5" font-family="Helvetica,sans-Serif" font-size="10.00" fill="#000000">Asteroids::Domain::</text>
<text text-anchor="start" x="163" y="-138.5" font-family="Helvetica,sans-Serif" font-size="10.00" fill="#000000">Game::Actors::Actor</text>
<text text-anchor="middle" x="208.5" y="-127.5" font-family="Helvetica,sans-Serif" font-size="10.00" fill="#000000">::set_polygon</text>
</a>
</g>
</g>
<!-- Node170&#45;&gt;Node175 -->
<g id="edge5" class="edge">
<title>Node170&#45;&gt;Node175</title>
<path fill="none" stroke="#191970" d="M117.5447,-141C129.9359,-141 142.8005,-141 154.8186,-141"/>
<polygon fill="#191970" stroke="#191970" points="117.2765,-137.5001 107.2765,-141 117.2764,-144.5001 117.2765,-137.5001"/>
</g>
<!-- Node190 -->
<g id="node21" class="node">
<title>Node190</title>
<g id="a_node21"><a xlink:href="$classAsteroids_1_1Domain_1_1Game_1_1Actors_1_1Actor.html#aa572cc87c0d07330348c811d778aa314" xlink:title="Asteroids::Domain::\lGame::Actors::Actor\l::set_position">
<polygon fill="#ffffff" stroke="#000000" points="155,-60.5 155,-101.5 262,-101.5 262,-60.5 155,-60.5"/>
<text text-anchor="start" x="163" y="-89.5" font-family="Helvetica,sans-Serif" font-size="10.00" fill="#000000">Asteroids::Domain::</text>
<text text-anchor="start" x="163" y="-78.5" font-family="Helvetica,sans-Serif" font-size="10.00" fill="#000000">Game::Actors::Actor</text>
<text text-anchor="middle" x="208.5" y="-67.5" font-family="Helvetica,sans-Serif" font-size="10.00" fill="#000000">::set_position</text>
</a>
</g>
</g>
<!-- Node170&#45;&gt;Node190 -->
<g id="edge20" class="edge">
<title>Node170&#45;&gt;Node190</title>
<path fill="none" stroke="#191970" d="M116.1726,-116.7397C129.1563,-111.7137 142.7169,-106.4644 155.3221,-101.585"/>
<polygon fill="#191970" stroke="#191970" points="114.9044,-113.4774 106.8422,-120.3514 117.4314,-120.0054 114.9044,-113.4774"/>
</g>
<!-- Node172 -->
<g id="node3" class="node">
<title>Node172</title>
<g id="a_node3"><a xlink:href="$classAsteroids_1_1Domain_1_1Game_1_1Actors_1_1Actor.html#a5a53ac407eec2feb06f167d1a496bbe5" xlink:title="Asteroids::Domain::\lGame::Actors::Actor\l::update">
<polygon fill="#ffffff" stroke="#000000" points="320.5,-240.5 320.5,-281.5 427.5,-281.5 427.5,-240.5 320.5,-240.5"/>
<text text-anchor="start" x="328.5" y="-269.5" font-family="Helvetica,sans-Serif" font-size="10.00" fill="#000000">Asteroids::Domain::</text>
<text text-anchor="start" x="328.5" y="-258.5" font-family="Helvetica,sans-Serif" font-size="10.00" fill="#000000">Game::Actors::Actor</text>
<text text-anchor="middle" x="374" y="-247.5" font-family="Helvetica,sans-Serif" font-size="10.00" fill="#000000">::update</text>
</a>
</g>
</g>
<!-- Node171&#45;&gt;Node172 -->
<g id="edge2" class="edge">
<title>Node171&#45;&gt;Node172</title>
<path fill="none" stroke="#191970" d="M284.4743,-244.7718C296.5663,-246.9637 308.8526,-249.1908 320.291,-251.2642"/>
<polygon fill="#191970" stroke="#191970" points="284.8495,-241.2828 274.3855,-242.943 283.6009,-248.1706 284.8495,-241.2828"/>
</g>
<!-- Node173 -->
<g id="node4" class="node">
<title>Node173</title>
<g id="a_node4"><a xlink:href="$classAsteroids_1_1Domain_1_1Game_1_1Actors_1_1Bullet.html#a06eb5b7aa30c8547159696c82fd2f642" xlink:title="Asteroids::Domain::\lGame::Actors::Bullet\l::update">
<polygon fill="#ffffff" stroke="#000000" points="487,-300.5 487,-341.5 595,-341.5 595,-300.5 487,-300.5"/>
<text text-anchor="start" x="495" y="-329.5" font-family="Helvetica,sans-Serif" font-size="10.00" fill="#000000">Asteroids::Domain::</text>
<text text-anchor="start" x="495" y="-318.5" font-family="Helvetica,sans-Serif" font-size="10.00" fill="#000000">Game::Actors::Bullet</text>
<text text-anchor="middle" x="541" y="-307.5" font-family="Helvetica,sans-Serif" font-size="10.00" fill="#000000">::update</text>
</a>
</g>
</g>
<!-- Node172&#45;&gt;Node173 -->
<g id="edge3" class="edge">
<title>Node172&#45;&gt;Node173</title>
<path fill="none" stroke="#191970" d="M437.2193,-283.7135C453.5371,-289.5762 470.9549,-295.8341 486.7691,-301.5158"/>
<polygon fill="#191970" stroke="#191970" points="438.3536,-280.4021 427.7591,-280.3146 435.9867,-286.9898 438.3536,-280.4021"/>
</g>
<!-- Node174 -->
<g id="node5" class="node">
<title>Node174</title>
<g id="a_node5"><a xlink:href="$classAsteroids_1_1Domain_1_1Game_1_1Actors_1_1GunShip.html#a4b37d42d9758c701d75e6a91dda71a5b" xlink:title="Asteroids::Domain::\lGame::Actors::GunShip\l::update">
<polygon fill="#ffffff" stroke="#000000" points="480.5,-240.5 480.5,-281.5 601.5,-281.5 601.5,-240.5 480.5,-240.5"/>
<text text-anchor="start" x="488.5" y="-269.5" font-family="Helvetica,sans-Serif" font-size="10.00" fill="#000000">Asteroids::Domain::</text>
<text text-anchor="start" x="488.5" y="-258.5" font-family="Helvetica,sans-Serif" font-size="10.00" fill="#000000">Game::Actors::GunShip</text>
<text text-anchor="middle" x="541" y="-247.5" font-family="Helvetica,sans-Serif" font-size="10.00" fill="#000000">::update</text>
</a>
</g>
</g>
<!-- Node172&#45;&gt;Node174 -->
<g id="edge4" class="edge">
<title>Node172&#45;&gt;Node174</title>
<path fill="none" stroke="#191970" d="M437.7789,-261C451.7626,-261 466.529,-261 480.3845,-261"/>
<polygon fill="#191970" stroke="#191970" points="437.7591,-257.5001 427.7591,-261 437.7591,-264.5001 437.7591,-257.5001"/>
</g>
<!-- Node176 -->
<g id="node7" class="node">
<title>Node176</title>
<g id="a_node7"><a xlink:href="$classAsteroids_1_1Domain_1_1Game_1_1Actors_1_1LongRock.html#ac2469234e9ea81472af9e7297ff8a75a" xlink:title="Asteroids::Domain::\lGame::Actors::LongRock\l::initialize_polygon">
<polygon fill="#ffffff" stroke="#000000" points="310,-180.5 310,-221.5 438,-221.5 438,-180.5 310,-180.5"/>
<text text-anchor="start" x="318" y="-209.5" font-family="Helvetica,sans-Serif" font-size="10.00" fill="#000000">Asteroids::Domain::</text>
<text text-anchor="start" x="318" y="-198.5" font-family="Helvetica,sans-Serif" font-size="10.00" fill="#000000">Game::Actors::LongRock</text>
<text text-anchor="middle" x="374" y="-187.5" font-family="Helvetica,sans-Serif" font-size="10.00" fill="#000000">::initialize_polygon</text>
</a>
</g>
</g>
<!-- Node175&#45;&gt;Node176 -->
<g id="edge6" class="edge">
<title>Node175&#45;&gt;Node176</title>
<path fill="none" stroke="#191970" d="M271.9206,-163.9924C286.8922,-169.4201 302.7579,-175.1721 317.4051,-180.4822"/>
<polygon fill="#191970" stroke="#191970" points="272.8273,-160.5982 262.2331,-160.4803 270.4414,-167.1791 272.8273,-160.5982"/>
</g>
<!-- Node178 -->
<g id="node9" class="node">
<title>Node178</title>
<g id="a_node9"><a xlink:href="$classAsteroids_1_1Domain_1_1Game_1_1Actors_1_1Rock.html#aa2a9c917715b56e4584f514c930c4690" xlink:title="Asteroids::Domain::\lGame::Actors::Rock::\linitialize_polygon">
<polygon fill="#ffffff" stroke="#000000" points="317.5,-120.5 317.5,-161.5 430.5,-161.5 430.5,-120.5 317.5,-120.5"/>
<text text-anchor="start" x="325.5" y="-149.5" font-family="Helvetica,sans-Serif" font-size="10.00" fill="#000000">Asteroids::Domain::</text>
<text text-anchor="start" x="325.5" y="-138.5" font-family="Helvetica,sans-Serif" font-size="10.00" fill="#000000">Game::Actors::Rock::</text>
<text text-anchor="middle" x="374" y="-127.5" font-family="Helvetica,sans-Serif" font-size="10.00" fill="#000000">initialize_polygon</text>
</a>
</g>
</g>
<!-- Node175&#45;&gt;Node178 -->
<g id="edge8" class="edge">
<title>Node175&#45;&gt;Node178</title>
<path fill="none" stroke="#191970" d="M272.3486,-141C287.1943,-141 302.8974,-141 317.4051,-141"/>
<polygon fill="#191970" stroke="#191970" points="272.2331,-137.5001 262.2331,-141 272.2331,-144.5001 272.2331,-137.5001"/>
</g>
<!-- Node182 -->
<g id="node13" class="node">
<title>Node182</title>
<g id="a_node13"><a xlink:href="$classAsteroids_1_1Domain_1_1Game_1_1Actors_1_1Bullet.html#ae02bb0b6f3886f31ffdf1e51b1735035" xlink:title="Asteroids::Domain::\lGame::Actors::Bullet\l::initialize_polygon">
<polygon fill="#ffffff" stroke="#000000" points="320,-60.5 320,-101.5 428,-101.5 428,-60.5 320,-60.5"/>
<text text-anchor="start" x="328" y="-89.5" font-family="Helvetica,sans-Serif" font-size="10.00" fill="#000000">Asteroids::Domain::</text>
<text text-anchor="start" x="328" y="-78.5" font-family="Helvetica,sans-Serif" font-size="10.00" fill="#000000">Game::Actors::Bullet</text>
<text text-anchor="middle" x="374" y="-67.5" font-family="Helvetica,sans-Serif" font-size="10.00" fill="#000000">::initialize_polygon</text>
</a>
</g>
</g>
<!-- Node175&#45;&gt;Node182 -->
<g id="edge12" class="edge">
<title>Node175&#45;&gt;Node182</title>
<path fill="none" stroke="#191970" d="M271.9458,-117.9985C287.7884,-112.2549 304.6308,-106.1489 319.9702,-100.5879"/>
<polygon fill="#191970" stroke="#191970" points="270.4414,-114.8209 262.2331,-121.5197 272.8273,-121.4018 270.4414,-114.8209"/>
</g>
<!-- Node186 -->
<g id="node17" class="node">
<title>Node186</title>
<g id="a_node17"><a xlink:href="$classAsteroids_1_1Domain_1_1Game_1_1Actors_1_1GunShip.html#a4947769593f504d4342abcec5a01330b" xlink:title="Asteroids::Domain::\lGame::Actors::GunShip\l::initialize_polygon">
<polygon fill="#ffffff" stroke="#000000" points="313.5,-.5 313.5,-41.5 434.5,-41.5 434.5,-.5 313.5,-.5"/>
<text text-anchor="start" x="321.5" y="-29.5" font-family="Helvetica,sans-Serif" font-size="10.00" fill="#000000">Asteroids::Domain::</text>
<text text-anchor="start" x="321.5" y="-18.5" font-family="Helvetica,sans-Serif" font-size="10.00" fill="#000000">Game::Actors::GunShip</text>
<text text-anchor="middle" x="374" y="-7.5" font-family="Helvetica,sans-Serif" font-size="10.00" fill="#000000">::initialize_polygon</text>
</a>
</g>
</g>
<!-- Node175&#45;&gt;Node186 -->
<g id="edge16" class="edge">
<title>Node175&#45;&gt;Node186</title>
<path fill="none" stroke="#191970" d="M269.9073,-114.4116C271.3188,-113.3124 272.6863,-112.1755 274,-111 297.175,-90.2628 286.9168,-71.8393 310,-51 313.8256,-47.5463 318.1185,-44.4184 322.6225,-41.6022"/>
<polygon fill="#191970" stroke="#191970" points="267.6381,-111.7257 261.4115,-120.2978 271.6247,-117.4797 267.6381,-111.7257"/>
</g>
<!-- Node177 -->
<g id="node8" class="node">
<title>Node177</title>
<g id="a_node8"><a xlink:href="$classAsteroids_1_1Domain_1_1Game_1_1Actors_1_1LongRock.html#a076888291134eee7db8c6a94ebc0ad8d" xlink:title="Asteroids::Domain::\lGame::Actors::LongRock\l::LongRock">
<polygon fill="#ffffff" stroke="#000000" points="477,-180.5 477,-221.5 605,-221.5 605,-180.5 477,-180.5"/>
<text text-anchor="start" x="485" y="-209.5" font-family="Helvetica,sans-Serif" font-size="10.00" fill="#000000">Asteroids::Domain::</text>
<text text-anchor="start" x="485" y="-198.5" font-family="Helvetica,sans-Serif" font-size="10.00" fill="#000000">Game::Actors::LongRock</text>
<text text-anchor="middle" x="541" y="-187.5" font-family="Helvetica,sans-Serif" font-size="10.00" fill="#000000">::LongRock</text>
</a>
</g>
</g>
<!-- Node176&#45;&gt;Node177 -->
<g id="edge7" class="edge">
<title>Node176&#45;&gt;Node177</title>
<path fill="none" stroke="#191970" d="M448.3145,-201C457.8181,-201 467.4823,-201 476.8066,-201"/>
<polygon fill="#191970" stroke="#191970" points="448.089,-197.5001 438.089,-201 448.0889,-204.5001 448.089,-197.5001"/>
</g>
<!-- Node179 -->
<g id="node10" class="node">
<title>Node179</title>
<g id="a_node10"><a xlink:href="$classAsteroids_1_1Domain_1_1Game_1_1Actors_1_1Rock.html#aab44647e08659d563aeb28d51868fb86" xlink:title="Asteroids::Domain::\lGame::Actors::Rock::reset">
<polygon fill="#ffffff" stroke="#000000" points="474,-126 474,-156 608,-156 608,-126 474,-126"/>
<text text-anchor="start" x="482" y="-144" font-family="Helvetica,sans-Serif" font-size="10.00" fill="#000000">Asteroids::Domain::</text>
<text text-anchor="middle" x="541" y="-133" font-family="Helvetica,sans-Serif" font-size="10.00" fill="#000000">Game::Actors::Rock::reset</text>
</a>
</g>
</g>
<!-- Node178&#45;&gt;Node179 -->
<g id="edge9" class="edge">
<title>Node178&#45;&gt;Node179</title>
<path fill="none" stroke="#191970" d="M440.8163,-141C451.6884,-141 462.9538,-141 473.8341,-141"/>
<polygon fill="#191970" stroke="#191970" points="440.5386,-137.5001 430.5386,-141 440.5385,-144.5001 440.5386,-137.5001"/>
</g>
<!-- Node180 -->
<g id="node11" class="node">
<title>Node180</title>
<g id="a_node11"><a xlink:href="$classAsteroids_1_1Domain_1_1Game_1_1Actors_1_1Rock.html#a8bdb717103786b8a2e30ea29db791078" xlink:title="Asteroids::Domain::\lGame::Actors::Rock::init">
<polygon fill="#ffffff" stroke="#000000" points="651.5,-126 651.5,-156 776.5,-156 776.5,-126 651.5,-126"/>
<text text-anchor="start" x="659.5" y="-144" font-family="Helvetica,sans-Serif" font-size="10.00" fill="#000000">Asteroids::Domain::</text>
<text text-anchor="middle" x="714" y="-133" font-family="Helvetica,sans-Serif" font-size="10.00" fill="#000000">Game::Actors::Rock::init</text>
</a>
</g>
</g>
<!-- Node179&#45;&gt;Node180 -->
<g id="edge10" class="edge">
<title>Node179&#45;&gt;Node180</title>
<path fill="none" stroke="#191970" d="M618.4186,-141C629.4311,-141 640.6422,-141 651.3271,-141"/>
<polygon fill="#191970" stroke="#191970" points="618.3817,-137.5001 608.3817,-141 618.3817,-144.5001 618.3817,-137.5001"/>
</g>
<!-- Node181 -->
<g id="node12" class="node">
<title>Node181</title>
<g id="a_node12"><a xlink:href="$classAsteroids_1_1Domain_1_1Game_1_1Actors_1_1Rock.html#aef8f46670fe5751800b9d76079adb5e5" xlink:title="Asteroids::Domain::\lGame::Actors::Rock::Rock">
<polygon fill="#ffffff" stroke="#000000" points="820,-126 820,-156 956,-156 956,-126 820,-126"/>
<text text-anchor="start" x="828" y="-144" font-family="Helvetica,sans-Serif" font-size="10.00" fill="#000000">Asteroids::Domain::</text>
<text text-anchor="middle" x="888" y="-133" font-family="Helvetica,sans-Serif" font-size="10.00" fill="#000000">Game::Actors::Rock::Rock</text>
</a>
</g>
</g>
<!-- Node180&#45;&gt;Node181 -->
<g id="edge11" class="edge">
<title>Node180&#45;&gt;Node181</title>
<path fill="none" stroke="#191970" d="M787.1397,-141C798.0243,-141 809.206,-141 819.9795,-141"/>
<polygon fill="#191970" stroke="#191970" points="786.818,-137.5001 776.818,-141 786.818,-144.5001 786.818,-137.5001"/>
</g>
<!-- Node183 -->
<g id="node14" class="node">
<title>Node183</title>
<g id="a_node14"><a xlink:href="$classAsteroids_1_1Domain_1_1Game_1_1Actors_1_1Bullet.html#ae3837ed471d290688f684e8187e6865e" xlink:title="Asteroids::Domain::\lGame::Actors::Bullet\l::reset">
<polygon fill="#ffffff" stroke="#000000" points="487,-60.5 487,-101.5 595,-101.5 595,-60.5 487,-60.5"/>
<text text-anchor="start" x="495" y="-89.5" font-family="Helvetica,sans-Serif" font-size="10.00" fill="#000000">Asteroids::Domain::</text>
<text text-anchor="start" x="495" y="-78.5" font-family="Helvetica,sans-Serif" font-size="10.00" fill="#000000">Game::Actors::Bullet</text>
<text text-anchor="middle" x="541" y="-67.5" font-family="Helvetica,sans-Serif" font-size="10.00" fill="#000000">::reset</text>
</a>
</g>
</g>
<!-- Node182&#45;&gt;Node183 -->
<g id="edge13" class="edge">
<title>Node182&#45;&gt;Node183</title>
<path fill="none" stroke="#191970" d="M438.5267,-81C454.4638,-81 471.3745,-81 486.7664,-81"/>
<polygon fill="#191970" stroke="#191970" points="438.2201,-77.5001 428.2201,-81 438.2201,-84.5001 438.2201,-77.5001"/>
</g>
<!-- Node184 -->
<g id="node15" class="node">
<title>Node184</title>
<g id="a_node15"><a xlink:href="$classAsteroids_1_1Domain_1_1Game_1_1Actors_1_1Bullet.html#a1c7b384d298439c581d97f996f067985" xlink:title="Asteroids::Domain::\lGame::Actors::Bullet::init">
<polygon fill="#ffffff" stroke="#000000" points="650.5,-66 650.5,-96 777.5,-96 777.5,-66 650.5,-66"/>
<text text-anchor="start" x="658.5" y="-84" font-family="Helvetica,sans-Serif" font-size="10.00" fill="#000000">Asteroids::Domain::</text>
<text text-anchor="middle" x="714" y="-73" font-family="Helvetica,sans-Serif" font-size="10.00" fill="#000000">Game::Actors::Bullet::init</text>
</a>
</g>
</g>
<!-- Node183&#45;&gt;Node184 -->
<g id="edge14" class="edge">
<title>Node183&#45;&gt;Node184</title>
<path fill="none" stroke="#191970" d="M605.2661,-81C619.959,-81 635.57,-81 650.2415,-81"/>
<polygon fill="#191970" stroke="#191970" points="605.2637,-77.5001 595.2636,-81 605.2636,-84.5001 605.2637,-77.5001"/>
</g>
<!-- Node185 -->
<g id="node16" class="node">
<title>Node185</title>
<g id="a_node16"><a xlink:href="$classAsteroids_1_1Domain_1_1Game_1_1Actors_1_1Bullet.html#a48557011de2d1939a8b5f7fe7e9fccda" xlink:title="Asteroids::Domain::\lGame::Actors::Bullet\l::Bullet">
<polygon fill="#ffffff" stroke="#000000" points="834,-60.5 834,-101.5 942,-101.5 942,-60.5 834,-60.5"/>
<text text-anchor="start" x="842" y="-89.5" font-family="Helvetica,sans-Serif" font-size="10.00" fill="#000000">Asteroids::Domain::</text>
<text text-anchor="start" x="842" y="-78.5" font-family="Helvetica,sans-Serif" font-size="10.00" fill="#000000">Game::Actors::Bullet</text>
<text text-anchor="middle" x="888" y="-67.5" font-family="Helvetica,sans-Serif" font-size="10.00" fill="#000000">::Bullet</text>
</a>
</g>
</g>
<!-- Node184&#45;&gt;Node185 -->
<g id="edge15" class="edge">
<title>Node184&#45;&gt;Node185</title>
<path fill="none" stroke="#191970" d="M787.8611,-81C803.323,-81 819.3517,-81 833.9326,-81"/>
<polygon fill="#191970" stroke="#191970" points="787.8032,-77.5001 777.8032,-81 787.8031,-84.5001 787.8032,-77.5001"/>
</g>
<!-- Node187 -->
<g id="node18" class="node">
<title>Node187</title>
<g id="a_node18"><a xlink:href="$classAsteroids_1_1Domain_1_1Game_1_1Actors_1_1GunShip.html#a753c275a7840962c92cfe4843bcbd6ac" xlink:title="Asteroids::Domain::\lGame::Actors::GunShip\l::reset">
<polygon fill="#ffffff" stroke="#000000" points="480.5,-.5 480.5,-41.5 601.5,-41.5 601.5,-.5 480.5,-.5"/>
<text text-anchor="start" x="488.5" y="-29.5" font-family="Helvetica,sans-Serif" font-size="10.00" fill="#000000">Asteroids::Domain::</text>
<text text-anchor="start" x="488.5" y="-18.5" font-family="Helvetica,sans-Serif" font-size="10.00" fill="#000000">Game::Actors::GunShip</text>
<text text-anchor="middle" x="541" y="-7.5" font-family="Helvetica,sans-Serif" font-size="10.00" fill="#000000">::reset</text>
</a>
</g>
</g>
<!-- Node186&#45;&gt;Node187 -->
<g id="edge17" class="edge">
<title>Node186&#45;&gt;Node187</title>
<path fill="none" stroke="#191970" d="M444.9773,-21C456.7268,-21 468.8148,-21 480.282,-21"/>
<polygon fill="#191970" stroke="#191970" points="444.7633,-17.5001 434.7632,-21 444.7632,-24.5001 444.7633,-17.5001"/>
</g>
<!-- Node188 -->
<g id="node19" class="node">
<title>Node188</title>
<g id="a_node19"><a xlink:href="$classAsteroids_1_1Domain_1_1Game_1_1Actors_1_1GunShip.html#ad5c14269f0503e045f03f265f9019e95" xlink:title="Asteroids::Domain::\lGame::Actors::GunShip::init">
<polygon fill="#ffffff" stroke="#000000" points="644,-6 644,-36 784,-36 784,-6 644,-6"/>
<text text-anchor="start" x="652" y="-24" font-family="Helvetica,sans-Serif" font-size="10.00" fill="#000000">Asteroids::Domain::</text>
<text text-anchor="middle" x="714" y="-13" font-family="Helvetica,sans-Serif" font-size="10.00" fill="#000000">Game::Actors::GunShip::init</text>
</a>
</g>
</g>
<!-- Node187&#45;&gt;Node188 -->
<g id="edge18" class="edge">
<title>Node187&#45;&gt;Node188</title>
<path fill="none" stroke="#191970" d="M611.5637,-21C622.1818,-21 633.1318,-21 643.7434,-21"/>
<polygon fill="#191970" stroke="#191970" points="611.507,-17.5001 601.507,-21 611.507,-24.5001 611.507,-17.5001"/>
</g>
<!-- Node189 -->
<g id="node20" class="node">
<title>Node189</title>
<g id="a_node20"><a xlink:href="$classAsteroids_1_1Domain_1_1Game_1_1Actors_1_1GunShip.html#a4e6a5de697b5a88bf3942165397cd27b" xlink:title="Asteroids::Domain::\lGame::Actors::GunShip\l::GunShip">
<polygon fill="#ffffff" stroke="#000000" points="827.5,-.5 827.5,-41.5 948.5,-41.5 948.5,-.5 827.5,-.5"/>
<text text-anchor="start" x="835.5" y="-29.5" font-family="Helvetica,sans-Serif" font-size="10.00" fill="#000000">Asteroids::Domain::</text>
<text text-anchor="start" x="835.5" y="-18.5" font-family="Helvetica,sans-Serif" font-size="10.00" fill="#000000">Game::Actors::GunShip</text>
<text text-anchor="middle" x="888" y="-7.5" font-family="Helvetica,sans-Serif" font-size="10.00" fill="#000000">::GunShip</text>
</a>
</g>
</g>
<!-- Node188&#45;&gt;Node189 -->
<g id="edge19" class="edge">
<title>Node188&#45;&gt;Node189</title>
<path fill="none" stroke="#191970" d="M794.1975,-21C805.3482,-21 816.6489,-21 827.3608,-21"/>
<polygon fill="#191970" stroke="#191970" points="794.0204,-17.5001 784.0203,-21 794.0203,-24.5001 794.0204,-17.5001"/>
</g>
</g>
</svg>
