<?xml version="1.0" encoding="UTF-8" standalone="no"?>
<!DOCTYPE svg PUBLIC "-//W3C//DTD SVG 1.1//EN"
 "http://www.w3.org/Graphics/SVG/1.1/DTD/svg11.dtd">
<!-- Generated by graphviz version 2.40.1 (20161225.0304)
 -->
<!-- Title: Asteroids::Domain::Game::Game::quit Pages: 1 -->
<svg width="621pt" height="39pt"
 viewBox="0.00 0.00 621.00 39.00" xmlns="http://www.w3.org/2000/svg" xmlns:xlink="http://www.w3.org/1999/xlink">
<g id="graph0" class="graph" transform="scale(1 1) rotate(0) translate(4 35)">
<title>Asteroids::Domain::Game::Game::quit</title>
<polygon fill="#ffffff" stroke="transparent" points="-4,4 -4,-35 617,-35 617,4 -4,4"/>
<!-- Node75 -->
<g id="node1" class="node">
<title>Node75</title>
<polygon fill="#bfbfbf" stroke="#000000" points="0,-.5 0,-30.5 104,-30.5 104,-.5 0,-.5"/>
<text text-anchor="start" x="8" y="-18.5" font-family="Helvetica,sans-Serif" font-size="10.00" fill="#000000">Asteroids::Domain::</text>
<text text-anchor="middle" x="52" y="-7.5" font-family="Helvetica,sans-Serif" font-size="10.00" fill="#000000">Game::Game::quit</text>
</g>
<!-- Node76 -->
<g id="node2" class="node">
<title>Node76</title>
<g id="a_node2"><a xlink:href="$classAsteroids_1_1Domain_1_1Game_1_1Game.html#aca6a4c9568d4bffcd9b1ff331c338abb" xlink:title="Asteroids::Domain::\lGame::Game::lose_round">
<polygon fill="#ffffff" stroke="#000000" points="140,-.5 140,-30.5 268,-30.5 268,-.5 140,-.5"/>
<text text-anchor="start" x="148" y="-18.5" font-family="Helvetica,sans-Serif" font-size="10.00" fill="#000000">Asteroids::Domain::</text>
<text text-anchor="middle" x="204" y="-7.5" font-family="Helvetica,sans-Serif" font-size="10.00" fill="#000000">Game::Game::lose_round</text>
</a>
</g>
</g>
<!-- Node75&#45;&gt;Node76 -->
<g id="edge1" class="edge">
<title>Node75&#45;&gt;Node76</title>
<path fill="none" stroke="#191970" d="M114.3845,-15.5C122.7602,-15.5 131.3639,-15.5 139.7707,-15.5"/>
<polygon fill="#191970" stroke="#191970" points="114.3098,-12.0001 104.3098,-15.5 114.3097,-19.0001 114.3098,-12.0001"/>
</g>
<!-- Node77 -->
<g id="node3" class="node">
<title>Node77</title>
<g id="a_node3"><a xlink:href="$classAsteroids_1_1Domain_1_1Game_1_1Game.html#a5b851b86192080f5f59d61f689bf97a4" xlink:title="Asteroids::Domain::\lGame::Game::maybe_lose_round">
<polygon fill="#ffffff" stroke="#000000" points="304,-.5 304,-30.5 467,-30.5 467,-.5 304,-.5"/>
<text text-anchor="start" x="312" y="-18.5" font-family="Helvetica,sans-Serif" font-size="10.00" fill="#000000">Asteroids::Domain::</text>
<text text-anchor="middle" x="385.5" y="-7.5" font-family="Helvetica,sans-Serif" font-size="10.00" fill="#000000">Game::Game::maybe_lose_round</text>
</a>
</g>
</g>
<!-- Node76&#45;&gt;Node77 -->
<g id="edge2" class="edge">
<title>Node76&#45;&gt;Node77</title>
<path fill="none" stroke="#191970" d="M278.3749,-15.5C286.7744,-15.5 295.3675,-15.5 303.8533,-15.5"/>
<polygon fill="#191970" stroke="#191970" points="278.2456,-12.0001 268.2455,-15.5 278.2455,-19.0001 278.2456,-12.0001"/>
</g>
<!-- Node78 -->
<g id="node4" class="node">
<title>Node78</title>
<g id="a_node4"><a xlink:href="$classAsteroids_1_1Domain_1_1Game_1_1Game.html#aa63114be578393b0113f116798346ac4" xlink:title="Asteroids::Domain::\lGame::Game::update">
<polygon fill="#ffffff" stroke="#000000" points="503,-.5 503,-30.5 613,-30.5 613,-.5 503,-.5"/>
<text text-anchor="start" x="511" y="-18.5" font-family="Helvetica,sans-Serif" font-size="10.00" fill="#000000">Asteroids::Domain::</text>
<text text-anchor="middle" x="558" y="-7.5" font-family="Helvetica,sans-Serif" font-size="10.00" fill="#000000">Game::Game::update</text>
</a>
</g>
</g>
<!-- Node77&#45;&gt;Node78 -->
<g id="edge3" class="edge">
<title>Node77&#45;&gt;Node78</title>
<path fill="none" stroke="#191970" d="M477.3503,-15.5C485.9822,-15.5 494.539,-15.5 502.6729,-15.5"/>
<polygon fill="#191970" stroke="#191970" points="477.2036,-12.0001 467.2035,-15.5 477.2035,-19.0001 477.2036,-12.0001"/>
</g>
</g>
</svg>
