<?xml version="1.0" encoding="UTF-8" standalone="no"?>
<!DOCTYPE svg PUBLIC "-//W3C//DTD SVG 1.1//EN"
 "http://www.w3.org/Graphics/SVG/1.1/DTD/svg11.dtd">
<!-- Generated by graphviz version 2.40.1 (20161225.0304)
 -->
<!-- Title: Asteroids::Domain::Net::Messages::AUTH_ATTEMPT::reset Pages: 1 -->
<svg width="294pt" height="110pt"
 viewBox="0.00 0.00 294.00 110.00" xmlns="http://www.w3.org/2000/svg" xmlns:xlink="http://www.w3.org/1999/xlink">
<g id="graph0" class="graph" transform="scale(1 1) rotate(0) translate(4 106)">
<title>Asteroids::Domain::Net::Messages::AUTH_ATTEMPT::reset</title>
<polygon fill="#ffffff" stroke="transparent" points="-4,4 -4,-106 290,-106 290,4 -4,4"/>
<!-- Node5 -->
<g id="node1" class="node">
<title>Node5</title>
<polygon fill="#bfbfbf" stroke="#000000" points="0,-30.5 0,-71.5 117,-71.5 117,-30.5 0,-30.5"/>
<text text-anchor="start" x="8" y="-59.5" font-family="Helvetica,sans-Serif" font-size="10.00" fill="#000000">Asteroids::Domain::</text>
<text text-anchor="start" x="8" y="-48.5" font-family="Helvetica,sans-Serif" font-size="10.00" fill="#000000">Net::Messages::AUTH</text>
<text text-anchor="middle" x="58.5" y="-37.5" font-family="Helvetica,sans-Serif" font-size="10.00" fill="#000000">_ATTEMPT::reset</text>
</g>
<!-- Node6 -->
<g id="node2" class="node">
<title>Node6</title>
<g id="a_node2"><a xlink:href="$classAsteroids_1_1Domain_1_1Net_1_1Messages_1_1AUTH__ATTEMPT.html#ab05c3f631e0ac62fdefe27e95b5066a2" xlink:title="Asteroids::Domain::\lNet::Messages::AUTH\l_ATTEMPT::setPassword">
<polygon fill="#ffffff" stroke="#000000" points="154,-60.5 154,-101.5 285,-101.5 285,-60.5 154,-60.5"/>
<text text-anchor="start" x="162" y="-89.5" font-family="Helvetica,sans-Serif" font-size="10.00" fill="#000000">Asteroids::Domain::</text>
<text text-anchor="start" x="162" y="-78.5" font-family="Helvetica,sans-Serif" font-size="10.00" fill="#000000">Net::Messages::AUTH</text>
<text text-anchor="middle" x="219.5" y="-67.5" font-family="Helvetica,sans-Serif" font-size="10.00" fill="#000000">_ATTEMPT::setPassword</text>
</a>
</g>
</g>
<!-- Node5&#45;&gt;Node6 -->
<g id="edge1" class="edge">
<title>Node5&#45;&gt;Node6</title>
<path fill="none" stroke="#191970" d="M117.0801,-61.9156C125.7684,-63.5345 134.8254,-65.2221 143.8025,-66.8949"/>
<polygon fill="#191970" stroke="#191970" points="143.408,-70.3815 153.88,-68.7727 144.6904,-63.5 143.408,-70.3815"/>
</g>
<!-- Node7 -->
<g id="node3" class="node">
<title>Node7</title>
<g id="a_node3"><a xlink:href="$classAsteroids_1_1Domain_1_1Net_1_1Messages_1_1AUTH__ATTEMPT.html#a70aded9fd40631e8b8e53b183b62b3d8" xlink:title="Asteroids::Domain::\lNet::Messages::AUTH\l_ATTEMPT::setUsername">
<polygon fill="#ffffff" stroke="#000000" points="153,-.5 153,-41.5 286,-41.5 286,-.5 153,-.5"/>
<text text-anchor="start" x="161" y="-29.5" font-family="Helvetica,sans-Serif" font-size="10.00" fill="#000000">Asteroids::Domain::</text>
<text text-anchor="start" x="161" y="-18.5" font-family="Helvetica,sans-Serif" font-size="10.00" fill="#000000">Net::Messages::AUTH</text>
<text text-anchor="middle" x="219.5" y="-7.5" font-family="Helvetica,sans-Serif" font-size="10.00" fill="#000000">_ATTEMPT::setUsername</text>
</a>
</g>
</g>
<!-- Node5&#45;&gt;Node7 -->
<g id="edge2" class="edge">
<title>Node5&#45;&gt;Node7</title>
<path fill="none" stroke="#191970" d="M117.0801,-40.0844C125.4165,-38.5311 134.0923,-36.9145 142.7113,-35.3085"/>
<polygon fill="#191970" stroke="#191970" points="143.5897,-38.7051 152.7793,-33.4324 142.3074,-31.8236 143.5897,-38.7051"/>
</g>
</g>
</svg>
