<?xml version="1.0" encoding="UTF-8" standalone="no"?>
<!DOCTYPE svg PUBLIC "-//W3C//DTD SVG 1.1//EN"
 "http://www.w3.org/Graphics/SVG/1.1/DTD/svg11.dtd">
<!-- Generated by graphviz version 2.40.1 (20161225.0304)
 -->
<!-- Title: Asteroids::Domain::Store::POWERUP_ADDED_INFO::POWERUP_ADDED_INFO Pages: 1 -->
<svg width="535pt" height="50pt"
 viewBox="0.00 0.00 535.00 50.00" xmlns="http://www.w3.org/2000/svg" xmlns:xlink="http://www.w3.org/1999/xlink">
<g id="graph0" class="graph" transform="scale(1 1) rotate(0) translate(4 46)">
<title>Asteroids::Domain::Store::POWERUP_ADDED_INFO::POWERUP_ADDED_INFO</title>
<polygon fill="#ffffff" stroke="transparent" points="-4,4 -4,-46 531,-46 531,4 -4,4"/>
<!-- Node0 -->
<g id="node1" class="node">
<title>Node0</title>
<polygon fill="#bfbfbf" stroke="#000000" points="0,-.5 0,-41.5 175,-41.5 175,-.5 0,-.5"/>
<text text-anchor="start" x="8" y="-29.5" font-family="Helvetica,sans-Serif" font-size="10.00" fill="#000000">Asteroids::Domain::</text>
<text text-anchor="start" x="8" y="-18.5" font-family="Helvetica,sans-Serif" font-size="10.00" fill="#000000">Store::POWERUP_ADDED</text>
<text text-anchor="middle" x="87.5" y="-7.5" font-family="Helvetica,sans-Serif" font-size="10.00" fill="#000000">_INFO::POWERUP_ADDED_INFO</text>
</g>
<!-- Node1 -->
<g id="node2" class="node">
<title>Node1</title>
<g id="a_node2"><a xlink:href="$classAsteroids_1_1Domain_1_1Store_1_1POWERUP__ADDED__INFO.html#ae3ef91a132b9a5f545d11630ef2466d4" xlink:title="Asteroids::Domain::\lStore::POWERUP_ADDED\l_INFO::init">
<polygon fill="#ffffff" stroke="#000000" points="211,-.5 211,-41.5 351,-41.5 351,-.5 211,-.5"/>
<text text-anchor="start" x="219" y="-29.5" font-family="Helvetica,sans-Serif" font-size="10.00" fill="#000000">Asteroids::Domain::</text>
<text text-anchor="start" x="219" y="-18.5" font-family="Helvetica,sans-Serif" font-size="10.00" fill="#000000">Store::POWERUP_ADDED</text>
<text text-anchor="middle" x="281" y="-7.5" font-family="Helvetica,sans-Serif" font-size="10.00" fill="#000000">_INFO::init</text>
</a>
</g>
</g>
<!-- Node0&#45;&gt;Node1 -->
<g id="edge1" class="edge">
<title>Node0&#45;&gt;Node1</title>
<path fill="none" stroke="#191970" d="M175.1915,-21C183.6513,-21 192.2042,-21 200.5886,-21"/>
<polygon fill="#191970" stroke="#191970" points="200.7145,-24.5001 210.7145,-21 200.7145,-17.5001 200.7145,-24.5001"/>
</g>
<!-- Node2 -->
<g id="node3" class="node">
<title>Node2</title>
<g id="a_node3"><a xlink:href="$classAsteroids_1_1Domain_1_1Store_1_1POWERUP__ADDED__INFO.html#ae972bd3da19ae2dfea1230920b0aafc4" xlink:title="Asteroids::Domain::\lStore::POWERUP_ADDED\l_INFO::reset">
<polygon fill="#ffffff" stroke="#000000" points="387,-.5 387,-41.5 527,-41.5 527,-.5 387,-.5"/>
<text text-anchor="start" x="395" y="-29.5" font-family="Helvetica,sans-Serif" font-size="10.00" fill="#000000">Asteroids::Domain::</text>
<text text-anchor="start" x="395" y="-18.5" font-family="Helvetica,sans-Serif" font-size="10.00" fill="#000000">Store::POWERUP_ADDED</text>
<text text-anchor="middle" x="457" y="-7.5" font-family="Helvetica,sans-Serif" font-size="10.00" fill="#000000">_INFO::reset</text>
</a>
</g>
</g>
<!-- Node1&#45;&gt;Node2 -->
<g id="edge2" class="edge">
<title>Node1&#45;&gt;Node2</title>
<path fill="none" stroke="#191970" d="M351.0656,-21C359.5403,-21 368.2467,-21 376.8522,-21"/>
<polygon fill="#191970" stroke="#191970" points="376.888,-24.5001 386.888,-21 376.8879,-17.5001 376.888,-24.5001"/>
</g>
</g>
</svg>
