<?xml version="1.0" encoding="UTF-8" standalone="no"?>
<!DOCTYPE svg PUBLIC "-//W3C//DTD SVG 1.1//EN"
 "http://www.w3.org/Graphics/SVG/1.1/DTD/svg11.dtd">
<!-- Generated by graphviz version 2.40.1 (20161225.0304)
 -->
<!-- Title: Asteroids::TechnicalServices::Social::FRIEND_ON_SOCIAL_MEDIA Pages: 1 -->
<svg width="279pt" height="508pt"
 viewBox="0.00 0.00 279.00 508.00" xmlns="http://www.w3.org/2000/svg" xmlns:xlink="http://www.w3.org/1999/xlink">
<g id="graph0" class="graph" transform="scale(1 1) rotate(0) translate(4 504)">
<title>Asteroids::TechnicalServices::Social::FRIEND_ON_SOCIAL_MEDIA</title>
<polygon fill="#ffffff" stroke="transparent" points="-4,4 -4,-504 275,-504 275,4 -4,4"/>
<!-- Node2 -->
<g id="node1" class="node">
<title>Node2</title>
<polygon fill="#bfbfbf" stroke="#000000" points="20,-.5 20,-156.5 214,-156.5 214,-.5 20,-.5"/>
<text text-anchor="start" x="28" y="-144.5" font-family="Helvetica,sans-Serif" font-size="10.00" fill="#000000">Asteroids::TechnicalServices</text>
<text text-anchor="middle" x="117" y="-133.5" font-family="Helvetica,sans-Serif" font-size="10.00" fill="#000000">::Social::FRIEND_ON_SOCIAL_MEDIA</text>
<polyline fill="none" stroke="#000000" points="20,-126.5 214,-126.5 "/>
<text text-anchor="middle" x="117" y="-114.5" font-family="Helvetica,sans-Serif" font-size="10.00" fill="#000000"> </text>
<polyline fill="none" stroke="#000000" points="20,-107.5 214,-107.5 "/>
<text text-anchor="start" x="28" y="-95.5" font-family="Helvetica,sans-Serif" font-size="10.00" fill="#000000">+ FRIEND_ON_SOCIAL_MEDIA()</text>
<text text-anchor="start" x="28" y="-84.5" font-family="Helvetica,sans-Serif" font-size="10.00" fill="#000000">+ get_friend_name()</text>
<text text-anchor="start" x="28" y="-73.5" font-family="Helvetica,sans-Serif" font-size="10.00" fill="#000000">+ get_friend_social_media</text>
<text text-anchor="start" x="28" y="-62.5" font-family="Helvetica,sans-Serif" font-size="10.00" fill="#000000">_handle()</text>
<text text-anchor="start" x="28" y="-51.5" font-family="Helvetica,sans-Serif" font-size="10.00" fill="#000000">+ get_social_network_name()</text>
<text text-anchor="start" x="28" y="-40.5" font-family="Helvetica,sans-Serif" font-size="10.00" fill="#000000">+ set_friend_name()</text>
<text text-anchor="start" x="28" y="-29.5" font-family="Helvetica,sans-Serif" font-size="10.00" fill="#000000">+ set_friend_social_media</text>
<text text-anchor="start" x="28" y="-18.5" font-family="Helvetica,sans-Serif" font-size="10.00" fill="#000000">_handle()</text>
<text text-anchor="start" x="28" y="-7.5" font-family="Helvetica,sans-Serif" font-size="10.00" fill="#000000">+ set_social_network_name()</text>
</g>
<!-- Node3 -->
<g id="node2" class="node">
<title>Node3</title>
<g id="a_node2"><a xlink:href="$classAsteroids_1_1TechnicalServices_1_1Social_1_1FRIEND__ON__SOCIAL__MEDIA__INTERFACE.html" xlink:title="{Asteroids::TechnicalServices\l::Social::FRIEND_ON_SOCIAL\l_MEDIA_INTERFACE\n||+ get_friend_name()\l+ get_friend_social_media\l_handle()\l+ get_social_network_name()\l+ set_friend_name()\l+ set_friend_social_media\l_handle()\l+ set_social_network_name()\l}">
<polygon fill="#ffffff" stroke="#000000" points="0,-237.5 0,-393.5 156,-393.5 156,-237.5 0,-237.5"/>
<text text-anchor="start" x="8" y="-381.5" font-family="Helvetica,sans-Serif" font-size="10.00" fill="#000000">Asteroids::TechnicalServices</text>
<text text-anchor="start" x="8" y="-370.5" font-family="Helvetica,sans-Serif" font-size="10.00" fill="#000000">::Social::FRIEND_ON_SOCIAL</text>
<text text-anchor="middle" x="78" y="-359.5" font-family="Helvetica,sans-Serif" font-size="10.00" fill="#000000">_MEDIA_INTERFACE</text>
<polyline fill="none" stroke="#000000" points="0,-352.5 156,-352.5 "/>
<text text-anchor="middle" x="78" y="-340.5" font-family="Helvetica,sans-Serif" font-size="10.00" fill="#000000"> </text>
<polyline fill="none" stroke="#000000" points="0,-333.5 156,-333.5 "/>
<text text-anchor="start" x="8" y="-321.5" font-family="Helvetica,sans-Serif" font-size="10.00" fill="#000000">+ get_friend_name()</text>
<text text-anchor="start" x="8" y="-310.5" font-family="Helvetica,sans-Serif" font-size="10.00" fill="#000000">+ get_friend_social_media</text>
<text text-anchor="start" x="8" y="-299.5" font-family="Helvetica,sans-Serif" font-size="10.00" fill="#000000">_handle()</text>
<text text-anchor="start" x="8" y="-288.5" font-family="Helvetica,sans-Serif" font-size="10.00" fill="#000000">+ get_social_network_name()</text>
<text text-anchor="start" x="8" y="-277.5" font-family="Helvetica,sans-Serif" font-size="10.00" fill="#000000">+ set_friend_name()</text>
<text text-anchor="start" x="8" y="-266.5" font-family="Helvetica,sans-Serif" font-size="10.00" fill="#000000">+ set_friend_social_media</text>
<text text-anchor="start" x="8" y="-255.5" font-family="Helvetica,sans-Serif" font-size="10.00" fill="#000000">_handle()</text>
<text text-anchor="start" x="8" y="-244.5" font-family="Helvetica,sans-Serif" font-size="10.00" fill="#000000">+ set_social_network_name()</text>
</a>
</g>
</g>
<!-- Node3&#45;&gt;Node2 -->
<g id="edge1" class="edge">
<title>Node3&#45;&gt;Node2</title>
<path fill="none" stroke="#191970" d="M92.5473,-227.0969C96.3517,-203.978 100.4255,-179.2222 104.1354,-156.6773"/>
<polygon fill="none" stroke="#191970" points="89.0484,-226.8049 90.8781,-237.2405 95.9555,-227.9415 89.0484,-226.8049"/>
</g>
<!-- Node4 -->
<g id="node3" class="node">
<title>Node4</title>
<g id="a_node3"><a xlink:title="STL class. ">
<polygon fill="#ffffff" stroke="#bfbfbf" points="174,-287 174,-344 234,-344 234,-287 174,-287"/>
<text text-anchor="middle" x="204" y="-332" font-family="Helvetica,sans-Serif" font-size="10.00" fill="#000000">std::string</text>
<polyline fill="none" stroke="#bfbfbf" points="174,-325 234,-325 "/>
<text text-anchor="middle" x="204" y="-313" font-family="Helvetica,sans-Serif" font-size="10.00" fill="#000000"> </text>
<polyline fill="none" stroke="#bfbfbf" points="174,-306 234,-306 "/>
<text text-anchor="middle" x="204" y="-294" font-family="Helvetica,sans-Serif" font-size="10.00" fill="#000000"> </text>
</a>
</g>
</g>
<!-- Node4&#45;&gt;Node2 -->
<g id="edge2" class="edge">
<title>Node4&#45;&gt;Node2</title>
<path fill="none" stroke="#404040" d="M193.5058,-286.9123C182.7215,-257.5344 165.3715,-210.2707 149.9184,-168.1742"/>
<polygon fill="none" stroke="#404040" points="149.8576,-168.0084 144.0349,-163.7544 145.7223,-156.7434 151.5449,-160.9975 149.8576,-168.0084"/>
<text text-anchor="start" x="168" y="-211" font-family="Helvetica,sans-Serif" font-size="10.00" fill="#000000"> &#45;_friend_social_media</text>
<text text-anchor="middle" x="219.5" y="-200" font-family="Helvetica,sans-Serif" font-size="10.00" fill="#000000">_handle</text>
<text text-anchor="middle" x="219.5" y="-189" font-family="Helvetica,sans-Serif" font-size="10.00" fill="#000000">&#45;_friend_name</text>
<text text-anchor="middle" x="219.5" y="-178" font-family="Helvetica,sans-Serif" font-size="10.00" fill="#000000">&#45;_social_network_name</text>
</g>
<!-- Node5 -->
<g id="node4" class="node">
<title>Node5</title>
<g id="a_node4"><a xlink:title="STL class. ">
<polygon fill="#ffffff" stroke="#bfbfbf" points="156.5,-431.5 156.5,-499.5 251.5,-499.5 251.5,-431.5 156.5,-431.5"/>
<text text-anchor="start" x="164.5" y="-487.5" font-family="Helvetica,sans-Serif" font-size="10.00" fill="#000000">std::basic_string&lt;</text>
<text text-anchor="middle" x="204" y="-476.5" font-family="Helvetica,sans-Serif" font-size="10.00" fill="#000000"> char &gt;</text>
<polyline fill="none" stroke="#bfbfbf" points="156.5,-469.5 251.5,-469.5 "/>
<text text-anchor="middle" x="204" y="-457.5" font-family="Helvetica,sans-Serif" font-size="10.00" fill="#000000"> </text>
<polyline fill="none" stroke="#bfbfbf" points="156.5,-450.5 251.5,-450.5 "/>
<text text-anchor="middle" x="204" y="-438.5" font-family="Helvetica,sans-Serif" font-size="10.00" fill="#000000"> </text>
</a>
</g>
</g>
<!-- Node5&#45;&gt;Node4 -->
<g id="edge3" class="edge">
<title>Node5&#45;&gt;Node4</title>
<path fill="none" stroke="#191970" d="M204,-421.1957C204,-396.37 204,-366.1216 204,-344.3549"/>
<polygon fill="none" stroke="#191970" points="200.5001,-421.4626 204,-431.4627 207.5001,-421.4627 200.5001,-421.4626"/>
</g>
</g>
</svg>
