<?xml version="1.0" encoding="UTF-8" standalone="no"?>
<!DOCTYPE svg PUBLIC "-//W3C//DTD SVG 1.1//EN"
 "http://www.w3.org/Graphics/SVG/1.1/DTD/svg11.dtd">
<!-- Generated by graphviz version 2.40.1 (20161225.0304)
 -->
<!-- Title: Asteroids::TechnicalServices::Financial::CreditCardProcessorInterface::authorizePayment Pages: 1 -->
<svg width="679pt" height="50pt"
 viewBox="0.00 0.00 679.00 50.00" xmlns="http://www.w3.org/2000/svg" xmlns:xlink="http://www.w3.org/1999/xlink">
<g id="graph0" class="graph" transform="scale(1 1) rotate(0) translate(4 46)">
<title>Asteroids::TechnicalServices::Financial::CreditCardProcessorInterface::authorizePayment</title>
<polygon fill="#ffffff" stroke="transparent" points="-4,4 -4,-46 675,-46 675,4 -4,4"/>
<!-- Node1 -->
<g id="node1" class="node">
<title>Node1</title>
<polygon fill="#bfbfbf" stroke="#000000" points="0,-.5 0,-41.5 159,-41.5 159,-.5 0,-.5"/>
<text text-anchor="start" x="8" y="-29.5" font-family="Helvetica,sans-Serif" font-size="10.00" fill="#000000">Asteroids::TechnicalServices</text>
<text text-anchor="start" x="8" y="-18.5" font-family="Helvetica,sans-Serif" font-size="10.00" fill="#000000">::Financial::CreditCardProcessor</text>
<text text-anchor="middle" x="79.5" y="-7.5" font-family="Helvetica,sans-Serif" font-size="10.00" fill="#000000">Interface::authorizePayment</text>
</g>
<!-- Node2 -->
<g id="node2" class="node">
<title>Node2</title>
<g id="a_node2"><a xlink:href="$classAsteroids_1_1UI_1_1ServerTextUI_1_1ServerTextUI.html#a6713eb173fef32a2fc96932b96ce2dea" xlink:title="Asteroids::UI::ServerText\lUI::ServerTextUI::do_process\l_credit_card_payment">
<polygon fill="#ffffff" stroke="#000000" points="195,-.5 195,-41.5 343,-41.5 343,-.5 195,-.5"/>
<text text-anchor="start" x="203" y="-29.5" font-family="Helvetica,sans-Serif" font-size="10.00" fill="#000000">Asteroids::UI::ServerText</text>
<text text-anchor="start" x="203" y="-18.5" font-family="Helvetica,sans-Serif" font-size="10.00" fill="#000000">UI::ServerTextUI::do_process</text>
<text text-anchor="middle" x="269" y="-7.5" font-family="Helvetica,sans-Serif" font-size="10.00" fill="#000000">_credit_card_payment</text>
</a>
</g>
</g>
<!-- Node1&#45;&gt;Node2 -->
<g id="edge1" class="edge">
<title>Node1&#45;&gt;Node2</title>
<path fill="none" stroke="#191970" d="M169.1005,-21C177.7062,-21 186.3687,-21 194.8029,-21"/>
<polygon fill="#191970" stroke="#191970" points="169.0414,-17.5001 159.0414,-21 169.0414,-24.5001 169.0414,-17.5001"/>
</g>
<!-- Node3 -->
<g id="node3" class="node">
<title>Node3</title>
<g id="a_node3"><a xlink:href="$classAsteroids_1_1UI_1_1ServerTextUI_1_1ServerTextUI.html#aae7cc1a6a551fc4dbd5ac7270f1d3e94" xlink:title="Asteroids::UI::ServerText\lUI::ServerTextUI::main\l_menu_loop">
<polygon fill="#ffffff" stroke="#000000" points="379,-.5 379,-41.5 507,-41.5 507,-.5 379,-.5"/>
<text text-anchor="start" x="387" y="-29.5" font-family="Helvetica,sans-Serif" font-size="10.00" fill="#000000">Asteroids::UI::ServerText</text>
<text text-anchor="start" x="387" y="-18.5" font-family="Helvetica,sans-Serif" font-size="10.00" fill="#000000">UI::ServerTextUI::main</text>
<text text-anchor="middle" x="443" y="-7.5" font-family="Helvetica,sans-Serif" font-size="10.00" fill="#000000">_menu_loop</text>
</a>
</g>
</g>
<!-- Node2&#45;&gt;Node3 -->
<g id="edge2" class="edge">
<title>Node2&#45;&gt;Node3</title>
<path fill="none" stroke="#191970" d="M353.17,-21C361.8281,-21 370.5236,-21 378.913,-21"/>
<polygon fill="#191970" stroke="#191970" points="353.044,-17.5001 343.044,-21 353.0439,-24.5001 353.044,-17.5001"/>
</g>
<!-- Node4 -->
<g id="node4" class="node">
<title>Node4</title>
<g id="a_node4"><a xlink:href="$classAsteroids_1_1UI_1_1ServerTextUI_1_1ServerTextUI.html#a92fb489434b5bd2a9e91f5d77c9832ac" xlink:title="Asteroids::UI::ServerText\lUI::ServerTextUI::run">
<polygon fill="#ffffff" stroke="#000000" points="543,-6 543,-36 671,-36 671,-6 543,-6"/>
<text text-anchor="start" x="551" y="-24" font-family="Helvetica,sans-Serif" font-size="10.00" fill="#000000">Asteroids::UI::ServerText</text>
<text text-anchor="middle" x="607" y="-13" font-family="Helvetica,sans-Serif" font-size="10.00" fill="#000000">UI::ServerTextUI::run</text>
</a>
</g>
</g>
<!-- Node3&#45;&gt;Node4 -->
<g id="edge3" class="edge">
<title>Node3&#45;&gt;Node4</title>
<path fill="none" stroke="#191970" d="M517.5641,-21C526.0037,-21 534.5492,-21 542.8391,-21"/>
<polygon fill="#191970" stroke="#191970" points="517.3465,-17.5001 507.3464,-21 517.3464,-24.5001 517.3465,-17.5001"/>
</g>
</g>
</svg>
