<?xml version="1.0" encoding="UTF-8" standalone="no"?>
<!DOCTYPE svg PUBLIC "-//W3C//DTD SVG 1.1//EN"
 "http://www.w3.org/Graphics/SVG/1.1/DTD/svg11.dtd">
<!-- Generated by graphviz version 2.40.1 (20161225.0304)
 -->
<!-- Title: Asteroids::Domain::Net::Messages::AUTH_STATE::reset Pages: 1 -->
<svg width="304pt" height="50pt"
 viewBox="0.00 0.00 304.00 50.00" xmlns="http://www.w3.org/2000/svg" xmlns:xlink="http://www.w3.org/1999/xlink">
<g id="graph0" class="graph" transform="scale(1 1) rotate(0) translate(4 46)">
<title>Asteroids::Domain::Net::Messages::AUTH_STATE::reset</title>
<polygon fill="#ffffff" stroke="transparent" points="-4,4 -4,-46 300,-46 300,4 -4,4"/>
<!-- Node6 -->
<g id="node1" class="node">
<title>Node6</title>
<polygon fill="#bfbfbf" stroke="#000000" points="0,-.5 0,-41.5 117,-41.5 117,-.5 0,-.5"/>
<text text-anchor="start" x="8" y="-29.5" font-family="Helvetica,sans-Serif" font-size="10.00" fill="#000000">Asteroids::Domain::</text>
<text text-anchor="start" x="8" y="-18.5" font-family="Helvetica,sans-Serif" font-size="10.00" fill="#000000">Net::Messages::AUTH</text>
<text text-anchor="middle" x="58.5" y="-7.5" font-family="Helvetica,sans-Serif" font-size="10.00" fill="#000000">_STATE::reset</text>
</g>
<!-- Node7 -->
<g id="node2" class="node">
<title>Node7</title>
<g id="a_node2"><a xlink:href="$classAsteroids_1_1Domain_1_1Net_1_1Messages_1_1AUTH__STATE.html#a7f307b3e98dee115df05cc6d574ed2d0" xlink:title="Asteroids::Domain::\lNet::Messages::AUTH\l_STATE::setAuthSuccessful">
<polygon fill="#ffffff" stroke="#000000" points="153,-.5 153,-41.5 296,-41.5 296,-.5 153,-.5"/>
<text text-anchor="start" x="161" y="-29.5" font-family="Helvetica,sans-Serif" font-size="10.00" fill="#000000">Asteroids::Domain::</text>
<text text-anchor="start" x="161" y="-18.5" font-family="Helvetica,sans-Serif" font-size="10.00" fill="#000000">Net::Messages::AUTH</text>
<text text-anchor="middle" x="224.5" y="-7.5" font-family="Helvetica,sans-Serif" font-size="10.00" fill="#000000">_STATE::setAuthSuccessful</text>
</a>
</g>
</g>
<!-- Node6&#45;&gt;Node7 -->
<g id="edge1" class="edge">
<title>Node6&#45;&gt;Node7</title>
<path fill="none" stroke="#191970" d="M117.0254,-21C125.3447,-21 134.0243,-21 142.6867,-21"/>
<polygon fill="#191970" stroke="#191970" points="142.8251,-24.5001 152.825,-21 142.825,-17.5001 142.8251,-24.5001"/>
</g>
</g>
</svg>
