<?xml version="1.0" encoding="UTF-8" standalone="no"?>
<!DOCTYPE svg PUBLIC "-//W3C//DTD SVG 1.1//EN"
 "http://www.w3.org/Graphics/SVG/1.1/DTD/svg11.dtd">
<!-- Generated by graphviz version 2.40.1 (20161225.0304)
 -->
<!-- Title: Asteroids::Domain::Game::GAME_HISTORY_ENTRY::reset Pages: 1 -->
<svg width="380pt" height="50pt"
 viewBox="0.00 0.00 380.00 50.00" xmlns="http://www.w3.org/2000/svg" xmlns:xlink="http://www.w3.org/1999/xlink">
<g id="graph0" class="graph" transform="scale(1 1) rotate(0) translate(4 46)">
<title>Asteroids::Domain::Game::GAME_HISTORY_ENTRY::reset</title>
<polygon fill="#ffffff" stroke="transparent" points="-4,4 -4,-46 376,-46 376,4 -4,4"/>
<!-- Node14 -->
<g id="node1" class="node">
<title>Node14</title>
<polygon fill="#bfbfbf" stroke="#000000" points="0,-.5 0,-41.5 168,-41.5 168,-.5 0,-.5"/>
<text text-anchor="start" x="8" y="-29.5" font-family="Helvetica,sans-Serif" font-size="10.00" fill="#000000">Asteroids::Domain::</text>
<text text-anchor="start" x="8" y="-18.5" font-family="Helvetica,sans-Serif" font-size="10.00" fill="#000000">Game::GAME_HISTORY_ENTRY</text>
<text text-anchor="middle" x="84" y="-7.5" font-family="Helvetica,sans-Serif" font-size="10.00" fill="#000000">::reset</text>
</g>
<!-- Node15 -->
<g id="node2" class="node">
<title>Node15</title>
<g id="a_node2"><a xlink:href="$classAsteroids_1_1Domain_1_1Game_1_1GAME__HISTORY__ENTRY.html#a2c0700cfa33f03e73a68a72586454aa7" xlink:title="Asteroids::Domain::\lGame::GAME_HISTORY_ENTRY\l::GAME_HISTORY_ENTRY">
<polygon fill="#ffffff" stroke="#000000" points="204,-.5 204,-41.5 372,-41.5 372,-.5 204,-.5"/>
<text text-anchor="start" x="212" y="-29.5" font-family="Helvetica,sans-Serif" font-size="10.00" fill="#000000">Asteroids::Domain::</text>
<text text-anchor="start" x="212" y="-18.5" font-family="Helvetica,sans-Serif" font-size="10.00" fill="#000000">Game::GAME_HISTORY_ENTRY</text>
<text text-anchor="middle" x="288" y="-7.5" font-family="Helvetica,sans-Serif" font-size="10.00" fill="#000000">::GAME_HISTORY_ENTRY</text>
</a>
</g>
</g>
<!-- Node14&#45;&gt;Node15 -->
<g id="edge1" class="edge">
<title>Node14&#45;&gt;Node15</title>
<path fill="none" stroke="#191970" d="M178.4024,-21C186.8467,-21 195.3609,-21 203.7117,-21"/>
<polygon fill="#191970" stroke="#191970" points="178.1524,-17.5001 168.1524,-21 178.1524,-24.5001 178.1524,-17.5001"/>
</g>
</g>
</svg>
