<?xml version="1.0" encoding="UTF-8" standalone="no"?>
<!DOCTYPE svg PUBLIC "-//W3C//DTD SVG 1.1//EN"
 "http://www.w3.org/Graphics/SVG/1.1/DTD/svg11.dtd">
<!-- Generated by graphviz version 2.40.1 (20161225.0304)
 -->
<!-- Title: Asteroids::Domain::Game::Actors::Rock::reset Pages: 1 -->
<svg width="869pt" height="140pt"
 viewBox="0.00 0.00 869.00 140.00" xmlns="http://www.w3.org/2000/svg" xmlns:xlink="http://www.w3.org/1999/xlink">
<g id="graph0" class="graph" transform="scale(1 1) rotate(0) translate(4 136)">
<title>Asteroids::Domain::Game::Actors::Rock::reset</title>
<polygon fill="#ffffff" stroke="transparent" points="-4,4 -4,-136 865,-136 865,4 -4,4"/>
<!-- Node34 -->
<g id="node1" class="node">
<title>Node34</title>
<polygon fill="#bfbfbf" stroke="#000000" points="0,-36 0,-66 134,-66 134,-36 0,-36"/>
<text text-anchor="start" x="8" y="-54" font-family="Helvetica,sans-Serif" font-size="10.00" fill="#000000">Asteroids::Domain::</text>
<text text-anchor="middle" x="67" y="-43" font-family="Helvetica,sans-Serif" font-size="10.00" fill="#000000">Game::Actors::Rock::reset</text>
</g>
<!-- Node35 -->
<g id="node2" class="node">
<title>Node35</title>
<g id="a_node2"><a xlink:href="$classAsteroids_1_1Domain_1_1Game_1_1Actors_1_1Rock.html#aa2a9c917715b56e4584f514c930c4690" xlink:title="Asteroids::Domain::\lGame::Actors::Rock::\linitialize_polygon">
<polygon fill="#ffffff" stroke="#000000" points="170,-60.5 170,-101.5 283,-101.5 283,-60.5 170,-60.5"/>
<text text-anchor="start" x="178" y="-89.5" font-family="Helvetica,sans-Serif" font-size="10.00" fill="#000000">Asteroids::Domain::</text>
<text text-anchor="start" x="178" y="-78.5" font-family="Helvetica,sans-Serif" font-size="10.00" fill="#000000">Game::Actors::Rock::</text>
<text text-anchor="middle" x="226.5" y="-67.5" font-family="Helvetica,sans-Serif" font-size="10.00" fill="#000000">initialize_polygon</text>
</a>
</g>
</g>
<!-- Node34&#45;&gt;Node35 -->
<g id="edge1" class="edge">
<title>Node34&#45;&gt;Node35</title>
<path fill="none" stroke="#191970" d="M134.1801,-63.6358C142.747,-65.2471 151.5124,-66.8958 160.0675,-68.5049"/>
<polygon fill="#191970" stroke="#191970" points="159.5145,-71.9621 169.9892,-70.371 160.8085,-65.0828 159.5145,-71.9621"/>
</g>
<!-- Node41 -->
<g id="node8" class="node">
<title>Node41</title>
<g id="a_node8"><a xlink:href="$classAsteroids_1_1Domain_1_1Game_1_1Actors_1_1Actor.html#a538200753592ca63f7c3348fcece583f" xlink:title="Asteroids::Domain::\lGame::Actors::Actor\l::reset">
<polygon fill="#ffffff" stroke="#000000" points="173,-.5 173,-41.5 280,-41.5 280,-.5 173,-.5"/>
<text text-anchor="start" x="181" y="-29.5" font-family="Helvetica,sans-Serif" font-size="10.00" fill="#000000">Asteroids::Domain::</text>
<text text-anchor="start" x="181" y="-18.5" font-family="Helvetica,sans-Serif" font-size="10.00" fill="#000000">Game::Actors::Actor</text>
<text text-anchor="middle" x="226.5" y="-7.5" font-family="Helvetica,sans-Serif" font-size="10.00" fill="#000000">::reset</text>
</a>
</g>
</g>
<!-- Node34&#45;&gt;Node41 -->
<g id="edge8" class="edge">
<title>Node34&#45;&gt;Node41</title>
<path fill="none" stroke="#191970" d="M134.1801,-38.3642C143.6835,-36.5768 153.4312,-34.7433 162.865,-32.969"/>
<polygon fill="#191970" stroke="#191970" points="163.7714,-36.3599 172.952,-31.0717 162.4774,-29.4806 163.7714,-36.3599"/>
</g>
<!-- Node36 -->
<g id="node3" class="node">
<title>Node36</title>
<g id="a_node3"><a xlink:href="$classAsteroids_1_1Domain_1_1Game_1_1Actors_1_1Actor.html#a224abd0a9dff102361ce2a305ba4734f" xlink:title="Asteroids::Domain::\lGame::Actors::Actor\l::set_polygon">
<polygon fill="#ffffff" stroke="#000000" points="319,-60.5 319,-101.5 426,-101.5 426,-60.5 319,-60.5"/>
<text text-anchor="start" x="327" y="-89.5" font-family="Helvetica,sans-Serif" font-size="10.00" fill="#000000">Asteroids::Domain::</text>
<text text-anchor="start" x="327" y="-78.5" font-family="Helvetica,sans-Serif" font-size="10.00" fill="#000000">Game::Actors::Actor</text>
<text text-anchor="middle" x="372.5" y="-67.5" font-family="Helvetica,sans-Serif" font-size="10.00" fill="#000000">::set_polygon</text>
</a>
</g>
</g>
<!-- Node35&#45;&gt;Node36 -->
<g id="edge2" class="edge">
<title>Node35&#45;&gt;Node36</title>
<path fill="none" stroke="#191970" d="M283.3655,-81C291.6762,-81 300.2806,-81 308.718,-81"/>
<polygon fill="#191970" stroke="#191970" points="308.8961,-84.5001 318.8961,-81 308.8961,-77.5001 308.8961,-84.5001"/>
</g>
<!-- Node37 -->
<g id="node4" class="node">
<title>Node37</title>
<g id="a_node4"><a xlink:href="$classAsteroids_1_1Domain_1_1Game_1_1Actors_1_1Actor.html#a4bb89af7457ff402fa5a4a11d62ab4ca" xlink:title="Asteroids::Domain::\lGame::Actors::Actor\l::update_rect">
<polygon fill="#ffffff" stroke="#000000" points="462,-60.5 462,-101.5 569,-101.5 569,-60.5 462,-60.5"/>
<text text-anchor="start" x="470" y="-89.5" font-family="Helvetica,sans-Serif" font-size="10.00" fill="#000000">Asteroids::Domain::</text>
<text text-anchor="start" x="470" y="-78.5" font-family="Helvetica,sans-Serif" font-size="10.00" fill="#000000">Game::Actors::Actor</text>
<text text-anchor="middle" x="515.5" y="-67.5" font-family="Helvetica,sans-Serif" font-size="10.00" fill="#000000">::update_rect</text>
</a>
</g>
</g>
<!-- Node36&#45;&gt;Node37 -->
<g id="edge3" class="edge">
<title>Node36&#45;&gt;Node37</title>
<path fill="none" stroke="#191970" d="M426.1548,-81C434.3808,-81 442.9436,-81 451.3684,-81"/>
<polygon fill="#191970" stroke="#191970" points="451.5445,-84.5001 461.5445,-81 451.5445,-77.5001 451.5445,-84.5001"/>
</g>
<!-- Node38 -->
<g id="node5" class="node">
<title>Node38</title>
<g id="a_node5"><a xlink:href="$classAsteroids_1_1Domain_1_1Game_1_1Actors_1_1Rect.html#a0ab06f4fe6e0dbd681c89397f22aa08f" xlink:title="Asteroids::Domain::\lGame::Actors::Rect::\ladd_offset">
<polygon fill="#ffffff" stroke="#000000" points="605,-90.5 605,-131.5 715,-131.5 715,-90.5 605,-90.5"/>
<text text-anchor="start" x="613" y="-119.5" font-family="Helvetica,sans-Serif" font-size="10.00" fill="#000000">Asteroids::Domain::</text>
<text text-anchor="start" x="613" y="-108.5" font-family="Helvetica,sans-Serif" font-size="10.00" fill="#000000">Game::Actors::Rect::</text>
<text text-anchor="middle" x="660" y="-97.5" font-family="Helvetica,sans-Serif" font-size="10.00" fill="#000000">add_offset</text>
</a>
</g>
</g>
<!-- Node37&#45;&gt;Node38 -->
<g id="edge4" class="edge">
<title>Node37&#45;&gt;Node38</title>
<path fill="none" stroke="#191970" d="M569.3065,-92.1709C577.6114,-93.8951 586.2648,-95.6917 594.7864,-97.4608"/>
<polygon fill="#191970" stroke="#191970" points="594.1979,-100.9132 604.7006,-99.5192 595.6209,-94.0594 594.1979,-100.9132"/>
</g>
<!-- Node40 -->
<g id="node7" class="node">
<title>Node40</title>
<g id="a_node7"><a xlink:href="$classAsteroids_1_1Domain_1_1Game_1_1Actors_1_1Rect.html#a687d0848c13d1b8dfbd2f896636b4145" xlink:title="Create a rect from polygon points. ">
<polygon fill="#ffffff" stroke="#000000" points="605,-30.5 605,-71.5 715,-71.5 715,-30.5 605,-30.5"/>
<text text-anchor="start" x="613" y="-59.5" font-family="Helvetica,sans-Serif" font-size="10.00" fill="#000000">Asteroids::Domain::</text>
<text text-anchor="start" x="613" y="-48.5" font-family="Helvetica,sans-Serif" font-size="10.00" fill="#000000">Game::Actors::Rect::</text>
<text text-anchor="middle" x="660" y="-37.5" font-family="Helvetica,sans-Serif" font-size="10.00" fill="#000000">consume_polygon</text>
</a>
</g>
</g>
<!-- Node37&#45;&gt;Node40 -->
<g id="edge6" class="edge">
<title>Node37&#45;&gt;Node40</title>
<path fill="none" stroke="#191970" d="M569.3065,-69.8291C577.6114,-68.1049 586.2648,-66.3083 594.7864,-64.5392"/>
<polygon fill="#191970" stroke="#191970" points="595.6209,-67.9406 604.7006,-62.4808 594.1979,-61.0868 595.6209,-67.9406"/>
</g>
<!-- Node39 -->
<g id="node6" class="node">
<title>Node39</title>
<g id="a_node6"><a xlink:href="$classAsteroids_1_1Domain_1_1Game_1_1Actors_1_1Rect.html#a40c593b8be9c243d6cdc30e2f8ee67df" xlink:title="Asteroids::Domain::\lGame::Actors::Rect::\lupdate_dimensions">
<polygon fill="#ffffff" stroke="#000000" points="751,-60.5 751,-101.5 861,-101.5 861,-60.5 751,-60.5"/>
<text text-anchor="start" x="759" y="-89.5" font-family="Helvetica,sans-Serif" font-size="10.00" fill="#000000">Asteroids::Domain::</text>
<text text-anchor="start" x="759" y="-78.5" font-family="Helvetica,sans-Serif" font-size="10.00" fill="#000000">Game::Actors::Rect::</text>
<text text-anchor="middle" x="806" y="-67.5" font-family="Helvetica,sans-Serif" font-size="10.00" fill="#000000">update_dimensions</text>
</a>
</g>
</g>
<!-- Node38&#45;&gt;Node39 -->
<g id="edge5" class="edge">
<title>Node38&#45;&gt;Node39</title>
<path fill="none" stroke="#191970" d="M715.1963,-99.6583C723.5541,-97.9409 732.2434,-96.1555 740.7888,-94.3996"/>
<polygon fill="#191970" stroke="#191970" points="741.6347,-97.7989 750.7256,-92.3578 740.2258,-90.9422 741.6347,-97.7989"/>
</g>
<!-- Node40&#45;&gt;Node39 -->
<g id="edge7" class="edge">
<title>Node40&#45;&gt;Node39</title>
<path fill="none" stroke="#191970" d="M715.1963,-62.3417C723.5541,-64.0591 732.2434,-65.8445 740.7888,-67.6004"/>
<polygon fill="#191970" stroke="#191970" points="740.2258,-71.0578 750.7256,-69.6422 741.6347,-64.2011 740.2258,-71.0578"/>
</g>
<!-- Node42 -->
<g id="node9" class="node">
<title>Node42</title>
<g id="a_node9"><a xlink:href="$classAsteroids_1_1Domain_1_1Game_1_1Actors_1_1Actor.html#a3678c27cfb63d8b4eb9b0aa64e352ee1" xlink:title="Asteroids::Domain::\lGame::Actors::Actor\l::clear_input">
<polygon fill="#ffffff" stroke="#000000" points="319,-.5 319,-41.5 426,-41.5 426,-.5 319,-.5"/>
<text text-anchor="start" x="327" y="-29.5" font-family="Helvetica,sans-Serif" font-size="10.00" fill="#000000">Asteroids::Domain::</text>
<text text-anchor="start" x="327" y="-18.5" font-family="Helvetica,sans-Serif" font-size="10.00" fill="#000000">Game::Actors::Actor</text>
<text text-anchor="middle" x="372.5" y="-7.5" font-family="Helvetica,sans-Serif" font-size="10.00" fill="#000000">::clear_input</text>
</a>
</g>
</g>
<!-- Node41&#45;&gt;Node42 -->
<g id="edge9" class="edge">
<title>Node41&#45;&gt;Node42</title>
<path fill="none" stroke="#191970" d="M280.036,-21C289.3595,-21 299.1399,-21 308.7061,-21"/>
<polygon fill="#191970" stroke="#191970" points="308.9705,-24.5001 318.9705,-21 308.9705,-17.5001 308.9705,-24.5001"/>
</g>
</g>
</svg>
