<?xml version="1.0" encoding="UTF-8" standalone="no"?>
<!DOCTYPE svg PUBLIC "-//W3C//DTD SVG 1.1//EN"
 "http://www.w3.org/Graphics/SVG/1.1/DTD/svg11.dtd">
<!-- Generated by graphviz version 2.40.1 (20161225.0304)
 -->
<!-- Title: Asteroids::Domain::Net::Messages::AUTH_STATE::setAuthSuccessful Pages: 1 -->
<svg width="465pt" height="50pt"
 viewBox="0.00 0.00 465.00 50.00" xmlns="http://www.w3.org/2000/svg" xmlns:xlink="http://www.w3.org/1999/xlink">
<g id="graph0" class="graph" transform="scale(1 1) rotate(0) translate(4 46)">
<title>Asteroids::Domain::Net::Messages::AUTH_STATE::setAuthSuccessful</title>
<polygon fill="#ffffff" stroke="transparent" points="-4,4 -4,-46 461,-46 461,4 -4,4"/>
<!-- Node11 -->
<g id="node1" class="node">
<title>Node11</title>
<polygon fill="#bfbfbf" stroke="#000000" points="0,-.5 0,-41.5 143,-41.5 143,-.5 0,-.5"/>
<text text-anchor="start" x="8" y="-29.5" font-family="Helvetica,sans-Serif" font-size="10.00" fill="#000000">Asteroids::Domain::</text>
<text text-anchor="start" x="8" y="-18.5" font-family="Helvetica,sans-Serif" font-size="10.00" fill="#000000">Net::Messages::AUTH</text>
<text text-anchor="middle" x="71.5" y="-7.5" font-family="Helvetica,sans-Serif" font-size="10.00" fill="#000000">_STATE::setAuthSuccessful</text>
</g>
<!-- Node12 -->
<g id="node2" class="node">
<title>Node12</title>
<g id="a_node2"><a xlink:href="$classAsteroids_1_1Domain_1_1Net_1_1Messages_1_1AUTH__STATE.html#a87117d1188c07bea42ec44ed45125044" xlink:title="Asteroids::Domain::\lNet::Messages::AUTH\l_STATE::reset">
<polygon fill="#ffffff" stroke="#000000" points="179,-.5 179,-41.5 296,-41.5 296,-.5 179,-.5"/>
<text text-anchor="start" x="187" y="-29.5" font-family="Helvetica,sans-Serif" font-size="10.00" fill="#000000">Asteroids::Domain::</text>
<text text-anchor="start" x="187" y="-18.5" font-family="Helvetica,sans-Serif" font-size="10.00" fill="#000000">Net::Messages::AUTH</text>
<text text-anchor="middle" x="237.5" y="-7.5" font-family="Helvetica,sans-Serif" font-size="10.00" fill="#000000">_STATE::reset</text>
</a>
</g>
</g>
<!-- Node11&#45;&gt;Node12 -->
<g id="edge1" class="edge">
<title>Node11&#45;&gt;Node12</title>
<path fill="none" stroke="#191970" d="M153.3766,-21C161.9474,-21 170.5341,-21 178.7711,-21"/>
<polygon fill="#191970" stroke="#191970" points="153.3446,-17.5001 143.3445,-21 153.3445,-24.5001 153.3446,-17.5001"/>
</g>
<!-- Node13 -->
<g id="node3" class="node">
<title>Node13</title>
<g id="a_node3"><a xlink:href="$classAsteroids_1_1Domain_1_1Net_1_1Messages_1_1AUTH__STATE.html#a6d14693ee76c4fc9940ab2d85a24af5f" xlink:title="Asteroids::Domain::\lNet::Messages::AUTH\l_STATE::AUTH_STATE">
<polygon fill="#ffffff" stroke="#000000" points="332,-.5 332,-41.5 457,-41.5 457,-.5 332,-.5"/>
<text text-anchor="start" x="340" y="-29.5" font-family="Helvetica,sans-Serif" font-size="10.00" fill="#000000">Asteroids::Domain::</text>
<text text-anchor="start" x="340" y="-18.5" font-family="Helvetica,sans-Serif" font-size="10.00" fill="#000000">Net::Messages::AUTH</text>
<text text-anchor="middle" x="394.5" y="-7.5" font-family="Helvetica,sans-Serif" font-size="10.00" fill="#000000">_STATE::AUTH_STATE</text>
</a>
</g>
</g>
<!-- Node12&#45;&gt;Node13 -->
<g id="edge2" class="edge">
<title>Node12&#45;&gt;Node13</title>
<path fill="none" stroke="#191970" d="M306.5688,-21C314.9803,-21 323.5385,-21 331.8493,-21"/>
<polygon fill="#191970" stroke="#191970" points="306.4077,-17.5001 296.4077,-21 306.4077,-24.5001 306.4077,-17.5001"/>
</g>
</g>
</svg>
