<?xml version="1.0" encoding="UTF-8" standalone="no"?>
<!DOCTYPE svg PUBLIC "-//W3C//DTD SVG 1.1//EN"
 "http://www.w3.org/Graphics/SVG/1.1/DTD/svg11.dtd">
<!-- Generated by graphviz version 2.40.1 (20161225.0304)
 -->
<!-- Title: Asteroids::Domain::Game::Randomer::reset Pages: 1 -->
<svg width="460pt" height="39pt"
 viewBox="0.00 0.00 460.00 39.00" xmlns="http://www.w3.org/2000/svg" xmlns:xlink="http://www.w3.org/1999/xlink">
<g id="graph0" class="graph" transform="scale(1 1) rotate(0) translate(4 35)">
<title>Asteroids::Domain::Game::Randomer::reset</title>
<polygon fill="#ffffff" stroke="transparent" points="-4,4 -4,-35 456,-35 456,4 -4,4"/>
<!-- Node14 -->
<g id="node1" class="node">
<title>Node14</title>
<polygon fill="#bfbfbf" stroke="#000000" points="0,-.5 0,-30.5 122,-30.5 122,-.5 0,-.5"/>
<text text-anchor="start" x="8" y="-18.5" font-family="Helvetica,sans-Serif" font-size="10.00" fill="#000000">Asteroids::Domain::</text>
<text text-anchor="middle" x="61" y="-7.5" font-family="Helvetica,sans-Serif" font-size="10.00" fill="#000000">Game::Randomer::reset</text>
</g>
<!-- Node15 -->
<g id="node2" class="node">
<title>Node15</title>
<g id="a_node2"><a xlink:href="$classAsteroids_1_1Domain_1_1Game_1_1Randomer.html#aaef0f9e57c6743748a2f0b2d944345ee" xlink:title="Asteroids::Domain::\lGame::Randomer::init">
<polygon fill="#ffffff" stroke="#000000" points="158,-.5 158,-30.5 271,-30.5 271,-.5 158,-.5"/>
<text text-anchor="start" x="166" y="-18.5" font-family="Helvetica,sans-Serif" font-size="10.00" fill="#000000">Asteroids::Domain::</text>
<text text-anchor="middle" x="214.5" y="-7.5" font-family="Helvetica,sans-Serif" font-size="10.00" fill="#000000">Game::Randomer::init</text>
</a>
</g>
</g>
<!-- Node14&#45;&gt;Node15 -->
<g id="edge1" class="edge">
<title>Node14&#45;&gt;Node15</title>
<path fill="none" stroke="#191970" d="M132.3578,-15.5C140.8191,-15.5 149.3682,-15.5 157.5911,-15.5"/>
<polygon fill="#191970" stroke="#191970" points="132.1084,-12.0001 122.1083,-15.5 132.1083,-19.0001 132.1084,-12.0001"/>
</g>
<!-- Node16 -->
<g id="node3" class="node">
<title>Node16</title>
<g id="a_node3"><a xlink:href="$classAsteroids_1_1Domain_1_1Game_1_1Randomer.html#a8e660c706ed181bde7b6f6310285b8e9" xlink:title="Asteroids::Domain::\lGame::Randomer::Randomer">
<polygon fill="#ffffff" stroke="#000000" points="307,-.5 307,-30.5 452,-30.5 452,-.5 307,-.5"/>
<text text-anchor="start" x="315" y="-18.5" font-family="Helvetica,sans-Serif" font-size="10.00" fill="#000000">Asteroids::Domain::</text>
<text text-anchor="middle" x="379.5" y="-7.5" font-family="Helvetica,sans-Serif" font-size="10.00" fill="#000000">Game::Randomer::Randomer</text>
</a>
</g>
</g>
<!-- Node15&#45;&gt;Node16 -->
<g id="edge2" class="edge">
<title>Node15&#45;&gt;Node16</title>
<path fill="none" stroke="#191970" d="M281.3869,-15.5C289.7809,-15.5 298.3987,-15.5 306.8754,-15.5"/>
<polygon fill="#191970" stroke="#191970" points="281.2837,-12.0001 271.2836,-15.5 281.2836,-19.0001 281.2837,-12.0001"/>
</g>
</g>
</svg>
