<?xml version="1.0" encoding="UTF-8" standalone="no"?>
<!DOCTYPE svg PUBLIC "-//W3C//DTD SVG 1.1//EN"
 "http://www.w3.org/Graphics/SVG/1.1/DTD/svg11.dtd">
<!-- Generated by graphviz version 2.40.1 (20161225.0304)
 -->
<!-- Title: Asteroids::Domain::Server::ServerFactory Pages: 1 -->
<svg width="160pt" height="248pt"
 viewBox="0.00 0.00 160.00 248.00" xmlns="http://www.w3.org/2000/svg" xmlns:xlink="http://www.w3.org/1999/xlink">
<g id="graph0" class="graph" transform="scale(1 1) rotate(0) translate(4 244)">
<title>Asteroids::Domain::Server::ServerFactory</title>
<polygon fill="#ffffff" stroke="transparent" points="-4,4 -4,-244 156,-244 156,4 -4,4"/>
<!-- Node2 -->
<g id="node1" class="node">
<title>Node2</title>
<polygon fill="#bfbfbf" stroke="#000000" points="0,-.5 0,-112.5 152,-112.5 152,-.5 0,-.5"/>
<text text-anchor="start" x="8" y="-100.5" font-family="Helvetica,sans-Serif" font-size="10.00" fill="#000000">Asteroids::Domain::</text>
<text text-anchor="middle" x="76" y="-89.5" font-family="Helvetica,sans-Serif" font-size="10.00" fill="#000000">Server::ServerFactory</text>
<polyline fill="none" stroke="#000000" points="0,-82.5 152,-82.5 "/>
<text text-anchor="start" x="8" y="-70.5" font-family="Helvetica,sans-Serif" font-size="10.00" fill="#000000">&#45; _factory</text>
<polyline fill="none" stroke="#000000" points="0,-63.5 152,-63.5 "/>
<text text-anchor="start" x="8" y="-51.5" font-family="Helvetica,sans-Serif" font-size="10.00" fill="#000000">+ ServerFactory()</text>
<text text-anchor="start" x="8" y="-40.5" font-family="Helvetica,sans-Serif" font-size="10.00" fill="#000000">+ createDaemon()</text>
<text text-anchor="start" x="8" y="-29.5" font-family="Helvetica,sans-Serif" font-size="10.00" fill="#000000">+ createEmptyHACCSReport()</text>
<text text-anchor="start" x="8" y="-18.5" font-family="Helvetica,sans-Serif" font-size="10.00" fill="#000000">+ createUpdater()</text>
<text text-anchor="start" x="8" y="-7.5" font-family="Helvetica,sans-Serif" font-size="10.00" fill="#000000">&#45; init()</text>
</g>
<!-- Node3 -->
<g id="node2" class="node">
<title>Node3</title>
<g id="a_node2"><a xlink:href="$classAsteroids_1_1Domain_1_1Server_1_1ServerFactoryInterface.html" xlink:title="Creates things inside the Server package. ">
<polygon fill="#ffffff" stroke="#000000" points="0,-149.5 0,-239.5 152,-239.5 152,-149.5 0,-149.5"/>
<text text-anchor="start" x="8" y="-227.5" font-family="Helvetica,sans-Serif" font-size="10.00" fill="#000000">Asteroids::Domain::</text>
<text text-anchor="middle" x="76" y="-216.5" font-family="Helvetica,sans-Serif" font-size="10.00" fill="#000000">Server::ServerFactoryInterface</text>
<polyline fill="none" stroke="#000000" points="0,-209.5 152,-209.5 "/>
<text text-anchor="middle" x="76" y="-197.5" font-family="Helvetica,sans-Serif" font-size="10.00" fill="#000000"> </text>
<polyline fill="none" stroke="#000000" points="0,-190.5 152,-190.5 "/>
<text text-anchor="start" x="8" y="-178.5" font-family="Helvetica,sans-Serif" font-size="10.00" fill="#000000">+ createDaemon()</text>
<text text-anchor="start" x="8" y="-167.5" font-family="Helvetica,sans-Serif" font-size="10.00" fill="#000000">+ createEmptyHACCSReport()</text>
<text text-anchor="start" x="8" y="-156.5" font-family="Helvetica,sans-Serif" font-size="10.00" fill="#000000">+ createUpdater()</text>
</a>
</g>
</g>
<!-- Node3&#45;&gt;Node2 -->
<g id="edge1" class="edge">
<title>Node3&#45;&gt;Node2</title>
<path fill="none" stroke="#191970" d="M76,-139.2882C76,-130.5993 76,-121.6063 76,-112.8911"/>
<polygon fill="none" stroke="#191970" points="72.5001,-139.3136 76,-149.3136 79.5001,-139.3137 72.5001,-139.3136"/>
</g>
</g>
</svg>
