<?xml version="1.0" encoding="UTF-8" standalone="no"?>
<!DOCTYPE svg PUBLIC "-//W3C//DTD SVG 1.1//EN"
 "http://www.w3.org/Graphics/SVG/1.1/DTD/svg11.dtd">
<!-- Generated by graphviz version 2.40.1 (20161225.0304)
 -->
<!-- Title: Asteroids::Domain::Game::Actors::Rect::consume_polygon Pages: 1 -->
<svg width="1110pt" height="350pt"
 viewBox="0.00 0.00 1110.00 350.00" xmlns="http://www.w3.org/2000/svg" xmlns:xlink="http://www.w3.org/1999/xlink">
<g id="graph0" class="graph" transform="scale(1 1) rotate(0) translate(4 346)">
<title>Asteroids::Domain::Game::Actors::Rect::consume_polygon</title>
<polygon fill="#ffffff" stroke="transparent" points="-4,4 -4,-346 1106,-346 1106,4 -4,4"/>
<!-- Node34 -->
<g id="node1" class="node">
<title>Node34</title>
<polygon fill="#bfbfbf" stroke="#000000" points="0,-120.5 0,-161.5 110,-161.5 110,-120.5 0,-120.5"/>
<text text-anchor="start" x="8" y="-149.5" font-family="Helvetica,sans-Serif" font-size="10.00" fill="#000000">Asteroids::Domain::</text>
<text text-anchor="start" x="8" y="-138.5" font-family="Helvetica,sans-Serif" font-size="10.00" fill="#000000">Game::Actors::Rect::</text>
<text text-anchor="middle" x="55" y="-127.5" font-family="Helvetica,sans-Serif" font-size="10.00" fill="#000000">consume_polygon</text>
</g>
<!-- Node35 -->
<g id="node2" class="node">
<title>Node35</title>
<g id="a_node2"><a xlink:href="$classAsteroids_1_1Domain_1_1Game_1_1Actors_1_1Actor.html#a4bb89af7457ff402fa5a4a11d62ab4ca" xlink:title="Asteroids::Domain::\lGame::Actors::Actor\l::update_rect">
<polygon fill="#ffffff" stroke="#000000" points="146,-120.5 146,-161.5 253,-161.5 253,-120.5 146,-120.5"/>
<text text-anchor="start" x="154" y="-149.5" font-family="Helvetica,sans-Serif" font-size="10.00" fill="#000000">Asteroids::Domain::</text>
<text text-anchor="start" x="154" y="-138.5" font-family="Helvetica,sans-Serif" font-size="10.00" fill="#000000">Game::Actors::Actor</text>
<text text-anchor="middle" x="199.5" y="-127.5" font-family="Helvetica,sans-Serif" font-size="10.00" fill="#000000">::update_rect</text>
</a>
</g>
</g>
<!-- Node34&#45;&gt;Node35 -->
<g id="edge1" class="edge">
<title>Node34&#45;&gt;Node35</title>
<path fill="none" stroke="#191970" d="M120.2666,-141C128.7277,-141 137.3177,-141 145.5667,-141"/>
<polygon fill="#191970" stroke="#191970" points="120.0415,-137.5001 110.0415,-141 120.0414,-144.5001 120.0415,-137.5001"/>
</g>
<!-- Node36 -->
<g id="node3" class="node">
<title>Node36</title>
<g id="a_node3"><a xlink:href="$classAsteroids_1_1Domain_1_1Game_1_1Actors_1_1Actor.html#aafec1372aa2f5b203112aae5f6b16310" xlink:title="Asteroids::Domain::\lGame::Actors::Actor\l::apply_vector_to_position">
<polygon fill="#ffffff" stroke="#000000" points="289,-210.5 289,-251.5 420,-251.5 420,-210.5 289,-210.5"/>
<text text-anchor="start" x="297" y="-239.5" font-family="Helvetica,sans-Serif" font-size="10.00" fill="#000000">Asteroids::Domain::</text>
<text text-anchor="start" x="297" y="-228.5" font-family="Helvetica,sans-Serif" font-size="10.00" fill="#000000">Game::Actors::Actor</text>
<text text-anchor="middle" x="354.5" y="-217.5" font-family="Helvetica,sans-Serif" font-size="10.00" fill="#000000">::apply_vector_to_position</text>
</a>
</g>
</g>
<!-- Node35&#45;&gt;Node36 -->
<g id="edge2" class="edge">
<title>Node35&#45;&gt;Node36</title>
<path fill="none" stroke="#191970" d="M243.9271,-166.7964C267.7846,-180.6491 296.789,-197.4904 319.1053,-210.4483"/>
<polygon fill="#191970" stroke="#191970" points="245.4655,-163.6425 235.0601,-161.6478 241.9505,-169.696 245.4655,-163.6425"/>
</g>
<!-- Node40 -->
<g id="node7" class="node">
<title>Node40</title>
<g id="a_node7"><a xlink:href="$classAsteroids_1_1Domain_1_1Game_1_1Actors_1_1Actor.html#a224abd0a9dff102361ce2a305ba4734f" xlink:title="Asteroids::Domain::\lGame::Actors::Actor\l::set_polygon">
<polygon fill="#ffffff" stroke="#000000" points="301,-120.5 301,-161.5 408,-161.5 408,-120.5 301,-120.5"/>
<text text-anchor="start" x="309" y="-149.5" font-family="Helvetica,sans-Serif" font-size="10.00" fill="#000000">Asteroids::Domain::</text>
<text text-anchor="start" x="309" y="-138.5" font-family="Helvetica,sans-Serif" font-size="10.00" fill="#000000">Game::Actors::Actor</text>
<text text-anchor="middle" x="354.5" y="-127.5" font-family="Helvetica,sans-Serif" font-size="10.00" fill="#000000">::set_polygon</text>
</a>
</g>
</g>
<!-- Node35&#45;&gt;Node40 -->
<g id="edge6" class="edge">
<title>Node35&#45;&gt;Node40</title>
<path fill="none" stroke="#191970" d="M263.5447,-141C275.9359,-141 288.8005,-141 300.8186,-141"/>
<polygon fill="#191970" stroke="#191970" points="263.2765,-137.5001 253.2765,-141 263.2764,-144.5001 263.2765,-137.5001"/>
</g>
<!-- Node55 -->
<g id="node22" class="node">
<title>Node55</title>
<g id="a_node22"><a xlink:href="$classAsteroids_1_1Domain_1_1Game_1_1Actors_1_1Actor.html#aa572cc87c0d07330348c811d778aa314" xlink:title="Asteroids::Domain::\lGame::Actors::Actor\l::set_position">
<polygon fill="#ffffff" stroke="#000000" points="301,-60.5 301,-101.5 408,-101.5 408,-60.5 301,-60.5"/>
<text text-anchor="start" x="309" y="-89.5" font-family="Helvetica,sans-Serif" font-size="10.00" fill="#000000">Asteroids::Domain::</text>
<text text-anchor="start" x="309" y="-78.5" font-family="Helvetica,sans-Serif" font-size="10.00" fill="#000000">Game::Actors::Actor</text>
<text text-anchor="middle" x="354.5" y="-67.5" font-family="Helvetica,sans-Serif" font-size="10.00" fill="#000000">::set_position</text>
</a>
</g>
</g>
<!-- Node35&#45;&gt;Node55 -->
<g id="edge21" class="edge">
<title>Node35&#45;&gt;Node55</title>
<path fill="none" stroke="#191970" d="M262.1726,-116.7397C275.1563,-111.7137 288.7169,-106.4644 301.3221,-101.585"/>
<polygon fill="#191970" stroke="#191970" points="260.9044,-113.4774 252.8422,-120.3514 263.4314,-120.0054 260.9044,-113.4774"/>
</g>
<!-- Node37 -->
<g id="node4" class="node">
<title>Node37</title>
<g id="a_node4"><a xlink:href="$classAsteroids_1_1Domain_1_1Game_1_1Actors_1_1Actor.html#a5a53ac407eec2feb06f167d1a496bbe5" xlink:title="Asteroids::Domain::\lGame::Actors::Actor\l::update">
<polygon fill="#ffffff" stroke="#000000" points="466.5,-240.5 466.5,-281.5 573.5,-281.5 573.5,-240.5 466.5,-240.5"/>
<text text-anchor="start" x="474.5" y="-269.5" font-family="Helvetica,sans-Serif" font-size="10.00" fill="#000000">Asteroids::Domain::</text>
<text text-anchor="start" x="474.5" y="-258.5" font-family="Helvetica,sans-Serif" font-size="10.00" fill="#000000">Game::Actors::Actor</text>
<text text-anchor="middle" x="520" y="-247.5" font-family="Helvetica,sans-Serif" font-size="10.00" fill="#000000">::update</text>
</a>
</g>
</g>
<!-- Node36&#45;&gt;Node37 -->
<g id="edge3" class="edge">
<title>Node36&#45;&gt;Node37</title>
<path fill="none" stroke="#191970" d="M430.4743,-244.7718C442.5663,-246.9637 454.8526,-249.1908 466.291,-251.2642"/>
<polygon fill="#191970" stroke="#191970" points="430.8495,-241.2828 420.3855,-242.943 429.6009,-248.1706 430.8495,-241.2828"/>
</g>
<!-- Node38 -->
<g id="node5" class="node">
<title>Node38</title>
<g id="a_node5"><a xlink:href="$classAsteroids_1_1Domain_1_1Game_1_1Actors_1_1Bullet.html#a06eb5b7aa30c8547159696c82fd2f642" xlink:title="Asteroids::Domain::\lGame::Actors::Bullet\l::update">
<polygon fill="#ffffff" stroke="#000000" points="633,-300.5 633,-341.5 741,-341.5 741,-300.5 633,-300.5"/>
<text text-anchor="start" x="641" y="-329.5" font-family="Helvetica,sans-Serif" font-size="10.00" fill="#000000">Asteroids::Domain::</text>
<text text-anchor="start" x="641" y="-318.5" font-family="Helvetica,sans-Serif" font-size="10.00" fill="#000000">Game::Actors::Bullet</text>
<text text-anchor="middle" x="687" y="-307.5" font-family="Helvetica,sans-Serif" font-size="10.00" fill="#000000">::update</text>
</a>
</g>
</g>
<!-- Node37&#45;&gt;Node38 -->
<g id="edge4" class="edge">
<title>Node37&#45;&gt;Node38</title>
<path fill="none" stroke="#191970" d="M583.2193,-283.7135C599.5371,-289.5762 616.9549,-295.8341 632.7691,-301.5158"/>
<polygon fill="#191970" stroke="#191970" points="584.3536,-280.4021 573.7591,-280.3146 581.9867,-286.9898 584.3536,-280.4021"/>
</g>
<!-- Node39 -->
<g id="node6" class="node">
<title>Node39</title>
<g id="a_node6"><a xlink:href="$classAsteroids_1_1Domain_1_1Game_1_1Actors_1_1GunShip.html#a4b37d42d9758c701d75e6a91dda71a5b" xlink:title="Asteroids::Domain::\lGame::Actors::GunShip\l::update">
<polygon fill="#ffffff" stroke="#000000" points="626.5,-240.5 626.5,-281.5 747.5,-281.5 747.5,-240.5 626.5,-240.5"/>
<text text-anchor="start" x="634.5" y="-269.5" font-family="Helvetica,sans-Serif" font-size="10.00" fill="#000000">Asteroids::Domain::</text>
<text text-anchor="start" x="634.5" y="-258.5" font-family="Helvetica,sans-Serif" font-size="10.00" fill="#000000">Game::Actors::GunShip</text>
<text text-anchor="middle" x="687" y="-247.5" font-family="Helvetica,sans-Serif" font-size="10.00" fill="#000000">::update</text>
</a>
</g>
</g>
<!-- Node37&#45;&gt;Node39 -->
<g id="edge5" class="edge">
<title>Node37&#45;&gt;Node39</title>
<path fill="none" stroke="#191970" d="M583.7789,-261C597.7626,-261 612.529,-261 626.3845,-261"/>
<polygon fill="#191970" stroke="#191970" points="583.7591,-257.5001 573.7591,-261 583.7591,-264.5001 583.7591,-257.5001"/>
</g>
<!-- Node41 -->
<g id="node8" class="node">
<title>Node41</title>
<g id="a_node8"><a xlink:href="$classAsteroids_1_1Domain_1_1Game_1_1Actors_1_1LongRock.html#ac2469234e9ea81472af9e7297ff8a75a" xlink:title="Asteroids::Domain::\lGame::Actors::LongRock\l::initialize_polygon">
<polygon fill="#ffffff" stroke="#000000" points="456,-180.5 456,-221.5 584,-221.5 584,-180.5 456,-180.5"/>
<text text-anchor="start" x="464" y="-209.5" font-family="Helvetica,sans-Serif" font-size="10.00" fill="#000000">Asteroids::Domain::</text>
<text text-anchor="start" x="464" y="-198.5" font-family="Helvetica,sans-Serif" font-size="10.00" fill="#000000">Game::Actors::LongRock</text>
<text text-anchor="middle" x="520" y="-187.5" font-family="Helvetica,sans-Serif" font-size="10.00" fill="#000000">::initialize_polygon</text>
</a>
</g>
</g>
<!-- Node40&#45;&gt;Node41 -->
<g id="edge7" class="edge">
<title>Node40&#45;&gt;Node41</title>
<path fill="none" stroke="#191970" d="M417.9206,-163.9924C432.8922,-169.4201 448.7579,-175.1721 463.4051,-180.4822"/>
<polygon fill="#191970" stroke="#191970" points="418.8273,-160.5982 408.2331,-160.4803 416.4414,-167.1791 418.8273,-160.5982"/>
</g>
<!-- Node43 -->
<g id="node10" class="node">
<title>Node43</title>
<g id="a_node10"><a xlink:href="$classAsteroids_1_1Domain_1_1Game_1_1Actors_1_1Rock.html#aa2a9c917715b56e4584f514c930c4690" xlink:title="Asteroids::Domain::\lGame::Actors::Rock::\linitialize_polygon">
<polygon fill="#ffffff" stroke="#000000" points="463.5,-120.5 463.5,-161.5 576.5,-161.5 576.5,-120.5 463.5,-120.5"/>
<text text-anchor="start" x="471.5" y="-149.5" font-family="Helvetica,sans-Serif" font-size="10.00" fill="#000000">Asteroids::Domain::</text>
<text text-anchor="start" x="471.5" y="-138.5" font-family="Helvetica,sans-Serif" font-size="10.00" fill="#000000">Game::Actors::Rock::</text>
<text text-anchor="middle" x="520" y="-127.5" font-family="Helvetica,sans-Serif" font-size="10.00" fill="#000000">initialize_polygon</text>
</a>
</g>
</g>
<!-- Node40&#45;&gt;Node43 -->
<g id="edge9" class="edge">
<title>Node40&#45;&gt;Node43</title>
<path fill="none" stroke="#191970" d="M418.3486,-141C433.1943,-141 448.8974,-141 463.4051,-141"/>
<polygon fill="#191970" stroke="#191970" points="418.2331,-137.5001 408.2331,-141 418.2331,-144.5001 418.2331,-137.5001"/>
</g>
<!-- Node47 -->
<g id="node14" class="node">
<title>Node47</title>
<g id="a_node14"><a xlink:href="$classAsteroids_1_1Domain_1_1Game_1_1Actors_1_1Bullet.html#ae02bb0b6f3886f31ffdf1e51b1735035" xlink:title="Asteroids::Domain::\lGame::Actors::Bullet\l::initialize_polygon">
<polygon fill="#ffffff" stroke="#000000" points="466,-60.5 466,-101.5 574,-101.5 574,-60.5 466,-60.5"/>
<text text-anchor="start" x="474" y="-89.5" font-family="Helvetica,sans-Serif" font-size="10.00" fill="#000000">Asteroids::Domain::</text>
<text text-anchor="start" x="474" y="-78.5" font-family="Helvetica,sans-Serif" font-size="10.00" fill="#000000">Game::Actors::Bullet</text>
<text text-anchor="middle" x="520" y="-67.5" font-family="Helvetica,sans-Serif" font-size="10.00" fill="#000000">::initialize_polygon</text>
</a>
</g>
</g>
<!-- Node40&#45;&gt;Node47 -->
<g id="edge13" class="edge">
<title>Node40&#45;&gt;Node47</title>
<path fill="none" stroke="#191970" d="M417.9458,-117.9985C433.7884,-112.2549 450.6308,-106.1489 465.9702,-100.5879"/>
<polygon fill="#191970" stroke="#191970" points="416.4414,-114.8209 408.2331,-121.5197 418.8273,-121.4018 416.4414,-114.8209"/>
</g>
<!-- Node51 -->
<g id="node18" class="node">
<title>Node51</title>
<g id="a_node18"><a xlink:href="$classAsteroids_1_1Domain_1_1Game_1_1Actors_1_1GunShip.html#a4947769593f504d4342abcec5a01330b" xlink:title="Asteroids::Domain::\lGame::Actors::GunShip\l::initialize_polygon">
<polygon fill="#ffffff" stroke="#000000" points="459.5,-.5 459.5,-41.5 580.5,-41.5 580.5,-.5 459.5,-.5"/>
<text text-anchor="start" x="467.5" y="-29.5" font-family="Helvetica,sans-Serif" font-size="10.00" fill="#000000">Asteroids::Domain::</text>
<text text-anchor="start" x="467.5" y="-18.5" font-family="Helvetica,sans-Serif" font-size="10.00" fill="#000000">Game::Actors::GunShip</text>
<text text-anchor="middle" x="520" y="-7.5" font-family="Helvetica,sans-Serif" font-size="10.00" fill="#000000">::initialize_polygon</text>
</a>
</g>
</g>
<!-- Node40&#45;&gt;Node51 -->
<g id="edge17" class="edge">
<title>Node40&#45;&gt;Node51</title>
<path fill="none" stroke="#191970" d="M415.9073,-114.4116C417.3188,-113.3124 418.6863,-112.1755 420,-111 443.175,-90.2628 432.9168,-71.8393 456,-51 459.8256,-47.5463 464.1185,-44.4184 468.6225,-41.6022"/>
<polygon fill="#191970" stroke="#191970" points="413.6381,-111.7257 407.4115,-120.2978 417.6247,-117.4797 413.6381,-111.7257"/>
</g>
<!-- Node42 -->
<g id="node9" class="node">
<title>Node42</title>
<g id="a_node9"><a xlink:href="$classAsteroids_1_1Domain_1_1Game_1_1Actors_1_1LongRock.html#a076888291134eee7db8c6a94ebc0ad8d" xlink:title="Asteroids::Domain::\lGame::Actors::LongRock\l::LongRock">
<polygon fill="#ffffff" stroke="#000000" points="623,-180.5 623,-221.5 751,-221.5 751,-180.5 623,-180.5"/>
<text text-anchor="start" x="631" y="-209.5" font-family="Helvetica,sans-Serif" font-size="10.00" fill="#000000">Asteroids::Domain::</text>
<text text-anchor="start" x="631" y="-198.5" font-family="Helvetica,sans-Serif" font-size="10.00" fill="#000000">Game::Actors::LongRock</text>
<text text-anchor="middle" x="687" y="-187.5" font-family="Helvetica,sans-Serif" font-size="10.00" fill="#000000">::LongRock</text>
</a>
</g>
</g>
<!-- Node41&#45;&gt;Node42 -->
<g id="edge8" class="edge">
<title>Node41&#45;&gt;Node42</title>
<path fill="none" stroke="#191970" d="M594.3145,-201C603.8181,-201 613.4823,-201 622.8066,-201"/>
<polygon fill="#191970" stroke="#191970" points="594.089,-197.5001 584.089,-201 594.0889,-204.5001 594.089,-197.5001"/>
</g>
<!-- Node44 -->
<g id="node11" class="node">
<title>Node44</title>
<g id="a_node11"><a xlink:href="$classAsteroids_1_1Domain_1_1Game_1_1Actors_1_1Rock.html#aab44647e08659d563aeb28d51868fb86" xlink:title="Asteroids::Domain::\lGame::Actors::Rock::reset">
<polygon fill="#ffffff" stroke="#000000" points="620,-126 620,-156 754,-156 754,-126 620,-126"/>
<text text-anchor="start" x="628" y="-144" font-family="Helvetica,sans-Serif" font-size="10.00" fill="#000000">Asteroids::Domain::</text>
<text text-anchor="middle" x="687" y="-133" font-family="Helvetica,sans-Serif" font-size="10.00" fill="#000000">Game::Actors::Rock::reset</text>
</a>
</g>
</g>
<!-- Node43&#45;&gt;Node44 -->
<g id="edge10" class="edge">
<title>Node43&#45;&gt;Node44</title>
<path fill="none" stroke="#191970" d="M586.8163,-141C597.6884,-141 608.9538,-141 619.8341,-141"/>
<polygon fill="#191970" stroke="#191970" points="586.5386,-137.5001 576.5386,-141 586.5385,-144.5001 586.5386,-137.5001"/>
</g>
<!-- Node45 -->
<g id="node12" class="node">
<title>Node45</title>
<g id="a_node12"><a xlink:href="$classAsteroids_1_1Domain_1_1Game_1_1Actors_1_1Rock.html#a8bdb717103786b8a2e30ea29db791078" xlink:title="Asteroids::Domain::\lGame::Actors::Rock::init">
<polygon fill="#ffffff" stroke="#000000" points="797.5,-126 797.5,-156 922.5,-156 922.5,-126 797.5,-126"/>
<text text-anchor="start" x="805.5" y="-144" font-family="Helvetica,sans-Serif" font-size="10.00" fill="#000000">Asteroids::Domain::</text>
<text text-anchor="middle" x="860" y="-133" font-family="Helvetica,sans-Serif" font-size="10.00" fill="#000000">Game::Actors::Rock::init</text>
</a>
</g>
</g>
<!-- Node44&#45;&gt;Node45 -->
<g id="edge11" class="edge">
<title>Node44&#45;&gt;Node45</title>
<path fill="none" stroke="#191970" d="M764.4186,-141C775.4311,-141 786.6422,-141 797.3271,-141"/>
<polygon fill="#191970" stroke="#191970" points="764.3817,-137.5001 754.3817,-141 764.3817,-144.5001 764.3817,-137.5001"/>
</g>
<!-- Node46 -->
<g id="node13" class="node">
<title>Node46</title>
<g id="a_node13"><a xlink:href="$classAsteroids_1_1Domain_1_1Game_1_1Actors_1_1Rock.html#aef8f46670fe5751800b9d76079adb5e5" xlink:title="Asteroids::Domain::\lGame::Actors::Rock::Rock">
<polygon fill="#ffffff" stroke="#000000" points="966,-126 966,-156 1102,-156 1102,-126 966,-126"/>
<text text-anchor="start" x="974" y="-144" font-family="Helvetica,sans-Serif" font-size="10.00" fill="#000000">Asteroids::Domain::</text>
<text text-anchor="middle" x="1034" y="-133" font-family="Helvetica,sans-Serif" font-size="10.00" fill="#000000">Game::Actors::Rock::Rock</text>
</a>
</g>
</g>
<!-- Node45&#45;&gt;Node46 -->
<g id="edge12" class="edge">
<title>Node45&#45;&gt;Node46</title>
<path fill="none" stroke="#191970" d="M933.1397,-141C944.0243,-141 955.206,-141 965.9795,-141"/>
<polygon fill="#191970" stroke="#191970" points="932.818,-137.5001 922.818,-141 932.818,-144.5001 932.818,-137.5001"/>
</g>
<!-- Node48 -->
<g id="node15" class="node">
<title>Node48</title>
<g id="a_node15"><a xlink:href="$classAsteroids_1_1Domain_1_1Game_1_1Actors_1_1Bullet.html#ae3837ed471d290688f684e8187e6865e" xlink:title="Asteroids::Domain::\lGame::Actors::Bullet\l::reset">
<polygon fill="#ffffff" stroke="#000000" points="633,-60.5 633,-101.5 741,-101.5 741,-60.5 633,-60.5"/>
<text text-anchor="start" x="641" y="-89.5" font-family="Helvetica,sans-Serif" font-size="10.00" fill="#000000">Asteroids::Domain::</text>
<text text-anchor="start" x="641" y="-78.5" font-family="Helvetica,sans-Serif" font-size="10.00" fill="#000000">Game::Actors::Bullet</text>
<text text-anchor="middle" x="687" y="-67.5" font-family="Helvetica,sans-Serif" font-size="10.00" fill="#000000">::reset</text>
</a>
</g>
</g>
<!-- Node47&#45;&gt;Node48 -->
<g id="edge14" class="edge">
<title>Node47&#45;&gt;Node48</title>
<path fill="none" stroke="#191970" d="M584.5267,-81C600.4638,-81 617.3745,-81 632.7664,-81"/>
<polygon fill="#191970" stroke="#191970" points="584.2201,-77.5001 574.2201,-81 584.2201,-84.5001 584.2201,-77.5001"/>
</g>
<!-- Node49 -->
<g id="node16" class="node">
<title>Node49</title>
<g id="a_node16"><a xlink:href="$classAsteroids_1_1Domain_1_1Game_1_1Actors_1_1Bullet.html#a1c7b384d298439c581d97f996f067985" xlink:title="Asteroids::Domain::\lGame::Actors::Bullet::init">
<polygon fill="#ffffff" stroke="#000000" points="796.5,-66 796.5,-96 923.5,-96 923.5,-66 796.5,-66"/>
<text text-anchor="start" x="804.5" y="-84" font-family="Helvetica,sans-Serif" font-size="10.00" fill="#000000">Asteroids::Domain::</text>
<text text-anchor="middle" x="860" y="-73" font-family="Helvetica,sans-Serif" font-size="10.00" fill="#000000">Game::Actors::Bullet::init</text>
</a>
</g>
</g>
<!-- Node48&#45;&gt;Node49 -->
<g id="edge15" class="edge">
<title>Node48&#45;&gt;Node49</title>
<path fill="none" stroke="#191970" d="M751.2661,-81C765.959,-81 781.57,-81 796.2415,-81"/>
<polygon fill="#191970" stroke="#191970" points="751.2637,-77.5001 741.2636,-81 751.2636,-84.5001 751.2637,-77.5001"/>
</g>
<!-- Node50 -->
<g id="node17" class="node">
<title>Node50</title>
<g id="a_node17"><a xlink:href="$classAsteroids_1_1Domain_1_1Game_1_1Actors_1_1Bullet.html#a48557011de2d1939a8b5f7fe7e9fccda" xlink:title="Asteroids::Domain::\lGame::Actors::Bullet\l::Bullet">
<polygon fill="#ffffff" stroke="#000000" points="980,-60.5 980,-101.5 1088,-101.5 1088,-60.5 980,-60.5"/>
<text text-anchor="start" x="988" y="-89.5" font-family="Helvetica,sans-Serif" font-size="10.00" fill="#000000">Asteroids::Domain::</text>
<text text-anchor="start" x="988" y="-78.5" font-family="Helvetica,sans-Serif" font-size="10.00" fill="#000000">Game::Actors::Bullet</text>
<text text-anchor="middle" x="1034" y="-67.5" font-family="Helvetica,sans-Serif" font-size="10.00" fill="#000000">::Bullet</text>
</a>
</g>
</g>
<!-- Node49&#45;&gt;Node50 -->
<g id="edge16" class="edge">
<title>Node49&#45;&gt;Node50</title>
<path fill="none" stroke="#191970" d="M933.8611,-81C949.323,-81 965.3517,-81 979.9326,-81"/>
<polygon fill="#191970" stroke="#191970" points="933.8032,-77.5001 923.8032,-81 933.8031,-84.5001 933.8032,-77.5001"/>
</g>
<!-- Node52 -->
<g id="node19" class="node">
<title>Node52</title>
<g id="a_node19"><a xlink:href="$classAsteroids_1_1Domain_1_1Game_1_1Actors_1_1GunShip.html#a753c275a7840962c92cfe4843bcbd6ac" xlink:title="Asteroids::Domain::\lGame::Actors::GunShip\l::reset">
<polygon fill="#ffffff" stroke="#000000" points="626.5,-.5 626.5,-41.5 747.5,-41.5 747.5,-.5 626.5,-.5"/>
<text text-anchor="start" x="634.5" y="-29.5" font-family="Helvetica,sans-Serif" font-size="10.00" fill="#000000">Asteroids::Domain::</text>
<text text-anchor="start" x="634.5" y="-18.5" font-family="Helvetica,sans-Serif" font-size="10.00" fill="#000000">Game::Actors::GunShip</text>
<text text-anchor="middle" x="687" y="-7.5" font-family="Helvetica,sans-Serif" font-size="10.00" fill="#000000">::reset</text>
</a>
</g>
</g>
<!-- Node51&#45;&gt;Node52 -->
<g id="edge18" class="edge">
<title>Node51&#45;&gt;Node52</title>
<path fill="none" stroke="#191970" d="M590.9773,-21C602.7268,-21 614.8148,-21 626.282,-21"/>
<polygon fill="#191970" stroke="#191970" points="590.7633,-17.5001 580.7632,-21 590.7632,-24.5001 590.7633,-17.5001"/>
</g>
<!-- Node53 -->
<g id="node20" class="node">
<title>Node53</title>
<g id="a_node20"><a xlink:href="$classAsteroids_1_1Domain_1_1Game_1_1Actors_1_1GunShip.html#ad5c14269f0503e045f03f265f9019e95" xlink:title="Asteroids::Domain::\lGame::Actors::GunShip::init">
<polygon fill="#ffffff" stroke="#000000" points="790,-6 790,-36 930,-36 930,-6 790,-6"/>
<text text-anchor="start" x="798" y="-24" font-family="Helvetica,sans-Serif" font-size="10.00" fill="#000000">Asteroids::Domain::</text>
<text text-anchor="middle" x="860" y="-13" font-family="Helvetica,sans-Serif" font-size="10.00" fill="#000000">Game::Actors::GunShip::init</text>
</a>
</g>
</g>
<!-- Node52&#45;&gt;Node53 -->
<g id="edge19" class="edge">
<title>Node52&#45;&gt;Node53</title>
<path fill="none" stroke="#191970" d="M757.5637,-21C768.1818,-21 779.1318,-21 789.7434,-21"/>
<polygon fill="#191970" stroke="#191970" points="757.507,-17.5001 747.507,-21 757.507,-24.5001 757.507,-17.5001"/>
</g>
<!-- Node54 -->
<g id="node21" class="node">
<title>Node54</title>
<g id="a_node21"><a xlink:href="$classAsteroids_1_1Domain_1_1Game_1_1Actors_1_1GunShip.html#a4e6a5de697b5a88bf3942165397cd27b" xlink:title="Asteroids::Domain::\lGame::Actors::GunShip\l::GunShip">
<polygon fill="#ffffff" stroke="#000000" points="973.5,-.5 973.5,-41.5 1094.5,-41.5 1094.5,-.5 973.5,-.5"/>
<text text-anchor="start" x="981.5" y="-29.5" font-family="Helvetica,sans-Serif" font-size="10.00" fill="#000000">Asteroids::Domain::</text>
<text text-anchor="start" x="981.5" y="-18.5" font-family="Helvetica,sans-Serif" font-size="10.00" fill="#000000">Game::Actors::GunShip</text>
<text text-anchor="middle" x="1034" y="-7.5" font-family="Helvetica,sans-Serif" font-size="10.00" fill="#000000">::GunShip</text>
</a>
</g>
</g>
<!-- Node53&#45;&gt;Node54 -->
<g id="edge20" class="edge">
<title>Node53&#45;&gt;Node54</title>
<path fill="none" stroke="#191970" d="M940.1975,-21C951.3482,-21 962.6489,-21 973.3608,-21"/>
<polygon fill="#191970" stroke="#191970" points="940.0204,-17.5001 930.0203,-21 940.0203,-24.5001 940.0204,-17.5001"/>
</g>
</g>
</svg>
