<?xml version="1.0" encoding="UTF-8" standalone="no"?>
<!DOCTYPE svg PUBLIC "-//W3C//DTD SVG 1.1//EN"
 "http://www.w3.org/Graphics/SVG/1.1/DTD/svg11.dtd">
<!-- Generated by graphviz version 2.40.1 (20161225.0304)
 -->
<!-- Title: Asteroids::Domain::Store::POWERUP_ADDED_INFO::reset Pages: 1 -->
<svg width="535pt" height="50pt"
 viewBox="0.00 0.00 535.00 50.00" xmlns="http://www.w3.org/2000/svg" xmlns:xlink="http://www.w3.org/1999/xlink">
<g id="graph0" class="graph" transform="scale(1 1) rotate(0) translate(4 46)">
<title>Asteroids::Domain::Store::POWERUP_ADDED_INFO::reset</title>
<polygon fill="#ffffff" stroke="transparent" points="-4,4 -4,-46 531,-46 531,4 -4,4"/>
<!-- Node13 -->
<g id="node1" class="node">
<title>Node13</title>
<polygon fill="#bfbfbf" stroke="#000000" points="0,-.5 0,-41.5 140,-41.5 140,-.5 0,-.5"/>
<text text-anchor="start" x="8" y="-29.5" font-family="Helvetica,sans-Serif" font-size="10.00" fill="#000000">Asteroids::Domain::</text>
<text text-anchor="start" x="8" y="-18.5" font-family="Helvetica,sans-Serif" font-size="10.00" fill="#000000">Store::POWERUP_ADDED</text>
<text text-anchor="middle" x="70" y="-7.5" font-family="Helvetica,sans-Serif" font-size="10.00" fill="#000000">_INFO::reset</text>
</g>
<!-- Node14 -->
<g id="node2" class="node">
<title>Node14</title>
<g id="a_node2"><a xlink:href="$classAsteroids_1_1Domain_1_1Store_1_1POWERUP__ADDED__INFO.html#ae3ef91a132b9a5f545d11630ef2466d4" xlink:title="Asteroids::Domain::\lStore::POWERUP_ADDED\l_INFO::init">
<polygon fill="#ffffff" stroke="#000000" points="176,-.5 176,-41.5 316,-41.5 316,-.5 176,-.5"/>
<text text-anchor="start" x="184" y="-29.5" font-family="Helvetica,sans-Serif" font-size="10.00" fill="#000000">Asteroids::Domain::</text>
<text text-anchor="start" x="184" y="-18.5" font-family="Helvetica,sans-Serif" font-size="10.00" fill="#000000">Store::POWERUP_ADDED</text>
<text text-anchor="middle" x="246" y="-7.5" font-family="Helvetica,sans-Serif" font-size="10.00" fill="#000000">_INFO::init</text>
</a>
</g>
</g>
<!-- Node13&#45;&gt;Node14 -->
<g id="edge1" class="edge">
<title>Node13&#45;&gt;Node14</title>
<path fill="none" stroke="#191970" d="M150.1006,-21C158.7058,-21 167.4124,-21 175.888,-21"/>
<polygon fill="#191970" stroke="#191970" points="150.0656,-17.5001 140.0656,-21 150.0655,-24.5001 150.0656,-17.5001"/>
</g>
<!-- Node15 -->
<g id="node3" class="node">
<title>Node15</title>
<g id="a_node3"><a xlink:href="$classAsteroids_1_1Domain_1_1Store_1_1POWERUP__ADDED__INFO.html#ac735fa85a1732bfc02f7f7534379f306" xlink:title="Asteroids::Domain::\lStore::POWERUP_ADDED\l_INFO::POWERUP_ADDED_INFO">
<polygon fill="#ffffff" stroke="#000000" points="352,-.5 352,-41.5 527,-41.5 527,-.5 352,-.5"/>
<text text-anchor="start" x="360" y="-29.5" font-family="Helvetica,sans-Serif" font-size="10.00" fill="#000000">Asteroids::Domain::</text>
<text text-anchor="start" x="360" y="-18.5" font-family="Helvetica,sans-Serif" font-size="10.00" fill="#000000">Store::POWERUP_ADDED</text>
<text text-anchor="middle" x="439.5" y="-7.5" font-family="Helvetica,sans-Serif" font-size="10.00" fill="#000000">_INFO::POWERUP_ADDED_INFO</text>
</a>
</g>
</g>
<!-- Node14&#45;&gt;Node15 -->
<g id="edge2" class="edge">
<title>Node14&#45;&gt;Node15</title>
<path fill="none" stroke="#191970" d="M326.2877,-21C334.6979,-21 343.2792,-21 351.7671,-21"/>
<polygon fill="#191970" stroke="#191970" points="326.1316,-17.5001 316.1315,-21 326.1315,-24.5001 326.1316,-17.5001"/>
</g>
</g>
</svg>
