<?xml version="1.0" encoding="UTF-8" standalone="no"?>
<!DOCTYPE svg PUBLIC "-//W3C//DTD SVG 1.1//EN"
 "http://www.w3.org/Graphics/SVG/1.1/DTD/svg11.dtd">
<!-- Generated by graphviz version 2.40.1 (20161225.0304)
 -->
<!-- Title: Asteroids::Domain::Server::HACCS_REPORT_ACTIVITY::reset Pages: 1 -->
<svg width="335pt" height="61pt"
 viewBox="0.00 0.00 335.00 61.00" xmlns="http://www.w3.org/2000/svg" xmlns:xlink="http://www.w3.org/1999/xlink">
<g id="graph0" class="graph" transform="scale(1 1) rotate(0) translate(4 57)">
<title>Asteroids::Domain::Server::HACCS_REPORT_ACTIVITY::reset</title>
<polygon fill="#ffffff" stroke="transparent" points="-4,4 -4,-57 331,-57 331,4 -4,4"/>
<!-- Node8 -->
<g id="node1" class="node">
<title>Node8</title>
<polygon fill="#bfbfbf" stroke="#000000" points="0,-6 0,-47 134,-47 134,-6 0,-6"/>
<text text-anchor="start" x="8" y="-35" font-family="Helvetica,sans-Serif" font-size="10.00" fill="#000000">Asteroids::Domain::</text>
<text text-anchor="start" x="8" y="-24" font-family="Helvetica,sans-Serif" font-size="10.00" fill="#000000">Server::HACCS_REPORT</text>
<text text-anchor="middle" x="67" y="-13" font-family="Helvetica,sans-Serif" font-size="10.00" fill="#000000">_ACTIVITY::reset</text>
</g>
<!-- Node9 -->
<g id="node2" class="node">
<title>Node9</title>
<g id="a_node2"><a xlink:href="$classAsteroids_1_1Domain_1_1Server_1_1HACCS__REPORT__ACTIVITY.html#a843939501e175620371d01d53e708537" xlink:title="Asteroids::Domain::\lServer::HACCS_REPORT\l_ACTIVITY::HACCS_REPORT\l_ACTIVITY">
<polygon fill="#ffffff" stroke="#000000" points="170,-.5 170,-52.5 327,-52.5 327,-.5 170,-.5"/>
<text text-anchor="start" x="178" y="-40.5" font-family="Helvetica,sans-Serif" font-size="10.00" fill="#000000">Asteroids::Domain::</text>
<text text-anchor="start" x="178" y="-29.5" font-family="Helvetica,sans-Serif" font-size="10.00" fill="#000000">Server::HACCS_REPORT</text>
<text text-anchor="start" x="178" y="-18.5" font-family="Helvetica,sans-Serif" font-size="10.00" fill="#000000">_ACTIVITY::HACCS_REPORT</text>
<text text-anchor="middle" x="248.5" y="-7.5" font-family="Helvetica,sans-Serif" font-size="10.00" fill="#000000">_ACTIVITY</text>
</a>
</g>
</g>
<!-- Node8&#45;&gt;Node9 -->
<g id="edge1" class="edge">
<title>Node8&#45;&gt;Node9</title>
<path fill="none" stroke="#191970" d="M144.258,-26.5C152.6931,-26.5 161.2871,-26.5 169.74,-26.5"/>
<polygon fill="#191970" stroke="#191970" points="144.0683,-23.0001 134.0682,-26.5 144.0682,-30.0001 144.0683,-23.0001"/>
</g>
</g>
</svg>
