<?xml version="1.0" encoding="UTF-8" standalone="no"?>
<!DOCTYPE svg PUBLIC "-//W3C//DTD SVG 1.1//EN"
 "http://www.w3.org/Graphics/SVG/1.1/DTD/svg11.dtd">
<!-- Generated by graphviz version 2.40.1 (20161225.0304)
 -->
<!-- Title: Asteroids::Domain::Game::GAME_HISTORY_ENTRY::reset Pages: 1 -->
<svg width="380pt" height="110pt"
 viewBox="0.00 0.00 380.00 110.00" xmlns="http://www.w3.org/2000/svg" xmlns:xlink="http://www.w3.org/1999/xlink">
<g id="graph0" class="graph" transform="scale(1 1) rotate(0) translate(4 106)">
<title>Asteroids::Domain::Game::GAME_HISTORY_ENTRY::reset</title>
<polygon fill="#ffffff" stroke="transparent" points="-4,4 -4,-106 376,-106 376,4 -4,4"/>
<!-- Node11 -->
<g id="node1" class="node">
<title>Node11</title>
<polygon fill="#bfbfbf" stroke="#000000" points="0,-30.5 0,-71.5 168,-71.5 168,-30.5 0,-30.5"/>
<text text-anchor="start" x="8" y="-59.5" font-family="Helvetica,sans-Serif" font-size="10.00" fill="#000000">Asteroids::Domain::</text>
<text text-anchor="start" x="8" y="-48.5" font-family="Helvetica,sans-Serif" font-size="10.00" fill="#000000">Game::GAME_HISTORY_ENTRY</text>
<text text-anchor="middle" x="84" y="-37.5" font-family="Helvetica,sans-Serif" font-size="10.00" fill="#000000">::reset</text>
</g>
<!-- Node12 -->
<g id="node2" class="node">
<title>Node12</title>
<g id="a_node2"><a xlink:href="$classAsteroids_1_1Domain_1_1Game_1_1GAME__HISTORY__ENTRY.html#adb0e9c9f31373615343821a552366b37" xlink:title="Asteroids::Domain::\lGame::GAME_HISTORY_ENTRY\l::set_date">
<polygon fill="#ffffff" stroke="#000000" points="204,-60.5 204,-101.5 372,-101.5 372,-60.5 204,-60.5"/>
<text text-anchor="start" x="212" y="-89.5" font-family="Helvetica,sans-Serif" font-size="10.00" fill="#000000">Asteroids::Domain::</text>
<text text-anchor="start" x="212" y="-78.5" font-family="Helvetica,sans-Serif" font-size="10.00" fill="#000000">Game::GAME_HISTORY_ENTRY</text>
<text text-anchor="middle" x="288" y="-67.5" font-family="Helvetica,sans-Serif" font-size="10.00" fill="#000000">::set_date</text>
</a>
</g>
</g>
<!-- Node11&#45;&gt;Node12 -->
<g id="edge1" class="edge">
<title>Node11&#45;&gt;Node12</title>
<path fill="none" stroke="#191970" d="M168.1524,-63.3754C176.5932,-64.6166 185.2022,-65.8827 193.7386,-67.138"/>
<polygon fill="#191970" stroke="#191970" points="193.3089,-70.6124 203.7117,-68.6047 194.3274,-63.6869 193.3089,-70.6124"/>
</g>
<!-- Node13 -->
<g id="node3" class="node">
<title>Node13</title>
<g id="a_node3"><a xlink:href="$classAsteroids_1_1Domain_1_1Game_1_1GAME__HISTORY__ENTRY.html#a156c3017d2c591e7eaef0522a7e5249d" xlink:title="Asteroids::Domain::\lGame::GAME_HISTORY_ENTRY\l::set_score">
<polygon fill="#ffffff" stroke="#000000" points="204,-.5 204,-41.5 372,-41.5 372,-.5 204,-.5"/>
<text text-anchor="start" x="212" y="-29.5" font-family="Helvetica,sans-Serif" font-size="10.00" fill="#000000">Asteroids::Domain::</text>
<text text-anchor="start" x="212" y="-18.5" font-family="Helvetica,sans-Serif" font-size="10.00" fill="#000000">Game::GAME_HISTORY_ENTRY</text>
<text text-anchor="middle" x="288" y="-7.5" font-family="Helvetica,sans-Serif" font-size="10.00" fill="#000000">::set_score</text>
</a>
</g>
</g>
<!-- Node11&#45;&gt;Node13 -->
<g id="edge2" class="edge">
<title>Node11&#45;&gt;Node13</title>
<path fill="none" stroke="#191970" d="M168.1524,-38.6246C176.5932,-37.3834 185.2022,-36.1173 193.7386,-34.862"/>
<polygon fill="#191970" stroke="#191970" points="194.3274,-38.3131 203.7117,-33.3953 193.3089,-31.3876 194.3274,-38.3131"/>
</g>
</g>
</svg>
