<?xml version="1.0" encoding="UTF-8" standalone="no"?>
<!DOCTYPE svg PUBLIC "-//W3C//DTD SVG 1.1//EN"
 "http://www.w3.org/Graphics/SVG/1.1/DTD/svg11.dtd">
<!-- Generated by graphviz version 2.40.1 (20161225.0304)
 -->
<!-- Title: Asteroids::UI::ClientTextUI::DisplayGrid::translate_source_point Pages: 1 -->
<svg width="1159pt" height="149pt"
 viewBox="0.00 0.00 1159.00 148.50" xmlns="http://www.w3.org/2000/svg" xmlns:xlink="http://www.w3.org/1999/xlink">
<g id="graph0" class="graph" transform="scale(1 1) rotate(0) translate(4 144.5)">
<title>Asteroids::UI::ClientTextUI::DisplayGrid::translate_source_point</title>
<polygon fill="#ffffff" stroke="transparent" points="-4,4 -4,-144.5 1155,-144.5 1155,4 -4,4"/>
<!-- Node106 -->
<g id="node1" class="node">
<title>Node106</title>
<polygon fill="#bfbfbf" stroke="#000000" points="0,-27.5 0,-68.5 128,-68.5 128,-27.5 0,-27.5"/>
<text text-anchor="start" x="8" y="-56.5" font-family="Helvetica,sans-Serif" font-size="10.00" fill="#000000">Asteroids::UI::ClientText</text>
<text text-anchor="start" x="8" y="-45.5" font-family="Helvetica,sans-Serif" font-size="10.00" fill="#000000">UI::DisplayGrid::translate</text>
<text text-anchor="middle" x="64" y="-34.5" font-family="Helvetica,sans-Serif" font-size="10.00" fill="#000000">_source_point</text>
</g>
<!-- Node107 -->
<g id="node2" class="node">
<title>Node107</title>
<g id="a_node2"><a xlink:href="$classAsteroids_1_1UI_1_1ClientTextUI_1_1DisplayGrid.html#a3f77a0874f78d753020e8ba12081bd85" xlink:title="Asteroids::UI::ClientText\lUI::DisplayGrid::set_pixel">
<polygon fill="#ffffff" stroke="#000000" points="164,-33 164,-63 293,-63 293,-33 164,-33"/>
<text text-anchor="start" x="172" y="-51" font-family="Helvetica,sans-Serif" font-size="10.00" fill="#000000">Asteroids::UI::ClientText</text>
<text text-anchor="middle" x="228.5" y="-40" font-family="Helvetica,sans-Serif" font-size="10.00" fill="#000000">UI::DisplayGrid::set_pixel</text>
</a>
</g>
</g>
<!-- Node106&#45;&gt;Node107 -->
<g id="edge1" class="edge">
<title>Node106&#45;&gt;Node107</title>
<path fill="none" stroke="#191970" d="M138.3466,-48C146.837,-48 155.4407,-48 163.7915,-48"/>
<polygon fill="#191970" stroke="#191970" points="138.0711,-44.5001 128.071,-48 138.071,-51.5001 138.0711,-44.5001"/>
</g>
<!-- Node108 -->
<g id="node3" class="node">
<title>Node108</title>
<g id="a_node3"><a xlink:href="$classAsteroids_1_1UI_1_1ClientTextUI_1_1DisplayGrid.html#a8c7048980c9b3443b5cfa20dd16c6935" xlink:title="Asteroids::UI::ClientText\lUI::DisplayGrid::add_border">
<polygon fill="#ffffff" stroke="#000000" points="335,-61 335,-91 473,-91 473,-61 335,-61"/>
<text text-anchor="start" x="343" y="-79" font-family="Helvetica,sans-Serif" font-size="10.00" fill="#000000">Asteroids::UI::ClientText</text>
<text text-anchor="middle" x="404" y="-68" font-family="Helvetica,sans-Serif" font-size="10.00" fill="#000000">UI::DisplayGrid::add_border</text>
</a>
</g>
</g>
<!-- Node107&#45;&gt;Node108 -->
<g id="edge2" class="edge">
<title>Node107&#45;&gt;Node108</title>
<path fill="none" stroke="#191970" d="M303.3303,-59.9387C313.8407,-61.6156 324.6039,-63.3328 334.9989,-64.9913"/>
<polygon fill="#191970" stroke="#191970" points="303.7777,-56.4659 293.3511,-58.3466 302.6747,-63.3785 303.7777,-56.4659"/>
</g>
<!-- Node114 -->
<g id="node9" class="node">
<title>Node114</title>
<g id="a_node9"><a xlink:href="$classAsteroids_1_1UI_1_1ClientTextUI_1_1DisplayGrid.html#aaf3c070c4d620f5a8420e349f5501bfd" xlink:title="Asteroids::UI::ClientText\lUI::DisplayGrid::draw_polygon">
<polygon fill="#ffffff" stroke="#000000" points="329,-9 329,-39 479,-39 479,-9 329,-9"/>
<text text-anchor="start" x="337" y="-27" font-family="Helvetica,sans-Serif" font-size="10.00" fill="#000000">Asteroids::UI::ClientText</text>
<text text-anchor="middle" x="404" y="-16" font-family="Helvetica,sans-Serif" font-size="10.00" fill="#000000">UI::DisplayGrid::draw_polygon</text>
</a>
</g>
</g>
<!-- Node107&#45;&gt;Node114 -->
<g id="edge8" class="edge">
<title>Node107&#45;&gt;Node114</title>
<path fill="none" stroke="#191970" d="M303.4636,-37.7486C311.8359,-36.6036 320.3669,-35.437 328.7428,-34.2916"/>
<polygon fill="#191970" stroke="#191970" points="302.7846,-34.3088 293.3511,-39.1315 303.7331,-41.2442 302.7846,-34.3088"/>
</g>
<!-- Node109 -->
<g id="node4" class="node">
<title>Node109</title>
<g id="a_node4"><a xlink:href="$classAsteroids_1_1UI_1_1ClientTextUI_1_1DisplayGrid.html#a7e8af47380bb1c10250090b00b578227" xlink:title="Asteroids::UI::ClientText\lUI::DisplayGrid::clear">
<polygon fill="#ffffff" stroke="#000000" points="521,-110 521,-140 646,-140 646,-110 521,-110"/>
<text text-anchor="start" x="529" y="-128" font-family="Helvetica,sans-Serif" font-size="10.00" fill="#000000">Asteroids::UI::ClientText</text>
<text text-anchor="middle" x="583.5" y="-117" font-family="Helvetica,sans-Serif" font-size="10.00" fill="#000000">UI::DisplayGrid::clear</text>
</a>
</g>
</g>
<!-- Node108&#45;&gt;Node109 -->
<g id="edge3" class="edge">
<title>Node108&#45;&gt;Node109</title>
<path fill="none" stroke="#191970" d="M469.0174,-93.7485C488.4716,-99.0591 509.6075,-104.8288 528.3621,-109.9484"/>
<polygon fill="#191970" stroke="#191970" points="469.8893,-90.3585 459.3206,-91.1014 468.0459,-97.1114 469.8893,-90.3585"/>
</g>
<!-- Node110 -->
<g id="node5" class="node">
<title>Node110</title>
<g id="a_node5"><a xlink:href="$classAsteroids_1_1UI_1_1ClientTextUI_1_1DisplayGrid.html#aa5b4f98a3eae7f672021228e5f484f54" xlink:title="Asteroids::UI::ClientText\lUI::DisplayGrid::clear_grid">
<polygon fill="#ffffff" stroke="#000000" points="517.5,-61 517.5,-91 649.5,-91 649.5,-61 517.5,-61"/>
<text text-anchor="start" x="525.5" y="-79" font-family="Helvetica,sans-Serif" font-size="10.00" fill="#000000">Asteroids::UI::ClientText</text>
<text text-anchor="middle" x="583.5" y="-68" font-family="Helvetica,sans-Serif" font-size="10.00" fill="#000000">UI::DisplayGrid::clear_grid</text>
</a>
</g>
</g>
<!-- Node108&#45;&gt;Node110 -->
<g id="edge4" class="edge">
<title>Node108&#45;&gt;Node110</title>
<path fill="none" stroke="#191970" d="M483.4548,-76C494.7744,-76 506.3153,-76 517.3445,-76"/>
<polygon fill="#191970" stroke="#191970" points="483.1427,-72.5001 473.1426,-76 483.1426,-79.5001 483.1427,-72.5001"/>
</g>
<!-- Node111 -->
<g id="node6" class="node">
<title>Node111</title>
<g id="a_node6"><a xlink:href="$classAsteroids_1_1UI_1_1ClientTextUI_1_1DisplayGrid.html#a118e0cad34b68aae5b178bd8e2b344c5" xlink:title="Asteroids::UI::ClientText\lUI::DisplayGrid::reset">
<polygon fill="#ffffff" stroke="#000000" points="688,-61 688,-91 813,-91 813,-61 688,-61"/>
<text text-anchor="start" x="696" y="-79" font-family="Helvetica,sans-Serif" font-size="10.00" fill="#000000">Asteroids::UI::ClientText</text>
<text text-anchor="middle" x="750.5" y="-68" font-family="Helvetica,sans-Serif" font-size="10.00" fill="#000000">UI::DisplayGrid::reset</text>
</a>
</g>
</g>
<!-- Node110&#45;&gt;Node111 -->
<g id="edge5" class="edge">
<title>Node110&#45;&gt;Node111</title>
<path fill="none" stroke="#191970" d="M659.6973,-76C669.1593,-76 678.7472,-76 687.9702,-76"/>
<polygon fill="#191970" stroke="#191970" points="659.5029,-72.5001 649.5028,-76 659.5028,-79.5001 659.5029,-72.5001"/>
</g>
<!-- Node112 -->
<g id="node7" class="node">
<title>Node112</title>
<g id="a_node7"><a xlink:href="$classAsteroids_1_1UI_1_1ClientTextUI_1_1DisplayGrid.html#a56b4a0b5f6d69ac13c3c7212db3e77b0" xlink:title="Asteroids::UI::ClientText\lUI::DisplayGrid::init">
<polygon fill="#ffffff" stroke="#000000" points="849,-61 849,-91 974,-91 974,-61 849,-61"/>
<text text-anchor="start" x="857" y="-79" font-family="Helvetica,sans-Serif" font-size="10.00" fill="#000000">Asteroids::UI::ClientText</text>
<text text-anchor="middle" x="911.5" y="-68" font-family="Helvetica,sans-Serif" font-size="10.00" fill="#000000">UI::DisplayGrid::init</text>
</a>
</g>
</g>
<!-- Node111&#45;&gt;Node112 -->
<g id="edge6" class="edge">
<title>Node111&#45;&gt;Node112</title>
<path fill="none" stroke="#191970" d="M823.2184,-76C831.8129,-76 840.5268,-76 848.9633,-76"/>
<polygon fill="#191970" stroke="#191970" points="823.2078,-72.5001 813.2078,-76 823.2078,-79.5001 823.2078,-72.5001"/>
</g>
<!-- Node113 -->
<g id="node8" class="node">
<title>Node113</title>
<g id="a_node8"><a xlink:href="$classAsteroids_1_1UI_1_1ClientTextUI_1_1DisplayGrid.html#a186316077596113cfd3cbb5d0be4922e" xlink:title="Asteroids::UI::ClientText\lUI::DisplayGrid::DisplayGrid">
<polygon fill="#ffffff" stroke="#000000" points="1010,-61 1010,-91 1151,-91 1151,-61 1010,-61"/>
<text text-anchor="start" x="1018" y="-79" font-family="Helvetica,sans-Serif" font-size="10.00" fill="#000000">Asteroids::UI::ClientText</text>
<text text-anchor="middle" x="1080.5" y="-68" font-family="Helvetica,sans-Serif" font-size="10.00" fill="#000000">UI::DisplayGrid::DisplayGrid</text>
</a>
</g>
</g>
<!-- Node112&#45;&gt;Node113 -->
<g id="edge7" class="edge">
<title>Node112&#45;&gt;Node113</title>
<path fill="none" stroke="#191970" d="M984.5608,-76C992.9478,-76 1001.4879,-76 1009.8424,-76"/>
<polygon fill="#191970" stroke="#191970" points="984.4294,-72.5001 974.4294,-76 984.4293,-79.5001 984.4294,-72.5001"/>
</g>
<!-- Node115 -->
<g id="node10" class="node">
<title>Node115</title>
<g id="a_node10"><a xlink:href="$classAsteroids_1_1UI_1_1ClientTextUI_1_1DisplayGrid.html#a54cc7e12266f854d8047e99b7f547f22" xlink:title="Asteroids::UI::ClientText\lUI::DisplayGrid::draw_filled\l_polygon">
<polygon fill="#ffffff" stroke="#000000" points="515,-.5 515,-41.5 652,-41.5 652,-.5 515,-.5"/>
<text text-anchor="start" x="523" y="-29.5" font-family="Helvetica,sans-Serif" font-size="10.00" fill="#000000">Asteroids::UI::ClientText</text>
<text text-anchor="start" x="523" y="-18.5" font-family="Helvetica,sans-Serif" font-size="10.00" fill="#000000">UI::DisplayGrid::draw_filled</text>
<text text-anchor="middle" x="583.5" y="-7.5" font-family="Helvetica,sans-Serif" font-size="10.00" fill="#000000">_polygon</text>
</a>
</g>
</g>
<!-- Node114&#45;&gt;Node115 -->
<g id="edge9" class="edge">
<title>Node114&#45;&gt;Node115</title>
<path fill="none" stroke="#191970" d="M489.1182,-22.5774C497.704,-22.4339 506.3464,-22.2895 514.7302,-22.1494"/>
<polygon fill="#191970" stroke="#191970" points="489.0242,-19.0784 479.0841,-22.7451 489.1412,-26.0774 489.0242,-19.0784"/>
</g>
</g>
</svg>
