<?xml version="1.0" encoding="UTF-8" standalone="no"?>
<!DOCTYPE svg PUBLIC "-//W3C//DTD SVG 1.1//EN"
 "http://www.w3.org/Graphics/SVG/1.1/DTD/svg11.dtd">
<!-- Generated by graphviz version 2.40.1 (20161225.0304)
 -->
<!-- Title: Asteroids::Domain::Game::Actors::Actor::adjust_rotation Pages: 1 -->
<svg width="258pt" height="50pt"
 viewBox="0.00 0.00 258.00 50.00" xmlns="http://www.w3.org/2000/svg" xmlns:xlink="http://www.w3.org/1999/xlink">
<g id="graph0" class="graph" transform="scale(1 1) rotate(0) translate(4 46)">
<title>Asteroids::Domain::Game::Actors::Actor::adjust_rotation</title>
<polygon fill="#ffffff" stroke="transparent" points="-4,4 -4,-46 254,-46 254,4 -4,4"/>
<!-- Node5 -->
<g id="node1" class="node">
<title>Node5</title>
<polygon fill="#bfbfbf" stroke="#000000" points="0,-.5 0,-41.5 107,-41.5 107,-.5 0,-.5"/>
<text text-anchor="start" x="8" y="-29.5" font-family="Helvetica,sans-Serif" font-size="10.00" fill="#000000">Asteroids::Domain::</text>
<text text-anchor="start" x="8" y="-18.5" font-family="Helvetica,sans-Serif" font-size="10.00" fill="#000000">Game::Actors::Actor</text>
<text text-anchor="middle" x="53.5" y="-7.5" font-family="Helvetica,sans-Serif" font-size="10.00" fill="#000000">::adjust_rotation</text>
</g>
<!-- Node6 -->
<g id="node2" class="node">
<title>Node6</title>
<g id="a_node2"><a xlink:href="$classAsteroids_1_1Domain_1_1Game_1_1Actors_1_1Actor.html#ad2687b72e2b05bebd6eb419f48d8ebba" xlink:title="Asteroids::Domain::\lGame::Actors::Actor\l::set_rotation">
<polygon fill="#ffffff" stroke="#000000" points="143,-.5 143,-41.5 250,-41.5 250,-.5 143,-.5"/>
<text text-anchor="start" x="151" y="-29.5" font-family="Helvetica,sans-Serif" font-size="10.00" fill="#000000">Asteroids::Domain::</text>
<text text-anchor="start" x="151" y="-18.5" font-family="Helvetica,sans-Serif" font-size="10.00" fill="#000000">Game::Actors::Actor</text>
<text text-anchor="middle" x="196.5" y="-7.5" font-family="Helvetica,sans-Serif" font-size="10.00" fill="#000000">::set_rotation</text>
</a>
</g>
</g>
<!-- Node5&#45;&gt;Node6 -->
<g id="edge1" class="edge">
<title>Node5&#45;&gt;Node6</title>
<path fill="none" stroke="#191970" d="M107.1548,-21C115.3808,-21 123.9436,-21 132.3684,-21"/>
<polygon fill="#191970" stroke="#191970" points="132.5445,-24.5001 142.5445,-21 132.5445,-17.5001 132.5445,-24.5001"/>
</g>
</g>
</svg>
