<?xml version="1.0" encoding="UTF-8" standalone="no"?>
<!DOCTYPE svg PUBLIC "-//W3C//DTD SVG 1.1//EN"
 "http://www.w3.org/Graphics/SVG/1.1/DTD/svg11.dtd">
<!-- Generated by graphviz version 2.40.1 (20161225.0304)
 -->
<!-- Title: Asteroids::Domain::Game::Actors::Actor::update Pages: 1 -->
<svg width="272pt" height="110pt"
 viewBox="0.00 0.00 272.00 110.00" xmlns="http://www.w3.org/2000/svg" xmlns:xlink="http://www.w3.org/1999/xlink">
<g id="graph0" class="graph" transform="scale(1 1) rotate(0) translate(4 106)">
<title>Asteroids::Domain::Game::Actors::Actor::update</title>
<polygon fill="#ffffff" stroke="transparent" points="-4,4 -4,-106 268,-106 268,4 -4,4"/>
<!-- Node163 -->
<g id="node1" class="node">
<title>Node163</title>
<polygon fill="#bfbfbf" stroke="#000000" points="0,-30.5 0,-71.5 107,-71.5 107,-30.5 0,-30.5"/>
<text text-anchor="start" x="8" y="-59.5" font-family="Helvetica,sans-Serif" font-size="10.00" fill="#000000">Asteroids::Domain::</text>
<text text-anchor="start" x="8" y="-48.5" font-family="Helvetica,sans-Serif" font-size="10.00" fill="#000000">Game::Actors::Actor</text>
<text text-anchor="middle" x="53.5" y="-37.5" font-family="Helvetica,sans-Serif" font-size="10.00" fill="#000000">::update</text>
</g>
<!-- Node164 -->
<g id="node2" class="node">
<title>Node164</title>
<g id="a_node2"><a xlink:href="$classAsteroids_1_1Domain_1_1Game_1_1Actors_1_1Bullet.html#a06eb5b7aa30c8547159696c82fd2f642" xlink:title="Asteroids::Domain::\lGame::Actors::Bullet\l::update">
<polygon fill="#ffffff" stroke="#000000" points="149.5,-60.5 149.5,-101.5 257.5,-101.5 257.5,-60.5 149.5,-60.5"/>
<text text-anchor="start" x="157.5" y="-89.5" font-family="Helvetica,sans-Serif" font-size="10.00" fill="#000000">Asteroids::Domain::</text>
<text text-anchor="start" x="157.5" y="-78.5" font-family="Helvetica,sans-Serif" font-size="10.00" fill="#000000">Game::Actors::Bullet</text>
<text text-anchor="middle" x="203.5" y="-67.5" font-family="Helvetica,sans-Serif" font-size="10.00" fill="#000000">::update</text>
</a>
</g>
</g>
<!-- Node163&#45;&gt;Node164 -->
<g id="edge1" class="edge">
<title>Node163&#45;&gt;Node164</title>
<path fill="none" stroke="#191970" d="M117.3381,-63.7676C128.0101,-65.902 138.9905,-68.0981 149.3888,-70.1778"/>
<polygon fill="#191970" stroke="#191970" points="117.722,-60.2752 107.2298,-61.746 116.3491,-67.1392 117.722,-60.2752"/>
</g>
<!-- Node165 -->
<g id="node3" class="node">
<title>Node165</title>
<g id="a_node3"><a xlink:href="$classAsteroids_1_1Domain_1_1Game_1_1Actors_1_1GunShip.html#a4b37d42d9758c701d75e6a91dda71a5b" xlink:title="Asteroids::Domain::\lGame::Actors::GunShip\l::update">
<polygon fill="#ffffff" stroke="#000000" points="143,-.5 143,-41.5 264,-41.5 264,-.5 143,-.5"/>
<text text-anchor="start" x="151" y="-29.5" font-family="Helvetica,sans-Serif" font-size="10.00" fill="#000000">Asteroids::Domain::</text>
<text text-anchor="start" x="151" y="-18.5" font-family="Helvetica,sans-Serif" font-size="10.00" fill="#000000">Game::Actors::GunShip</text>
<text text-anchor="middle" x="203.5" y="-7.5" font-family="Helvetica,sans-Serif" font-size="10.00" fill="#000000">::update</text>
</a>
</g>
</g>
<!-- Node163&#45;&gt;Node165 -->
<g id="edge2" class="edge">
<title>Node163&#45;&gt;Node165</title>
<path fill="none" stroke="#191970" d="M117.0931,-38.2814C125.5967,-36.5807 134.3006,-34.8399 142.7536,-33.1493"/>
<polygon fill="#191970" stroke="#191970" points="116.3491,-34.8608 107.2298,-40.254 117.722,-41.7248 116.3491,-34.8608"/>
</g>
</g>
</svg>
