<?xml version="1.0" encoding="UTF-8" standalone="no"?>
<!DOCTYPE svg PUBLIC "-//W3C//DTD SVG 1.1//EN"
 "http://www.w3.org/Graphics/SVG/1.1/DTD/svg11.dtd">
<!-- Generated by graphviz version 2.40.1 (20161225.0304)
 -->
<!-- Title: Asteroids::Domain::Game::Actors::GunShip::use_input Pages: 1 -->
<svg width="420pt" height="238pt"
 viewBox="0.00 0.00 420.00 238.00" xmlns="http://www.w3.org/2000/svg" xmlns:xlink="http://www.w3.org/1999/xlink">
<g id="graph0" class="graph" transform="scale(1 1) rotate(0) translate(4 234)">
<title>Asteroids::Domain::Game::Actors::GunShip::use_input</title>
<polygon fill="#ffffff" stroke="transparent" points="-4,4 -4,-234 416,-234 416,4 -4,4"/>
<!-- Node66 -->
<g id="node1" class="node">
<title>Node66</title>
<polygon fill="#bfbfbf" stroke="#000000" points="0,-73.5 0,-114.5 121,-114.5 121,-73.5 0,-73.5"/>
<text text-anchor="start" x="8" y="-102.5" font-family="Helvetica,sans-Serif" font-size="10.00" fill="#000000">Asteroids::Domain::</text>
<text text-anchor="start" x="8" y="-91.5" font-family="Helvetica,sans-Serif" font-size="10.00" fill="#000000">Game::Actors::GunShip</text>
<text text-anchor="middle" x="60.5" y="-80.5" font-family="Helvetica,sans-Serif" font-size="10.00" fill="#000000">::use_input</text>
</g>
<!-- Node67 -->
<g id="node2" class="node">
<title>Node67</title>
<g id="a_node2"><a xlink:href="$classAsteroids_1_1Domain_1_1Game_1_1Actors_1_1Actor.html#ad108a838180454ac98facde4518d7660" xlink:title="Asteroids::Domain::\lGame::Actors::Actor\l::fire_bullet">
<polygon fill="#ffffff" stroke="#000000" points="157,-98.5 157,-139.5 264,-139.5 264,-98.5 157,-98.5"/>
<text text-anchor="start" x="165" y="-127.5" font-family="Helvetica,sans-Serif" font-size="10.00" fill="#000000">Asteroids::Domain::</text>
<text text-anchor="start" x="165" y="-116.5" font-family="Helvetica,sans-Serif" font-size="10.00" fill="#000000">Game::Actors::Actor</text>
<text text-anchor="middle" x="210.5" y="-105.5" font-family="Helvetica,sans-Serif" font-size="10.00" fill="#000000">::fire_bullet</text>
</a>
</g>
</g>
<!-- Node66&#45;&gt;Node67 -->
<g id="edge1" class="edge">
<title>Node66&#45;&gt;Node67</title>
<path fill="none" stroke="#191970" d="M121.0784,-104.0964C129.6108,-105.5185 138.402,-106.9837 146.9875,-108.4146"/>
<polygon fill="#191970" stroke="#191970" points="146.5045,-111.8823 156.9438,-110.074 147.6553,-104.9775 146.5045,-111.8823"/>
</g>
<!-- Node68 -->
<g id="node3" class="node">
<title>Node68</title>
<g id="a_node3"><a xlink:href="$classAsteroids_1_1Domain_1_1Game_1_1Actors_1_1Actor.html#afa2ca9372ddf8f08de11682dae43840f" xlink:title="Asteroids::Domain::\lGame::Actors::Actor\l::get_rotation">
<polygon fill="#ffffff" stroke="#000000" points="302.5,-188.5 302.5,-229.5 409.5,-229.5 409.5,-188.5 302.5,-188.5"/>
<text text-anchor="start" x="310.5" y="-217.5" font-family="Helvetica,sans-Serif" font-size="10.00" fill="#000000">Asteroids::Domain::</text>
<text text-anchor="start" x="310.5" y="-206.5" font-family="Helvetica,sans-Serif" font-size="10.00" fill="#000000">Game::Actors::Actor</text>
<text text-anchor="middle" x="356" y="-195.5" font-family="Helvetica,sans-Serif" font-size="10.00" fill="#000000">::get_rotation</text>
</a>
</g>
</g>
<!-- Node66&#45;&gt;Node68 -->
<g id="edge6" class="edge">
<title>Node66&#45;&gt;Node68</title>
<path fill="none" stroke="#191970" d="M92.6077,-114.7307C110.9466,-125.9433 134.6725,-139.4167 157,-149 201.0192,-167.8936 252.8965,-183.3264 292.6456,-193.8072"/>
<polygon fill="#191970" stroke="#191970" points="291.9188,-197.2345 302.4778,-196.3642 293.6807,-190.4599 291.9188,-197.2345"/>
</g>
<!-- Node71 -->
<g id="node6" class="node">
<title>Node71</title>
<g id="a_node6"><a xlink:href="$classAsteroids_1_1Domain_1_1Game_1_1Actors_1_1Vector.html#a540d3867c26c3cc6dafeb7a055cd392d" xlink:title="Asteroids::Domain::\lGame::Actors::Vector\l::rotate_velocity">
<polygon fill="#ffffff" stroke="#000000" points="300,-8.5 300,-49.5 412,-49.5 412,-8.5 300,-8.5"/>
<text text-anchor="start" x="308" y="-37.5" font-family="Helvetica,sans-Serif" font-size="10.00" fill="#000000">Asteroids::Domain::</text>
<text text-anchor="start" x="308" y="-26.5" font-family="Helvetica,sans-Serif" font-size="10.00" fill="#000000">Game::Actors::Vector</text>
<text text-anchor="middle" x="356" y="-15.5" font-family="Helvetica,sans-Serif" font-size="10.00" fill="#000000">::rotate_velocity</text>
</a>
</g>
</g>
<!-- Node66&#45;&gt;Node71 -->
<g id="edge7" class="edge">
<title>Node66&#45;&gt;Node71</title>
<path fill="none" stroke="#191970" d="M121.1421,-81.6243C161.6513,-73.2496 216.09,-61.7881 264,-51 272.3812,-49.1128 281.1787,-47.0782 289.8725,-45.0352"/>
<polygon fill="#191970" stroke="#191970" points="290.6892,-48.4387 299.6162,-42.7326 289.0792,-41.6264 290.6892,-48.4387"/>
</g>
<!-- Node72 -->
<g id="node7" class="node">
<title>Node72</title>
<g id="a_node7"><a xlink:href="$classAsteroids_1_1Domain_1_1Game_1_1Actors_1_1Actor.html#ade49ee1d618ef27e07314794fcf25cf0" xlink:title="Asteroids::Domain::\lGame::Actors::Actor\l::set_input_fire">
<polygon fill="#ffffff" stroke="#000000" points="157,-.5 157,-41.5 264,-41.5 264,-.5 157,-.5"/>
<text text-anchor="start" x="165" y="-29.5" font-family="Helvetica,sans-Serif" font-size="10.00" fill="#000000">Asteroids::Domain::</text>
<text text-anchor="start" x="165" y="-18.5" font-family="Helvetica,sans-Serif" font-size="10.00" fill="#000000">Game::Actors::Actor</text>
<text text-anchor="middle" x="210.5" y="-7.5" font-family="Helvetica,sans-Serif" font-size="10.00" fill="#000000">::set_input_fire</text>
</a>
</g>
</g>
<!-- Node66&#45;&gt;Node72 -->
<g id="edge8" class="edge">
<title>Node66&#45;&gt;Node72</title>
<path fill="none" stroke="#191970" d="M102.6825,-73.4712C120.2511,-64.9211 140.8122,-54.9147 159.2411,-45.946"/>
<polygon fill="#191970" stroke="#191970" points="160.9143,-49.0242 168.3744,-41.5011 157.8511,-42.73 160.9143,-49.0242"/>
</g>
<!-- Node67&#45;&gt;Node68 -->
<g id="edge2" class="edge">
<title>Node67&#45;&gt;Node68</title>
<path fill="none" stroke="#191970" d="M239.8579,-139.7485C257.1022,-151.6647 279.4772,-166.6647 300,-179 302.4372,-180.4649 304.9514,-181.9389 307.5025,-183.4055"/>
<polygon fill="#191970" stroke="#191970" points="305.829,-186.4799 316.2595,-188.3387 309.2647,-180.3811 305.829,-186.4799"/>
</g>
<!-- Node69 -->
<g id="node4" class="node">
<title>Node69</title>
<g id="a_node4"><a xlink:href="$classAsteroids_1_1Domain_1_1Game_1_1Actors_1_1Actor.html#a6b56087b412883601fce5af07d67bd50" xlink:title="Asteroids::Domain::\lGame::Actors::Actor\l::get_x">
<polygon fill="#ffffff" stroke="#000000" points="302.5,-128.5 302.5,-169.5 409.5,-169.5 409.5,-128.5 302.5,-128.5"/>
<text text-anchor="start" x="310.5" y="-157.5" font-family="Helvetica,sans-Serif" font-size="10.00" fill="#000000">Asteroids::Domain::</text>
<text text-anchor="start" x="310.5" y="-146.5" font-family="Helvetica,sans-Serif" font-size="10.00" fill="#000000">Game::Actors::Actor</text>
<text text-anchor="middle" x="356" y="-135.5" font-family="Helvetica,sans-Serif" font-size="10.00" fill="#000000">::get_x</text>
</a>
</g>
</g>
<!-- Node67&#45;&gt;Node69 -->
<g id="edge3" class="edge">
<title>Node67&#45;&gt;Node69</title>
<path fill="none" stroke="#191970" d="M264.2654,-130.0857C273.4206,-131.9733 283.0071,-133.9499 292.3876,-135.884"/>
<polygon fill="#191970" stroke="#191970" points="291.9548,-139.3683 302.4555,-137.9599 293.3684,-132.5126 291.9548,-139.3683"/>
</g>
<!-- Node70 -->
<g id="node5" class="node">
<title>Node70</title>
<g id="a_node5"><a xlink:href="$classAsteroids_1_1Domain_1_1Game_1_1Actors_1_1Actor.html#afa54aab6e7be56e04014dd3f80f0e7af" xlink:title="Asteroids::Domain::\lGame::Actors::Actor\l::get_y">
<polygon fill="#ffffff" stroke="#000000" points="302.5,-68.5 302.5,-109.5 409.5,-109.5 409.5,-68.5 302.5,-68.5"/>
<text text-anchor="start" x="310.5" y="-97.5" font-family="Helvetica,sans-Serif" font-size="10.00" fill="#000000">Asteroids::Domain::</text>
<text text-anchor="start" x="310.5" y="-86.5" font-family="Helvetica,sans-Serif" font-size="10.00" fill="#000000">Game::Actors::Actor</text>
<text text-anchor="middle" x="356" y="-75.5" font-family="Helvetica,sans-Serif" font-size="10.00" fill="#000000">::get_y</text>
</a>
</g>
</g>
<!-- Node67&#45;&gt;Node70 -->
<g id="edge4" class="edge">
<title>Node67&#45;&gt;Node70</title>
<path fill="none" stroke="#191970" d="M264.2654,-107.9143C273.4206,-106.0267 283.0071,-104.0501 292.3876,-102.116"/>
<polygon fill="#191970" stroke="#191970" points="293.3684,-105.4874 302.4555,-100.0401 291.9548,-98.6317 293.3684,-105.4874"/>
</g>
<!-- Node67&#45;&gt;Node71 -->
<g id="edge5" class="edge">
<title>Node67&#45;&gt;Node71</title>
<path fill="none" stroke="#191970" d="M242.2801,-98.416C249.4488,-93.7155 257.0055,-88.7152 264,-84 280.1521,-73.1112 283.387,-69.1718 300,-59 302.4251,-57.5152 304.9296,-56.0252 307.4731,-54.5461"/>
<polygon fill="#191970" stroke="#191970" points="309.2451,-57.5648 316.2117,-49.5826 305.7878,-51.4782 309.2451,-57.5648"/>
</g>
</g>
</svg>
