<?xml version="1.0" encoding="UTF-8" standalone="no"?>
<!DOCTYPE svg PUBLIC "-//W3C//DTD SVG 1.1//EN"
 "http://www.w3.org/Graphics/SVG/1.1/DTD/svg11.dtd">
<!-- Generated by graphviz version 2.40.1 (20161225.0304)
 -->
<!-- Title: Asteroids::Domain::Store::STORE_ITEM::reset Pages: 1 -->
<svg width="524pt" height="39pt"
 viewBox="0.00 0.00 524.00 39.00" xmlns="http://www.w3.org/2000/svg" xmlns:xlink="http://www.w3.org/1999/xlink">
<g id="graph0" class="graph" transform="scale(1 1) rotate(0) translate(4 35)">
<title>Asteroids::Domain::Store::STORE_ITEM::reset</title>
<polygon fill="#ffffff" stroke="transparent" points="-4,4 -4,-35 520,-35 520,4 -4,4"/>
<!-- Node25 -->
<g id="node1" class="node">
<title>Node25</title>
<polygon fill="#bfbfbf" stroke="#000000" points="0,-.5 0,-30.5 137,-30.5 137,-.5 0,-.5"/>
<text text-anchor="start" x="8" y="-18.5" font-family="Helvetica,sans-Serif" font-size="10.00" fill="#000000">Asteroids::Domain::</text>
<text text-anchor="middle" x="68.5" y="-7.5" font-family="Helvetica,sans-Serif" font-size="10.00" fill="#000000">Store::STORE_ITEM::reset</text>
</g>
<!-- Node26 -->
<g id="node2" class="node">
<title>Node26</title>
<g id="a_node2"><a xlink:href="$classAsteroids_1_1Domain_1_1Store_1_1STORE__ITEM.html#a9357d523cd548598d07e9fb36fde6b90" xlink:title="Asteroids::Domain::\lStore::STORE_ITEM::init">
<polygon fill="#ffffff" stroke="#000000" points="173,-.5 173,-30.5 301,-30.5 301,-.5 173,-.5"/>
<text text-anchor="start" x="181" y="-18.5" font-family="Helvetica,sans-Serif" font-size="10.00" fill="#000000">Asteroids::Domain::</text>
<text text-anchor="middle" x="237" y="-7.5" font-family="Helvetica,sans-Serif" font-size="10.00" fill="#000000">Store::STORE_ITEM::init</text>
</a>
</g>
</g>
<!-- Node25&#45;&gt;Node26 -->
<g id="edge1" class="edge">
<title>Node25&#45;&gt;Node26</title>
<path fill="none" stroke="#191970" d="M147.1095,-15.5C155.7408,-15.5 164.4514,-15.5 172.8768,-15.5"/>
<polygon fill="#191970" stroke="#191970" points="147.0354,-12.0001 137.0354,-15.5 147.0354,-19.0001 147.0354,-12.0001"/>
</g>
<!-- Node27 -->
<g id="node3" class="node">
<title>Node27</title>
<g id="a_node3"><a xlink:href="$classAsteroids_1_1Domain_1_1Store_1_1STORE__ITEM.html#aa90aa58f85cd1600676a65af16f76cef" xlink:title="Asteroids::Domain::\lStore::STORE_ITEM::STORE_ITEM">
<polygon fill="#ffffff" stroke="#000000" points="337,-.5 337,-30.5 516,-30.5 516,-.5 337,-.5"/>
<text text-anchor="start" x="345" y="-18.5" font-family="Helvetica,sans-Serif" font-size="10.00" fill="#000000">Asteroids::Domain::</text>
<text text-anchor="middle" x="426.5" y="-7.5" font-family="Helvetica,sans-Serif" font-size="10.00" fill="#000000">Store::STORE_ITEM::STORE_ITEM</text>
</a>
</g>
</g>
<!-- Node26&#45;&gt;Node27 -->
<g id="edge2" class="edge">
<title>Node26&#45;&gt;Node27</title>
<path fill="none" stroke="#191970" d="M311.2688,-15.5C319.6666,-15.5 328.2898,-15.5 336.8572,-15.5"/>
<polygon fill="#191970" stroke="#191970" points="311.1561,-12.0001 301.1561,-15.5 311.156,-19.0001 311.1561,-12.0001"/>
</g>
</g>
</svg>
