<?xml version="1.0" encoding="UTF-8" standalone="no"?>
<!DOCTYPE svg PUBLIC "-//W3C//DTD SVG 1.1//EN"
 "http://www.w3.org/Graphics/SVG/1.1/DTD/svg11.dtd">
<!-- Generated by graphviz version 2.40.1 (20161225.0304)
 -->
<!-- Title: Asteroids::Domain::Store::PAYMENT_RESULT_DETAILS::set_was_successful Pages: 1 -->
<svg width="367pt" height="61pt"
 viewBox="0.00 0.00 367.00 61.00" xmlns="http://www.w3.org/2000/svg" xmlns:xlink="http://www.w3.org/1999/xlink">
<g id="graph0" class="graph" transform="scale(1 1) rotate(0) translate(4 57)">
<title>Asteroids::Domain::Store::PAYMENT_RESULT_DETAILS::set_was_successful</title>
<polygon fill="#ffffff" stroke="transparent" points="-4,4 -4,-57 363,-57 363,4 -4,4"/>
<!-- Node8 -->
<g id="node1" class="node">
<title>Node8</title>
<polygon fill="#bfbfbf" stroke="#000000" points="0,-6 0,-47 159,-47 159,-6 0,-6"/>
<text text-anchor="start" x="8" y="-35" font-family="Helvetica,sans-Serif" font-size="10.00" fill="#000000">Asteroids::Domain::</text>
<text text-anchor="start" x="8" y="-24" font-family="Helvetica,sans-Serif" font-size="10.00" fill="#000000">Store::PAYMENT_RESULT</text>
<text text-anchor="middle" x="79.5" y="-13" font-family="Helvetica,sans-Serif" font-size="10.00" fill="#000000">_DETAILS::set_was_successful</text>
</g>
<!-- Node9 -->
<g id="node2" class="node">
<title>Node9</title>
<g id="a_node2"><a xlink:href="$classAsteroids_1_1Domain_1_1Store_1_1PAYMENT__RESULT__DETAILS.html#a82b55a89437535aa8b69781dfa122205" xlink:title="Asteroids::Domain::\lStore::PAYMENT_RESULT\l_DETAILS::PAYMENT_RESULT\l_DETAILS">
<polygon fill="#ffffff" stroke="#000000" points="195,-.5 195,-52.5 359,-52.5 359,-.5 195,-.5"/>
<text text-anchor="start" x="203" y="-40.5" font-family="Helvetica,sans-Serif" font-size="10.00" fill="#000000">Asteroids::Domain::</text>
<text text-anchor="start" x="203" y="-29.5" font-family="Helvetica,sans-Serif" font-size="10.00" fill="#000000">Store::PAYMENT_RESULT</text>
<text text-anchor="start" x="203" y="-18.5" font-family="Helvetica,sans-Serif" font-size="10.00" fill="#000000">_DETAILS::PAYMENT_RESULT</text>
<text text-anchor="middle" x="277" y="-7.5" font-family="Helvetica,sans-Serif" font-size="10.00" fill="#000000">_DETAILS</text>
</a>
</g>
</g>
<!-- Node8&#45;&gt;Node9 -->
<g id="edge1" class="edge">
<title>Node8&#45;&gt;Node9</title>
<path fill="none" stroke="#191970" d="M169.4566,-26.5C177.8631,-26.5 186.3553,-26.5 194.6869,-26.5"/>
<polygon fill="#191970" stroke="#191970" points="169.2616,-23.0001 159.2615,-26.5 169.2615,-30.0001 169.2616,-23.0001"/>
</g>
</g>
</svg>
