<?xml version="1.0" encoding="UTF-8" standalone="no"?>
<!DOCTYPE svg PUBLIC "-//W3C//DTD SVG 1.1//EN"
 "http://www.w3.org/Graphics/SVG/1.1/DTD/svg11.dtd">
<!-- Generated by graphviz version 2.40.1 (20161225.0304)
 -->
<!-- Title: Asteroids::UI::ClientTextUI::ClientTextUI Pages: 1 -->
<svg width="1538pt" height="1284pt"
 viewBox="0.00 0.00 1537.50 1284.00" xmlns="http://www.w3.org/2000/svg" xmlns:xlink="http://www.w3.org/1999/xlink">
<g id="graph0" class="graph" transform="scale(1 1) rotate(0) translate(4 1280)">
<title>Asteroids::UI::ClientTextUI::ClientTextUI</title>
<polygon fill="#ffffff" stroke="transparent" points="-4,4 -4,-1280 1533.5,-1280 1533.5,4 -4,4"/>
<!-- Node2 -->
<g id="node1" class="node">
<title>Node2</title>
<polygon fill="#bfbfbf" stroke="#000000" points="532,-.5 532,-409.5 661,-409.5 661,-.5 532,-.5"/>
<text text-anchor="start" x="540" y="-397.5" font-family="Helvetica,sans-Serif" font-size="10.00" fill="#000000">Asteroids::UI::ClientText</text>
<text text-anchor="middle" x="596.5" y="-386.5" font-family="Helvetica,sans-Serif" font-size="10.00" fill="#000000">UI::ClientTextUI</text>
<polyline fill="none" stroke="#000000" points="532,-379.5 661,-379.5 "/>
<text text-anchor="start" x="540" y="-367.5" font-family="Helvetica,sans-Serif" font-size="10.00" fill="#000000">&#45; _authentication_state</text>
<text text-anchor="start" x="540" y="-356.5" font-family="Helvetica,sans-Serif" font-size="10.00" fill="#000000">&#45; _factory</text>
<text text-anchor="start" x="540" y="-345.5" font-family="Helvetica,sans-Serif" font-size="10.00" fill="#000000">&#45; _game</text>
<text text-anchor="start" x="540" y="-334.5" font-family="Helvetica,sans-Serif" font-size="10.00" fill="#000000">&#45; _game_history</text>
<text text-anchor="start" x="540" y="-323.5" font-family="Helvetica,sans-Serif" font-size="10.00" fill="#000000">&#45; _payment_helper</text>
<text text-anchor="start" x="540" y="-312.5" font-family="Helvetica,sans-Serif" font-size="10.00" fill="#000000">&#45; _store</text>
<polyline fill="none" stroke="#000000" points="532,-305.5 661,-305.5 "/>
<text text-anchor="start" x="540" y="-293.5" font-family="Helvetica,sans-Serif" font-size="10.00" fill="#000000">+ ClientTextUI()</text>
<text text-anchor="start" x="540" y="-282.5" font-family="Helvetica,sans-Serif" font-size="10.00" fill="#000000">+ reset()</text>
<text text-anchor="start" x="540" y="-271.5" font-family="Helvetica,sans-Serif" font-size="10.00" fill="#000000">+ run()</text>
<text text-anchor="start" x="540" y="-260.5" font-family="Helvetica,sans-Serif" font-size="10.00" fill="#000000">&#45; demand_authentication()</text>
<text text-anchor="start" x="540" y="-249.5" font-family="Helvetica,sans-Serif" font-size="10.00" fill="#000000">&#45; do_authentication()</text>
<text text-anchor="start" x="540" y="-238.5" font-family="Helvetica,sans-Serif" font-size="10.00" fill="#000000">&#45; draw_actor()</text>
<text text-anchor="start" x="540" y="-227.5" font-family="Helvetica,sans-Serif" font-size="10.00" fill="#000000">&#45; draw_game()</text>
<text text-anchor="start" x="540" y="-216.5" font-family="Helvetica,sans-Serif" font-size="10.00" fill="#000000">&#45; find_friends_on_social</text>
<text text-anchor="start" x="540" y="-205.5" font-family="Helvetica,sans-Serif" font-size="10.00" fill="#000000">_media()</text>
<text text-anchor="start" x="540" y="-194.5" font-family="Helvetica,sans-Serif" font-size="10.00" fill="#000000">&#45; handle_game_input()</text>
<text text-anchor="start" x="540" y="-183.5" font-family="Helvetica,sans-Serif" font-size="10.00" fill="#000000">&#45; init()</text>
<text text-anchor="start" x="540" y="-172.5" font-family="Helvetica,sans-Serif" font-size="10.00" fill="#000000">&#45; initialize_display_grid()</text>
<text text-anchor="start" x="540" y="-161.5" font-family="Helvetica,sans-Serif" font-size="10.00" fill="#000000">&#45; main_menu()</text>
<text text-anchor="start" x="540" y="-150.5" font-family="Helvetica,sans-Serif" font-size="10.00" fill="#000000">&#45; main_menu_loop()</text>
<text text-anchor="start" x="540" y="-139.5" font-family="Helvetica,sans-Serif" font-size="10.00" fill="#000000">&#45; pay_for_store_item()</text>
<text text-anchor="start" x="540" y="-128.5" font-family="Helvetica,sans-Serif" font-size="10.00" fill="#000000">&#45; pay_for_store_item</text>
<text text-anchor="start" x="540" y="-117.5" font-family="Helvetica,sans-Serif" font-size="10.00" fill="#000000">_with_credit_card()</text>
<text text-anchor="start" x="540" y="-106.5" font-family="Helvetica,sans-Serif" font-size="10.00" fill="#000000">&#45; play_game()</text>
<text text-anchor="start" x="540" y="-95.5" font-family="Helvetica,sans-Serif" font-size="10.00" fill="#000000">&#45; print()</text>
<text text-anchor="start" x="540" y="-84.5" font-family="Helvetica,sans-Serif" font-size="10.00" fill="#000000">&#45; purchasing_store_item()</text>
<text text-anchor="start" x="540" y="-73.5" font-family="Helvetica,sans-Serif" font-size="10.00" fill="#000000">&#45; review_game_history()</text>
<text text-anchor="start" x="540" y="-62.5" font-family="Helvetica,sans-Serif" font-size="10.00" fill="#000000">&#45; share_game_history</text>
<text text-anchor="start" x="540" y="-51.5" font-family="Helvetica,sans-Serif" font-size="10.00" fill="#000000">_entry_to_social_media()</text>
<text text-anchor="start" x="540" y="-40.5" font-family="Helvetica,sans-Serif" font-size="10.00" fill="#000000">&#45; store()</text>
<text text-anchor="start" x="540" y="-29.5" font-family="Helvetica,sans-Serif" font-size="10.00" fill="#000000">&#45; store_loop()</text>
<text text-anchor="start" x="540" y="-18.5" font-family="Helvetica,sans-Serif" font-size="10.00" fill="#000000">&#45; store_offer_available</text>
<text text-anchor="start" x="540" y="-7.5" font-family="Helvetica,sans-Serif" font-size="10.00" fill="#000000">_items()</text>
</g>
<!-- Node3 -->
<g id="node2" class="node">
<title>Node3</title>
<g id="a_node2"><a xlink:href="$classAsteroids_1_1UI_1_1ClientTextUI_1_1ClientTextUIInterface.html" xlink:title="Interface to the main client text user interface; Just runs, basically. ">
<polygon fill="#ffffff" stroke="#000000" points="0,-474 0,-542 127,-542 127,-474 0,-474"/>
<text text-anchor="start" x="8" y="-530" font-family="Helvetica,sans-Serif" font-size="10.00" fill="#000000">Asteroids::UI::ClientText</text>
<text text-anchor="middle" x="63.5" y="-519" font-family="Helvetica,sans-Serif" font-size="10.00" fill="#000000">UI::ClientTextUIInterface</text>
<polyline fill="none" stroke="#000000" points="0,-512 127,-512 "/>
<text text-anchor="middle" x="63.5" y="-500" font-family="Helvetica,sans-Serif" font-size="10.00" fill="#000000"> </text>
<polyline fill="none" stroke="#000000" points="0,-493 127,-493 "/>
<text text-anchor="start" x="8" y="-481" font-family="Helvetica,sans-Serif" font-size="10.00" fill="#000000">+ run()</text>
</a>
</g>
</g>
<!-- Node3&#45;&gt;Node2 -->
<g id="edge1" class="edge">
<title>Node3&#45;&gt;Node2</title>
<path fill="none" stroke="#191970" d="M132.1735,-468.9605C235.8256,-410.0363 430.8466,-299.1707 531.9888,-241.6733"/>
<polygon fill="none" stroke="#191970" points="130.3116,-465.9928 123.3479,-473.9777 133.7711,-472.0783 130.3116,-465.9928"/>
</g>
<!-- Node4 -->
<g id="node3" class="node">
<title>Node4</title>
<polygon fill="#ffffff" stroke="#bfbfbf" points="352,-474 352,-542 513,-542 513,-474 352,-474"/>
<text text-anchor="start" x="360" y="-530" font-family="Helvetica,sans-Serif" font-size="10.00" fill="#000000">std::unique_ptr&lt; Asteroids</text>
<text text-anchor="middle" x="432.5" y="-519" font-family="Helvetica,sans-Serif" font-size="10.00" fill="#000000">::UI::ClientTextUI::DisplayGrid &gt;</text>
<polyline fill="none" stroke="#bfbfbf" points="352,-512 513,-512 "/>
<text text-anchor="middle" x="432.5" y="-500" font-family="Helvetica,sans-Serif" font-size="10.00" fill="#000000"> </text>
<polyline fill="none" stroke="#bfbfbf" points="352,-493 513,-493 "/>
<text text-anchor="start" x="360" y="-481" font-family="Helvetica,sans-Serif" font-size="10.00" fill="#000000">+ operator&#45;&gt;()</text>
</g>
<!-- Node4&#45;&gt;Node2 -->
<g id="edge2" class="edge">
<title>Node4&#45;&gt;Node2</title>
<path fill="none" stroke="#404040" d="M450.9941,-473.831C469.3336,-439.9476 498.5932,-385.8888 526.0809,-335.1035"/>
<polygon fill="none" stroke="#404040" points="526.203,-334.878 525.5412,-327.6973 531.9151,-324.3246 532.5768,-331.5053 526.203,-334.878"/>
<text text-anchor="middle" x="504.5" y="-436.5" font-family="Helvetica,sans-Serif" font-size="10.00" fill="#000000"> &#45;_display_grid</text>
</g>
<!-- Node5 -->
<g id="node4" class="node">
<title>Node5</title>
<g id="a_node4"><a xlink:href="$classAsteroids_1_1UI_1_1ClientTextUI_1_1DisplayGrid.html" xlink:title="Class to help translate and render actors and stuff from the virtual game board, to actual ASCII grap...">
<polygon fill="#ffffff" stroke="#000000" points="226,-606.5 226,-927.5 353,-927.5 353,-606.5 226,-606.5"/>
<text text-anchor="start" x="234" y="-915.5" font-family="Helvetica,sans-Serif" font-size="10.00" fill="#000000">Asteroids::UI::ClientText</text>
<text text-anchor="middle" x="289.5" y="-904.5" font-family="Helvetica,sans-Serif" font-size="10.00" fill="#000000">UI::DisplayGrid</text>
<polyline fill="none" stroke="#000000" points="226,-897.5 353,-897.5 "/>
<text text-anchor="start" x="234" y="-885.5" font-family="Helvetica,sans-Serif" font-size="10.00" fill="#000000">&#45; _height</text>
<text text-anchor="start" x="234" y="-874.5" font-family="Helvetica,sans-Serif" font-size="10.00" fill="#000000">&#45; _source_height</text>
<text text-anchor="start" x="234" y="-863.5" font-family="Helvetica,sans-Serif" font-size="10.00" fill="#000000">&#45; _source_width</text>
<text text-anchor="start" x="234" y="-852.5" font-family="Helvetica,sans-Serif" font-size="10.00" fill="#000000">&#45; _translation_ratio</text>
<text text-anchor="start" x="234" y="-841.5" font-family="Helvetica,sans-Serif" font-size="10.00" fill="#000000">&#45; _unused_height</text>
<text text-anchor="start" x="234" y="-830.5" font-family="Helvetica,sans-Serif" font-size="10.00" fill="#000000">&#45; _unused_source_height</text>
<text text-anchor="start" x="234" y="-819.5" font-family="Helvetica,sans-Serif" font-size="10.00" fill="#000000">&#45; _unused_source_width</text>
<text text-anchor="start" x="234" y="-808.5" font-family="Helvetica,sans-Serif" font-size="10.00" fill="#000000">&#45; _unused_width</text>
<text text-anchor="start" x="234" y="-797.5" font-family="Helvetica,sans-Serif" font-size="10.00" fill="#000000">&#45; _width</text>
<polyline fill="none" stroke="#000000" points="226,-790.5 353,-790.5 "/>
<text text-anchor="start" x="234" y="-778.5" font-family="Helvetica,sans-Serif" font-size="10.00" fill="#000000">+ DisplayGrid()</text>
<text text-anchor="start" x="234" y="-767.5" font-family="Helvetica,sans-Serif" font-size="10.00" fill="#000000">+ clear()</text>
<text text-anchor="start" x="234" y="-756.5" font-family="Helvetica,sans-Serif" font-size="10.00" fill="#000000">+ draw_filled_polygon()</text>
<text text-anchor="start" x="234" y="-745.5" font-family="Helvetica,sans-Serif" font-size="10.00" fill="#000000">+ draw_polygon()</text>
<text text-anchor="start" x="234" y="-734.5" font-family="Helvetica,sans-Serif" font-size="10.00" fill="#000000">+ print()</text>
<text text-anchor="start" x="234" y="-723.5" font-family="Helvetica,sans-Serif" font-size="10.00" fill="#000000">+ render()</text>
<text text-anchor="start" x="234" y="-712.5" font-family="Helvetica,sans-Serif" font-size="10.00" fill="#000000">+ reset()</text>
<text text-anchor="start" x="234" y="-701.5" font-family="Helvetica,sans-Serif" font-size="10.00" fill="#000000">+ set_footer_text()</text>
<text text-anchor="start" x="234" y="-690.5" font-family="Helvetica,sans-Serif" font-size="10.00" fill="#000000">+ set_grid_pixel()</text>
<text text-anchor="start" x="234" y="-679.5" font-family="Helvetica,sans-Serif" font-size="10.00" fill="#000000">+ set_header_text()</text>
<text text-anchor="start" x="234" y="-668.5" font-family="Helvetica,sans-Serif" font-size="10.00" fill="#000000">+ set_pixel()</text>
<text text-anchor="start" x="234" y="-657.5" font-family="Helvetica,sans-Serif" font-size="10.00" fill="#000000">&#45; add_border()</text>
<text text-anchor="start" x="234" y="-646.5" font-family="Helvetica,sans-Serif" font-size="10.00" fill="#000000">&#45; calculate_translation()</text>
<text text-anchor="start" x="234" y="-635.5" font-family="Helvetica,sans-Serif" font-size="10.00" fill="#000000">&#45; clear_grid()</text>
<text text-anchor="start" x="234" y="-624.5" font-family="Helvetica,sans-Serif" font-size="10.00" fill="#000000">&#45; init()</text>
<text text-anchor="start" x="234" y="-613.5" font-family="Helvetica,sans-Serif" font-size="10.00" fill="#000000">&#45; translate_source_point()</text>
</a>
</g>
</g>
<!-- Node5&#45;&gt;Node4 -->
<g id="edge3" class="edge">
<title>Node5&#45;&gt;Node4</title>
<path fill="none" stroke="#404040" d="M225.8152,-621.1016C222.7844,-615.9406 219.6769,-610.8898 216.5,-606 210.6685,-597.0244 204.3039,-598.0049 200.5,-588 197.0252,-578.8605 194.0354,-573.3358 200.5,-566 221.53,-542.136 311.8627,-556.5503 342.5,-548 344.7851,-547.3623 347.0869,-546.6762 349.3969,-545.9488"/>
<polygon fill="none" stroke="#404040" points="349.6172,-545.8737 354.0053,-540.1514 360.9752,-542.0011 356.5871,-547.7234 349.6172,-545.8737"/>
<text text-anchor="middle" x="211" y="-574.5" font-family="Helvetica,sans-Serif" font-size="10.00" fill="#000000"> +ptr</text>
</g>
<!-- Node6 -->
<g id="node5" class="node">
<title>Node6</title>
<polygon fill="#ffffff" stroke="#bfbfbf" points="386,-986.5 386,-1054.5 505,-1054.5 505,-986.5 386,-986.5"/>
<text text-anchor="start" x="394" y="-1042.5" font-family="Helvetica,sans-Serif" font-size="10.00" fill="#000000">std::vector&lt; std::vector</text>
<text text-anchor="middle" x="445.5" y="-1031.5" font-family="Helvetica,sans-Serif" font-size="10.00" fill="#000000">&lt; bool &gt; &gt;</text>
<polyline fill="none" stroke="#bfbfbf" points="386,-1024.5 505,-1024.5 "/>
<text text-anchor="start" x="394" y="-1012.5" font-family="Helvetica,sans-Serif" font-size="10.00" fill="#000000">+ elements</text>
<polyline fill="none" stroke="#bfbfbf" points="386,-1005.5 505,-1005.5 "/>
<text text-anchor="middle" x="445.5" y="-993.5" font-family="Helvetica,sans-Serif" font-size="10.00" fill="#000000"> </text>
</g>
<!-- Node6&#45;&gt;Node5 -->
<g id="edge4" class="edge">
<title>Node6&#45;&gt;Node5</title>
<path fill="none" stroke="#404040" d="M409.5446,-986.2324C393.4855,-969.6688 375.1483,-948.8817 361.5,-928 360.877,-927.0469 360.257,-926.0875 359.6399,-925.1222"/>
<polygon fill="none" stroke="#404040" points="359.4351,-924.7896 352.8831,-921.7778 353.1432,-914.5714 359.6953,-917.5832 359.4351,-924.7896"/>
<text text-anchor="middle" x="402.5" y="-954.5" font-family="Helvetica,sans-Serif" font-size="10.00" fill="#000000"> &#45;grid</text>
</g>
<!-- Node7 -->
<g id="node6" class="node">
<title>Node7</title>
<g id="a_node6"><a xlink:title="STL class. ">
<polygon fill="#ffffff" stroke="#bfbfbf" points="466,-1108 466,-1165 553,-1165 553,-1108 466,-1108"/>
<text text-anchor="middle" x="509.5" y="-1153" font-family="Helvetica,sans-Serif" font-size="10.00" fill="#000000">std::vector&lt; T &gt;</text>
<polyline fill="none" stroke="#bfbfbf" points="466,-1146 553,-1146 "/>
<text text-anchor="middle" x="509.5" y="-1134" font-family="Helvetica,sans-Serif" font-size="10.00" fill="#000000"> </text>
<polyline fill="none" stroke="#bfbfbf" points="466,-1127 553,-1127 "/>
<text text-anchor="middle" x="509.5" y="-1115" font-family="Helvetica,sans-Serif" font-size="10.00" fill="#000000"> </text>
</a>
</g>
</g>
<!-- Node7&#45;&gt;Node6 -->
<g id="edge5" class="edge">
<title>Node7&#45;&gt;Node6</title>
<path fill="none" stroke="#ffa500" d="M488.6957,-1098.7923C480.8504,-1084.5725 471.9777,-1068.4908 464.3236,-1054.6178"/>
<polygon fill="#ffa500" stroke="#ffa500" points="485.7844,-1100.7608 493.6798,-1107.8258 491.9135,-1097.3793 485.7844,-1100.7608"/>
<text text-anchor="middle" x="531.5" y="-1076" font-family="Helvetica,sans-Serif" font-size="10.00" fill="#000000"> &lt; std::vector&lt; bool &gt; &gt;</text>
</g>
<!-- Node8 -->
<g id="node7" class="node">
<title>Node8</title>
<polygon fill="#ffffff" stroke="#bfbfbf" points="545,-1218.5 545,-1275.5 574,-1275.5 574,-1218.5 545,-1218.5"/>
<text text-anchor="middle" x="559.5" y="-1263.5" font-family="Helvetica,sans-Serif" font-size="10.00" fill="#000000">T</text>
<polyline fill="none" stroke="#bfbfbf" points="545,-1256.5 574,-1256.5 "/>
<text text-anchor="middle" x="559.5" y="-1244.5" font-family="Helvetica,sans-Serif" font-size="10.00" fill="#000000"> </text>
<polyline fill="none" stroke="#bfbfbf" points="545,-1237.5 574,-1237.5 "/>
<text text-anchor="middle" x="559.5" y="-1225.5" font-family="Helvetica,sans-Serif" font-size="10.00" fill="#000000"> </text>
</g>
<!-- Node8&#45;&gt;Node7 -->
<g id="edge6" class="edge">
<title>Node8&#45;&gt;Node7</title>
<path fill="none" stroke="#404040" d="M546.4936,-1218.2559C540.7066,-1205.4666 533.7959,-1190.1939 527.5224,-1176.3296"/>
<polygon fill="none" stroke="#404040" points="527.3883,-1176.0331 521.2705,-1172.2156 522.4413,-1165.1002 528.5591,-1168.9176 527.3883,-1176.0331"/>
<text text-anchor="middle" x="562" y="-1192" font-family="Helvetica,sans-Serif" font-size="10.00" fill="#000000"> +elements</text>
</g>
<!-- Node11 -->
<g id="node10" class="node">
<title>Node11</title>
<g id="a_node10"><a xlink:title="STL class. ">
<polygon fill="#ffffff" stroke="#bfbfbf" points="569,-738.5 569,-795.5 674,-795.5 674,-738.5 569,-738.5"/>
<text text-anchor="middle" x="621.5" y="-783.5" font-family="Helvetica,sans-Serif" font-size="10.00" fill="#000000">std::unique_ptr&lt; T &gt;</text>
<polyline fill="none" stroke="#bfbfbf" points="569,-776.5 674,-776.5 "/>
<text text-anchor="middle" x="621.5" y="-764.5" font-family="Helvetica,sans-Serif" font-size="10.00" fill="#000000"> </text>
<polyline fill="none" stroke="#bfbfbf" points="569,-757.5 674,-757.5 "/>
<text text-anchor="start" x="577" y="-745.5" font-family="Helvetica,sans-Serif" font-size="10.00" fill="#000000">+ operator&#45;&gt;()</text>
</a>
</g>
</g>
<!-- Node8&#45;&gt;Node11 -->
<g id="edge10" class="edge">
<title>Node8&#45;&gt;Node11</title>
<path fill="none" stroke="#404040" d="M574.2264,-1229.3996C580.3787,-1221.0261 586.9179,-1210.5518 590.5,-1200 637.2602,-1062.2603 631.1334,-886.0921 625.2867,-807.7321"/>
<polygon fill="none" stroke="#404040" points="625.2716,-807.5404 620.8094,-801.8758 624.3221,-795.578 628.7843,-801.2427 625.2716,-807.5404"/>
<text text-anchor="middle" x="630" y="-1076" font-family="Helvetica,sans-Serif" font-size="10.00" fill="#000000"> +ptr</text>
</g>
<!-- Node9 -->
<g id="node8" class="node">
<title>Node9</title>
<g id="a_node8"><a xlink:title="STL class. ">
<polygon fill="#ffffff" stroke="#bfbfbf" points="259.5,-992 259.5,-1049 319.5,-1049 319.5,-992 259.5,-992"/>
<text text-anchor="middle" x="289.5" y="-1037" font-family="Helvetica,sans-Serif" font-size="10.00" fill="#000000">std::string</text>
<polyline fill="none" stroke="#bfbfbf" points="259.5,-1030 319.5,-1030 "/>
<text text-anchor="middle" x="289.5" y="-1018" font-family="Helvetica,sans-Serif" font-size="10.00" fill="#000000"> </text>
<polyline fill="none" stroke="#bfbfbf" points="259.5,-1011 319.5,-1011 "/>
<text text-anchor="middle" x="289.5" y="-999" font-family="Helvetica,sans-Serif" font-size="10.00" fill="#000000"> </text>
</a>
</g>
</g>
<!-- Node9&#45;&gt;Node5 -->
<g id="edge7" class="edge">
<title>Node9&#45;&gt;Node5</title>
<path fill="none" stroke="#404040" d="M289.5,-991.9131C289.5,-977.9074 289.5,-959.7815 289.5,-939.9013"/>
<polygon fill="none" stroke="#404040" points="289.5001,-939.6661 285.5,-933.6661 289.5,-927.6661 293.5,-933.6661 289.5001,-939.6661"/>
<text text-anchor="middle" x="319.5" y="-960" font-family="Helvetica,sans-Serif" font-size="10.00" fill="#000000"> &#45;_footer_text</text>
<text text-anchor="middle" x="319.5" y="-949" font-family="Helvetica,sans-Serif" font-size="10.00" fill="#000000">&#45;_header_text</text>
</g>
<!-- Node10 -->
<g id="node9" class="node">
<title>Node10</title>
<g id="a_node9"><a xlink:title="STL class. ">
<polygon fill="#ffffff" stroke="#bfbfbf" points="242,-1102.5 242,-1170.5 337,-1170.5 337,-1102.5 242,-1102.5"/>
<text text-anchor="start" x="250" y="-1158.5" font-family="Helvetica,sans-Serif" font-size="10.00" fill="#000000">std::basic_string&lt;</text>
<text text-anchor="middle" x="289.5" y="-1147.5" font-family="Helvetica,sans-Serif" font-size="10.00" fill="#000000"> char &gt;</text>
<polyline fill="none" stroke="#bfbfbf" points="242,-1140.5 337,-1140.5 "/>
<text text-anchor="middle" x="289.5" y="-1128.5" font-family="Helvetica,sans-Serif" font-size="10.00" fill="#000000"> </text>
<polyline fill="none" stroke="#bfbfbf" points="242,-1121.5 337,-1121.5 "/>
<text text-anchor="middle" x="289.5" y="-1109.5" font-family="Helvetica,sans-Serif" font-size="10.00" fill="#000000"> </text>
</a>
</g>
</g>
<!-- Node10&#45;&gt;Node9 -->
<g id="edge8" class="edge">
<title>Node10&#45;&gt;Node9</title>
<path fill="none" stroke="#191970" d="M289.5,-1092.1387C289.5,-1077.7904 289.5,-1062.2617 289.5,-1049.3418"/>
<polygon fill="none" stroke="#191970" points="286.0001,-1092.3235 289.5,-1102.3236 293.0001,-1092.3236 286.0001,-1092.3235"/>
</g>
<!-- Node11&#45;&gt;Node4 -->
<g id="edge9" class="edge">
<title>Node11&#45;&gt;Node4</title>
<path fill="none" stroke="#ffa500" d="M599.3678,-729.4707C577.8807,-694.9526 542.9481,-643.5782 504.5,-606 494.4489,-596.1763 488.0135,-598.3452 478.5,-588 466.137,-574.5562 455.6628,-557.2215 447.8469,-542.1272"/>
<polygon fill="#ffa500" stroke="#ffa500" points="596.578,-731.6155 604.799,-738.2987 602.54,-727.9475 596.578,-731.6155"/>
<text text-anchor="start" x="478.5" y="-580" font-family="Helvetica,sans-Serif" font-size="10.00" fill="#000000"> &lt; Asteroids::UI::ClientText</text>
<text text-anchor="middle" x="539" y="-569" font-family="Helvetica,sans-Serif" font-size="10.00" fill="#000000">UI::DisplayGrid &gt;</text>
</g>
<!-- Node12 -->
<g id="node11" class="node">
<title>Node12</title>
<polygon fill="#ffffff" stroke="#bfbfbf" points="531,-474 531,-542 662,-542 662,-474 531,-474"/>
<text text-anchor="start" x="539" y="-530" font-family="Helvetica,sans-Serif" font-size="10.00" fill="#000000">std::unique_ptr&lt; Asteroids</text>
<text text-anchor="middle" x="596.5" y="-519" font-family="Helvetica,sans-Serif" font-size="10.00" fill="#000000">::UI::ClientTextUI::Input &gt;</text>
<polyline fill="none" stroke="#bfbfbf" points="531,-512 662,-512 "/>
<text text-anchor="middle" x="596.5" y="-500" font-family="Helvetica,sans-Serif" font-size="10.00" fill="#000000"> </text>
<polyline fill="none" stroke="#bfbfbf" points="531,-493 662,-493 "/>
<text text-anchor="start" x="539" y="-481" font-family="Helvetica,sans-Serif" font-size="10.00" fill="#000000">+ operator&#45;&gt;()</text>
</g>
<!-- Node11&#45;&gt;Node12 -->
<g id="edge13" class="edge">
<title>Node11&#45;&gt;Node12</title>
<path fill="none" stroke="#ffa500" d="M617.7453,-728.1017C612.87,-677.5931 604.4374,-590.2314 599.7974,-542.1615"/>
<polygon fill="#ffa500" stroke="#ffa500" points="614.2844,-728.6754 618.729,-738.2929 621.252,-728.0028 614.2844,-728.6754"/>
<text text-anchor="start" x="604.5" y="-580" font-family="Helvetica,sans-Serif" font-size="10.00" fill="#000000"> &lt; Asteroids::UI::ClientText</text>
<text text-anchor="middle" x="665" y="-569" font-family="Helvetica,sans-Serif" font-size="10.00" fill="#000000">UI::Input &gt;</text>
</g>
<!-- Node14 -->
<g id="node13" class="node">
<title>Node14</title>
<polygon fill="#ffffff" stroke="#bfbfbf" points="145,-468.5 145,-547.5 334,-547.5 334,-468.5 145,-468.5"/>
<text text-anchor="start" x="153" y="-535.5" font-family="Helvetica,sans-Serif" font-size="10.00" fill="#000000">std::unique_ptr&lt; Asteroids</text>
<text text-anchor="start" x="153" y="-524.5" font-family="Helvetica,sans-Serif" font-size="10.00" fill="#000000">::TechnicalServices::TechnicalServices</text>
<text text-anchor="middle" x="239.5" y="-513.5" font-family="Helvetica,sans-Serif" font-size="10.00" fill="#000000">FactoryInterface &gt;</text>
<polyline fill="none" stroke="#bfbfbf" points="145,-506.5 334,-506.5 "/>
<text text-anchor="middle" x="239.5" y="-494.5" font-family="Helvetica,sans-Serif" font-size="10.00" fill="#000000"> </text>
<polyline fill="none" stroke="#bfbfbf" points="145,-487.5 334,-487.5 "/>
<text text-anchor="start" x="153" y="-475.5" font-family="Helvetica,sans-Serif" font-size="10.00" fill="#000000">+ operator&#45;&gt;()</text>
</g>
<!-- Node11&#45;&gt;Node14 -->
<g id="edge16" class="edge">
<title>Node11&#45;&gt;Node14</title>
<path fill="none" stroke="#ffa500" d="M605.6393,-728.9876C587.3962,-690.6033 553.5136,-633.2131 504.5,-606 455.4154,-578.7475 293.9404,-625.8773 252.5,-588 241.4906,-577.9372 237.3695,-562.4918 236.3199,-547.8466"/>
<polygon fill="#ffa500" stroke="#ffa500" points="602.5719,-730.6938 609.9401,-738.3069 608.9277,-727.7606 602.5719,-730.6938"/>
<text text-anchor="start" x="252.5" y="-580" font-family="Helvetica,sans-Serif" font-size="10.00" fill="#000000"> &lt; Asteroids::TechnicalServices</text>
<text text-anchor="middle" x="336" y="-569" font-family="Helvetica,sans-Serif" font-size="10.00" fill="#000000">::TechnicalServicesFactoryInterface &gt;</text>
</g>
<!-- Node16 -->
<g id="node15" class="node">
<title>Node16</title>
<polygon fill="#ffffff" stroke="#bfbfbf" points="1092,-474 1092,-542 1293,-542 1293,-474 1092,-474"/>
<text text-anchor="start" x="1100" y="-530" font-family="Helvetica,sans-Serif" font-size="10.00" fill="#000000">std::unique_ptr&lt; Asteroids</text>
<text text-anchor="middle" x="1192.5" y="-519" font-family="Helvetica,sans-Serif" font-size="10.00" fill="#000000">::Domain::Game::GameFactoryInterface &gt;</text>
<polyline fill="none" stroke="#bfbfbf" points="1092,-512 1293,-512 "/>
<text text-anchor="middle" x="1192.5" y="-500" font-family="Helvetica,sans-Serif" font-size="10.00" fill="#000000"> </text>
<polyline fill="none" stroke="#bfbfbf" points="1092,-493 1293,-493 "/>
<text text-anchor="start" x="1100" y="-481" font-family="Helvetica,sans-Serif" font-size="10.00" fill="#000000">+ operator&#45;&gt;()</text>
</g>
<!-- Node11&#45;&gt;Node16 -->
<g id="edge19" class="edge">
<title>Node11&#45;&gt;Node16</title>
<path fill="none" stroke="#ffa500" d="M681.8922,-733.5553C751.1882,-696.6519 869.2386,-638.2279 977.5,-606 1027.504,-591.1145 1046.9768,-611.6129 1093.5,-588 1105.8305,-581.7416 1105.0631,-575.0709 1115.5,-566 1124.7214,-557.9856 1134.9449,-549.8257 1144.8491,-542.2549"/>
<polygon fill="#ffa500" stroke="#ffa500" points="680.0228,-730.5861 672.8586,-738.3915 683.3267,-736.7574 680.0228,-730.5861"/>
<text text-anchor="start" x="1115.5" y="-580" font-family="Helvetica,sans-Serif" font-size="10.00" fill="#000000"> &lt; Asteroids::Domain</text>
<text text-anchor="middle" x="1188" y="-569" font-family="Helvetica,sans-Serif" font-size="10.00" fill="#000000">::Game::GameFactoryInterface &gt;</text>
</g>
<!-- Node18 -->
<g id="node17" class="node">
<title>Node18</title>
<polygon fill="#ffffff" stroke="#bfbfbf" points="879,-474 879,-542 1074,-542 1074,-474 879,-474"/>
<text text-anchor="start" x="887" y="-530" font-family="Helvetica,sans-Serif" font-size="10.00" fill="#000000">std::unique_ptr&lt; Asteroids</text>
<text text-anchor="middle" x="976.5" y="-519" font-family="Helvetica,sans-Serif" font-size="10.00" fill="#000000">::Domain::Store::StoreFactoryInterface &gt;</text>
<polyline fill="none" stroke="#bfbfbf" points="879,-512 1074,-512 "/>
<text text-anchor="middle" x="976.5" y="-500" font-family="Helvetica,sans-Serif" font-size="10.00" fill="#000000"> </text>
<polyline fill="none" stroke="#bfbfbf" points="879,-493 1074,-493 "/>
<text text-anchor="start" x="887" y="-481" font-family="Helvetica,sans-Serif" font-size="10.00" fill="#000000">+ operator&#45;&gt;()</text>
</g>
<!-- Node11&#45;&gt;Node18 -->
<g id="edge22" class="edge">
<title>Node11&#45;&gt;Node18</title>
<path fill="none" stroke="#ffa500" d="M669.9819,-732.3722C720.1008,-696.4898 800.5284,-638.6692 869.5,-588 889.8748,-573.0319 912.2972,-556.3069 931.3298,-542.0346"/>
<polygon fill="#ffa500" stroke="#ffa500" points="667.691,-729.7077 661.596,-738.3738 671.765,-735.4001 667.691,-729.7077"/>
<text text-anchor="start" x="898.5" y="-580" font-family="Helvetica,sans-Serif" font-size="10.00" fill="#000000"> &lt; Asteroids::Domain</text>
<text text-anchor="middle" x="968" y="-569" font-family="Helvetica,sans-Serif" font-size="10.00" fill="#000000">::Store::StoreFactoryInterface &gt;</text>
</g>
<!-- Node20 -->
<g id="node19" class="node">
<title>Node20</title>
<polygon fill="#ffffff" stroke="#bfbfbf" points="680.5,-474 680.5,-542 860.5,-542 860.5,-474 680.5,-474"/>
<text text-anchor="start" x="688.5" y="-530" font-family="Helvetica,sans-Serif" font-size="10.00" fill="#000000">std::unique_ptr&lt; Asteroids</text>
<text text-anchor="middle" x="770.5" y="-519" font-family="Helvetica,sans-Serif" font-size="10.00" fill="#000000">::Domain::Net::NetFactoryInterface &gt;</text>
<polyline fill="none" stroke="#bfbfbf" points="680.5,-512 860.5,-512 "/>
<text text-anchor="middle" x="770.5" y="-500" font-family="Helvetica,sans-Serif" font-size="10.00" fill="#000000"> </text>
<polyline fill="none" stroke="#bfbfbf" points="680.5,-493 860.5,-493 "/>
<text text-anchor="start" x="688.5" y="-481" font-family="Helvetica,sans-Serif" font-size="10.00" fill="#000000">+ operator&#45;&gt;()</text>
</g>
<!-- Node11&#45;&gt;Node20 -->
<g id="edge25" class="edge">
<title>Node11&#45;&gt;Node20</title>
<path fill="none" stroke="#ffa500" d="M645.1418,-729.5365C667.5553,-693.6255 701.8197,-637.691 729.5,-588 737.7784,-573.1389 746.44,-556.4298 753.6579,-542.1405"/>
<polygon fill="#ffa500" stroke="#ffa500" points="642.0465,-727.8851 639.71,-738.2191 647.9809,-731.5977 642.0465,-727.8851"/>
<text text-anchor="start" x="741.5" y="-580" font-family="Helvetica,sans-Serif" font-size="10.00" fill="#000000"> &lt; Asteroids::Domain</text>
<text text-anchor="middle" x="803.5" y="-569" font-family="Helvetica,sans-Serif" font-size="10.00" fill="#000000">::Net::NetFactoryInterface &gt;</text>
</g>
<!-- Node12&#45;&gt;Node2 -->
<g id="edge11" class="edge">
<title>Node12&#45;&gt;Node2</title>
<path fill="none" stroke="#404040" d="M596.5,-473.831C596.5,-459.5372 596.5,-441.6529 596.5,-421.9386"/>
<polygon fill="none" stroke="#404040" points="596.5001,-421.7897 592.5,-415.7898 596.5,-409.7897 600.5,-415.7897 596.5001,-421.7897"/>
<text text-anchor="middle" x="613" y="-436.5" font-family="Helvetica,sans-Serif" font-size="10.00" fill="#000000"> &#45;_input</text>
</g>
<!-- Node13 -->
<g id="node12" class="node">
<title>Node13</title>
<g id="a_node12"><a xlink:href="$classAsteroids_1_1UI_1_1ClientTextUI_1_1Input.html" xlink:title="Thank you very much: https://stackoverflow.com/questions/448944/c&#45;non&#45;blocking&#45;keyboard&#45;input. ">
<polygon fill="#ffffff" stroke="#000000" points="371,-672.5 371,-861.5 496,-861.5 496,-672.5 371,-672.5"/>
<text text-anchor="start" x="379" y="-849.5" font-family="Helvetica,sans-Serif" font-size="10.00" fill="#000000">Asteroids::UI::ClientText</text>
<text text-anchor="middle" x="433.5" y="-838.5" font-family="Helvetica,sans-Serif" font-size="10.00" fill="#000000">UI::Input</text>
<polyline fill="none" stroke="#000000" points="371,-831.5 496,-831.5 "/>
<text text-anchor="start" x="379" y="-819.5" font-family="Helvetica,sans-Serif" font-size="10.00" fill="#000000">+ KEY_DOWN</text>
<text text-anchor="start" x="379" y="-808.5" font-family="Helvetica,sans-Serif" font-size="10.00" fill="#000000">+ KEY_FIRE</text>
<text text-anchor="start" x="379" y="-797.5" font-family="Helvetica,sans-Serif" font-size="10.00" fill="#000000">+ KEY_LEFT</text>
<text text-anchor="start" x="379" y="-786.5" font-family="Helvetica,sans-Serif" font-size="10.00" fill="#000000">+ KEY_RIGHT</text>
<text text-anchor="start" x="379" y="-775.5" font-family="Helvetica,sans-Serif" font-size="10.00" fill="#000000">+ KEY_UP</text>
<text text-anchor="start" x="379" y="-764.5" font-family="Helvetica,sans-Serif" font-size="10.00" fill="#000000">&#45; _is_enabled</text>
<polyline fill="none" stroke="#000000" points="371,-757.5 496,-757.5 "/>
<text text-anchor="start" x="379" y="-745.5" font-family="Helvetica,sans-Serif" font-size="10.00" fill="#000000">+ Input()</text>
<text text-anchor="start" x="379" y="-734.5" font-family="Helvetica,sans-Serif" font-size="10.00" fill="#000000">+ ~Input()</text>
<text text-anchor="start" x="379" y="-723.5" font-family="Helvetica,sans-Serif" font-size="10.00" fill="#000000">+ disable()</text>
<text text-anchor="start" x="379" y="-712.5" font-family="Helvetica,sans-Serif" font-size="10.00" fill="#000000">+ enable()</text>
<text text-anchor="start" x="379" y="-701.5" font-family="Helvetica,sans-Serif" font-size="10.00" fill="#000000">+ getchar()</text>
<text text-anchor="start" x="379" y="-690.5" font-family="Helvetica,sans-Serif" font-size="10.00" fill="#000000">+ kbhit()</text>
<text text-anchor="start" x="379" y="-679.5" font-family="Helvetica,sans-Serif" font-size="10.00" fill="#000000">&#45; init()</text>
</a>
</g>
</g>
<!-- Node13&#45;&gt;Node12 -->
<g id="edge12" class="edge">
<title>Node13&#45;&gt;Node12</title>
<path fill="none" stroke="#404040" d="M410.1824,-672.3807C406.7226,-635.4961 410.6303,-595.1654 434.5,-566 459.5083,-535.4435 484.3677,-561.4277 521.5,-548 522.5625,-547.6158 523.6285,-547.2188 524.6969,-546.8101"/>
<polygon fill="none" stroke="#404040" points="525.1015,-546.6419 529.1058,-540.6448 536.1817,-542.0345 532.1774,-548.0316 525.1015,-546.6419"/>
<text text-anchor="middle" x="445" y="-574.5" font-family="Helvetica,sans-Serif" font-size="10.00" fill="#000000"> +ptr</text>
</g>
<!-- Node14&#45;&gt;Node2 -->
<g id="edge14" class="edge">
<title>Node14&#45;&gt;Node2</title>
<path fill="none" stroke="#404040" d="M286.1715,-468.388C346.3144,-417.3424 451.5704,-328.0075 522.6314,-267.6952"/>
<polygon fill="none" stroke="#404040" points="522.8399,-267.5182 524.8261,-260.586 531.9889,-259.7531 530.0028,-266.6853 522.8399,-267.5182"/>
<text text-anchor="start" x="326.5" y="-442" font-family="Helvetica,sans-Serif" font-size="10.00" fill="#000000"> &#45;_technical_services</text>
<text text-anchor="middle" x="373" y="-431" font-family="Helvetica,sans-Serif" font-size="10.00" fill="#000000">_factory</text>
</g>
<!-- Node15 -->
<g id="node14" class="node">
<title>Node15</title>
<g id="a_node14"><a xlink:href="$classAsteroids_1_1TechnicalServices_1_1TechnicalServicesFactoryInterface.html" xlink:title="Creates objects that belong to the TechnicalServices package. ">
<polygon fill="#ffffff" stroke="#000000" points="33.5,-722 33.5,-812 207.5,-812 207.5,-722 33.5,-722"/>
<text text-anchor="start" x="41.5" y="-800" font-family="Helvetica,sans-Serif" font-size="10.00" fill="#000000">Asteroids::TechnicalServices</text>
<text text-anchor="middle" x="120.5" y="-789" font-family="Helvetica,sans-Serif" font-size="10.00" fill="#000000">::TechnicalServicesFactoryInterface</text>
<polyline fill="none" stroke="#000000" points="33.5,-782 207.5,-782 "/>
<text text-anchor="middle" x="120.5" y="-770" font-family="Helvetica,sans-Serif" font-size="10.00" fill="#000000"> </text>
<polyline fill="none" stroke="#000000" points="33.5,-763 207.5,-763 "/>
<text text-anchor="start" x="41.5" y="-751" font-family="Helvetica,sans-Serif" font-size="10.00" fill="#000000">+ createCreditCardProcessor()</text>
<text text-anchor="start" x="41.5" y="-740" font-family="Helvetica,sans-Serif" font-size="10.00" fill="#000000">+ createDatabaser()</text>
<text text-anchor="start" x="41.5" y="-729" font-family="Helvetica,sans-Serif" font-size="10.00" fill="#000000">+ createSocialMedia()</text>
</a>
</g>
</g>
<!-- Node15&#45;&gt;Node14 -->
<g id="edge15" class="edge">
<title>Node15&#45;&gt;Node14</title>
<path fill="none" stroke="#404040" d="M119.0188,-721.9297C119.6791,-678.6916 126.3184,-613.1858 156.5,-566 158.6313,-562.668 161.0291,-559.4736 163.6301,-556.4184"/>
<polygon fill="none" stroke="#404040" points="163.6933,-556.3522 164.943,-549.2502 171.9794,-547.6722 170.7297,-554.7742 163.6933,-556.3522"/>
<text text-anchor="middle" x="167" y="-574.5" font-family="Helvetica,sans-Serif" font-size="10.00" fill="#000000"> +ptr</text>
</g>
<!-- Node16&#45;&gt;Node2 -->
<g id="edge17" class="edge">
<title>Node16&#45;&gt;Node2</title>
<path fill="none" stroke="#404040" d="M1125.5782,-473.9777C1013.7802,-417.1408 789.7458,-303.2441 672.2996,-243.5357"/>
<polygon fill="none" stroke="#404040" points="671.9709,-243.3686 664.8097,-244.2152 661.2739,-237.9304 668.4352,-237.0838 671.9709,-243.3686"/>
<text text-anchor="middle" x="1099" y="-436.5" font-family="Helvetica,sans-Serif" font-size="10.00" fill="#000000"> &#45;_game_factory</text>
</g>
<!-- Node17 -->
<g id="node16" class="node">
<title>Node17</title>
<g id="a_node16"><a xlink:href="$classAsteroids_1_1Domain_1_1Game_1_1GameFactoryInterface.html" xlink:title="Create things inside the Game package. ">
<polygon fill="#ffffff" stroke="#000000" points="1383.5,-722 1383.5,-812 1529.5,-812 1529.5,-722 1383.5,-722"/>
<text text-anchor="start" x="1391.5" y="-800" font-family="Helvetica,sans-Serif" font-size="10.00" fill="#000000">Asteroids::Domain::</text>
<text text-anchor="middle" x="1456.5" y="-789" font-family="Helvetica,sans-Serif" font-size="10.00" fill="#000000">Game::GameFactoryInterface</text>
<polyline fill="none" stroke="#000000" points="1383.5,-782 1529.5,-782 "/>
<text text-anchor="middle" x="1456.5" y="-770" font-family="Helvetica,sans-Serif" font-size="10.00" fill="#000000"> </text>
<polyline fill="none" stroke="#000000" points="1383.5,-763 1529.5,-763 "/>
<text text-anchor="start" x="1391.5" y="-751" font-family="Helvetica,sans-Serif" font-size="10.00" fill="#000000">+ createGame()</text>
<text text-anchor="start" x="1391.5" y="-740" font-family="Helvetica,sans-Serif" font-size="10.00" fill="#000000">+ createGameHistory()</text>
<text text-anchor="start" x="1391.5" y="-729" font-family="Helvetica,sans-Serif" font-size="10.00" fill="#000000">+ createRandomer()</text>
</a>
</g>
</g>
<!-- Node17&#45;&gt;Node16 -->
<g id="edge18" class="edge">
<title>Node17&#45;&gt;Node16</title>
<path fill="none" stroke="#404040" d="M1441.0209,-721.7774C1427.5001,-687.1551 1405.2101,-639.7629 1374.5,-606 1352.553,-581.8713 1323.2489,-562.5228 1294.5782,-547.6016"/>
<polygon fill="none" stroke="#404040" points="1294.3579,-547.4909 1287.2004,-548.3684 1283.6375,-542.099 1290.795,-541.2215 1294.3579,-547.4909"/>
<text text-anchor="middle" x="1364" y="-574.5" font-family="Helvetica,sans-Serif" font-size="10.00" fill="#000000"> +ptr</text>
</g>
<!-- Node18&#45;&gt;Node2 -->
<g id="edge20" class="edge">
<title>Node18&#45;&gt;Node2</title>
<path fill="none" stroke="#404040" d="M933.6478,-473.831C869.895,-422.9965 749.1907,-326.7508 670.841,-264.2772"/>
<polygon fill="none" stroke="#404040" points="670.4107,-263.9341 663.2257,-263.3209 661.0282,-256.4528 668.2132,-257.0659 670.4107,-263.9341"/>
<text text-anchor="middle" x="928" y="-436.5" font-family="Helvetica,sans-Serif" font-size="10.00" fill="#000000"> &#45;_store_factory</text>
</g>
<!-- Node19 -->
<g id="node18" class="node">
<title>Node19</title>
<g id="a_node18"><a xlink:href="$classAsteroids_1_1Domain_1_1Store_1_1StoreFactoryInterface.html" xlink:title="Creates things inside the Store package. ">
<polygon fill="#ffffff" stroke="#000000" points="1208,-716.5 1208,-817.5 1365,-817.5 1365,-716.5 1208,-716.5"/>
<text text-anchor="start" x="1216" y="-805.5" font-family="Helvetica,sans-Serif" font-size="10.00" fill="#000000">Asteroids::Domain::</text>
<text text-anchor="middle" x="1286.5" y="-794.5" font-family="Helvetica,sans-Serif" font-size="10.00" fill="#000000">Store::StoreFactoryInterface</text>
<polyline fill="none" stroke="#000000" points="1208,-787.5 1365,-787.5 "/>
<text text-anchor="middle" x="1286.5" y="-775.5" font-family="Helvetica,sans-Serif" font-size="10.00" fill="#000000"> </text>
<polyline fill="none" stroke="#000000" points="1208,-768.5 1365,-768.5 "/>
<text text-anchor="start" x="1216" y="-756.5" font-family="Helvetica,sans-Serif" font-size="10.00" fill="#000000">+ createPaymentHelper()</text>
<text text-anchor="start" x="1216" y="-745.5" font-family="Helvetica,sans-Serif" font-size="10.00" fill="#000000">+ createPaymentResultDetails()</text>
<text text-anchor="start" x="1216" y="-734.5" font-family="Helvetica,sans-Serif" font-size="10.00" fill="#000000">+ createPowerUpAddedInfo()</text>
<text text-anchor="start" x="1216" y="-723.5" font-family="Helvetica,sans-Serif" font-size="10.00" fill="#000000">+ createStore()</text>
</a>
</g>
</g>
<!-- Node19&#45;&gt;Node18 -->
<g id="edge21" class="edge">
<title>Node19&#45;&gt;Node18</title>
<path fill="none" stroke="#404040" d="M1296.9248,-716.1472C1303.0729,-670.3171 1303.2894,-604.4074 1264.5,-566 1235.7772,-537.5601 1122.8706,-557.1533 1083.5,-548 1080.1497,-547.2211 1076.7623,-546.3641 1073.3581,-545.4433"/>
<polygon fill="none" stroke="#404040" points="1073.2769,-545.4198 1066.4019,-547.5959 1061.7491,-542.0867 1068.624,-539.9106 1073.2769,-545.4198"/>
<text text-anchor="middle" x="1291" y="-574.5" font-family="Helvetica,sans-Serif" font-size="10.00" fill="#000000"> +ptr</text>
</g>
<!-- Node20&#45;&gt;Node2 -->
<g id="edge23" class="edge">
<title>Node20&#45;&gt;Node2</title>
<path fill="none" stroke="#404040" d="M750.8782,-473.831C730.5058,-438.3549 697.4327,-380.762 667.1141,-327.966"/>
<polygon fill="none" stroke="#404040" points="667.0676,-327.8849 660.6109,-324.6737 661.0917,-317.4787 667.5484,-320.6898 667.0676,-327.8849"/>
<text text-anchor="middle" x="764" y="-436.5" font-family="Helvetica,sans-Serif" font-size="10.00" fill="#000000"> &#45;_net_factory</text>
</g>
<!-- Node21 -->
<g id="node20" class="node">
<title>Node21</title>
<g id="a_node20"><a xlink:href="$classAsteroids_1_1Domain_1_1Net_1_1NetFactoryInterface.html" xlink:title="Factory to generate things inside the Net package. ">
<polygon fill="#ffffff" stroke="#000000" points="986.5,-727.5 986.5,-806.5 1162.5,-806.5 1162.5,-727.5 986.5,-727.5"/>
<text text-anchor="start" x="994.5" y="-794.5" font-family="Helvetica,sans-Serif" font-size="10.00" fill="#000000">Asteroids::Domain::</text>
<text text-anchor="middle" x="1074.5" y="-783.5" font-family="Helvetica,sans-Serif" font-size="10.00" fill="#000000">Net::NetFactoryInterface</text>
<polyline fill="none" stroke="#000000" points="986.5,-776.5 1162.5,-776.5 "/>
<text text-anchor="middle" x="1074.5" y="-764.5" font-family="Helvetica,sans-Serif" font-size="10.00" fill="#000000"> </text>
<polyline fill="none" stroke="#000000" points="986.5,-757.5 1162.5,-757.5 "/>
<text text-anchor="start" x="994.5" y="-745.5" font-family="Helvetica,sans-Serif" font-size="10.00" fill="#000000">+ createClientServerCommunicator()</text>
<text text-anchor="start" x="994.5" y="-734.5" font-family="Helvetica,sans-Serif" font-size="10.00" fill="#000000">+ createNetworkAuthenticator()</text>
</a>
</g>
</g>
<!-- Node21&#45;&gt;Node20 -->
<g id="edge24" class="edge">
<title>Node21&#45;&gt;Node20</title>
<path fill="none" stroke="#404040" d="M1083.2817,-727.1887C1090.7718,-681.5218 1094.5435,-607.607 1052.5,-566 1023.6123,-537.4123 909.9813,-557.6426 870.5,-548 867.5199,-547.2722 864.511,-546.4733 861.4893,-545.6156"/>
<polygon fill="none" stroke="#404040" points="861.2795,-545.5515 854.3718,-547.6211 849.8046,-542.0407 856.7123,-539.9711 861.2795,-545.5515"/>
<text text-anchor="middle" x="1079" y="-574.5" font-family="Helvetica,sans-Serif" font-size="10.00" fill="#000000"> +ptr</text>
</g>
</g>
</svg>
