<?xml version="1.0" encoding="UTF-8" standalone="no"?>
<!DOCTYPE svg PUBLIC "-//W3C//DTD SVG 1.1//EN"
 "http://www.w3.org/Graphics/SVG/1.1/DTD/svg11.dtd">
<!-- Generated by graphviz version 2.40.1 (20161225.0304)
 -->
<!-- Title: Asteroids::Domain::Factory::Factory::Factory Pages: 1 -->
<svg width="288pt" height="39pt"
 viewBox="0.00 0.00 288.00 39.00" xmlns="http://www.w3.org/2000/svg" xmlns:xlink="http://www.w3.org/1999/xlink">
<g id="graph0" class="graph" transform="scale(1 1) rotate(0) translate(4 35)">
<title>Asteroids::Domain::Factory::Factory::Factory</title>
<polygon fill="#ffffff" stroke="transparent" points="-4,4 -4,-35 284,-35 284,4 -4,4"/>
<!-- Node0 -->
<g id="node1" class="node">
<title>Node0</title>
<polygon fill="#bfbfbf" stroke="#000000" points="0,-.5 0,-30.5 128,-30.5 128,-.5 0,-.5"/>
<text text-anchor="start" x="8" y="-18.5" font-family="Helvetica,sans-Serif" font-size="10.00" fill="#000000">Asteroids::Domain::</text>
<text text-anchor="middle" x="64" y="-7.5" font-family="Helvetica,sans-Serif" font-size="10.00" fill="#000000">Factory::Factory::Factory</text>
</g>
<!-- Node1 -->
<g id="node2" class="node">
<title>Node1</title>
<g id="a_node2"><a xlink:href="$classAsteroids_1_1Domain_1_1Factory_1_1Factory.html#adf3c63ebcd2022de789631e861f2aa15" xlink:title="Asteroids::Domain::\lFactory::Factory::reset">
<polygon fill="#ffffff" stroke="#000000" points="164,-.5 164,-30.5 280,-30.5 280,-.5 164,-.5"/>
<text text-anchor="start" x="172" y="-18.5" font-family="Helvetica,sans-Serif" font-size="10.00" fill="#000000">Asteroids::Domain::</text>
<text text-anchor="middle" x="222" y="-7.5" font-family="Helvetica,sans-Serif" font-size="10.00" fill="#000000">Factory::Factory::reset</text>
</a>
</g>
</g>
<!-- Node0&#45;&gt;Node1 -->
<g id="edge1" class="edge">
<title>Node0&#45;&gt;Node1</title>
<path fill="none" stroke="#191970" d="M128.2646,-15.5C136.6467,-15.5 145.2582,-15.5 153.7035,-15.5"/>
<polygon fill="#191970" stroke="#191970" points="153.8958,-19.0001 163.8958,-15.5 153.8957,-12.0001 153.8958,-19.0001"/>
</g>
</g>
</svg>
