<?xml version="1.0" encoding="UTF-8" standalone="no"?>
<!DOCTYPE svg PUBLIC "-//W3C//DTD SVG 1.1//EN"
 "http://www.w3.org/Graphics/SVG/1.1/DTD/svg11.dtd">
<!-- Generated by graphviz version 2.40.1 (20161225.0304)
 -->
<!-- Title: Asteroids::UI::ServerTextUI::ServerTextUI::do_review_flagged_users Pages: 1 -->
<svg width="328pt" height="50pt"
 viewBox="0.00 0.00 328.00 50.00" xmlns="http://www.w3.org/2000/svg" xmlns:xlink="http://www.w3.org/1999/xlink">
<g id="graph0" class="graph" transform="scale(1 1) rotate(0) translate(4 46)">
<title>Asteroids::UI::ServerTextUI::ServerTextUI::do_review_flagged_users</title>
<polygon fill="#ffffff" stroke="transparent" points="-4,4 -4,-46 324,-46 324,4 -4,4"/>
<!-- Node18 -->
<g id="node1" class="node">
<title>Node18</title>
<polygon fill="#bfbfbf" stroke="#000000" points="0,-.5 0,-41.5 142,-41.5 142,-.5 0,-.5"/>
<text text-anchor="start" x="8" y="-29.5" font-family="Helvetica,sans-Serif" font-size="10.00" fill="#000000">Asteroids::UI::ServerText</text>
<text text-anchor="start" x="8" y="-18.5" font-family="Helvetica,sans-Serif" font-size="10.00" fill="#000000">UI::ServerTextUI::do_review</text>
<text text-anchor="middle" x="71" y="-7.5" font-family="Helvetica,sans-Serif" font-size="10.00" fill="#000000">_flagged_users</text>
</g>
<!-- Node19 -->
<g id="node2" class="node">
<title>Node19</title>
<g id="a_node2"><a xlink:href="$classAsteroids_1_1UI_1_1ServerTextUI_1_1ServerTextUI.html#af85d5a35efcb8c75fe7b5419da0d6f93" xlink:title="Asteroids::UI::ServerText\lUI::ServerTextUI::do_review\l_flagged_user">
<polygon fill="#ffffff" stroke="#000000" points="178,-.5 178,-41.5 320,-41.5 320,-.5 178,-.5"/>
<text text-anchor="start" x="186" y="-29.5" font-family="Helvetica,sans-Serif" font-size="10.00" fill="#000000">Asteroids::UI::ServerText</text>
<text text-anchor="start" x="186" y="-18.5" font-family="Helvetica,sans-Serif" font-size="10.00" fill="#000000">UI::ServerTextUI::do_review</text>
<text text-anchor="middle" x="249" y="-7.5" font-family="Helvetica,sans-Serif" font-size="10.00" fill="#000000">_flagged_user</text>
</a>
</g>
</g>
<!-- Node18&#45;&gt;Node19 -->
<g id="edge1" class="edge">
<title>Node18&#45;&gt;Node19</title>
<path fill="none" stroke="#191970" d="M142.1177,-21C150.609,-21 159.3268,-21 167.9445,-21"/>
<polygon fill="#191970" stroke="#191970" points="167.9953,-24.5001 177.9953,-21 167.9952,-17.5001 167.9953,-24.5001"/>
</g>
</g>
</svg>
