<?xml version="1.0" encoding="UTF-8" standalone="no"?>
<!DOCTYPE svg PUBLIC "-//W3C//DTD SVG 1.1//EN"
 "http://www.w3.org/Graphics/SVG/1.1/DTD/svg11.dtd">
<!-- Generated by graphviz version 2.40.1 (20161225.0304)
 -->
<!-- Title: Asteroids::Domain::Store::PaymentHelper::PaymentHelper Pages: 1 -->
<svg width="289pt" height="50pt"
 viewBox="0.00 0.00 289.00 50.00" xmlns="http://www.w3.org/2000/svg" xmlns:xlink="http://www.w3.org/1999/xlink">
<g id="graph0" class="graph" transform="scale(1 1) rotate(0) translate(4 46)">
<title>Asteroids::Domain::Store::PaymentHelper::PaymentHelper</title>
<polygon fill="#ffffff" stroke="transparent" points="-4,4 -4,-46 285,-46 285,4 -4,4"/>
<!-- Node0 -->
<g id="node1" class="node">
<title>Node0</title>
<polygon fill="#bfbfbf" stroke="#000000" points="0,-.5 0,-41.5 113,-41.5 113,-.5 0,-.5"/>
<text text-anchor="start" x="8" y="-29.5" font-family="Helvetica,sans-Serif" font-size="10.00" fill="#000000">Asteroids::Domain::</text>
<text text-anchor="start" x="8" y="-18.5" font-family="Helvetica,sans-Serif" font-size="10.00" fill="#000000">Store::PaymentHelper</text>
<text text-anchor="middle" x="56.5" y="-7.5" font-family="Helvetica,sans-Serif" font-size="10.00" fill="#000000">::PaymentHelper</text>
</g>
<!-- Node1 -->
<g id="node2" class="node">
<title>Node1</title>
<g id="a_node2"><a xlink:href="$classAsteroids_1_1Domain_1_1Store_1_1PaymentHelper.html#afc5b560df53ca599a801c77e48f511f2" xlink:title="Asteroids::Domain::\lStore::PaymentHelper::init">
<polygon fill="#ffffff" stroke="#000000" points="149,-6 149,-36 281,-36 281,-6 149,-6"/>
<text text-anchor="start" x="157" y="-24" font-family="Helvetica,sans-Serif" font-size="10.00" fill="#000000">Asteroids::Domain::</text>
<text text-anchor="middle" x="215" y="-13" font-family="Helvetica,sans-Serif" font-size="10.00" fill="#000000">Store::PaymentHelper::init</text>
</a>
</g>
</g>
<!-- Node0&#45;&gt;Node1 -->
<g id="edge1" class="edge">
<title>Node0&#45;&gt;Node1</title>
<path fill="none" stroke="#191970" d="M113.2744,-21C121.5743,-21 130.2327,-21 138.8424,-21"/>
<polygon fill="#191970" stroke="#191970" points="138.9026,-24.5001 148.9026,-21 138.9025,-17.5001 138.9026,-24.5001"/>
</g>
</g>
</svg>
