<?xml version="1.0" encoding="UTF-8" standalone="no"?>
<!DOCTYPE svg PUBLIC "-//W3C//DTD SVG 1.1//EN"
 "http://www.w3.org/Graphics/SVG/1.1/DTD/svg11.dtd">
<!-- Generated by graphviz version 2.40.1 (20161225.0304)
 -->
<!-- Title: Asteroids::Domain::Store::PAYMENT_RESULT_DETAILS Pages: 1 -->
<svg width="244pt" height="398pt"
 viewBox="0.00 0.00 243.50 398.00" xmlns="http://www.w3.org/2000/svg" xmlns:xlink="http://www.w3.org/1999/xlink">
<g id="graph0" class="graph" transform="scale(1 1) rotate(0) translate(4 394)">
<title>Asteroids::Domain::Store::PAYMENT_RESULT_DETAILS</title>
<polygon fill="#ffffff" stroke="transparent" points="-4,4 -4,-394 239.5,-394 239.5,4 -4,4"/>
<!-- Node2 -->
<g id="node1" class="node">
<title>Node2</title>
<polygon fill="#bfbfbf" stroke="#000000" points="20.5,-.5 20.5,-123.5 193.5,-123.5 193.5,-.5 20.5,-.5"/>
<text text-anchor="start" x="28.5" y="-111.5" font-family="Helvetica,sans-Serif" font-size="10.00" fill="#000000">Asteroids::Domain::</text>
<text text-anchor="start" x="28.5" y="-100.5" font-family="Helvetica,sans-Serif" font-size="10.00" fill="#000000">Store::PAYMENT_RESULT</text>
<text text-anchor="middle" x="107" y="-89.5" font-family="Helvetica,sans-Serif" font-size="10.00" fill="#000000">_DETAILS</text>
<polyline fill="none" stroke="#000000" points="20.5,-82.5 193.5,-82.5 "/>
<text text-anchor="start" x="28.5" y="-70.5" font-family="Helvetica,sans-Serif" font-size="10.00" fill="#000000">&#45; _was_successful</text>
<polyline fill="none" stroke="#000000" points="20.5,-63.5 193.5,-63.5 "/>
<text text-anchor="start" x="28.5" y="-51.5" font-family="Helvetica,sans-Serif" font-size="10.00" fill="#000000">+ PAYMENT_RESULT_DETAILS()</text>
<text text-anchor="start" x="28.5" y="-40.5" font-family="Helvetica,sans-Serif" font-size="10.00" fill="#000000">+ get_message()</text>
<text text-anchor="start" x="28.5" y="-29.5" font-family="Helvetica,sans-Serif" font-size="10.00" fill="#000000">+ set_message()</text>
<text text-anchor="start" x="28.5" y="-18.5" font-family="Helvetica,sans-Serif" font-size="10.00" fill="#000000">+ set_was_successful()</text>
<text text-anchor="start" x="28.5" y="-7.5" font-family="Helvetica,sans-Serif" font-size="10.00" fill="#000000">+ was_successful()</text>
</g>
<!-- Node3 -->
<g id="node2" class="node">
<title>Node3</title>
<g id="a_node2"><a xlink:href="$classAsteroids_1_1Domain_1_1Store_1_1PAYMENT__RESULT__DETAILS__INTERFACE.html" xlink:title="Results of an attempt to authorize payment. ">
<polygon fill="#ffffff" stroke="#000000" points="0,-171.5 0,-283.5 140,-283.5 140,-171.5 0,-171.5"/>
<text text-anchor="start" x="8" y="-271.5" font-family="Helvetica,sans-Serif" font-size="10.00" fill="#000000">Asteroids::Domain::</text>
<text text-anchor="start" x="8" y="-260.5" font-family="Helvetica,sans-Serif" font-size="10.00" fill="#000000">Store::PAYMENT_RESULT</text>
<text text-anchor="middle" x="70" y="-249.5" font-family="Helvetica,sans-Serif" font-size="10.00" fill="#000000">_DETAILS_INTERFACE</text>
<polyline fill="none" stroke="#000000" points="0,-242.5 140,-242.5 "/>
<text text-anchor="middle" x="70" y="-230.5" font-family="Helvetica,sans-Serif" font-size="10.00" fill="#000000"> </text>
<polyline fill="none" stroke="#000000" points="0,-223.5 140,-223.5 "/>
<text text-anchor="start" x="8" y="-211.5" font-family="Helvetica,sans-Serif" font-size="10.00" fill="#000000">+ get_message()</text>
<text text-anchor="start" x="8" y="-200.5" font-family="Helvetica,sans-Serif" font-size="10.00" fill="#000000">+ set_message()</text>
<text text-anchor="start" x="8" y="-189.5" font-family="Helvetica,sans-Serif" font-size="10.00" fill="#000000">+ set_was_successful()</text>
<text text-anchor="start" x="8" y="-178.5" font-family="Helvetica,sans-Serif" font-size="10.00" fill="#000000">+ was_successful()</text>
</a>
</g>
</g>
<!-- Node3&#45;&gt;Node2 -->
<g id="edge1" class="edge">
<title>Node3&#45;&gt;Node2</title>
<path fill="none" stroke="#191970" d="M84.7383,-161.5761C87.5346,-149.0683 90.4506,-136.025 93.216,-123.6555"/>
<polygon fill="none" stroke="#191970" points="81.2927,-160.9465 82.5265,-171.4692 88.1241,-162.4738 81.2927,-160.9465"/>
</g>
<!-- Node4 -->
<g id="node3" class="node">
<title>Node4</title>
<g id="a_node3"><a xlink:title="STL class. ">
<polygon fill="#ffffff" stroke="#bfbfbf" points="158,-199 158,-256 218,-256 218,-199 158,-199"/>
<text text-anchor="middle" x="188" y="-244" font-family="Helvetica,sans-Serif" font-size="10.00" fill="#000000">std::string</text>
<polyline fill="none" stroke="#bfbfbf" points="158,-237 218,-237 "/>
<text text-anchor="middle" x="188" y="-225" font-family="Helvetica,sans-Serif" font-size="10.00" fill="#000000"> </text>
<polyline fill="none" stroke="#bfbfbf" points="158,-218 218,-218 "/>
<text text-anchor="middle" x="188" y="-206" font-family="Helvetica,sans-Serif" font-size="10.00" fill="#000000"> </text>
</a>
</g>
</g>
<!-- Node4&#45;&gt;Node2 -->
<g id="edge2" class="edge">
<title>Node4&#45;&gt;Node2</title>
<path fill="none" stroke="#404040" d="M173.8909,-198.6721C165.2045,-180.9241 153.6494,-157.3145 142.59,-134.7178"/>
<polygon fill="none" stroke="#404040" points="142.4906,-134.5147 136.2602,-130.884 137.2154,-123.7364 143.4458,-127.3671 142.4906,-134.5147"/>
<text text-anchor="middle" x="175" y="-145" font-family="Helvetica,sans-Serif" font-size="10.00" fill="#000000"> &#45;_message</text>
</g>
<!-- Node5 -->
<g id="node4" class="node">
<title>Node5</title>
<g id="a_node4"><a xlink:title="STL class. ">
<polygon fill="#ffffff" stroke="#bfbfbf" points="140.5,-321.5 140.5,-389.5 235.5,-389.5 235.5,-321.5 140.5,-321.5"/>
<text text-anchor="start" x="148.5" y="-377.5" font-family="Helvetica,sans-Serif" font-size="10.00" fill="#000000">std::basic_string&lt;</text>
<text text-anchor="middle" x="188" y="-366.5" font-family="Helvetica,sans-Serif" font-size="10.00" fill="#000000"> char &gt;</text>
<polyline fill="none" stroke="#bfbfbf" points="140.5,-359.5 235.5,-359.5 "/>
<text text-anchor="middle" x="188" y="-347.5" font-family="Helvetica,sans-Serif" font-size="10.00" fill="#000000"> </text>
<polyline fill="none" stroke="#bfbfbf" points="140.5,-340.5 235.5,-340.5 "/>
<text text-anchor="middle" x="188" y="-328.5" font-family="Helvetica,sans-Serif" font-size="10.00" fill="#000000"> </text>
</a>
</g>
</g>
<!-- Node5&#45;&gt;Node4 -->
<g id="edge3" class="edge">
<title>Node5&#45;&gt;Node4</title>
<path fill="none" stroke="#191970" d="M188,-311.102C188,-292.9277 188,-272.4191 188,-256.2631"/>
<polygon fill="none" stroke="#191970" points="184.5001,-311.1983 188,-321.1983 191.5001,-311.1984 184.5001,-311.1983"/>
</g>
</g>
</svg>
