<?xml version="1.0" encoding="UTF-8" standalone="no"?>
<!DOCTYPE svg PUBLIC "-//W3C//DTD SVG 1.1//EN"
 "http://www.w3.org/Graphics/SVG/1.1/DTD/svg11.dtd">
<!-- Generated by graphviz version 2.40.1 (20161225.0304)
 -->
<!-- Title: Asteroids::TechnicalServices::Financial::CreditCardProcessorInterface Pages: 1 -->
<svg width="334pt" height="226pt"
 viewBox="0.00 0.00 333.50 226.00" xmlns="http://www.w3.org/2000/svg" xmlns:xlink="http://www.w3.org/1999/xlink">
<g id="graph0" class="graph" transform="scale(1 1) rotate(0) translate(4 222)">
<title>Asteroids::TechnicalServices::Financial::CreditCardProcessorInterface</title>
<polygon fill="#ffffff" stroke="transparent" points="-4,4 -4,-222 329.5,-222 329.5,4 -4,4"/>
<!-- Node0 -->
<g id="node1" class="node">
<title>Node0</title>
<polygon fill="#bfbfbf" stroke="#000000" points="87,-127.5 87,-217.5 246,-217.5 246,-127.5 87,-127.5"/>
<text text-anchor="start" x="95" y="-205.5" font-family="Helvetica,sans-Serif" font-size="10.00" fill="#000000">Asteroids::TechnicalServices</text>
<text text-anchor="start" x="95" y="-194.5" font-family="Helvetica,sans-Serif" font-size="10.00" fill="#000000">::Financial::CreditCardProcessor</text>
<text text-anchor="middle" x="166.5" y="-183.5" font-family="Helvetica,sans-Serif" font-size="10.00" fill="#000000">Interface</text>
<polyline fill="none" stroke="#000000" points="87,-176.5 246,-176.5 "/>
<text text-anchor="middle" x="166.5" y="-164.5" font-family="Helvetica,sans-Serif" font-size="10.00" fill="#000000"> </text>
<polyline fill="none" stroke="#000000" points="87,-157.5 246,-157.5 "/>
<text text-anchor="start" x="95" y="-145.5" font-family="Helvetica,sans-Serif" font-size="10.00" fill="#000000">+ authorizePayment()</text>
<text text-anchor="start" x="95" y="-134.5" font-family="Helvetica,sans-Serif" font-size="10.00" fill="#000000">+ get_processor_description()</text>
</g>
<!-- Node1 -->
<g id="node2" class="node">
<title>Node1</title>
<g id="a_node2"><a xlink:href="$classAsteroids_1_1TechnicalServices_1_1Financial_1_1MastercardProcessor.html" xlink:title="{Asteroids::TechnicalServices\l::Financial::MastercardProcessor\n||+ MastercardProcessor()\l+ authorizePayment()\l+ get_processor_description()\l}">
<polygon fill="#ffffff" stroke="#000000" points="0,-.5 0,-90.5 161,-90.5 161,-.5 0,-.5"/>
<text text-anchor="start" x="8" y="-78.5" font-family="Helvetica,sans-Serif" font-size="10.00" fill="#000000">Asteroids::TechnicalServices</text>
<text text-anchor="middle" x="80.5" y="-67.5" font-family="Helvetica,sans-Serif" font-size="10.00" fill="#000000">::Financial::MastercardProcessor</text>
<polyline fill="none" stroke="#000000" points="0,-60.5 161,-60.5 "/>
<text text-anchor="middle" x="80.5" y="-48.5" font-family="Helvetica,sans-Serif" font-size="10.00" fill="#000000"> </text>
<polyline fill="none" stroke="#000000" points="0,-41.5 161,-41.5 "/>
<text text-anchor="start" x="8" y="-29.5" font-family="Helvetica,sans-Serif" font-size="10.00" fill="#000000">+ MastercardProcessor()</text>
<text text-anchor="start" x="8" y="-18.5" font-family="Helvetica,sans-Serif" font-size="10.00" fill="#000000">+ authorizePayment()</text>
<text text-anchor="start" x="8" y="-7.5" font-family="Helvetica,sans-Serif" font-size="10.00" fill="#000000">+ get_processor_description()</text>
</a>
</g>
</g>
<!-- Node0&#45;&gt;Node1 -->
<g id="edge1" class="edge">
<title>Node0&#45;&gt;Node1</title>
<path fill="none" stroke="#191970" d="M130.2146,-118.9157C123.9049,-109.5979 117.3975,-99.9881 111.2539,-90.9156"/>
<polygon fill="none" stroke="#191970" points="127.4323,-121.0493 135.9375,-127.367 133.2284,-117.1243 127.4323,-121.0493"/>
</g>
<!-- Node2 -->
<g id="node3" class="node">
<title>Node2</title>
<g id="a_node3"><a xlink:href="$classAsteroids_1_1TechnicalServices_1_1Financial_1_1VisaProcessor.html" xlink:title="{Asteroids::TechnicalServices\l::Financial::VisaProcessor\n||+ VisaProcessor()\l+ authorizePayment()\l+ get_processor_description()\l}">
<polygon fill="#ffffff" stroke="#000000" points="179.5,-.5 179.5,-90.5 325.5,-90.5 325.5,-.5 179.5,-.5"/>
<text text-anchor="start" x="187.5" y="-78.5" font-family="Helvetica,sans-Serif" font-size="10.00" fill="#000000">Asteroids::TechnicalServices</text>
<text text-anchor="middle" x="252.5" y="-67.5" font-family="Helvetica,sans-Serif" font-size="10.00" fill="#000000">::Financial::VisaProcessor</text>
<polyline fill="none" stroke="#000000" points="179.5,-60.5 325.5,-60.5 "/>
<text text-anchor="middle" x="252.5" y="-48.5" font-family="Helvetica,sans-Serif" font-size="10.00" fill="#000000"> </text>
<polyline fill="none" stroke="#000000" points="179.5,-41.5 325.5,-41.5 "/>
<text text-anchor="start" x="187.5" y="-29.5" font-family="Helvetica,sans-Serif" font-size="10.00" fill="#000000">+ VisaProcessor()</text>
<text text-anchor="start" x="187.5" y="-18.5" font-family="Helvetica,sans-Serif" font-size="10.00" fill="#000000">+ authorizePayment()</text>
<text text-anchor="start" x="187.5" y="-7.5" font-family="Helvetica,sans-Serif" font-size="10.00" fill="#000000">+ get_processor_description()</text>
</a>
</g>
</g>
<!-- Node0&#45;&gt;Node2 -->
<g id="edge2" class="edge">
<title>Node0&#45;&gt;Node2</title>
<path fill="none" stroke="#191970" d="M202.7854,-118.9157C209.0951,-109.5979 215.6025,-99.9881 221.7461,-90.9156"/>
<polygon fill="none" stroke="#191970" points="199.7716,-117.1243 197.0625,-127.367 205.5677,-121.0493 199.7716,-117.1243"/>
</g>
</g>
</svg>
