<?xml version="1.0" encoding="UTF-8" standalone="no"?>
<!DOCTYPE svg PUBLIC "-//W3C//DTD SVG 1.1//EN"
 "http://www.w3.org/Graphics/SVG/1.1/DTD/svg11.dtd">
<!-- Generated by graphviz version 2.40.1 (20161225.0304)
 -->
<!-- Title: Asteroids::Domain::Server::HACCS_REPORT_ACTIVITY Pages: 1 -->
<svg width="238pt" height="431pt"
 viewBox="0.00 0.00 237.50 431.00" xmlns="http://www.w3.org/2000/svg" xmlns:xlink="http://www.w3.org/1999/xlink">
<g id="graph0" class="graph" transform="scale(1 1) rotate(0) translate(4 427)">
<title>Asteroids::Domain::Server::HACCS_REPORT_ACTIVITY</title>
<polygon fill="#ffffff" stroke="transparent" points="-4,4 -4,-427 233.5,-427 233.5,4 -4,4"/>
<!-- Node2 -->
<g id="node1" class="node">
<title>Node2</title>
<polygon fill="#bfbfbf" stroke="#000000" points="21,-.5 21,-134.5 187,-134.5 187,-.5 21,-.5"/>
<text text-anchor="start" x="29" y="-122.5" font-family="Helvetica,sans-Serif" font-size="10.00" fill="#000000">Asteroids::Domain::</text>
<text text-anchor="start" x="29" y="-111.5" font-family="Helvetica,sans-Serif" font-size="10.00" fill="#000000">Server::HACCS_REPORT</text>
<text text-anchor="middle" x="104" y="-100.5" font-family="Helvetica,sans-Serif" font-size="10.00" fill="#000000">_ACTIVITY</text>
<polyline fill="none" stroke="#000000" points="21,-93.5 187,-93.5 "/>
<text text-anchor="middle" x="104" y="-81.5" font-family="Helvetica,sans-Serif" font-size="10.00" fill="#000000"> </text>
<polyline fill="none" stroke="#000000" points="21,-74.5 187,-74.5 "/>
<text text-anchor="start" x="29" y="-62.5" font-family="Helvetica,sans-Serif" font-size="10.00" fill="#000000">+ HACCS_REPORT_ACTIVITY()</text>
<text text-anchor="start" x="29" y="-51.5" font-family="Helvetica,sans-Serif" font-size="10.00" fill="#000000">+ get_what()</text>
<text text-anchor="start" x="29" y="-40.5" font-family="Helvetica,sans-Serif" font-size="10.00" fill="#000000">+ get_when()</text>
<text text-anchor="start" x="29" y="-29.5" font-family="Helvetica,sans-Serif" font-size="10.00" fill="#000000">+ reset()</text>
<text text-anchor="start" x="29" y="-18.5" font-family="Helvetica,sans-Serif" font-size="10.00" fill="#000000">+ set_what()</text>
<text text-anchor="start" x="29" y="-7.5" font-family="Helvetica,sans-Serif" font-size="10.00" fill="#000000">+ set_when()</text>
</g>
<!-- Node3 -->
<g id="node2" class="node">
<title>Node3</title>
<g id="a_node2"><a xlink:href="$classAsteroids_1_1Domain_1_1Server_1_1HACCS__REPORT__ACTIVITY__INTERFACE.html" xlink:title="Data structure class that contains a description of one suspicious activity. ">
<polygon fill="#ffffff" stroke="#000000" points="0,-193.5 0,-316.5 134,-316.5 134,-193.5 0,-193.5"/>
<text text-anchor="start" x="8" y="-304.5" font-family="Helvetica,sans-Serif" font-size="10.00" fill="#000000">Asteroids::Domain::</text>
<text text-anchor="start" x="8" y="-293.5" font-family="Helvetica,sans-Serif" font-size="10.00" fill="#000000">Server::HACCS_REPORT</text>
<text text-anchor="middle" x="67" y="-282.5" font-family="Helvetica,sans-Serif" font-size="10.00" fill="#000000">_ACTIVITY_INTERFACE</text>
<polyline fill="none" stroke="#000000" points="0,-275.5 134,-275.5 "/>
<text text-anchor="middle" x="67" y="-263.5" font-family="Helvetica,sans-Serif" font-size="10.00" fill="#000000"> </text>
<polyline fill="none" stroke="#000000" points="0,-256.5 134,-256.5 "/>
<text text-anchor="start" x="8" y="-244.5" font-family="Helvetica,sans-Serif" font-size="10.00" fill="#000000">+ get_what()</text>
<text text-anchor="start" x="8" y="-233.5" font-family="Helvetica,sans-Serif" font-size="10.00" fill="#000000">+ get_when()</text>
<text text-anchor="start" x="8" y="-222.5" font-family="Helvetica,sans-Serif" font-size="10.00" fill="#000000">+ reset()</text>
<text text-anchor="start" x="8" y="-211.5" font-family="Helvetica,sans-Serif" font-size="10.00" fill="#000000">+ set_what()</text>
<text text-anchor="start" x="8" y="-200.5" font-family="Helvetica,sans-Serif" font-size="10.00" fill="#000000">+ set_when()</text>
</a>
</g>
</g>
<!-- Node3&#45;&gt;Node2 -->
<g id="edge1" class="edge">
<title>Node3&#45;&gt;Node2</title>
<path fill="none" stroke="#191970" d="M81.1085,-183.5043C84.271,-167.478 87.6152,-150.5309 90.7418,-134.687"/>
<polygon fill="none" stroke="#191970" points="77.6687,-182.8574 79.1664,-193.3458 84.5363,-184.2126 77.6687,-182.8574"/>
</g>
<!-- Node4 -->
<g id="node3" class="node">
<title>Node4</title>
<g id="a_node3"><a xlink:title="STL class. ">
<polygon fill="#ffffff" stroke="#bfbfbf" points="152,-226.5 152,-283.5 212,-283.5 212,-226.5 152,-226.5"/>
<text text-anchor="middle" x="182" y="-271.5" font-family="Helvetica,sans-Serif" font-size="10.00" fill="#000000">std::string</text>
<polyline fill="none" stroke="#bfbfbf" points="152,-264.5 212,-264.5 "/>
<text text-anchor="middle" x="182" y="-252.5" font-family="Helvetica,sans-Serif" font-size="10.00" fill="#000000"> </text>
<polyline fill="none" stroke="#bfbfbf" points="152,-245.5 212,-245.5 "/>
<text text-anchor="middle" x="182" y="-233.5" font-family="Helvetica,sans-Serif" font-size="10.00" fill="#000000"> </text>
</a>
</g>
</g>
<!-- Node4&#45;&gt;Node2 -->
<g id="edge2" class="edge">
<title>Node4&#45;&gt;Node2</title>
<path fill="none" stroke="#404040" d="M169.9834,-226.114C161.0424,-204.6212 148.3902,-174.2071 136.5529,-145.7522"/>
<polygon fill="none" stroke="#404040" points="136.5018,-145.6291 130.504,-141.6257 131.8926,-134.5496 137.8904,-138.553 136.5018,-145.6291"/>
<text text-anchor="middle" x="163.5" y="-167" font-family="Helvetica,sans-Serif" font-size="10.00" fill="#000000"> &#45;_what</text>
<text text-anchor="middle" x="163.5" y="-156" font-family="Helvetica,sans-Serif" font-size="10.00" fill="#000000">&#45;_when</text>
</g>
<!-- Node5 -->
<g id="node4" class="node">
<title>Node5</title>
<g id="a_node4"><a xlink:title="STL class. ">
<polygon fill="#ffffff" stroke="#bfbfbf" points="134.5,-354.5 134.5,-422.5 229.5,-422.5 229.5,-354.5 134.5,-354.5"/>
<text text-anchor="start" x="142.5" y="-410.5" font-family="Helvetica,sans-Serif" font-size="10.00" fill="#000000">std::basic_string&lt;</text>
<text text-anchor="middle" x="182" y="-399.5" font-family="Helvetica,sans-Serif" font-size="10.00" fill="#000000"> char &gt;</text>
<polyline fill="none" stroke="#bfbfbf" points="134.5,-392.5 229.5,-392.5 "/>
<text text-anchor="middle" x="182" y="-380.5" font-family="Helvetica,sans-Serif" font-size="10.00" fill="#000000"> </text>
<polyline fill="none" stroke="#bfbfbf" points="134.5,-373.5 229.5,-373.5 "/>
<text text-anchor="middle" x="182" y="-361.5" font-family="Helvetica,sans-Serif" font-size="10.00" fill="#000000"> </text>
</a>
</g>
</g>
<!-- Node5&#45;&gt;Node4 -->
<g id="edge3" class="edge">
<title>Node5&#45;&gt;Node4</title>
<path fill="none" stroke="#191970" d="M182,-344.3277C182,-324.3182 182,-301.2405 182,-283.5546"/>
<polygon fill="none" stroke="#191970" points="178.5001,-344.4669 182,-354.4669 185.5001,-344.4669 178.5001,-344.4669"/>
</g>
</g>
</svg>
