<?xml version="1.0" encoding="UTF-8" standalone="no"?>
<!DOCTYPE svg PUBLIC "-//W3C//DTD SVG 1.1//EN"
 "http://www.w3.org/Graphics/SVG/1.1/DTD/svg11.dtd">
<!-- Generated by graphviz version 2.40.1 (20161225.0304)
 -->
<!-- Title: Asteroids::Domain::Server::ServerDaemon::ServerDaemon Pages: 1 -->
<svg width="295pt" height="50pt"
 viewBox="0.00 0.00 295.00 50.00" xmlns="http://www.w3.org/2000/svg" xmlns:xlink="http://www.w3.org/1999/xlink">
<g id="graph0" class="graph" transform="scale(1 1) rotate(0) translate(4 46)">
<title>Asteroids::Domain::Server::ServerDaemon::ServerDaemon</title>
<polygon fill="#ffffff" stroke="transparent" points="-4,4 -4,-46 291,-46 291,4 -4,4"/>
<!-- Node0 -->
<g id="node1" class="node">
<title>Node0</title>
<polygon fill="#bfbfbf" stroke="#000000" points="0,-.5 0,-41.5 116,-41.5 116,-.5 0,-.5"/>
<text text-anchor="start" x="8" y="-29.5" font-family="Helvetica,sans-Serif" font-size="10.00" fill="#000000">Asteroids::Domain::</text>
<text text-anchor="start" x="8" y="-18.5" font-family="Helvetica,sans-Serif" font-size="10.00" fill="#000000">Server::ServerDaemon</text>
<text text-anchor="middle" x="58" y="-7.5" font-family="Helvetica,sans-Serif" font-size="10.00" fill="#000000">::ServerDaemon</text>
</g>
<!-- Node1 -->
<g id="node2" class="node">
<title>Node1</title>
<g id="a_node2"><a xlink:href="$classAsteroids_1_1Domain_1_1Server_1_1ServerDaemon.html#ae9c4ad2dfbabb9f2f2fbd84fbf5940a5" xlink:title="Asteroids::Domain::\lServer::ServerDaemon::init">
<polygon fill="#ffffff" stroke="#000000" points="152,-6 152,-36 287,-36 287,-6 152,-6"/>
<text text-anchor="start" x="160" y="-24" font-family="Helvetica,sans-Serif" font-size="10.00" fill="#000000">Asteroids::Domain::</text>
<text text-anchor="middle" x="219.5" y="-13" font-family="Helvetica,sans-Serif" font-size="10.00" fill="#000000">Server::ServerDaemon::init</text>
</a>
</g>
</g>
<!-- Node0&#45;&gt;Node1 -->
<g id="edge1" class="edge">
<title>Node0&#45;&gt;Node1</title>
<path fill="none" stroke="#191970" d="M116.3052,-21C124.6175,-21 133.2745,-21 141.8839,-21"/>
<polygon fill="#191970" stroke="#191970" points="141.9453,-24.5001 151.9452,-21 141.9452,-17.5001 141.9453,-24.5001"/>
</g>
</g>
</svg>
