<?xml version="1.0" encoding="UTF-8" standalone="no"?>
<!DOCTYPE svg PUBLIC "-//W3C//DTD SVG 1.1//EN"
 "http://www.w3.org/Graphics/SVG/1.1/DTD/svg11.dtd">
<!-- Generated by graphviz version 2.40.1 (20161225.0304)
 -->
<!-- Title: Asteroids::UI::ClientTextUI::ClientTextUI::purchasing_store_item Pages: 1 -->
<svg width="654pt" height="113pt"
 viewBox="0.00 0.00 654.00 113.00" xmlns="http://www.w3.org/2000/svg" xmlns:xlink="http://www.w3.org/1999/xlink">
<g id="graph0" class="graph" transform="scale(1 1) rotate(0) translate(4 109)">
<title>Asteroids::UI::ClientTextUI::ClientTextUI::purchasing_store_item</title>
<polygon fill="#ffffff" stroke="transparent" points="-4,4 -4,-109 650,-109 650,4 -4,4"/>
<!-- Node119 -->
<g id="node1" class="node">
<title>Node119</title>
<polygon fill="#bfbfbf" stroke="#000000" points="0,-.5 0,-41.5 142,-41.5 142,-.5 0,-.5"/>
<text text-anchor="start" x="8" y="-29.5" font-family="Helvetica,sans-Serif" font-size="10.00" fill="#000000">Asteroids::UI::ClientText</text>
<text text-anchor="start" x="8" y="-18.5" font-family="Helvetica,sans-Serif" font-size="10.00" fill="#000000">UI::ClientTextUI::purchasing</text>
<text text-anchor="middle" x="71" y="-7.5" font-family="Helvetica,sans-Serif" font-size="10.00" fill="#000000">_store_item</text>
</g>
<!-- Node120 -->
<g id="node2" class="node">
<title>Node120</title>
<g id="a_node2"><a xlink:href="$classAsteroids_1_1UI_1_1ClientTextUI_1_1ClientTextUI.html#a4613a9af03e06c960c467b0b6be44db9" xlink:title="Asteroids::UI::ClientText\lUI::ClientTextUI::pay_for\l_store_item">
<polygon fill="#ffffff" stroke="#000000" points="178,-25.5 178,-66.5 305,-66.5 305,-25.5 178,-25.5"/>
<text text-anchor="start" x="186" y="-54.5" font-family="Helvetica,sans-Serif" font-size="10.00" fill="#000000">Asteroids::UI::ClientText</text>
<text text-anchor="start" x="186" y="-43.5" font-family="Helvetica,sans-Serif" font-size="10.00" fill="#000000">UI::ClientTextUI::pay_for</text>
<text text-anchor="middle" x="241.5" y="-32.5" font-family="Helvetica,sans-Serif" font-size="10.00" fill="#000000">_store_item</text>
</a>
</g>
</g>
<!-- Node119&#45;&gt;Node120 -->
<g id="edge1" class="edge">
<title>Node119&#45;&gt;Node120</title>
<path fill="none" stroke="#191970" d="M142.3194,-31.4574C150.6883,-32.6845 159.2413,-33.9386 167.6439,-35.1707"/>
<polygon fill="#191970" stroke="#191970" points="167.3942,-38.6714 177.7962,-36.6593 168.4097,-31.7454 167.3942,-38.6714"/>
</g>
<!-- Node122 -->
<g id="node4" class="node">
<title>Node122</title>
<g id="a_node4"><a xlink:href="$classAsteroids_1_1UI_1_1ClientTextUI_1_1ClientTextUI.html#a41f904ea570af3e3a8c4d70da8411ef3" xlink:title="Asteroids::UI::ClientText\lUI::ClientTextUI::print">
<polygon fill="#ffffff" stroke="#000000" points="521,-20 521,-50 646,-50 646,-20 521,-20"/>
<text text-anchor="start" x="529" y="-38" font-family="Helvetica,sans-Serif" font-size="10.00" fill="#000000">Asteroids::UI::ClientText</text>
<text text-anchor="middle" x="583.5" y="-27" font-family="Helvetica,sans-Serif" font-size="10.00" fill="#000000">UI::ClientTextUI::print</text>
</a>
</g>
</g>
<!-- Node119&#45;&gt;Node122 -->
<g id="edge5" class="edge">
<title>Node119&#45;&gt;Node122</title>
<path fill="none" stroke="#191970" d="M142.0651,-17.2136C154.0565,-16.7082 166.3803,-16.2713 178,-16 234.4291,-14.6823 248.5883,-14.078 305,-16 374.8774,-18.3808 454.4456,-24.1125 510.5891,-28.6621"/>
<polygon fill="#191970" stroke="#191970" points="510.54,-32.1697 520.7921,-29.4968 511.1108,-25.193 510.54,-32.1697"/>
</g>
<!-- Node121 -->
<g id="node3" class="node">
<title>Node121</title>
<g id="a_node3"><a xlink:href="$classAsteroids_1_1UI_1_1ClientTextUI_1_1ClientTextUI.html#a02d420d49c44459fe7a2af9b0000adf9" xlink:title="Asteroids::UI::ClientText\lUI::ClientTextUI::pay_for\l_store_item_with_credit_card">
<polygon fill="#ffffff" stroke="#000000" points="341,-63.5 341,-104.5 485,-104.5 485,-63.5 341,-63.5"/>
<text text-anchor="start" x="349" y="-92.5" font-family="Helvetica,sans-Serif" font-size="10.00" fill="#000000">Asteroids::UI::ClientText</text>
<text text-anchor="start" x="349" y="-81.5" font-family="Helvetica,sans-Serif" font-size="10.00" fill="#000000">UI::ClientTextUI::pay_for</text>
<text text-anchor="middle" x="413" y="-70.5" font-family="Helvetica,sans-Serif" font-size="10.00" fill="#000000">_store_item_with_credit_card</text>
</a>
</g>
</g>
<!-- Node120&#45;&gt;Node121 -->
<g id="edge2" class="edge">
<title>Node120&#45;&gt;Node121</title>
<path fill="none" stroke="#191970" d="M305.3603,-60.1498C313.6427,-61.985 322.217,-63.8848 330.7453,-65.7745"/>
<polygon fill="#191970" stroke="#191970" points="330.1948,-69.2373 340.7152,-67.9835 331.7091,-62.4031 330.1948,-69.2373"/>
</g>
<!-- Node120&#45;&gt;Node122 -->
<g id="edge4" class="edge">
<title>Node120&#45;&gt;Node122</title>
<path fill="none" stroke="#191970" d="M305.0261,-43.9568C363.2779,-42.0832 449.512,-39.3096 510.5597,-37.346"/>
<polygon fill="#191970" stroke="#191970" points="511.0094,-40.8335 520.8916,-37.0137 510.7843,-33.8371 511.0094,-40.8335"/>
</g>
<!-- Node121&#45;&gt;Node122 -->
<g id="edge3" class="edge">
<title>Node121&#45;&gt;Node122</title>
<path fill="none" stroke="#191970" d="M484.8132,-63.3616C496.9714,-59.8675 509.5036,-56.2658 521.3869,-52.8507"/>
<polygon fill="#191970" stroke="#191970" points="522.5496,-56.1583 531.1938,-50.0323 520.6161,-49.4306 522.5496,-56.1583"/>
</g>
</g>
</svg>
