<?xml version="1.0" encoding="UTF-8" standalone="no"?>
<!DOCTYPE svg PUBLIC "-//W3C//DTD SVG 1.1//EN"
 "http://www.w3.org/Graphics/SVG/1.1/DTD/svg11.dtd">
<!-- Generated by graphviz version 2.40.1 (20161225.0304)
 -->
<!-- Title: Asteroids::Domain::Server::HACCS_REPORT_ACTIVITY::HACCS_REPORT_ACTIVITY Pages: 1 -->
<svg width="335pt" height="61pt"
 viewBox="0.00 0.00 335.00 61.00" xmlns="http://www.w3.org/2000/svg" xmlns:xlink="http://www.w3.org/1999/xlink">
<g id="graph0" class="graph" transform="scale(1 1) rotate(0) translate(4 57)">
<title>Asteroids::Domain::Server::HACCS_REPORT_ACTIVITY::HACCS_REPORT_ACTIVITY</title>
<polygon fill="#ffffff" stroke="transparent" points="-4,4 -4,-57 331,-57 331,4 -4,4"/>
<!-- Node0 -->
<g id="node1" class="node">
<title>Node0</title>
<polygon fill="#bfbfbf" stroke="#000000" points="0,-.5 0,-52.5 157,-52.5 157,-.5 0,-.5"/>
<text text-anchor="start" x="8" y="-40.5" font-family="Helvetica,sans-Serif" font-size="10.00" fill="#000000">Asteroids::Domain::</text>
<text text-anchor="start" x="8" y="-29.5" font-family="Helvetica,sans-Serif" font-size="10.00" fill="#000000">Server::HACCS_REPORT</text>
<text text-anchor="start" x="8" y="-18.5" font-family="Helvetica,sans-Serif" font-size="10.00" fill="#000000">_ACTIVITY::HACCS_REPORT</text>
<text text-anchor="middle" x="78.5" y="-7.5" font-family="Helvetica,sans-Serif" font-size="10.00" fill="#000000">_ACTIVITY</text>
</g>
<!-- Node1 -->
<g id="node2" class="node">
<title>Node1</title>
<g id="a_node2"><a xlink:href="$classAsteroids_1_1Domain_1_1Server_1_1HACCS__REPORT__ACTIVITY.html#a2c3003f6cf17387190009a152644b80f" xlink:title="Asteroids::Domain::\lServer::HACCS_REPORT\l_ACTIVITY::reset">
<polygon fill="#ffffff" stroke="#000000" points="193,-6 193,-47 327,-47 327,-6 193,-6"/>
<text text-anchor="start" x="201" y="-35" font-family="Helvetica,sans-Serif" font-size="10.00" fill="#000000">Asteroids::Domain::</text>
<text text-anchor="start" x="201" y="-24" font-family="Helvetica,sans-Serif" font-size="10.00" fill="#000000">Server::HACCS_REPORT</text>
<text text-anchor="middle" x="260" y="-13" font-family="Helvetica,sans-Serif" font-size="10.00" fill="#000000">_ACTIVITY::reset</text>
</a>
</g>
</g>
<!-- Node0&#45;&gt;Node1 -->
<g id="edge1" class="edge">
<title>Node0&#45;&gt;Node1</title>
<path fill="none" stroke="#191970" d="M157.0529,-26.5C165.5669,-26.5 174.2268,-26.5 182.7254,-26.5"/>
<polygon fill="#191970" stroke="#191970" points="182.9912,-30.0001 192.9911,-26.5 182.9911,-23.0001 182.9912,-30.0001"/>
</g>
</g>
</svg>
