<?xml version="1.0" encoding="UTF-8" standalone="no"?>
<!DOCTYPE svg PUBLIC "-//W3C//DTD SVG 1.1//EN"
 "http://www.w3.org/Graphics/SVG/1.1/DTD/svg11.dtd">
<!-- Generated by graphviz version 2.40.1 (20161225.0304)
 -->
<!-- Title: Asteroids::Domain::Game::GAME_HISTORY_ENTRY Pages: 1 -->
<svg width="272pt" height="453pt"
 viewBox="0.00 0.00 271.50 453.00" xmlns="http://www.w3.org/2000/svg" xmlns:xlink="http://www.w3.org/1999/xlink">
<g id="graph0" class="graph" transform="scale(1 1) rotate(0) translate(4 449)">
<title>Asteroids::Domain::Game::GAME_HISTORY_ENTRY</title>
<polygon fill="#ffffff" stroke="transparent" points="-4,4 -4,-449 267.5,-449 267.5,4 -4,4"/>
<!-- Node2 -->
<g id="node1" class="node">
<title>Node2</title>
<polygon fill="#bfbfbf" stroke="#000000" points="16,-.5 16,-145.5 184,-145.5 184,-.5 16,-.5"/>
<text text-anchor="start" x="24" y="-133.5" font-family="Helvetica,sans-Serif" font-size="10.00" fill="#000000">Asteroids::Domain::</text>
<text text-anchor="middle" x="100" y="-122.5" font-family="Helvetica,sans-Serif" font-size="10.00" fill="#000000">Game::GAME_HISTORY_ENTRY</text>
<polyline fill="none" stroke="#000000" points="16,-115.5 184,-115.5 "/>
<text text-anchor="start" x="24" y="-103.5" font-family="Helvetica,sans-Serif" font-size="10.00" fill="#000000">&#45; _score</text>
<polyline fill="none" stroke="#000000" points="16,-96.5 184,-96.5 "/>
<text text-anchor="start" x="24" y="-84.5" font-family="Helvetica,sans-Serif" font-size="10.00" fill="#000000">+ GAME_HISTORY_ENTRY()</text>
<text text-anchor="start" x="24" y="-73.5" font-family="Helvetica,sans-Serif" font-size="10.00" fill="#000000">+ get_date()</text>
<text text-anchor="start" x="24" y="-62.5" font-family="Helvetica,sans-Serif" font-size="10.00" fill="#000000">+ get_id()</text>
<text text-anchor="start" x="24" y="-51.5" font-family="Helvetica,sans-Serif" font-size="10.00" fill="#000000">+ get_score()</text>
<text text-anchor="start" x="24" y="-40.5" font-family="Helvetica,sans-Serif" font-size="10.00" fill="#000000">+ reset()</text>
<text text-anchor="start" x="24" y="-29.5" font-family="Helvetica,sans-Serif" font-size="10.00" fill="#000000">+ set_date()</text>
<text text-anchor="start" x="24" y="-18.5" font-family="Helvetica,sans-Serif" font-size="10.00" fill="#000000">+ set_id()</text>
<text text-anchor="start" x="24" y="-7.5" font-family="Helvetica,sans-Serif" font-size="10.00" fill="#000000">+ set_score()</text>
</g>
<!-- Node3 -->
<g id="node2" class="node">
<title>Node3</title>
<g id="a_node2"><a xlink:href="$classAsteroids_1_1Domain_1_1Game_1_1GAME__HISTORY__ENTRY__INTERFACE.html" xlink:title="Holds one entry of gameplay historical data. ">
<polygon fill="#ffffff" stroke="#000000" points="0,-204.5 0,-338.5 168,-338.5 168,-204.5 0,-204.5"/>
<text text-anchor="start" x="8" y="-326.5" font-family="Helvetica,sans-Serif" font-size="10.00" fill="#000000">Asteroids::Domain::</text>
<text text-anchor="start" x="8" y="-315.5" font-family="Helvetica,sans-Serif" font-size="10.00" fill="#000000">Game::GAME_HISTORY_ENTRY</text>
<text text-anchor="middle" x="84" y="-304.5" font-family="Helvetica,sans-Serif" font-size="10.00" fill="#000000">_INTERFACE</text>
<polyline fill="none" stroke="#000000" points="0,-297.5 168,-297.5 "/>
<text text-anchor="middle" x="84" y="-285.5" font-family="Helvetica,sans-Serif" font-size="10.00" fill="#000000"> </text>
<polyline fill="none" stroke="#000000" points="0,-278.5 168,-278.5 "/>
<text text-anchor="start" x="8" y="-266.5" font-family="Helvetica,sans-Serif" font-size="10.00" fill="#000000">+ get_date()</text>
<text text-anchor="start" x="8" y="-255.5" font-family="Helvetica,sans-Serif" font-size="10.00" fill="#000000">+ get_id()</text>
<text text-anchor="start" x="8" y="-244.5" font-family="Helvetica,sans-Serif" font-size="10.00" fill="#000000">+ get_score()</text>
<text text-anchor="start" x="8" y="-233.5" font-family="Helvetica,sans-Serif" font-size="10.00" fill="#000000">+ set_date()</text>
<text text-anchor="start" x="8" y="-222.5" font-family="Helvetica,sans-Serif" font-size="10.00" fill="#000000">+ set_id()</text>
<text text-anchor="start" x="8" y="-211.5" font-family="Helvetica,sans-Serif" font-size="10.00" fill="#000000">+ set_score()</text>
</a>
</g>
</g>
<!-- Node3&#45;&gt;Node2 -->
<g id="edge1" class="edge">
<title>Node3&#45;&gt;Node2</title>
<path fill="none" stroke="#191970" d="M90.25,-193.9613C91.5338,-178.0334 92.8809,-161.321 94.15,-145.576"/>
<polygon fill="none" stroke="#191970" points="86.7317,-194.048 89.4169,-204.297 93.7091,-194.6105 86.7317,-194.048"/>
</g>
<!-- Node4 -->
<g id="node3" class="node">
<title>Node4</title>
<g id="a_node3"><a xlink:title="STL class. ">
<polygon fill="#ffffff" stroke="#bfbfbf" points="186,-243 186,-300 246,-300 246,-243 186,-243"/>
<text text-anchor="middle" x="216" y="-288" font-family="Helvetica,sans-Serif" font-size="10.00" fill="#000000">std::string</text>
<polyline fill="none" stroke="#bfbfbf" points="186,-281 246,-281 "/>
<text text-anchor="middle" x="216" y="-269" font-family="Helvetica,sans-Serif" font-size="10.00" fill="#000000"> </text>
<polyline fill="none" stroke="#bfbfbf" points="186,-262 246,-262 "/>
<text text-anchor="middle" x="216" y="-250" font-family="Helvetica,sans-Serif" font-size="10.00" fill="#000000"> </text>
</a>
</g>
</g>
<!-- Node4&#45;&gt;Node2 -->
<g id="edge2" class="edge">
<title>Node4&#45;&gt;Node2</title>
<path fill="none" stroke="#404040" d="M199.5376,-242.8984C192.6007,-230.8748 184.4279,-216.7458 177,-204 168.0423,-188.6291 158.4606,-172.2658 149.2054,-156.4996"/>
<polygon fill="none" stroke="#404040" points="148.9394,-156.0466 142.4515,-152.8989 142.8617,-145.6995 149.3496,-148.8472 148.9394,-156.0466"/>
<text text-anchor="middle" x="178" y="-178" font-family="Helvetica,sans-Serif" font-size="10.00" fill="#000000"> &#45;_id</text>
<text text-anchor="middle" x="178" y="-167" font-family="Helvetica,sans-Serif" font-size="10.00" fill="#000000">&#45;_date</text>
</g>
<!-- Node5 -->
<g id="node4" class="node">
<title>Node5</title>
<g id="a_node4"><a xlink:title="STL class. ">
<polygon fill="#ffffff" stroke="#bfbfbf" points="168.5,-376.5 168.5,-444.5 263.5,-444.5 263.5,-376.5 168.5,-376.5"/>
<text text-anchor="start" x="176.5" y="-432.5" font-family="Helvetica,sans-Serif" font-size="10.00" fill="#000000">std::basic_string&lt;</text>
<text text-anchor="middle" x="216" y="-421.5" font-family="Helvetica,sans-Serif" font-size="10.00" fill="#000000"> char &gt;</text>
<polyline fill="none" stroke="#bfbfbf" points="168.5,-414.5 263.5,-414.5 "/>
<text text-anchor="middle" x="216" y="-402.5" font-family="Helvetica,sans-Serif" font-size="10.00" fill="#000000"> </text>
<polyline fill="none" stroke="#bfbfbf" points="168.5,-395.5 263.5,-395.5 "/>
<text text-anchor="middle" x="216" y="-383.5" font-family="Helvetica,sans-Serif" font-size="10.00" fill="#000000"> </text>
</a>
</g>
</g>
<!-- Node5&#45;&gt;Node4 -->
<g id="edge3" class="edge">
<title>Node5&#45;&gt;Node4</title>
<path fill="none" stroke="#191970" d="M216,-366.2755C216,-344.7526 216,-319.4856 216,-300.4552"/>
<polygon fill="none" stroke="#191970" points="212.5001,-366.4967 216,-376.4968 219.5001,-366.4968 212.5001,-366.4967"/>
</g>
</g>
</svg>
