<?xml version="1.0" encoding="UTF-8" standalone="no"?>
<!DOCTYPE svg PUBLIC "-//W3C//DTD SVG 1.1//EN"
 "http://www.w3.org/Graphics/SVG/1.1/DTD/svg11.dtd">
<!-- Generated by graphviz version 2.40.1 (20161225.0304)
 -->
<!-- Title: Asteroids::Domain::Game::Actors::Actor::reset Pages: 1 -->
<svg width="633pt" height="215pt"
 viewBox="0.00 0.00 633.00 214.50" xmlns="http://www.w3.org/2000/svg" xmlns:xlink="http://www.w3.org/1999/xlink">
<g id="graph0" class="graph" transform="scale(1 1) rotate(0) translate(4 210.5)">
<title>Asteroids::Domain::Game::Actors::Actor::reset</title>
<polygon fill="#ffffff" stroke="transparent" points="-4,4 -4,-210.5 629,-210.5 629,4 -4,4"/>
<!-- Node94 -->
<g id="node1" class="node">
<title>Node94</title>
<polygon fill="#bfbfbf" stroke="#000000" points="0,-80 0,-121 107,-121 107,-80 0,-80"/>
<text text-anchor="start" x="8" y="-109" font-family="Helvetica,sans-Serif" font-size="10.00" fill="#000000">Asteroids::Domain::</text>
<text text-anchor="start" x="8" y="-98" font-family="Helvetica,sans-Serif" font-size="10.00" fill="#000000">Game::Actors::Actor</text>
<text text-anchor="middle" x="53.5" y="-87" font-family="Helvetica,sans-Serif" font-size="10.00" fill="#000000">::reset</text>
</g>
<!-- Node95 -->
<g id="node2" class="node">
<title>Node95</title>
<g id="a_node2"><a xlink:href="$classAsteroids_1_1Domain_1_1Game_1_1Actors_1_1Actor.html#a5f59fc92345120fdc67675ec0884b137" xlink:title="Asteroids::Domain::\lGame::Actors::Actor::init">
<polygon fill="#ffffff" stroke="#000000" points="147.5,-170.5 147.5,-200.5 272.5,-200.5 272.5,-170.5 147.5,-170.5"/>
<text text-anchor="start" x="155.5" y="-188.5" font-family="Helvetica,sans-Serif" font-size="10.00" fill="#000000">Asteroids::Domain::</text>
<text text-anchor="middle" x="210" y="-177.5" font-family="Helvetica,sans-Serif" font-size="10.00" fill="#000000">Game::Actors::Actor::init</text>
</a>
</g>
</g>
<!-- Node94&#45;&gt;Node95 -->
<g id="edge1" class="edge">
<title>Node94&#45;&gt;Node95</title>
<path fill="none" stroke="#191970" d="M89.1687,-127.2089C105.1129,-138.4013 124.461,-150.9927 143,-160.5 149.9598,-164.0692 157.5518,-167.3957 165.0432,-170.3829"/>
<polygon fill="#191970" stroke="#191970" points="90.8623,-124.1179 80.6878,-121.1632 86.799,-129.8179 90.8623,-124.1179"/>
</g>
<!-- Node97 -->
<g id="node4" class="node">
<title>Node97</title>
<g id="a_node4"><a xlink:href="$classAsteroids_1_1Domain_1_1Game_1_1Actors_1_1Bullet.html#ae3837ed471d290688f684e8187e6865e" xlink:title="Asteroids::Domain::\lGame::Actors::Bullet\l::reset">
<polygon fill="#ffffff" stroke="#000000" points="156,-110 156,-151 264,-151 264,-110 156,-110"/>
<text text-anchor="start" x="164" y="-139" font-family="Helvetica,sans-Serif" font-size="10.00" fill="#000000">Asteroids::Domain::</text>
<text text-anchor="start" x="164" y="-128" font-family="Helvetica,sans-Serif" font-size="10.00" fill="#000000">Game::Actors::Bullet</text>
<text text-anchor="middle" x="210" y="-117" font-family="Helvetica,sans-Serif" font-size="10.00" fill="#000000">::reset</text>
</a>
</g>
</g>
<!-- Node94&#45;&gt;Node97 -->
<g id="edge3" class="edge">
<title>Node94&#45;&gt;Node97</title>
<path fill="none" stroke="#191970" d="M117.428,-112.7546C130.1575,-115.1947 143.4104,-117.7352 155.7768,-120.1058"/>
<polygon fill="#191970" stroke="#191970" points="117.8386,-109.2696 107.3584,-110.8243 116.5206,-116.1444 117.8386,-109.2696"/>
</g>
<!-- Node100 -->
<g id="node7" class="node">
<title>Node100</title>
<g id="a_node7"><a xlink:href="$classAsteroids_1_1Domain_1_1Game_1_1Actors_1_1GunShip.html#a753c275a7840962c92cfe4843bcbd6ac" xlink:title="Asteroids::Domain::\lGame::Actors::GunShip\l::reset">
<polygon fill="#ffffff" stroke="#000000" points="149.5,-50 149.5,-91 270.5,-91 270.5,-50 149.5,-50"/>
<text text-anchor="start" x="157.5" y="-79" font-family="Helvetica,sans-Serif" font-size="10.00" fill="#000000">Asteroids::Domain::</text>
<text text-anchor="start" x="157.5" y="-68" font-family="Helvetica,sans-Serif" font-size="10.00" fill="#000000">Game::Actors::GunShip</text>
<text text-anchor="middle" x="210" y="-57" font-family="Helvetica,sans-Serif" font-size="10.00" fill="#000000">::reset</text>
</a>
</g>
</g>
<!-- Node94&#45;&gt;Node100 -->
<g id="edge6" class="edge">
<title>Node94&#45;&gt;Node100</title>
<path fill="none" stroke="#191970" d="M117.3511,-88.2602C127.917,-86.2348 138.8457,-84.1398 149.3303,-82.13"/>
<polygon fill="#191970" stroke="#191970" points="116.5206,-84.8556 107.3584,-90.1757 117.8386,-91.7304 116.5206,-84.8556"/>
</g>
<!-- Node103 -->
<g id="node10" class="node">
<title>Node103</title>
<g id="a_node10"><a xlink:href="$classAsteroids_1_1Domain_1_1Game_1_1Actors_1_1Rock.html#aab44647e08659d563aeb28d51868fb86" xlink:title="Asteroids::Domain::\lGame::Actors::Rock::reset">
<polygon fill="#ffffff" stroke="#000000" points="143,-.5 143,-30.5 277,-30.5 277,-.5 143,-.5"/>
<text text-anchor="start" x="151" y="-18.5" font-family="Helvetica,sans-Serif" font-size="10.00" fill="#000000">Asteroids::Domain::</text>
<text text-anchor="middle" x="210" y="-7.5" font-family="Helvetica,sans-Serif" font-size="10.00" fill="#000000">Game::Actors::Rock::reset</text>
</a>
</g>
</g>
<!-- Node94&#45;&gt;Node103 -->
<g id="edge9" class="edge">
<title>Node94&#45;&gt;Node103</title>
<path fill="none" stroke="#191970" d="M89.1687,-73.7911C105.1129,-62.5987 124.461,-50.0073 143,-40.5 149.9598,-36.9308 157.5518,-33.6043 165.0432,-30.6171"/>
<polygon fill="#191970" stroke="#191970" points="86.799,-71.1821 80.6878,-79.8368 90.8623,-76.8821 86.799,-71.1821"/>
</g>
<!-- Node96 -->
<g id="node3" class="node">
<title>Node96</title>
<g id="a_node3"><a xlink:href="$classAsteroids_1_1Domain_1_1Game_1_1Actors_1_1Actor.html#a7be8857a93e88d79c6cf1bcc4b1dcdb4" xlink:title="Asteroids::Domain::\lGame::Actors::Actor\l::Actor">
<polygon fill="#ffffff" stroke="#000000" points="329.5,-165 329.5,-206 436.5,-206 436.5,-165 329.5,-165"/>
<text text-anchor="start" x="337.5" y="-194" font-family="Helvetica,sans-Serif" font-size="10.00" fill="#000000">Asteroids::Domain::</text>
<text text-anchor="start" x="337.5" y="-183" font-family="Helvetica,sans-Serif" font-size="10.00" fill="#000000">Game::Actors::Actor</text>
<text text-anchor="middle" x="383" y="-172" font-family="Helvetica,sans-Serif" font-size="10.00" fill="#000000">::Actor</text>
</a>
</g>
</g>
<!-- Node95&#45;&gt;Node96 -->
<g id="edge2" class="edge">
<title>Node95&#45;&gt;Node96</title>
<path fill="none" stroke="#191970" d="M283.0219,-185.5C298.5167,-185.5 314.603,-185.5 329.2257,-185.5"/>
<polygon fill="#191970" stroke="#191970" points="282.9464,-182.0001 272.9464,-185.5 282.9463,-189.0001 282.9464,-182.0001"/>
</g>
<!-- Node98 -->
<g id="node5" class="node">
<title>Node98</title>
<g id="a_node5"><a xlink:href="$classAsteroids_1_1Domain_1_1Game_1_1Actors_1_1Bullet.html#a1c7b384d298439c581d97f996f067985" xlink:title="Asteroids::Domain::\lGame::Actors::Bullet::init">
<polygon fill="#ffffff" stroke="#000000" points="319.5,-115.5 319.5,-145.5 446.5,-145.5 446.5,-115.5 319.5,-115.5"/>
<text text-anchor="start" x="327.5" y="-133.5" font-family="Helvetica,sans-Serif" font-size="10.00" fill="#000000">Asteroids::Domain::</text>
<text text-anchor="middle" x="383" y="-122.5" font-family="Helvetica,sans-Serif" font-size="10.00" fill="#000000">Game::Actors::Bullet::init</text>
</a>
</g>
</g>
<!-- Node97&#45;&gt;Node98 -->
<g id="edge4" class="edge">
<title>Node97&#45;&gt;Node98</title>
<path fill="none" stroke="#191970" d="M274.2661,-130.5C288.959,-130.5 304.57,-130.5 319.2415,-130.5"/>
<polygon fill="#191970" stroke="#191970" points="274.2637,-127.0001 264.2636,-130.5 274.2636,-134.0001 274.2637,-127.0001"/>
</g>
<!-- Node99 -->
<g id="node6" class="node">
<title>Node99</title>
<g id="a_node6"><a xlink:href="$classAsteroids_1_1Domain_1_1Game_1_1Actors_1_1Bullet.html#a48557011de2d1939a8b5f7fe7e9fccda" xlink:title="Asteroids::Domain::\lGame::Actors::Bullet\l::Bullet">
<polygon fill="#ffffff" stroke="#000000" points="503,-110 503,-151 611,-151 611,-110 503,-110"/>
<text text-anchor="start" x="511" y="-139" font-family="Helvetica,sans-Serif" font-size="10.00" fill="#000000">Asteroids::Domain::</text>
<text text-anchor="start" x="511" y="-128" font-family="Helvetica,sans-Serif" font-size="10.00" fill="#000000">Game::Actors::Bullet</text>
<text text-anchor="middle" x="557" y="-117" font-family="Helvetica,sans-Serif" font-size="10.00" fill="#000000">::Bullet</text>
</a>
</g>
</g>
<!-- Node98&#45;&gt;Node99 -->
<g id="edge5" class="edge">
<title>Node98&#45;&gt;Node99</title>
<path fill="none" stroke="#191970" d="M456.8611,-130.5C472.323,-130.5 488.3517,-130.5 502.9326,-130.5"/>
<polygon fill="#191970" stroke="#191970" points="456.8032,-127.0001 446.8032,-130.5 456.8031,-134.0001 456.8032,-127.0001"/>
</g>
<!-- Node101 -->
<g id="node8" class="node">
<title>Node101</title>
<g id="a_node8"><a xlink:href="$classAsteroids_1_1Domain_1_1Game_1_1Actors_1_1GunShip.html#ad5c14269f0503e045f03f265f9019e95" xlink:title="Asteroids::Domain::\lGame::Actors::GunShip::init">
<polygon fill="#ffffff" stroke="#000000" points="313,-55.5 313,-85.5 453,-85.5 453,-55.5 313,-55.5"/>
<text text-anchor="start" x="321" y="-73.5" font-family="Helvetica,sans-Serif" font-size="10.00" fill="#000000">Asteroids::Domain::</text>
<text text-anchor="middle" x="383" y="-62.5" font-family="Helvetica,sans-Serif" font-size="10.00" fill="#000000">Game::Actors::GunShip::init</text>
</a>
</g>
</g>
<!-- Node100&#45;&gt;Node101 -->
<g id="edge7" class="edge">
<title>Node100&#45;&gt;Node101</title>
<path fill="none" stroke="#191970" d="M280.5637,-70.5C291.1818,-70.5 302.1318,-70.5 312.7434,-70.5"/>
<polygon fill="#191970" stroke="#191970" points="280.507,-67.0001 270.507,-70.5 280.507,-74.0001 280.507,-67.0001"/>
</g>
<!-- Node102 -->
<g id="node9" class="node">
<title>Node102</title>
<g id="a_node9"><a xlink:href="$classAsteroids_1_1Domain_1_1Game_1_1Actors_1_1GunShip.html#a4e6a5de697b5a88bf3942165397cd27b" xlink:title="Asteroids::Domain::\lGame::Actors::GunShip\l::GunShip">
<polygon fill="#ffffff" stroke="#000000" points="496.5,-50 496.5,-91 617.5,-91 617.5,-50 496.5,-50"/>
<text text-anchor="start" x="504.5" y="-79" font-family="Helvetica,sans-Serif" font-size="10.00" fill="#000000">Asteroids::Domain::</text>
<text text-anchor="start" x="504.5" y="-68" font-family="Helvetica,sans-Serif" font-size="10.00" fill="#000000">Game::Actors::GunShip</text>
<text text-anchor="middle" x="557" y="-57" font-family="Helvetica,sans-Serif" font-size="10.00" fill="#000000">::GunShip</text>
</a>
</g>
</g>
<!-- Node101&#45;&gt;Node102 -->
<g id="edge8" class="edge">
<title>Node101&#45;&gt;Node102</title>
<path fill="none" stroke="#191970" d="M463.1975,-70.5C474.3482,-70.5 485.6489,-70.5 496.3608,-70.5"/>
<polygon fill="#191970" stroke="#191970" points="463.0204,-67.0001 453.0203,-70.5 463.0203,-74.0001 463.0204,-67.0001"/>
</g>
<!-- Node104 -->
<g id="node11" class="node">
<title>Node104</title>
<g id="a_node11"><a xlink:href="$classAsteroids_1_1Domain_1_1Game_1_1Actors_1_1Rock.html#a8bdb717103786b8a2e30ea29db791078" xlink:title="Asteroids::Domain::\lGame::Actors::Rock::init">
<polygon fill="#ffffff" stroke="#000000" points="320.5,-.5 320.5,-30.5 445.5,-30.5 445.5,-.5 320.5,-.5"/>
<text text-anchor="start" x="328.5" y="-18.5" font-family="Helvetica,sans-Serif" font-size="10.00" fill="#000000">Asteroids::Domain::</text>
<text text-anchor="middle" x="383" y="-7.5" font-family="Helvetica,sans-Serif" font-size="10.00" fill="#000000">Game::Actors::Rock::init</text>
</a>
</g>
</g>
<!-- Node103&#45;&gt;Node104 -->
<g id="edge10" class="edge">
<title>Node103&#45;&gt;Node104</title>
<path fill="none" stroke="#191970" d="M287.4186,-15.5C298.4311,-15.5 309.6422,-15.5 320.3271,-15.5"/>
<polygon fill="#191970" stroke="#191970" points="287.3817,-12.0001 277.3817,-15.5 287.3817,-19.0001 287.3817,-12.0001"/>
</g>
<!-- Node105 -->
<g id="node12" class="node">
<title>Node105</title>
<g id="a_node12"><a xlink:href="$classAsteroids_1_1Domain_1_1Game_1_1Actors_1_1Rock.html#aef8f46670fe5751800b9d76079adb5e5" xlink:title="Asteroids::Domain::\lGame::Actors::Rock::Rock">
<polygon fill="#ffffff" stroke="#000000" points="489,-.5 489,-30.5 625,-30.5 625,-.5 489,-.5"/>
<text text-anchor="start" x="497" y="-18.5" font-family="Helvetica,sans-Serif" font-size="10.00" fill="#000000">Asteroids::Domain::</text>
<text text-anchor="middle" x="557" y="-7.5" font-family="Helvetica,sans-Serif" font-size="10.00" fill="#000000">Game::Actors::Rock::Rock</text>
</a>
</g>
</g>
<!-- Node104&#45;&gt;Node105 -->
<g id="edge11" class="edge">
<title>Node104&#45;&gt;Node105</title>
<path fill="none" stroke="#191970" d="M456.1397,-15.5C467.0243,-15.5 478.206,-15.5 488.9795,-15.5"/>
<polygon fill="#191970" stroke="#191970" points="455.818,-12.0001 445.818,-15.5 455.818,-19.0001 455.818,-12.0001"/>
</g>
</g>
</svg>
