<?xml version="1.0" encoding="UTF-8" standalone="no"?>
<!DOCTYPE svg PUBLIC "-//W3C//DTD SVG 1.1//EN"
 "http://www.w3.org/Graphics/SVG/1.1/DTD/svg11.dtd">
<!-- Generated by graphviz version 2.40.1 (20161225.0304)
 -->
<!-- Title: Asteroids::TechnicalServices::Financial::MastercardProcessor Pages: 1 -->
<svg width="169pt" height="226pt"
 viewBox="0.00 0.00 169.00 226.00" xmlns="http://www.w3.org/2000/svg" xmlns:xlink="http://www.w3.org/1999/xlink">
<g id="graph0" class="graph" transform="scale(1 1) rotate(0) translate(4 222)">
<title>Asteroids::TechnicalServices::Financial::MastercardProcessor</title>
<polygon fill="#ffffff" stroke="transparent" points="-4,4 -4,-222 165,-222 165,4 -4,4"/>
<!-- Node2 -->
<g id="node1" class="node">
<title>Node2</title>
<polygon fill="#bfbfbf" stroke="#000000" points="0,-.5 0,-90.5 161,-90.5 161,-.5 0,-.5"/>
<text text-anchor="start" x="8" y="-78.5" font-family="Helvetica,sans-Serif" font-size="10.00" fill="#000000">Asteroids::TechnicalServices</text>
<text text-anchor="middle" x="80.5" y="-67.5" font-family="Helvetica,sans-Serif" font-size="10.00" fill="#000000">::Financial::MastercardProcessor</text>
<polyline fill="none" stroke="#000000" points="0,-60.5 161,-60.5 "/>
<text text-anchor="middle" x="80.5" y="-48.5" font-family="Helvetica,sans-Serif" font-size="10.00" fill="#000000"> </text>
<polyline fill="none" stroke="#000000" points="0,-41.5 161,-41.5 "/>
<text text-anchor="start" x="8" y="-29.5" font-family="Helvetica,sans-Serif" font-size="10.00" fill="#000000">+ MastercardProcessor()</text>
<text text-anchor="start" x="8" y="-18.5" font-family="Helvetica,sans-Serif" font-size="10.00" fill="#000000">+ authorizePayment()</text>
<text text-anchor="start" x="8" y="-7.5" font-family="Helvetica,sans-Serif" font-size="10.00" fill="#000000">+ get_processor_description()</text>
</g>
<!-- Node3 -->
<g id="node2" class="node">
<title>Node3</title>
<g id="a_node2"><a xlink:href="$classAsteroids_1_1TechnicalServices_1_1Financial_1_1CreditCardProcessorInterface.html" xlink:title="{Asteroids::TechnicalServices\l::Financial::CreditCardProcessor\lInterface\n||+ authorizePayment()\l+ get_processor_description()\l}">
<polygon fill="#ffffff" stroke="#000000" points="1,-127.5 1,-217.5 160,-217.5 160,-127.5 1,-127.5"/>
<text text-anchor="start" x="9" y="-205.5" font-family="Helvetica,sans-Serif" font-size="10.00" fill="#000000">Asteroids::TechnicalServices</text>
<text text-anchor="start" x="9" y="-194.5" font-family="Helvetica,sans-Serif" font-size="10.00" fill="#000000">::Financial::CreditCardProcessor</text>
<text text-anchor="middle" x="80.5" y="-183.5" font-family="Helvetica,sans-Serif" font-size="10.00" fill="#000000">Interface</text>
<polyline fill="none" stroke="#000000" points="1,-176.5 160,-176.5 "/>
<text text-anchor="middle" x="80.5" y="-164.5" font-family="Helvetica,sans-Serif" font-size="10.00" fill="#000000"> </text>
<polyline fill="none" stroke="#000000" points="1,-157.5 160,-157.5 "/>
<text text-anchor="start" x="9" y="-145.5" font-family="Helvetica,sans-Serif" font-size="10.00" fill="#000000">+ authorizePayment()</text>
<text text-anchor="start" x="9" y="-134.5" font-family="Helvetica,sans-Serif" font-size="10.00" fill="#000000">+ get_processor_description()</text>
</a>
</g>
</g>
<!-- Node3&#45;&gt;Node2 -->
<g id="edge1" class="edge">
<title>Node3&#45;&gt;Node2</title>
<path fill="none" stroke="#191970" d="M80.5,-117.2012C80.5,-108.4232 80.5,-99.4326 80.5,-90.9156"/>
<polygon fill="none" stroke="#191970" points="77.0001,-117.3669 80.5,-127.367 84.0001,-117.367 77.0001,-117.3669"/>
</g>
</g>
</svg>
