<?xml version="1.0" encoding="UTF-8" standalone="no"?>
<!DOCTYPE svg PUBLIC "-//W3C//DTD SVG 1.1//EN"
 "http://www.w3.org/Graphics/SVG/1.1/DTD/svg11.dtd">
<!-- Generated by graphviz version 2.40.1 (20161225.0304)
 -->
<!-- Title: Asteroids::Domain::Game::Actors::Actor::fire_bullet Pages: 1 -->
<svg width="263pt" height="230pt"
 viewBox="0.00 0.00 263.00 230.00" xmlns="http://www.w3.org/2000/svg" xmlns:xlink="http://www.w3.org/1999/xlink">
<g id="graph0" class="graph" transform="scale(1 1) rotate(0) translate(4 226)">
<title>Asteroids::Domain::Game::Actors::Actor::fire_bullet</title>
<polygon fill="#ffffff" stroke="transparent" points="-4,4 -4,-226 259,-226 259,4 -4,4"/>
<!-- Node47 -->
<g id="node1" class="node">
<title>Node47</title>
<polygon fill="#bfbfbf" stroke="#000000" points="0,-90.5 0,-131.5 107,-131.5 107,-90.5 0,-90.5"/>
<text text-anchor="start" x="8" y="-119.5" font-family="Helvetica,sans-Serif" font-size="10.00" fill="#000000">Asteroids::Domain::</text>
<text text-anchor="start" x="8" y="-108.5" font-family="Helvetica,sans-Serif" font-size="10.00" fill="#000000">Game::Actors::Actor</text>
<text text-anchor="middle" x="53.5" y="-97.5" font-family="Helvetica,sans-Serif" font-size="10.00" fill="#000000">::fire_bullet</text>
</g>
<!-- Node48 -->
<g id="node2" class="node">
<title>Node48</title>
<g id="a_node2"><a xlink:href="$classAsteroids_1_1Domain_1_1Game_1_1Actors_1_1Actor.html#afa2ca9372ddf8f08de11682dae43840f" xlink:title="Asteroids::Domain::\lGame::Actors::Actor\l::get_rotation">
<polygon fill="#ffffff" stroke="#000000" points="145.5,-180.5 145.5,-221.5 252.5,-221.5 252.5,-180.5 145.5,-180.5"/>
<text text-anchor="start" x="153.5" y="-209.5" font-family="Helvetica,sans-Serif" font-size="10.00" fill="#000000">Asteroids::Domain::</text>
<text text-anchor="start" x="153.5" y="-198.5" font-family="Helvetica,sans-Serif" font-size="10.00" fill="#000000">Game::Actors::Actor</text>
<text text-anchor="middle" x="199" y="-187.5" font-family="Helvetica,sans-Serif" font-size="10.00" fill="#000000">::get_rotation</text>
</a>
</g>
</g>
<!-- Node47&#45;&gt;Node48 -->
<g id="edge1" class="edge">
<title>Node47&#45;&gt;Node48</title>
<path fill="none" stroke="#191970" d="M82.8579,-131.7485C100.1022,-143.6647 122.4772,-158.6647 143,-171 145.4372,-172.4649 147.9514,-173.9389 150.5025,-175.4055"/>
<polygon fill="#191970" stroke="#191970" points="148.829,-178.4799 159.2595,-180.3387 152.2647,-172.3811 148.829,-178.4799"/>
</g>
<!-- Node49 -->
<g id="node3" class="node">
<title>Node49</title>
<g id="a_node3"><a xlink:href="$classAsteroids_1_1Domain_1_1Game_1_1Actors_1_1Actor.html#a6b56087b412883601fce5af07d67bd50" xlink:title="Asteroids::Domain::\lGame::Actors::Actor\l::get_x">
<polygon fill="#ffffff" stroke="#000000" points="145.5,-120.5 145.5,-161.5 252.5,-161.5 252.5,-120.5 145.5,-120.5"/>
<text text-anchor="start" x="153.5" y="-149.5" font-family="Helvetica,sans-Serif" font-size="10.00" fill="#000000">Asteroids::Domain::</text>
<text text-anchor="start" x="153.5" y="-138.5" font-family="Helvetica,sans-Serif" font-size="10.00" fill="#000000">Game::Actors::Actor</text>
<text text-anchor="middle" x="199" y="-127.5" font-family="Helvetica,sans-Serif" font-size="10.00" fill="#000000">::get_x</text>
</a>
</g>
</g>
<!-- Node47&#45;&gt;Node49 -->
<g id="edge2" class="edge">
<title>Node47&#45;&gt;Node49</title>
<path fill="none" stroke="#191970" d="M107.2654,-122.0857C116.4206,-123.9733 126.0071,-125.9499 135.3876,-127.884"/>
<polygon fill="#191970" stroke="#191970" points="134.9548,-131.3683 145.4555,-129.9599 136.3684,-124.5126 134.9548,-131.3683"/>
</g>
<!-- Node50 -->
<g id="node4" class="node">
<title>Node50</title>
<g id="a_node4"><a xlink:href="$classAsteroids_1_1Domain_1_1Game_1_1Actors_1_1Actor.html#afa54aab6e7be56e04014dd3f80f0e7af" xlink:title="Asteroids::Domain::\lGame::Actors::Actor\l::get_y">
<polygon fill="#ffffff" stroke="#000000" points="145.5,-60.5 145.5,-101.5 252.5,-101.5 252.5,-60.5 145.5,-60.5"/>
<text text-anchor="start" x="153.5" y="-89.5" font-family="Helvetica,sans-Serif" font-size="10.00" fill="#000000">Asteroids::Domain::</text>
<text text-anchor="start" x="153.5" y="-78.5" font-family="Helvetica,sans-Serif" font-size="10.00" fill="#000000">Game::Actors::Actor</text>
<text text-anchor="middle" x="199" y="-67.5" font-family="Helvetica,sans-Serif" font-size="10.00" fill="#000000">::get_y</text>
</a>
</g>
</g>
<!-- Node47&#45;&gt;Node50 -->
<g id="edge3" class="edge">
<title>Node47&#45;&gt;Node50</title>
<path fill="none" stroke="#191970" d="M107.2654,-99.9143C116.4206,-98.0267 126.0071,-96.0501 135.3876,-94.116"/>
<polygon fill="#191970" stroke="#191970" points="136.3684,-97.4874 145.4555,-92.0401 134.9548,-90.6317 136.3684,-97.4874"/>
</g>
<!-- Node51 -->
<g id="node5" class="node">
<title>Node51</title>
<g id="a_node5"><a xlink:href="$classAsteroids_1_1Domain_1_1Game_1_1Actors_1_1Vector.html#a540d3867c26c3cc6dafeb7a055cd392d" xlink:title="Asteroids::Domain::\lGame::Actors::Vector\l::rotate_velocity">
<polygon fill="#ffffff" stroke="#000000" points="143,-.5 143,-41.5 255,-41.5 255,-.5 143,-.5"/>
<text text-anchor="start" x="151" y="-29.5" font-family="Helvetica,sans-Serif" font-size="10.00" fill="#000000">Asteroids::Domain::</text>
<text text-anchor="start" x="151" y="-18.5" font-family="Helvetica,sans-Serif" font-size="10.00" fill="#000000">Game::Actors::Vector</text>
<text text-anchor="middle" x="199" y="-7.5" font-family="Helvetica,sans-Serif" font-size="10.00" fill="#000000">::rotate_velocity</text>
</a>
</g>
</g>
<!-- Node47&#45;&gt;Node51 -->
<g id="edge4" class="edge">
<title>Node47&#45;&gt;Node51</title>
<path fill="none" stroke="#191970" d="M82.8579,-90.2515C100.1022,-78.3353 122.4772,-63.3353 143,-51 145.4372,-49.5351 147.9514,-48.0611 150.5025,-46.5945"/>
<polygon fill="#191970" stroke="#191970" points="152.2647,-49.6189 159.2595,-41.6613 148.829,-43.5201 152.2647,-49.6189"/>
</g>
</g>
</svg>
