<?xml version="1.0" encoding="UTF-8" standalone="no"?>
<!DOCTYPE svg PUBLIC "-//W3C//DTD SVG 1.1//EN"
 "http://www.w3.org/Graphics/SVG/1.1/DTD/svg11.dtd">
<!-- Generated by graphviz version 2.40.1 (20161225.0304)
 -->
<!-- Title: Asteroids::Domain::Server::ServerDaemon::require_restart Pages: 1 -->
<svg width="276pt" height="50pt"
 viewBox="0.00 0.00 276.00 50.00" xmlns="http://www.w3.org/2000/svg" xmlns:xlink="http://www.w3.org/1999/xlink">
<g id="graph0" class="graph" transform="scale(1 1) rotate(0) translate(4 46)">
<title>Asteroids::Domain::Server::ServerDaemon::require_restart</title>
<polygon fill="#ffffff" stroke="transparent" points="-4,4 -4,-46 272,-46 272,4 -4,4"/>
<!-- Node23 -->
<g id="node1" class="node">
<title>Node23</title>
<polygon fill="#bfbfbf" stroke="#000000" points="0,-.5 0,-41.5 116,-41.5 116,-.5 0,-.5"/>
<text text-anchor="start" x="8" y="-29.5" font-family="Helvetica,sans-Serif" font-size="10.00" fill="#000000">Asteroids::Domain::</text>
<text text-anchor="start" x="8" y="-18.5" font-family="Helvetica,sans-Serif" font-size="10.00" fill="#000000">Server::ServerDaemon</text>
<text text-anchor="middle" x="58" y="-7.5" font-family="Helvetica,sans-Serif" font-size="10.00" fill="#000000">::require_restart</text>
</g>
<!-- Node24 -->
<g id="node2" class="node">
<title>Node24</title>
<g id="a_node2"><a xlink:href="$classAsteroids_1_1Domain_1_1Server_1_1ServerDaemon.html#ad5e5e845e150a331cdb6703d8b8ba94f" xlink:title="Asteroids::Domain::\lServer::ServerDaemon\l::apply_updates">
<polygon fill="#ffffff" stroke="#000000" points="152,-.5 152,-41.5 268,-41.5 268,-.5 152,-.5"/>
<text text-anchor="start" x="160" y="-29.5" font-family="Helvetica,sans-Serif" font-size="10.00" fill="#000000">Asteroids::Domain::</text>
<text text-anchor="start" x="160" y="-18.5" font-family="Helvetica,sans-Serif" font-size="10.00" fill="#000000">Server::ServerDaemon</text>
<text text-anchor="middle" x="210" y="-7.5" font-family="Helvetica,sans-Serif" font-size="10.00" fill="#000000">::apply_updates</text>
</a>
</g>
</g>
<!-- Node23&#45;&gt;Node24 -->
<g id="edge1" class="edge">
<title>Node23&#45;&gt;Node24</title>
<path fill="none" stroke="#191970" d="M126.5423,-21C134.9862,-21 143.5541,-21 151.8236,-21"/>
<polygon fill="#191970" stroke="#191970" points="126.3325,-17.5001 116.3325,-21 126.3324,-24.5001 126.3325,-17.5001"/>
</g>
</g>
</svg>
