<?xml version="1.0" encoding="UTF-8" standalone="no"?>
<!DOCTYPE svg PUBLIC "-//W3C//DTD SVG 1.1//EN"
 "http://www.w3.org/Graphics/SVG/1.1/DTD/svg11.dtd">
<!-- Generated by graphviz version 2.40.1 (20161225.0304)
 -->
<!-- Title: Asteroids::UI::ClientTextUI::ClientTextUI::demand_authentication Pages: 1 -->
<svg width="505pt" height="110pt"
 viewBox="0.00 0.00 505.00 110.00" xmlns="http://www.w3.org/2000/svg" xmlns:xlink="http://www.w3.org/1999/xlink">
<g id="graph0" class="graph" transform="scale(1 1) rotate(0) translate(4 106)">
<title>Asteroids::UI::ClientTextUI::ClientTextUI::demand_authentication</title>
<polygon fill="#ffffff" stroke="transparent" points="-4,4 -4,-106 501,-106 501,4 -4,4"/>
<!-- Node4 -->
<g id="node1" class="node">
<title>Node4</title>
<polygon fill="#bfbfbf" stroke="#000000" points="0,-44 0,-85 129,-85 129,-44 0,-44"/>
<text text-anchor="start" x="8" y="-73" font-family="Helvetica,sans-Serif" font-size="10.00" fill="#000000">Asteroids::UI::ClientText</text>
<text text-anchor="start" x="8" y="-62" font-family="Helvetica,sans-Serif" font-size="10.00" fill="#000000">UI::ClientTextUI::demand</text>
<text text-anchor="middle" x="64.5" y="-51" font-family="Helvetica,sans-Serif" font-size="10.00" fill="#000000">_authentication</text>
</g>
<!-- Node5 -->
<g id="node2" class="node">
<title>Node5</title>
<g id="a_node2"><a xlink:href="$classAsteroids_1_1UI_1_1ClientTextUI_1_1ClientTextUI.html#a96251b4d6623fda575f39b84677b0ed5" xlink:title="Asteroids::UI::ClientText\lUI::ClientTextUI::do_authentication">
<polygon fill="#ffffff" stroke="#000000" points="165,-27.5 165,-57.5 336,-57.5 336,-27.5 165,-27.5"/>
<text text-anchor="start" x="173" y="-45.5" font-family="Helvetica,sans-Serif" font-size="10.00" fill="#000000">Asteroids::UI::ClientText</text>
<text text-anchor="middle" x="250.5" y="-34.5" font-family="Helvetica,sans-Serif" font-size="10.00" fill="#000000">UI::ClientTextUI::do_authentication</text>
</a>
</g>
</g>
<!-- Node4&#45;&gt;Node5 -->
<g id="edge1" class="edge">
<title>Node4&#45;&gt;Node5</title>
<path fill="none" stroke="#191970" d="M129.0318,-56.8672C137.3273,-55.886 145.9574,-54.8653 154.6207,-53.8406"/>
<polygon fill="#191970" stroke="#191970" points="155.2684,-57.2884 164.7881,-52.638 154.4461,-50.3369 155.2684,-57.2884"/>
</g>
<!-- Node6 -->
<g id="node3" class="node">
<title>Node6</title>
<g id="a_node3"><a xlink:href="$classAsteroids_1_1UI_1_1ClientTextUI_1_1ClientTextUI.html#a41f904ea570af3e3a8c4d70da8411ef3" xlink:title="Asteroids::UI::ClientText\lUI::ClientTextUI::print">
<polygon fill="#ffffff" stroke="#000000" points="372,-71.5 372,-101.5 497,-101.5 497,-71.5 372,-71.5"/>
<text text-anchor="start" x="380" y="-89.5" font-family="Helvetica,sans-Serif" font-size="10.00" fill="#000000">Asteroids::UI::ClientText</text>
<text text-anchor="middle" x="434.5" y="-78.5" font-family="Helvetica,sans-Serif" font-size="10.00" fill="#000000">UI::ClientTextUI::print</text>
</a>
</g>
</g>
<!-- Node4&#45;&gt;Node6 -->
<g id="edge4" class="edge">
<title>Node4&#45;&gt;Node6</title>
<path fill="none" stroke="#191970" d="M129.3725,-68.3573C194.3284,-72.2195 294.0939,-78.1515 361.7136,-82.1722"/>
<polygon fill="#191970" stroke="#191970" points="361.674,-85.6759 371.8642,-82.7757 362.0896,-78.6882 361.674,-85.6759"/>
</g>
<!-- Node5&#45;&gt;Node6 -->
<g id="edge2" class="edge">
<title>Node5&#45;&gt;Node6</title>
<path fill="none" stroke="#191970" d="M313.3077,-57.5192C328.9988,-61.2714 345.9537,-65.3259 362.0688,-69.1795"/>
<polygon fill="#191970" stroke="#191970" points="361.4355,-72.6267 371.9753,-71.5484 363.0636,-65.8186 361.4355,-72.6267"/>
</g>
<!-- Node7 -->
<g id="node4" class="node">
<title>Node7</title>
<g id="a_node4"><a xlink:href="$classAsteroids_1_1Domain_1_1Net_1_1Authentication_1_1AuthenticationInterface.html#a2358abf451a5aa6df9d29e9dfda2898c" xlink:title="Asteroids::Domain::\lNet::Authentication\l::AuthenticationInterface\l::attemptLogin">
<polygon fill="#ffffff" stroke="#000000" points="373,-.5 373,-52.5 496,-52.5 496,-.5 373,-.5"/>
<text text-anchor="start" x="381" y="-40.5" font-family="Helvetica,sans-Serif" font-size="10.00" fill="#000000">Asteroids::Domain::</text>
<text text-anchor="start" x="381" y="-29.5" font-family="Helvetica,sans-Serif" font-size="10.00" fill="#000000">Net::Authentication</text>
<text text-anchor="start" x="381" y="-18.5" font-family="Helvetica,sans-Serif" font-size="10.00" fill="#000000">::AuthenticationInterface</text>
<text text-anchor="middle" x="434.5" y="-7.5" font-family="Helvetica,sans-Serif" font-size="10.00" fill="#000000">::attemptLogin</text>
</a>
</g>
</g>
<!-- Node5&#45;&gt;Node7 -->
<g id="edge3" class="edge">
<title>Node5&#45;&gt;Node7</title>
<path fill="none" stroke="#191970" d="M336.036,-35.0621C344.9399,-34.2878 353.9249,-33.5065 362.6552,-32.7474"/>
<polygon fill="#191970" stroke="#191970" points="363.1077,-36.2213 372.7668,-31.8681 362.5012,-29.2476 363.1077,-36.2213"/>
</g>
</g>
</svg>
