<?xml version="1.0" encoding="UTF-8" standalone="no"?>
<!DOCTYPE svg PUBLIC "-//W3C//DTD SVG 1.1//EN"
 "http://www.w3.org/Graphics/SVG/1.1/DTD/svg11.dtd">
<!-- Generated by graphviz version 2.40.1 (20161225.0304)
 -->
<!-- Title: Asteroids::UI::ClientTextUI::ClientTextUI::review_game_history Pages: 1 -->
<svg width="570pt" height="110pt"
 viewBox="0.00 0.00 570.00 110.00" xmlns="http://www.w3.org/2000/svg" xmlns:xlink="http://www.w3.org/1999/xlink">
<g id="graph0" class="graph" transform="scale(1 1) rotate(0) translate(4 106)">
<title>Asteroids::UI::ClientTextUI::ClientTextUI::review_game_history</title>
<polygon fill="#ffffff" stroke="transparent" points="-4,4 -4,-106 566,-106 566,4 -4,4"/>
<!-- Node132 -->
<g id="node1" class="node">
<title>Node132</title>
<polygon fill="#bfbfbf" stroke="#000000" points="0,-41 0,-82 125,-82 125,-41 0,-41"/>
<text text-anchor="start" x="8" y="-70" font-family="Helvetica,sans-Serif" font-size="10.00" fill="#000000">Asteroids::UI::ClientText</text>
<text text-anchor="start" x="8" y="-59" font-family="Helvetica,sans-Serif" font-size="10.00" fill="#000000">UI::ClientTextUI::review</text>
<text text-anchor="middle" x="62.5" y="-48" font-family="Helvetica,sans-Serif" font-size="10.00" fill="#000000">_game_history</text>
</g>
<!-- Node133 -->
<g id="node2" class="node">
<title>Node133</title>
<g id="a_node2"><a xlink:href="$classAsteroids_1_1UI_1_1ClientTextUI_1_1ClientTextUI.html#a41f904ea570af3e3a8c4d70da8411ef3" xlink:title="Asteroids::UI::ClientText\lUI::ClientTextUI::print">
<polygon fill="#ffffff" stroke="#000000" points="408.5,-71.5 408.5,-101.5 533.5,-101.5 533.5,-71.5 408.5,-71.5"/>
<text text-anchor="start" x="416.5" y="-89.5" font-family="Helvetica,sans-Serif" font-size="10.00" fill="#000000">Asteroids::UI::ClientText</text>
<text text-anchor="middle" x="471" y="-78.5" font-family="Helvetica,sans-Serif" font-size="10.00" fill="#000000">UI::ClientTextUI::print</text>
</a>
</g>
</g>
<!-- Node132&#45;&gt;Node133 -->
<g id="edge1" class="edge">
<title>Node132&#45;&gt;Node133</title>
<path fill="none" stroke="#191970" d="M125.4329,-65.3515C199.0062,-69.8541 320.5627,-77.2933 398.1542,-82.0419"/>
<polygon fill="#191970" stroke="#191970" points="398.136,-85.5472 408.3311,-82.6647 398.5636,-78.5603 398.136,-85.5472"/>
</g>
<!-- Node134 -->
<g id="node3" class="node">
<title>Node134</title>
<g id="a_node3"><a xlink:href="$classAsteroids_1_1UI_1_1ClientTextUI_1_1ClientTextUI.html#ab0a3f9e22046b77a85dc7771d3502365" xlink:title="Asteroids::UI::ClientText\lUI::ClientTextUI::share\l_game_history_entry_to_social_media">
<polygon fill="#ffffff" stroke="#000000" points="161,-17 161,-58 344,-58 344,-17 161,-17"/>
<text text-anchor="start" x="169" y="-46" font-family="Helvetica,sans-Serif" font-size="10.00" fill="#000000">Asteroids::UI::ClientText</text>
<text text-anchor="start" x="169" y="-35" font-family="Helvetica,sans-Serif" font-size="10.00" fill="#000000">UI::ClientTextUI::share</text>
<text text-anchor="middle" x="252.5" y="-24" font-family="Helvetica,sans-Serif" font-size="10.00" fill="#000000">_game_history_entry_to_social_media</text>
</a>
</g>
</g>
<!-- Node132&#45;&gt;Node134 -->
<g id="edge2" class="edge">
<title>Node132&#45;&gt;Node134</title>
<path fill="none" stroke="#191970" d="M125.2397,-53.575C133.4749,-52.5348 142.0771,-51.4482 150.7548,-50.352"/>
<polygon fill="#191970" stroke="#191970" points="151.4762,-53.7888 160.9588,-49.0631 150.5989,-46.844 151.4762,-53.7888"/>
</g>
<!-- Node134&#45;&gt;Node133 -->
<g id="edge3" class="edge">
<title>Node134&#45;&gt;Node133</title>
<path fill="none" stroke="#191970" d="M344.214,-58.0674C362.2749,-62.1177 380.9923,-66.3152 398.3219,-70.2015"/>
<polygon fill="#191970" stroke="#191970" points="397.826,-73.6771 408.3495,-72.4502 399.3578,-66.8468 397.826,-73.6771"/>
</g>
<!-- Node135 -->
<g id="node4" class="node">
<title>Node135</title>
<g id="a_node4"><a xlink:href="$classAsteroids_1_1Domain_1_1Net_1_1ClientServerCommunicatorInterface.html#a99c8f2baa739330f44096da950a1d145" xlink:title="Asteroids::Domain::\lNet::ClientServerCommunicator\lInterface::notifyServerOfGameHistory\lEntrySocialMediaShare">
<polygon fill="#ffffff" stroke="#000000" points="380,-.5 380,-52.5 562,-52.5 562,-.5 380,-.5"/>
<text text-anchor="start" x="388" y="-40.5" font-family="Helvetica,sans-Serif" font-size="10.00" fill="#000000">Asteroids::Domain::</text>
<text text-anchor="start" x="388" y="-29.5" font-family="Helvetica,sans-Serif" font-size="10.00" fill="#000000">Net::ClientServerCommunicator</text>
<text text-anchor="start" x="388" y="-18.5" font-family="Helvetica,sans-Serif" font-size="10.00" fill="#000000">Interface::notifyServerOfGameHistory</text>
<text text-anchor="middle" x="471" y="-7.5" font-family="Helvetica,sans-Serif" font-size="10.00" fill="#000000">EntrySocialMediaShare</text>
</a>
</g>
</g>
<!-- Node134&#45;&gt;Node135 -->
<g id="edge4" class="edge">
<title>Node134&#45;&gt;Node135</title>
<path fill="none" stroke="#191970" d="M344.214,-32.8828C352.6919,-32.456 361.3146,-32.0219 369.8705,-31.5912"/>
<polygon fill="#191970" stroke="#191970" points="370.0596,-35.0862 379.871,-31.0877 369.7076,-28.095 370.0596,-35.0862"/>
</g>
</g>
</svg>
