<?xml version="1.0" encoding="UTF-8" standalone="no"?>
<!DOCTYPE svg PUBLIC "-//W3C//DTD SVG 1.1//EN"
 "http://www.w3.org/Graphics/SVG/1.1/DTD/svg11.dtd">
<!-- Generated by graphviz version 2.40.1 (20161225.0304)
 -->
<!-- Title: Asteroids::Domain::Game::Actors::Bullet::reset Pages: 1 -->
<svg width="423pt" height="50pt"
 viewBox="0.00 0.00 423.00 50.00" xmlns="http://www.w3.org/2000/svg" xmlns:xlink="http://www.w3.org/1999/xlink">
<g id="graph0" class="graph" transform="scale(1 1) rotate(0) translate(4 46)">
<title>Asteroids::Domain::Game::Actors::Bullet::reset</title>
<polygon fill="#ffffff" stroke="transparent" points="-4,4 -4,-46 419,-46 419,4 -4,4"/>
<!-- Node48 -->
<g id="node1" class="node">
<title>Node48</title>
<polygon fill="#bfbfbf" stroke="#000000" points="0,-.5 0,-41.5 108,-41.5 108,-.5 0,-.5"/>
<text text-anchor="start" x="8" y="-29.5" font-family="Helvetica,sans-Serif" font-size="10.00" fill="#000000">Asteroids::Domain::</text>
<text text-anchor="start" x="8" y="-18.5" font-family="Helvetica,sans-Serif" font-size="10.00" fill="#000000">Game::Actors::Bullet</text>
<text text-anchor="middle" x="54" y="-7.5" font-family="Helvetica,sans-Serif" font-size="10.00" fill="#000000">::reset</text>
</g>
<!-- Node49 -->
<g id="node2" class="node">
<title>Node49</title>
<g id="a_node2"><a xlink:href="$classAsteroids_1_1Domain_1_1Game_1_1Actors_1_1Bullet.html#a1c7b384d298439c581d97f996f067985" xlink:title="Asteroids::Domain::\lGame::Actors::Bullet::init">
<polygon fill="#ffffff" stroke="#000000" points="144,-6 144,-36 271,-36 271,-6 144,-6"/>
<text text-anchor="start" x="152" y="-24" font-family="Helvetica,sans-Serif" font-size="10.00" fill="#000000">Asteroids::Domain::</text>
<text text-anchor="middle" x="207.5" y="-13" font-family="Helvetica,sans-Serif" font-size="10.00" fill="#000000">Game::Actors::Bullet::init</text>
</a>
</g>
</g>
<!-- Node48&#45;&gt;Node49 -->
<g id="edge1" class="edge">
<title>Node48&#45;&gt;Node49</title>
<path fill="none" stroke="#191970" d="M118.3086,-21C126.7706,-21 135.4398,-21 143.89,-21"/>
<polygon fill="#191970" stroke="#191970" points="118.1184,-17.5001 108.1184,-21 118.1183,-24.5001 118.1184,-17.5001"/>
</g>
<!-- Node50 -->
<g id="node3" class="node">
<title>Node50</title>
<g id="a_node3"><a xlink:href="$classAsteroids_1_1Domain_1_1Game_1_1Actors_1_1Bullet.html#a48557011de2d1939a8b5f7fe7e9fccda" xlink:title="Asteroids::Domain::\lGame::Actors::Bullet\l::Bullet">
<polygon fill="#ffffff" stroke="#000000" points="307,-.5 307,-41.5 415,-41.5 415,-.5 307,-.5"/>
<text text-anchor="start" x="315" y="-29.5" font-family="Helvetica,sans-Serif" font-size="10.00" fill="#000000">Asteroids::Domain::</text>
<text text-anchor="start" x="315" y="-18.5" font-family="Helvetica,sans-Serif" font-size="10.00" fill="#000000">Game::Actors::Bullet</text>
<text text-anchor="middle" x="361" y="-7.5" font-family="Helvetica,sans-Serif" font-size="10.00" fill="#000000">::Bullet</text>
</a>
</g>
</g>
<!-- Node49&#45;&gt;Node50 -->
<g id="edge2" class="edge">
<title>Node49&#45;&gt;Node50</title>
<path fill="none" stroke="#191970" d="M281.3473,-21C289.978,-21 298.6578,-21 306.9491,-21"/>
<polygon fill="#191970" stroke="#191970" points="281.2643,-17.5001 271.2643,-21 281.2642,-24.5001 281.2643,-17.5001"/>
</g>
</g>
</svg>
