<?xml version="1.0" encoding="UTF-8" standalone="no"?>
<!DOCTYPE svg PUBLIC "-//W3C//DTD SVG 1.1//EN"
 "http://www.w3.org/Graphics/SVG/1.1/DTD/svg11.dtd">
<!-- Generated by graphviz version 2.40.1 (20161225.0304)
 -->
<!-- Title: Asteroids::Domain::Game::Game::calculate_ticks_since_last_update Pages: 1 -->
<svg width="433pt" height="74pt"
 viewBox="0.00 0.00 433.00 74.00" xmlns="http://www.w3.org/2000/svg" xmlns:xlink="http://www.w3.org/1999/xlink">
<g id="graph0" class="graph" transform="scale(1 1) rotate(0) translate(4 70)">
<title>Asteroids::Domain::Game::Game::calculate_ticks_since_last_update</title>
<polygon fill="#ffffff" stroke="transparent" points="-4,4 -4,-70 429,-70 429,4 -4,4"/>
<!-- Node6 -->
<g id="node1" class="node">
<title>Node6</title>
<polygon fill="#bfbfbf" stroke="#000000" points="0,-24.5 0,-65.5 127,-65.5 127,-24.5 0,-24.5"/>
<text text-anchor="start" x="8" y="-53.5" font-family="Helvetica,sans-Serif" font-size="10.00" fill="#000000">Asteroids::Domain::</text>
<text text-anchor="start" x="8" y="-42.5" font-family="Helvetica,sans-Serif" font-size="10.00" fill="#000000">Game::Game::calculate</text>
<text text-anchor="middle" x="63.5" y="-31.5" font-family="Helvetica,sans-Serif" font-size="10.00" fill="#000000">_ticks_since_last_update</text>
</g>
<!-- Node7 -->
<g id="node2" class="node">
<title>Node7</title>
<g id="a_node2"><a xlink:href="$classAsteroids_1_1Domain_1_1Game_1_1Game.html#aa63114be578393b0113f116798346ac4" xlink:title="Asteroids::Domain::\lGame::Game::update">
<polygon fill="#ffffff" stroke="#000000" points="315,-30 315,-60 425,-60 425,-30 315,-30"/>
<text text-anchor="start" x="323" y="-48" font-family="Helvetica,sans-Serif" font-size="10.00" fill="#000000">Asteroids::Domain::</text>
<text text-anchor="middle" x="370" y="-37" font-family="Helvetica,sans-Serif" font-size="10.00" fill="#000000">Game::Game::update</text>
</a>
</g>
</g>
<!-- Node6&#45;&gt;Node7 -->
<g id="edge1" class="edge">
<title>Node6&#45;&gt;Node7</title>
<path fill="none" stroke="#191970" d="M137.2895,-49.9467C145.9531,-50.3802 154.67,-50.7491 163,-51 214.5322,-52.5523 227.4724,-52.6969 279,-51 290.5518,-50.6196 302.915,-49.9682 314.6876,-49.2314"/>
<polygon fill="#191970" stroke="#191970" points="137.3412,-46.4447 127.1702,-49.4113 136.9713,-53.4349 137.3412,-46.4447"/>
</g>
<!-- Node8 -->
<g id="node3" class="node">
<title>Node8</title>
<g id="a_node3"><a xlink:href="$classAsteroids_1_1Domain_1_1Game_1_1Game.html#ab586cddf7972dbb9313ad3b241b550b4" xlink:title="Implement GameInterface methods. ">
<polygon fill="#ffffff" stroke="#000000" points="163,-.5 163,-41.5 279,-41.5 279,-.5 163,-.5"/>
<text text-anchor="start" x="171" y="-29.5" font-family="Helvetica,sans-Serif" font-size="10.00" fill="#000000">Asteroids::Domain::</text>
<text text-anchor="start" x="171" y="-18.5" font-family="Helvetica,sans-Serif" font-size="10.00" fill="#000000">Game::Game::wait_for</text>
<text text-anchor="middle" x="221" y="-7.5" font-family="Helvetica,sans-Serif" font-size="10.00" fill="#000000">_frames_per_second</text>
</a>
</g>
</g>
<!-- Node6&#45;&gt;Node8 -->
<g id="edge2" class="edge">
<title>Node6&#45;&gt;Node8</title>
<path fill="none" stroke="#191970" d="M137.135,-33.7794C145.7301,-32.4697 154.4067,-31.1475 162.7531,-29.8757"/>
<polygon fill="#191970" stroke="#191970" points="136.4659,-30.3409 127.1073,-35.3075 137.5205,-37.261 136.4659,-30.3409"/>
</g>
<!-- Node8&#45;&gt;Node7 -->
<g id="edge3" class="edge">
<title>Node8&#45;&gt;Node7</title>
<path fill="none" stroke="#191970" d="M289.071,-31.9644C297.69,-33.3528 306.4247,-34.7597 314.809,-36.1102"/>
<polygon fill="#191970" stroke="#191970" points="289.4633,-28.4826 279.0339,-30.3477 288.3501,-35.3935 289.4633,-28.4826"/>
</g>
</g>
</svg>
