<?xml version="1.0" encoding="UTF-8" standalone="no"?>
<!DOCTYPE svg PUBLIC "-//W3C//DTD SVG 1.1//EN"
 "http://www.w3.org/Graphics/SVG/1.1/DTD/svg11.dtd">
<!-- Generated by graphviz version 2.40.1 (20161225.0304)
 -->
<!-- Title: Asteroids::UI::ClientTextUI::DisplayGrid::init Pages: 1 -->
<svg width="987pt" height="133pt"
 viewBox="0.00 0.00 987.00 133.00" xmlns="http://www.w3.org/2000/svg" xmlns:xlink="http://www.w3.org/1999/xlink">
<g id="graph0" class="graph" transform="scale(1 1) rotate(0) translate(4 129)">
<title>Asteroids::UI::ClientTextUI::DisplayGrid::init</title>
<polygon fill="#ffffff" stroke="transparent" points="-4,4 -4,-129 983,-129 983,4 -4,4"/>
<!-- Node52 -->
<g id="node1" class="node">
<title>Node52</title>
<polygon fill="#bfbfbf" stroke="#000000" points="0,-33 0,-63 125,-63 125,-33 0,-33"/>
<text text-anchor="start" x="8" y="-51" font-family="Helvetica,sans-Serif" font-size="10.00" fill="#000000">Asteroids::UI::ClientText</text>
<text text-anchor="middle" x="62.5" y="-40" font-family="Helvetica,sans-Serif" font-size="10.00" fill="#000000">UI::DisplayGrid::init</text>
</g>
<!-- Node53 -->
<g id="node2" class="node">
<title>Node53</title>
<g id="a_node2"><a xlink:href="$classAsteroids_1_1UI_1_1ClientTextUI_1_1DisplayGrid.html#a118e0cad34b68aae5b178bd8e2b344c5" xlink:title="Asteroids::UI::ClientText\lUI::DisplayGrid::reset">
<polygon fill="#ffffff" stroke="#000000" points="161,-33 161,-63 286,-63 286,-33 161,-33"/>
<text text-anchor="start" x="169" y="-51" font-family="Helvetica,sans-Serif" font-size="10.00" fill="#000000">Asteroids::UI::ClientText</text>
<text text-anchor="middle" x="223.5" y="-40" font-family="Helvetica,sans-Serif" font-size="10.00" fill="#000000">UI::DisplayGrid::reset</text>
</a>
</g>
</g>
<!-- Node52&#45;&gt;Node53 -->
<g id="edge1" class="edge">
<title>Node52&#45;&gt;Node53</title>
<path fill="none" stroke="#191970" d="M125.2078,-48C133.6481,-48 142.3631,-48 150.9559,-48"/>
<polygon fill="#191970" stroke="#191970" points="150.9634,-51.5001 160.9633,-48 150.9633,-44.5001 150.9634,-51.5001"/>
</g>
<!-- Node54 -->
<g id="node3" class="node">
<title>Node54</title>
<g id="a_node3"><a xlink:href="$classAsteroids_1_1UI_1_1ClientTextUI_1_1DisplayGrid.html#aa5b4f98a3eae7f672021228e5f484f54" xlink:title="Asteroids::UI::ClientText\lUI::DisplayGrid::clear_grid">
<polygon fill="#ffffff" stroke="#000000" points="322,-61 322,-91 454,-91 454,-61 322,-61"/>
<text text-anchor="start" x="330" y="-79" font-family="Helvetica,sans-Serif" font-size="10.00" fill="#000000">Asteroids::UI::ClientText</text>
<text text-anchor="middle" x="388" y="-68" font-family="Helvetica,sans-Serif" font-size="10.00" fill="#000000">UI::DisplayGrid::clear_grid</text>
</a>
</g>
</g>
<!-- Node53&#45;&gt;Node54 -->
<g id="edge2" class="edge">
<title>Node53&#45;&gt;Node54</title>
<path fill="none" stroke="#191970" d="M286.1597,-58.6655C294.5782,-60.0984 303.2874,-61.5808 311.906,-63.0478"/>
<polygon fill="#191970" stroke="#191970" points="311.5134,-66.5313 321.9589,-64.759 312.6881,-59.6305 311.5134,-66.5313"/>
</g>
<!-- Node59 -->
<g id="node8" class="node">
<title>Node59</title>
<g id="a_node8"><a xlink:href="$classAsteroids_1_1UI_1_1ClientTextUI_1_1DisplayGrid.html#aba2b6b3d0cef0cff63f709207652cf44" xlink:title="Asteroids::UI::ClientText\lUI::DisplayGrid::calculate\l_translation">
<polygon fill="#ffffff" stroke="#000000" points="323.5,-.5 323.5,-41.5 452.5,-41.5 452.5,-.5 323.5,-.5"/>
<text text-anchor="start" x="331.5" y="-29.5" font-family="Helvetica,sans-Serif" font-size="10.00" fill="#000000">Asteroids::UI::ClientText</text>
<text text-anchor="start" x="331.5" y="-18.5" font-family="Helvetica,sans-Serif" font-size="10.00" fill="#000000">UI::DisplayGrid::calculate</text>
<text text-anchor="middle" x="388" y="-7.5" font-family="Helvetica,sans-Serif" font-size="10.00" fill="#000000">_translation</text>
</a>
</g>
</g>
<!-- Node53&#45;&gt;Node59 -->
<g id="edge7" class="edge">
<title>Node53&#45;&gt;Node59</title>
<path fill="none" stroke="#191970" d="M286.1597,-37.7154C294.9995,-36.2645 304.1599,-34.761 313.1993,-33.2773"/>
<polygon fill="#191970" stroke="#191970" points="314.0291,-36.688 323.3302,-31.6145 312.8953,-29.7805 314.0291,-36.688"/>
</g>
<!-- Node55 -->
<g id="node4" class="node">
<title>Node55</title>
<g id="a_node4"><a xlink:href="$classAsteroids_1_1UI_1_1ClientTextUI_1_1DisplayGrid.html#a8c7048980c9b3443b5cfa20dd16c6935" xlink:title="Asteroids::UI::ClientText\lUI::DisplayGrid::add_border">
<polygon fill="#ffffff" stroke="#000000" points="490,-61 490,-91 628,-91 628,-61 490,-61"/>
<text text-anchor="start" x="498" y="-79" font-family="Helvetica,sans-Serif" font-size="10.00" fill="#000000">Asteroids::UI::ClientText</text>
<text text-anchor="middle" x="559" y="-68" font-family="Helvetica,sans-Serif" font-size="10.00" fill="#000000">UI::DisplayGrid::add_border</text>
</a>
</g>
</g>
<!-- Node54&#45;&gt;Node55 -->
<g id="edge3" class="edge">
<title>Node54&#45;&gt;Node55</title>
<path fill="none" stroke="#191970" d="M454.1131,-76C462.5569,-76 471.267,-76 479.8899,-76"/>
<polygon fill="#191970" stroke="#191970" points="479.9513,-79.5001 489.9512,-76 479.9512,-72.5001 479.9513,-79.5001"/>
</g>
<!-- Node56 -->
<g id="node5" class="node">
<title>Node56</title>
<g id="a_node5"><a xlink:href="$classAsteroids_1_1UI_1_1ClientTextUI_1_1DisplayGrid.html#a3f77a0874f78d753020e8ba12081bd85" xlink:title="Asteroids::UI::ClientText\lUI::DisplayGrid::set_pixel">
<polygon fill="#ffffff" stroke="#000000" points="664,-61 664,-91 793,-91 793,-61 664,-61"/>
<text text-anchor="start" x="672" y="-79" font-family="Helvetica,sans-Serif" font-size="10.00" fill="#000000">Asteroids::UI::ClientText</text>
<text text-anchor="middle" x="728.5" y="-68" font-family="Helvetica,sans-Serif" font-size="10.00" fill="#000000">UI::DisplayGrid::set_pixel</text>
</a>
</g>
</g>
<!-- Node55&#45;&gt;Node56 -->
<g id="edge4" class="edge">
<title>Node55&#45;&gt;Node56</title>
<path fill="none" stroke="#191970" d="M628.4312,-76C636.7509,-76 645.2743,-76 653.6663,-76"/>
<polygon fill="#191970" stroke="#191970" points="653.8148,-79.5001 663.8148,-76 653.8148,-72.5001 653.8148,-79.5001"/>
</g>
<!-- Node57 -->
<g id="node6" class="node">
<title>Node57</title>
<g id="a_node6"><a xlink:href="$classAsteroids_1_1UI_1_1ClientTextUI_1_1DisplayGrid.html#ae831e34de9c3fe439b09ed2543e30dee" xlink:title="Asteroids::UI::ClientText\lUI::DisplayGrid::translate\l_source_point">
<polygon fill="#ffffff" stroke="#000000" points="840,-83.5 840,-124.5 968,-124.5 968,-83.5 840,-83.5"/>
<text text-anchor="start" x="848" y="-112.5" font-family="Helvetica,sans-Serif" font-size="10.00" fill="#000000">Asteroids::UI::ClientText</text>
<text text-anchor="start" x="848" y="-101.5" font-family="Helvetica,sans-Serif" font-size="10.00" fill="#000000">UI::DisplayGrid::translate</text>
<text text-anchor="middle" x="904" y="-90.5" font-family="Helvetica,sans-Serif" font-size="10.00" fill="#000000">_source_point</text>
</a>
</g>
</g>
<!-- Node56&#45;&gt;Node57 -->
<g id="edge5" class="edge">
<title>Node56&#45;&gt;Node57</title>
<path fill="none" stroke="#191970" d="M793.3511,-86.3466C805.1751,-88.2331 817.5955,-90.2147 829.6688,-92.1409"/>
<polygon fill="#191970" stroke="#191970" points="829.2815,-95.6233 839.708,-93.7426 830.3844,-88.7107 829.2815,-95.6233"/>
</g>
<!-- Node58 -->
<g id="node7" class="node">
<title>Node58</title>
<g id="a_node7"><a xlink:href="$classAsteroids_1_1UI_1_1ClientTextUI_1_1DisplayGrid.html#acd82bd351302d1423b4e30f3312f7398" xlink:title="Asteroids::UI::ClientText\lUI::DisplayGrid::set_grid_pixel">
<polygon fill="#ffffff" stroke="#000000" points="829,-34 829,-64 979,-64 979,-34 829,-34"/>
<text text-anchor="start" x="837" y="-52" font-family="Helvetica,sans-Serif" font-size="10.00" fill="#000000">Asteroids::UI::ClientText</text>
<text text-anchor="middle" x="904" y="-41" font-family="Helvetica,sans-Serif" font-size="10.00" fill="#000000">UI::DisplayGrid::set_grid_pixel</text>
</a>
</g>
</g>
<!-- Node56&#45;&gt;Node58 -->
<g id="edge6" class="edge">
<title>Node56&#45;&gt;Node58</title>
<path fill="none" stroke="#191970" d="M793.3511,-66.0229C801.6325,-64.7488 810.2064,-63.4298 818.7488,-62.1156"/>
<polygon fill="#191970" stroke="#191970" points="819.3913,-65.558 828.7428,-60.578 818.3268,-58.6394 819.3913,-65.558"/>
</g>
</g>
</svg>
