<?xml version="1.0" encoding="UTF-8" standalone="no"?>
<!DOCTYPE svg PUBLIC "-//W3C//DTD SVG 1.1//EN"
 "http://www.w3.org/Graphics/SVG/1.1/DTD/svg11.dtd">
<!-- Generated by graphviz version 2.40.1 (20161225.0304)
 -->
<!-- Title: Asteroids::Domain::Factory::Factory::createUIFactory Pages: 1 -->
<svg width="319pt" height="50pt"
 viewBox="0.00 0.00 319.00 50.00" xmlns="http://www.w3.org/2000/svg" xmlns:xlink="http://www.w3.org/1999/xlink">
<g id="graph0" class="graph" transform="scale(1 1) rotate(0) translate(4 46)">
<title>Asteroids::Domain::Factory::Factory::createUIFactory</title>
<polygon fill="#ffffff" stroke="transparent" points="-4,4 -4,-46 315,-46 315,4 -4,4"/>
<!-- Node15 -->
<g id="node1" class="node">
<title>Node15</title>
<polygon fill="#bfbfbf" stroke="#000000" points="0,-6 0,-36 165,-36 165,-6 0,-6"/>
<text text-anchor="start" x="8" y="-24" font-family="Helvetica,sans-Serif" font-size="10.00" fill="#000000">Asteroids::Domain::</text>
<text text-anchor="middle" x="82.5" y="-13" font-family="Helvetica,sans-Serif" font-size="10.00" fill="#000000">Factory::Factory::createUIFactory</text>
</g>
<!-- Node16 -->
<g id="node2" class="node">
<title>Node16</title>
<g id="a_node2"><a xlink:href="$classAsteroids_1_1Domain_1_1Factory_1_1Factory.html#a9fcc5e21b7009846e744564a60b45619" xlink:title="Asteroids::Domain::\lFactory::Factory::this\l_pointer">
<polygon fill="#ffffff" stroke="#000000" points="201,-.5 201,-41.5 311,-41.5 311,-.5 201,-.5"/>
<text text-anchor="start" x="209" y="-29.5" font-family="Helvetica,sans-Serif" font-size="10.00" fill="#000000">Asteroids::Domain::</text>
<text text-anchor="start" x="209" y="-18.5" font-family="Helvetica,sans-Serif" font-size="10.00" fill="#000000">Factory::Factory::this</text>
<text text-anchor="middle" x="256" y="-7.5" font-family="Helvetica,sans-Serif" font-size="10.00" fill="#000000">_pointer</text>
</a>
</g>
</g>
<!-- Node15&#45;&gt;Node16 -->
<g id="edge1" class="edge">
<title>Node15&#45;&gt;Node16</title>
<path fill="none" stroke="#191970" d="M165.1849,-21C173.7478,-21 182.3636,-21 190.6976,-21"/>
<polygon fill="#191970" stroke="#191970" points="190.7011,-24.5001 200.7011,-21 190.7011,-17.5001 190.7011,-24.5001"/>
</g>
</g>
</svg>
