<?xml version="1.0" encoding="UTF-8" standalone="no"?>
<!DOCTYPE svg PUBLIC "-//W3C//DTD SVG 1.1//EN"
 "http://www.w3.org/Graphics/SVG/1.1/DTD/svg11.dtd">
<!-- Generated by graphviz version 2.40.1 (20161225.0304)
 -->
<!-- Title: Asteroids::Domain::Net::Messages::AUTH_ATTEMPT::setUsername Pages: 1 -->
<svg width="484pt" height="50pt"
 viewBox="0.00 0.00 484.00 50.00" xmlns="http://www.w3.org/2000/svg" xmlns:xlink="http://www.w3.org/1999/xlink">
<g id="graph0" class="graph" transform="scale(1 1) rotate(0) translate(4 46)">
<title>Asteroids::Domain::Net::Messages::AUTH_ATTEMPT::setUsername</title>
<polygon fill="#ffffff" stroke="transparent" points="-4,4 -4,-46 480,-46 480,4 -4,4"/>
<!-- Node15 -->
<g id="node1" class="node">
<title>Node15</title>
<polygon fill="#bfbfbf" stroke="#000000" points="0,-.5 0,-41.5 133,-41.5 133,-.5 0,-.5"/>
<text text-anchor="start" x="8" y="-29.5" font-family="Helvetica,sans-Serif" font-size="10.00" fill="#000000">Asteroids::Domain::</text>
<text text-anchor="start" x="8" y="-18.5" font-family="Helvetica,sans-Serif" font-size="10.00" fill="#000000">Net::Messages::AUTH</text>
<text text-anchor="middle" x="66.5" y="-7.5" font-family="Helvetica,sans-Serif" font-size="10.00" fill="#000000">_ATTEMPT::setUsername</text>
</g>
<!-- Node16 -->
<g id="node2" class="node">
<title>Node16</title>
<g id="a_node2"><a xlink:href="$classAsteroids_1_1Domain_1_1Net_1_1Messages_1_1AUTH__ATTEMPT.html#ac3d3b7f2f68f6738cf34d34f5cc6eaf9" xlink:title="Asteroids::Domain::\lNet::Messages::AUTH\l_ATTEMPT::reset">
<polygon fill="#ffffff" stroke="#000000" points="169,-.5 169,-41.5 286,-41.5 286,-.5 169,-.5"/>
<text text-anchor="start" x="177" y="-29.5" font-family="Helvetica,sans-Serif" font-size="10.00" fill="#000000">Asteroids::Domain::</text>
<text text-anchor="start" x="177" y="-18.5" font-family="Helvetica,sans-Serif" font-size="10.00" fill="#000000">Net::Messages::AUTH</text>
<text text-anchor="middle" x="227.5" y="-7.5" font-family="Helvetica,sans-Serif" font-size="10.00" fill="#000000">_ATTEMPT::reset</text>
</a>
</g>
</g>
<!-- Node15&#45;&gt;Node16 -->
<g id="edge1" class="edge">
<title>Node15&#45;&gt;Node16</title>
<path fill="none" stroke="#191970" d="M143.6439,-21C152.0993,-21 160.6042,-21 168.7845,-21"/>
<polygon fill="#191970" stroke="#191970" points="143.3798,-17.5001 133.3798,-21 143.3798,-24.5001 143.3798,-17.5001"/>
</g>
<!-- Node17 -->
<g id="node3" class="node">
<title>Node17</title>
<g id="a_node3"><a xlink:href="$classAsteroids_1_1Domain_1_1Net_1_1Messages_1_1AUTH__ATTEMPT.html#a4c6197274eb2e952137315f9d150f30e" xlink:title="Asteroids::Domain::\lNet::Messages::AUTH\l_ATTEMPT::AUTH_ATTEMPT">
<polygon fill="#ffffff" stroke="#000000" points="322,-.5 322,-41.5 476,-41.5 476,-.5 322,-.5"/>
<text text-anchor="start" x="330" y="-29.5" font-family="Helvetica,sans-Serif" font-size="10.00" fill="#000000">Asteroids::Domain::</text>
<text text-anchor="start" x="330" y="-18.5" font-family="Helvetica,sans-Serif" font-size="10.00" fill="#000000">Net::Messages::AUTH</text>
<text text-anchor="middle" x="399" y="-7.5" font-family="Helvetica,sans-Serif" font-size="10.00" fill="#000000">_ATTEMPT::AUTH_ATTEMPT</text>
</a>
</g>
</g>
<!-- Node16&#45;&gt;Node17 -->
<g id="edge2" class="edge">
<title>Node16&#45;&gt;Node17</title>
<path fill="none" stroke="#191970" d="M296.2153,-21C304.6692,-21 313.3532,-21 321.9206,-21"/>
<polygon fill="#191970" stroke="#191970" points="296.0409,-17.5001 286.0409,-21 296.0409,-24.5001 296.0409,-17.5001"/>
</g>
</g>
</svg>
