<?xml version="1.0" encoding="UTF-8" standalone="no"?>
<!DOCTYPE svg PUBLIC "-//W3C//DTD SVG 1.1//EN"
 "http://www.w3.org/Graphics/SVG/1.1/DTD/svg11.dtd">
<!-- Generated by graphviz version 2.40.1 (20161225.0304)
 -->
<!-- Title: Domain/Net/ClientServerCommunicator.h Pages: 1 -->
<svg width="299pt" height="151pt"
 viewBox="0.00 0.00 298.50 151.00" xmlns="http://www.w3.org/2000/svg" xmlns:xlink="http://www.w3.org/1999/xlink">
<g id="graph0" class="graph" transform="scale(1 1) rotate(0) translate(4 147)">
<title>Domain/Net/ClientServerCommunicator.h</title>
<polygon fill="#ffffff" stroke="transparent" points="-4,4 -4,-147 294.5,-147 294.5,4 -4,4"/>
<!-- Node0 -->
<g id="node1" class="node">
<title>Node0</title>
<polygon fill="#bfbfbf" stroke="#000000" points="39.5,-123.5 39.5,-142.5 237.5,-142.5 237.5,-123.5 39.5,-123.5"/>
<text text-anchor="middle" x="138.5" y="-130.5" font-family="Helvetica,sans-Serif" font-size="10.00" fill="#000000">Domain/Net/ClientServerCommunicator.h</text>
</g>
<!-- Node1 -->
<g id="node2" class="node">
<title>Node1</title>
<g id="a_node2"><a xlink:href="$ForwardDeclarations_8h.html" xlink:title="Asteroids/ForwardDeclarations.h">
<polygon fill="#ffffff" stroke="#000000" points="0,-.5 0,-19.5 159,-19.5 159,-.5 0,-.5"/>
<text text-anchor="middle" x="79.5" y="-7.5" font-family="Helvetica,sans-Serif" font-size="10.00" fill="#000000">Asteroids/ForwardDeclarations.h</text>
</a>
</g>
</g>
<!-- Node0&#45;&gt;Node1 -->
<g id="edge1" class="edge">
<title>Node0&#45;&gt;Node1</title>
<path fill="none" stroke="#191970" d="M127.0358,-123.1967C117.6988,-114.5872 104.8932,-101.2422 97.5,-87 88.1349,-68.9592 83.5816,-46.0296 81.4068,-29.901"/>
<polygon fill="#191970" stroke="#191970" points="84.8329,-29.0586 80.2088,-19.5261 77.8791,-29.8616 84.8329,-29.0586"/>
</g>
<!-- Node2 -->
<g id="node3" class="node">
<title>Node2</title>
<g id="a_node3"><a xlink:href="$ClientServerCommunicatorInterface_8h.html" xlink:title="Asteroids/Domain/Net\l/ClientServerCommunicatorInterface.h">
<polygon fill="#ffffff" stroke="#000000" points="106.5,-56.5 106.5,-86.5 290.5,-86.5 290.5,-56.5 106.5,-56.5"/>
<text text-anchor="start" x="114.5" y="-74.5" font-family="Helvetica,sans-Serif" font-size="10.00" fill="#000000">Asteroids/Domain/Net</text>
<text text-anchor="middle" x="198.5" y="-63.5" font-family="Helvetica,sans-Serif" font-size="10.00" fill="#000000">/ClientServerCommunicatorInterface.h</text>
</a>
</g>
</g>
<!-- Node0&#45;&gt;Node2 -->
<g id="edge2" class="edge">
<title>Node0&#45;&gt;Node2</title>
<path fill="none" stroke="#191970" d="M147.875,-123.3906C155.5441,-115.5298 166.6987,-104.0964 176.5866,-93.9612"/>
<polygon fill="#191970" stroke="#191970" points="179.3443,-96.1466 183.8223,-86.5446 174.3338,-91.2583 179.3443,-96.1466"/>
</g>
<!-- Node2&#45;&gt;Node1 -->
<g id="edge3" class="edge">
<title>Node2&#45;&gt;Node1</title>
<path fill="none" stroke="#191970" d="M169.3893,-56.4554C150.3176,-46.599 125.5518,-33.7999 106.8461,-24.1327"/>
<polygon fill="#191970" stroke="#191970" points="108.4315,-21.0122 97.9408,-19.5303 105.2176,-27.2309 108.4315,-21.0122"/>
</g>
<!-- Node3 -->
<g id="node4" class="node">
<title>Node3</title>
<polygon fill="#ffffff" stroke="#bfbfbf" points="177,-.5 177,-19.5 218,-19.5 218,-.5 177,-.5"/>
<text text-anchor="middle" x="197.5" y="-7.5" font-family="Helvetica,sans-Serif" font-size="10.00" fill="#000000">string</text>
</g>
<!-- Node2&#45;&gt;Node3 -->
<g id="edge4" class="edge">
<title>Node2&#45;&gt;Node3</title>
<path fill="none" stroke="#191970" d="M198.2528,-56.2977C198.1241,-48.3834 197.9651,-38.6043 197.8264,-30.0759"/>
<polygon fill="#191970" stroke="#191970" points="201.3223,-29.7887 197.6601,-19.8469 194.3233,-29.9025 201.3223,-29.7887"/>
</g>
<!-- Node4 -->
<g id="node5" class="node">
<title>Node4</title>
<polygon fill="#ffffff" stroke="#bfbfbf" points="236.5,-.5 236.5,-19.5 288.5,-19.5 288.5,-.5 236.5,-.5"/>
<text text-anchor="middle" x="262.5" y="-7.5" font-family="Helvetica,sans-Serif" font-size="10.00" fill="#000000">memory</text>
</g>
<!-- Node2&#45;&gt;Node4 -->
<g id="edge5" class="edge">
<title>Node2&#45;&gt;Node4</title>
<path fill="none" stroke="#191970" d="M214.3202,-56.2977C223.5742,-47.4052 235.2781,-36.1586 244.833,-26.9769"/>
<polygon fill="#191970" stroke="#191970" points="247.4674,-29.2995 252.2528,-19.8469 242.6172,-24.2521 247.4674,-29.2995"/>
</g>
</g>
</svg>
