<?xml version="1.0" encoding="UTF-8" standalone="no"?>
<!DOCTYPE svg PUBLIC "-//W3C//DTD SVG 1.1//EN"
 "http://www.w3.org/Graphics/SVG/1.1/DTD/svg11.dtd">
<!-- Generated by graphviz version 2.40.1 (20161225.0304)
 -->
<!-- Title: UI/ClientTextUI/ClientTextUI.h Pages: 1 -->
<svg width="1669pt" height="151pt"
 viewBox="0.00 0.00 1669.48 151.00" xmlns="http://www.w3.org/2000/svg" xmlns:xlink="http://www.w3.org/1999/xlink">
<g id="graph0" class="graph" transform="scale(1 1) rotate(0) translate(4 147)">
<title>UI/ClientTextUI/ClientTextUI.h</title>
<polygon fill="#ffffff" stroke="transparent" points="-4,4 -4,-147 1665.4847,-147 1665.4847,4 -4,4"/>
<!-- Node0 -->
<g id="node1" class="node">
<title>Node0</title>
<polygon fill="#bfbfbf" stroke="#000000" points="709.9847,-123.5 709.9847,-142.5 861.9847,-142.5 861.9847,-123.5 709.9847,-123.5"/>
<text text-anchor="middle" x="785.9847" y="-130.5" font-family="Helvetica,sans-Serif" font-size="10.00" fill="#000000">UI/ClientTextUI/ClientTextUI.h</text>
</g>
<!-- Node1 -->
<g id="node2" class="node">
<title>Node1</title>
<g id="a_node2"><a xlink:href="$ForwardDeclarations_8h.html" xlink:title="Asteroids/ForwardDeclarations.h">
<polygon fill="#ffffff" stroke="#000000" points="296.4847,-.5 296.4847,-19.5 455.4847,-19.5 455.4847,-.5 296.4847,-.5"/>
<text text-anchor="middle" x="375.9847" y="-7.5" font-family="Helvetica,sans-Serif" font-size="10.00" fill="#000000">Asteroids/ForwardDeclarations.h</text>
</a>
</g>
</g>
<!-- Node0&#45;&gt;Node1 -->
<g id="edge1" class="edge">
<title>Node0&#45;&gt;Node1</title>
<path fill="none" stroke="#191970" d="M709.7899,-131.2924C518.3768,-126.6323 30.8565,-112.323 6.9847,-87 -2.4661,-76.9746 -2.1352,-66.3274 6.9847,-56 25.2071,-35.3649 182.9611,-21.8064 286.2202,-15.0551"/>
<polygon fill="#191970" stroke="#191970" points="286.5928,-18.5385 296.3473,-14.4033 286.1431,-11.5529 286.5928,-18.5385"/>
</g>
<!-- Node2 -->
<g id="node3" class="node">
<title>Node2</title>
<g id="a_node3"><a xlink:href="$ClientTextUIInterface_8h.html" xlink:title="Asteroids/UI/ClientTextUI\l/ClientTextUIInterface.h">
<polygon fill="#ffffff" stroke="#000000" points="15.9847,-56.5 15.9847,-86.5 145.9847,-86.5 145.9847,-56.5 15.9847,-56.5"/>
<text text-anchor="start" x="23.9847" y="-74.5" font-family="Helvetica,sans-Serif" font-size="10.00" fill="#000000">Asteroids/UI/ClientTextUI</text>
<text text-anchor="middle" x="80.9847" y="-63.5" font-family="Helvetica,sans-Serif" font-size="10.00" fill="#000000">/ClientTextUIInterface.h</text>
</a>
</g>
</g>
<!-- Node0&#45;&gt;Node2 -->
<g id="edge2" class="edge">
<title>Node0&#45;&gt;Node2</title>
<path fill="none" stroke="#191970" d="M709.8761,-130.7359C592.8637,-126.5289 361.6388,-115.3422 156.3367,-87.0717"/>
<polygon fill="#191970" stroke="#191970" points="156.6588,-83.5828 146.2714,-85.6689 155.6925,-90.5158 156.6588,-83.5828"/>
</g>
<!-- Node3 -->
<g id="node4" class="node">
<title>Node3</title>
<g id="a_node4"><a xlink:href="$UI_2ClientTextUI_2Defines_8h.html" xlink:title="Asteroids/UI/ClientTextUI\l/Defines.h">
<polygon fill="#ffffff" stroke="#000000" points="1243.9847,-56.5 1243.9847,-86.5 1373.9847,-86.5 1373.9847,-56.5 1243.9847,-56.5"/>
<text text-anchor="start" x="1251.9847" y="-74.5" font-family="Helvetica,sans-Serif" font-size="10.00" fill="#000000">Asteroids/UI/ClientTextUI</text>
<text text-anchor="middle" x="1308.9847" y="-63.5" font-family="Helvetica,sans-Serif" font-size="10.00" fill="#000000">/Defines.h</text>
</a>
</g>
</g>
<!-- Node0&#45;&gt;Node3 -->
<g id="edge4" class="edge">
<title>Node0&#45;&gt;Node3</title>
<path fill="none" stroke="#191970" d="M862.0609,-127.226C950.6963,-120.0116 1101.4158,-106.2325 1229.9847,-87 1231.2677,-86.8081 1232.5614,-86.6097 1233.8635,-86.4056"/>
<polygon fill="#191970" stroke="#191970" points="1234.6707,-89.8199 1243.9685,-84.7404 1233.5325,-82.913 1234.6707,-89.8199"/>
</g>
<!-- Node4 -->
<g id="node5" class="node">
<title>Node4</title>
<g id="a_node5"><a xlink:href="$UI_2ClientTextUI_2Enums_2Enums_8h.html" xlink:title="Asteroids/UI/ClientTextUI\l/Enums/Enums.h">
<polygon fill="#ffffff" stroke="#000000" points="1391.9847,-56.5 1391.9847,-86.5 1521.9847,-86.5 1521.9847,-56.5 1391.9847,-56.5"/>
<text text-anchor="start" x="1399.9847" y="-74.5" font-family="Helvetica,sans-Serif" font-size="10.00" fill="#000000">Asteroids/UI/ClientTextUI</text>
<text text-anchor="middle" x="1456.9847" y="-63.5" font-family="Helvetica,sans-Serif" font-size="10.00" fill="#000000">/Enums/Enums.h</text>
</a>
</g>
</g>
<!-- Node0&#45;&gt;Node4 -->
<g id="edge5" class="edge">
<title>Node0&#45;&gt;Node4</title>
<path fill="none" stroke="#191970" d="M862.1923,-130.2906C974.0722,-125.6117 1189.4516,-113.9413 1381.6902,-87.0696"/>
<polygon fill="#191970" stroke="#191970" points="1382.2848,-90.5204 1391.6959,-85.6541 1381.3043,-83.5895 1382.2848,-90.5204"/>
</g>
<!-- Node5 -->
<g id="node6" class="node">
<title>Node5</title>
<g id="a_node6"><a xlink:href="$Input_8h.html" xlink:title="Asteroids/UI/ClientTextUI\l/Input.h">
<polygon fill="#ffffff" stroke="#000000" points="1057.9847,-56.5 1057.9847,-86.5 1187.9847,-86.5 1187.9847,-56.5 1057.9847,-56.5"/>
<text text-anchor="start" x="1065.9847" y="-74.5" font-family="Helvetica,sans-Serif" font-size="10.00" fill="#000000">Asteroids/UI/ClientTextUI</text>
<text text-anchor="middle" x="1122.9847" y="-63.5" font-family="Helvetica,sans-Serif" font-size="10.00" fill="#000000">/Input.h</text>
</a>
</g>
</g>
<!-- Node0&#45;&gt;Node5 -->
<g id="edge6" class="edge">
<title>Node0&#45;&gt;Node5</title>
<path fill="none" stroke="#191970" d="M843.547,-123.4995C894.605,-114.9438 971.4737,-101.7499 1047.4173,-87.2686"/>
<polygon fill="#191970" stroke="#191970" points="1048.4756,-90.6296 1057.6385,-85.3106 1047.1585,-83.7546 1048.4756,-90.6296"/>
</g>
<!-- Node8 -->
<g id="node9" class="node">
<title>Node8</title>
<g id="a_node9"><a xlink:href="$DisplayGrid_8h.html" xlink:title="Asteroids/UI/ClientTextUI\l/DisplayGrid.h">
<polygon fill="#ffffff" stroke="#000000" points="767.9847,-56.5 767.9847,-86.5 897.9847,-86.5 897.9847,-56.5 767.9847,-56.5"/>
<text text-anchor="start" x="775.9847" y="-74.5" font-family="Helvetica,sans-Serif" font-size="10.00" fill="#000000">Asteroids/UI/ClientTextUI</text>
<text text-anchor="middle" x="832.9847" y="-63.5" font-family="Helvetica,sans-Serif" font-size="10.00" fill="#000000">/DisplayGrid.h</text>
</a>
</g>
</g>
<!-- Node0&#45;&gt;Node8 -->
<g id="edge9" class="edge">
<title>Node0&#45;&gt;Node8</title>
<path fill="none" stroke="#191970" d="M793.3285,-123.3906C799.2182,-115.6839 807.7321,-104.5434 815.3625,-94.5589"/>
<polygon fill="#191970" stroke="#191970" points="818.196,-96.6153 821.4872,-86.5446 812.6342,-92.3648 818.196,-96.6153"/>
</g>
<!-- Node9 -->
<g id="node10" class="node">
<title>Node9</title>
<polygon fill="#ffffff" stroke="#bfbfbf" points="1180.4847,-.5 1180.4847,-19.5 1221.4847,-19.5 1221.4847,-.5 1180.4847,-.5"/>
<text text-anchor="middle" x="1200.9847" y="-7.5" font-family="Helvetica,sans-Serif" font-size="10.00" fill="#000000">string</text>
</g>
<!-- Node0&#45;&gt;Node9 -->
<g id="edge31" class="edge">
<title>Node0&#45;&gt;Node9</title>
<path fill="none" stroke="#191970" d="M862.1514,-129.7212C974.6636,-124.1053 1174.4901,-110.8759 1196.9847,-87 1211.141,-71.9744 1209.693,-47.1084 1206.3038,-29.7109"/>
<polygon fill="#191970" stroke="#191970" points="1209.6122,-28.4843 1203.9408,-19.5352 1202.7936,-30.0678 1209.6122,-28.4843"/>
</g>
<!-- Node10 -->
<g id="node11" class="node">
<title>Node10</title>
<polygon fill="#ffffff" stroke="#bfbfbf" points="624.9847,-.5 624.9847,-19.5 676.9847,-19.5 676.9847,-.5 624.9847,-.5"/>
<text text-anchor="middle" x="650.9847" y="-7.5" font-family="Helvetica,sans-Serif" font-size="10.00" fill="#000000">memory</text>
</g>
<!-- Node0&#45;&gt;Node10 -->
<g id="edge30" class="edge">
<title>Node0&#45;&gt;Node10</title>
<path fill="none" stroke="#191970" d="M779.1669,-123.2222C768.1101,-107.7928 745.0669,-77.3591 720.9847,-56 707.6371,-44.1617 691.0056,-33.1051 677.3035,-24.8"/>
<polygon fill="#191970" stroke="#191970" points="678.7512,-21.5901 668.3617,-19.5141 675.189,-27.6159 678.7512,-21.5901"/>
</g>
<!-- Node11 -->
<g id="node12" class="node">
<title>Node11</title>
<g id="a_node12"><a xlink:href="$FactoryInterface_8h.html" xlink:title="Asteroids/Domain/Factory\l/FactoryInterface.h">
<polygon fill="#ffffff" stroke="#000000" points="164.4847,-56.5 164.4847,-86.5 295.4847,-86.5 295.4847,-56.5 164.4847,-56.5"/>
<text text-anchor="start" x="172.4847" y="-74.5" font-family="Helvetica,sans-Serif" font-size="10.00" fill="#000000">Asteroids/Domain/Factory</text>
<text text-anchor="middle" x="229.9847" y="-63.5" font-family="Helvetica,sans-Serif" font-size="10.00" fill="#000000">/FactoryInterface.h</text>
</a>
</g>
</g>
<!-- Node0&#45;&gt;Node11 -->
<g id="edge14" class="edge">
<title>Node0&#45;&gt;Node11</title>
<path fill="none" stroke="#191970" d="M709.6945,-128.3527C616.5353,-122.087 454.0176,-109.2525 305.8714,-87.1925"/>
<polygon fill="#191970" stroke="#191970" points="306.0932,-83.6865 295.6833,-85.6573 305.0501,-90.6084 306.0932,-83.6865"/>
</g>
<!-- Node12 -->
<g id="node13" class="node">
<title>Node12</title>
<g id="a_node13"><a xlink:href="$GameFactoryInterface_8h.html" xlink:title="Asteroids/Domain/Game\l/GameFactoryInterface.h">
<polygon fill="#ffffff" stroke="#000000" points="313.4847,-56.5 313.4847,-86.5 438.4847,-86.5 438.4847,-56.5 313.4847,-56.5"/>
<text text-anchor="start" x="321.4847" y="-74.5" font-family="Helvetica,sans-Serif" font-size="10.00" fill="#000000">Asteroids/Domain/Game</text>
<text text-anchor="middle" x="375.9847" y="-63.5" font-family="Helvetica,sans-Serif" font-size="10.00" fill="#000000">/GameFactoryInterface.h</text>
</a>
</g>
</g>
<!-- Node0&#45;&gt;Node12 -->
<g id="edge17" class="edge">
<title>Node0&#45;&gt;Node12</title>
<path fill="none" stroke="#191970" d="M709.98,-124.4519C643.4517,-116.5652 543.9901,-103.8001 448.7451,-87.2382"/>
<polygon fill="#191970" stroke="#191970" points="449.1053,-83.7479 438.6506,-85.4656 447.8946,-90.6424 449.1053,-83.7479"/>
</g>
<!-- Node13 -->
<g id="node14" class="node">
<title>Node13</title>
<g id="a_node14"><a xlink:href="$GameInterface_8h.html" xlink:title="Asteroids/Domain/Game\l/GameInterface.h">
<polygon fill="#ffffff" stroke="#000000" points="915.9847,-56.5 915.9847,-86.5 1039.9847,-86.5 1039.9847,-56.5 915.9847,-56.5"/>
<text text-anchor="start" x="923.9847" y="-74.5" font-family="Helvetica,sans-Serif" font-size="10.00" fill="#000000">Asteroids/Domain/Game</text>
<text text-anchor="middle" x="977.9847" y="-63.5" font-family="Helvetica,sans-Serif" font-size="10.00" fill="#000000">/GameInterface.h</text>
</a>
</g>
</g>
<!-- Node0&#45;&gt;Node13 -->
<g id="edge20" class="edge">
<title>Node0&#45;&gt;Node13</title>
<path fill="none" stroke="#191970" d="M815.9847,-123.3906C844.0147,-114.4123 886.5943,-100.7735 921.0665,-89.7316"/>
<polygon fill="#191970" stroke="#191970" points="922.5605,-92.9283 931.0162,-86.5446 920.4252,-86.2619 922.5605,-92.9283"/>
</g>
<!-- Node14 -->
<g id="node15" class="node">
<title>Node14</title>
<g id="a_node15"><a xlink:href="$NetFactoryInterface_8h.html" xlink:title="Asteroids/Domain/Net\l/NetFactoryInterface.h">
<polygon fill="#ffffff" stroke="#000000" points="456.4847,-56.5 456.4847,-86.5 571.4847,-86.5 571.4847,-56.5 456.4847,-56.5"/>
<text text-anchor="start" x="464.4847" y="-74.5" font-family="Helvetica,sans-Serif" font-size="10.00" fill="#000000">Asteroids/Domain/Net</text>
<text text-anchor="middle" x="513.9847" y="-63.5" font-family="Helvetica,sans-Serif" font-size="10.00" fill="#000000">/NetFactoryInterface.h</text>
</a>
</g>
</g>
<!-- Node0&#45;&gt;Node14 -->
<g id="edge23" class="edge">
<title>Node0&#45;&gt;Node14</title>
<path fill="none" stroke="#191970" d="M743.1691,-123.479C703.7902,-114.7029 643.5074,-101.2195 581.6594,-87.1459"/>
<polygon fill="#191970" stroke="#191970" points="582.2502,-83.691 571.7227,-84.8828 580.6957,-90.5162 582.2502,-83.691"/>
</g>
<!-- Node15 -->
<g id="node16" class="node">
<title>Node15</title>
<g id="a_node16"><a xlink:href="$Domain_2Store_2Enums_2Enums_8h.html" xlink:title="Asteroids/Domain/Store\l/Enums/Enums.h">
<polygon fill="#ffffff" stroke="#000000" points="1540.4847,-56.5 1540.4847,-86.5 1661.4847,-86.5 1661.4847,-56.5 1540.4847,-56.5"/>
<text text-anchor="start" x="1548.4847" y="-74.5" font-family="Helvetica,sans-Serif" font-size="10.00" fill="#000000">Asteroids/Domain/Store</text>
<text text-anchor="middle" x="1600.9847" y="-63.5" font-family="Helvetica,sans-Serif" font-size="10.00" fill="#000000">/Enums/Enums.h</text>
</a>
</g>
</g>
<!-- Node0&#45;&gt;Node15 -->
<g id="edge26" class="edge">
<title>Node0&#45;&gt;Node15</title>
<path fill="none" stroke="#191970" d="M862.2714,-129.8061C1021.5566,-122.8951 1385.9361,-105.7602 1530.3706,-86.888"/>
<polygon fill="#191970" stroke="#191970" points="1530.9468,-90.3419 1540.384,-85.5263 1530.0035,-83.4058 1530.9468,-90.3419"/>
</g>
<!-- Node16 -->
<g id="node17" class="node">
<title>Node16</title>
<g id="a_node17"><a xlink:href="$StoreFactoryInterface_8h.html" xlink:title="Asteroids/Domain/Store\l/StoreFactoryInterface.h">
<polygon fill="#ffffff" stroke="#000000" points="589.9847,-56.5 589.9847,-86.5 711.9847,-86.5 711.9847,-56.5 589.9847,-56.5"/>
<text text-anchor="start" x="597.9847" y="-74.5" font-family="Helvetica,sans-Serif" font-size="10.00" fill="#000000">Asteroids/Domain/Store</text>
<text text-anchor="middle" x="650.9847" y="-63.5" font-family="Helvetica,sans-Serif" font-size="10.00" fill="#000000">/StoreFactoryInterface.h</text>
</a>
</g>
</g>
<!-- Node0&#45;&gt;Node16 -->
<g id="edge27" class="edge">
<title>Node0&#45;&gt;Node16</title>
<path fill="none" stroke="#191970" d="M764.891,-123.3906C745.7745,-114.682 717.0333,-101.5888 693.2049,-90.7336"/>
<polygon fill="#191970" stroke="#191970" points="694.5606,-87.5052 684.0094,-86.5446 691.6586,-93.8754 694.5606,-87.5052"/>
</g>
<!-- Node2&#45;&gt;Node1 -->
<g id="edge3" class="edge">
<title>Node2&#45;&gt;Node1</title>
<path fill="none" stroke="#191970" d="M146.3538,-57.8032C149.2705,-57.1935 152.158,-56.5902 154.9847,-56 211.0401,-44.2955 275.1036,-30.9663 319.7717,-21.6801"/>
<polygon fill="#191970" stroke="#191970" points="320.7656,-25.0484 329.8439,-19.5863 319.3408,-18.1949 320.7656,-25.0484"/>
</g>
<!-- Node6 -->
<g id="node7" class="node">
<title>Node6</title>
<polygon fill="#ffffff" stroke="#bfbfbf" points="955.9847,-.5 955.9847,-19.5 999.9847,-19.5 999.9847,-.5 955.9847,-.5"/>
<text text-anchor="middle" x="977.9847" y="-7.5" font-family="Helvetica,sans-Serif" font-size="10.00" fill="#000000">vector</text>
</g>
<!-- Node5&#45;&gt;Node6 -->
<g id="edge7" class="edge">
<title>Node5&#45;&gt;Node6</title>
<path fill="none" stroke="#191970" d="M1087.5137,-56.4554C1063.5978,-46.3118 1032.3334,-33.0513 1009.3319,-23.2955"/>
<polygon fill="#191970" stroke="#191970" points="1010.5984,-20.0309 1000.0256,-19.3484 1007.8651,-26.4753 1010.5984,-20.0309"/>
</g>
<!-- Node7 -->
<g id="node8" class="node">
<title>Node7</title>
<polygon fill="#ffffff" stroke="#bfbfbf" points="1098.9847,-.5 1098.9847,-19.5 1146.9847,-19.5 1146.9847,-.5 1098.9847,-.5"/>
<text text-anchor="middle" x="1122.9847" y="-7.5" font-family="Helvetica,sans-Serif" font-size="10.00" fill="#000000">conio.h</text>
</g>
<!-- Node5&#45;&gt;Node7 -->
<g id="edge8" class="edge">
<title>Node5&#45;&gt;Node7</title>
<path fill="none" stroke="#191970" d="M1122.9847,-56.2977C1122.9847,-48.3834 1122.9847,-38.6043 1122.9847,-30.0759"/>
<polygon fill="#191970" stroke="#191970" points="1126.4848,-29.8469 1122.9847,-19.8469 1119.4848,-29.847 1126.4848,-29.8469"/>
</g>
<!-- Node8&#45;&gt;Node1 -->
<g id="edge10" class="edge">
<title>Node8&#45;&gt;Node1</title>
<path fill="none" stroke="#191970" d="M767.846,-62.4296C752.4805,-60.3054 736.1565,-58.0613 720.9847,-56 631.2435,-43.8076 528.3277,-30.1242 458.4243,-20.8749"/>
<polygon fill="#191970" stroke="#191970" points="458.7283,-17.3848 448.3557,-19.5432 457.8104,-24.3243 458.7283,-17.3848"/>
</g>
<!-- Node8&#45;&gt;Node6 -->
<g id="edge11" class="edge">
<title>Node8&#45;&gt;Node6</title>
<path fill="none" stroke="#191970" d="M868.4557,-56.4554C892.3716,-46.3118 923.636,-33.0513 946.6375,-23.2955"/>
<polygon fill="#191970" stroke="#191970" points="948.1043,-26.4753 955.9439,-19.3484 945.371,-20.0309 948.1043,-26.4753"/>
</g>
<!-- Node8&#45;&gt;Node9 -->
<g id="edge12" class="edge">
<title>Node8&#45;&gt;Node9</title>
<path fill="none" stroke="#191970" d="M898.3115,-57.5842C901.2397,-57.0338 904.1411,-56.5029 906.9847,-56 1017.0936,-36.5285 1045.9966,-40.1425 1155.9847,-20 1160.6268,-19.1499 1165.518,-18.1608 1170.2973,-17.1419"/>
<polygon fill="#191970" stroke="#191970" points="1171.4286,-20.4766 1180.4407,-14.9061 1169.9217,-13.6407 1171.4286,-20.4766"/>
</g>
<!-- Node8&#45;&gt;Node10 -->
<g id="edge13" class="edge">
<title>Node8&#45;&gt;Node10</title>
<path fill="none" stroke="#191970" d="M788.4625,-56.4554C757.2091,-45.8945 715.9575,-31.9551 686.8219,-22.1098"/>
<polygon fill="#191970" stroke="#191970" points="687.6521,-18.696 677.0579,-18.8104 685.4111,-25.3276 687.6521,-18.696"/>
</g>
<!-- Node11&#45;&gt;Node1 -->
<g id="edge15" class="edge">
<title>Node11&#45;&gt;Node1</title>
<path fill="none" stroke="#191970" d="M265.7003,-56.4554C289.6334,-46.374 320.8752,-33.2139 343.9941,-23.4755"/>
<polygon fill="#191970" stroke="#191970" points="345.5028,-26.6379 353.3599,-19.5303 342.7854,-20.1868 345.5028,-26.6379"/>
</g>
<!-- Node11&#45;&gt;Node10 -->
<g id="edge16" class="edge">
<title>Node11&#45;&gt;Node10</title>
<path fill="none" stroke="#191970" d="M295.7036,-57.4688C298.4983,-56.9562 301.2676,-56.464 303.9847,-56 416.6724,-36.7567 551.1197,-20.9556 614.4982,-13.9287"/>
<polygon fill="#191970" stroke="#191970" points="615.2093,-17.3717 624.7663,-12.7983 614.4433,-10.4137 615.2093,-17.3717"/>
</g>
<!-- Node12&#45;&gt;Node1 -->
<g id="edge18" class="edge">
<title>Node12&#45;&gt;Node1</title>
<path fill="none" stroke="#191970" d="M375.9847,-56.2977C375.9847,-48.3834 375.9847,-38.6043 375.9847,-30.0759"/>
<polygon fill="#191970" stroke="#191970" points="379.4848,-29.8469 375.9847,-19.8469 372.4848,-29.847 379.4848,-29.8469"/>
</g>
<!-- Node12&#45;&gt;Node10 -->
<g id="edge19" class="edge">
<title>Node12&#45;&gt;Node10</title>
<path fill="none" stroke="#191970" d="M438.7306,-57.4677C493.2923,-45.2657 570.4168,-28.0179 615.1115,-18.0226"/>
<polygon fill="#191970" stroke="#191970" points="615.9446,-21.4228 624.9396,-15.8246 614.4168,-14.5915 615.9446,-21.4228"/>
</g>
<!-- Node13&#45;&gt;Node6 -->
<g id="edge21" class="edge">
<title>Node13&#45;&gt;Node6</title>
<path fill="none" stroke="#191970" d="M977.9847,-56.2977C977.9847,-48.3834 977.9847,-38.6043 977.9847,-30.0759"/>
<polygon fill="#191970" stroke="#191970" points="981.4848,-29.8469 977.9847,-19.8469 974.4848,-29.847 981.4848,-29.8469"/>
</g>
<!-- Node13&#45;&gt;Node10 -->
<g id="edge22" class="edge">
<title>Node13&#45;&gt;Node10</title>
<path fill="none" stroke="#191970" d="M915.674,-57.7599C912.7386,-57.1557 909.8308,-56.5662 906.9847,-56 828.8381,-40.4545 736.7989,-24.4853 687.1434,-16.0617"/>
<polygon fill="#191970" stroke="#191970" points="687.6547,-12.5986 677.211,-14.3816 686.4872,-19.5005 687.6547,-12.5986"/>
</g>
<!-- Node14&#45;&gt;Node1 -->
<g id="edge24" class="edge">
<title>Node14&#45;&gt;Node1</title>
<path fill="none" stroke="#191970" d="M480.2261,-56.4554C457.7054,-46.419 428.338,-33.3314 406.5155,-23.6061"/>
<polygon fill="#191970" stroke="#191970" points="407.9286,-20.4041 397.3698,-19.5303 405.0791,-26.7979 407.9286,-20.4041"/>
</g>
<!-- Node14&#45;&gt;Node10 -->
<g id="edge25" class="edge">
<title>Node14&#45;&gt;Node10</title>
<path fill="none" stroke="#191970" d="M547.4987,-56.4554C569.7559,-46.464 598.7494,-33.4487 620.3832,-23.7372"/>
<polygon fill="#191970" stroke="#191970" points="622.065,-26.8187 629.7546,-19.5303 619.1982,-20.4327 622.065,-26.8187"/>
</g>
<!-- Node16&#45;&gt;Node1 -->
<g id="edge28" class="edge">
<title>Node16&#45;&gt;Node1</title>
<path fill="none" stroke="#191970" d="M589.9533,-57.8512C541.4522,-47.0045 474.3387,-31.9955 428.2795,-21.695"/>
<polygon fill="#191970" stroke="#191970" points="429.0193,-18.2741 418.4965,-19.5072 427.4915,-25.1053 429.0193,-18.2741"/>
</g>
<!-- Node16&#45;&gt;Node10 -->
<g id="edge29" class="edge">
<title>Node16&#45;&gt;Node10</title>
<path fill="none" stroke="#191970" d="M650.9847,-56.2977C650.9847,-48.3834 650.9847,-38.6043 650.9847,-30.0759"/>
<polygon fill="#191970" stroke="#191970" points="654.4848,-29.8469 650.9847,-19.8469 647.4848,-29.847 654.4848,-29.8469"/>
</g>
</g>
</svg>
