<?xml version="1.0" encoding="UTF-8" standalone="no"?>
<!DOCTYPE svg PUBLIC "-//W3C//DTD SVG 1.1//EN"
 "http://www.w3.org/Graphics/SVG/1.1/DTD/svg11.dtd">
<!-- Generated by graphviz version 2.40.1 (20161225.0304)
 -->
<!-- Title: Domain/Net/ClientServerCommunicatorInterface.h Pages: 1 -->
<svg width="301pt" height="95pt"
 viewBox="0.00 0.00 300.50 95.00" xmlns="http://www.w3.org/2000/svg" xmlns:xlink="http://www.w3.org/1999/xlink">
<g id="graph0" class="graph" transform="scale(1 1) rotate(0) translate(4 91)">
<title>Domain/Net/ClientServerCommunicatorInterface.h</title>
<polygon fill="#ffffff" stroke="transparent" points="-4,4 -4,-91 296.5,-91 296.5,4 -4,4"/>
<!-- Node0 -->
<g id="node1" class="node">
<title>Node0</title>
<polygon fill="#bfbfbf" stroke="#000000" points="102.5,-56.5 102.5,-86.5 292.5,-86.5 292.5,-56.5 102.5,-56.5"/>
<text text-anchor="start" x="110.5" y="-74.5" font-family="Helvetica,sans-Serif" font-size="10.00" fill="#000000">Domain/Net/ClientServerCommunicator</text>
<text text-anchor="middle" x="197.5" y="-63.5" font-family="Helvetica,sans-Serif" font-size="10.00" fill="#000000">Interface.h</text>
</g>
<!-- Node1 -->
<g id="node2" class="node">
<title>Node1</title>
<g id="a_node2"><a xlink:href="$ForwardDeclarations_8h.html" xlink:title="Asteroids/ForwardDeclarations.h">
<polygon fill="#ffffff" stroke="#000000" points="0,-.5 0,-19.5 159,-19.5 159,-.5 0,-.5"/>
<text text-anchor="middle" x="79.5" y="-7.5" font-family="Helvetica,sans-Serif" font-size="10.00" fill="#000000">Asteroids/ForwardDeclarations.h</text>
</a>
</g>
</g>
<!-- Node0&#45;&gt;Node1 -->
<g id="edge1" class="edge">
<title>Node0&#45;&gt;Node1</title>
<path fill="none" stroke="#191970" d="M168.634,-56.4554C149.8089,-46.644 125.389,-33.9167 106.8708,-24.2653"/>
<polygon fill="#191970" stroke="#191970" points="108.2713,-21.0484 97.7858,-19.5303 105.036,-27.2559 108.2713,-21.0484"/>
</g>
<!-- Node2 -->
<g id="node3" class="node">
<title>Node2</title>
<polygon fill="#ffffff" stroke="#bfbfbf" points="177,-.5 177,-19.5 218,-19.5 218,-.5 177,-.5"/>
<text text-anchor="middle" x="197.5" y="-7.5" font-family="Helvetica,sans-Serif" font-size="10.00" fill="#000000">string</text>
</g>
<!-- Node0&#45;&gt;Node2 -->
<g id="edge2" class="edge">
<title>Node0&#45;&gt;Node2</title>
<path fill="none" stroke="#191970" d="M197.5,-56.2977C197.5,-48.3834 197.5,-38.6043 197.5,-30.0759"/>
<polygon fill="#191970" stroke="#191970" points="201.0001,-29.8469 197.5,-19.8469 194.0001,-29.847 201.0001,-29.8469"/>
</g>
<!-- Node3 -->
<g id="node4" class="node">
<title>Node3</title>
<polygon fill="#ffffff" stroke="#bfbfbf" points="236.5,-.5 236.5,-19.5 288.5,-19.5 288.5,-.5 236.5,-.5"/>
<text text-anchor="middle" x="262.5" y="-7.5" font-family="Helvetica,sans-Serif" font-size="10.00" fill="#000000">memory</text>
</g>
<!-- Node0&#45;&gt;Node3 -->
<g id="edge3" class="edge">
<title>Node0&#45;&gt;Node3</title>
<path fill="none" stroke="#191970" d="M213.5674,-56.2977C222.966,-47.4052 234.8527,-36.1586 244.557,-26.9769"/>
<polygon fill="#191970" stroke="#191970" points="247.2342,-29.2621 252.0927,-19.8469 242.4232,-24.1774 247.2342,-29.2621"/>
</g>
</g>
</svg>
