<?xml version="1.0" encoding="UTF-8" standalone="no"?>
<!DOCTYPE svg PUBLIC "-//W3C//DTD SVG 1.1//EN"
 "http://www.w3.org/Graphics/SVG/1.1/DTD/svg11.dtd">
<!-- Generated by graphviz version 2.40.1 (20161225.0304)
 -->
<!-- Title: Domain/Net/ClientServerCommunicatorInterface.h Pages: 1 -->
<svg width="641pt" height="218pt"
 viewBox="0.00 0.00 640.50 218.00" xmlns="http://www.w3.org/2000/svg" xmlns:xlink="http://www.w3.org/1999/xlink">
<g id="graph0" class="graph" transform="scale(1 1) rotate(0) translate(4 214)">
<title>Domain/Net/ClientServerCommunicatorInterface.h</title>
<polygon fill="#ffffff" stroke="transparent" points="-4,4 -4,-214 636.5,-214 636.5,4 -4,4"/>
<!-- Node4 -->
<g id="node1" class="node">
<title>Node4</title>
<polygon fill="#bfbfbf" stroke="#000000" points="302.5,-179.5 302.5,-209.5 492.5,-209.5 492.5,-179.5 302.5,-179.5"/>
<text text-anchor="start" x="310.5" y="-197.5" font-family="Helvetica,sans-Serif" font-size="10.00" fill="#000000">Domain/Net/ClientServerCommunicator</text>
<text text-anchor="middle" x="397.5" y="-186.5" font-family="Helvetica,sans-Serif" font-size="10.00" fill="#000000">Interface.h</text>
</g>
<!-- Node5 -->
<g id="node2" class="node">
<title>Node5</title>
<g id="a_node2"><a xlink:href="$ClientServerCommunicator_8h.html" xlink:title="Domain/Net/ClientServerCommunicator.h">
<polygon fill="#ffffff" stroke="#000000" points="98.5,-118 98.5,-137 296.5,-137 296.5,-118 98.5,-118"/>
<text text-anchor="middle" x="197.5" y="-125" font-family="Helvetica,sans-Serif" font-size="10.00" fill="#000000">Domain/Net/ClientServerCommunicator.h</text>
</a>
</g>
</g>
<!-- Node4&#45;&gt;Node5 -->
<g id="edge1" class="edge">
<title>Node4&#45;&gt;Node5</title>
<path fill="none" stroke="#191970" d="M342.7605,-176.1623C304.9411,-163.4928 256.1755,-147.1563 225.874,-137.0053"/>
<polygon fill="#191970" stroke="#191970" points="342.0222,-179.6061 352.6161,-179.4639 344.2458,-172.9686 342.0222,-179.6061"/>
</g>
<!-- Node10 -->
<g id="node7" class="node">
<title>Node10</title>
<g id="a_node7"><a xlink:href="$PaymentHelper_8cpp.html" xlink:title="Domain/Store/PaymentHelper.cpp">
<polygon fill="#ffffff" stroke="#000000" points="314.5,-118 314.5,-137 480.5,-137 480.5,-118 314.5,-118"/>
<text text-anchor="middle" x="397.5" y="-125" font-family="Helvetica,sans-Serif" font-size="10.00" fill="#000000">Domain/Store/PaymentHelper.cpp</text>
</a>
</g>
</g>
<!-- Node4&#45;&gt;Node10 -->
<g id="edge6" class="edge">
<title>Node4&#45;&gt;Node10</title>
<path fill="none" stroke="#191970" d="M397.5,-169.1199C397.5,-157.9072 397.5,-145.4031 397.5,-137.055"/>
<polygon fill="#191970" stroke="#191970" points="394.0001,-169.2966 397.5,-179.2967 401.0001,-169.2967 394.0001,-169.2966"/>
</g>
<!-- Node11 -->
<g id="node8" class="node">
<title>Node11</title>
<g id="a_node8"><a xlink:href="$ClientTextUI_8cpp.html" xlink:title="UI/ClientTextUI/ClientText\lUI.cpp">
<polygon fill="#ffffff" stroke="#000000" points="498.5,-112.5 498.5,-142.5 632.5,-142.5 632.5,-112.5 498.5,-112.5"/>
<text text-anchor="start" x="506.5" y="-130.5" font-family="Helvetica,sans-Serif" font-size="10.00" fill="#000000">UI/ClientTextUI/ClientText</text>
<text text-anchor="middle" x="565.5" y="-119.5" font-family="Helvetica,sans-Serif" font-size="10.00" fill="#000000">UI.cpp</text>
</a>
</g>
</g>
<!-- Node4&#45;&gt;Node11 -->
<g id="edge7" class="edge">
<title>Node4&#45;&gt;Node11</title>
<path fill="none" stroke="#191970" d="M444.5714,-175.7275C470.8069,-165.2645 503.043,-152.4084 527.6331,-142.6017"/>
<polygon fill="#191970" stroke="#191970" points="443.1945,-172.5085 435.2025,-179.4639 445.7876,-179.0105 443.1945,-172.5085"/>
</g>
<!-- Node6 -->
<g id="node3" class="node">
<title>Node6</title>
<g id="a_node3"><a xlink:href="$ClientServerCommunicator_8cpp.html" xlink:title="Domain/Net/ClientServerCommunicator.cpp">
<polygon fill="#ffffff" stroke="#000000" points="0,-56.5 0,-75.5 209,-75.5 209,-56.5 0,-56.5"/>
<text text-anchor="middle" x="104.5" y="-63.5" font-family="Helvetica,sans-Serif" font-size="10.00" fill="#000000">Domain/Net/ClientServerCommunicator.cpp</text>
</a>
</g>
</g>
<!-- Node5&#45;&gt;Node6 -->
<g id="edge2" class="edge">
<title>Node5&#45;&gt;Node6</title>
<path fill="none" stroke="#191970" d="M174.4935,-112.286C157.1038,-100.7864 133.7685,-85.355 118.9292,-75.5419"/>
<polygon fill="#191970" stroke="#191970" points="172.697,-115.2941 182.9688,-117.8906 176.5582,-109.4553 172.697,-115.2941"/>
</g>
<!-- Node7 -->
<g id="node4" class="node">
<title>Node7</title>
<g id="a_node4"><a xlink:href="$NetFactory_8h.html" xlink:title="Domain/Net/NetFactory.h">
<polygon fill="#ffffff" stroke="#000000" points="227,-56.5 227,-75.5 356,-75.5 356,-56.5 227,-56.5"/>
<text text-anchor="middle" x="291.5" y="-63.5" font-family="Helvetica,sans-Serif" font-size="10.00" fill="#000000">Domain/Net/NetFactory.h</text>
</a>
</g>
</g>
<!-- Node5&#45;&gt;Node7 -->
<g id="edge3" class="edge">
<title>Node5&#45;&gt;Node7</title>
<path fill="none" stroke="#191970" d="M220.7539,-112.286C238.3306,-100.7864 261.9168,-85.355 276.9156,-75.5419"/>
<polygon fill="#191970" stroke="#191970" points="218.6394,-109.4868 212.1875,-117.8906 222.4719,-115.3445 218.6394,-109.4868"/>
</g>
<!-- Node8 -->
<g id="node5" class="node">
<title>Node8</title>
<g id="a_node5"><a xlink:href="$Factory_8cpp.html" xlink:title="Domain/Factory/Factory.cpp">
<polygon fill="#ffffff" stroke="#000000" points="141,-.5 141,-19.5 282,-19.5 282,-.5 141,-.5"/>
<text text-anchor="middle" x="211.5" y="-7.5" font-family="Helvetica,sans-Serif" font-size="10.00" fill="#000000">Domain/Factory/Factory.cpp</text>
</a>
</g>
</g>
<!-- Node7&#45;&gt;Node8 -->
<g id="edge4" class="edge">
<title>Node7&#45;&gt;Node8</title>
<path fill="none" stroke="#191970" d="M269.3429,-50.49C255.228,-40.6096 237.3849,-28.1194 225.2752,-19.6427"/>
<polygon fill="#191970" stroke="#191970" points="267.3656,-53.3782 277.5651,-56.2455 271.3799,-47.6436 267.3656,-53.3782"/>
</g>
<!-- Node9 -->
<g id="node6" class="node">
<title>Node9</title>
<g id="a_node6"><a xlink:href="$NetFactory_8cpp.html" xlink:title="Domain/Net/NetFactory.cpp">
<polygon fill="#ffffff" stroke="#000000" points="300.5,-.5 300.5,-19.5 440.5,-19.5 440.5,-.5 300.5,-.5"/>
<text text-anchor="middle" x="370.5" y="-7.5" font-family="Helvetica,sans-Serif" font-size="10.00" fill="#000000">Domain/Net/NetFactory.cpp</text>
</a>
</g>
</g>
<!-- Node7&#45;&gt;Node9 -->
<g id="edge5" class="edge">
<title>Node7&#45;&gt;Node9</title>
<path fill="none" stroke="#191970" d="M313.7756,-50.2097C327.6505,-40.3743 345.0515,-28.0394 356.8969,-19.6427"/>
<polygon fill="#191970" stroke="#191970" points="311.3949,-47.6071 305.2607,-56.2455 315.4431,-53.3178 311.3949,-47.6071"/>
</g>
</g>
</svg>
