<?xml version="1.0" encoding="UTF-8" standalone="no"?>
<!DOCTYPE svg PUBLIC "-//W3C//DTD SVG 1.1//EN"
 "http://www.w3.org/Graphics/SVG/1.1/DTD/svg11.dtd">
<!-- Generated by graphviz version 2.40.1 (20161225.0304)
 -->
<!-- Title: UI/ClientTextUI/ClientTextUIInterface.h Pages: 1 -->
<svg width="333pt" height="162pt"
 viewBox="0.00 0.00 332.50 162.00" xmlns="http://www.w3.org/2000/svg" xmlns:xlink="http://www.w3.org/1999/xlink">
<g id="graph0" class="graph" transform="scale(1 1) rotate(0) translate(4 158)">
<title>UI/ClientTextUI/ClientTextUIInterface.h</title>
<polygon fill="#ffffff" stroke="transparent" points="-4,4 -4,-158 328.5,-158 328.5,4 -4,4"/>
<!-- Node2 -->
<g id="node1" class="node">
<title>Node2</title>
<polygon fill="#bfbfbf" stroke="#000000" points="69.5,-123.5 69.5,-153.5 203.5,-153.5 203.5,-123.5 69.5,-123.5"/>
<text text-anchor="start" x="77.5" y="-141.5" font-family="Helvetica,sans-Serif" font-size="10.00" fill="#000000">UI/ClientTextUI/ClientText</text>
<text text-anchor="middle" x="136.5" y="-130.5" font-family="Helvetica,sans-Serif" font-size="10.00" fill="#000000">UIInterface.h</text>
</g>
<!-- Node3 -->
<g id="node2" class="node">
<title>Node3</title>
<g id="a_node2"><a xlink:href="$main-console-client_8cpp.html" xlink:title="main&#45;console&#45;client.cpp">
<polygon fill="#ffffff" stroke="#000000" points="0,-67.5 0,-86.5 119,-86.5 119,-67.5 0,-67.5"/>
<text text-anchor="middle" x="59.5" y="-74.5" font-family="Helvetica,sans-Serif" font-size="10.00" fill="#000000">main&#45;console&#45;client.cpp</text>
</a>
</g>
</g>
<!-- Node2&#45;&gt;Node3 -->
<g id="edge1" class="edge">
<title>Node2&#45;&gt;Node3</title>
<path fill="none" stroke="#191970" d="M109.3836,-116.8421C96.5768,-106.6133 81.9236,-94.9097 71.8287,-86.8469"/>
<polygon fill="#191970" stroke="#191970" points="107.4684,-119.7917 117.4663,-123.2977 111.8369,-114.3222 107.4684,-119.7917"/>
</g>
<!-- Node4 -->
<g id="node3" class="node">
<title>Node4</title>
<g id="a_node3"><a xlink:href="$ClientTextUI_8h.html" xlink:title="UI/ClientTextUI/ClientTextUI.h">
<polygon fill="#ffffff" stroke="#000000" points="137.5,-67.5 137.5,-86.5 289.5,-86.5 289.5,-67.5 137.5,-67.5"/>
<text text-anchor="middle" x="213.5" y="-74.5" font-family="Helvetica,sans-Serif" font-size="10.00" fill="#000000">UI/ClientTextUI/ClientTextUI.h</text>
</a>
</g>
</g>
<!-- Node2&#45;&gt;Node4 -->
<g id="edge2" class="edge">
<title>Node2&#45;&gt;Node4</title>
<path fill="none" stroke="#191970" d="M163.6164,-116.8421C176.4232,-106.6133 191.0764,-94.9097 201.1713,-86.8469"/>
<polygon fill="#191970" stroke="#191970" points="161.1631,-114.3222 155.5337,-123.2977 165.5316,-119.7917 161.1631,-114.3222"/>
</g>
<!-- Node5 -->
<g id="node4" class="node">
<title>Node5</title>
<g id="a_node4"><a xlink:href="$ClientTextUI_8cpp.html" xlink:title="UI/ClientTextUI/ClientText\lUI.cpp">
<polygon fill="#ffffff" stroke="#000000" points="80.5,-.5 80.5,-30.5 214.5,-30.5 214.5,-.5 80.5,-.5"/>
<text text-anchor="start" x="88.5" y="-18.5" font-family="Helvetica,sans-Serif" font-size="10.00" fill="#000000">UI/ClientTextUI/ClientText</text>
<text text-anchor="middle" x="147.5" y="-7.5" font-family="Helvetica,sans-Serif" font-size="10.00" fill="#000000">UI.cpp</text>
</a>
</g>
</g>
<!-- Node4&#45;&gt;Node5 -->
<g id="edge3" class="edge">
<title>Node4&#45;&gt;Node5</title>
<path fill="none" stroke="#191970" d="M195.7793,-60.4875C185.7788,-51.1689 173.3759,-39.6116 163.6454,-30.5446"/>
<polygon fill="#191970" stroke="#191970" points="193.4853,-63.134 203.1875,-67.3906 198.2574,-58.0127 193.4853,-63.134"/>
</g>
<!-- Node6 -->
<g id="node5" class="node">
<title>Node6</title>
<g id="a_node5"><a xlink:href="$UIFactory_8cpp.html" xlink:title="UI/UIFactory.cpp">
<polygon fill="#ffffff" stroke="#000000" points="232.5,-6 232.5,-25 324.5,-25 324.5,-6 232.5,-6"/>
<text text-anchor="middle" x="278.5" y="-13" font-family="Helvetica,sans-Serif" font-size="10.00" fill="#000000">UI/UIFactory.cpp</text>
</a>
</g>
</g>
<!-- Node4&#45;&gt;Node6 -->
<g id="edge4" class="edge">
<title>Node4&#45;&gt;Node6</title>
<path fill="none" stroke="#191970" d="M231.2293,-60.2253C243.0905,-49.0028 258.2857,-34.6258 268.2006,-25.2449"/>
<polygon fill="#191970" stroke="#191970" points="228.5147,-57.9754 223.6563,-67.3906 233.3257,-63.0602 228.5147,-57.9754"/>
</g>
</g>
</svg>
