<?xml version="1.0" encoding="UTF-8" standalone="no"?>
<!DOCTYPE svg PUBLIC "-//W3C//DTD SVG 1.1//EN"
 "http://www.w3.org/Graphics/SVG/1.1/DTD/svg11.dtd">
<!-- Generated by graphviz version 2.40.1 (20161225.0304)
 -->
<!-- Title: TechnicalServices/Persistence/Databaser.h Pages: 1 -->
<svg width="342pt" height="162pt"
 viewBox="0.00 0.00 342.00 162.00" xmlns="http://www.w3.org/2000/svg" xmlns:xlink="http://www.w3.org/1999/xlink">
<g id="graph0" class="graph" transform="scale(1 1) rotate(0) translate(4 158)">
<title>TechnicalServices/Persistence/Databaser.h</title>
<polygon fill="#ffffff" stroke="transparent" points="-4,4 -4,-158 338,-158 338,4 -4,4"/>
<!-- Node0 -->
<g id="node1" class="node">
<title>Node0</title>
<polygon fill="#bfbfbf" stroke="#000000" points="62.5,-123.5 62.5,-153.5 214.5,-153.5 214.5,-123.5 62.5,-123.5"/>
<text text-anchor="start" x="70.5" y="-141.5" font-family="Helvetica,sans-Serif" font-size="10.00" fill="#000000">TechnicalServices/Persistence</text>
<text text-anchor="middle" x="138.5" y="-130.5" font-family="Helvetica,sans-Serif" font-size="10.00" fill="#000000">/Databaser.h</text>
</g>
<!-- Node1 -->
<g id="node2" class="node">
<title>Node1</title>
<g id="a_node2"><a xlink:href="$ForwardDeclarations_8h.html" xlink:title="Asteroids/ForwardDeclarations.h">
<polygon fill="#ffffff" stroke="#000000" points="0,-.5 0,-19.5 159,-19.5 159,-.5 0,-.5"/>
<text text-anchor="middle" x="79.5" y="-7.5" font-family="Helvetica,sans-Serif" font-size="10.00" fill="#000000">Asteroids/ForwardDeclarations.h</text>
</a>
</g>
</g>
<!-- Node0&#45;&gt;Node1 -->
<g id="edge1" class="edge">
<title>Node0&#45;&gt;Node1</title>
<path fill="none" stroke="#191970" d="M127.3567,-123.2986C120.4133,-113.3359 111.6605,-99.8268 105.5,-87 96.4669,-68.1922 89.1942,-45.4204 84.6622,-29.5396"/>
<polygon fill="#191970" stroke="#191970" points="88.004,-28.4915 81.9746,-19.7796 81.2552,-30.3499 88.004,-28.4915"/>
</g>
<!-- Node2 -->
<g id="node3" class="node">
<title>Node2</title>
<g id="a_node3"><a xlink:href="$DatabaserInterface_8h.html" xlink:title="Asteroids/TechnicalServices\l/Persistence/DatabaserInterface.h">
<polygon fill="#ffffff" stroke="#000000" points="114.5,-56.5 114.5,-86.5 280.5,-86.5 280.5,-56.5 114.5,-56.5"/>
<text text-anchor="start" x="122.5" y="-74.5" font-family="Helvetica,sans-Serif" font-size="10.00" fill="#000000">Asteroids/TechnicalServices</text>
<text text-anchor="middle" x="197.5" y="-63.5" font-family="Helvetica,sans-Serif" font-size="10.00" fill="#000000">/Persistence/DatabaserInterface.h</text>
</a>
</g>
</g>
<!-- Node0&#45;&gt;Node2 -->
<g id="edge2" class="edge">
<title>Node0&#45;&gt;Node2</title>
<path fill="none" stroke="#191970" d="M151.888,-123.2967C159.4315,-114.7303 169.0027,-103.8614 177.4274,-94.2943"/>
<polygon fill="#191970" stroke="#191970" points="180.1829,-96.4612 184.165,-86.6432 174.9294,-91.835 180.1829,-96.4612"/>
</g>
<!-- Node2&#45;&gt;Node1 -->
<g id="edge3" class="edge">
<title>Node2&#45;&gt;Node1</title>
<path fill="none" stroke="#191970" d="M168.634,-56.4554C149.8089,-46.644 125.389,-33.9167 106.8708,-24.2653"/>
<polygon fill="#191970" stroke="#191970" points="108.2713,-21.0484 97.7858,-19.5303 105.036,-27.2559 108.2713,-21.0484"/>
</g>
<!-- Node3 -->
<g id="node4" class="node">
<title>Node3</title>
<polygon fill="#ffffff" stroke="#bfbfbf" points="177,-.5 177,-19.5 218,-19.5 218,-.5 177,-.5"/>
<text text-anchor="middle" x="197.5" y="-7.5" font-family="Helvetica,sans-Serif" font-size="10.00" fill="#000000">string</text>
</g>
<!-- Node2&#45;&gt;Node3 -->
<g id="edge4" class="edge">
<title>Node2&#45;&gt;Node3</title>
<path fill="none" stroke="#191970" d="M197.5,-56.2977C197.5,-48.3834 197.5,-38.6043 197.5,-30.0759"/>
<polygon fill="#191970" stroke="#191970" points="201.0001,-29.8469 197.5,-19.8469 194.0001,-29.847 201.0001,-29.8469"/>
</g>
<!-- Node4 -->
<g id="node5" class="node">
<title>Node4</title>
<polygon fill="#ffffff" stroke="#bfbfbf" points="236.5,-.5 236.5,-19.5 280.5,-19.5 280.5,-.5 236.5,-.5"/>
<text text-anchor="middle" x="258.5" y="-7.5" font-family="Helvetica,sans-Serif" font-size="10.00" fill="#000000">vector</text>
</g>
<!-- Node2&#45;&gt;Node4 -->
<g id="edge5" class="edge">
<title>Node2&#45;&gt;Node4</title>
<path fill="none" stroke="#191970" d="M212.5787,-56.2977C221.3989,-47.4052 232.5541,-36.1586 241.6612,-26.9769"/>
<polygon fill="#191970" stroke="#191970" points="244.1759,-29.4116 248.7331,-19.8469 239.206,-24.4821 244.1759,-29.4116"/>
</g>
<!-- Node5 -->
<g id="node6" class="node">
<title>Node5</title>
<polygon fill="#ffffff" stroke="#bfbfbf" points="299,-.5 299,-19.5 334,-19.5 334,-.5 299,-.5"/>
<text text-anchor="middle" x="316.5" y="-7.5" font-family="Helvetica,sans-Serif" font-size="10.00" fill="#000000">map</text>
</g>
<!-- Node2&#45;&gt;Node5 -->
<g id="edge6" class="edge">
<title>Node2&#45;&gt;Node5</title>
<path fill="none" stroke="#191970" d="M226.6107,-56.4554C245.9178,-46.4773 271.0605,-33.4834 289.8439,-23.7761"/>
<polygon fill="#191970" stroke="#191970" points="291.484,-26.8683 298.7608,-19.1677 288.2701,-20.6496 291.484,-26.8683"/>
</g>
</g>
</svg>
