<?xml version="1.0" encoding="UTF-8" standalone="no"?>
<!DOCTYPE svg PUBLIC "-//W3C//DTD SVG 1.1//EN"
 "http://www.w3.org/Graphics/SVG/1.1/DTD/svg11.dtd">
<!-- Generated by graphviz version 2.40.1 (20161225.0304)
 -->
<!-- Title: TechnicalServices/Persistence/DatabaserInterface.h Pages: 1 -->
<svg width="342pt" height="95pt"
 viewBox="0.00 0.00 342.00 95.00" xmlns="http://www.w3.org/2000/svg" xmlns:xlink="http://www.w3.org/1999/xlink">
<g id="graph0" class="graph" transform="scale(1 1) rotate(0) translate(4 91)">
<title>TechnicalServices/Persistence/DatabaserInterface.h</title>
<polygon fill="#ffffff" stroke="transparent" points="-4,4 -4,-91 338,-91 338,4 -4,4"/>
<!-- Node0 -->
<g id="node1" class="node">
<title>Node0</title>
<polygon fill="#bfbfbf" stroke="#000000" points="151.5,-56.5 151.5,-86.5 303.5,-86.5 303.5,-56.5 151.5,-56.5"/>
<text text-anchor="start" x="159.5" y="-74.5" font-family="Helvetica,sans-Serif" font-size="10.00" fill="#000000">TechnicalServices/Persistence</text>
<text text-anchor="middle" x="227.5" y="-63.5" font-family="Helvetica,sans-Serif" font-size="10.00" fill="#000000">/DatabaserInterface.h</text>
</g>
<!-- Node1 -->
<g id="node2" class="node">
<title>Node1</title>
<g id="a_node2"><a xlink:href="$ForwardDeclarations_8h.html" xlink:title="Asteroids/ForwardDeclarations.h">
<polygon fill="#ffffff" stroke="#000000" points="0,-.5 0,-19.5 159,-19.5 159,-.5 0,-.5"/>
<text text-anchor="middle" x="79.5" y="-7.5" font-family="Helvetica,sans-Serif" font-size="10.00" fill="#000000">Asteroids/ForwardDeclarations.h</text>
</a>
</g>
</g>
<!-- Node0&#45;&gt;Node1 -->
<g id="edge1" class="edge">
<title>Node0&#45;&gt;Node1</title>
<path fill="none" stroke="#191970" d="M191.2951,-56.4554C167.0342,-46.374 135.3644,-33.2139 111.9288,-23.4755"/>
<polygon fill="#191970" stroke="#191970" points="113.0123,-20.1356 102.4347,-19.5303 110.3261,-26.5997 113.0123,-20.1356"/>
</g>
<!-- Node2 -->
<g id="node3" class="node">
<title>Node2</title>
<polygon fill="#ffffff" stroke="#bfbfbf" points="177,-.5 177,-19.5 218,-19.5 218,-.5 177,-.5"/>
<text text-anchor="middle" x="197.5" y="-7.5" font-family="Helvetica,sans-Serif" font-size="10.00" fill="#000000">string</text>
</g>
<!-- Node0&#45;&gt;Node2 -->
<g id="edge2" class="edge">
<title>Node0&#45;&gt;Node2</title>
<path fill="none" stroke="#191970" d="M220.0843,-56.2977C216.0501,-48.0277 211.0227,-37.7215 206.736,-28.9339"/>
<polygon fill="#191970" stroke="#191970" points="209.8334,-27.3001 202.3034,-19.8469 203.542,-30.3691 209.8334,-27.3001"/>
</g>
<!-- Node3 -->
<g id="node4" class="node">
<title>Node3</title>
<polygon fill="#ffffff" stroke="#bfbfbf" points="236.5,-.5 236.5,-19.5 280.5,-19.5 280.5,-.5 236.5,-.5"/>
<text text-anchor="middle" x="258.5" y="-7.5" font-family="Helvetica,sans-Serif" font-size="10.00" fill="#000000">vector</text>
</g>
<!-- Node0&#45;&gt;Node3 -->
<g id="edge3" class="edge">
<title>Node0&#45;&gt;Node3</title>
<path fill="none" stroke="#191970" d="M235.1629,-56.2977C239.3316,-48.0277 244.5265,-37.7215 248.9561,-28.9339"/>
<polygon fill="#191970" stroke="#191970" points="252.1607,-30.3521 253.5365,-19.8469 245.9099,-27.2012 252.1607,-30.3521"/>
</g>
<!-- Node4 -->
<g id="node5" class="node">
<title>Node4</title>
<polygon fill="#ffffff" stroke="#bfbfbf" points="299,-.5 299,-19.5 334,-19.5 334,-.5 299,-.5"/>
<text text-anchor="middle" x="316.5" y="-7.5" font-family="Helvetica,sans-Serif" font-size="10.00" fill="#000000">map</text>
</g>
<!-- Node0&#45;&gt;Node4 -->
<g id="edge4" class="edge">
<title>Node0&#45;&gt;Node4</title>
<path fill="none" stroke="#191970" d="M249.5,-56.2977C263.0968,-46.9022 280.4966,-34.8787 294.1567,-25.4395"/>
<polygon fill="#191970" stroke="#191970" points="296.2785,-28.2276 302.5158,-19.6633 292.2991,-22.4688 296.2785,-28.2276"/>
</g>
</g>
</svg>
