<?xml version="1.0" encoding="UTF-8" standalone="no"?>
<!DOCTYPE svg PUBLIC "-//W3C//DTD SVG 1.1//EN"
 "http://www.w3.org/Graphics/SVG/1.1/DTD/svg11.dtd">
<!-- Generated by graphviz version 2.40.1 (20161225.0304)
 -->
<!-- Title: UI/ClientTextUI Pages: 1 -->
<svg width="196pt" height="231pt"
 viewBox="0.00 0.00 196.00 231.00" xmlns="http://www.w3.org/2000/svg" xmlns:xlink="http://www.w3.org/1999/xlink">
<g id="graph0" class="graph" transform="scale(1 1) rotate(0) translate(4 227)">
<title>UI/ClientTextUI</title>
<polygon fill="#ffffff" stroke="transparent" points="-4,4 -4,-227 192,-227 192,4 -4,4"/>
<g id="clust1" class="cluster">
<title>clusterdir_53ff6e473d46d4e442ba5a7ce9f895e3</title>
<g id="a_clust1"><a xlink:href="dir_53ff6e473d46d4e442ba5a7ce9f895e3.html" xlink:title="UI">
<polygon fill="#ddddee" stroke="#000000" points="8,-56 8,-215 112,-215 112,-56 8,-56"/>
<text text-anchor="middle" x="60" y="-203" font-family="Helvetica,sans-Serif" font-size="10.00" fill="#000000">UI</text>
</a>
</g>
</g>
<g id="clust2" class="cluster">
<title>clusterdir_5d43b298bacc6285dd73fdcc45530c8e</title>
<g id="a_clust2"><a xlink:href="dir_5d43b298bacc6285dd73fdcc45530c8e.html">
<polygon fill="#eeeeff" stroke="#000000" points="16,-64 16,-188 104,-188 104,-64 16,-64"/>
</a>
</g>
</g>
<!-- dir_5d43b298bacc6285dd73fdcc45530c8e -->
<g id="node1" class="node">
<title>dir_5d43b298bacc6285dd73fdcc45530c8e</title>
<text text-anchor="middle" x="60" y="-159.5" font-family="Helvetica,sans-Serif" font-size="10.00" fill="#000000">ClientTextUI</text>
</g>
<!-- dir_b0cab7c6ae0c53341f9e47efc5222e3c -->
<g id="node2" class="node">
<title>dir_b0cab7c6ae0c53341f9e47efc5222e3c</title>
<g id="a_node2"><a xlink:href="dir_b0cab7c6ae0c53341f9e47efc5222e3c.html" xlink:title="Enums">
<polygon fill="#ffffff" stroke="#000000" points="78,-108 24,-108 24,-72 78,-72 78,-108"/>
<text text-anchor="middle" x="51" y="-87.5" font-family="Helvetica,sans-Serif" font-size="10.00" fill="#000000">Enums</text>
</a>
</g>
</g>
<!-- dir_5d43b298bacc6285dd73fdcc45530c8e&#45;&gt;dir_b0cab7c6ae0c53341f9e47efc5222e3c -->
<g id="edge2" class="edge">
<title>dir_5d43b298bacc6285dd73fdcc45530c8e&#45;&gt;dir_b0cab7c6ae0c53341f9e47efc5222e3c</title>
<path fill="none" stroke="#000000" d="M57.7289,-143.8314C56.7664,-136.131 55.6218,-126.9743 54.5521,-118.4166"/>
<polygon fill="#000000" stroke="#000000" points="58.0151,-117.9019 53.3017,-108.4133 51.0691,-118.7702 58.0151,-117.9019"/>
<g id="a_edge2&#45;headlabel"><a xlink:href="dir_000005_000012.html" xlink:title="1">
<text text-anchor="middle" x="61.2782" y="-118.6166" font-family="Helvetica,sans-Serif" font-size="10.00" fill="#000000">1</text>
</a>
</g>
</g>
<!-- dir_2b443badf70068dbf14fb9726037da1f -->
<g id="node3" class="node">
<title>dir_2b443badf70068dbf14fb9726037da1f</title>
<g id="a_node3"><a xlink:href="dir_2b443badf70068dbf14fb9726037da1f.html" xlink:title="TechnicalServices">
<polygon fill="#ffffff" stroke="#ff0000" points="181.5,-36 84.5,-36 84.5,0 181.5,0 181.5,-36"/>
<text text-anchor="middle" x="133" y="-15.5" font-family="Helvetica,sans-Serif" font-size="10.00" fill="#000000">TechnicalServices</text>
</a>
</g>
</g>
<!-- dir_5d43b298bacc6285dd73fdcc45530c8e&#45;&gt;dir_2b443badf70068dbf14fb9726037da1f -->
<g id="edge1" class="edge">
<title>dir_5d43b298bacc6285dd73fdcc45530c8e&#45;&gt;dir_2b443badf70068dbf14fb9726037da1f</title>
<path fill="none" stroke="#000000" d="M69.2455,-143.7623C81.8612,-118.8764 104.5694,-74.0822 119.2028,-45.2165"/>
<polygon fill="#000000" stroke="#000000" points="122.4297,-46.5916 123.8296,-36.0896 116.1861,-43.4264 122.4297,-46.5916"/>
<g id="a_edge1&#45;headlabel"><a xlink:href="dir_000005_000016.html" xlink:title="3">
<text text-anchor="middle" x="123.3368" y="-48.5815" font-family="Helvetica,sans-Serif" font-size="10.00" fill="#000000">3</text>
</a>
</g>
</g>
<!-- dir_8c888e3f1190d8e08b273c29d1443e32 -->
<g id="node4" class="node">
<title>dir_8c888e3f1190d8e08b273c29d1443e32</title>
<g id="a_node4"><a xlink:href="dir_8c888e3f1190d8e08b273c29d1443e32.html" xlink:title="Domain">
<polygon fill="#ffffff" stroke="#ff0000" points="188,-108 134,-108 134,-72 188,-72 188,-108"/>
<text text-anchor="middle" x="161" y="-87.5" font-family="Helvetica,sans-Serif" font-size="10.00" fill="#000000">Domain</text>
</a>
</g>
</g>
<!-- dir_5d43b298bacc6285dd73fdcc45530c8e&#45;&gt;dir_8c888e3f1190d8e08b273c29d1443e32 -->
<g id="edge3" class="edge">
<title>dir_5d43b298bacc6285dd73fdcc45530c8e&#45;&gt;dir_8c888e3f1190d8e08b273c29d1443e32</title>
<path fill="none" stroke="#000000" d="M85.4866,-143.8314C98.1659,-134.7927 113.6596,-123.7476 127.3055,-114.0198"/>
<polygon fill="#000000" stroke="#000000" points="129.4105,-116.8176 135.5216,-108.1628 125.3471,-111.1176 129.4105,-116.8176"/>
<g id="a_edge3&#45;headlabel"><a xlink:href="dir_000005_000000.html" xlink:title="23">
<text text-anchor="middle" x="128.1316" y="-118.7161" font-family="Helvetica,sans-Serif" font-size="10.00" fill="#000000">23</text>
</a>
</g>
</g>
<!-- dir_8c888e3f1190d8e08b273c29d1443e32&#45;&gt;dir_2b443badf70068dbf14fb9726037da1f -->
<g id="edge4" class="edge">
<title>dir_8c888e3f1190d8e08b273c29d1443e32&#45;&gt;dir_2b443badf70068dbf14fb9726037da1f</title>
<path fill="none" stroke="#000000" d="M153.9344,-71.8314C150.874,-63.9617 147.2221,-54.5712 143.8318,-45.8533"/>
<polygon fill="#000000" stroke="#000000" points="147.0473,-44.4647 140.1607,-36.4133 140.5232,-47.0019 147.0473,-44.4647"/>
<g id="a_edge4&#45;headlabel"><a xlink:href="dir_000000_000016.html" xlink:title="3">
<text text-anchor="middle" x="150.9963" y="-44.2859" font-family="Helvetica,sans-Serif" font-size="10.00" fill="#000000">3</text>
</a>
</g>
</g>
</g>
</svg>
