<?xml version="1.0" encoding="UTF-8" standalone="no"?>
<!DOCTYPE svg PUBLIC "-//W3C//DTD SVG 1.1//EN"
 "http://www.w3.org/Graphics/SVG/1.1/DTD/svg11.dtd">
<!-- Generated by graphviz version 2.40.1 (20161225.0304)
 -->
<!-- Title: Domain/Server Pages: 1 -->
<svg width="150pt" height="151pt"
 viewBox="0.00 0.00 150.00 151.00" xmlns="http://www.w3.org/2000/svg" xmlns:xlink="http://www.w3.org/1999/xlink">
<g id="graph0" class="graph" transform="scale(1 1) rotate(0) translate(4 147)">
<title>Domain/Server</title>
<polygon fill="#ffffff" stroke="transparent" points="-4,4 -4,-147 146,-147 146,4 -4,4"/>
<g id="clust1" class="cluster">
<title>clusterdir_8c888e3f1190d8e08b273c29d1443e32</title>
<g id="a_clust1"><a xlink:href="dir_8c888e3f1190d8e08b273c29d1443e32.html" xlink:title="Domain">
<polygon fill="#ddddee" stroke="#000000" points="8,-64 8,-135 78,-135 78,-64 8,-64"/>
<text text-anchor="middle" x="43" y="-123" font-family="Helvetica,sans-Serif" font-size="10.00" fill="#000000">Domain</text>
</a>
</g>
</g>
<!-- dir_6114d036417128150191e2360d6d9bff -->
<g id="node1" class="node">
<title>dir_6114d036417128150191e2360d6d9bff</title>
<g id="a_node1"><a xlink:href="dir_6114d036417128150191e2360d6d9bff.html" xlink:title="Server">
<polygon fill="#eeeeff" stroke="#000000" points="70,-108 16,-108 16,-72 70,-72 70,-108"/>
<text text-anchor="middle" x="43" y="-87.5" font-family="Helvetica,sans-Serif" font-size="10.00" fill="#000000">Server</text>
</a>
</g>
</g>
<!-- dir_5a09006dcfc05a9e26f918e0f357e7ea -->
<g id="node2" class="node">
<title>dir_5a09006dcfc05a9e26f918e0f357e7ea</title>
<g id="a_node2"><a xlink:href="dir_5a09006dcfc05a9e26f918e0f357e7ea.html" xlink:title="Factory">
<polygon fill="none" stroke="#000000" points="142,-108 88,-108 88,-72 142,-72 142,-108"/>
<text text-anchor="middle" x="115" y="-87.5" font-family="Helvetica,sans-Serif" font-size="10.00" fill="#000000">Factory</text>
</a>
</g>
</g>
<!-- dir_6114d036417128150191e2360d6d9bff&#45;&gt;dir_5a09006dcfc05a9e26f918e0f357e7ea -->
<g id="edge3" class="edge">
<title>dir_6114d036417128150191e2360d6d9bff&#45;&gt;dir_5a09006dcfc05a9e26f918e0f357e7ea</title>
<path fill="none" stroke="#000000" d="M70.2813,-90C72.7377,-90 75.1942,-90 77.6507,-90"/>
<polygon fill="#000000" stroke="#000000" points="77.7495,-93.5001 87.7495,-90 77.7495,-86.5001 77.7495,-93.5001"/>
<g id="a_edge3&#45;headlabel"><a xlink:href="dir_000015_000001.html" xlink:title="1">
<text text-anchor="middle" x="74.1549" y="-93.8393" font-family="Helvetica,sans-Serif" font-size="10.00" fill="#000000">1</text>
</a>
</g>
</g>
<!-- dir_2b443badf70068dbf14fb9726037da1f -->
<g id="node3" class="node">
<title>dir_2b443badf70068dbf14fb9726037da1f</title>
<g id="a_node3"><a xlink:href="dir_2b443badf70068dbf14fb9726037da1f.html" xlink:title="TechnicalServices">
<polygon fill="#ffffff" stroke="#ff0000" points="127.5,-36 30.5,-36 30.5,0 127.5,0 127.5,-36"/>
<text text-anchor="middle" x="79" y="-15.5" font-family="Helvetica,sans-Serif" font-size="10.00" fill="#000000">TechnicalServices</text>
</a>
</g>
</g>
<!-- dir_6114d036417128150191e2360d6d9bff&#45;&gt;dir_2b443badf70068dbf14fb9726037da1f -->
<g id="edge4" class="edge">
<title>dir_6114d036417128150191e2360d6d9bff&#45;&gt;dir_2b443badf70068dbf14fb9726037da1f</title>
<path fill="none" stroke="#000000" d="M52.0843,-71.8314C56.0615,-63.8771 60.8155,-54.369 65.2139,-45.5723"/>
<polygon fill="#000000" stroke="#000000" points="68.4517,-46.9228 69.7934,-36.4133 62.1907,-43.7923 68.4517,-46.9228"/>
<g id="a_edge4&#45;headlabel"><a xlink:href="dir_000015_000016.html" xlink:title="2">
<text text-anchor="middle" x="69.3837" y="-48.9077" font-family="Helvetica,sans-Serif" font-size="10.00" fill="#000000">2</text>
</a>
</g>
</g>
<!-- dir_5a09006dcfc05a9e26f918e0f357e7ea&#45;&gt;dir_6114d036417128150191e2360d6d9bff -->
<g id="edge2" class="edge">
<title>dir_5a09006dcfc05a9e26f918e0f357e7ea&#45;&gt;dir_6114d036417128150191e2360d6d9bff</title>
<path fill="none" stroke="#000000" d="M87.7495,-90C85.293,-90 82.8366,-90 80.3801,-90"/>
<polygon fill="#000000" stroke="#000000" points="80.2813,-86.5001 70.2813,-90 80.2812,-93.5001 80.2813,-86.5001"/>
<g id="a_edge2&#45;headlabel"><a xlink:href="dir_000001_000015.html" xlink:title="1">
<text text-anchor="middle" x="83.8759" y="-81.1607" font-family="Helvetica,sans-Serif" font-size="10.00" fill="#000000">1</text>
</a>
</g>
</g>
<!-- dir_5a09006dcfc05a9e26f918e0f357e7ea&#45;&gt;dir_2b443badf70068dbf14fb9726037da1f -->
<g id="edge1" class="edge">
<title>dir_5a09006dcfc05a9e26f918e0f357e7ea&#45;&gt;dir_2b443badf70068dbf14fb9726037da1f</title>
<path fill="none" stroke="#000000" d="M105.9157,-71.8314C101.9385,-63.8771 97.1845,-54.369 92.7861,-45.5723"/>
<polygon fill="#000000" stroke="#000000" points="95.8093,-43.7923 88.2066,-36.4133 89.5483,-46.9228 95.8093,-43.7923"/>
<g id="a_edge1&#45;headlabel"><a xlink:href="dir_000001_000016.html" xlink:title="1">
<text text-anchor="middle" x="99.9563" y="-43.2377" font-family="Helvetica,sans-Serif" font-size="10.00" fill="#000000">1</text>
</a>
</g>
</g>
</g>
</svg>
