<?xml version="1.0" encoding="UTF-8" standalone="no"?>
<!DOCTYPE svg PUBLIC "-//W3C//DTD SVG 1.1//EN"
 "http://www.w3.org/Graphics/SVG/1.1/DTD/svg11.dtd">
<!-- Generated by graphviz version 2.40.1 (20161225.0304)
 -->
<!-- Title: Domain/Net/Authentication Pages: 1 -->
<svg width="118pt" height="151pt"
 viewBox="0.00 0.00 118.00 151.00" xmlns="http://www.w3.org/2000/svg" xmlns:xlink="http://www.w3.org/1999/xlink">
<g id="graph0" class="graph" transform="scale(1 1) rotate(0) translate(4 147)">
<title>Domain/Net/Authentication</title>
<polygon fill="#ffffff" stroke="transparent" points="-4,4 -4,-147 114,-147 114,4 -4,4"/>
<g id="clust1" class="cluster">
<title>clusterdir_71a3c507df02df55ec4315289e7008b4</title>
<g id="a_clust1"><a xlink:href="dir_71a3c507df02df55ec4315289e7008b4.html" xlink:title="Net">
<polygon fill="#ddddee" stroke="#000000" points="8,-64 8,-135 102,-135 102,-64 8,-64"/>
<text text-anchor="middle" x="55" y="-123" font-family="Helvetica,sans-Serif" font-size="10.00" fill="#000000">Net</text>
</a>
</g>
</g>
<!-- dir_0ed6e839f02efe19cff0b5a26f7de4c3 -->
<g id="node1" class="node">
<title>dir_0ed6e839f02efe19cff0b5a26f7de4c3</title>
<g id="a_node1"><a xlink:href="dir_0ed6e839f02efe19cff0b5a26f7de4c3.html" xlink:title="Authentication">
<polygon fill="#eeeeff" stroke="#000000" points="94.5,-108 15.5,-108 15.5,-72 94.5,-72 94.5,-108"/>
<text text-anchor="middle" x="55" y="-87.5" font-family="Helvetica,sans-Serif" font-size="10.00" fill="#000000">Authentication</text>
</a>
</g>
</g>
<!-- dir_d124068c658363a9ad76c7f9b7f39a47 -->
<g id="node2" class="node">
<title>dir_d124068c658363a9ad76c7f9b7f39a47</title>
<g id="a_node2"><a xlink:href="dir_d124068c658363a9ad76c7f9b7f39a47.html" xlink:title="Messages">
<polygon fill="#ffffff" stroke="#ff0000" points="86,-36 24,-36 24,0 86,0 86,-36"/>
<text text-anchor="middle" x="55" y="-15.5" font-family="Helvetica,sans-Serif" font-size="10.00" fill="#000000">Messages</text>
</a>
</g>
</g>
<!-- dir_0ed6e839f02efe19cff0b5a26f7de4c3&#45;&gt;dir_d124068c658363a9ad76c7f9b7f39a47 -->
<g id="edge1" class="edge">
<title>dir_0ed6e839f02efe19cff0b5a26f7de4c3&#45;&gt;dir_d124068c658363a9ad76c7f9b7f39a47</title>
<path fill="none" stroke="#000000" d="M55,-71.8314C55,-64.131 55,-54.9743 55,-46.4166"/>
<polygon fill="#000000" stroke="#000000" points="58.5001,-46.4132 55,-36.4133 51.5001,-46.4133 58.5001,-46.4132"/>
<g id="a_edge1&#45;headlabel"><a xlink:href="dir_000007_000008.html" xlink:title="2">
<text text-anchor="middle" x="61.3393" y="-47.5079" font-family="Helvetica,sans-Serif" font-size="10.00" fill="#000000">2</text>
</a>
</g>
</g>
</g>
</svg>
