<?xml version="1.0" encoding="UTF-8" standalone="no"?>
<!DOCTYPE svg PUBLIC "-//W3C//DTD SVG 1.1//EN"
 "http://www.w3.org/Graphics/SVG/1.1/DTD/svg11.dtd">
<!-- Generated by graphviz version 2.40.1 (20161225.0304)
 -->
<!-- Title: TechnicalServices Pages: 1 -->
<svg width="254pt" height="148pt"
 viewBox="0.00 0.00 254.00 148.00" xmlns="http://www.w3.org/2000/svg" xmlns:xlink="http://www.w3.org/1999/xlink">
<g id="graph0" class="graph" transform="scale(1 1) rotate(0) translate(4 144)">
<title>TechnicalServices</title>
<polygon fill="#ffffff" stroke="transparent" points="-4,4 -4,-144 250,-144 250,4 -4,4"/>
<g id="clust1" class="cluster">
<title>clusterdir_2b443badf70068dbf14fb9726037da1f</title>
<g id="a_clust1"><a xlink:href="dir_2b443badf70068dbf14fb9726037da1f.html">
<polygon fill="#eeeeff" stroke="#000000" points="8,-8 8,-132 238,-132 238,-8 8,-8"/>
</a>
</g>
</g>
<!-- dir_2b443badf70068dbf14fb9726037da1f -->
<g id="node1" class="node">
<title>dir_2b443badf70068dbf14fb9726037da1f</title>
<text text-anchor="middle" x="124" y="-103.5" font-family="Helvetica,sans-Serif" font-size="10.00" fill="#000000">TechnicalServices</text>
</g>
<!-- dir_1743ac181abe21c8288c9b5276d4f13a -->
<g id="node2" class="node">
<title>dir_1743ac181abe21c8288c9b5276d4f13a</title>
<g id="a_node2"><a xlink:href="dir_1743ac181abe21c8288c9b5276d4f13a.html" xlink:title="Financial">
<polygon fill="#ffffff" stroke="#000000" points="72,-52 16,-52 16,-16 72,-16 72,-52"/>
<text text-anchor="middle" x="44" y="-31.5" font-family="Helvetica,sans-Serif" font-size="10.00" fill="#000000">Financial</text>
</a>
</g>
</g>
<!-- dir_2b443badf70068dbf14fb9726037da1f&#45;&gt;dir_1743ac181abe21c8288c9b5276d4f13a -->
<g id="edge3" class="edge">
<title>dir_2b443badf70068dbf14fb9726037da1f&#45;&gt;dir_1743ac181abe21c8288c9b5276d4f13a</title>
<path fill="none" stroke="#000000" d="M103.8126,-87.8314C94.1486,-79.1337 82.4204,-68.5783 71.9184,-59.1265"/>
<polygon fill="#000000" stroke="#000000" points="73.9553,-56.251 64.1809,-52.1628 69.2725,-61.454 73.9553,-56.251"/>
<g id="a_edge3&#45;headlabel"><a xlink:href="dir_000016_000017.html" xlink:title="3">
<text text-anchor="middle" x="78.5265" y="-54.0452" font-family="Helvetica,sans-Serif" font-size="10.00" fill="#000000">3</text>
</a>
</g>
</g>
<!-- dir_2ee6016181139cf668ec1d1e22597108 -->
<g id="node3" class="node">
<title>dir_2ee6016181139cf668ec1d1e22597108</title>
<g id="a_node3"><a xlink:href="dir_2ee6016181139cf668ec1d1e22597108.html" xlink:title="Persistence">
<polygon fill="#ffffff" stroke="#000000" points="158,-52 90,-52 90,-16 158,-16 158,-52"/>
<text text-anchor="middle" x="124" y="-31.5" font-family="Helvetica,sans-Serif" font-size="10.00" fill="#000000">Persistence</text>
</a>
</g>
</g>
<!-- dir_2b443badf70068dbf14fb9726037da1f&#45;&gt;dir_2ee6016181139cf668ec1d1e22597108 -->
<g id="edge1" class="edge">
<title>dir_2b443badf70068dbf14fb9726037da1f&#45;&gt;dir_2ee6016181139cf668ec1d1e22597108</title>
<path fill="none" stroke="#000000" d="M124,-87.8314C124,-80.131 124,-70.9743 124,-62.4166"/>
<polygon fill="#000000" stroke="#000000" points="127.5001,-62.4132 124,-52.4133 120.5001,-62.4133 127.5001,-62.4132"/>
<g id="a_edge1&#45;headlabel"><a xlink:href="dir_000016_000018.html" xlink:title="1">
<text text-anchor="middle" x="130.3393" y="-63.5079" font-family="Helvetica,sans-Serif" font-size="10.00" fill="#000000">1</text>
</a>
</g>
</g>
<!-- dir_2116eec974634850c224ea7cfabee067 -->
<g id="node4" class="node">
<title>dir_2116eec974634850c224ea7cfabee067</title>
<g id="a_node4"><a xlink:href="dir_2116eec974634850c224ea7cfabee067.html" xlink:title="Social">
<polygon fill="#ffffff" stroke="#000000" points="230,-52 176,-52 176,-16 230,-16 230,-52"/>
<text text-anchor="middle" x="203" y="-31.5" font-family="Helvetica,sans-Serif" font-size="10.00" fill="#000000">Social</text>
</a>
</g>
</g>
<!-- dir_2b443badf70068dbf14fb9726037da1f&#45;&gt;dir_2116eec974634850c224ea7cfabee067 -->
<g id="edge2" class="edge">
<title>dir_2b443badf70068dbf14fb9726037da1f&#45;&gt;dir_2116eec974634850c224ea7cfabee067</title>
<path fill="none" stroke="#000000" d="M143.935,-87.8314C153.4783,-79.1337 165.0599,-68.5783 175.4306,-59.1265"/>
<polygon fill="#000000" stroke="#000000" points="178.038,-61.4857 183.0713,-52.1628 173.3228,-56.3121 178.038,-61.4857"/>
<g id="a_edge2&#45;headlabel"><a xlink:href="dir_000016_000019.html" xlink:title="1">
<text text-anchor="middle" x="177.2938" y="-63.5055" font-family="Helvetica,sans-Serif" font-size="10.00" fill="#000000">1</text>
</a>
</g>
</g>
</g>
</svg>
