<?xml version="1.0" encoding="UTF-8" standalone="no"?>
<!DOCTYPE svg PUBLIC "-//W3C//DTD SVG 1.1//EN"
 "http://www.w3.org/Graphics/SVG/1.1/DTD/svg11.dtd">
<!-- Generated by graphviz version 2.40.1 (20161225.0304)
 -->
<!-- Title: Domain/Factory Pages: 1 -->
<svg width="313pt" height="223pt"
 viewBox="0.00 0.00 312.76 223.00" xmlns="http://www.w3.org/2000/svg" xmlns:xlink="http://www.w3.org/1999/xlink">
<g id="graph0" class="graph" transform="scale(1 1) rotate(0) translate(4 219)">
<title>Domain/Factory</title>
<polygon fill="#ffffff" stroke="transparent" points="-4,4 -4,-219 308.756,-219 308.756,4 -4,4"/>
<g id="clust1" class="cluster">
<title>clusterdir_8c888e3f1190d8e08b273c29d1443e32</title>
<g id="a_clust1"><a xlink:href="dir_8c888e3f1190d8e08b273c29d1443e32.html" xlink:title="Domain">
<polygon fill="#ddddee" stroke="#000000" points="138.256,-136 138.256,-207 208.256,-207 208.256,-136 138.256,-136"/>
<text text-anchor="middle" x="173.256" y="-195" font-family="Helvetica,sans-Serif" font-size="10.00" fill="#000000">Domain</text>
</a>
</g>
</g>
<!-- dir_5a09006dcfc05a9e26f918e0f357e7ea -->
<g id="node1" class="node">
<title>dir_5a09006dcfc05a9e26f918e0f357e7ea</title>
<g id="a_node1"><a xlink:href="dir_5a09006dcfc05a9e26f918e0f357e7ea.html" xlink:title="Factory">
<polygon fill="#eeeeff" stroke="#000000" points="200.256,-180 146.256,-180 146.256,-144 200.256,-144 200.256,-180"/>
<text text-anchor="middle" x="173.256" y="-159.5" font-family="Helvetica,sans-Serif" font-size="10.00" fill="#000000">Factory</text>
</a>
</g>
</g>
<!-- dir_71a3c507df02df55ec4315289e7008b4 -->
<g id="node2" class="node">
<title>dir_71a3c507df02df55ec4315289e7008b4</title>
<g id="a_node2"><a xlink:href="dir_71a3c507df02df55ec4315289e7008b4.html" xlink:title="Net">
<polygon fill="#ffffff" stroke="#ff0000" points="101.256,-36 47.256,-36 47.256,0 101.256,0 101.256,-36"/>
<text text-anchor="middle" x="74.256" y="-15.5" font-family="Helvetica,sans-Serif" font-size="10.00" fill="#000000">Net</text>
</a>
</g>
</g>
<!-- dir_5a09006dcfc05a9e26f918e0f357e7ea&#45;&gt;dir_71a3c507df02df55ec4315289e7008b4 -->
<g id="edge1" class="edge">
<title>dir_5a09006dcfc05a9e26f918e0f357e7ea&#45;&gt;dir_71a3c507df02df55ec4315289e7008b4</title>
<path fill="none" stroke="#000000" d="M181.1534,-143.9716C188.2936,-124.6814 195.7951,-93.9066 182.256,-72 166.8546,-47.08 136.0852,-33.2755 111.3155,-25.8768"/>
<polygon fill="#000000" stroke="#000000" points="112.045,-22.4475 101.4749,-23.1711 110.1892,-29.197 112.045,-22.4475"/>
<g id="a_edge1&#45;headlabel"><a xlink:href="dir_000001_000006.html" xlink:title="1">
<text text-anchor="middle" x="116.2637" y="-18.1627" font-family="Helvetica,sans-Serif" font-size="10.00" fill="#000000">1</text>
</a>
</g>
</g>
<!-- dir_a7058df5840ea7b46449922e99e253eb -->
<g id="node3" class="node">
<title>dir_a7058df5840ea7b46449922e99e253eb</title>
<g id="a_node3"><a xlink:href="dir_a7058df5840ea7b46449922e99e253eb.html" xlink:title="Game">
<polygon fill="#ffffff" stroke="#ff0000" points="173.256,-108 119.256,-108 119.256,-72 173.256,-72 173.256,-108"/>
<text text-anchor="middle" x="146.256" y="-87.5" font-family="Helvetica,sans-Serif" font-size="10.00" fill="#000000">Game</text>
</a>
</g>
</g>
<!-- dir_5a09006dcfc05a9e26f918e0f357e7ea&#45;&gt;dir_a7058df5840ea7b46449922e99e253eb -->
<g id="edge2" class="edge">
<title>dir_5a09006dcfc05a9e26f918e0f357e7ea&#45;&gt;dir_a7058df5840ea7b46449922e99e253eb</title>
<path fill="none" stroke="#000000" d="M160.4904,-143.8314C156.8123,-136.0463 153.1174,-126.7729 150.2018,-118.1347"/>
<polygon fill="#000000" stroke="#000000" points="153.4916,-116.9266 147.185,-108.4133 146.8062,-119.0013 153.4916,-116.9266"/>
<g id="a_edge2&#45;headlabel"><a xlink:href="dir_000001_000002.html" xlink:title="1">
<text text-anchor="middle" x="157.2687" y="-117.0182" font-family="Helvetica,sans-Serif" font-size="10.00" fill="#000000">1</text>
</a>
</g>
</g>
<!-- dir_2b443badf70068dbf14fb9726037da1f -->
<g id="node4" class="node">
<title>dir_2b443badf70068dbf14fb9726037da1f</title>
<g id="a_node4"><a xlink:href="dir_2b443badf70068dbf14fb9726037da1f.html" xlink:title="TechnicalServices">
<polygon fill="#ffffff" stroke="#ff0000" points="304.756,-36 207.756,-36 207.756,0 304.756,0 304.756,-36"/>
<text text-anchor="middle" x="256.256" y="-15.5" font-family="Helvetica,sans-Serif" font-size="10.00" fill="#000000">TechnicalServices</text>
</a>
</g>
</g>
<!-- dir_5a09006dcfc05a9e26f918e0f357e7ea&#45;&gt;dir_2b443badf70068dbf14fb9726037da1f -->
<g id="edge3" class="edge">
<title>dir_5a09006dcfc05a9e26f918e0f357e7ea&#45;&gt;dir_2b443badf70068dbf14fb9726037da1f</title>
<path fill="none" stroke="#000000" d="M200.5079,-158.2084C228.9332,-152.6416 272.1027,-139.2765 292.256,-108 305.0615,-88.1268 292.9713,-62.962 279.453,-44.2981"/>
<polygon fill="#000000" stroke="#000000" points="282.1039,-42.0042 273.2257,-36.2226 276.5607,-46.2789 282.1039,-42.0042"/>
<g id="a_edge3&#45;headlabel"><a xlink:href="dir_000001_000016.html" xlink:title="1">
<text text-anchor="middle" x="286.5474" y="-40.617" font-family="Helvetica,sans-Serif" font-size="10.00" fill="#000000">1</text>
</a>
</g>
</g>
<!-- dir_6114d036417128150191e2360d6d9bff -->
<g id="node5" class="node">
<title>dir_6114d036417128150191e2360d6d9bff</title>
<g id="a_node5"><a xlink:href="dir_6114d036417128150191e2360d6d9bff.html" xlink:title="Server">
<polygon fill="none" stroke="#000000" points="283.256,-108 229.256,-108 229.256,-72 283.256,-72 283.256,-108"/>
<text text-anchor="middle" x="256.256" y="-87.5" font-family="Helvetica,sans-Serif" font-size="10.00" fill="#000000">Server</text>
</a>
</g>
</g>
<!-- dir_5a09006dcfc05a9e26f918e0f357e7ea&#45;&gt;dir_6114d036417128150191e2360d6d9bff -->
<g id="edge4" class="edge">
<title>dir_5a09006dcfc05a9e26f918e0f357e7ea&#45;&gt;dir_6114d036417128150191e2360d6d9bff</title>
<path fill="none" stroke="#000000" d="M188.248,-143.8314C197.6068,-134.9632 209.8943,-124.1637 221.492,-114.5718"/>
<polygon fill="#000000" stroke="#000000" points="223.82,-117.1899 229.3665,-108.1628 219.4013,-111.7608 223.82,-117.1899"/>
<g id="a_edge4&#45;headlabel"><a xlink:href="dir_000001_000015.html" xlink:title="1">
<text text-anchor="middle" x="222.8244" y="-119.161" font-family="Helvetica,sans-Serif" font-size="10.00" fill="#000000">1</text>
</a>
</g>
</g>
<!-- dir_53ff6e473d46d4e442ba5a7ce9f895e3 -->
<g id="node6" class="node">
<title>dir_53ff6e473d46d4e442ba5a7ce9f895e3</title>
<g id="a_node6"><a xlink:href="dir_53ff6e473d46d4e442ba5a7ce9f895e3.html" xlink:title="UI">
<polygon fill="#ffffff" stroke="#ff0000" points="101.256,-180 47.256,-180 47.256,-144 101.256,-144 101.256,-180"/>
<text text-anchor="middle" x="74.256" y="-159.5" font-family="Helvetica,sans-Serif" font-size="10.00" fill="#000000">UI</text>
</a>
</g>
</g>
<!-- dir_5a09006dcfc05a9e26f918e0f357e7ea&#45;&gt;dir_53ff6e473d46d4e442ba5a7ce9f895e3 -->
<g id="edge5" class="edge">
<title>dir_5a09006dcfc05a9e26f918e0f357e7ea&#45;&gt;dir_53ff6e473d46d4e442ba5a7ce9f895e3</title>
<path fill="none" stroke="#000000" d="M146.0014,-162C134.4836,-162 122.9658,-162 111.448,-162"/>
<polygon fill="#000000" stroke="#000000" points="111.3264,-158.5001 101.3263,-162 111.3263,-165.5001 111.3264,-158.5001"/>
<g id="a_edge5&#45;headlabel"><a xlink:href="dir_000001_000004.html" xlink:title="1">
<text text-anchor="middle" x="114.921" y="-153.1607" font-family="Helvetica,sans-Serif" font-size="10.00" fill="#000000">1</text>
</a>
</g>
</g>
<!-- dir_d8c51d4836575d12cc566883f62b282a -->
<g id="node7" class="node">
<title>dir_d8c51d4836575d12cc566883f62b282a</title>
<g id="a_node7"><a xlink:href="dir_d8c51d4836575d12cc566883f62b282a.html" xlink:title="Store">
<polygon fill="#ffffff" stroke="#ff0000" points="101.256,-108 47.256,-108 47.256,-72 101.256,-72 101.256,-108"/>
<text text-anchor="middle" x="74.256" y="-87.5" font-family="Helvetica,sans-Serif" font-size="10.00" fill="#000000">Store</text>
</a>
</g>
</g>
<!-- dir_5a09006dcfc05a9e26f918e0f357e7ea&#45;&gt;dir_d8c51d4836575d12cc566883f62b282a -->
<g id="edge6" class="edge">
<title>dir_5a09006dcfc05a9e26f918e0f357e7ea&#45;&gt;dir_d8c51d4836575d12cc566883f62b282a</title>
<path fill="none" stroke="#000000" d="M146.0961,-146.3771C132.1834,-137.061 115.3897,-125.0303 101.4786,-114.4766"/>
<polygon fill="#000000" stroke="#000000" points="103.2997,-111.4615 93.241,-108.1338 99.029,-117.0078 103.2997,-111.4615"/>
<g id="a_edge6&#45;headlabel"><a xlink:href="dir_000001_000010.html" xlink:title="1">
<text text-anchor="middle" x="107.88" y="-108.9048" font-family="Helvetica,sans-Serif" font-size="10.00" fill="#000000">1</text>
</a>
</g>
</g>
<!-- dir_a7058df5840ea7b46449922e99e253eb&#45;&gt;dir_5a09006dcfc05a9e26f918e0f357e7ea -->
<g id="edge7" class="edge">
<title>dir_a7058df5840ea7b46449922e99e253eb&#45;&gt;dir_5a09006dcfc05a9e26f918e0f357e7ea</title>
<path fill="none" stroke="#000000" d="M159.137,-108.4133C162.8153,-116.2292 166.5022,-125.5113 169.4014,-134.136"/>
<polygon fill="#000000" stroke="#000000" points="166.1005,-135.3092 172.3952,-143.8314 172.7889,-133.2438 166.1005,-135.3092"/>
<g id="a_edge7&#45;headlabel"><a xlink:href="dir_000002_000001.html" xlink:title="1">
<text text-anchor="middle" x="162.3272" y="-130.2122" font-family="Helvetica,sans-Serif" font-size="10.00" fill="#000000">1</text>
</a>
</g>
</g>
<!-- dir_6114d036417128150191e2360d6d9bff&#45;&gt;dir_5a09006dcfc05a9e26f918e0f357e7ea -->
<g id="edge8" class="edge">
<title>dir_6114d036417128150191e2360d6d9bff&#45;&gt;dir_5a09006dcfc05a9e26f918e0f357e7ea</title>
<path fill="none" stroke="#000000" d="M241.2701,-108.1628C231.9126,-117.0301 219.6256,-127.8295 208.0276,-137.4219"/>
<polygon fill="#000000" stroke="#000000" points="205.6992,-134.8042 200.1528,-143.8314 210.118,-140.2333 205.6992,-134.8042"/>
<g id="a_edge8&#45;headlabel"><a xlink:href="dir_000015_000001.html" xlink:title="1">
<text text-anchor="middle" x="206.6947" y="-127.8331" font-family="Helvetica,sans-Serif" font-size="10.00" fill="#000000">1</text>
</a>
</g>
</g>
<!-- dir_6114d036417128150191e2360d6d9bff&#45;&gt;dir_2b443badf70068dbf14fb9726037da1f -->
<g id="edge9" class="edge">
<title>dir_6114d036417128150191e2360d6d9bff&#45;&gt;dir_2b443badf70068dbf14fb9726037da1f</title>
<path fill="none" stroke="#000000" d="M256.256,-71.8314C256.256,-64.131 256.256,-54.9743 256.256,-46.4166"/>
<polygon fill="#000000" stroke="#000000" points="259.7561,-46.4132 256.256,-36.4133 252.7561,-46.4133 259.7561,-46.4132"/>
<g id="a_edge9&#45;headlabel"><a xlink:href="dir_000015_000016.html" xlink:title="2">
<text text-anchor="middle" x="262.5953" y="-47.5079" font-family="Helvetica,sans-Serif" font-size="10.00" fill="#000000">2</text>
</a>
</g>
</g>
<!-- dir_53ff6e473d46d4e442ba5a7ce9f895e3&#45;&gt;dir_71a3c507df02df55ec4315289e7008b4 -->
<g id="edge10" class="edge">
<title>dir_53ff6e473d46d4e442ba5a7ce9f895e3&#45;&gt;dir_71a3c507df02df55ec4315289e7008b4</title>
<path fill="none" stroke="#000000" d="M47.2115,-148.7621C31.8477,-139.6343 13.9841,-125.914 5.256,-108 -1.752,-93.6164 -1.752,-86.3836 5.256,-72 12.4158,-57.305 25.7229,-45.4318 38.7548,-36.6009"/>
<polygon fill="#000000" stroke="#000000" points="40.641,-39.5492 47.2115,-31.2379 36.8921,-33.6377 40.641,-39.5492"/>
<g id="a_edge10&#45;headlabel"><a xlink:href="dir_000004_000006.html" xlink:title="6">
<text text-anchor="middle" x="39.1259" y="-41.3721" font-family="Helvetica,sans-Serif" font-size="10.00" fill="#000000">6</text>
</a>
</g>
</g>
<!-- dir_53ff6e473d46d4e442ba5a7ce9f895e3&#45;&gt;dir_a7058df5840ea7b46449922e99e253eb -->
<g id="edge11" class="edge">
<title>dir_53ff6e473d46d4e442ba5a7ce9f895e3&#45;&gt;dir_a7058df5840ea7b46449922e99e253eb</title>
<path fill="none" stroke="#000000" d="M92.4247,-143.8314C100.9713,-135.2848 111.3117,-124.9443 120.6362,-115.6198"/>
<polygon fill="#000000" stroke="#000000" points="123.2465,-117.9592 127.8428,-108.4133 118.2968,-113.0095 123.2465,-117.9592"/>
<g id="a_edge11&#45;headlabel"><a xlink:href="dir_000004_000002.html" xlink:title="7">
<text text-anchor="middle" x="122.7125" y="-120.0087" font-family="Helvetica,sans-Serif" font-size="10.00" fill="#000000">7</text>
</a>
</g>
</g>
<!-- dir_53ff6e473d46d4e442ba5a7ce9f895e3&#45;&gt;dir_2b443badf70068dbf14fb9726037da1f -->
<g id="edge12" class="edge">
<title>dir_53ff6e473d46d4e442ba5a7ce9f895e3&#45;&gt;dir_2b443badf70068dbf14fb9726037da1f</title>
<path fill="none" stroke="#000000" d="M57.0597,-143.9052C40.8058,-124.5583 21.2478,-93.7353 38.256,-72 57.722,-47.1239 139.8701,-32.1056 197.5603,-24.4316"/>
<polygon fill="#000000" stroke="#000000" points="198.1981,-27.8784 207.6683,-23.1282 197.3028,-20.9359 198.1981,-27.8784"/>
<g id="a_edge12&#45;headlabel"><a xlink:href="dir_000004_000016.html" xlink:title="5">
<text text-anchor="middle" x="194.996" y="-28.654" font-family="Helvetica,sans-Serif" font-size="10.00" fill="#000000">5</text>
</a>
</g>
</g>
<!-- dir_53ff6e473d46d4e442ba5a7ce9f895e3&#45;&gt;dir_6114d036417128150191e2360d6d9bff -->
<g id="edge13" class="edge">
<title>dir_53ff6e473d46d4e442ba5a7ce9f895e3&#45;&gt;dir_6114d036417128150191e2360d6d9bff</title>
<path fill="none" stroke="#000000" d="M101.3191,-149.9426C111.5879,-145.4547 123.4176,-140.3886 134.256,-136 162.6546,-124.501 195.1277,-112.3025 219.4281,-103.3586"/>
<polygon fill="#000000" stroke="#000000" points="220.7914,-106.5867 228.9748,-99.8575 218.3812,-100.0147 220.7914,-106.5867"/>
<g id="a_edge13&#45;headlabel"><a xlink:href="dir_000004_000015.html" xlink:title="4">
<text text-anchor="middle" x="218.3941" y="-107.99" font-family="Helvetica,sans-Serif" font-size="10.00" fill="#000000">4</text>
</a>
</g>
</g>
<!-- dir_53ff6e473d46d4e442ba5a7ce9f895e3&#45;&gt;dir_d8c51d4836575d12cc566883f62b282a -->
<g id="edge14" class="edge">
<title>dir_53ff6e473d46d4e442ba5a7ce9f895e3&#45;&gt;dir_d8c51d4836575d12cc566883f62b282a</title>
<path fill="none" stroke="#000000" d="M74.256,-143.8314C74.256,-136.131 74.256,-126.9743 74.256,-118.4166"/>
<polygon fill="#000000" stroke="#000000" points="77.7561,-118.4132 74.256,-108.4133 70.7561,-118.4133 77.7561,-118.4132"/>
<g id="a_edge14&#45;headlabel"><a xlink:href="dir_000004_000010.html" xlink:title="8">
<text text-anchor="middle" x="80.5953" y="-119.5079" font-family="Helvetica,sans-Serif" font-size="10.00" fill="#000000">8</text>
</a>
</g>
</g>
<!-- dir_d8c51d4836575d12cc566883f62b282a&#45;&gt;dir_5a09006dcfc05a9e26f918e0f357e7ea -->
<g id="edge16" class="edge">
<title>dir_d8c51d4836575d12cc566883f62b282a&#45;&gt;dir_5a09006dcfc05a9e26f918e0f357e7ea</title>
<path fill="none" stroke="#000000" d="M101.5569,-105.7173C115.4363,-115.0164 132.1557,-126.9956 146.0165,-137.5106"/>
<polygon fill="#000000" stroke="#000000" points="144.1677,-140.5042 154.2265,-143.8314 148.438,-134.9576 144.1677,-140.5042"/>
<g id="a_edge16&#45;headlabel"><a xlink:href="dir_000010_000001.html" xlink:title="1">
<text text-anchor="middle" x="139.5873" y="-138.0612" font-family="Helvetica,sans-Serif" font-size="10.00" fill="#000000">1</text>
</a>
</g>
</g>
<!-- dir_d8c51d4836575d12cc566883f62b282a&#45;&gt;dir_71a3c507df02df55ec4315289e7008b4 -->
<g id="edge15" class="edge">
<title>dir_d8c51d4836575d12cc566883f62b282a&#45;&gt;dir_71a3c507df02df55ec4315289e7008b4</title>
<path fill="none" stroke="#000000" d="M74.256,-71.8314C74.256,-64.131 74.256,-54.9743 74.256,-46.4166"/>
<polygon fill="#000000" stroke="#000000" points="77.7561,-46.4132 74.256,-36.4133 70.7561,-46.4133 77.7561,-46.4132"/>
<g id="a_edge15&#45;headlabel"><a xlink:href="dir_000010_000006.html" xlink:title="2">
<text text-anchor="middle" x="80.5953" y="-47.5079" font-family="Helvetica,sans-Serif" font-size="10.00" fill="#000000">2</text>
</a>
</g>
</g>
</g>
</svg>
