<?xml version="1.0" encoding="UTF-8" standalone="no"?>
<!DOCTYPE svg PUBLIC "-//W3C//DTD SVG 1.1//EN"
 "http://www.w3.org/Graphics/SVG/1.1/DTD/svg11.dtd">
<!-- Generated by graphviz version 2.40.1 (20161225.0304)
 -->
<!-- Title: UI/ClientTextUI/DisplayGrid.cpp Pages: 1 -->
<svg width="509pt" height="151pt"
 viewBox="0.00 0.00 509.00 151.00" xmlns="http://www.w3.org/2000/svg" xmlns:xlink="http://www.w3.org/1999/xlink">
<g id="graph0" class="graph" transform="scale(1 1) rotate(0) translate(4 147)">
<title>UI/ClientTextUI/DisplayGrid.cpp</title>
<polygon fill="#ffffff" stroke="transparent" points="-4,4 -4,-147 505,-147 505,4 -4,4"/>
<!-- Node0 -->
<g id="node1" class="node">
<title>Node0</title>
<polygon fill="#bfbfbf" stroke="#000000" points="294.5,-123.5 294.5,-142.5 452.5,-142.5 452.5,-123.5 294.5,-123.5"/>
<text text-anchor="middle" x="373.5" y="-130.5" font-family="Helvetica,sans-Serif" font-size="10.00" fill="#000000">UI/ClientTextUI/DisplayGrid.cpp</text>
</g>
<!-- Node1 -->
<g id="node2" class="node">
<title>Node1</title>
<g id="a_node2"><a xlink:href="$DisplayGrid_8h.html" xlink:title="Asteroids/UI/ClientTextUI\l/DisplayGrid.h">
<polygon fill="#ffffff" stroke="#000000" points="163.5,-56.5 163.5,-86.5 293.5,-86.5 293.5,-56.5 163.5,-56.5"/>
<text text-anchor="start" x="171.5" y="-74.5" font-family="Helvetica,sans-Serif" font-size="10.00" fill="#000000">Asteroids/UI/ClientTextUI</text>
<text text-anchor="middle" x="228.5" y="-63.5" font-family="Helvetica,sans-Serif" font-size="10.00" fill="#000000">/DisplayGrid.h</text>
</a>
</g>
</g>
<!-- Node0&#45;&gt;Node1 -->
<g id="edge1" class="edge">
<title>Node0&#45;&gt;Node1</title>
<path fill="none" stroke="#191970" d="M350.8438,-123.3906C330.2204,-114.6435 299.1677,-101.4728 273.5082,-90.5897"/>
<polygon fill="#191970" stroke="#191970" points="274.5438,-87.2272 263.971,-86.5446 271.8105,-93.6715 274.5438,-87.2272"/>
</g>
<!-- Node6 -->
<g id="node7" class="node">
<title>Node6</title>
<polygon fill="#ffffff" stroke="#bfbfbf" points="311.5,-62 311.5,-81 365.5,-81 365.5,-62 311.5,-62"/>
<text text-anchor="middle" x="338.5" y="-69" font-family="Helvetica,sans-Serif" font-size="10.00" fill="#000000">iostream</text>
</g>
<!-- Node0&#45;&gt;Node6 -->
<g id="edge6" class="edge">
<title>Node0&#45;&gt;Node6</title>
<path fill="none" stroke="#191970" d="M368.0313,-123.3906C362.9754,-114.5068 355.3228,-101.0601 349.0746,-90.0811"/>
<polygon fill="#191970" stroke="#191970" points="352.034,-88.2048 344.0459,-81.2449 345.9502,-91.6672 352.034,-88.2048"/>
</g>
<!-- Node7 -->
<g id="node8" class="node">
<title>Node7</title>
<polygon fill="#ffffff" stroke="#bfbfbf" points="383.5,-62 383.5,-81 435.5,-81 435.5,-62 383.5,-62"/>
<text text-anchor="middle" x="409.5" y="-69" font-family="Helvetica,sans-Serif" font-size="10.00" fill="#000000">sstream</text>
</g>
<!-- Node0&#45;&gt;Node7 -->
<g id="edge7" class="edge">
<title>Node0&#45;&gt;Node7</title>
<path fill="none" stroke="#191970" d="M379.125,-123.3906C384.3253,-114.5068 392.1966,-101.0601 398.6233,-90.0811"/>
<polygon fill="#191970" stroke="#191970" points="401.7644,-91.6432 403.7957,-81.2449 395.7233,-88.1069 401.7644,-91.6432"/>
</g>
<!-- Node8 -->
<g id="node9" class="node">
<title>Node8</title>
<polygon fill="#ffffff" stroke="#bfbfbf" points="454,-62 454,-81 501,-81 501,-62 454,-62"/>
<text text-anchor="middle" x="477.5" y="-69" font-family="Helvetica,sans-Serif" font-size="10.00" fill="#000000">math.h</text>
</g>
<!-- Node0&#45;&gt;Node8 -->
<g id="edge8" class="edge">
<title>Node0&#45;&gt;Node8</title>
<path fill="none" stroke="#191970" d="M389.75,-123.3906C406.6169,-113.4165 433.2099,-97.6908 452.7035,-86.1633"/>
<polygon fill="#191970" stroke="#191970" points="454.538,-89.1447 461.3641,-81.0419 450.9749,-83.1194 454.538,-89.1447"/>
</g>
<!-- Node2 -->
<g id="node3" class="node">
<title>Node2</title>
<g id="a_node3"><a xlink:href="$ForwardDeclarations_8h.html" xlink:title="Asteroids/ForwardDeclarations.h">
<polygon fill="#ffffff" stroke="#000000" points="0,-.5 0,-19.5 159,-19.5 159,-.5 0,-.5"/>
<text text-anchor="middle" x="79.5" y="-7.5" font-family="Helvetica,sans-Serif" font-size="10.00" fill="#000000">Asteroids/ForwardDeclarations.h</text>
</a>
</g>
</g>
<!-- Node1&#45;&gt;Node2 -->
<g id="edge2" class="edge">
<title>Node1&#45;&gt;Node2</title>
<path fill="none" stroke="#191970" d="M192.0505,-56.4554C167.6256,-46.374 135.7419,-33.2139 112.1479,-23.4755"/>
<polygon fill="#191970" stroke="#191970" points="113.1687,-20.1104 102.5897,-19.5303 110.4979,-26.5809 113.1687,-20.1104"/>
</g>
<!-- Node3 -->
<g id="node4" class="node">
<title>Node3</title>
<polygon fill="#ffffff" stroke="#bfbfbf" points="176.5,-.5 176.5,-19.5 220.5,-19.5 220.5,-.5 176.5,-.5"/>
<text text-anchor="middle" x="198.5" y="-7.5" font-family="Helvetica,sans-Serif" font-size="10.00" fill="#000000">vector</text>
</g>
<!-- Node1&#45;&gt;Node3 -->
<g id="edge3" class="edge">
<title>Node1&#45;&gt;Node3</title>
<path fill="none" stroke="#191970" d="M221.0843,-56.2977C217.0501,-48.0277 212.0227,-37.7215 207.736,-28.9339"/>
<polygon fill="#191970" stroke="#191970" points="210.8334,-27.3001 203.3034,-19.8469 204.542,-30.3691 210.8334,-27.3001"/>
</g>
<!-- Node4 -->
<g id="node5" class="node">
<title>Node4</title>
<polygon fill="#ffffff" stroke="#bfbfbf" points="239,-.5 239,-19.5 280,-19.5 280,-.5 239,-.5"/>
<text text-anchor="middle" x="259.5" y="-7.5" font-family="Helvetica,sans-Serif" font-size="10.00" fill="#000000">string</text>
</g>
<!-- Node1&#45;&gt;Node4 -->
<g id="edge4" class="edge">
<title>Node1&#45;&gt;Node4</title>
<path fill="none" stroke="#191970" d="M236.1629,-56.2977C240.3316,-48.0277 245.5265,-37.7215 249.9561,-28.9339"/>
<polygon fill="#191970" stroke="#191970" points="253.1607,-30.3521 254.5365,-19.8469 246.9099,-27.2012 253.1607,-30.3521"/>
</g>
<!-- Node5 -->
<g id="node6" class="node">
<title>Node5</title>
<polygon fill="#ffffff" stroke="#bfbfbf" points="298.5,-.5 298.5,-19.5 350.5,-19.5 350.5,-.5 298.5,-.5"/>
<text text-anchor="middle" x="324.5" y="-7.5" font-family="Helvetica,sans-Serif" font-size="10.00" fill="#000000">memory</text>
</g>
<!-- Node1&#45;&gt;Node5 -->
<g id="edge5" class="edge">
<title>Node1&#45;&gt;Node5</title>
<path fill="none" stroke="#191970" d="M252.2303,-56.2977C267.0362,-46.8127 286.0228,-34.6495 300.8193,-25.1705"/>
<polygon fill="#191970" stroke="#191970" points="302.8835,-28.0047 309.4159,-19.6633 299.1075,-22.1105 302.8835,-28.0047"/>
</g>
</g>
</svg>
