<?xml version="1.0" encoding="UTF-8" standalone="no"?>
<!DOCTYPE svg PUBLIC "-//W3C//DTD SVG 1.1//EN"
 "http://www.w3.org/Graphics/SVG/1.1/DTD/svg11.dtd">
<!-- Generated by graphviz version 2.40.1 (20161225.0304)
 -->
<!-- Title: Domain/Factory/Factory.h Pages: 1 -->
<svg width="538pt" height="84pt"
 viewBox="0.00 0.00 537.50 84.00" xmlns="http://www.w3.org/2000/svg" xmlns:xlink="http://www.w3.org/1999/xlink">
<g id="graph0" class="graph" transform="scale(1 1) rotate(0) translate(4 80)">
<title>Domain/Factory/Factory.h</title>
<polygon fill="#ffffff" stroke="transparent" points="-4,4 -4,-80 533.5,-80 533.5,4 -4,4"/>
<!-- Node4 -->
<g id="node1" class="node">
<title>Node4</title>
<polygon fill="#bfbfbf" stroke="#000000" points="229,-56.5 229,-75.5 360,-75.5 360,-56.5 229,-56.5"/>
<text text-anchor="middle" x="294.5" y="-63.5" font-family="Helvetica,sans-Serif" font-size="10.00" fill="#000000">Domain/Factory/Factory.h</text>
</g>
<!-- Node5 -->
<g id="node2" class="node">
<title>Node5</title>
<g id="a_node2"><a xlink:href="$Factory_8cpp.html" xlink:title="Domain/Factory/Factory.cpp">
<polygon fill="#ffffff" stroke="#000000" points="0,-.5 0,-19.5 141,-19.5 141,-.5 0,-.5"/>
<text text-anchor="middle" x="70.5" y="-7.5" font-family="Helvetica,sans-Serif" font-size="10.00" fill="#000000">Domain/Factory/Factory.cpp</text>
</a>
</g>
</g>
<!-- Node4&#45;&gt;Node5 -->
<g id="edge1" class="edge">
<title>Node4&#45;&gt;Node5</title>
<path fill="none" stroke="#191970" d="M246.428,-53.982C205.2125,-43.6781 146.6322,-29.0331 108.5947,-19.5237"/>
<polygon fill="#191970" stroke="#191970" points="245.6972,-57.407 256.2475,-56.4369 247.395,-50.616 245.6972,-57.407"/>
</g>
<!-- Node6 -->
<g id="node3" class="node">
<title>Node6</title>
<g id="a_node3"><a xlink:href="$Game_8cpp.html" xlink:title="Domain/Game/Game.cpp">
<polygon fill="#ffffff" stroke="#000000" points="159.5,-.5 159.5,-19.5 287.5,-19.5 287.5,-.5 159.5,-.5"/>
<text text-anchor="middle" x="223.5" y="-7.5" font-family="Helvetica,sans-Serif" font-size="10.00" fill="#000000">Domain/Game/Game.cpp</text>
</a>
</g>
</g>
<!-- Node4&#45;&gt;Node6 -->
<g id="edge2" class="edge">
<title>Node4&#45;&gt;Node6</title>
<path fill="none" stroke="#191970" d="M274.123,-49.928C261.7129,-40.1397 246.27,-27.9595 235.7255,-19.6427"/>
<polygon fill="#191970" stroke="#191970" points="272.1136,-52.8007 282.1327,-56.2455 276.4486,-47.3046 272.1136,-52.8007"/>
</g>
<!-- Node7 -->
<g id="node4" class="node">
<title>Node7</title>
<g id="a_node4"><a xlink:href="$main-console-client_8cpp.html" xlink:title="main&#45;console&#45;client.cpp">
<polygon fill="#ffffff" stroke="#000000" points="306,-.5 306,-19.5 425,-19.5 425,-.5 306,-.5"/>
<text text-anchor="middle" x="365.5" y="-7.5" font-family="Helvetica,sans-Serif" font-size="10.00" fill="#000000">main&#45;console&#45;client.cpp</text>
</a>
</g>
</g>
<!-- Node4&#45;&gt;Node7 -->
<g id="edge3" class="edge">
<title>Node4&#45;&gt;Node7</title>
<path fill="none" stroke="#191970" d="M314.877,-49.928C327.2871,-40.1397 342.73,-27.9595 353.2745,-19.6427"/>
<polygon fill="#191970" stroke="#191970" points="312.5514,-47.3046 306.8673,-56.2455 316.8864,-52.8007 312.5514,-47.3046"/>
</g>
<!-- Node8 -->
<g id="node5" class="node">
<title>Node8</title>
<g id="a_node5"><a xlink:href="$main-server_8cpp.html" xlink:title="main&#45;server.cpp">
<polygon fill="#ffffff" stroke="#000000" points="443.5,-.5 443.5,-19.5 529.5,-19.5 529.5,-.5 443.5,-.5"/>
<text text-anchor="middle" x="486.5" y="-7.5" font-family="Helvetica,sans-Serif" font-size="10.00" fill="#000000">main&#45;server.cpp</text>
</a>
</g>
</g>
<!-- Node4&#45;&gt;Node8 -->
<g id="edge4" class="edge">
<title>Node4&#45;&gt;Node8</title>
<path fill="none" stroke="#191970" d="M337.5077,-53.4561C372.7521,-43.1765 421.8736,-28.8494 453.9247,-19.5011"/>
<polygon fill="#191970" stroke="#191970" points="336.126,-50.2132 327.506,-56.3733 338.086,-56.9332 336.126,-50.2132"/>
</g>
</g>
</svg>
