<?xml version="1.0" encoding="UTF-8" standalone="no"?>
<!DOCTYPE svg PUBLIC "-//W3C//DTD SVG 1.1//EN"
 "http://www.w3.org/Graphics/SVG/1.1/DTD/svg11.dtd">
<!-- Generated by graphviz version 2.40.1 (20161225.0304)
 -->
<!-- Title: Domain/Factory/Factory.cpp Pages: 1 -->
<svg width="2465pt" height="296pt"
 viewBox="0.00 0.00 2465.28 296.00" xmlns="http://www.w3.org/2000/svg" xmlns:xlink="http://www.w3.org/1999/xlink">
<g id="graph0" class="graph" transform="scale(1 1) rotate(0) translate(4 292)">
<title>Domain/Factory/Factory.cpp</title>
<polygon fill="#ffffff" stroke="transparent" points="-4,4 -4,-292 2461.2786,-292 2461.2786,4 -4,4"/>
<!-- Node0 -->
<g id="node1" class="node">
<title>Node0</title>
<polygon fill="#bfbfbf" stroke="#000000" points="1445.5,-268.5 1445.5,-287.5 1586.5,-287.5 1586.5,-268.5 1445.5,-268.5"/>
<text text-anchor="middle" x="1516" y="-275.5" font-family="Helvetica,sans-Serif" font-size="10.00" fill="#000000">Domain/Factory/Factory.cpp</text>
</g>
<!-- Node1 -->
<g id="node2" class="node">
<title>Node1</title>
<g id="a_node2"><a xlink:href="$Factory_8h.html" xlink:title="Asteroids/Domain/Factory\l/Factory.h">
<polygon fill="#ffffff" stroke="#000000" points="557.5,-134.5 557.5,-164.5 688.5,-164.5 688.5,-134.5 557.5,-134.5"/>
<text text-anchor="start" x="565.5" y="-152.5" font-family="Helvetica,sans-Serif" font-size="10.00" fill="#000000">Asteroids/Domain/Factory</text>
<text text-anchor="middle" x="623" y="-141.5" font-family="Helvetica,sans-Serif" font-size="10.00" fill="#000000">/Factory.h</text>
</a>
</g>
</g>
<!-- Node0&#45;&gt;Node1 -->
<g id="edge1" class="edge">
<title>Node0&#45;&gt;Node1</title>
<path fill="none" stroke="#191970" d="M1445.3573,-269.9278C1304.861,-253.5091 980.3181,-213.762 698.7209,-165.2427"/>
<polygon fill="#191970" stroke="#191970" points="699.1723,-161.7688 688.7221,-163.513 697.9791,-168.6664 699.1723,-161.7688"/>
</g>
<!-- Node5 -->
<g id="node6" class="node">
<title>Node5</title>
<g id="a_node6"><a xlink:href="$GameFactory_8h.html" xlink:title="Asteroids/Domain/Game\l/GameFactory.h">
<polygon fill="#ffffff" stroke="#000000" points="0,-134.5 0,-164.5 124,-164.5 124,-134.5 0,-134.5"/>
<text text-anchor="start" x="8" y="-152.5" font-family="Helvetica,sans-Serif" font-size="10.00" fill="#000000">Asteroids/Domain/Game</text>
<text text-anchor="middle" x="62" y="-141.5" font-family="Helvetica,sans-Serif" font-size="10.00" fill="#000000">/GameFactory.h</text>
</a>
</g>
</g>
<!-- Node0&#45;&gt;Node5 -->
<g id="edge6" class="edge">
<title>Node0&#45;&gt;Node5</title>
<path fill="none" stroke="#191970" d="M1445.0533,-272.418C1336.3321,-263.8451 1121.9731,-246.8674 940,-232 583.5017,-202.8738 492.0724,-215.7158 138,-165 136.7253,-164.8174 135.4398,-164.6269 134.1461,-164.4292"/>
<polygon fill="#191970" stroke="#191970" points="134.5433,-160.9477 124.1095,-162.7878 133.4135,-167.8559 134.5433,-160.9477"/>
</g>
<!-- Node7 -->
<g id="node8" class="node">
<title>Node7</title>
<g id="a_node8"><a xlink:href="$NetFactory_8h.html" xlink:title="Asteroids/Domain/Net\l/NetFactory.h">
<polygon fill="#ffffff" stroke="#000000" points="1256.5,-201.5 1256.5,-231.5 1369.5,-231.5 1369.5,-201.5 1256.5,-201.5"/>
<text text-anchor="start" x="1264.5" y="-219.5" font-family="Helvetica,sans-Serif" font-size="10.00" fill="#000000">Asteroids/Domain/Net</text>
<text text-anchor="middle" x="1313" y="-208.5" font-family="Helvetica,sans-Serif" font-size="10.00" fill="#000000">/NetFactory.h</text>
</a>
</g>
</g>
<!-- Node0&#45;&gt;Node7 -->
<g id="edge11" class="edge">
<title>Node0&#45;&gt;Node7</title>
<path fill="none" stroke="#191970" d="M1484.2813,-268.3906C1454.391,-259.3352 1408.8524,-245.539 1372.2425,-234.4479"/>
<polygon fill="#191970" stroke="#191970" points="1373.2447,-231.0944 1362.6594,-231.5446 1371.215,-237.7937 1373.2447,-231.0944"/>
</g>
<!-- Node14 -->
<g id="node15" class="node">
<title>Node14</title>
<g id="a_node15"><a xlink:href="$ServerFactory_8h.html" xlink:title="Asteroids/Domain/Server\l/ServerFactory.h">
<polygon fill="#ffffff" stroke="#000000" points="1596,-134.5 1596,-164.5 1722,-164.5 1722,-134.5 1596,-134.5"/>
<text text-anchor="start" x="1604" y="-152.5" font-family="Helvetica,sans-Serif" font-size="10.00" fill="#000000">Asteroids/Domain/Server</text>
<text text-anchor="middle" x="1659" y="-141.5" font-family="Helvetica,sans-Serif" font-size="10.00" fill="#000000">/ServerFactory.h</text>
</a>
</g>
</g>
<!-- Node0&#45;&gt;Node14 -->
<g id="edge31" class="edge">
<title>Node0&#45;&gt;Node14</title>
<path fill="none" stroke="#191970" d="M1526.7482,-268.3416C1549.5023,-247.8948 1603.0312,-199.7936 1634.5705,-171.4524"/>
<polygon fill="#191970" stroke="#191970" points="1636.9843,-173.9889 1642.083,-164.7016 1632.3055,-168.7822 1636.9843,-173.9889"/>
</g>
<!-- Node20 -->
<g id="node21" class="node">
<title>Node20</title>
<g id="a_node21"><a xlink:href="$StoreFactory_8h.html" xlink:title="Asteroids/Domain/Store\l/StoreFactory.h">
<polygon fill="#ffffff" stroke="#000000" points="1455.5,-134.5 1455.5,-164.5 1576.5,-164.5 1576.5,-134.5 1455.5,-134.5"/>
<text text-anchor="start" x="1463.5" y="-152.5" font-family="Helvetica,sans-Serif" font-size="10.00" fill="#000000">Asteroids/Domain/Store</text>
<text text-anchor="middle" x="1516" y="-141.5" font-family="Helvetica,sans-Serif" font-size="10.00" fill="#000000">/StoreFactory.h</text>
</a>
</g>
</g>
<!-- Node0&#45;&gt;Node20 -->
<g id="edge47" class="edge">
<title>Node0&#45;&gt;Node20</title>
<path fill="none" stroke="#191970" d="M1516,-268.3416C1516,-248.6745 1516,-203.4221 1516,-174.7784"/>
<polygon fill="#191970" stroke="#191970" points="1519.5001,-174.7016 1516,-164.7016 1512.5001,-174.7016 1519.5001,-174.7016"/>
</g>
<!-- Node22 -->
<g id="node23" class="node">
<title>Node22</title>
<g id="a_node23"><a xlink:href="$TechnicalServicesFactory_8h.html" xlink:title="Asteroids/TechnicalServices\l/TechnicalServicesFactory.h">
<polygon fill="#ffffff" stroke="#000000" points="1760.5,-134.5 1760.5,-164.5 1901.5,-164.5 1901.5,-134.5 1760.5,-134.5"/>
<text text-anchor="start" x="1768.5" y="-152.5" font-family="Helvetica,sans-Serif" font-size="10.00" fill="#000000">Asteroids/TechnicalServices</text>
<text text-anchor="middle" x="1831" y="-141.5" font-family="Helvetica,sans-Serif" font-size="10.00" fill="#000000">/TechnicalServicesFactory.h</text>
</a>
</g>
</g>
<!-- Node0&#45;&gt;Node22 -->
<g id="edge53" class="edge">
<title>Node0&#45;&gt;Node22</title>
<path fill="none" stroke="#191970" d="M1539.4188,-268.4466C1591.1962,-247.3247 1716.2059,-196.3287 1784.52,-168.4609"/>
<polygon fill="#191970" stroke="#191970" points="1786.2351,-171.5413 1794.1723,-164.5234 1783.591,-165.0599 1786.2351,-171.5413"/>
</g>
<!-- Node24 -->
<g id="node25" class="node">
<title>Node24</title>
<g id="a_node25"><a xlink:href="$UIFactory_8h.html" xlink:title="Asteroids/UI/UIFactory.h">
<polygon fill="#ffffff" stroke="#000000" points="1958,-140 1958,-159 2084,-159 2084,-140 1958,-140"/>
<text text-anchor="middle" x="2021" y="-147" font-family="Helvetica,sans-Serif" font-size="10.00" fill="#000000">Asteroids/UI/UIFactory.h</text>
</a>
</g>
</g>
<!-- Node0&#45;&gt;Node24 -->
<g id="edge58" class="edge">
<title>Node0&#45;&gt;Node24</title>
<path fill="none" stroke="#191970" d="M1553.5445,-268.4466C1644.0416,-245.4191 1874.0832,-186.8838 1973.7546,-161.5219"/>
<polygon fill="#191970" stroke="#191970" points="1974.7234,-164.8869 1983.5515,-159.029 1972.9972,-158.1031 1974.7234,-164.8869"/>
</g>
<!-- Node2 -->
<g id="node3" class="node">
<title>Node2</title>
<g id="a_node3"><a xlink:href="$FactoryInterface_8h.html" xlink:title="Asteroids/Domain/Factory\l/FactoryInterface.h">
<polygon fill="#ffffff" stroke="#000000" points="1172.5,-62 1172.5,-92 1303.5,-92 1303.5,-62 1172.5,-62"/>
<text text-anchor="start" x="1180.5" y="-80" font-family="Helvetica,sans-Serif" font-size="10.00" fill="#000000">Asteroids/Domain/Factory</text>
<text text-anchor="middle" x="1238" y="-69" font-family="Helvetica,sans-Serif" font-size="10.00" fill="#000000">/FactoryInterface.h</text>
</a>
</g>
</g>
<!-- Node1&#45;&gt;Node2 -->
<g id="edge2" class="edge">
<title>Node1&#45;&gt;Node2</title>
<path fill="none" stroke="#191970" d="M688.6894,-135.2805C691.4921,-134.8194 694.2712,-134.3895 697,-134 902.6437,-104.6454 958.4465,-134.1783 1163,-98 1168.4092,-97.0433 1173.9903,-95.8614 1179.5526,-94.5499"/>
<polygon fill="#191970" stroke="#191970" points="1180.6465,-97.8844 1189.5032,-92.0697 1178.9535,-91.0922 1180.6465,-97.8844"/>
</g>
<!-- Node4 -->
<g id="node5" class="node">
<title>Node4</title>
<polygon fill="#ffffff" stroke="#bfbfbf" points="779,-.5 779,-19.5 831,-19.5 831,-.5 779,-.5"/>
<text text-anchor="middle" x="805" y="-7.5" font-family="Helvetica,sans-Serif" font-size="10.00" fill="#000000">memory</text>
</g>
<!-- Node1&#45;&gt;Node4 -->
<g id="edge5" class="edge">
<title>Node1&#45;&gt;Node4</title>
<path fill="none" stroke="#191970" d="M557.3855,-144.8305C457.8716,-137.0736 278.251,-120.1664 259,-98 246.7601,-83.9064 246.3669,-69.7422 259,-56 276.303,-37.178 649.6937,-17.5239 768.8205,-11.7126"/>
<polygon fill="#191970" stroke="#191970" points="769.076,-15.2044 778.895,-11.2247 768.7373,-8.2126 769.076,-15.2044"/>
</g>
<!-- Node3 -->
<g id="node4" class="node">
<title>Node3</title>
<g id="a_node4"><a xlink:href="$ForwardDeclarations_8h.html" xlink:title="Asteroids/ForwardDeclarations.h">
<polygon fill="#ffffff" stroke="#000000" points="1751.5,-.5 1751.5,-19.5 1910.5,-19.5 1910.5,-.5 1751.5,-.5"/>
<text text-anchor="middle" x="1831" y="-7.5" font-family="Helvetica,sans-Serif" font-size="10.00" fill="#000000">Asteroids/ForwardDeclarations.h</text>
</a>
</g>
</g>
<!-- Node2&#45;&gt;Node3 -->
<g id="edge3" class="edge">
<title>Node2&#45;&gt;Node3</title>
<path fill="none" stroke="#191970" d="M1286.254,-61.8982C1294.7675,-59.6387 1303.595,-57.5508 1312,-56 1460.9342,-28.5202 1637.0483,-17.309 1741.0886,-12.8407"/>
<polygon fill="#191970" stroke="#191970" points="1741.3937,-16.3311 1751.2387,-12.4164 1741.1012,-9.3372 1741.3937,-16.3311"/>
</g>
<!-- Node2&#45;&gt;Node4 -->
<g id="edge4" class="edge">
<title>Node2&#45;&gt;Node4</title>
<path fill="none" stroke="#191970" d="M1188.2207,-61.9737C1179.8509,-59.761 1171.2156,-57.6688 1163,-56 1131.8982,-49.6824 925.8295,-24.5569 841.1907,-14.347"/>
<polygon fill="#191970" stroke="#191970" points="841.3673,-10.8431 831.0204,-13.1215 840.5298,-17.7928 841.3673,-10.8431"/>
</g>
<!-- Node5&#45;&gt;Node4 -->
<g id="edge10" class="edge">
<title>Node5&#45;&gt;Node4</title>
<path fill="none" stroke="#191970" d="M67.289,-134.3217C75.7278,-112.6685 94.472,-73.5891 125,-56 153.075,-39.8242 631.0491,-17.6479 768.3776,-11.586"/>
<polygon fill="#191970" stroke="#191970" points="768.9328,-15.065 778.7695,-11.1294 768.6255,-8.0718 768.9328,-15.065"/>
</g>
<!-- Node6 -->
<g id="node7" class="node">
<title>Node6</title>
<g id="a_node7"><a xlink:href="$GameFactoryInterface_8h.html" xlink:title="Asteroids/Domain/Game\l/GameFactoryInterface.h">
<polygon fill="#ffffff" stroke="#000000" points="1029.5,-62 1029.5,-92 1154.5,-92 1154.5,-62 1029.5,-62"/>
<text text-anchor="start" x="1037.5" y="-80" font-family="Helvetica,sans-Serif" font-size="10.00" fill="#000000">Asteroids/Domain/Game</text>
<text text-anchor="middle" x="1092" y="-69" font-family="Helvetica,sans-Serif" font-size="10.00" fill="#000000">/GameFactoryInterface.h</text>
</a>
</g>
</g>
<!-- Node5&#45;&gt;Node6 -->
<g id="edge7" class="edge">
<title>Node5&#45;&gt;Node6</title>
<path fill="none" stroke="#191970" d="M124.0132,-148.0295C307.6583,-143.38 846.673,-127.5298 1020,-98 1025.375,-97.0843 1030.9181,-95.9062 1036.4304,-94.5762"/>
<polygon fill="#191970" stroke="#191970" points="1037.4646,-97.9241 1046.2764,-92.0418 1035.7196,-91.1451 1037.4646,-97.9241"/>
</g>
<!-- Node6&#45;&gt;Node3 -->
<g id="edge8" class="edge">
<title>Node6&#45;&gt;Node3</title>
<path fill="none" stroke="#191970" d="M1137.478,-61.9524C1145.887,-59.6276 1154.6505,-57.5035 1163,-56 1271.4504,-36.4709 1585.6356,-20.6385 1741.3513,-13.7383"/>
<polygon fill="#191970" stroke="#191970" points="1741.5387,-17.2335 1751.375,-13.2967 1741.2306,-10.2403 1741.5387,-17.2335"/>
</g>
<!-- Node6&#45;&gt;Node4 -->
<g id="edge9" class="edge">
<title>Node6&#45;&gt;Node4</title>
<path fill="none" stroke="#191970" d="M1042.1639,-61.9529C1034.7572,-59.8654 1027.1961,-57.8167 1020,-56 957.6016,-40.2474 884.1391,-25.2918 841.2505,-16.9159"/>
<polygon fill="#191970" stroke="#191970" points="841.7724,-13.4519 831.2886,-14.9815 840.438,-20.3236 841.7724,-13.4519"/>
</g>
<!-- Node7&#45;&gt;Node3 -->
<g id="edge12" class="edge">
<title>Node7&#45;&gt;Node3</title>
<path fill="none" stroke="#191970" d="M1369.522,-215.1161C1589.3197,-209.1407 2378.4209,-181.9393 2448,-98 2459.9127,-83.6287 2460.6992,-69.6812 2448,-56 2430.3517,-36.9869 2087.91,-20.4717 1920.9744,-13.5135"/>
<polygon fill="#191970" stroke="#191970" points="1920.8606,-10.0059 1910.7243,-13.0891 1920.5709,-16.9999 1920.8606,-10.0059"/>
</g>
<!-- Node7&#45;&gt;Node4 -->
<g id="edge30" class="edge">
<title>Node7&#45;&gt;Node4</title>
<path fill="none" stroke="#191970" d="M1256.2164,-214.7649C1044.481,-207.6928 309.8293,-177.5421 246,-98 234.3172,-83.4413 233.3535,-69.7299 246,-56 263.7508,-36.7285 646.8644,-17.3432 768.3722,-11.6604"/>
<polygon fill="#191970" stroke="#191970" points="768.8149,-15.1438 778.6418,-11.1837 768.4902,-8.1513 768.8149,-15.1438"/>
</g>
<!-- Node8 -->
<g id="node9" class="node">
<title>Node8</title>
<g id="a_node9"><a xlink:href="$NetFactoryInterface_8h.html" xlink:title="Asteroids/Domain/Net\l/NetFactoryInterface.h">
<polygon fill="#ffffff" stroke="#000000" points="1321.5,-62 1321.5,-92 1436.5,-92 1436.5,-62 1321.5,-62"/>
<text text-anchor="start" x="1329.5" y="-80" font-family="Helvetica,sans-Serif" font-size="10.00" fill="#000000">Asteroids/Domain/Net</text>
<text text-anchor="middle" x="1379" y="-69" font-family="Helvetica,sans-Serif" font-size="10.00" fill="#000000">/NetFactoryInterface.h</text>
</a>
</g>
</g>
<!-- Node7&#45;&gt;Node8 -->
<g id="edge13" class="edge">
<title>Node7&#45;&gt;Node8</title>
<path fill="none" stroke="#191970" d="M1299.522,-201.2535C1286.1646,-184.1892 1269.3849,-156.0449 1282,-134 1291.4133,-117.5502 1307.6261,-105.3815 1324.1315,-96.6119"/>
<polygon fill="#191970" stroke="#191970" points="1325.877,-99.6534 1333.2901,-92.0839 1322.7746,-93.3784 1325.877,-99.6534"/>
</g>
<!-- Node9 -->
<g id="node10" class="node">
<title>Node9</title>
<g id="a_node10"><a xlink:href="$ClientServerCommunicator_8h.html" xlink:title="Asteroids/Domain/Net\l/ClientServerCommunicator.h">
<polygon fill="#ffffff" stroke="#000000" points="1291,-134.5 1291,-164.5 1437,-164.5 1437,-134.5 1291,-134.5"/>
<text text-anchor="start" x="1299" y="-152.5" font-family="Helvetica,sans-Serif" font-size="10.00" fill="#000000">Asteroids/Domain/Net</text>
<text text-anchor="middle" x="1364" y="-141.5" font-family="Helvetica,sans-Serif" font-size="10.00" fill="#000000">/ClientServerCommunicator.h</text>
</a>
</g>
</g>
<!-- Node7&#45;&gt;Node9 -->
<g id="edge16" class="edge">
<title>Node7&#45;&gt;Node9</title>
<path fill="none" stroke="#191970" d="M1324.5727,-201.2967C1330.9629,-192.9016 1339.0365,-182.2952 1346.211,-172.8698"/>
<polygon fill="#191970" stroke="#191970" points="1349.2012,-174.7201 1352.4731,-164.6432 1343.6312,-170.4803 1349.2012,-174.7201"/>
</g>
<!-- Node12 -->
<g id="node13" class="node">
<title>Node12</title>
<g id="a_node13"><a xlink:href="$Authenticator_8h.html" xlink:title="Asteroids/Domain/Net\l/Authentication/Authenticator.h">
<polygon fill="#ffffff" stroke="#000000" points="706.5,-134.5 706.5,-164.5 857.5,-164.5 857.5,-134.5 706.5,-134.5"/>
<text text-anchor="start" x="714.5" y="-152.5" font-family="Helvetica,sans-Serif" font-size="10.00" fill="#000000">Asteroids/Domain/Net</text>
<text text-anchor="middle" x="782" y="-141.5" font-family="Helvetica,sans-Serif" font-size="10.00" fill="#000000">/Authentication/Authenticator.h</text>
</a>
</g>
</g>
<!-- Node7&#45;&gt;Node12 -->
<g id="edge22" class="edge">
<title>Node7&#45;&gt;Node12</title>
<path fill="none" stroke="#191970" d="M1256.4253,-209.3616C1163.2645,-197.6068 977.0184,-174.1068 867.6397,-160.3058"/>
<polygon fill="#191970" stroke="#191970" points="867.9852,-156.8217 857.6257,-159.0422 867.1089,-163.7666 867.9852,-156.8217"/>
</g>
<!-- Node8&#45;&gt;Node3 -->
<g id="edge14" class="edge">
<title>Node8&#45;&gt;Node3</title>
<path fill="none" stroke="#191970" d="M1423.0207,-61.9362C1430.6205,-59.7007 1438.4912,-57.6109 1446,-56 1545.8392,-34.5816 1662.5351,-22.395 1741.0577,-16.0198"/>
<polygon fill="#191970" stroke="#191970" points="1741.708,-19.4792 1751.3984,-15.196 1741.1519,-12.5013 1741.708,-19.4792"/>
</g>
<!-- Node8&#45;&gt;Node4 -->
<g id="edge15" class="edge">
<title>Node8&#45;&gt;Node4</title>
<path fill="none" stroke="#191970" d="M1335.7466,-61.9343C1327.9192,-59.6416 1319.7737,-57.5331 1312,-56 1128.624,-19.8345 1078.9852,-38.5536 893,-20 875.9308,-18.2972 857.0263,-16.1794 841.1279,-14.3317"/>
<polygon fill="#191970" stroke="#191970" points="841.5036,-10.8518 831.164,-13.1635 840.6884,-17.8042 841.5036,-10.8518"/>
</g>
<!-- Node9&#45;&gt;Node3 -->
<g id="edge17" class="edge">
<title>Node9&#45;&gt;Node3</title>
<path fill="none" stroke="#191970" d="M1437.2414,-135.1471C1440.1949,-134.7296 1443.1229,-134.3444 1446,-134 1523.2183,-124.7566 2091.4415,-154.3879 2145,-98 2157.8554,-84.4655 2157.2053,-70.1236 2145,-56 2130.3878,-39.0912 2008.1717,-25.1382 1920.6149,-17.1862"/>
<polygon fill="#191970" stroke="#191970" points="1920.9268,-13.7002 1910.6543,-16.2937 1920.302,-20.6723 1920.9268,-13.7002"/>
</g>
<!-- Node10 -->
<g id="node11" class="node">
<title>Node10</title>
<g id="a_node11"><a xlink:href="$ClientServerCommunicatorInterface_8h.html" xlink:title="Asteroids/Domain/Net\l/ClientServerCommunicatorInterface.h">
<polygon fill="#ffffff" stroke="#000000" points="447,-62 447,-92 631,-92 631,-62 447,-62"/>
<text text-anchor="start" x="455" y="-80" font-family="Helvetica,sans-Serif" font-size="10.00" fill="#000000">Asteroids/Domain/Net</text>
<text text-anchor="middle" x="539" y="-69" font-family="Helvetica,sans-Serif" font-size="10.00" fill="#000000">/ClientServerCommunicatorInterface.h</text>
</a>
</g>
</g>
<!-- Node9&#45;&gt;Node10 -->
<g id="edge18" class="edge">
<title>Node9&#45;&gt;Node10</title>
<path fill="none" stroke="#191970" d="M1290.9781,-147.2629C1160.714,-142.6067 879.8855,-129.5551 645,-98 636.3541,-96.8385 627.3517,-95.4061 618.4078,-93.8395"/>
<polygon fill="#191970" stroke="#191970" points="618.82,-90.3573 608.3566,-92.021 617.5737,-97.2455 618.82,-90.3573"/>
</g>
<!-- Node10&#45;&gt;Node3 -->
<g id="edge19" class="edge">
<title>Node10&#45;&gt;Node3</title>
<path fill="none" stroke="#191970" d="M628.5482,-61.9903C644.9586,-59.6617 661.9647,-57.5265 678,-56 883.8441,-36.4045 1507.4358,-18.5007 1741.2083,-12.302"/>
<polygon fill="#191970" stroke="#191970" points="1741.4691,-15.7964 1751.3731,-12.0333 1741.2841,-8.7989 1741.4691,-15.7964"/>
</g>
<!-- Node10&#45;&gt;Node4 -->
<g id="edge21" class="edge">
<title>Node10&#45;&gt;Node4</title>
<path fill="none" stroke="#191970" d="M598.6956,-61.9639C651.0222,-48.7839 725.3641,-30.0587 769.0491,-19.0553"/>
<polygon fill="#191970" stroke="#191970" points="770.0951,-22.4012 778.9373,-16.5647 768.3853,-15.6132 770.0951,-22.4012"/>
</g>
<!-- Node11 -->
<g id="node12" class="node">
<title>Node11</title>
<polygon fill="#ffffff" stroke="#bfbfbf" points="518.5,-.5 518.5,-19.5 559.5,-19.5 559.5,-.5 518.5,-.5"/>
<text text-anchor="middle" x="539" y="-7.5" font-family="Helvetica,sans-Serif" font-size="10.00" fill="#000000">string</text>
</g>
<!-- Node10&#45;&gt;Node11 -->
<g id="edge20" class="edge">
<title>Node10&#45;&gt;Node11</title>
<path fill="none" stroke="#191970" d="M539,-61.7967C539,-52.2699 539,-39.8954 539,-29.6306"/>
<polygon fill="#191970" stroke="#191970" points="542.5001,-29.5549 539,-19.555 535.5001,-29.555 542.5001,-29.5549"/>
</g>
<!-- Node12&#45;&gt;Node3 -->
<g id="edge23" class="edge">
<title>Node12&#45;&gt;Node3</title>
<path fill="none" stroke="#191970" d="M857.9357,-146.9077C1139.2978,-137.2595 2106.5243,-103.6918 2112,-98 2124.9414,-84.5477 2124.0862,-70.2256 2112,-56 2099.5366,-41.3304 1998.2184,-27.4832 1920.7821,-18.888"/>
<polygon fill="#191970" stroke="#191970" points="1920.8282,-15.3722 1910.5065,-17.7625 1920.0659,-22.3306 1920.8282,-15.3722"/>
</g>
<!-- Node12&#45;&gt;Node4 -->
<g id="edge29" class="edge">
<title>Node12&#45;&gt;Node4</title>
<path fill="none" stroke="#191970" d="M706.0572,-135.2791C703.0017,-134.825 699.9738,-134.3962 697,-134 650.0237,-127.7419 304.0653,-132.8963 272,-98 259.37,-84.2549 259.3809,-69.7551 272,-56 288.8201,-37.6657 651.0127,-17.7909 768.535,-11.8038"/>
<polygon fill="#191970" stroke="#191970" points="768.9979,-15.285 778.8083,-11.2842 768.6443,-8.2939 768.9979,-15.285"/>
</g>
<!-- Node12&#45;&gt;Node11 -->
<g id="edge28" class="edge">
<title>Node12&#45;&gt;Node11</title>
<path fill="none" stroke="#191970" d="M706.0584,-135.2696C703.0026,-134.8182 699.9743,-134.3924 697,-134 648.5888,-127.6123 292.0841,-133.915 259,-98 246.3528,-84.2707 246.9178,-70.229 259,-56 275.0034,-37.1529 438.1058,-19.5764 507.7499,-12.8685"/>
<polygon fill="#191970" stroke="#191970" points="508.4638,-16.3166 518.088,-11.8868 507.8019,-9.3479 508.4638,-16.3166"/>
</g>
<!-- Node13 -->
<g id="node14" class="node">
<title>Node13</title>
<g id="a_node14"><a xlink:href="$AuthenticationInterface_8h.html" xlink:title="Asteroids/Domain/Net\l/Authentication/Authentication\lInterface.h">
<polygon fill="#ffffff" stroke="#000000" points="281.5,-56.5 281.5,-97.5 428.5,-97.5 428.5,-56.5 281.5,-56.5"/>
<text text-anchor="start" x="289.5" y="-85.5" font-family="Helvetica,sans-Serif" font-size="10.00" fill="#000000">Asteroids/Domain/Net</text>
<text text-anchor="start" x="289.5" y="-74.5" font-family="Helvetica,sans-Serif" font-size="10.00" fill="#000000">/Authentication/Authentication</text>
<text text-anchor="middle" x="355" y="-63.5" font-family="Helvetica,sans-Serif" font-size="10.00" fill="#000000">Interface.h</text>
</a>
</g>
</g>
<!-- Node12&#45;&gt;Node13 -->
<g id="edge24" class="edge">
<title>Node12&#45;&gt;Node13</title>
<path fill="none" stroke="#191970" d="M706.4847,-135.5585C703.2821,-135.0214 700.1102,-134.4995 697,-134 585.3903,-116.0754 553.7752,-120.0461 438.588,-98.0075"/>
<polygon fill="#191970" stroke="#191970" points="439.1549,-94.5523 428.6716,-96.086 437.8232,-101.4245 439.1549,-94.5523"/>
</g>
<!-- Node13&#45;&gt;Node3 -->
<g id="edge25" class="edge">
<title>Node13&#45;&gt;Node3</title>
<path fill="none" stroke="#191970" d="M428.6028,-57.5051C431.7672,-56.9433 434.9093,-56.4368 438,-56 690.9597,-20.2464 1474.365,-12.1782 1741.0421,-10.4487"/>
<polygon fill="#191970" stroke="#191970" points="1741.0933,-13.9485 1751.0709,-10.3851 1741.0488,-6.9487 1741.0933,-13.9485"/>
</g>
<!-- Node13&#45;&gt;Node4 -->
<g id="edge26" class="edge">
<title>Node13&#45;&gt;Node4</title>
<path fill="none" stroke="#191970" d="M428.6617,-57.862C431.8099,-57.2025 434.9326,-56.578 438,-56 557.85,-33.4161 701.8695,-19.023 768.2282,-13.0978"/>
<polygon fill="#191970" stroke="#191970" points="768.9168,-16.5508 778.5712,-12.187 768.3027,-9.5778 768.9168,-16.5508"/>
</g>
<!-- Node13&#45;&gt;Node11 -->
<g id="edge27" class="edge">
<title>Node13&#45;&gt;Node11</title>
<path fill="none" stroke="#191970" d="M411.4565,-56.4425C443.4926,-44.7771 482.3235,-30.6376 508.6612,-21.0473"/>
<polygon fill="#191970" stroke="#191970" points="509.9045,-24.3194 518.1034,-17.6091 507.5094,-17.7419 509.9045,-24.3194"/>
</g>
<!-- Node14&#45;&gt;Node3 -->
<g id="edge32" class="edge">
<title>Node14&#45;&gt;Node3</title>
<path fill="none" stroke="#191970" d="M1722.2378,-138.0727C1731.853,-136.5595 1741.675,-135.1403 1751,-134 1802.9879,-127.6428 2185.4074,-136.423 2221,-98 2233.6853,-84.3059 2233.4022,-69.951 2221,-56 2201.3705,-33.9192 2029.5202,-20.6508 1920.5872,-14.3843"/>
<polygon fill="#191970" stroke="#191970" points="1920.7574,-10.8884 1910.5756,-13.8178 1920.3619,-17.8773 1920.7574,-10.8884"/>
</g>
<!-- Node15 -->
<g id="node16" class="node">
<title>Node15</title>
<g id="a_node16"><a xlink:href="$ServerFactoryInterface_8h.html" xlink:title="Asteroids/Domain/Server\l/ServerFactoryInterface.h">
<polygon fill="#ffffff" stroke="#000000" points="1595,-62 1595,-92 1723,-92 1723,-62 1595,-62"/>
<text text-anchor="start" x="1603" y="-80" font-family="Helvetica,sans-Serif" font-size="10.00" fill="#000000">Asteroids/Domain/Server</text>
<text text-anchor="middle" x="1659" y="-69" font-family="Helvetica,sans-Serif" font-size="10.00" fill="#000000">/ServerFactoryInterface.h</text>
</a>
</g>
</g>
<!-- Node14&#45;&gt;Node15 -->
<g id="edge33" class="edge">
<title>Node14&#45;&gt;Node15</title>
<path fill="none" stroke="#191970" d="M1659,-134.478C1659,-125.1459 1659,-112.9157 1659,-102.1368"/>
<polygon fill="#191970" stroke="#191970" points="1662.5001,-102.0028 1659,-92.0028 1655.5001,-102.0028 1662.5001,-102.0028"/>
</g>
<!-- Node16 -->
<g id="node17" class="node">
<title>Node16</title>
<g id="a_node17"><a xlink:href="$ServerDaemonInterface_8h.html" xlink:title="Asteroids/Domain/Server\l/ServerDaemonInterface.h">
<polygon fill="#ffffff" stroke="#000000" points="687.5,-62 687.5,-92 818.5,-92 818.5,-62 687.5,-62"/>
<text text-anchor="start" x="695.5" y="-80" font-family="Helvetica,sans-Serif" font-size="10.00" fill="#000000">Asteroids/Domain/Server</text>
<text text-anchor="middle" x="753" y="-69" font-family="Helvetica,sans-Serif" font-size="10.00" fill="#000000">/ServerDaemonInterface.h</text>
</a>
</g>
</g>
<!-- Node14&#45;&gt;Node16 -->
<g id="edge36" class="edge">
<title>Node14&#45;&gt;Node16</title>
<path fill="none" stroke="#191970" d="M1595.7349,-135.5584C1592.1126,-134.9755 1588.5155,-134.4489 1585,-134 1250.8879,-91.339 1160.5083,-151.7503 828,-98 822.2706,-97.0738 816.3542,-95.8679 810.4744,-94.5021"/>
<polygon fill="#191970" stroke="#191970" points="811.201,-91.0764 800.6532,-92.0736 809.5207,-97.8718 811.201,-91.0764"/>
</g>
<!-- Node17 -->
<g id="node18" class="node">
<title>Node17</title>
<g id="a_node18"><a xlink:href="$ServerUpdaterInterface_8h.html" xlink:title="Asteroids/Domain/Server\l/ServerUpdaterInterface.h">
<polygon fill="#ffffff" stroke="#000000" points="2273.5,-62 2273.5,-92 2402.5,-92 2402.5,-62 2273.5,-62"/>
<text text-anchor="start" x="2281.5" y="-80" font-family="Helvetica,sans-Serif" font-size="10.00" fill="#000000">Asteroids/Domain/Server</text>
<text text-anchor="middle" x="2338" y="-69" font-family="Helvetica,sans-Serif" font-size="10.00" fill="#000000">/ServerUpdaterInterface.h</text>
</a>
</g>
</g>
<!-- Node14&#45;&gt;Node17 -->
<g id="edge40" class="edge">
<title>Node14&#45;&gt;Node17</title>
<path fill="none" stroke="#191970" d="M1722.2321,-138.025C1731.848,-136.5184 1741.6718,-135.1137 1751,-134 1975.7478,-107.1669 2035.7406,-135.2403 2259,-98 2264.8289,-97.0277 2270.8518,-95.8161 2276.8512,-94.4688"/>
<polygon fill="#191970" stroke="#191970" points="2277.9635,-97.8023 2286.8874,-92.0915 2276.3499,-90.9907 2277.9635,-97.8023"/>
</g>
<!-- Node18 -->
<g id="node19" class="node">
<title>Node18</title>
<g id="a_node19"><a xlink:href="$HACCS__REPORT__INTERFACE_8h.html" xlink:title="Asteroids/Domain/Server\l/HACCS_REPORT_INTERFACE.h">
<polygon fill="#ffffff" stroke="#000000" points="837,-62 837,-92 1011,-92 1011,-62 837,-62"/>
<text text-anchor="start" x="845" y="-80" font-family="Helvetica,sans-Serif" font-size="10.00" fill="#000000">Asteroids/Domain/Server</text>
<text text-anchor="middle" x="924" y="-69" font-family="Helvetica,sans-Serif" font-size="10.00" fill="#000000">/HACCS_REPORT_INTERFACE.h</text>
</a>
</g>
</g>
<!-- Node14&#45;&gt;Node18 -->
<g id="edge42" class="edge">
<title>Node14&#45;&gt;Node18</title>
<path fill="none" stroke="#191970" d="M1595.726,-135.6264C1592.1059,-135.0261 1588.5118,-134.4772 1585,-134 1335.6709,-100.1212 1269.1762,-132.9859 1020,-98 1012.2784,-96.9158 1004.2542,-95.5495 996.2814,-94.0362"/>
<polygon fill="#191970" stroke="#191970" points="996.7256,-90.5564 986.2367,-92.051 995.3683,-97.4236 996.7256,-90.5564"/>
</g>
<!-- Node15&#45;&gt;Node3 -->
<g id="edge34" class="edge">
<title>Node15&#45;&gt;Node3</title>
<path fill="none" stroke="#191970" d="M1697.6002,-61.9639C1727.4581,-50.3332 1768.4015,-34.3843 1797.0258,-23.2342"/>
<polygon fill="#191970" stroke="#191970" points="1798.5508,-26.3963 1806.5984,-19.5053 1796.0099,-19.8737 1798.5508,-26.3963"/>
</g>
<!-- Node15&#45;&gt;Node4 -->
<g id="edge35" class="edge">
<title>Node15&#45;&gt;Node4</title>
<path fill="none" stroke="#191970" d="M1612.6328,-61.9498C1603.8673,-59.5943 1594.7142,-57.46 1586,-56 1281.8245,-5.0364 1200.3657,-45.4235 893,-20 875.9044,-18.586 856.9966,-16.5052 841.1028,-14.6074"/>
<polygon fill="#191970" stroke="#191970" points="841.4924,-11.1291 831.1428,-13.3956 840.6469,-18.0779 841.4924,-11.1291"/>
</g>
<!-- Node16&#45;&gt;Node3 -->
<g id="edge37" class="edge">
<title>Node16&#45;&gt;Node3</title>
<path fill="none" stroke="#191970" d="M800.6513,-61.914C809.6555,-59.5619 819.0554,-57.4381 828,-56 1002.4114,-27.9575 1529.3555,-15.4848 1741.2919,-11.5058"/>
<polygon fill="#191970" stroke="#191970" points="1741.5151,-15.0023 1751.4483,-11.3171 1741.385,-8.0035 1741.5151,-15.0023"/>
</g>
<!-- Node16&#45;&gt;Node4 -->
<g id="edge38" class="edge">
<title>Node16&#45;&gt;Node4</title>
<path fill="none" stroke="#191970" d="M764.7996,-61.7967C772.6655,-51.6618 783.0327,-38.304 791.2688,-27.6921"/>
<polygon fill="#191970" stroke="#191970" points="794.2179,-29.6008 797.5842,-19.555 788.688,-25.3089 794.2179,-29.6008"/>
</g>
<!-- Node16&#45;&gt;Node11 -->
<g id="edge39" class="edge">
<title>Node16&#45;&gt;Node11</title>
<path fill="none" stroke="#191970" d="M704.9742,-61.9639C663.4752,-48.9712 604.7646,-30.5898 569.4364,-19.5291"/>
<polygon fill="#191970" stroke="#191970" points="570.2859,-16.1276 559.6969,-16.4799 568.1944,-22.8079 570.2859,-16.1276"/>
</g>
<!-- Node17&#45;&gt;Node3 -->
<g id="edge41" class="edge">
<title>Node17&#45;&gt;Node3</title>
<path fill="none" stroke="#191970" d="M2285.9876,-61.9703C2277.0391,-59.7309 2267.7907,-57.6309 2259,-56 2143.2598,-34.5272 2007.9151,-22.0637 1920.9074,-15.652"/>
<polygon fill="#191970" stroke="#191970" points="1921.0311,-12.1519 1910.804,-14.9187 1920.5243,-19.1335 1921.0311,-12.1519"/>
</g>
<!-- Node18&#45;&gt;Node3 -->
<g id="edge43" class="edge">
<title>Node18&#45;&gt;Node3</title>
<path fill="none" stroke="#191970" d="M985.7118,-61.9907C997.0593,-59.6621 1008.8439,-57.5268 1020,-56 1157.0443,-37.245 1560.2622,-20.2228 1741.26,-13.2903"/>
<polygon fill="#191970" stroke="#191970" points="1741.4247,-16.7867 1751.284,-12.908 1741.1578,-9.7918 1741.4247,-16.7867"/>
</g>
<!-- Node18&#45;&gt;Node4 -->
<g id="edge46" class="edge">
<title>Node18&#45;&gt;Node4</title>
<path fill="none" stroke="#191970" d="M897.2941,-61.9639C877.4173,-50.7728 850.4399,-35.5838 830.7868,-24.5186"/>
<polygon fill="#191970" stroke="#191970" points="832.4887,-21.4602 822.0577,-19.6039 829.0544,-27.5599 832.4887,-21.4602"/>
</g>
<!-- Node18&#45;&gt;Node11 -->
<g id="edge44" class="edge">
<title>Node18&#45;&gt;Node11</title>
<path fill="none" stroke="#191970" d="M856.7827,-61.9486C846.8152,-59.8617 836.6523,-57.8143 827,-56 733.6572,-38.4551 622.4809,-21.9247 569.7193,-14.3416"/>
<polygon fill="#191970" stroke="#191970" points="570.0661,-10.8557 559.6712,-12.9044 569.0748,-17.7852 570.0661,-10.8557"/>
</g>
<!-- Node19 -->
<g id="node20" class="node">
<title>Node19</title>
<polygon fill="#ffffff" stroke="#bfbfbf" points="902,-.5 902,-19.5 946,-19.5 946,-.5 902,-.5"/>
<text text-anchor="middle" x="924" y="-7.5" font-family="Helvetica,sans-Serif" font-size="10.00" fill="#000000">vector</text>
</g>
<!-- Node18&#45;&gt;Node19 -->
<g id="edge45" class="edge">
<title>Node18&#45;&gt;Node19</title>
<path fill="none" stroke="#191970" d="M924,-61.7967C924,-52.2699 924,-39.8954 924,-29.6306"/>
<polygon fill="#191970" stroke="#191970" points="927.5001,-29.5549 924,-19.555 920.5001,-29.555 927.5001,-29.5549"/>
</g>
<!-- Node20&#45;&gt;Node3 -->
<g id="edge48" class="edge">
<title>Node20&#45;&gt;Node3</title>
<path fill="none" stroke="#191970" d="M1576.6971,-135.6028C1580.1734,-135.0086 1583.6257,-134.4674 1587,-134 1652.7155,-124.8978 2137.5247,-146.305 2183,-98 2195.7952,-84.4086 2195.3145,-70.0285 2183,-56 2165.901,-36.5211 2019.2783,-22.779 1920.7406,-15.6453"/>
<polygon fill="#191970" stroke="#191970" points="1920.9893,-12.1543 1910.7655,-14.9338 1920.4911,-19.1365 1920.9893,-12.1543"/>
</g>
<!-- Node20&#45;&gt;Node4 -->
<g id="edge52" class="edge">
<title>Node20&#45;&gt;Node4</title>
<path fill="none" stroke="#191970" d="M1455.4069,-135.4179C1452.2342,-134.8891 1449.0846,-134.4107 1446,-134 1403.6602,-128.3622 707.4874,-128.902 678,-98 665.1134,-84.4952 667.2813,-71.2825 678,-56 688.7083,-40.7324 735.131,-26.6803 768.7579,-18.2264"/>
<polygon fill="#191970" stroke="#191970" points="769.8473,-21.5632 778.7293,-15.7874 768.184,-14.7637 769.8473,-21.5632"/>
</g>
<!-- Node21 -->
<g id="node22" class="node">
<title>Node21</title>
<g id="a_node22"><a xlink:href="$StoreFactoryInterface_8h.html" xlink:title="Asteroids/Domain/Store\l/StoreFactoryInterface.h">
<polygon fill="#ffffff" stroke="#000000" points="1455,-62 1455,-92 1577,-92 1577,-62 1455,-62"/>
<text text-anchor="start" x="1463" y="-80" font-family="Helvetica,sans-Serif" font-size="10.00" fill="#000000">Asteroids/Domain/Store</text>
<text text-anchor="middle" x="1516" y="-69" font-family="Helvetica,sans-Serif" font-size="10.00" fill="#000000">/StoreFactoryInterface.h</text>
</a>
</g>
</g>
<!-- Node20&#45;&gt;Node21 -->
<g id="edge49" class="edge">
<title>Node20&#45;&gt;Node21</title>
<path fill="none" stroke="#191970" d="M1516,-134.478C1516,-125.1459 1516,-112.9157 1516,-102.1368"/>
<polygon fill="#191970" stroke="#191970" points="1519.5001,-102.0028 1516,-92.0028 1512.5001,-102.0028 1519.5001,-102.0028"/>
</g>
<!-- Node21&#45;&gt;Node3 -->
<g id="edge50" class="edge">
<title>Node21&#45;&gt;Node3</title>
<path fill="none" stroke="#191970" d="M1563.6371,-61.9743C1571.0869,-59.8375 1578.7261,-57.7687 1586,-56 1644.3248,-41.8181 1711.3645,-29.501 1760.5563,-21.1908"/>
<polygon fill="#191970" stroke="#191970" points="1761.1766,-24.6358 1770.4605,-19.531 1760.0196,-17.7321 1761.1766,-24.6358"/>
</g>
<!-- Node21&#45;&gt;Node4 -->
<g id="edge51" class="edge">
<title>Node21&#45;&gt;Node4</title>
<path fill="none" stroke="#191970" d="M1470.5265,-61.9273C1462.117,-59.6051 1453.3522,-57.4884 1445,-56 1202.9586,-12.8678 1137.8784,-41.886 893,-20 875.9141,-18.473 857.0076,-16.3777 841.1121,-14.4995"/>
<polygon fill="#191970" stroke="#191970" points="841.4963,-11.0206 831.1507,-13.3048 840.6627,-17.9708 841.4963,-11.0206"/>
</g>
<!-- Node22&#45;&gt;Node3 -->
<g id="edge54" class="edge">
<title>Node22&#45;&gt;Node3</title>
<path fill="none" stroke="#191970" d="M1901.7492,-139.5862C1917.2976,-137.5809 1933.6901,-135.5996 1949,-134 2000.3204,-128.638 2376.9562,-135.8743 2412,-98 2424.6774,-84.2986 2424.6677,-69.7103 2412,-56 2395.6012,-38.2516 2080.0756,-21.3738 1921.0392,-13.9526"/>
<polygon fill="#191970" stroke="#191970" points="1920.9463,-10.4446 1910.7949,-13.4776 1920.622,-17.4371 1920.9463,-10.4446"/>
</g>
<!-- Node23 -->
<g id="node24" class="node">
<title>Node23</title>
<g id="a_node24"><a xlink:href="$TechnicalServicesFactoryInterface_8h.html" xlink:title="Asteroids/TechnicalServices\l/TechnicalServicesFactoryInterface.h">
<polygon fill="#ffffff" stroke="#000000" points="1741.5,-62 1741.5,-92 1920.5,-92 1920.5,-62 1741.5,-62"/>
<text text-anchor="start" x="1749.5" y="-80" font-family="Helvetica,sans-Serif" font-size="10.00" fill="#000000">Asteroids/TechnicalServices</text>
<text text-anchor="middle" x="1831" y="-69" font-family="Helvetica,sans-Serif" font-size="10.00" fill="#000000">/TechnicalServicesFactoryInterface.h</text>
</a>
</g>
</g>
<!-- Node22&#45;&gt;Node23 -->
<g id="edge55" class="edge">
<title>Node22&#45;&gt;Node23</title>
<path fill="none" stroke="#191970" d="M1831,-134.478C1831,-125.1459 1831,-112.9157 1831,-102.1368"/>
<polygon fill="#191970" stroke="#191970" points="1834.5001,-102.0028 1831,-92.0028 1827.5001,-102.0028 1834.5001,-102.0028"/>
</g>
<!-- Node23&#45;&gt;Node3 -->
<g id="edge56" class="edge">
<title>Node23&#45;&gt;Node3</title>
<path fill="none" stroke="#191970" d="M1831,-61.7967C1831,-52.2699 1831,-39.8954 1831,-29.6306"/>
<polygon fill="#191970" stroke="#191970" points="1834.5001,-29.5549 1831,-19.555 1827.5001,-29.555 1834.5001,-29.5549"/>
</g>
<!-- Node23&#45;&gt;Node4 -->
<g id="edge57" class="edge">
<title>Node23&#45;&gt;Node4</title>
<path fill="none" stroke="#191970" d="M1767.8906,-61.9804C1756.0254,-59.6219 1743.6786,-57.4788 1732,-56 1361.7246,-9.1147 1265.0967,-49.0887 893,-20 875.8982,-18.6631 856.9896,-16.5922 841.0969,-14.6811"/>
<polygon fill="#191970" stroke="#191970" points="841.4901,-11.2031 831.1379,-13.4575 840.6364,-18.1509 841.4901,-11.2031"/>
</g>
<!-- Node24&#45;&gt;Node3 -->
<g id="edge59" class="edge">
<title>Node24&#45;&gt;Node3</title>
<path fill="none" stroke="#191970" d="M2084.0542,-146.0796C2193.111,-139.5143 2407.5138,-123.4952 2430,-98 2442.3473,-84.0004 2442.6839,-69.6953 2430,-56 2412.9602,-37.6014 2083.3672,-20.8819 1920.5196,-13.705"/>
<polygon fill="#191970" stroke="#191970" points="1920.6582,-10.2078 1910.5146,-13.2668 1920.3518,-17.2011 1920.6582,-10.2078"/>
</g>
<!-- Node25 -->
<g id="node26" class="node">
<title>Node25</title>
<g id="a_node26"><a xlink:href="$UIFactoryInterface_8h.html" xlink:title="Asteroids/UI/UIFactoryInterface.h">
<polygon fill="#ffffff" stroke="#000000" points="1939,-67.5 1939,-86.5 2103,-86.5 2103,-67.5 1939,-67.5"/>
<text text-anchor="middle" x="2021" y="-74.5" font-family="Helvetica,sans-Serif" font-size="10.00" fill="#000000">Asteroids/UI/UIFactoryInterface.h</text>
</a>
</g>
</g>
<!-- Node24&#45;&gt;Node25 -->
<g id="edge60" class="edge">
<title>Node24&#45;&gt;Node25</title>
<path fill="none" stroke="#191970" d="M2021,-139.7223C2021,-128.743 2021,-110.6397 2021,-96.697"/>
<polygon fill="#191970" stroke="#191970" points="2024.5001,-96.6227 2021,-86.6228 2017.5001,-96.6228 2024.5001,-96.6227"/>
</g>
<!-- Node25&#45;&gt;Node3 -->
<g id="edge61" class="edge">
<title>Node25&#45;&gt;Node3</title>
<path fill="none" stroke="#191970" d="M1993.7776,-67.4005C1960.7626,-55.7584 1904.9597,-36.0805 1868.0474,-23.0641"/>
<polygon fill="#191970" stroke="#191970" points="1868.7667,-19.6065 1858.1719,-19.5817 1866.4387,-26.2081 1868.7667,-19.6065"/>
</g>
<!-- Node25&#45;&gt;Node4 -->
<g id="edge62" class="edge">
<title>Node25&#45;&gt;Node4</title>
<path fill="none" stroke="#191970" d="M1986.7153,-67.4466C1969.7851,-63.151 1948.969,-58.4944 1930,-56 1472.7698,4.126 1352.9069,-54.0613 893,-20 875.8929,-18.733 856.9836,-16.6712 841.0918,-14.7479"/>
<polygon fill="#191970" stroke="#191970" points="841.4882,-11.2703 831.1336,-13.5138 840.6272,-18.2172 841.4882,-11.2703"/>
</g>
</g>
</svg>
