<?xml version="1.0" encoding="UTF-8" standalone="no"?>
<!DOCTYPE svg PUBLIC "-//W3C//DTD SVG 1.1//EN"
 "http://www.w3.org/Graphics/SVG/1.1/DTD/svg11.dtd">
<!-- Generated by graphviz version 2.40.1 (20161225.0304)
 -->
<!-- Title: TechnicalServices/Financial/FinancialServicesInterface.h Pages: 1 -->
<svg width="151pt" height="173pt"
 viewBox="0.00 0.00 151.00 173.00" xmlns="http://www.w3.org/2000/svg" xmlns:xlink="http://www.w3.org/1999/xlink">
<g id="graph0" class="graph" transform="scale(1 1) rotate(0) translate(4 169)">
<title>TechnicalServices/Financial/FinancialServicesInterface.h</title>
<polygon fill="#ffffff" stroke="transparent" points="-4,4 -4,-169 147,-169 147,4 -4,4"/>
<!-- Node3 -->
<g id="node1" class="node">
<title>Node3</title>
<polygon fill="#bfbfbf" stroke="#000000" points="0,-134.5 0,-164.5 143,-164.5 143,-134.5 0,-134.5"/>
<text text-anchor="start" x="8" y="-152.5" font-family="Helvetica,sans-Serif" font-size="10.00" fill="#000000">TechnicalServices/Financial</text>
<text text-anchor="middle" x="71.5" y="-141.5" font-family="Helvetica,sans-Serif" font-size="10.00" fill="#000000">/FinancialServicesInterface.h</text>
</g>
<!-- Node4 -->
<g id="node2" class="node">
<title>Node4</title>
<g id="a_node2"><a xlink:href="$FinancialServices_8h.html" xlink:title="TechnicalServices/Financial\l/FinancialServices.h">
<polygon fill="#ffffff" stroke="#000000" points="2,-67.5 2,-97.5 141,-97.5 141,-67.5 2,-67.5"/>
<text text-anchor="start" x="10" y="-85.5" font-family="Helvetica,sans-Serif" font-size="10.00" fill="#000000">TechnicalServices/Financial</text>
<text text-anchor="middle" x="71.5" y="-74.5" font-family="Helvetica,sans-Serif" font-size="10.00" fill="#000000">/FinancialServices.h</text>
</a>
</g>
</g>
<!-- Node3&#45;&gt;Node4 -->
<g id="edge1" class="edge">
<title>Node3&#45;&gt;Node4</title>
<path fill="none" stroke="#191970" d="M71.5,-124.0249C71.5,-115.128 71.5,-105.4287 71.5,-97.6432"/>
<polygon fill="#191970" stroke="#191970" points="68.0001,-124.2966 71.5,-134.2967 75.0001,-124.2967 68.0001,-124.2966"/>
</g>
<!-- Node5 -->
<g id="node3" class="node">
<title>Node5</title>
<g id="a_node3"><a xlink:href="$FinancialServices_8cpp.html" xlink:title="TechnicalServices/Financial\l/FinancialServices.cpp">
<polygon fill="#ffffff" stroke="#000000" points="2,-.5 2,-30.5 141,-30.5 141,-.5 2,-.5"/>
<text text-anchor="start" x="10" y="-18.5" font-family="Helvetica,sans-Serif" font-size="10.00" fill="#000000">TechnicalServices/Financial</text>
<text text-anchor="middle" x="71.5" y="-7.5" font-family="Helvetica,sans-Serif" font-size="10.00" fill="#000000">/FinancialServices.cpp</text>
</a>
</g>
</g>
<!-- Node4&#45;&gt;Node5 -->
<g id="edge2" class="edge">
<title>Node4&#45;&gt;Node5</title>
<path fill="none" stroke="#191970" d="M71.5,-57.0249C71.5,-48.128 71.5,-38.4287 71.5,-30.6432"/>
<polygon fill="#191970" stroke="#191970" points="68.0001,-57.2966 71.5,-67.2967 75.0001,-57.2967 68.0001,-57.2966"/>
</g>
</g>
</svg>
