<?xml version="1.0" encoding="UTF-8" standalone="no"?>
<!DOCTYPE svg PUBLIC "-//W3C//DTD SVG 1.1//EN"
 "http://www.w3.org/Graphics/SVG/1.1/DTD/svg11.dtd">
<!-- Generated by graphviz version 2.40.1 (20161225.0304)
 -->
<!-- Title: TechnicalServices/Social/FRIEND_ON_SOCIAL_MEDIA.h Pages: 1 -->
<svg width="330pt" height="106pt"
 viewBox="0.00 0.00 329.50 106.00" xmlns="http://www.w3.org/2000/svg" xmlns:xlink="http://www.w3.org/1999/xlink">
<g id="graph0" class="graph" transform="scale(1 1) rotate(0) translate(4 102)">
<title>TechnicalServices/Social/FRIEND_ON_SOCIAL_MEDIA.h</title>
<polygon fill="#ffffff" stroke="transparent" points="-4,4 -4,-102 325.5,-102 325.5,4 -4,4"/>
<!-- Node5 -->
<g id="node1" class="node">
<title>Node5</title>
<polygon fill="#bfbfbf" stroke="#000000" points="90,-67.5 90,-97.5 256,-97.5 256,-67.5 90,-67.5"/>
<text text-anchor="start" x="98" y="-85.5" font-family="Helvetica,sans-Serif" font-size="10.00" fill="#000000">TechnicalServices/Social</text>
<text text-anchor="middle" x="173" y="-74.5" font-family="Helvetica,sans-Serif" font-size="10.00" fill="#000000">/FRIEND_ON_SOCIAL_MEDIA.h</text>
</g>
<!-- Node6 -->
<g id="node2" class="node">
<title>Node6</title>
<g id="a_node2"><a xlink:href="$FRIEND__ON__SOCIAL__MEDIA_8cpp.html" xlink:title="TechnicalServices/Social\l/FRIEND_ON_SOCIAL_MEDIA.cpp">
<polygon fill="#ffffff" stroke="#000000" points="0,-.5 0,-30.5 176,-30.5 176,-.5 0,-.5"/>
<text text-anchor="start" x="8" y="-18.5" font-family="Helvetica,sans-Serif" font-size="10.00" fill="#000000">TechnicalServices/Social</text>
<text text-anchor="middle" x="88" y="-7.5" font-family="Helvetica,sans-Serif" font-size="10.00" fill="#000000">/FRIEND_ON_SOCIAL_MEDIA.cpp</text>
</a>
</g>
</g>
<!-- Node5&#45;&gt;Node6 -->
<g id="edge1" class="edge">
<title>Node5&#45;&gt;Node6</title>
<path fill="none" stroke="#191970" d="M145.8055,-61.0643C133.2374,-51.1577 118.6083,-39.6265 107.2115,-30.6432"/>
<polygon fill="#191970" stroke="#191970" points="143.6919,-63.8549 153.7122,-67.2967 148.0253,-58.3574 143.6919,-63.8549"/>
</g>
<!-- Node7 -->
<g id="node3" class="node">
<title>Node7</title>
<g id="a_node3"><a xlink:href="$SocialMedia_8cpp.html" xlink:title="TechnicalServices/Social\l/SocialMedia.cpp">
<polygon fill="#ffffff" stroke="#000000" points="194.5,-.5 194.5,-30.5 321.5,-30.5 321.5,-.5 194.5,-.5"/>
<text text-anchor="start" x="202.5" y="-18.5" font-family="Helvetica,sans-Serif" font-size="10.00" fill="#000000">TechnicalServices/Social</text>
<text text-anchor="middle" x="258" y="-7.5" font-family="Helvetica,sans-Serif" font-size="10.00" fill="#000000">/SocialMedia.cpp</text>
</a>
</g>
</g>
<!-- Node5&#45;&gt;Node7 -->
<g id="edge2" class="edge">
<title>Node5&#45;&gt;Node7</title>
<path fill="none" stroke="#191970" d="M200.1945,-61.0643C212.7626,-51.1577 227.3917,-39.6265 238.7885,-30.6432"/>
<polygon fill="#191970" stroke="#191970" points="197.9747,-58.3574 192.2878,-67.2967 202.3081,-63.8549 197.9747,-58.3574"/>
</g>
</g>
</svg>
