<?xml version="1.0" encoding="UTF-8" standalone="no"?>
<!DOCTYPE svg PUBLIC "-//W3C//DTD SVG 1.1//EN"
 "http://www.w3.org/Graphics/SVG/1.1/DTD/svg11.dtd">
<!-- Generated by graphviz version 2.40.1 (20161225.0304)
 -->
<!-- Title: TechnicalServices/Social/FRIEND_ON_SOCIAL_MEDIA.cpp Pages: 1 -->
<svg width="313pt" height="251pt"
 viewBox="0.00 0.00 312.50 251.00" xmlns="http://www.w3.org/2000/svg" xmlns:xlink="http://www.w3.org/1999/xlink">
<g id="graph0" class="graph" transform="scale(1 1) rotate(0) translate(4 247)">
<title>TechnicalServices/Social/FRIEND_ON_SOCIAL_MEDIA.cpp</title>
<polygon fill="#ffffff" stroke="transparent" points="-4,4 -4,-247 308.5,-247 308.5,4 -4,4"/>
<!-- Node0 -->
<g id="node1" class="node">
<title>Node0</title>
<polygon fill="#bfbfbf" stroke="#000000" points="113.5,-212.5 113.5,-242.5 289.5,-242.5 289.5,-212.5 113.5,-212.5"/>
<text text-anchor="start" x="121.5" y="-230.5" font-family="Helvetica,sans-Serif" font-size="10.00" fill="#000000">TechnicalServices/Social</text>
<text text-anchor="middle" x="201.5" y="-219.5" font-family="Helvetica,sans-Serif" font-size="10.00" fill="#000000">/FRIEND_ON_SOCIAL_MEDIA.cpp</text>
</g>
<!-- Node1 -->
<g id="node2" class="node">
<title>Node1</title>
<g id="a_node2"><a xlink:href="$FRIEND__ON__SOCIAL__MEDIA_8h.html" xlink:title="Asteroids/TechnicalServices\l/Social/FRIEND_ON_SOCIAL\l_MEDIA.h">
<polygon fill="#ffffff" stroke="#000000" points="126.5,-134.5 126.5,-175.5 276.5,-175.5 276.5,-134.5 126.5,-134.5"/>
<text text-anchor="start" x="134.5" y="-163.5" font-family="Helvetica,sans-Serif" font-size="10.00" fill="#000000">Asteroids/TechnicalServices</text>
<text text-anchor="start" x="134.5" y="-152.5" font-family="Helvetica,sans-Serif" font-size="10.00" fill="#000000">/Social/FRIEND_ON_SOCIAL</text>
<text text-anchor="middle" x="201.5" y="-141.5" font-family="Helvetica,sans-Serif" font-size="10.00" fill="#000000">_MEDIA.h</text>
</a>
</g>
</g>
<!-- Node0&#45;&gt;Node1 -->
<g id="edge1" class="edge">
<title>Node0&#45;&gt;Node1</title>
<path fill="none" stroke="#191970" d="M201.5,-212.478C201.5,-204.7032 201.5,-194.9168 201.5,-185.634"/>
<polygon fill="#191970" stroke="#191970" points="205.0001,-185.5015 201.5,-175.5015 198.0001,-185.5015 205.0001,-185.5015"/>
</g>
<!-- Node2 -->
<g id="node3" class="node">
<title>Node2</title>
<g id="a_node3"><a xlink:href="$ForwardDeclarations_8h.html" xlink:title="Asteroids/ForwardDeclarations.h">
<polygon fill="#ffffff" stroke="#000000" points="0,-.5 0,-19.5 159,-19.5 159,-.5 0,-.5"/>
<text text-anchor="middle" x="79.5" y="-7.5" font-family="Helvetica,sans-Serif" font-size="10.00" fill="#000000">Asteroids/ForwardDeclarations.h</text>
</a>
</g>
</g>
<!-- Node1&#45;&gt;Node2 -->
<g id="edge2" class="edge">
<title>Node1&#45;&gt;Node2</title>
<path fill="none" stroke="#191970" d="M126.4523,-140.4076C103.2944,-132.0002 80.2808,-118.7774 66.5,-98 52.7521,-77.2722 61.4476,-47.7953 69.7887,-28.7816"/>
<polygon fill="#191970" stroke="#191970" points="72.9942,-30.1904 74.1193,-19.6554 66.6701,-27.1894 72.9942,-30.1904"/>
</g>
<!-- Node3 -->
<g id="node4" class="node">
<title>Node3</title>
<g id="a_node4"><a xlink:href="$FRIEND__ON__SOCIAL__MEDIA__INTERFACE_8h.html" xlink:title="Asteroids/TechnicalServices\l/Social/FRIEND_ON_SOCIAL\l_MEDIA_INTERFACE.h">
<polygon fill="#ffffff" stroke="#000000" points="75.5,-56.5 75.5,-97.5 225.5,-97.5 225.5,-56.5 75.5,-56.5"/>
<text text-anchor="start" x="83.5" y="-85.5" font-family="Helvetica,sans-Serif" font-size="10.00" fill="#000000">Asteroids/TechnicalServices</text>
<text text-anchor="start" x="83.5" y="-74.5" font-family="Helvetica,sans-Serif" font-size="10.00" fill="#000000">/Social/FRIEND_ON_SOCIAL</text>
<text text-anchor="middle" x="150.5" y="-63.5" font-family="Helvetica,sans-Serif" font-size="10.00" fill="#000000">_MEDIA_INTERFACE.h</text>
</a>
</g>
</g>
<!-- Node1&#45;&gt;Node3 -->
<g id="edge3" class="edge">
<title>Node1&#45;&gt;Node3</title>
<path fill="none" stroke="#191970" d="M187.8329,-134.0974C182.243,-125.5482 175.6783,-115.5081 169.6256,-106.251"/>
<polygon fill="#191970" stroke="#191970" points="172.4299,-104.1441 164.0279,-97.6898 166.5711,-107.9749 172.4299,-104.1441"/>
</g>
<!-- Node4 -->
<g id="node5" class="node">
<title>Node4</title>
<polygon fill="#ffffff" stroke="#bfbfbf" points="193,-.5 193,-19.5 234,-19.5 234,-.5 193,-.5"/>
<text text-anchor="middle" x="213.5" y="-7.5" font-family="Helvetica,sans-Serif" font-size="10.00" fill="#000000">string</text>
</g>
<!-- Node1&#45;&gt;Node4 -->
<g id="edge7" class="edge">
<title>Node1&#45;&gt;Node4</title>
<path fill="none" stroke="#191970" d="M217.0524,-134.2628C223.8385,-123.937 231.0297,-110.9206 234.5,-98 239.3421,-79.9723 238.4667,-74.2403 234.5,-56 232.4575,-46.6079 228.3211,-36.8357 224.2553,-28.7264"/>
<polygon fill="#191970" stroke="#191970" points="227.2809,-26.9622 219.4765,-19.7968 221.1091,-30.2651 227.2809,-26.9622"/>
</g>
<!-- Node5 -->
<g id="node6" class="node">
<title>Node5</title>
<polygon fill="#ffffff" stroke="#bfbfbf" points="260.5,-.5 260.5,-19.5 304.5,-19.5 304.5,-.5 260.5,-.5"/>
<text text-anchor="middle" x="282.5" y="-7.5" font-family="Helvetica,sans-Serif" font-size="10.00" fill="#000000">vector</text>
</g>
<!-- Node1&#45;&gt;Node5 -->
<g id="edge8" class="edge">
<title>Node1&#45;&gt;Node5</title>
<path fill="none" stroke="#191970" d="M221.826,-134.3905C231.1737,-124.0938 241.8567,-111.065 249.5,-98 262.3879,-75.9701 271.8467,-48.007 277.2553,-29.5862"/>
<polygon fill="#191970" stroke="#191970" points="280.6908,-30.2982 280.0305,-19.724 273.9525,-28.402 280.6908,-30.2982"/>
</g>
<!-- Node3&#45;&gt;Node2 -->
<g id="edge4" class="edge">
<title>Node3&#45;&gt;Node2</title>
<path fill="none" stroke="#191970" d="M128.4243,-56.168C118.3747,-46.6846 106.6418,-35.6127 97.1854,-26.689"/>
<polygon fill="#191970" stroke="#191970" points="99.5395,-24.0982 89.8644,-19.7805 94.7352,-29.1893 99.5395,-24.0982"/>
</g>
<!-- Node3&#45;&gt;Node4 -->
<g id="edge5" class="edge">
<title>Node3&#45;&gt;Node4</title>
<path fill="none" stroke="#191970" d="M170.0883,-56.168C178.8272,-46.8742 189.0006,-36.0549 197.3015,-27.227"/>
<polygon fill="#191970" stroke="#191970" points="200.003,-29.4633 204.3034,-19.7805 194.9033,-24.6681 200.003,-29.4633"/>
</g>
<!-- Node3&#45;&gt;Node5 -->
<g id="edge6" class="edge">
<title>Node3&#45;&gt;Node5</title>
<path fill="none" stroke="#191970" d="M191.1814,-56.3511C211.6947,-45.9391 236.054,-33.5748 254.4528,-24.2361"/>
<polygon fill="#191970" stroke="#191970" points="256.146,-27.3018 263.4789,-19.6546 252.9777,-21.0598 256.146,-27.3018"/>
</g>
</g>
</svg>
