<?xml version="1.0" encoding="UTF-8" standalone="no"?>
<!DOCTYPE svg PUBLIC "-//W3C//DTD SVG 1.1//EN"
 "http://www.w3.org/Graphics/SVG/1.1/DTD/svg11.dtd">
<!-- Generated by graphviz version 2.40.1 (20161225.0304)
 -->
<!-- Title: Domain/Game/Game.cpp Pages: 1 -->
<svg width="1388pt" height="285pt"
 viewBox="0.00 0.00 1387.83 285.00" xmlns="http://www.w3.org/2000/svg" xmlns:xlink="http://www.w3.org/1999/xlink">
<g id="graph0" class="graph" transform="scale(1 1) rotate(0) translate(4 281)">
<title>Domain/Game/Game.cpp</title>
<polygon fill="#ffffff" stroke="transparent" points="-4,4 -4,-281 1383.832,-281 1383.832,4 -4,4"/>
<!-- Node0 -->
<g id="node1" class="node">
<title>Node0</title>
<polygon fill="#bfbfbf" stroke="#000000" points="787.832,-257.5 787.832,-276.5 915.832,-276.5 915.832,-257.5 787.832,-257.5"/>
<text text-anchor="middle" x="851.832" y="-264.5" font-family="Helvetica,sans-Serif" font-size="10.00" fill="#000000">Domain/Game/Game.cpp</text>
</g>
<!-- Node1 -->
<g id="node2" class="node">
<title>Node1</title>
<g id="a_node2"><a xlink:href="$Game_8h.html" xlink:title="Asteroids/Domain/Game\l/Game.h">
<polygon fill="#ffffff" stroke="#000000" points="273.832,-123.5 273.832,-153.5 397.832,-153.5 397.832,-123.5 273.832,-123.5"/>
<text text-anchor="start" x="281.832" y="-141.5" font-family="Helvetica,sans-Serif" font-size="10.00" fill="#000000">Asteroids/Domain/Game</text>
<text text-anchor="middle" x="335.832" y="-130.5" font-family="Helvetica,sans-Serif" font-size="10.00" fill="#000000">/Game.h</text>
</a>
</g>
</g>
<!-- Node0&#45;&gt;Node1 -->
<g id="edge1" class="edge">
<title>Node0&#45;&gt;Node1</title>
<path fill="none" stroke="#191970" d="M787.5083,-265.1933C660.4496,-261.0328 386.7588,-248.9098 354.832,-221 338.829,-207.0105 334.8432,-182.4989 334.4042,-163.8177"/>
<polygon fill="#191970" stroke="#191970" points="337.9057,-163.6454 334.4916,-153.6158 330.906,-163.5854 337.9057,-163.6454"/>
</g>
<!-- Node7 -->
<g id="node8" class="node">
<title>Node7</title>
<g id="a_node8"><a xlink:href="$Factory_8h.html" xlink:title="Asteroids/Domain/Factory\l/Factory.h">
<polygon fill="#ffffff" stroke="#000000" points="86.332,-123.5 86.332,-153.5 217.332,-153.5 217.332,-123.5 86.332,-123.5"/>
<text text-anchor="start" x="94.332" y="-141.5" font-family="Helvetica,sans-Serif" font-size="10.00" fill="#000000">Asteroids/Domain/Factory</text>
<text text-anchor="middle" x="151.832" y="-130.5" font-family="Helvetica,sans-Serif" font-size="10.00" fill="#000000">/Factory.h</text>
</a>
</g>
</g>
<!-- Node0&#45;&gt;Node7 -->
<g id="edge10" class="edge">
<title>Node0&#45;&gt;Node7</title>
<path fill="none" stroke="#191970" d="M787.5425,-263.9916C668.4198,-257.971 417.875,-243.0948 333.832,-221 280.0868,-206.8705 222.3423,-178.122 186.6463,-158.5816"/>
<polygon fill="#191970" stroke="#191970" points="188.0667,-155.3672 177.6236,-153.5807 184.6733,-161.4897 188.0667,-155.3672"/>
</g>
<!-- Node9 -->
<g id="node10" class="node">
<title>Node9</title>
<g id="a_node10"><a xlink:href="$Domain_2Game_2Defines_8h.html" xlink:title="Asteroids/Domain/Game\l/Defines.h">
<polygon fill="#ffffff" stroke="#000000" points="363.832,-190.5 363.832,-220.5 487.832,-220.5 487.832,-190.5 363.832,-190.5"/>
<text text-anchor="start" x="371.832" y="-208.5" font-family="Helvetica,sans-Serif" font-size="10.00" fill="#000000">Asteroids/Domain/Game</text>
<text text-anchor="middle" x="425.832" y="-197.5" font-family="Helvetica,sans-Serif" font-size="10.00" fill="#000000">/Defines.h</text>
</a>
</g>
</g>
<!-- Node0&#45;&gt;Node9 -->
<g id="edge15" class="edge">
<title>Node0&#45;&gt;Node9</title>
<path fill="none" stroke="#191970" d="M787.7736,-260.3792C718.6498,-252.8568 605.1467,-239.4121 498.1142,-221.139"/>
<polygon fill="#191970" stroke="#191970" points="498.5599,-217.6643 488.1104,-219.4136 497.37,-224.5625 498.5599,-217.6643"/>
</g>
<!-- Node10 -->
<g id="node11" class="node">
<title>Node10</title>
<g id="a_node11"><a xlink:href="$Randomer_8h.html" xlink:title="Asteroids/Domain/Game\l/Randomer.h">
<polygon fill="#ffffff" stroke="#000000" points="505.832,-190.5 505.832,-220.5 629.832,-220.5 629.832,-190.5 505.832,-190.5"/>
<text text-anchor="start" x="513.832" y="-208.5" font-family="Helvetica,sans-Serif" font-size="10.00" fill="#000000">Asteroids/Domain/Game</text>
<text text-anchor="middle" x="567.832" y="-197.5" font-family="Helvetica,sans-Serif" font-size="10.00" fill="#000000">/Randomer.h</text>
</a>
</g>
</g>
<!-- Node0&#45;&gt;Node10 -->
<g id="edge16" class="edge">
<title>Node0&#45;&gt;Node10</title>
<path fill="none" stroke="#191970" d="M807.3586,-257.4258C766.3679,-248.5945 703.5654,-235.0468 639.9664,-221.244"/>
<polygon fill="#191970" stroke="#191970" points="640.6833,-217.8182 630.1684,-219.1169 639.1982,-224.6589 640.6833,-217.8182"/>
</g>
<!-- Node12 -->
<g id="node13" class="node">
<title>Node12</title>
<g id="a_node13"><a xlink:href="$GunShip_8h.html" xlink:title="Asteroids/Domain/Game\l/Actors/GunShip.h">
<polygon fill="#ffffff" stroke="#000000" points="789.832,-190.5 789.832,-220.5 913.832,-220.5 913.832,-190.5 789.832,-190.5"/>
<text text-anchor="start" x="797.832" y="-208.5" font-family="Helvetica,sans-Serif" font-size="10.00" fill="#000000">Asteroids/Domain/Game</text>
<text text-anchor="middle" x="851.832" y="-197.5" font-family="Helvetica,sans-Serif" font-size="10.00" fill="#000000">/Actors/GunShip.h</text>
</a>
</g>
</g>
<!-- Node0&#45;&gt;Node12 -->
<g id="edge19" class="edge">
<title>Node0&#45;&gt;Node12</title>
<path fill="none" stroke="#191970" d="M851.832,-257.3906C851.832,-250.2234 851.832,-240.0862 851.832,-230.671"/>
<polygon fill="#191970" stroke="#191970" points="855.3321,-230.5446 851.832,-220.5446 848.3321,-230.5446 855.3321,-230.5446"/>
</g>
<!-- Node16 -->
<g id="node17" class="node">
<title>Node16</title>
<polygon fill="#ffffff" stroke="#bfbfbf" points="1138.332,-.5 1138.332,-19.5 1179.332,-19.5 1179.332,-.5 1138.332,-.5"/>
<text text-anchor="middle" x="1158.832" y="-7.5" font-family="Helvetica,sans-Serif" font-size="10.00" fill="#000000">string</text>
</g>
<!-- Node0&#45;&gt;Node16 -->
<g id="edge42" class="edge">
<title>Node0&#45;&gt;Node16</title>
<path fill="none" stroke="#191970" d="M915.9139,-257.6575C969.1054,-249.0883 1039.9233,-235.5495 1064.832,-221 1133.6085,-180.8267 1155.5433,-161.457 1183.832,-87 1191.3556,-67.1976 1181.3547,-44.0225 1171.8564,-28.31"/>
<polygon fill="#191970" stroke="#191970" points="1174.5627,-26.0524 1166.1685,-19.588 1168.6993,-29.8761 1174.5627,-26.0524"/>
</g>
<!-- Node18 -->
<g id="node19" class="node">
<title>Node18</title>
<g id="a_node19"><a xlink:href="$Bullet_8h.html" xlink:title="Asteroids/Domain/Game\l/Actors/Bullet.h">
<polygon fill="#ffffff" stroke="#000000" points="931.832,-190.5 931.832,-220.5 1055.832,-220.5 1055.832,-190.5 931.832,-190.5"/>
<text text-anchor="start" x="939.832" y="-208.5" font-family="Helvetica,sans-Serif" font-size="10.00" fill="#000000">Asteroids/Domain/Game</text>
<text text-anchor="middle" x="993.832" y="-197.5" font-family="Helvetica,sans-Serif" font-size="10.00" fill="#000000">/Actors/Bullet.h</text>
</a>
</g>
</g>
<!-- Node0&#45;&gt;Node18 -->
<g id="edge35" class="edge">
<title>Node0&#45;&gt;Node18</title>
<path fill="none" stroke="#191970" d="M874.0195,-257.3906C894.2162,-248.6435 924.6264,-235.4728 949.755,-224.5897"/>
<polygon fill="#191970" stroke="#191970" points="951.3096,-227.7306 959.0949,-220.5446 948.5275,-221.3072 951.3096,-227.7306"/>
</g>
<!-- Node19 -->
<g id="node20" class="node">
<title>Node19</title>
<g id="a_node20"><a xlink:href="$Rock_8h.html" xlink:title="Asteroids/Domain/Game\l/Actors/Rock.h">
<polygon fill="#ffffff" stroke="#000000" points="647.832,-190.5 647.832,-220.5 771.832,-220.5 771.832,-190.5 647.832,-190.5"/>
<text text-anchor="start" x="655.832" y="-208.5" font-family="Helvetica,sans-Serif" font-size="10.00" fill="#000000">Asteroids/Domain/Game</text>
<text text-anchor="middle" x="709.832" y="-197.5" font-family="Helvetica,sans-Serif" font-size="10.00" fill="#000000">/Actors/Rock.h</text>
</a>
</g>
</g>
<!-- Node0&#45;&gt;Node19 -->
<g id="edge38" class="edge">
<title>Node0&#45;&gt;Node19</title>
<path fill="none" stroke="#191970" d="M829.6445,-257.3906C809.4479,-248.6435 779.0376,-235.4728 753.909,-224.5897"/>
<polygon fill="#191970" stroke="#191970" points="755.1365,-221.3072 744.5691,-220.5446 752.3545,-227.7306 755.1365,-221.3072"/>
</g>
<!-- Node20 -->
<g id="node21" class="node">
<title>Node20</title>
<polygon fill="#ffffff" stroke="#bfbfbf" points="1199.832,-196 1199.832,-215 1253.832,-215 1253.832,-196 1199.832,-196"/>
<text text-anchor="middle" x="1226.832" y="-203" font-family="Helvetica,sans-Serif" font-size="10.00" fill="#000000">iostream</text>
</g>
<!-- Node0&#45;&gt;Node20 -->
<g id="edge41" class="edge">
<title>Node0&#45;&gt;Node20</title>
<path fill="none" stroke="#191970" d="M916.0601,-262.4597C983.9198,-256.6672 1093.6522,-244.4542 1185.832,-221 1188.6667,-220.2787 1191.5744,-219.4247 1194.4694,-218.4939"/>
<polygon fill="#191970" stroke="#191970" points="1195.8523,-221.7182 1204.1381,-215.1154 1193.5432,-215.11 1195.8523,-221.7182"/>
</g>
<!-- Node21 -->
<g id="node22" class="node">
<title>Node21</title>
<polygon fill="#ffffff" stroke="#bfbfbf" points="1271.832,-196 1271.832,-215 1317.832,-215 1317.832,-196 1271.832,-196"/>
<text text-anchor="middle" x="1294.832" y="-203" font-family="Helvetica,sans-Serif" font-size="10.00" fill="#000000">chrono</text>
</g>
<!-- Node0&#45;&gt;Node21 -->
<g id="edge43" class="edge">
<title>Node0&#45;&gt;Node21</title>
<path fill="none" stroke="#191970" d="M916.0176,-262.4817C1014.8125,-255.0772 1199.3719,-239.3351 1262.832,-221 1264.5444,-220.5052 1266.2776,-219.9249 1268.0052,-219.2846"/>
<polygon fill="#191970" stroke="#191970" points="1269.8469,-222.3028 1277.6532,-215.1395 1267.0837,-215.8712 1269.8469,-222.3028"/>
</g>
<!-- Node22 -->
<g id="node23" class="node">
<title>Node22</title>
<polygon fill="#ffffff" stroke="#bfbfbf" points="1335.832,-196 1335.832,-215 1379.832,-215 1379.832,-196 1335.832,-196"/>
<text text-anchor="middle" x="1357.832" y="-203" font-family="Helvetica,sans-Serif" font-size="10.00" fill="#000000">thread</text>
</g>
<!-- Node0&#45;&gt;Node22 -->
<g id="edge44" class="edge">
<title>Node0&#45;&gt;Node22</title>
<path fill="none" stroke="#191970" d="M916.0642,-263.6938C1027.3627,-257.4801 1251.3899,-242.7014 1326.832,-221 1328.5415,-220.5082 1330.2696,-219.9234 1331.9892,-219.2734"/>
<polygon fill="#191970" stroke="#191970" points="1333.8308,-222.2857 1341.556,-215.035 1330.9954,-215.8857 1333.8308,-222.2857"/>
</g>
<!-- Node2 -->
<g id="node3" class="node">
<title>Node2</title>
<g id="a_node3"><a xlink:href="$ForwardDeclarations_8h.html" xlink:title="Asteroids/ForwardDeclarations.h">
<polygon fill="#ffffff" stroke="#000000" points="565.332,-.5 565.332,-19.5 724.332,-19.5 724.332,-.5 565.332,-.5"/>
<text text-anchor="middle" x="644.832" y="-7.5" font-family="Helvetica,sans-Serif" font-size="10.00" fill="#000000">Asteroids/ForwardDeclarations.h</text>
</a>
</g>
</g>
<!-- Node1&#45;&gt;Node2 -->
<g id="edge2" class="edge">
<title>Node1&#45;&gt;Node2</title>
<path fill="none" stroke="#191970" d="M344.6421,-123.2824C356.4704,-104.3184 379.3318,-72.4122 407.832,-56 433.0592,-41.4726 500.6894,-29.1669 557.2779,-20.9492"/>
<polygon fill="#191970" stroke="#191970" points="557.9345,-24.3911 567.3398,-19.5136 556.9457,-17.4613 557.9345,-24.3911"/>
</g>
<!-- Node3 -->
<g id="node4" class="node">
<title>Node3</title>
<g id="a_node4"><a xlink:href="$GameInterface_8h.html" xlink:title="Asteroids/Domain/Game\l/GameInterface.h">
<polygon fill="#ffffff" stroke="#000000" points="416.832,-56.5 416.832,-86.5 540.832,-86.5 540.832,-56.5 416.832,-56.5"/>
<text text-anchor="start" x="424.832" y="-74.5" font-family="Helvetica,sans-Serif" font-size="10.00" fill="#000000">Asteroids/Domain/Game</text>
<text text-anchor="middle" x="478.832" y="-63.5" font-family="Helvetica,sans-Serif" font-size="10.00" fill="#000000">/GameInterface.h</text>
</a>
</g>
</g>
<!-- Node1&#45;&gt;Node3 -->
<g id="edge3" class="edge">
<title>Node1&#45;&gt;Node3</title>
<path fill="none" stroke="#191970" d="M367.924,-123.4639C388.387,-113.8763 415.1127,-101.3545 437.2014,-91.0052"/>
<polygon fill="#191970" stroke="#191970" points="438.782,-94.1299 446.3524,-86.7177 435.812,-87.7911 438.782,-94.1299"/>
</g>
<!-- Node5 -->
<g id="node6" class="node">
<title>Node5</title>
<polygon fill="#ffffff" stroke="#bfbfbf" points="78.832,-.5 78.832,-19.5 130.832,-19.5 130.832,-.5 78.832,-.5"/>
<text text-anchor="middle" x="104.832" y="-7.5" font-family="Helvetica,sans-Serif" font-size="10.00" fill="#000000">memory</text>
</g>
<!-- Node1&#45;&gt;Node5 -->
<g id="edge9" class="edge">
<title>Node1&#45;&gt;Node5</title>
<path fill="none" stroke="#191970" d="M273.7812,-129.6173C190.2664,-117.3656 51.2147,-95.7988 43.832,-87 34.9761,-76.4454 37.6865,-68.3313 43.832,-56 50.4324,-42.756 62.8647,-32.3192 74.7925,-24.7581"/>
<polygon fill="#191970" stroke="#191970" points="76.8485,-27.6102 83.7104,-19.5378 73.3121,-21.5691 76.8485,-27.6102"/>
</g>
<!-- Node6 -->
<g id="node7" class="node">
<title>Node6</title>
<g id="a_node7"><a xlink:href="$GameFactoryInterface_8h.html" xlink:title="Asteroids/Domain/Game\l/GameFactoryInterface.h">
<polygon fill="#ffffff" stroke="#000000" points="235.332,-56.5 235.332,-86.5 360.332,-86.5 360.332,-56.5 235.332,-56.5"/>
<text text-anchor="start" x="243.332" y="-74.5" font-family="Helvetica,sans-Serif" font-size="10.00" fill="#000000">Asteroids/Domain/Game</text>
<text text-anchor="middle" x="297.832" y="-63.5" font-family="Helvetica,sans-Serif" font-size="10.00" fill="#000000">/GameFactoryInterface.h</text>
</a>
</g>
</g>
<!-- Node1&#45;&gt;Node6 -->
<g id="edge6" class="edge">
<title>Node1&#45;&gt;Node6</title>
<path fill="none" stroke="#191970" d="M327.2092,-123.2967C322.545,-115.0729 316.6773,-104.7272 311.4147,-95.4483"/>
<polygon fill="#191970" stroke="#191970" points="314.3986,-93.6148 306.4207,-86.6432 308.3097,-97.0683 314.3986,-93.6148"/>
</g>
<!-- Node4 -->
<g id="node5" class="node">
<title>Node4</title>
<polygon fill="#ffffff" stroke="#bfbfbf" points="930.832,-.5 930.832,-19.5 974.832,-19.5 974.832,-.5 930.832,-.5"/>
<text text-anchor="middle" x="952.832" y="-7.5" font-family="Helvetica,sans-Serif" font-size="10.00" fill="#000000">vector</text>
</g>
<!-- Node3&#45;&gt;Node4 -->
<g id="edge4" class="edge">
<title>Node3&#45;&gt;Node4</title>
<path fill="none" stroke="#191970" d="M541.2867,-63.3967C643.3278,-50.1572 842.2371,-24.3493 920.2881,-14.2225"/>
<polygon fill="#191970" stroke="#191970" points="921.0102,-17.6582 930.4767,-12.9005 920.1094,-10.7164 921.0102,-17.6582"/>
</g>
<!-- Node3&#45;&gt;Node5 -->
<g id="edge5" class="edge">
<title>Node3&#45;&gt;Node5</title>
<path fill="none" stroke="#191970" d="M416.6537,-61.2755C337.9504,-48.3336 204.9588,-26.4647 141.1351,-15.9696"/>
<polygon fill="#191970" stroke="#191970" points="141.5757,-12.4951 131.1403,-14.3261 140.4398,-19.4024 141.5757,-12.4951"/>
</g>
<!-- Node6&#45;&gt;Node2 -->
<g id="edge7" class="edge">
<title>Node6&#45;&gt;Node2</title>
<path fill="none" stroke="#191970" d="M360.4167,-58.7391C365.2911,-57.7949 370.1396,-56.8718 374.832,-56 443.1593,-43.3054 521.4727,-30.1125 576.0992,-21.128"/>
<polygon fill="#191970" stroke="#191970" points="576.7147,-24.5739 586.0158,-19.5005 575.5809,-17.6663 576.7147,-24.5739"/>
</g>
<!-- Node6&#45;&gt;Node5 -->
<g id="edge8" class="edge">
<title>Node6&#45;&gt;Node5</title>
<path fill="none" stroke="#191970" d="M250.6189,-56.4554C216.6836,-45.6418 171.6324,-31.2861 140.6399,-21.4103"/>
<polygon fill="#191970" stroke="#191970" points="141.694,-18.0728 131.1034,-18.3714 139.5687,-24.7424 141.694,-18.0728"/>
</g>
<!-- Node7&#45;&gt;Node5 -->
<g id="edge14" class="edge">
<title>Node7&#45;&gt;Node5</title>
<path fill="none" stroke="#191970" d="M86.683,-123.3908C52.5542,-114.0172 15.8074,-101.0965 5.832,-87 -2.1267,-75.7534 -1.5787,-67.615 5.832,-56 19.6225,-34.3858 46.4839,-22.7698 68.7508,-16.6208"/>
<polygon fill="#191970" stroke="#191970" points="69.7399,-19.9814 78.5947,-14.164 68.0448,-13.1897 69.7399,-19.9814"/>
</g>
<!-- Node8 -->
<g id="node9" class="node">
<title>Node8</title>
<g id="a_node9"><a xlink:href="$FactoryInterface_8h.html" xlink:title="Asteroids/Domain/Factory\l/FactoryInterface.h">
<polygon fill="#ffffff" stroke="#000000" points="86.332,-56.5 86.332,-86.5 217.332,-86.5 217.332,-56.5 86.332,-56.5"/>
<text text-anchor="start" x="94.332" y="-74.5" font-family="Helvetica,sans-Serif" font-size="10.00" fill="#000000">Asteroids/Domain/Factory</text>
<text text-anchor="middle" x="151.832" y="-63.5" font-family="Helvetica,sans-Serif" font-size="10.00" fill="#000000">/FactoryInterface.h</text>
</a>
</g>
</g>
<!-- Node7&#45;&gt;Node8 -->
<g id="edge11" class="edge">
<title>Node7&#45;&gt;Node8</title>
<path fill="none" stroke="#191970" d="M151.832,-123.2967C151.832,-115.5013 151.832,-105.7991 151.832,-96.9064"/>
<polygon fill="#191970" stroke="#191970" points="155.3321,-96.6431 151.832,-86.6432 148.3321,-96.6432 155.3321,-96.6431"/>
</g>
<!-- Node8&#45;&gt;Node2 -->
<g id="edge12" class="edge">
<title>Node8&#45;&gt;Node2</title>
<path fill="none" stroke="#191970" d="M217.5382,-57.3916C220.3363,-56.9001 223.1098,-56.4335 225.832,-56 338.6827,-38.03 469.7569,-24.8674 554.8354,-17.3335"/>
<polygon fill="#191970" stroke="#191970" points="555.3231,-20.8042 564.9785,-16.4426 554.7106,-13.831 555.3231,-20.8042"/>
</g>
<!-- Node8&#45;&gt;Node5 -->
<g id="edge13" class="edge">
<title>Node8&#45;&gt;Node5</title>
<path fill="none" stroke="#191970" d="M140.214,-56.2977C133.622,-47.672 125.3372,-36.8312 118.4419,-27.8087"/>
<polygon fill="#191970" stroke="#191970" points="121.2104,-25.6671 112.3573,-19.8469 115.6486,-29.9176 121.2104,-25.6671"/>
</g>
<!-- Node10&#45;&gt;Node2 -->
<g id="edge17" class="edge">
<title>Node10&#45;&gt;Node2</title>
<path fill="none" stroke="#191970" d="M573.7462,-190.4841C587.5233,-155.5046 621.7495,-68.6055 637.1308,-29.553"/>
<polygon fill="#191970" stroke="#191970" points="640.5286,-30.4768 640.9368,-19.8898 634.0156,-27.9115 640.5286,-30.4768"/>
</g>
<!-- Node11 -->
<g id="node12" class="node">
<title>Node11</title>
<polygon fill="#ffffff" stroke="#bfbfbf" points="491.332,-129 491.332,-148 540.332,-148 540.332,-129 491.332,-129"/>
<text text-anchor="middle" x="515.832" y="-136" font-family="Helvetica,sans-Serif" font-size="10.00" fill="#000000">random</text>
</g>
<!-- Node10&#45;&gt;Node11 -->
<g id="edge18" class="edge">
<title>Node10&#45;&gt;Node11</title>
<path fill="none" stroke="#191970" d="M556.0324,-190.2967C548.1665,-180.1618 537.7993,-166.804 529.5632,-156.1921"/>
<polygon fill="#191970" stroke="#191970" points="532.1441,-153.8089 523.2478,-148.055 526.6141,-158.1008 532.1441,-153.8089"/>
</g>
<!-- Node12&#45;&gt;Node2 -->
<g id="edge20" class="edge">
<title>Node12&#45;&gt;Node2</title>
<path fill="none" stroke="#191970" d="M789.4181,-191.4148C739.7349,-179.6359 677.1758,-163.3084 668.832,-154 637.7807,-119.3591 638.9187,-60.3651 642.0498,-29.7484"/>
<polygon fill="#191970" stroke="#191970" points="645.5615,-29.8608 643.2844,-19.5136 638.6119,-29.0224 645.5615,-29.8608"/>
</g>
<!-- Node13 -->
<g id="node14" class="node">
<title>Node13</title>
<g id="a_node14"><a xlink:href="$Actor_8h.html" xlink:title="Asteroids/Domain/Game\l/Actors/Actor.h">
<polygon fill="#ffffff" stroke="#000000" points="789.832,-123.5 789.832,-153.5 913.832,-153.5 913.832,-123.5 789.832,-123.5"/>
<text text-anchor="start" x="797.832" y="-141.5" font-family="Helvetica,sans-Serif" font-size="10.00" fill="#000000">Asteroids/Domain/Game</text>
<text text-anchor="middle" x="851.832" y="-130.5" font-family="Helvetica,sans-Serif" font-size="10.00" fill="#000000">/Actors/Actor.h</text>
</a>
</g>
</g>
<!-- Node12&#45;&gt;Node13 -->
<g id="edge21" class="edge">
<title>Node12&#45;&gt;Node13</title>
<path fill="none" stroke="#191970" d="M851.832,-190.2967C851.832,-182.5013 851.832,-172.7991 851.832,-163.9064"/>
<polygon fill="#191970" stroke="#191970" points="855.3321,-163.6431 851.832,-153.6432 848.3321,-163.6432 855.3321,-163.6431"/>
</g>
<!-- Node13&#45;&gt;Node2 -->
<g id="edge22" class="edge">
<title>Node13&#45;&gt;Node2</title>
<path fill="none" stroke="#191970" d="M813.022,-123.4861C790.8802,-114.2341 763.008,-101.4033 739.832,-87 710.9037,-69.0218 680.9239,-43.3368 662.5714,-26.6649"/>
<polygon fill="#191970" stroke="#191970" points="664.7312,-23.8959 655.003,-19.6991 659.9907,-29.0465 664.7312,-23.8959"/>
</g>
<!-- Node13&#45;&gt;Node4 -->
<g id="edge34" class="edge">
<title>Node13&#45;&gt;Node4</title>
<path fill="none" stroke="#191970" d="M914.1684,-132.5879C1001.0401,-123.7107 1149.7393,-105.9471 1165.832,-87 1216.9196,-26.8509 1056.9916,-13.6871 985.5102,-10.8066"/>
<polygon fill="#191970" stroke="#191970" points="985.3602,-7.2991 975.2415,-10.4394 985.11,-14.2946 985.3602,-7.2991"/>
</g>
<!-- Node13&#45;&gt;Node5 -->
<g id="edge33" class="edge">
<title>Node13&#45;&gt;Node5</title>
<path fill="none" stroke="#191970" d="M789.6246,-134.925C606.6926,-124.3412 82.9144,-93.4999 76.832,-87 61.3552,-70.4606 75.9669,-44.7036 89.2231,-27.5962"/>
<polygon fill="#191970" stroke="#191970" points="92.2085,-29.4769 95.8652,-19.5331 86.8055,-25.0262 92.2085,-29.4769"/>
</g>
<!-- Node14 -->
<g id="node15" class="node">
<title>Node14</title>
<g id="a_node15"><a xlink:href="$ActorInterface_8h.html" xlink:title="Asteroids/Domain/Game\l/Actors/ActorInterface.h">
<polygon fill="#ffffff" stroke="#000000" points="890.832,-56.5 890.832,-86.5 1014.832,-86.5 1014.832,-56.5 890.832,-56.5"/>
<text text-anchor="start" x="898.832" y="-74.5" font-family="Helvetica,sans-Serif" font-size="10.00" fill="#000000">Asteroids/Domain/Game</text>
<text text-anchor="middle" x="952.832" y="-63.5" font-family="Helvetica,sans-Serif" font-size="10.00" fill="#000000">/Actors/ActorInterface.h</text>
</a>
</g>
</g>
<!-- Node13&#45;&gt;Node14 -->
<g id="edge23" class="edge">
<title>Node13&#45;&gt;Node14</title>
<path fill="none" stroke="#191970" d="M874.4984,-123.4639C888.306,-114.3044 906.1509,-102.4667 921.3203,-92.4038"/>
<polygon fill="#191970" stroke="#191970" points="923.4935,-95.1623 929.8918,-86.7177 919.6239,-89.3291 923.4935,-95.1623"/>
</g>
<!-- Node15 -->
<g id="node16" class="node">
<title>Node15</title>
<g id="a_node16"><a xlink:href="$Rect_8h.html" xlink:title="Asteroids/Domain/Game\l/Actors/Rect.h">
<polygon fill="#ffffff" stroke="#000000" points="1032.832,-56.5 1032.832,-86.5 1156.832,-86.5 1156.832,-56.5 1032.832,-56.5"/>
<text text-anchor="start" x="1040.832" y="-74.5" font-family="Helvetica,sans-Serif" font-size="10.00" fill="#000000">Asteroids/Domain/Game</text>
<text text-anchor="middle" x="1094.832" y="-63.5" font-family="Helvetica,sans-Serif" font-size="10.00" fill="#000000">/Actors/Rect.h</text>
</a>
</g>
</g>
<!-- Node13&#45;&gt;Node15 -->
<g id="edge26" class="edge">
<title>Node13&#45;&gt;Node15</title>
<path fill="none" stroke="#191970" d="M906.366,-123.4639C942.9748,-113.3701 991.3793,-100.024 1029.9662,-89.3848"/>
<polygon fill="#191970" stroke="#191970" points="1031.3503,-92.6339 1040.0602,-86.6017 1029.4896,-85.8857 1031.3503,-92.6339"/>
</g>
<!-- Node17 -->
<g id="node18" class="node">
<title>Node17</title>
<g id="a_node18"><a xlink:href="$Vector_8h.html" xlink:title="Asteroids/Domain/Game\l/Actors/Vector.h">
<polygon fill="#ffffff" stroke="#000000" points="748.832,-56.5 748.832,-86.5 872.832,-86.5 872.832,-56.5 748.832,-56.5"/>
<text text-anchor="start" x="756.832" y="-74.5" font-family="Helvetica,sans-Serif" font-size="10.00" fill="#000000">Asteroids/Domain/Game</text>
<text text-anchor="middle" x="810.832" y="-63.5" font-family="Helvetica,sans-Serif" font-size="10.00" fill="#000000">/Actors/Vector.h</text>
</a>
</g>
</g>
<!-- Node13&#45;&gt;Node17 -->
<g id="edge30" class="edge">
<title>Node13&#45;&gt;Node17</title>
<path fill="none" stroke="#191970" d="M842.5285,-123.2967C837.4961,-115.0729 831.1651,-104.7272 825.487,-95.4483"/>
<polygon fill="#191970" stroke="#191970" points="828.3038,-93.346 820.0987,-86.6432 822.333,-96.9997 828.3038,-93.346"/>
</g>
<!-- Node14&#45;&gt;Node2 -->
<g id="edge24" class="edge">
<title>Node14&#45;&gt;Node2</title>
<path fill="none" stroke="#191970" d="M890.5113,-57.8091C887.5786,-57.1917 884.6741,-56.586 881.832,-56 822.0461,-43.6738 753.5789,-30.4843 705.6583,-21.4033"/>
<polygon fill="#191970" stroke="#191970" points="706.2313,-17.9497 695.7549,-19.5297 704.93,-24.8277 706.2313,-17.9497"/>
</g>
<!-- Node14&#45;&gt;Node4 -->
<g id="edge25" class="edge">
<title>Node14&#45;&gt;Node4</title>
<path fill="none" stroke="#191970" d="M952.832,-56.2977C952.832,-48.3834 952.832,-38.6043 952.832,-30.0759"/>
<polygon fill="#191970" stroke="#191970" points="956.3321,-29.8469 952.832,-19.8469 949.3321,-29.847 956.3321,-29.8469"/>
</g>
<!-- Node15&#45;&gt;Node2 -->
<g id="edge27" class="edge">
<title>Node15&#45;&gt;Node2</title>
<path fill="none" stroke="#191970" d="M1032.5585,-57.5577C1029.6131,-57.0076 1026.6931,-56.4848 1023.832,-56 925.4849,-39.3347 811.7909,-26.3664 734.781,-18.5077"/>
<polygon fill="#191970" stroke="#191970" points="734.9365,-15.0056 724.6348,-17.4802 734.2312,-21.97 734.9365,-15.0056"/>
</g>
<!-- Node15&#45;&gt;Node4 -->
<g id="edge29" class="edge">
<title>Node15&#45;&gt;Node4</title>
<path fill="none" stroke="#191970" d="M1060.0949,-56.4554C1036.9214,-46.419 1006.7028,-33.3314 984.2478,-23.6061"/>
<polygon fill="#191970" stroke="#191970" points="985.4043,-20.2929 974.837,-19.5303 982.6223,-26.7164 985.4043,-20.2929"/>
</g>
<!-- Node15&#45;&gt;Node16 -->
<g id="edge28" class="edge">
<title>Node15&#45;&gt;Node16</title>
<path fill="none" stroke="#191970" d="M1110.6522,-56.2977C1119.9063,-47.4052 1131.6101,-36.1586 1141.165,-26.9769"/>
<polygon fill="#191970" stroke="#191970" points="1143.7994,-29.2995 1148.5848,-19.8469 1138.9492,-24.2521 1143.7994,-29.2995"/>
</g>
<!-- Node17&#45;&gt;Node2 -->
<g id="edge31" class="edge">
<title>Node17&#45;&gt;Node2</title>
<path fill="none" stroke="#191970" d="M770.2238,-56.4554C742.6478,-46.239 706.5378,-32.8609 680.1538,-23.0861"/>
<polygon fill="#191970" stroke="#191970" points="681.1492,-19.7224 670.5561,-19.5303 678.7173,-26.2864 681.1492,-19.7224"/>
</g>
<!-- Node17&#45;&gt;Node4 -->
<g id="edge32" class="edge">
<title>Node17&#45;&gt;Node4</title>
<path fill="none" stroke="#191970" d="M845.5691,-56.4554C868.7426,-46.419 898.9612,-33.3314 921.4163,-23.6061"/>
<polygon fill="#191970" stroke="#191970" points="923.0417,-26.7164 930.8271,-19.5303 920.2597,-20.2929 923.0417,-26.7164"/>
</g>
<!-- Node18&#45;&gt;Node2 -->
<g id="edge36" class="edge">
<title>Node18&#45;&gt;Node2</title>
<path fill="none" stroke="#191970" d="M931.66,-191.9069C873.788,-179.0204 794.4572,-160.6703 780.832,-154 737.9414,-133.0026 729.2342,-122.0798 696.832,-87 680.1545,-68.9443 664.9078,-45.103 655.2971,-28.7603"/>
<polygon fill="#191970" stroke="#191970" points="658.0937,-26.6018 650.0791,-19.6724 652.0232,-30.0873 658.0937,-26.6018"/>
</g>
<!-- Node18&#45;&gt;Node13 -->
<g id="edge37" class="edge">
<title>Node18&#45;&gt;Node13</title>
<path fill="none" stroke="#191970" d="M961.9644,-190.4639C941.6446,-180.8763 915.1058,-168.3545 893.1715,-158.0052"/>
<polygon fill="#191970" stroke="#191970" points="894.6219,-154.8196 884.0845,-153.7177 891.6349,-161.1503 894.6219,-154.8196"/>
</g>
<!-- Node19&#45;&gt;Node2 -->
<g id="edge39" class="edge">
<title>Node19&#45;&gt;Node2</title>
<path fill="none" stroke="#191970" d="M671.6706,-190.471C656.0707,-182.2068 639.6455,-170.2664 630.832,-154 609.0915,-113.8752 625.262,-58.1724 636.482,-29.2143"/>
<polygon fill="#191970" stroke="#191970" points="639.7722,-30.415 640.3123,-19.834 633.2916,-27.7688 639.7722,-30.415"/>
</g>
<!-- Node19&#45;&gt;Node13 -->
<g id="edge40" class="edge">
<title>Node19&#45;&gt;Node13</title>
<path fill="none" stroke="#191970" d="M741.6996,-190.4639C762.0195,-180.8763 788.5583,-168.3545 810.4926,-158.0052"/>
<polygon fill="#191970" stroke="#191970" points="812.0292,-161.1503 819.5795,-153.7177 809.0421,-154.8196 812.0292,-161.1503"/>
</g>
</g>
</svg>
