<?xml version="1.0" encoding="UTF-8" standalone="no"?>
<!DOCTYPE svg PUBLIC "-//W3C//DTD SVG 1.1//EN"
 "http://www.w3.org/Graphics/SVG/1.1/DTD/svg11.dtd">
<!-- Generated by graphviz version 2.40.1 (20161225.0304)
 -->
<!-- Title: Domain/Game/GameInterface.h Pages: 1 -->
<svg width="578pt" height="151pt"
 viewBox="0.00 0.00 578.00 151.00" xmlns="http://www.w3.org/2000/svg" xmlns:xlink="http://www.w3.org/1999/xlink">
<g id="graph0" class="graph" transform="scale(1 1) rotate(0) translate(4 147)">
<title>Domain/Game/GameInterface.h</title>
<polygon fill="#ffffff" stroke="transparent" points="-4,4 -4,-147 574,-147 574,4 -4,4"/>
<!-- Node3 -->
<g id="node1" class="node">
<title>Node3</title>
<polygon fill="#bfbfbf" stroke="#000000" points="275.5,-123.5 275.5,-142.5 430.5,-142.5 430.5,-123.5 275.5,-123.5"/>
<text text-anchor="middle" x="353" y="-130.5" font-family="Helvetica,sans-Serif" font-size="10.00" fill="#000000">Domain/Game/GameInterface.h</text>
</g>
<!-- Node4 -->
<g id="node2" class="node">
<title>Node4</title>
<g id="a_node2"><a xlink:href="$Game_8h.html" xlink:title="Domain/Game/Game.h">
<polygon fill="#ffffff" stroke="#000000" points="168.5,-67.5 168.5,-86.5 285.5,-86.5 285.5,-67.5 168.5,-67.5"/>
<text text-anchor="middle" x="227" y="-74.5" font-family="Helvetica,sans-Serif" font-size="10.00" fill="#000000">Domain/Game/Game.h</text>
</a>
</g>
</g>
<!-- Node3&#45;&gt;Node4 -->
<g id="edge1" class="edge">
<title>Node3&#45;&gt;Node4</title>
<path fill="none" stroke="#191970" d="M322.0564,-119.2473C299.1735,-109.0771 268.5986,-95.4883 248.3775,-86.5011"/>
<polygon fill="#191970" stroke="#191970" points="320.7802,-122.5102 331.3398,-123.3733 323.6232,-116.1135 320.7802,-122.5102"/>
</g>
<!-- Node7 -->
<g id="node5" class="node">
<title>Node7</title>
<g id="a_node5"><a xlink:href="$ClientTextUI_8cpp.html" xlink:title="UI/ClientTextUI/ClientText\lUI.cpp">
<polygon fill="#ffffff" stroke="#000000" points="326,-.5 326,-30.5 460,-30.5 460,-.5 326,-.5"/>
<text text-anchor="start" x="334" y="-18.5" font-family="Helvetica,sans-Serif" font-size="10.00" fill="#000000">UI/ClientTextUI/ClientText</text>
<text text-anchor="middle" x="393" y="-7.5" font-family="Helvetica,sans-Serif" font-size="10.00" fill="#000000">UI.cpp</text>
</a>
</g>
</g>
<!-- Node3&#45;&gt;Node7 -->
<g id="edge4" class="edge">
<title>Node3&#45;&gt;Node7</title>
<path fill="none" stroke="#191970" d="M358.1138,-113.1711C361.6622,-99.9746 366.6903,-82.3144 372,-67 376.3017,-54.5928 381.9596,-40.8336 386.3187,-30.6605"/>
<polygon fill="#191970" stroke="#191970" points="354.6725,-112.495 355.5074,-123.0569 361.4412,-114.2796 354.6725,-112.495"/>
</g>
<!-- Node8 -->
<g id="node6" class="node">
<title>Node8</title>
<g id="a_node6"><a xlink:href="$ClientTextUI_8h.html" xlink:title="UI/ClientTextUI/ClientTextUI.h">
<polygon fill="#ffffff" stroke="#000000" points="381,-67.5 381,-86.5 533,-86.5 533,-67.5 381,-67.5"/>
<text text-anchor="middle" x="457" y="-74.5" font-family="Helvetica,sans-Serif" font-size="10.00" fill="#000000">UI/ClientTextUI/ClientTextUI.h</text>
</a>
</g>
</g>
<!-- Node3&#45;&gt;Node8 -->
<g id="edge5" class="edge">
<title>Node3&#45;&gt;Node8</title>
<path fill="none" stroke="#191970" d="M380.0029,-118.46C398.6136,-108.4388 422.8299,-95.3993 439.0922,-86.6427"/>
<polygon fill="#191970" stroke="#191970" points="378.2608,-115.4228 371.1154,-123.2455 381.5795,-121.5861 378.2608,-115.4228"/>
</g>
<!-- Node5 -->
<g id="node3" class="node">
<title>Node5</title>
<g id="a_node3"><a xlink:href="$Game_8cpp.html" xlink:title="Domain/Game/Game.cpp">
<polygon fill="#ffffff" stroke="#000000" points="0,-6 0,-25 128,-25 128,-6 0,-6"/>
<text text-anchor="middle" x="64" y="-13" font-family="Helvetica,sans-Serif" font-size="10.00" fill="#000000">Domain/Game/Game.cpp</text>
</a>
</g>
</g>
<!-- Node4&#45;&gt;Node5 -->
<g id="edge2" class="edge">
<title>Node4&#45;&gt;Node5</title>
<path fill="none" stroke="#191970" d="M192.0129,-63.7993C161.1289,-52.1468 116.8496,-35.4402 89.2899,-25.0419"/>
<polygon fill="#191970" stroke="#191970" points="190.9395,-67.1351 201.5313,-67.3906 193.4106,-60.5858 190.9395,-67.1351"/>
</g>
<!-- Node6 -->
<g id="node4" class="node">
<title>Node6</title>
<g id="a_node4"><a xlink:href="$GameFactory_8cpp.html" xlink:title="Domain/Game/GameFactory.cpp">
<polygon fill="#ffffff" stroke="#000000" points="146.5,-6 146.5,-25 307.5,-25 307.5,-6 146.5,-6"/>
<text text-anchor="middle" x="227" y="-13" font-family="Helvetica,sans-Serif" font-size="10.00" fill="#000000">Domain/Game/GameFactory.cpp</text>
</a>
</g>
</g>
<!-- Node4&#45;&gt;Node6 -->
<g id="edge3" class="edge">
<title>Node4&#45;&gt;Node6</title>
<path fill="none" stroke="#191970" d="M227,-57.2462C227,-46.5519 227,-33.814 227,-25.2449"/>
<polygon fill="#191970" stroke="#191970" points="223.5001,-57.3906 227,-67.3906 230.5001,-57.3907 223.5001,-57.3906"/>
</g>
<!-- Node8&#45;&gt;Node7 -->
<g id="edge6" class="edge">
<title>Node8&#45;&gt;Node7</title>
<path fill="none" stroke="#191970" d="M439.5276,-60.2101C429.8809,-50.9403 417.9983,-39.5218 408.6562,-30.5446"/>
<polygon fill="#191970" stroke="#191970" points="437.3644,-62.9854 447,-67.3906 442.2146,-57.9381 437.3644,-62.9854"/>
</g>
<!-- Node9 -->
<g id="node7" class="node">
<title>Node9</title>
<g id="a_node7"><a xlink:href="$UIFactory_8cpp.html" xlink:title="UI/UIFactory.cpp">
<polygon fill="#ffffff" stroke="#000000" points="478,-6 478,-25 570,-25 570,-6 478,-6"/>
<text text-anchor="middle" x="524" y="-13" font-family="Helvetica,sans-Serif" font-size="10.00" fill="#000000">UI/UIFactory.cpp</text>
</a>
</g>
</g>
<!-- Node8&#45;&gt;Node9 -->
<g id="edge7" class="edge">
<title>Node8&#45;&gt;Node9</title>
<path fill="none" stroke="#191970" d="M474.9231,-60.5482C487.1993,-49.2798 503.0655,-34.716 513.3837,-25.2449"/>
<polygon fill="#191970" stroke="#191970" points="472.469,-58.0499 467.4688,-67.3906 477.2025,-63.2068 472.469,-58.0499"/>
</g>
</g>
</svg>
