<?xml version="1.0" encoding="UTF-8" standalone="no"?>
<!DOCTYPE svg PUBLIC "-//W3C//DTD SVG 1.1//EN"
 "http://www.w3.org/Graphics/SVG/1.1/DTD/svg11.dtd">
<!-- Generated by graphviz version 2.40.1 (20161225.0304)
 -->
<!-- Title: Domain/Game/GameFactory.h Pages: 1 -->
<svg width="239pt" height="151pt"
 viewBox="0.00 0.00 239.50 151.00" xmlns="http://www.w3.org/2000/svg" xmlns:xlink="http://www.w3.org/1999/xlink">
<g id="graph0" class="graph" transform="scale(1 1) rotate(0) translate(4 147)">
<title>Domain/Game/GameFactory.h</title>
<polygon fill="#ffffff" stroke="transparent" points="-4,4 -4,-147 235.5,-147 235.5,4 -4,4"/>
<!-- Node0 -->
<g id="node1" class="node">
<title>Node0</title>
<polygon fill="#bfbfbf" stroke="#000000" points="81.5,-123.5 81.5,-142.5 231.5,-142.5 231.5,-123.5 81.5,-123.5"/>
<text text-anchor="middle" x="156.5" y="-130.5" font-family="Helvetica,sans-Serif" font-size="10.00" fill="#000000">Domain/Game/GameFactory.h</text>
</g>
<!-- Node1 -->
<g id="node2" class="node">
<title>Node1</title>
<g id="a_node2"><a xlink:href="$GameFactoryInterface_8h.html" xlink:title="Asteroids/Domain/Game\l/GameFactoryInterface.h">
<polygon fill="#ffffff" stroke="#000000" points="49,-56.5 49,-86.5 174,-86.5 174,-56.5 49,-56.5"/>
<text text-anchor="start" x="57" y="-74.5" font-family="Helvetica,sans-Serif" font-size="10.00" fill="#000000">Asteroids/Domain/Game</text>
<text text-anchor="middle" x="111.5" y="-63.5" font-family="Helvetica,sans-Serif" font-size="10.00" fill="#000000">/GameFactoryInterface.h</text>
</a>
</g>
</g>
<!-- Node0&#45;&gt;Node1 -->
<g id="edge1" class="edge">
<title>Node0&#45;&gt;Node1</title>
<path fill="none" stroke="#191970" d="M149.4688,-123.3906C143.8861,-115.761 135.8409,-104.7658 128.5918,-94.8588"/>
<polygon fill="#191970" stroke="#191970" points="131.238,-92.5481 122.5082,-86.5446 125.5888,-96.6817 131.238,-92.5481"/>
</g>
<!-- Node3 -->
<g id="node4" class="node">
<title>Node3</title>
<polygon fill="#ffffff" stroke="#bfbfbf" points="176.5,-.5 176.5,-19.5 228.5,-19.5 228.5,-.5 176.5,-.5"/>
<text text-anchor="middle" x="202.5" y="-7.5" font-family="Helvetica,sans-Serif" font-size="10.00" fill="#000000">memory</text>
</g>
<!-- Node0&#45;&gt;Node3 -->
<g id="edge4" class="edge">
<title>Node0&#45;&gt;Node3</title>
<path fill="none" stroke="#191970" d="M163.3841,-123.2026C169.4473,-114.1727 178.1265,-100.2095 183.5,-87 191.0984,-68.3212 196.2212,-45.8136 199.2142,-29.9711"/>
<polygon fill="#191970" stroke="#191970" points="202.7244,-30.2206 201.0221,-19.7634 195.8317,-28.9998 202.7244,-30.2206"/>
</g>
<!-- Node2 -->
<g id="node3" class="node">
<title>Node2</title>
<g id="a_node3"><a xlink:href="$ForwardDeclarations_8h.html" xlink:title="Asteroids/ForwardDeclarations.h">
<polygon fill="#ffffff" stroke="#000000" points="0,-.5 0,-19.5 159,-19.5 159,-.5 0,-.5"/>
<text text-anchor="middle" x="79.5" y="-7.5" font-family="Helvetica,sans-Serif" font-size="10.00" fill="#000000">Asteroids/ForwardDeclarations.h</text>
</a>
</g>
</g>
<!-- Node1&#45;&gt;Node2 -->
<g id="edge2" class="edge">
<title>Node1&#45;&gt;Node2</title>
<path fill="none" stroke="#191970" d="M103.5899,-56.2977C99.2868,-48.0277 93.9242,-37.7215 89.3518,-28.9339"/>
<polygon fill="#191970" stroke="#191970" points="92.3443,-27.1024 84.6236,-19.8469 86.1346,-30.3335 92.3443,-27.1024"/>
</g>
<!-- Node1&#45;&gt;Node3 -->
<g id="edge3" class="edge">
<title>Node1&#45;&gt;Node3</title>
<path fill="none" stroke="#191970" d="M133.9944,-56.2977C147.8967,-46.9022 165.6876,-34.8787 179.6546,-25.4395"/>
<polygon fill="#191970" stroke="#191970" points="181.876,-28.1626 188.2015,-19.6633 177.9564,-22.3629 181.876,-28.1626"/>
</g>
</g>
</svg>
