<?xml version="1.0" encoding="UTF-8" standalone="no"?>
<!DOCTYPE svg PUBLIC "-//W3C//DTD SVG 1.1//EN"
 "http://www.w3.org/Graphics/SVG/1.1/DTD/svg11.dtd">
<!-- Generated by graphviz version 2.40.1 (20161225.0304)
 -->
<!-- Title: Domain/Game/Game.h Pages: 1 -->
<svg width="316pt" height="84pt"
 viewBox="0.00 0.00 315.50 84.00" xmlns="http://www.w3.org/2000/svg" xmlns:xlink="http://www.w3.org/1999/xlink">
<g id="graph0" class="graph" transform="scale(1 1) rotate(0) translate(4 80)">
<title>Domain/Game/Game.h</title>
<polygon fill="#ffffff" stroke="transparent" points="-4,4 -4,-80 311.5,-80 311.5,4 -4,4"/>
<!-- Node6 -->
<g id="node1" class="node">
<title>Node6</title>
<polygon fill="#bfbfbf" stroke="#000000" points="86.5,-56.5 86.5,-75.5 203.5,-75.5 203.5,-56.5 86.5,-56.5"/>
<text text-anchor="middle" x="145" y="-63.5" font-family="Helvetica,sans-Serif" font-size="10.00" fill="#000000">Domain/Game/Game.h</text>
</g>
<!-- Node7 -->
<g id="node2" class="node">
<title>Node7</title>
<g id="a_node2"><a xlink:href="$Game_8cpp.html" xlink:title="Domain/Game/Game.cpp">
<polygon fill="#ffffff" stroke="#000000" points="0,-.5 0,-19.5 128,-19.5 128,-.5 0,-.5"/>
<text text-anchor="middle" x="64" y="-7.5" font-family="Helvetica,sans-Serif" font-size="10.00" fill="#000000">Domain/Game/Game.cpp</text>
</a>
</g>
</g>
<!-- Node6&#45;&gt;Node7 -->
<g id="edge1" class="edge">
<title>Node6&#45;&gt;Node7</title>
<path fill="none" stroke="#191970" d="M122.566,-50.49C108.2746,-40.6096 90.2084,-28.1194 77.9474,-19.6427"/>
<polygon fill="#191970" stroke="#191970" points="120.6749,-53.4376 130.8909,-56.2455 124.6557,-47.6797 120.6749,-53.4376"/>
</g>
<!-- Node8 -->
<g id="node3" class="node">
<title>Node8</title>
<g id="a_node3"><a xlink:href="$GameFactory_8cpp.html" xlink:title="Domain/Game/GameFactory.cpp">
<polygon fill="#ffffff" stroke="#000000" points="146.5,-.5 146.5,-19.5 307.5,-19.5 307.5,-.5 146.5,-.5"/>
<text text-anchor="middle" x="227" y="-7.5" font-family="Helvetica,sans-Serif" font-size="10.00" fill="#000000">Domain/Game/GameFactory.cpp</text>
</a>
</g>
</g>
<!-- Node6&#45;&gt;Node8 -->
<g id="edge2" class="edge">
<title>Node6&#45;&gt;Node8</title>
<path fill="none" stroke="#191970" d="M167.711,-50.49C182.1788,-40.6096 200.468,-28.1194 212.8804,-19.6427"/>
<polygon fill="#191970" stroke="#191970" points="165.5675,-47.7156 159.2833,-56.2455 169.5152,-53.4962 165.5675,-47.7156"/>
</g>
</g>
</svg>
