<?xml version="1.0" encoding="UTF-8" standalone="no"?>
<!DOCTYPE svg PUBLIC "-//W3C//DTD SVG 1.1//EN"
 "http://www.w3.org/Graphics/SVG/1.1/DTD/svg11.dtd">
<!-- Generated by graphviz version 2.40.1 (20161225.0304)
 -->
<!-- Title: Domain/Game/GameHistoryInterface.h Pages: 1 -->
<svg width="499pt" height="151pt"
 viewBox="0.00 0.00 498.50 151.00" xmlns="http://www.w3.org/2000/svg" xmlns:xlink="http://www.w3.org/1999/xlink">
<g id="graph0" class="graph" transform="scale(1 1) rotate(0) translate(4 147)">
<title>Domain/Game/GameHistoryInterface.h</title>
<polygon fill="#ffffff" stroke="transparent" points="-4,4 -4,-147 494.5,-147 494.5,4 -4,4"/>
<!-- Node4 -->
<g id="node1" class="node">
<title>Node4</title>
<polygon fill="#bfbfbf" stroke="#000000" points="165,-123.5 165,-142.5 352,-142.5 352,-123.5 165,-123.5"/>
<text text-anchor="middle" x="258.5" y="-130.5" font-family="Helvetica,sans-Serif" font-size="10.00" fill="#000000">Domain/Game/GameHistoryInterface.h</text>
</g>
<!-- Node5 -->
<g id="node2" class="node">
<title>Node5</title>
<g id="a_node2"><a xlink:href="$GameHistory_8h.html" xlink:title="Domain/Game/GameHistory.h">
<polygon fill="#ffffff" stroke="#000000" points="184,-67.5 184,-86.5 333,-86.5 333,-67.5 184,-67.5"/>
<text text-anchor="middle" x="258.5" y="-74.5" font-family="Helvetica,sans-Serif" font-size="10.00" fill="#000000">Domain/Game/GameHistory.h</text>
</a>
</g>
</g>
<!-- Node4&#45;&gt;Node5 -->
<g id="edge1" class="edge">
<title>Node4&#45;&gt;Node5</title>
<path fill="none" stroke="#191970" d="M258.5,-113.1575C258.5,-104.155 258.5,-93.9199 258.5,-86.6427"/>
<polygon fill="#191970" stroke="#191970" points="255.0001,-113.2455 258.5,-123.2455 262.0001,-113.2456 255.0001,-113.2455"/>
</g>
<!-- Node6 -->
<g id="node3" class="node">
<title>Node6</title>
<g id="a_node3"><a xlink:href="$GameFactory_8cpp.html" xlink:title="Domain/Game/GameFactory.cpp">
<polygon fill="#ffffff" stroke="#000000" points="0,-6 0,-25 161,-25 161,-6 0,-6"/>
<text text-anchor="middle" x="80.5" y="-13" font-family="Helvetica,sans-Serif" font-size="10.00" fill="#000000">Domain/Game/GameFactory.cpp</text>
</a>
</g>
</g>
<!-- Node5&#45;&gt;Node6 -->
<g id="edge2" class="edge">
<title>Node5&#45;&gt;Node6</title>
<path fill="none" stroke="#191970" d="M221.1659,-64.1009C187.4059,-52.4366 138.4736,-35.5302 108.1172,-25.0419"/>
<polygon fill="#191970" stroke="#191970" points="220.0927,-67.433 230.6875,-67.3906 222.3787,-60.8168 220.0927,-67.433"/>
</g>
<!-- Node7 -->
<g id="node4" class="node">
<title>Node7</title>
<g id="a_node4"><a xlink:href="$GameHistory_8cpp.html" xlink:title="Domain/Game/GameHistory.cpp">
<polygon fill="#ffffff" stroke="#000000" points="179,-6 179,-25 338,-25 338,-6 179,-6"/>
<text text-anchor="middle" x="258.5" y="-13" font-family="Helvetica,sans-Serif" font-size="10.00" fill="#000000">Domain/Game/GameHistory.cpp</text>
</a>
</g>
</g>
<!-- Node5&#45;&gt;Node7 -->
<g id="edge3" class="edge">
<title>Node5&#45;&gt;Node7</title>
<path fill="none" stroke="#191970" d="M258.5,-57.2462C258.5,-46.5519 258.5,-33.814 258.5,-25.2449"/>
<polygon fill="#191970" stroke="#191970" points="255.0001,-57.3906 258.5,-67.3906 262.0001,-57.3907 255.0001,-57.3906"/>
</g>
<!-- Node8 -->
<g id="node5" class="node">
<title>Node8</title>
<g id="a_node5"><a xlink:href="$ClientTextUI_8cpp.html" xlink:title="UI/ClientTextUI/ClientText\lUI.cpp">
<polygon fill="#ffffff" stroke="#000000" points="356.5,-.5 356.5,-30.5 490.5,-30.5 490.5,-.5 356.5,-.5"/>
<text text-anchor="start" x="364.5" y="-18.5" font-family="Helvetica,sans-Serif" font-size="10.00" fill="#000000">UI/ClientTextUI/ClientText</text>
<text text-anchor="middle" x="423.5" y="-7.5" font-family="Helvetica,sans-Serif" font-size="10.00" fill="#000000">UI.cpp</text>
</a>
</g>
</g>
<!-- Node5&#45;&gt;Node8 -->
<g id="edge4" class="edge">
<title>Node5&#45;&gt;Node8</title>
<path fill="none" stroke="#191970" d="M293.8191,-63.8356C320.0255,-54.0678 355.7997,-40.7338 383.1365,-30.5446"/>
<polygon fill="#191970" stroke="#191970" points="292.4291,-60.6184 284.2813,-67.3906 294.8739,-67.1776 292.4291,-60.6184"/>
</g>
</g>
</svg>
