<?xml version="1.0" encoding="UTF-8" standalone="no"?>
<!DOCTYPE svg PUBLIC "-//W3C//DTD SVG 1.1//EN"
 "http://www.w3.org/Graphics/SVG/1.1/DTD/svg11.dtd">
<!-- Generated by graphviz version 2.40.1 (20161225.0304)
 -->
<!-- Title: Domain/Game/GameHistory.h Pages: 1 -->
<svg width="320pt" height="151pt"
 viewBox="0.00 0.00 319.50 151.00" xmlns="http://www.w3.org/2000/svg" xmlns:xlink="http://www.w3.org/1999/xlink">
<g id="graph0" class="graph" transform="scale(1 1) rotate(0) translate(4 147)">
<title>Domain/Game/GameHistory.h</title>
<polygon fill="#ffffff" stroke="transparent" points="-4,4 -4,-147 315.5,-147 315.5,4 -4,4"/>
<!-- Node0 -->
<g id="node1" class="node">
<title>Node0</title>
<polygon fill="#bfbfbf" stroke="#000000" points="136,-123.5 136,-142.5 285,-142.5 285,-123.5 136,-123.5"/>
<text text-anchor="middle" x="210.5" y="-130.5" font-family="Helvetica,sans-Serif" font-size="10.00" fill="#000000">Domain/Game/GameHistory.h</text>
</g>
<!-- Node1 -->
<g id="node2" class="node">
<title>Node1</title>
<g id="a_node2"><a xlink:href="$ForwardDeclarations_8h.html" xlink:title="Asteroids/ForwardDeclarations.h">
<polygon fill="#ffffff" stroke="#000000" points="0,-.5 0,-19.5 159,-19.5 159,-.5 0,-.5"/>
<text text-anchor="middle" x="79.5" y="-7.5" font-family="Helvetica,sans-Serif" font-size="10.00" fill="#000000">Asteroids/ForwardDeclarations.h</text>
</a>
</g>
</g>
<!-- Node0&#45;&gt;Node1 -->
<g id="edge1" class="edge">
<title>Node0&#45;&gt;Node1</title>
<path fill="none" stroke="#191970" d="M156.3927,-123.4318C134.1384,-116.8084 109.998,-105.6699 94.5,-87 81.3538,-71.1632 78.5014,-47.1905 78.3707,-30.2066"/>
<polygon fill="#191970" stroke="#191970" points="81.8806,-29.8322 78.622,-19.751 74.8827,-29.664 81.8806,-29.8322"/>
</g>
<!-- Node2 -->
<g id="node3" class="node">
<title>Node2</title>
<g id="a_node3"><a xlink:href="$GameHistoryInterface_8h.html" xlink:title="Asteroids/Domain/Game\l/GameHistoryInterface.h">
<polygon fill="#ffffff" stroke="#000000" points="103.5,-56.5 103.5,-86.5 227.5,-86.5 227.5,-56.5 103.5,-56.5"/>
<text text-anchor="start" x="111.5" y="-74.5" font-family="Helvetica,sans-Serif" font-size="10.00" fill="#000000">Asteroids/Domain/Game</text>
<text text-anchor="middle" x="165.5" y="-63.5" font-family="Helvetica,sans-Serif" font-size="10.00" fill="#000000">/GameHistoryInterface.h</text>
</a>
</g>
</g>
<!-- Node0&#45;&gt;Node2 -->
<g id="edge2" class="edge">
<title>Node0&#45;&gt;Node2</title>
<path fill="none" stroke="#191970" d="M203.4688,-123.3906C197.8861,-115.761 189.8409,-104.7658 182.5918,-94.8588"/>
<polygon fill="#191970" stroke="#191970" points="185.238,-92.5481 176.5082,-86.5446 179.5888,-96.6817 185.238,-92.5481"/>
</g>
<!-- Node3 -->
<g id="node4" class="node">
<title>Node3</title>
<polygon fill="#ffffff" stroke="#bfbfbf" points="183.5,-.5 183.5,-19.5 235.5,-19.5 235.5,-.5 183.5,-.5"/>
<text text-anchor="middle" x="209.5" y="-7.5" font-family="Helvetica,sans-Serif" font-size="10.00" fill="#000000">memory</text>
</g>
<!-- Node0&#45;&gt;Node3 -->
<g id="edge6" class="edge">
<title>Node0&#45;&gt;Node3</title>
<path fill="none" stroke="#191970" d="M217.8819,-123.4183C224.2273,-114.5336 232.9061,-100.6624 236.5,-87 240.005,-73.6755 240.1137,-69.2954 236.5,-56 233.7824,-46.0015 228.2825,-35.9556 222.9516,-27.8139"/>
<polygon fill="#191970" stroke="#191970" points="225.761,-25.7239 217.1619,-19.5346 220.0245,-29.7354 225.761,-25.7239"/>
</g>
<!-- Node4 -->
<g id="node5" class="node">
<title>Node4</title>
<polygon fill="#ffffff" stroke="#bfbfbf" points="267.5,-.5 267.5,-19.5 311.5,-19.5 311.5,-.5 267.5,-.5"/>
<text text-anchor="middle" x="289.5" y="-7.5" font-family="Helvetica,sans-Serif" font-size="10.00" fill="#000000">vector</text>
</g>
<!-- Node0&#45;&gt;Node4 -->
<g id="edge7" class="edge">
<title>Node0&#45;&gt;Node4</title>
<path fill="none" stroke="#191970" d="M220.4535,-123.4171C229.3239,-114.5317 242.2901,-100.66 251.5,-87 264.0102,-68.445 274.9152,-45.1739 281.7958,-29.0981"/>
<polygon fill="#191970" stroke="#191970" points="285.0984,-30.2719 285.7127,-19.6949 278.6365,-27.5802 285.0984,-30.2719"/>
</g>
<!-- Node2&#45;&gt;Node1 -->
<g id="edge3" class="edge">
<title>Node2&#45;&gt;Node1</title>
<path fill="none" stroke="#191970" d="M144.2416,-56.2977C131.2282,-46.9917 114.6097,-35.1075 101.4683,-25.7099"/>
<polygon fill="#191970" stroke="#191970" points="103.1829,-22.6332 93.0129,-19.6633 99.1111,-28.3271 103.1829,-22.6332"/>
</g>
<!-- Node2&#45;&gt;Node3 -->
<g id="edge4" class="edge">
<title>Node2&#45;&gt;Node3</title>
<path fill="none" stroke="#191970" d="M176.3764,-56.2977C182.4841,-47.7609 190.1439,-37.0545 196.5588,-28.0883"/>
<polygon fill="#191970" stroke="#191970" points="199.4829,-30.0163 202.455,-19.8469 193.7899,-25.9433 199.4829,-30.0163"/>
</g>
<!-- Node2&#45;&gt;Node4 -->
<g id="edge5" class="edge">
<title>Node2&#45;&gt;Node4</title>
<path fill="none" stroke="#191970" d="M195.8338,-56.4554C215.7976,-46.554 241.749,-33.683 261.2715,-24.0004"/>
<polygon fill="#191970" stroke="#191970" points="262.8809,-27.1091 270.2844,-19.5303 259.7706,-20.838 262.8809,-27.1091"/>
</g>
</g>
</svg>
