<?xml version="1.0" encoding="UTF-8" standalone="no"?>
<!DOCTYPE svg PUBLIC "-//W3C//DTD SVG 1.1//EN"
 "http://www.w3.org/Graphics/SVG/1.1/DTD/svg11.dtd">
<!-- Generated by graphviz version 2.40.1 (20161225.0304)
 -->
<!-- Title: Domain/Game/GAME_HISTORY_ENTRY_INTERFACE.h Pages: 1 -->
<svg width="411pt" height="173pt"
 viewBox="0.00 0.00 411.00 173.00" xmlns="http://www.w3.org/2000/svg" xmlns:xlink="http://www.w3.org/1999/xlink">
<g id="graph0" class="graph" transform="scale(1 1) rotate(0) translate(4 169)">
<title>Domain/Game/GAME_HISTORY_ENTRY_INTERFACE.h</title>
<polygon fill="#ffffff" stroke="transparent" points="-4,4 -4,-169 407,-169 407,4 -4,4"/>
<!-- Node3 -->
<g id="node1" class="node">
<title>Node3</title>
<polygon fill="#bfbfbf" stroke="#000000" points="172,-134.5 172,-164.5 334,-164.5 334,-134.5 172,-134.5"/>
<text text-anchor="start" x="180" y="-152.5" font-family="Helvetica,sans-Serif" font-size="10.00" fill="#000000">Domain/Game/GAME_HISTORY</text>
<text text-anchor="middle" x="253" y="-141.5" font-family="Helvetica,sans-Serif" font-size="10.00" fill="#000000">_ENTRY_INTERFACE.h</text>
</g>
<!-- Node4 -->
<g id="node2" class="node">
<title>Node4</title>
<g id="a_node2"><a xlink:href="$GAME__HISTORY__ENTRY_8h.html" xlink:title="Domain/Game/GAME_HISTORY\l_ENTRY.h">
<polygon fill="#ffffff" stroke="#000000" points="89,-67.5 89,-97.5 251,-97.5 251,-67.5 89,-67.5"/>
<text text-anchor="start" x="97" y="-85.5" font-family="Helvetica,sans-Serif" font-size="10.00" fill="#000000">Domain/Game/GAME_HISTORY</text>
<text text-anchor="middle" x="170" y="-74.5" font-family="Helvetica,sans-Serif" font-size="10.00" fill="#000000">_ENTRY.h</text>
</a>
</g>
</g>
<!-- Node3&#45;&gt;Node4 -->
<g id="edge1" class="edge">
<title>Node3&#45;&gt;Node4</title>
<path fill="none" stroke="#191970" d="M226.0942,-127.7808C213.9012,-117.9383 199.7821,-106.541 188.7595,-97.6432"/>
<polygon fill="#191970" stroke="#191970" points="224.1864,-130.7389 234.166,-134.2967 228.5832,-125.292 224.1864,-130.7389"/>
</g>
<!-- Node7 -->
<g id="node5" class="node">
<title>Node7</title>
<g id="a_node5"><a xlink:href="$ClientTextUI_8cpp.html" xlink:title="UI/ClientTextUI/ClientText\lUI.cpp">
<polygon fill="#ffffff" stroke="#000000" points="269,-67.5 269,-97.5 403,-97.5 403,-67.5 269,-67.5"/>
<text text-anchor="start" x="277" y="-85.5" font-family="Helvetica,sans-Serif" font-size="10.00" fill="#000000">UI/ClientTextUI/ClientText</text>
<text text-anchor="middle" x="336" y="-74.5" font-family="Helvetica,sans-Serif" font-size="10.00" fill="#000000">UI.cpp</text>
</a>
</g>
</g>
<!-- Node3&#45;&gt;Node7 -->
<g id="edge4" class="edge">
<title>Node3&#45;&gt;Node7</title>
<path fill="none" stroke="#191970" d="M279.9058,-127.7808C292.0988,-117.9383 306.2179,-106.541 317.2405,-97.6432"/>
<polygon fill="#191970" stroke="#191970" points="277.4168,-125.292 271.834,-134.2967 281.8136,-130.7389 277.4168,-125.292"/>
</g>
<!-- Node5 -->
<g id="node3" class="node">
<title>Node5</title>
<g id="a_node3"><a xlink:href="$GAME__HISTORY__ENTRY_8cpp.html" xlink:title="Domain/Game/GAME_HISTORY\l_ENTRY.cpp">
<polygon fill="#ffffff" stroke="#000000" points="0,-.5 0,-30.5 162,-30.5 162,-.5 0,-.5"/>
<text text-anchor="start" x="8" y="-18.5" font-family="Helvetica,sans-Serif" font-size="10.00" fill="#000000">Domain/Game/GAME_HISTORY</text>
<text text-anchor="middle" x="81" y="-7.5" font-family="Helvetica,sans-Serif" font-size="10.00" fill="#000000">_ENTRY.cpp</text>
</a>
</g>
</g>
<!-- Node4&#45;&gt;Node5 -->
<g id="edge2" class="edge">
<title>Node4&#45;&gt;Node5</title>
<path fill="none" stroke="#191970" d="M141.5257,-61.0643C128.3662,-51.1577 113.0487,-39.6265 101.1156,-30.6432"/>
<polygon fill="#191970" stroke="#191970" points="139.7103,-64.0785 149.8045,-67.2967 143.9203,-58.486 139.7103,-64.0785"/>
</g>
<!-- Node6 -->
<g id="node4" class="node">
<title>Node6</title>
<g id="a_node4"><a xlink:href="$GameHistory_8cpp.html" xlink:title="Domain/Game/GameHistory.cpp">
<polygon fill="#ffffff" stroke="#000000" points="180.5,-6 180.5,-25 339.5,-25 339.5,-6 180.5,-6"/>
<text text-anchor="middle" x="260" y="-13" font-family="Helvetica,sans-Serif" font-size="10.00" fill="#000000">Domain/Game/GameHistory.cpp</text>
</a>
</g>
</g>
<!-- Node4&#45;&gt;Node6 -->
<g id="edge3" class="edge">
<title>Node4&#45;&gt;Node6</title>
<path fill="none" stroke="#191970" d="M198.5962,-61.2117C214.9132,-49.0646 234.5638,-34.4358 247.165,-25.055"/>
<polygon fill="#191970" stroke="#191970" points="196.3537,-58.5177 190.4224,-67.2967 200.5338,-64.1327 196.3537,-58.5177"/>
</g>
</g>
</svg>
