<?xml version="1.0" encoding="UTF-8" standalone="no"?>
<!DOCTYPE svg PUBLIC "-//W3C//DTD SVG 1.1//EN"
 "http://www.w3.org/Graphics/SVG/1.1/DTD/svg11.dtd">
<!-- Generated by graphviz version 2.40.1 (20161225.0304)
 -->
<!-- Title: Domain/Game/GAME_HISTORY_ENTRY.h Pages: 1 -->
<svg width="348pt" height="106pt"
 viewBox="0.00 0.00 347.50 106.00" xmlns="http://www.w3.org/2000/svg" xmlns:xlink="http://www.w3.org/1999/xlink">
<g id="graph0" class="graph" transform="scale(1 1) rotate(0) translate(4 102)">
<title>Domain/Game/GAME_HISTORY_ENTRY.h</title>
<polygon fill="#ffffff" stroke="transparent" points="-4,4 -4,-102 343.5,-102 343.5,4 -4,4"/>
<!-- Node4 -->
<g id="node1" class="node">
<title>Node4</title>
<polygon fill="#bfbfbf" stroke="#000000" points="89,-67.5 89,-97.5 251,-97.5 251,-67.5 89,-67.5"/>
<text text-anchor="start" x="97" y="-85.5" font-family="Helvetica,sans-Serif" font-size="10.00" fill="#000000">Domain/Game/GAME_HISTORY</text>
<text text-anchor="middle" x="170" y="-74.5" font-family="Helvetica,sans-Serif" font-size="10.00" fill="#000000">_ENTRY.h</text>
</g>
<!-- Node5 -->
<g id="node2" class="node">
<title>Node5</title>
<g id="a_node2"><a xlink:href="$GAME__HISTORY__ENTRY_8cpp.html" xlink:title="Domain/Game/GAME_HISTORY\l_ENTRY.cpp">
<polygon fill="#ffffff" stroke="#000000" points="0,-.5 0,-30.5 162,-30.5 162,-.5 0,-.5"/>
<text text-anchor="start" x="8" y="-18.5" font-family="Helvetica,sans-Serif" font-size="10.00" fill="#000000">Domain/Game/GAME_HISTORY</text>
<text text-anchor="middle" x="81" y="-7.5" font-family="Helvetica,sans-Serif" font-size="10.00" fill="#000000">_ENTRY.cpp</text>
</a>
</g>
</g>
<!-- Node4&#45;&gt;Node5 -->
<g id="edge1" class="edge">
<title>Node4&#45;&gt;Node5</title>
<path fill="none" stroke="#191970" d="M141.5257,-61.0643C128.3662,-51.1577 113.0487,-39.6265 101.1156,-30.6432"/>
<polygon fill="#191970" stroke="#191970" points="139.7103,-64.0785 149.8045,-67.2967 143.9203,-58.486 139.7103,-64.0785"/>
</g>
<!-- Node6 -->
<g id="node3" class="node">
<title>Node6</title>
<g id="a_node3"><a xlink:href="$GameHistory_8cpp.html" xlink:title="Domain/Game/GameHistory.cpp">
<polygon fill="#ffffff" stroke="#000000" points="180.5,-6 180.5,-25 339.5,-25 339.5,-6 180.5,-6"/>
<text text-anchor="middle" x="260" y="-13" font-family="Helvetica,sans-Serif" font-size="10.00" fill="#000000">Domain/Game/GameHistory.cpp</text>
</a>
</g>
</g>
<!-- Node4&#45;&gt;Node6 -->
<g id="edge2" class="edge">
<title>Node4&#45;&gt;Node6</title>
<path fill="none" stroke="#191970" d="M198.5962,-61.2117C214.9132,-49.0646 234.5638,-34.4358 247.165,-25.055"/>
<polygon fill="#191970" stroke="#191970" points="196.3537,-58.5177 190.4224,-67.2967 200.5338,-64.1327 196.3537,-58.5177"/>
</g>
</g>
</svg>
