<?xml version="1.0" encoding="UTF-8" standalone="no"?>
<!DOCTYPE svg PUBLIC "-//W3C//DTD SVG 1.1//EN"
 "http://www.w3.org/Graphics/SVG/1.1/DTD/svg11.dtd">
<!-- Generated by graphviz version 2.40.1 (20161225.0304)
 -->
<!-- Title: Domain/Server/HACCS_REPORT_ACTIVITY.cpp Pages: 1 -->
<svg width="249pt" height="240pt"
 viewBox="0.00 0.00 249.00 240.00" xmlns="http://www.w3.org/2000/svg" xmlns:xlink="http://www.w3.org/1999/xlink">
<g id="graph0" class="graph" transform="scale(1 1) rotate(0) translate(4 236)">
<title>Domain/Server/HACCS_REPORT_ACTIVITY.cpp</title>
<polygon fill="#ffffff" stroke="transparent" points="-4,4 -4,-236 245,-236 245,4 -4,4"/>
<!-- Node0 -->
<g id="node1" class="node">
<title>Node0</title>
<polygon fill="#bfbfbf" stroke="#000000" points="71.5,-201.5 71.5,-231.5 205.5,-231.5 205.5,-201.5 71.5,-201.5"/>
<text text-anchor="start" x="79.5" y="-219.5" font-family="Helvetica,sans-Serif" font-size="10.00" fill="#000000">Domain/Server/HACCS</text>
<text text-anchor="middle" x="138.5" y="-208.5" font-family="Helvetica,sans-Serif" font-size="10.00" fill="#000000">_REPORT_ACTIVITY.cpp</text>
</g>
<!-- Node1 -->
<g id="node2" class="node">
<title>Node1</title>
<g id="a_node2"><a xlink:href="$HACCS__REPORT__ACTIVITY_8h.html" xlink:title="Asteroids/Domain/Server\l/HACCS_REPORT_ACTIVITY.h">
<polygon fill="#ffffff" stroke="#000000" points="57.5,-134.5 57.5,-164.5 219.5,-164.5 219.5,-134.5 57.5,-134.5"/>
<text text-anchor="start" x="65.5" y="-152.5" font-family="Helvetica,sans-Serif" font-size="10.00" fill="#000000">Asteroids/Domain/Server</text>
<text text-anchor="middle" x="138.5" y="-141.5" font-family="Helvetica,sans-Serif" font-size="10.00" fill="#000000">/HACCS_REPORT_ACTIVITY.h</text>
</a>
</g>
</g>
<!-- Node0&#45;&gt;Node1 -->
<g id="edge1" class="edge">
<title>Node0&#45;&gt;Node1</title>
<path fill="none" stroke="#191970" d="M138.5,-201.2967C138.5,-193.5013 138.5,-183.7991 138.5,-174.9064"/>
<polygon fill="#191970" stroke="#191970" points="142.0001,-174.6431 138.5,-164.6432 135.0001,-174.6432 142.0001,-174.6431"/>
</g>
<!-- Node2 -->
<g id="node3" class="node">
<title>Node2</title>
<g id="a_node3"><a xlink:href="$ForwardDeclarations_8h.html" xlink:title="Asteroids/ForwardDeclarations.h">
<polygon fill="#ffffff" stroke="#000000" points="0,-.5 0,-19.5 159,-19.5 159,-.5 0,-.5"/>
<text text-anchor="middle" x="79.5" y="-7.5" font-family="Helvetica,sans-Serif" font-size="10.00" fill="#000000">Asteroids/ForwardDeclarations.h</text>
</a>
</g>
</g>
<!-- Node1&#45;&gt;Node2 -->
<g id="edge2" class="edge">
<title>Node1&#45;&gt;Node2</title>
<path fill="none" stroke="#191970" d="M95.2481,-134.3832C78.8324,-126.2891 61.8532,-114.503 52.5,-98 39.7599,-75.5211 53.8825,-46.3342 66.018,-27.8792"/>
<polygon fill="#191970" stroke="#191970" points="68.9955,-29.7288 71.8596,-19.5284 63.2596,-25.7164 68.9955,-29.7288"/>
</g>
<!-- Node3 -->
<g id="node4" class="node">
<title>Node3</title>
<g id="a_node4"><a xlink:href="$HACCS__REPORT__ACTIVITY__INTERFACE_8h.html" xlink:title="Asteroids/Domain/Server\l/HACCS_REPORT_ACTIVITY\l_INTERFACE.h">
<polygon fill="#ffffff" stroke="#000000" points="61.5,-56.5 61.5,-97.5 215.5,-97.5 215.5,-56.5 61.5,-56.5"/>
<text text-anchor="start" x="69.5" y="-85.5" font-family="Helvetica,sans-Serif" font-size="10.00" fill="#000000">Asteroids/Domain/Server</text>
<text text-anchor="start" x="69.5" y="-74.5" font-family="Helvetica,sans-Serif" font-size="10.00" fill="#000000">/HACCS_REPORT_ACTIVITY</text>
<text text-anchor="middle" x="138.5" y="-63.5" font-family="Helvetica,sans-Serif" font-size="10.00" fill="#000000">_INTERFACE.h</text>
</a>
</g>
</g>
<!-- Node1&#45;&gt;Node3 -->
<g id="edge3" class="edge">
<title>Node1&#45;&gt;Node3</title>
<path fill="none" stroke="#191970" d="M138.5,-134.478C138.5,-126.7032 138.5,-116.9168 138.5,-107.634"/>
<polygon fill="#191970" stroke="#191970" points="142.0001,-107.5015 138.5,-97.5015 135.0001,-107.5015 142.0001,-107.5015"/>
</g>
<!-- Node4 -->
<g id="node5" class="node">
<title>Node4</title>
<polygon fill="#ffffff" stroke="#bfbfbf" points="200,-.5 200,-19.5 241,-19.5 241,-.5 200,-.5"/>
<text text-anchor="middle" x="220.5" y="-7.5" font-family="Helvetica,sans-Serif" font-size="10.00" fill="#000000">string</text>
</g>
<!-- Node1&#45;&gt;Node4 -->
<g id="edge6" class="edge">
<title>Node1&#45;&gt;Node4</title>
<path fill="none" stroke="#191970" d="M181.7519,-134.3832C198.1676,-126.2891 215.1468,-114.503 224.5,-98 236.4139,-76.9788 232.0988,-48.3867 227.0485,-29.5751"/>
<polygon fill="#191970" stroke="#191970" points="230.3307,-28.3349 224.1072,-19.7606 223.6253,-30.3444 230.3307,-28.3349"/>
</g>
<!-- Node3&#45;&gt;Node2 -->
<g id="edge4" class="edge">
<title>Node3&#45;&gt;Node2</title>
<path fill="none" stroke="#191970" d="M120.1554,-56.168C112.0549,-46.9691 102.6382,-36.2756 94.9086,-27.4979"/>
<polygon fill="#191970" stroke="#191970" points="97.3482,-24.9723 88.1127,-19.7805 92.0948,-29.5985 97.3482,-24.9723"/>
</g>
<!-- Node3&#45;&gt;Node4 -->
<g id="edge5" class="edge">
<title>Node3&#45;&gt;Node4</title>
<path fill="none" stroke="#191970" d="M163.9958,-56.168C175.8346,-46.4949 189.6959,-35.1692 200.7267,-26.1562"/>
<polygon fill="#191970" stroke="#191970" points="203.0006,-28.8181 208.5299,-19.7805 198.5715,-23.3974 203.0006,-28.8181"/>
</g>
</g>
</svg>
