<?xml version="1.0" encoding="UTF-8" standalone="no"?>
<!DOCTYPE svg PUBLIC "-//W3C//DTD SVG 1.1//EN"
 "http://www.w3.org/Graphics/SVG/1.1/DTD/svg11.dtd">
<!-- Generated by graphviz version 2.40.1 (20161225.0304)
 -->
<!-- Title: Domain/Server/HACCS_REPORT.h Pages: 1 -->
<svg width="368pt" height="162pt"
 viewBox="0.00 0.00 367.50 162.00" xmlns="http://www.w3.org/2000/svg" xmlns:xlink="http://www.w3.org/1999/xlink">
<g id="graph0" class="graph" transform="scale(1 1) rotate(0) translate(4 158)">
<title>Domain/Server/HACCS_REPORT.h</title>
<polygon fill="#ffffff" stroke="transparent" points="-4,4 -4,-158 363.5,-158 363.5,4 -4,4"/>
<!-- Node0 -->
<g id="node1" class="node">
<title>Node0</title>
<polygon fill="#bfbfbf" stroke="#000000" points="114,-123.5 114,-153.5 235,-153.5 235,-123.5 114,-123.5"/>
<text text-anchor="start" x="122" y="-141.5" font-family="Helvetica,sans-Serif" font-size="10.00" fill="#000000">Domain/Server/HACCS</text>
<text text-anchor="middle" x="174.5" y="-130.5" font-family="Helvetica,sans-Serif" font-size="10.00" fill="#000000">_REPORT.h</text>
</g>
<!-- Node1 -->
<g id="node2" class="node">
<title>Node1</title>
<g id="a_node2"><a xlink:href="$ForwardDeclarations_8h.html" xlink:title="Asteroids/ForwardDeclarations.h">
<polygon fill="#ffffff" stroke="#000000" points="0,-.5 0,-19.5 159,-19.5 159,-.5 0,-.5"/>
<text text-anchor="middle" x="79.5" y="-7.5" font-family="Helvetica,sans-Serif" font-size="10.00" fill="#000000">Asteroids/ForwardDeclarations.h</text>
</a>
</g>
</g>
<!-- Node0&#45;&gt;Node1 -->
<g id="edge1" class="edge">
<title>Node0&#45;&gt;Node1</title>
<path fill="none" stroke="#191970" d="M159.7215,-123.2865C150.3438,-113.3189 138.1949,-99.809 128.5,-87 114.0872,-67.9576 99.6609,-44.6476 90.2328,-28.6956"/>
<polygon fill="#191970" stroke="#191970" points="93.1158,-26.6915 85.0532,-19.818 87.0696,-30.2192 93.1158,-26.6915"/>
</g>
<!-- Node2 -->
<g id="node3" class="node">
<title>Node2</title>
<g id="a_node3"><a xlink:href="$HACCS__REPORT__INTERFACE_8h.html" xlink:title="Asteroids/Domain/Server\l/HACCS_REPORT_INTERFACE.h">
<polygon fill="#ffffff" stroke="#000000" points="145.5,-56.5 145.5,-86.5 319.5,-86.5 319.5,-56.5 145.5,-56.5"/>
<text text-anchor="start" x="153.5" y="-74.5" font-family="Helvetica,sans-Serif" font-size="10.00" fill="#000000">Asteroids/Domain/Server</text>
<text text-anchor="middle" x="232.5" y="-63.5" font-family="Helvetica,sans-Serif" font-size="10.00" fill="#000000">/HACCS_REPORT_INTERFACE.h</text>
</a>
</g>
</g>
<!-- Node0&#45;&gt;Node2 -->
<g id="edge2" class="edge">
<title>Node0&#45;&gt;Node2</title>
<path fill="none" stroke="#191970" d="M187.6611,-123.2967C195.0768,-114.7303 204.4857,-103.8614 212.7677,-94.2943"/>
<polygon fill="#191970" stroke="#191970" points="215.4922,-96.4946 219.391,-86.6432 210.1997,-91.913 215.4922,-96.4946"/>
</g>
<!-- Node3 -->
<g id="node4" class="node">
<title>Node3</title>
<polygon fill="#ffffff" stroke="#bfbfbf" points="177,-.5 177,-19.5 218,-19.5 218,-.5 177,-.5"/>
<text text-anchor="middle" x="197.5" y="-7.5" font-family="Helvetica,sans-Serif" font-size="10.00" fill="#000000">string</text>
</g>
<!-- Node0&#45;&gt;Node3 -->
<g id="edge7" class="edge">
<title>Node0&#45;&gt;Node3</title>
<path fill="none" stroke="#191970" d="M159.1094,-123.4653C144.0351,-106.8282 124.8943,-79.2875 136.5,-56 143.1946,-42.5668 155.8891,-32.0216 167.9713,-24.4358"/>
<polygon fill="#191970" stroke="#191970" points="170.0854,-27.256 176.9819,-19.213 166.575,-21.1998 170.0854,-27.256"/>
</g>
<!-- Node4 -->
<g id="node5" class="node">
<title>Node4</title>
<polygon fill="#ffffff" stroke="#bfbfbf" points="315.5,-.5 315.5,-19.5 359.5,-19.5 359.5,-.5 315.5,-.5"/>
<text text-anchor="middle" x="337.5" y="-7.5" font-family="Helvetica,sans-Serif" font-size="10.00" fill="#000000">vector</text>
</g>
<!-- Node0&#45;&gt;Node4 -->
<g id="edge8" class="edge">
<title>Node0&#45;&gt;Node4</title>
<path fill="none" stroke="#191970" d="M235.0882,-125.2815C272.7597,-115.7842 316.2796,-102.0436 328.5,-87 341.5176,-70.975 342.166,-46.5075 340.5948,-29.469"/>
<polygon fill="#191970" stroke="#191970" points="344.0632,-28.997 339.3495,-19.5085 337.1172,-29.8655 344.0632,-28.997"/>
</g>
<!-- Node2&#45;&gt;Node1 -->
<g id="edge3" class="edge">
<title>Node2&#45;&gt;Node1</title>
<path fill="none" stroke="#191970" d="M195.072,-56.4554C169.8794,-46.329 136.9593,-33.0964 112.7004,-23.3453"/>
<polygon fill="#191970" stroke="#191970" points="113.7934,-20.0125 103.2096,-19.5303 111.1827,-26.5074 113.7934,-20.0125"/>
</g>
<!-- Node2&#45;&gt;Node3 -->
<g id="edge4" class="edge">
<title>Node2&#45;&gt;Node3</title>
<path fill="none" stroke="#191970" d="M223.8483,-56.2977C219.0912,-47.9388 213.1502,-37.4997 208.1143,-28.6509"/>
<polygon fill="#191970" stroke="#191970" points="211.0921,-26.8069 203.1039,-19.8469 205.0083,-30.2692 211.0921,-26.8069"/>
</g>
<!-- Node2&#45;&gt;Node4 -->
<g id="edge5" class="edge">
<title>Node2&#45;&gt;Node4</title>
<path fill="none" stroke="#191970" d="M258.1859,-56.4554C274.6297,-46.8241 295.8708,-34.3828 312.2323,-24.7996"/>
<polygon fill="#191970" stroke="#191970" points="314.3688,-27.6045 321.2287,-19.5303 310.831,-21.5643 314.3688,-27.6045"/>
</g>
<!-- Node5 -->
<g id="node6" class="node">
<title>Node5</title>
<polygon fill="#ffffff" stroke="#bfbfbf" points="236.5,-.5 236.5,-19.5 288.5,-19.5 288.5,-.5 236.5,-.5"/>
<text text-anchor="middle" x="262.5" y="-7.5" font-family="Helvetica,sans-Serif" font-size="10.00" fill="#000000">memory</text>
</g>
<!-- Node2&#45;&gt;Node5 -->
<g id="edge6" class="edge">
<title>Node2&#45;&gt;Node5</title>
<path fill="none" stroke="#191970" d="M239.9157,-56.2977C243.9499,-48.0277 248.9773,-37.7215 253.264,-28.9339"/>
<polygon fill="#191970" stroke="#191970" points="256.458,-30.3691 257.6966,-19.8469 250.1666,-27.3001 256.458,-30.3691"/>
</g>
</g>
</svg>
