<?xml version="1.0" encoding="UTF-8" standalone="no"?>
<!DOCTYPE svg PUBLIC "-//W3C//DTD SVG 1.1//EN"
 "http://www.w3.org/Graphics/SVG/1.1/DTD/svg11.dtd">
<!-- Generated by graphviz version 2.40.1 (20161225.0304)
 -->
<!-- Title: main Pages: 1 -->
<svg width="228pt" height="88pt"
 viewBox="0.00 0.00 228.00 88.00" xmlns="http://www.w3.org/2000/svg" xmlns:xlink="http://www.w3.org/1999/xlink">
<g id="graph0" class="graph" transform="scale(1 1) rotate(0) translate(4 84)">
<title>main</title>
<polygon fill="#ffffff" stroke="transparent" points="-4,4 -4,-84 224,-84 224,4 -4,4"/>
<!-- Node0 -->
<g id="node1" class="node">
<title>Node0</title>
<polygon fill="#bfbfbf" stroke="#000000" points="0,-30 0,-49 38,-49 38,-30 0,-30"/>
<text text-anchor="middle" x="19" y="-37" font-family="Helvetica,sans-Serif" font-size="10.00" fill="#000000">main</text>
</g>
<!-- Node1 -->
<g id="node2" class="node">
<title>Node1</title>
<g id="a_node2"><a xlink:href="$classAsteroids_1_1UI_1_1UIFactoryInterface.html#a6133ee6b7552c1f218df3e51aed91c74" xlink:title="Asteroids::UI::UIFactory\lInterface::createClientTextUI">
<polygon fill="#ffffff" stroke="#000000" points="75.5,-49.5 75.5,-79.5 218.5,-79.5 218.5,-49.5 75.5,-49.5"/>
<text text-anchor="start" x="83.5" y="-67.5" font-family="Helvetica,sans-Serif" font-size="10.00" fill="#000000">Asteroids::UI::UIFactory</text>
<text text-anchor="middle" x="147" y="-56.5" font-family="Helvetica,sans-Serif" font-size="10.00" fill="#000000">Interface::createClientTextUI</text>
</a>
</g>
</g>
<!-- Node0&#45;&gt;Node1 -->
<g id="edge1" class="edge">
<title>Node0&#45;&gt;Node1</title>
<path fill="none" stroke="#191970" d="M38.1629,-43.2428C45.8792,-44.7498 55.3429,-46.5982 65.4385,-48.57"/>
<polygon fill="#191970" stroke="#191970" points="64.7896,-52.0093 75.2751,-50.4912 66.1315,-45.1391 64.7896,-52.0093"/>
</g>
<!-- Node2 -->
<g id="node3" class="node">
<title>Node2</title>
<g id="a_node3"><a xlink:href="$classAsteroids_1_1UI_1_1ClientTextUI_1_1ClientTextUIInterface.html#a9eba8946cd9262221e8b55cea4acd92d" xlink:title="Asteroids::UI::ClientText\lUI::ClientTextUIInterface::run">
<polygon fill="#ffffff" stroke="#000000" points="74,-.5 74,-30.5 220,-30.5 220,-.5 74,-.5"/>
<text text-anchor="start" x="82" y="-18.5" font-family="Helvetica,sans-Serif" font-size="10.00" fill="#000000">Asteroids::UI::ClientText</text>
<text text-anchor="middle" x="147" y="-7.5" font-family="Helvetica,sans-Serif" font-size="10.00" fill="#000000">UI::ClientTextUIInterface::run</text>
</a>
</g>
</g>
<!-- Node0&#45;&gt;Node2 -->
<g id="edge2" class="edge">
<title>Node0&#45;&gt;Node2</title>
<path fill="none" stroke="#191970" d="M38.1629,-35.907C45.4612,-34.5385 54.3229,-32.877 63.804,-31.0993"/>
<polygon fill="#191970" stroke="#191970" points="64.6852,-34.4951 73.8689,-29.2121 63.3951,-27.615 64.6852,-34.4951"/>
</g>
</g>
</svg>
