<?xml version="1.0" encoding="UTF-8" standalone="no"?>
<!DOCTYPE svg PUBLIC "-//W3C//DTD SVG 1.1//EN"
 "http://www.w3.org/Graphics/SVG/1.1/DTD/svg11.dtd">
<!-- Generated by graphviz version 2.40.1 (20161225.0304)
 -->
<!-- Title: TechnicalServices/Financial/MastercardProcessor.h Pages: 1 -->
<svg width="311pt" height="162pt"
 viewBox="0.00 0.00 310.50 162.00" xmlns="http://www.w3.org/2000/svg" xmlns:xlink="http://www.w3.org/1999/xlink">
<g id="graph0" class="graph" transform="scale(1 1) rotate(0) translate(4 158)">
<title>TechnicalServices/Financial/MastercardProcessor.h</title>
<polygon fill="#ffffff" stroke="transparent" points="-4,4 -4,-158 306.5,-158 306.5,4 -4,4"/>
<!-- Node0 -->
<g id="node1" class="node">
<title>Node0</title>
<polygon fill="#bfbfbf" stroke="#000000" points="69,-123.5 69,-153.5 208,-153.5 208,-123.5 69,-123.5"/>
<text text-anchor="start" x="77" y="-141.5" font-family="Helvetica,sans-Serif" font-size="10.00" fill="#000000">TechnicalServices/Financial</text>
<text text-anchor="middle" x="138.5" y="-130.5" font-family="Helvetica,sans-Serif" font-size="10.00" fill="#000000">/MastercardProcessor.h</text>
</g>
<!-- Node1 -->
<g id="node2" class="node">
<title>Node1</title>
<g id="a_node2"><a xlink:href="$ForwardDeclarations_8h.html" xlink:title="Asteroids/ForwardDeclarations.h">
<polygon fill="#ffffff" stroke="#000000" points="0,-.5 0,-19.5 159,-19.5 159,-.5 0,-.5"/>
<text text-anchor="middle" x="79.5" y="-7.5" font-family="Helvetica,sans-Serif" font-size="10.00" fill="#000000">Asteroids/ForwardDeclarations.h</text>
</a>
</g>
</g>
<!-- Node0&#45;&gt;Node1 -->
<g id="edge1" class="edge">
<title>Node0&#45;&gt;Node1</title>
<path fill="none" stroke="#191970" d="M121.3964,-123.4592C111.6995,-113.9686 100.1999,-100.9054 93.5,-87 84.7677,-68.8764 81.4532,-45.9597 80.2106,-29.8569"/>
<polygon fill="#191970" stroke="#191970" points="83.6841,-29.2877 79.6242,-19.5017 76.6953,-29.6836 83.6841,-29.2877"/>
</g>
<!-- Node2 -->
<g id="node3" class="node">
<title>Node2</title>
<g id="a_node3"><a xlink:href="$CreditCardProcessorInterface_8h.html" xlink:title="Asteroids/TechnicalServices\l/Financial/CreditCardProcessorInterface.h">
<polygon fill="#ffffff" stroke="#000000" points="102.5,-56.5 102.5,-86.5 302.5,-86.5 302.5,-56.5 102.5,-56.5"/>
<text text-anchor="start" x="110.5" y="-74.5" font-family="Helvetica,sans-Serif" font-size="10.00" fill="#000000">Asteroids/TechnicalServices</text>
<text text-anchor="middle" x="202.5" y="-63.5" font-family="Helvetica,sans-Serif" font-size="10.00" fill="#000000">/Financial/CreditCardProcessorInterface.h</text>
</a>
</g>
</g>
<!-- Node0&#45;&gt;Node2 -->
<g id="edge2" class="edge">
<title>Node0&#45;&gt;Node2</title>
<path fill="none" stroke="#191970" d="M153.0226,-123.2967C161.2872,-114.6446 171.7955,-103.6438 181.0002,-94.0076"/>
<polygon fill="#191970" stroke="#191970" points="183.6584,-96.2919 188.0349,-86.6432 178.5966,-91.4567 183.6584,-96.2919"/>
</g>
<!-- Node2&#45;&gt;Node1 -->
<g id="edge3" class="edge">
<title>Node2&#45;&gt;Node1</title>
<path fill="none" stroke="#191970" d="M172.4108,-56.4554C152.6981,-46.599 127.0998,-33.7999 107.7653,-24.1327"/>
<polygon fill="#191970" stroke="#191970" points="109.0702,-20.872 98.5606,-19.5303 105.9397,-27.133 109.0702,-20.872"/>
</g>
<!-- Node3 -->
<g id="node4" class="node">
<title>Node3</title>
<polygon fill="#ffffff" stroke="#bfbfbf" points="182,-.5 182,-19.5 223,-19.5 223,-.5 182,-.5"/>
<text text-anchor="middle" x="202.5" y="-7.5" font-family="Helvetica,sans-Serif" font-size="10.00" fill="#000000">string</text>
</g>
<!-- Node2&#45;&gt;Node3 -->
<g id="edge4" class="edge">
<title>Node2&#45;&gt;Node3</title>
<path fill="none" stroke="#191970" d="M202.5,-56.2977C202.5,-48.3834 202.5,-38.6043 202.5,-30.0759"/>
<polygon fill="#191970" stroke="#191970" points="206.0001,-29.8469 202.5,-19.8469 199.0001,-29.847 206.0001,-29.8469"/>
</g>
</g>
</svg>
