<?xml version="1.0" encoding="UTF-8" standalone="no"?>
<!DOCTYPE svg PUBLIC "-//W3C//DTD SVG 1.1//EN"
 "http://www.w3.org/Graphics/SVG/1.1/DTD/svg11.dtd">
<!-- Generated by graphviz version 2.40.1 (20161225.0304)
 -->
<!-- Title: Domain/Net/NetFactory.h Pages: 1 -->
<svg width="648pt" height="229pt"
 viewBox="0.00 0.00 647.64 229.00" xmlns="http://www.w3.org/2000/svg" xmlns:xlink="http://www.w3.org/1999/xlink">
<g id="graph0" class="graph" transform="scale(1 1) rotate(0) translate(4 225)">
<title>Domain/Net/NetFactory.h</title>
<polygon fill="#ffffff" stroke="transparent" points="-4,4 -4,-225 643.6436,-225 643.6436,4 -4,4"/>
<!-- Node0 -->
<g id="node1" class="node">
<title>Node0</title>
<polygon fill="#bfbfbf" stroke="#000000" points="284.0338,-201.5 284.0338,-220.5 413.0338,-220.5 413.0338,-201.5 284.0338,-201.5"/>
<text text-anchor="middle" x="348.5338" y="-208.5" font-family="Helvetica,sans-Serif" font-size="10.00" fill="#000000">Domain/Net/NetFactory.h</text>
</g>
<!-- Node1 -->
<g id="node2" class="node">
<title>Node1</title>
<g id="a_node2"><a xlink:href="$ForwardDeclarations_8h.html" xlink:title="Asteroids/ForwardDeclarations.h">
<polygon fill="#ffffff" stroke="#000000" points="15.0338,-.5 15.0338,-19.5 174.0338,-19.5 174.0338,-.5 15.0338,-.5"/>
<text text-anchor="middle" x="94.5338" y="-7.5" font-family="Helvetica,sans-Serif" font-size="10.00" fill="#000000">Asteroids/ForwardDeclarations.h</text>
</a>
</g>
</g>
<!-- Node0&#45;&gt;Node1 -->
<g id="edge1" class="edge">
<title>Node0&#45;&gt;Node1</title>
<path fill="none" stroke="#191970" d="M283.9974,-205.0514C214.2251,-197.7826 108.2037,-184.0558 72.5338,-165 23.1809,-138.6343 -19.1082,-104.0677 9.5338,-56 18.4249,-41.0789 34.0235,-30.7035 49.4515,-23.6373"/>
<polygon fill="#191970" stroke="#191970" points="51.0992,-26.742 58.9741,-19.6541 48.398,-20.2841 51.0992,-26.742"/>
</g>
<!-- Node2 -->
<g id="node3" class="node">
<title>Node2</title>
<g id="a_node3"><a xlink:href="$NetFactoryInterface_8h.html" xlink:title="Asteroids/Domain/Net\l/NetFactoryInterface.h">
<polygon fill="#ffffff" stroke="#000000" points="507.0338,-62 507.0338,-92 622.0338,-92 622.0338,-62 507.0338,-62"/>
<text text-anchor="start" x="515.0338" y="-80" font-family="Helvetica,sans-Serif" font-size="10.00" fill="#000000">Asteroids/Domain/Net</text>
<text text-anchor="middle" x="564.5338" y="-69" font-family="Helvetica,sans-Serif" font-size="10.00" fill="#000000">/NetFactoryInterface.h</text>
</a>
</g>
</g>
<!-- Node0&#45;&gt;Node2 -->
<g id="edge2" class="edge">
<title>Node0&#45;&gt;Node2</title>
<path fill="none" stroke="#191970" d="M367.393,-201.4528C384.8117,-192.4808 411.2773,-178.4559 433.5338,-165 469.1336,-143.4771 508.5872,-116.5286 534.8,-98.1617"/>
<polygon fill="#191970" stroke="#191970" points="536.9924,-100.8987 543.1572,-92.2821 532.9646,-95.1736 536.9924,-100.8987"/>
</g>
<!-- Node3 -->
<g id="node4" class="node">
<title>Node3</title>
<polygon fill="#ffffff" stroke="#bfbfbf" points="452.5338,-.5 452.5338,-19.5 504.5338,-19.5 504.5338,-.5 452.5338,-.5"/>
<text text-anchor="middle" x="478.5338" y="-7.5" font-family="Helvetica,sans-Serif" font-size="10.00" fill="#000000">memory</text>
</g>
<!-- Node0&#45;&gt;Node3 -->
<g id="edge19" class="edge">
<title>Node0&#45;&gt;Node3</title>
<path fill="none" stroke="#191970" d="M413.2595,-205.6737C480.7878,-196.2546 583.3909,-170.18 631.5338,-98 641.8917,-82.4707 642.6721,-70.9795 631.5338,-56 617.5648,-37.2134 555.493,-23.2015 514.8298,-15.8359"/>
<polygon fill="#191970" stroke="#191970" points="515.198,-12.3471 504.7433,-14.0647 513.9872,-19.2416 515.198,-12.3471"/>
</g>
<!-- Node4 -->
<g id="node5" class="node">
<title>Node4</title>
<g id="a_node5"><a xlink:href="$ClientServerCommunicator_8h.html" xlink:title="Asteroids/Domain/Net\l/ClientServerCommunicator.h">
<polygon fill="#ffffff" stroke="#000000" points="81.5338,-134.5 81.5338,-164.5 227.5338,-164.5 227.5338,-134.5 81.5338,-134.5"/>
<text text-anchor="start" x="89.5338" y="-152.5" font-family="Helvetica,sans-Serif" font-size="10.00" fill="#000000">Asteroids/Domain/Net</text>
<text text-anchor="middle" x="154.5338" y="-141.5" font-family="Helvetica,sans-Serif" font-size="10.00" fill="#000000">/ClientServerCommunicator.h</text>
</a>
</g>
</g>
<!-- Node0&#45;&gt;Node4 -->
<g id="edge5" class="edge">
<title>Node0&#45;&gt;Node4</title>
<path fill="none" stroke="#191970" d="M318.2213,-201.3906C289.7778,-192.3737 246.5067,-178.6563 211.5969,-167.5896"/>
<polygon fill="#191970" stroke="#191970" points="212.5817,-164.2302 201.9916,-164.5446 210.4664,-170.9029 212.5817,-164.2302"/>
</g>
<!-- Node7 -->
<g id="node8" class="node">
<title>Node7</title>
<g id="a_node8"><a xlink:href="$Authenticator_8h.html" xlink:title="Asteroids/Domain/Net\l/Authentication/Authenticator.h">
<polygon fill="#ffffff" stroke="#000000" points="273.0338,-134.5 273.0338,-164.5 424.0338,-164.5 424.0338,-134.5 273.0338,-134.5"/>
<text text-anchor="start" x="281.0338" y="-152.5" font-family="Helvetica,sans-Serif" font-size="10.00" fill="#000000">Asteroids/Domain/Net</text>
<text text-anchor="middle" x="348.5338" y="-141.5" font-family="Helvetica,sans-Serif" font-size="10.00" fill="#000000">/Authentication/Authenticator.h</text>
</a>
</g>
</g>
<!-- Node0&#45;&gt;Node7 -->
<g id="edge11" class="edge">
<title>Node0&#45;&gt;Node7</title>
<path fill="none" stroke="#191970" d="M348.5338,-201.3906C348.5338,-194.2234 348.5338,-184.0862 348.5338,-174.671"/>
<polygon fill="#191970" stroke="#191970" points="352.0339,-174.5446 348.5338,-164.5446 345.0339,-174.5446 352.0339,-174.5446"/>
</g>
<!-- Node2&#45;&gt;Node1 -->
<g id="edge3" class="edge">
<title>Node2&#45;&gt;Node1</title>
<path fill="none" stroke="#191970" d="M506.9026,-64.6972C491.5498,-61.6327 474.9467,-58.5092 459.5338,-56 366.0616,-40.783 258.4195,-27.7616 184.3796,-19.4973"/>
<polygon fill="#191970" stroke="#191970" points="184.4853,-15.9876 174.1602,-18.363 183.713,-22.9449 184.4853,-15.9876"/>
</g>
<!-- Node2&#45;&gt;Node3 -->
<g id="edge4" class="edge">
<title>Node2&#45;&gt;Node3</title>
<path fill="none" stroke="#191970" d="M545.0191,-61.7967C531.2296,-51.0537 512.792,-36.6895 498.831,-25.8129"/>
<polygon fill="#191970" stroke="#191970" points="500.8381,-22.9398 490.7984,-19.555 496.536,-28.4618 500.8381,-22.9398"/>
</g>
<!-- Node4&#45;&gt;Node1 -->
<g id="edge6" class="edge">
<title>Node4&#45;&gt;Node1</title>
<path fill="none" stroke="#191970" d="M97.2293,-134.4995C65.1834,-124.8266 29.848,-111.558 20.5338,-98 9.964,-82.6142 11.465,-72.3156 20.5338,-56 28.4917,-41.6832 42.9567,-31.2479 57.0005,-23.972"/>
<polygon fill="#191970" stroke="#191970" points="58.574,-27.0993 66.0958,-19.6379 55.5627,-20.7801 58.574,-27.0993"/>
</g>
<!-- Node5 -->
<g id="node6" class="node">
<title>Node5</title>
<g id="a_node6"><a xlink:href="$ClientServerCommunicatorInterface_8h.html" xlink:title="Asteroids/Domain/Net\l/ClientServerCommunicatorInterface.h">
<polygon fill="#ffffff" stroke="#000000" points="62.5338,-62 62.5338,-92 246.5338,-92 246.5338,-62 62.5338,-62"/>
<text text-anchor="start" x="70.5338" y="-80" font-family="Helvetica,sans-Serif" font-size="10.00" fill="#000000">Asteroids/Domain/Net</text>
<text text-anchor="middle" x="154.5338" y="-69" font-family="Helvetica,sans-Serif" font-size="10.00" fill="#000000">/ClientServerCommunicatorInterface.h</text>
</a>
</g>
</g>
<!-- Node4&#45;&gt;Node5 -->
<g id="edge7" class="edge">
<title>Node4&#45;&gt;Node5</title>
<path fill="none" stroke="#191970" d="M154.5338,-134.478C154.5338,-125.1459 154.5338,-112.9157 154.5338,-102.1368"/>
<polygon fill="#191970" stroke="#191970" points="158.0339,-102.0028 154.5338,-92.0028 151.0339,-102.0028 158.0339,-102.0028"/>
</g>
<!-- Node5&#45;&gt;Node1 -->
<g id="edge8" class="edge">
<title>Node5&#45;&gt;Node1</title>
<path fill="none" stroke="#191970" d="M140.9189,-61.7967C131.6614,-51.4591 119.4011,-37.7684 109.8103,-27.0588"/>
<polygon fill="#191970" stroke="#191970" points="112.3691,-24.6696 103.0905,-19.555 107.1544,-29.3394 112.3691,-24.6696"/>
</g>
<!-- Node5&#45;&gt;Node3 -->
<g id="edge10" class="edge">
<title>Node5&#45;&gt;Node3</title>
<path fill="none" stroke="#191970" d="M227.2458,-61.9639C294.098,-48.1395 390.4518,-28.2145 442.2729,-17.4984"/>
<polygon fill="#191970" stroke="#191970" points="443.241,-20.8723 452.325,-15.4197 441.8234,-14.0174 443.241,-20.8723"/>
</g>
<!-- Node6 -->
<g id="node7" class="node">
<title>Node6</title>
<polygon fill="#ffffff" stroke="#bfbfbf" points="254.0338,-.5 254.0338,-19.5 295.0338,-19.5 295.0338,-.5 254.0338,-.5"/>
<text text-anchor="middle" x="274.5338" y="-7.5" font-family="Helvetica,sans-Serif" font-size="10.00" fill="#000000">string</text>
</g>
<!-- Node5&#45;&gt;Node6 -->
<g id="edge9" class="edge">
<title>Node5&#45;&gt;Node6</title>
<path fill="none" stroke="#191970" d="M181.4642,-61.9639C201.5079,-50.7728 228.7121,-35.5838 248.5304,-24.5186"/>
<polygon fill="#191970" stroke="#191970" points="250.3078,-27.5349 257.3328,-19.6039 246.8953,-21.423 250.3078,-27.5349"/>
</g>
<!-- Node7&#45;&gt;Node1 -->
<g id="edge12" class="edge">
<title>Node7&#45;&gt;Node1</title>
<path fill="none" stroke="#191970" d="M272.6814,-138.7223C187.6483,-126.2754 60.6215,-106.4322 53.5338,-98 41.523,-83.7107 46.8883,-73.4437 53.5338,-56 57.7613,-44.9034 66.0309,-34.7814 74.0426,-26.8751"/>
<polygon fill="#191970" stroke="#191970" points="76.8042,-29.0916 81.809,-19.7534 72.0732,-23.9323 76.8042,-29.0916"/>
</g>
<!-- Node7&#45;&gt;Node3 -->
<g id="edge18" class="edge">
<title>Node7&#45;&gt;Node3</title>
<path fill="none" stroke="#191970" d="M406.0199,-134.3849C425.6309,-126.5369 446.0012,-114.9235 459.5338,-98 475.1189,-78.5098 478.6543,-49.1004 479.1081,-29.7262"/>
<polygon fill="#191970" stroke="#191970" points="482.608,-29.622 479.087,-19.6294 475.608,-29.6367 482.608,-29.622"/>
</g>
<!-- Node7&#45;&gt;Node6 -->
<g id="edge17" class="edge">
<title>Node7&#45;&gt;Node6</title>
<path fill="none" stroke="#191970" d="M327.4045,-134.3479C316.0091,-125.0948 302.6558,-112.3084 294.5338,-98 282.3715,-76.5737 277.6045,-48.2654 275.7366,-29.6148"/>
<polygon fill="#191970" stroke="#191970" points="279.2241,-29.3186 274.9228,-19.6363 272.2473,-29.8877 279.2241,-29.3186"/>
</g>
<!-- Node8 -->
<g id="node9" class="node">
<title>Node8</title>
<g id="a_node9"><a xlink:href="$AuthenticationInterface_8h.html" xlink:title="Asteroids/Domain/Net\l/Authentication/Authentication\lInterface.h">
<polygon fill="#ffffff" stroke="#000000" points="303.0338,-56.5 303.0338,-97.5 450.0338,-97.5 450.0338,-56.5 303.0338,-56.5"/>
<text text-anchor="start" x="311.0338" y="-85.5" font-family="Helvetica,sans-Serif" font-size="10.00" fill="#000000">Asteroids/Domain/Net</text>
<text text-anchor="start" x="311.0338" y="-74.5" font-family="Helvetica,sans-Serif" font-size="10.00" fill="#000000">/Authentication/Authentication</text>
<text text-anchor="middle" x="376.5338" y="-63.5" font-family="Helvetica,sans-Serif" font-size="10.00" fill="#000000">Interface.h</text>
</a>
</g>
</g>
<!-- Node7&#45;&gt;Node8 -->
<g id="edge13" class="edge">
<title>Node7&#45;&gt;Node8</title>
<path fill="none" stroke="#191970" d="M354.3355,-134.478C357.4027,-126.536 361.2806,-116.495 364.9338,-107.0359"/>
<polygon fill="#191970" stroke="#191970" points="368.2782,-108.091 368.616,-97.5015 361.7483,-105.569 368.2782,-108.091"/>
</g>
<!-- Node8&#45;&gt;Node1 -->
<g id="edge14" class="edge">
<title>Node8&#45;&gt;Node1</title>
<path fill="none" stroke="#191970" d="M302.81,-59.4841C252.9999,-47.6497 188.5594,-32.3394 144.6337,-21.9032"/>
<polygon fill="#191970" stroke="#191970" points="145.2973,-18.4635 134.7591,-19.5571 143.6792,-25.2739 145.2973,-18.4635"/>
</g>
<!-- Node8&#45;&gt;Node3 -->
<g id="edge15" class="edge">
<title>Node8&#45;&gt;Node3</title>
<path fill="none" stroke="#191970" d="M407.9695,-56.3511C423.2389,-46.3212 441.2663,-34.4797 455.2776,-25.2762"/>
<polygon fill="#191970" stroke="#191970" points="457.3992,-28.0702 463.8357,-19.6546 453.556,-22.2195 457.3992,-28.0702"/>
</g>
<!-- Node8&#45;&gt;Node6 -->
<g id="edge16" class="edge">
<title>Node8&#45;&gt;Node6</title>
<path fill="none" stroke="#191970" d="M345.0982,-56.3511C329.8287,-46.3212 311.8014,-34.4797 297.7901,-25.2762"/>
<polygon fill="#191970" stroke="#191970" points="299.5117,-22.2195 289.2319,-19.6546 295.6685,-28.0702 299.5117,-22.2195"/>
</g>
</g>
</svg>
