<?xml version="1.0" encoding="UTF-8" standalone="no"?>
<!DOCTYPE svg PUBLIC "-//W3C//DTD SVG 1.1//EN"
 "http://www.w3.org/Graphics/SVG/1.1/DTD/svg11.dtd">
<!-- Generated by graphviz version 2.40.1 (20161225.0304)
 -->
<!-- Title: Domain/Store/PaymentHelperInterface.h Pages: 1 -->
<svg width="410pt" height="162pt"
 viewBox="0.00 0.00 410.00 162.00" xmlns="http://www.w3.org/2000/svg" xmlns:xlink="http://www.w3.org/1999/xlink">
<g id="graph0" class="graph" transform="scale(1 1) rotate(0) translate(4 158)">
<title>Domain/Store/PaymentHelperInterface.h</title>
<polygon fill="#ffffff" stroke="transparent" points="-4,4 -4,-158 406,-158 406,4 -4,4"/>
<!-- Node5 -->
<g id="node1" class="node">
<title>Node5</title>
<polygon fill="#bfbfbf" stroke="#000000" points="179.5,-123.5 179.5,-153.5 326.5,-153.5 326.5,-123.5 179.5,-123.5"/>
<text text-anchor="start" x="187.5" y="-141.5" font-family="Helvetica,sans-Serif" font-size="10.00" fill="#000000">Domain/Store/PaymentHelper</text>
<text text-anchor="middle" x="253" y="-130.5" font-family="Helvetica,sans-Serif" font-size="10.00" fill="#000000">Interface.h</text>
</g>
<!-- Node6 -->
<g id="node2" class="node">
<title>Node6</title>
<g id="a_node2"><a xlink:href="$PaymentHelper_8h.html" xlink:title="Domain/Store/PaymentHelper.h">
<polygon fill="#ffffff" stroke="#000000" points="94.5,-62 94.5,-81 249.5,-81 249.5,-62 94.5,-62"/>
<text text-anchor="middle" x="172" y="-69" font-family="Helvetica,sans-Serif" font-size="10.00" fill="#000000">Domain/Store/PaymentHelper.h</text>
</a>
</g>
</g>
<!-- Node5&#45;&gt;Node6 -->
<g id="edge1" class="edge">
<title>Node5&#45;&gt;Node6</title>
<path fill="none" stroke="#191970" d="M226.8585,-116.8767C212.2542,-104.7967 194.7885,-90.3498 183.5515,-81.055"/>
<polygon fill="#191970" stroke="#191970" points="224.6835,-119.6198 234.6198,-123.2967 229.1451,-114.2259 224.6835,-119.6198"/>
</g>
<!-- Node9 -->
<g id="node5" class="node">
<title>Node9</title>
<g id="a_node5"><a xlink:href="$ClientTextUI_8cpp.html" xlink:title="UI/ClientTextUI/ClientText\lUI.cpp">
<polygon fill="#ffffff" stroke="#000000" points="268,-56.5 268,-86.5 402,-86.5 402,-56.5 268,-56.5"/>
<text text-anchor="start" x="276" y="-74.5" font-family="Helvetica,sans-Serif" font-size="10.00" fill="#000000">UI/ClientTextUI/ClientText</text>
<text text-anchor="middle" x="335" y="-63.5" font-family="Helvetica,sans-Serif" font-size="10.00" fill="#000000">UI.cpp</text>
</a>
</g>
</g>
<!-- Node5&#45;&gt;Node9 -->
<g id="edge4" class="edge">
<title>Node5&#45;&gt;Node9</title>
<path fill="none" stroke="#191970" d="M279.5817,-116.7808C291.6278,-106.9383 305.5767,-95.541 316.4666,-86.6432"/>
<polygon fill="#191970" stroke="#191970" points="277.1363,-114.2591 271.6071,-123.2967 281.5654,-119.6797 277.1363,-114.2591"/>
</g>
<!-- Node7 -->
<g id="node3" class="node">
<title>Node7</title>
<g id="a_node3"><a xlink:href="$PaymentHelper_8cpp.html" xlink:title="Domain/Store/PaymentHelper.cpp">
<polygon fill="#ffffff" stroke="#000000" points="0,-.5 0,-19.5 166,-19.5 166,-.5 0,-.5"/>
<text text-anchor="middle" x="83" y="-7.5" font-family="Helvetica,sans-Serif" font-size="10.00" fill="#000000">Domain/Store/PaymentHelper.cpp</text>
</a>
</g>
</g>
<!-- Node6&#45;&gt;Node7 -->
<g id="edge2" class="edge">
<title>Node6&#45;&gt;Node7</title>
<path fill="none" stroke="#191970" d="M149.5236,-55.9685C132.9322,-44.5037 110.8794,-29.265 96.8086,-19.5419"/>
<polygon fill="#191970" stroke="#191970" points="147.8771,-59.0851 158.0938,-61.8906 151.8565,-53.3263 147.8771,-59.0851"/>
</g>
<!-- Node8 -->
<g id="node4" class="node">
<title>Node8</title>
<g id="a_node4"><a xlink:href="$StoreFactory_8cpp.html" xlink:title="Domain/Store/StoreFactory.cpp">
<polygon fill="#ffffff" stroke="#000000" points="184.5,-.5 184.5,-19.5 339.5,-19.5 339.5,-.5 184.5,-.5"/>
<text text-anchor="middle" x="262" y="-7.5" font-family="Helvetica,sans-Serif" font-size="10.00" fill="#000000">Domain/Store/StoreFactory.cpp</text>
</a>
</g>
</g>
<!-- Node6&#45;&gt;Node8 -->
<g id="edge3" class="edge">
<title>Node6&#45;&gt;Node8</title>
<path fill="none" stroke="#191970" d="M194.729,-55.9685C211.5068,-44.5037 233.8074,-29.265 248.0362,-19.5419"/>
<polygon fill="#191970" stroke="#191970" points="192.3443,-53.3589 186.0625,-61.8906 196.2936,-59.1384 192.3443,-53.3589"/>
</g>
</g>
</svg>
