<?xml version="1.0" encoding="UTF-8" standalone="no"?>
<!DOCTYPE svg PUBLIC "-//W3C//DTD SVG 1.1//EN"
 "http://www.w3.org/Graphics/SVG/1.1/DTD/svg11.dtd">
<!-- Generated by graphviz version 2.40.1 (20161225.0304)
 -->
<!-- Title: Domain/Store/PaymentHelper.h Pages: 1 -->
<svg width="348pt" height="84pt"
 viewBox="0.00 0.00 347.50 84.00" xmlns="http://www.w3.org/2000/svg" xmlns:xlink="http://www.w3.org/1999/xlink">
<g id="graph0" class="graph" transform="scale(1 1) rotate(0) translate(4 80)">
<title>Domain/Store/PaymentHelper.h</title>
<polygon fill="#ffffff" stroke="transparent" points="-4,4 -4,-80 343.5,-80 343.5,4 -4,4"/>
<!-- Node6 -->
<g id="node1" class="node">
<title>Node6</title>
<polygon fill="#bfbfbf" stroke="#000000" points="94.5,-56.5 94.5,-75.5 249.5,-75.5 249.5,-56.5 94.5,-56.5"/>
<text text-anchor="middle" x="172" y="-63.5" font-family="Helvetica,sans-Serif" font-size="10.00" fill="#000000">Domain/Store/PaymentHelper.h</text>
</g>
<!-- Node7 -->
<g id="node2" class="node">
<title>Node7</title>
<g id="a_node2"><a xlink:href="$PaymentHelper_8cpp.html" xlink:title="Domain/Store/PaymentHelper.cpp">
<polygon fill="#ffffff" stroke="#000000" points="0,-.5 0,-19.5 166,-19.5 166,-.5 0,-.5"/>
<text text-anchor="middle" x="83" y="-7.5" font-family="Helvetica,sans-Serif" font-size="10.00" fill="#000000">Domain/Store/PaymentHelper.cpp</text>
</a>
</g>
</g>
<!-- Node6&#45;&gt;Node7 -->
<g id="edge1" class="edge">
<title>Node6&#45;&gt;Node7</title>
<path fill="none" stroke="#191970" d="M147.7936,-50.769C132.0225,-40.8456 111.924,-28.1994 98.325,-19.6427"/>
<polygon fill="#191970" stroke="#191970" points="146.1695,-53.8823 156.4974,-56.2455 149.8974,-47.9575 146.1695,-53.8823"/>
</g>
<!-- Node8 -->
<g id="node3" class="node">
<title>Node8</title>
<g id="a_node3"><a xlink:href="$StoreFactory_8cpp.html" xlink:title="Domain/Store/StoreFactory.cpp">
<polygon fill="#ffffff" stroke="#000000" points="184.5,-.5 184.5,-19.5 339.5,-19.5 339.5,-.5 184.5,-.5"/>
<text text-anchor="middle" x="262" y="-7.5" font-family="Helvetica,sans-Serif" font-size="10.00" fill="#000000">Domain/Store/StoreFactory.cpp</text>
</a>
</g>
</g>
<!-- Node6&#45;&gt;Node8 -->
<g id="edge2" class="edge">
<title>Node6&#45;&gt;Node8</title>
<path fill="none" stroke="#191970" d="M196.4784,-50.769C212.4266,-40.8456 232.751,-28.1994 246.5028,-19.6427"/>
<polygon fill="#191970" stroke="#191970" points="194.3183,-47.9908 187.6768,-56.2455 198.0165,-53.9342 194.3183,-47.9908"/>
</g>
</g>
</svg>
