<?xml version="1.0" encoding="UTF-8" standalone="no"?>
<!DOCTYPE svg PUBLIC "-//W3C//DTD SVG 1.1//EN"
 "http://www.w3.org/Graphics/SVG/1.1/DTD/svg11.dtd">
<!-- Generated by graphviz version 2.40.1 (20161225.0304)
 -->
<!-- Title: Domain/Store/PAYMENT_RESULT_DETAILS.h Pages: 1 -->
<svg width="494pt" height="106pt"
 viewBox="0.00 0.00 493.50 106.00" xmlns="http://www.w3.org/2000/svg" xmlns:xlink="http://www.w3.org/1999/xlink">
<g id="graph0" class="graph" transform="scale(1 1) rotate(0) translate(4 102)">
<title>Domain/Store/PAYMENT_RESULT_DETAILS.h</title>
<polygon fill="#ffffff" stroke="transparent" points="-4,4 -4,-102 489.5,-102 489.5,4 -4,4"/>
<!-- Node4 -->
<g id="node1" class="node">
<title>Node4</title>
<polygon fill="#bfbfbf" stroke="#000000" points="165,-67.5 165,-97.5 293,-97.5 293,-67.5 165,-67.5"/>
<text text-anchor="start" x="173" y="-85.5" font-family="Helvetica,sans-Serif" font-size="10.00" fill="#000000">Domain/Store/PAYMENT</text>
<text text-anchor="middle" x="229" y="-74.5" font-family="Helvetica,sans-Serif" font-size="10.00" fill="#000000">_RESULT_DETAILS.h</text>
</g>
<!-- Node5 -->
<g id="node2" class="node">
<title>Node5</title>
<g id="a_node2"><a xlink:href="$PAYMENT__RESULT__DETAILS_8cpp.html" xlink:title="Domain/Store/PAYMENT\l_RESULT_DETAILS.cpp">
<polygon fill="#ffffff" stroke="#000000" points="0,-.5 0,-30.5 128,-30.5 128,-.5 0,-.5"/>
<text text-anchor="start" x="8" y="-18.5" font-family="Helvetica,sans-Serif" font-size="10.00" fill="#000000">Domain/Store/PAYMENT</text>
<text text-anchor="middle" x="64" y="-7.5" font-family="Helvetica,sans-Serif" font-size="10.00" fill="#000000">_RESULT_DETAILS.cpp</text>
</a>
</g>
</g>
<!-- Node4&#45;&gt;Node5 -->
<g id="edge1" class="edge">
<title>Node4&#45;&gt;Node5</title>
<path fill="none" stroke="#191970" d="M182.4298,-63.5897C156.7245,-53.1518 125.2358,-40.3654 101.1907,-30.6017"/>
<polygon fill="#191970" stroke="#191970" points="181.3887,-66.9444 191.9708,-67.4639 184.0223,-60.4587 181.3887,-66.9444"/>
</g>
<!-- Node6 -->
<g id="node3" class="node">
<title>Node6</title>
<g id="a_node3"><a xlink:href="$PaymentHelper_8cpp.html" xlink:title="Domain/Store/PaymentHelper.cpp">
<polygon fill="#ffffff" stroke="#000000" points="146,-6 146,-25 312,-25 312,-6 146,-6"/>
<text text-anchor="middle" x="229" y="-13" font-family="Helvetica,sans-Serif" font-size="10.00" fill="#000000">Domain/Store/PaymentHelper.cpp</text>
</a>
</g>
</g>
<!-- Node4&#45;&gt;Node6 -->
<g id="edge2" class="edge">
<title>Node4&#45;&gt;Node6</title>
<path fill="none" stroke="#191970" d="M229,-57.1199C229,-45.9072 229,-33.4031 229,-25.055"/>
<polygon fill="#191970" stroke="#191970" points="225.5001,-57.2966 229,-67.2967 232.5001,-57.2967 225.5001,-57.2966"/>
</g>
<!-- Node7 -->
<g id="node4" class="node">
<title>Node7</title>
<g id="a_node4"><a xlink:href="$StoreFactory_8cpp.html" xlink:title="Domain/Store/StoreFactory.cpp">
<polygon fill="#ffffff" stroke="#000000" points="330.5,-6 330.5,-25 485.5,-25 485.5,-6 330.5,-6"/>
<text text-anchor="middle" x="408" y="-13" font-family="Helvetica,sans-Serif" font-size="10.00" fill="#000000">Domain/Store/StoreFactory.cpp</text>
</a>
</g>
</g>
<!-- Node4&#45;&gt;Node7 -->
<g id="edge3" class="edge">
<title>Node4&#45;&gt;Node7</title>
<path fill="none" stroke="#191970" d="M278.8582,-63.838C312.5819,-51.2151 355.7163,-35.0699 382.6053,-25.0053"/>
<polygon fill="#191970" stroke="#191970" points="277.3096,-60.6804 269.1711,-67.4639 279.7635,-67.2362 277.3096,-60.6804"/>
</g>
</g>
</svg>
