<?xml version="1.0" encoding="UTF-8" standalone="no"?>
<!DOCTYPE svg PUBLIC "-//W3C//DTD SVG 1.1//EN"
 "http://www.w3.org/Graphics/SVG/1.1/DTD/svg11.dtd">
<!-- Generated by graphviz version 2.40.1 (20161225.0304)
 -->
<!-- Title: Domain/Store/POWERUP_ADDED_INFO.h Pages: 1 -->
<svg width="314pt" height="106pt"
 viewBox="0.00 0.00 313.50 106.00" xmlns="http://www.w3.org/2000/svg" xmlns:xlink="http://www.w3.org/1999/xlink">
<g id="graph0" class="graph" transform="scale(1 1) rotate(0) translate(4 102)">
<title>Domain/Store/POWERUP_ADDED_INFO.h</title>
<polygon fill="#ffffff" stroke="transparent" points="-4,4 -4,-102 309.5,-102 309.5,4 -4,4"/>
<!-- Node4 -->
<g id="node1" class="node">
<title>Node4</title>
<polygon fill="#bfbfbf" stroke="#000000" points="81,-67.5 81,-97.5 213,-97.5 213,-67.5 81,-67.5"/>
<text text-anchor="start" x="89" y="-85.5" font-family="Helvetica,sans-Serif" font-size="10.00" fill="#000000">Domain/Store/POWERUP</text>
<text text-anchor="middle" x="147" y="-74.5" font-family="Helvetica,sans-Serif" font-size="10.00" fill="#000000">_ADDED_INFO.h</text>
</g>
<!-- Node5 -->
<g id="node2" class="node">
<title>Node5</title>
<g id="a_node2"><a xlink:href="$POWERUP__ADDED__INFO_8cpp.html" xlink:title="Domain/Store/POWERUP\l_ADDED_INFO.cpp">
<polygon fill="#ffffff" stroke="#000000" points="0,-.5 0,-30.5 132,-30.5 132,-.5 0,-.5"/>
<text text-anchor="start" x="8" y="-18.5" font-family="Helvetica,sans-Serif" font-size="10.00" fill="#000000">Domain/Store/POWERUP</text>
<text text-anchor="middle" x="66" y="-7.5" font-family="Helvetica,sans-Serif" font-size="10.00" fill="#000000">_ADDED_INFO.cpp</text>
</a>
</g>
</g>
<!-- Node4&#45;&gt;Node5 -->
<g id="edge1" class="edge">
<title>Node4&#45;&gt;Node5</title>
<path fill="none" stroke="#191970" d="M120.7425,-60.7808C108.8433,-50.9383 95.0644,-39.541 84.3074,-30.6432"/>
<polygon fill="#191970" stroke="#191970" points="118.6835,-63.6198 128.6198,-67.2967 123.1451,-58.2259 118.6835,-63.6198"/>
</g>
<!-- Node6 -->
<g id="node3" class="node">
<title>Node6</title>
<g id="a_node3"><a xlink:href="$StoreFactory_8cpp.html" xlink:title="Domain/Store/StoreFactory.cpp">
<polygon fill="#ffffff" stroke="#000000" points="150.5,-6 150.5,-25 305.5,-25 305.5,-6 150.5,-6"/>
<text text-anchor="middle" x="228" y="-13" font-family="Helvetica,sans-Serif" font-size="10.00" fill="#000000">Domain/Store/StoreFactory.cpp</text>
</a>
</g>
</g>
<!-- Node4&#45;&gt;Node6 -->
<g id="edge2" class="edge">
<title>Node4&#45;&gt;Node6</title>
<path fill="none" stroke="#191970" d="M173.1415,-60.8767C187.7458,-48.7967 205.2115,-34.3498 216.4485,-25.055"/>
<polygon fill="#191970" stroke="#191970" points="170.8549,-58.2259 165.3802,-67.2967 175.3165,-63.6198 170.8549,-58.2259"/>
</g>
</g>
</svg>
