<?xml version="1.0" encoding="UTF-8" standalone="no"?>
<!DOCTYPE svg PUBLIC "-//W3C//DTD SVG 1.1//EN"
 "http://www.w3.org/Graphics/SVG/1.1/DTD/svg11.dtd">
<!-- Generated by graphviz version 2.40.1 (20161225.0304)
 -->
<!-- Title: Domain/Store/POWERUP_ADDED_INFO_INTERFACE.h Pages: 1 -->
<svg width="373pt" height="173pt"
 viewBox="0.00 0.00 373.00 173.00" xmlns="http://www.w3.org/2000/svg" xmlns:xlink="http://www.w3.org/1999/xlink">
<g id="graph0" class="graph" transform="scale(1 1) rotate(0) translate(4 169)">
<title>Domain/Store/POWERUP_ADDED_INFO_INTERFACE.h</title>
<polygon fill="#ffffff" stroke="transparent" points="-4,4 -4,-169 369,-169 369,4 -4,4"/>
<!-- Node3 -->
<g id="node1" class="node">
<title>Node3</title>
<polygon fill="#bfbfbf" stroke="#000000" points="143,-134.5 143,-164.5 301,-164.5 301,-134.5 143,-134.5"/>
<text text-anchor="start" x="151" y="-152.5" font-family="Helvetica,sans-Serif" font-size="10.00" fill="#000000">Domain/Store/POWERUP</text>
<text text-anchor="middle" x="222" y="-141.5" font-family="Helvetica,sans-Serif" font-size="10.00" fill="#000000">_ADDED_INFO_INTERFACE.h</text>
</g>
<!-- Node4 -->
<g id="node2" class="node">
<title>Node4</title>
<g id="a_node2"><a xlink:href="$POWERUP__ADDED__INFO_8h.html" xlink:title="Domain/Store/POWERUP\l_ADDED_INFO.h">
<polygon fill="#ffffff" stroke="#000000" points="81,-67.5 81,-97.5 213,-97.5 213,-67.5 81,-67.5"/>
<text text-anchor="start" x="89" y="-85.5" font-family="Helvetica,sans-Serif" font-size="10.00" fill="#000000">Domain/Store/POWERUP</text>
<text text-anchor="middle" x="147" y="-74.5" font-family="Helvetica,sans-Serif" font-size="10.00" fill="#000000">_ADDED_INFO.h</text>
</a>
</g>
</g>
<!-- Node3&#45;&gt;Node4 -->
<g id="edge1" class="edge">
<title>Node3&#45;&gt;Node4</title>
<path fill="none" stroke="#191970" d="M197.3692,-127.4965C186.4246,-117.7193 173.8157,-106.4554 163.9513,-97.6432"/>
<polygon fill="#191970" stroke="#191970" points="195.1919,-130.2447 204.9813,-134.2967 199.8555,-125.0243 195.1919,-130.2447"/>
</g>
<!-- Node7 -->
<g id="node5" class="node">
<title>Node7</title>
<g id="a_node5"><a xlink:href="$ClientTextUI_8cpp.html" xlink:title="UI/ClientTextUI/ClientText\lUI.cpp">
<polygon fill="#ffffff" stroke="#000000" points="231,-67.5 231,-97.5 365,-97.5 365,-67.5 231,-67.5"/>
<text text-anchor="start" x="239" y="-85.5" font-family="Helvetica,sans-Serif" font-size="10.00" fill="#000000">UI/ClientTextUI/ClientText</text>
<text text-anchor="middle" x="298" y="-74.5" font-family="Helvetica,sans-Serif" font-size="10.00" fill="#000000">UI.cpp</text>
</a>
</g>
</g>
<!-- Node3&#45;&gt;Node7 -->
<g id="edge4" class="edge">
<title>Node3&#45;&gt;Node7</title>
<path fill="none" stroke="#191970" d="M246.9592,-127.4965C258.0497,-117.7193 270.8267,-106.4554 280.8227,-97.6432"/>
<polygon fill="#191970" stroke="#191970" points="244.4323,-125.0582 239.2456,-134.2967 249.0614,-130.3091 244.4323,-125.0582"/>
</g>
<!-- Node5 -->
<g id="node3" class="node">
<title>Node5</title>
<g id="a_node3"><a xlink:href="$POWERUP__ADDED__INFO_8cpp.html" xlink:title="Domain/Store/POWERUP\l_ADDED_INFO.cpp">
<polygon fill="#ffffff" stroke="#000000" points="0,-.5 0,-30.5 132,-30.5 132,-.5 0,-.5"/>
<text text-anchor="start" x="8" y="-18.5" font-family="Helvetica,sans-Serif" font-size="10.00" fill="#000000">Domain/Store/POWERUP</text>
<text text-anchor="middle" x="66" y="-7.5" font-family="Helvetica,sans-Serif" font-size="10.00" fill="#000000">_ADDED_INFO.cpp</text>
</a>
</g>
</g>
<!-- Node4&#45;&gt;Node5 -->
<g id="edge2" class="edge">
<title>Node4&#45;&gt;Node5</title>
<path fill="none" stroke="#191970" d="M120.7425,-60.7808C108.8433,-50.9383 95.0644,-39.541 84.3074,-30.6432"/>
<polygon fill="#191970" stroke="#191970" points="118.6835,-63.6198 128.6198,-67.2967 123.1451,-58.2259 118.6835,-63.6198"/>
</g>
<!-- Node6 -->
<g id="node4" class="node">
<title>Node6</title>
<g id="a_node4"><a xlink:href="$StoreFactory_8cpp.html" xlink:title="Domain/Store/StoreFactory.cpp">
<polygon fill="#ffffff" stroke="#000000" points="150.5,-6 150.5,-25 305.5,-25 305.5,-6 150.5,-6"/>
<text text-anchor="middle" x="228" y="-13" font-family="Helvetica,sans-Serif" font-size="10.00" fill="#000000">Domain/Store/StoreFactory.cpp</text>
</a>
</g>
</g>
<!-- Node4&#45;&gt;Node6 -->
<g id="edge3" class="edge">
<title>Node4&#45;&gt;Node6</title>
<path fill="none" stroke="#191970" d="M173.1415,-60.8767C187.7458,-48.7967 205.2115,-34.3498 216.4485,-25.055"/>
<polygon fill="#191970" stroke="#191970" points="170.8549,-58.2259 165.3802,-67.2967 175.3165,-63.6198 170.8549,-58.2259"/>
</g>
</g>
</svg>
