<?xml version="1.0" encoding="UTF-8" standalone="no"?>
<!DOCTYPE svg PUBLIC "-//W3C//DTD SVG 1.1//EN"
 "http://www.w3.org/Graphics/SVG/1.1/DTD/svg11.dtd">
<!-- Generated by graphviz version 2.40.1 (20161225.0304)
 -->
<!-- Title: Domain/Game/Randomer.h Pages: 1 -->
<svg width="480pt" height="84pt"
 viewBox="0.00 0.00 480.00 84.00" xmlns="http://www.w3.org/2000/svg" xmlns:xlink="http://www.w3.org/1999/xlink">
<g id="graph0" class="graph" transform="scale(1 1) rotate(0) translate(4 80)">
<title>Domain/Game/Randomer.h</title>
<polygon fill="#ffffff" stroke="transparent" points="-4,4 -4,-80 476,-80 476,4 -4,4"/>
<!-- Node3 -->
<g id="node1" class="node">
<title>Node3</title>
<polygon fill="#bfbfbf" stroke="#000000" points="159,-56.5 159,-75.5 295,-75.5 295,-56.5 159,-56.5"/>
<text text-anchor="middle" x="227" y="-63.5" font-family="Helvetica,sans-Serif" font-size="10.00" fill="#000000">Domain/Game/Randomer.h</text>
</g>
<!-- Node4 -->
<g id="node2" class="node">
<title>Node4</title>
<g id="a_node2"><a xlink:href="$Game_8cpp.html" xlink:title="Domain/Game/Game.cpp">
<polygon fill="#ffffff" stroke="#000000" points="0,-.5 0,-19.5 128,-19.5 128,-.5 0,-.5"/>
<text text-anchor="middle" x="64" y="-7.5" font-family="Helvetica,sans-Serif" font-size="10.00" fill="#000000">Domain/Game/Game.cpp</text>
</a>
</g>
</g>
<!-- Node3&#45;&gt;Node4 -->
<g id="edge1" class="edge">
<title>Node3&#45;&gt;Node4</title>
<path fill="none" stroke="#191970" d="M189.3267,-53.057C159.4958,-42.8084 118.5148,-28.729 91.6551,-19.5011"/>
<polygon fill="#191970" stroke="#191970" points="188.3846,-56.4341 198.9793,-56.3733 190.6591,-49.8139 188.3846,-56.4341"/>
</g>
<!-- Node5 -->
<g id="node3" class="node">
<title>Node5</title>
<g id="a_node3"><a xlink:href="$GameFactory_8cpp.html" xlink:title="Domain/Game/GameFactory.cpp">
<polygon fill="#ffffff" stroke="#000000" points="146.5,-.5 146.5,-19.5 307.5,-19.5 307.5,-.5 146.5,-.5"/>
<text text-anchor="middle" x="227" y="-7.5" font-family="Helvetica,sans-Serif" font-size="10.00" fill="#000000">Domain/Game/GameFactory.cpp</text>
</a>
</g>
</g>
<!-- Node3&#45;&gt;Node5 -->
<g id="edge2" class="edge">
<title>Node3&#45;&gt;Node5</title>
<path fill="none" stroke="#191970" d="M227,-46.1575C227,-37.155 227,-26.9199 227,-19.6427"/>
<polygon fill="#191970" stroke="#191970" points="223.5001,-46.2455 227,-56.2455 230.5001,-46.2456 223.5001,-46.2455"/>
</g>
<!-- Node6 -->
<g id="node4" class="node">
<title>Node6</title>
<g id="a_node4"><a xlink:href="$Randomer_8cpp.html" xlink:title="Domain/Game/Randomer.cpp">
<polygon fill="#ffffff" stroke="#000000" points="326,-.5 326,-19.5 472,-19.5 472,-.5 326,-.5"/>
<text text-anchor="middle" x="399" y="-7.5" font-family="Helvetica,sans-Serif" font-size="10.00" fill="#000000">Domain/Game/Randomer.cpp</text>
</a>
</g>
</g>
<!-- Node3&#45;&gt;Node6 -->
<g id="edge3" class="edge">
<title>Node3&#45;&gt;Node6</title>
<path fill="none" stroke="#191970" d="M266.3435,-53.1905C297.8551,-42.9309 341.3519,-28.7691 369.818,-19.5011"/>
<polygon fill="#191970" stroke="#191970" points="264.993,-49.9493 256.5679,-56.3733 267.1601,-56.6054 264.993,-49.9493"/>
</g>
</g>
</svg>
