<?xml version="1.0" encoding="UTF-8" standalone="no"?>
<!DOCTYPE svg PUBLIC "-//W3C//DTD SVG 1.1//EN"
 "http://www.w3.org/Graphics/SVG/1.1/DTD/svg11.dtd">
<!-- Generated by graphviz version 2.40.1 (20161225.0304)
 -->
<!-- Title: Domain/Game/Actors/Rect.cpp Pages: 1 -->
<svg width="410pt" height="162pt"
 viewBox="0.00 0.00 409.50 162.00" xmlns="http://www.w3.org/2000/svg" xmlns:xlink="http://www.w3.org/1999/xlink">
<g id="graph0" class="graph" transform="scale(1 1) rotate(0) translate(4 158)">
<title>Domain/Game/Actors/Rect.cpp</title>
<polygon fill="#ffffff" stroke="transparent" points="-4,4 -4,-158 405.5,-158 405.5,4 -4,4"/>
<!-- Node0 -->
<g id="node1" class="node">
<title>Node0</title>
<polygon fill="#bfbfbf" stroke="#000000" points="248,-123.5 248,-153.5 359,-153.5 359,-123.5 248,-123.5"/>
<text text-anchor="start" x="256" y="-141.5" font-family="Helvetica,sans-Serif" font-size="10.00" fill="#000000">Domain/Game/Actors</text>
<text text-anchor="middle" x="303.5" y="-130.5" font-family="Helvetica,sans-Serif" font-size="10.00" fill="#000000">/Rect.cpp</text>
</g>
<!-- Node1 -->
<g id="node2" class="node">
<title>Node1</title>
<g id="a_node2"><a xlink:href="$Rect_8h.html" xlink:title="Asteroids/Domain/Game\l/Actors/Rect.h">
<polygon fill="#ffffff" stroke="#000000" points="135.5,-56.5 135.5,-86.5 259.5,-86.5 259.5,-56.5 135.5,-56.5"/>
<text text-anchor="start" x="143.5" y="-74.5" font-family="Helvetica,sans-Serif" font-size="10.00" fill="#000000">Asteroids/Domain/Game</text>
<text text-anchor="middle" x="197.5" y="-63.5" font-family="Helvetica,sans-Serif" font-size="10.00" fill="#000000">/Actors/Rect.h</text>
</a>
</g>
</g>
<!-- Node0&#45;&gt;Node1 -->
<g id="edge1" class="edge">
<title>Node0&#45;&gt;Node1</title>
<path fill="none" stroke="#191970" d="M279.7115,-123.4639C265.0849,-114.2188 246.1417,-102.2452 230.1261,-92.1222"/>
<polygon fill="#191970" stroke="#191970" points="231.8989,-89.1022 221.5758,-86.7177 228.1588,-95.0193 231.8989,-89.1022"/>
</g>
<!-- Node5 -->
<g id="node6" class="node">
<title>Node5</title>
<polygon fill="#ffffff" stroke="#bfbfbf" points="277.5,-62 277.5,-81 329.5,-81 329.5,-62 277.5,-62"/>
<text text-anchor="middle" x="303.5" y="-69" font-family="Helvetica,sans-Serif" font-size="10.00" fill="#000000">sstream</text>
</g>
<!-- Node0&#45;&gt;Node5 -->
<g id="edge5" class="edge">
<title>Node0&#45;&gt;Node5</title>
<path fill="none" stroke="#191970" d="M303.5,-123.2967C303.5,-113.7699 303.5,-101.3954 303.5,-91.1306"/>
<polygon fill="#191970" stroke="#191970" points="307.0001,-91.0549 303.5,-81.055 300.0001,-91.055 307.0001,-91.0549"/>
</g>
<!-- Node6 -->
<g id="node7" class="node">
<title>Node6</title>
<polygon fill="#ffffff" stroke="#bfbfbf" points="347.5,-62 347.5,-81 401.5,-81 401.5,-62 347.5,-62"/>
<text text-anchor="middle" x="374.5" y="-69" font-family="Helvetica,sans-Serif" font-size="10.00" fill="#000000">iostream</text>
</g>
<!-- Node0&#45;&gt;Node6 -->
<g id="edge6" class="edge">
<title>Node0&#45;&gt;Node6</title>
<path fill="none" stroke="#191970" d="M319.611,-123.2967C330.7805,-112.7564 345.644,-98.7303 357.0867,-87.9323"/>
<polygon fill="#191970" stroke="#191970" points="359.5037,-90.4638 364.3746,-81.055 354.6994,-85.3727 359.5037,-90.4638"/>
</g>
<!-- Node2 -->
<g id="node3" class="node">
<title>Node2</title>
<g id="a_node3"><a xlink:href="$ForwardDeclarations_8h.html" xlink:title="Asteroids/ForwardDeclarations.h">
<polygon fill="#ffffff" stroke="#000000" points="0,-.5 0,-19.5 159,-19.5 159,-.5 0,-.5"/>
<text text-anchor="middle" x="79.5" y="-7.5" font-family="Helvetica,sans-Serif" font-size="10.00" fill="#000000">Asteroids/ForwardDeclarations.h</text>
</a>
</g>
</g>
<!-- Node1&#45;&gt;Node2 -->
<g id="edge2" class="edge">
<title>Node1&#45;&gt;Node2</title>
<path fill="none" stroke="#191970" d="M168.634,-56.4554C149.8089,-46.644 125.389,-33.9167 106.8708,-24.2653"/>
<polygon fill="#191970" stroke="#191970" points="108.2713,-21.0484 97.7858,-19.5303 105.036,-27.2559 108.2713,-21.0484"/>
</g>
<!-- Node3 -->
<g id="node4" class="node">
<title>Node3</title>
<polygon fill="#ffffff" stroke="#bfbfbf" points="177,-.5 177,-19.5 218,-19.5 218,-.5 177,-.5"/>
<text text-anchor="middle" x="197.5" y="-7.5" font-family="Helvetica,sans-Serif" font-size="10.00" fill="#000000">string</text>
</g>
<!-- Node1&#45;&gt;Node3 -->
<g id="edge3" class="edge">
<title>Node1&#45;&gt;Node3</title>
<path fill="none" stroke="#191970" d="M197.5,-56.2977C197.5,-48.3834 197.5,-38.6043 197.5,-30.0759"/>
<polygon fill="#191970" stroke="#191970" points="201.0001,-29.8469 197.5,-19.8469 194.0001,-29.847 201.0001,-29.8469"/>
</g>
<!-- Node4 -->
<g id="node5" class="node">
<title>Node4</title>
<polygon fill="#ffffff" stroke="#bfbfbf" points="236.5,-.5 236.5,-19.5 280.5,-19.5 280.5,-.5 236.5,-.5"/>
<text text-anchor="middle" x="258.5" y="-7.5" font-family="Helvetica,sans-Serif" font-size="10.00" fill="#000000">vector</text>
</g>
<!-- Node1&#45;&gt;Node4 -->
<g id="edge4" class="edge">
<title>Node1&#45;&gt;Node4</title>
<path fill="none" stroke="#191970" d="M212.5787,-56.2977C221.3989,-47.4052 232.5541,-36.1586 241.6612,-26.9769"/>
<polygon fill="#191970" stroke="#191970" points="244.1759,-29.4116 248.7331,-19.8469 239.206,-24.4821 244.1759,-29.4116"/>
</g>
</g>
</svg>
