<?xml version="1.0" encoding="UTF-8" standalone="no"?>
<!DOCTYPE svg PUBLIC "-//W3C//DTD SVG 1.1//EN"
 "http://www.w3.org/Graphics/SVG/1.1/DTD/svg11.dtd">
<!-- Generated by graphviz version 2.40.1 (20161225.0304)
 -->
<!-- Title: Domain/Server/ServerUpdater.h Pages: 1 -->
<svg width="545pt" height="84pt"
 viewBox="0.00 0.00 545.00 84.00" xmlns="http://www.w3.org/2000/svg" xmlns:xlink="http://www.w3.org/1999/xlink">
<g id="graph0" class="graph" transform="scale(1 1) rotate(0) translate(4 80)">
<title>Domain/Server/ServerUpdater.h</title>
<polygon fill="#ffffff" stroke="transparent" points="-4,4 -4,-80 541,-80 541,4 -4,4"/>
<!-- Node3 -->
<g id="node1" class="node">
<title>Node3</title>
<polygon fill="#bfbfbf" stroke="#000000" points="191.5,-56.5 191.5,-75.5 347.5,-75.5 347.5,-56.5 191.5,-56.5"/>
<text text-anchor="middle" x="269.5" y="-63.5" font-family="Helvetica,sans-Serif" font-size="10.00" fill="#000000">Domain/Server/ServerUpdater.h</text>
</g>
<!-- Node4 -->
<g id="node2" class="node">
<title>Node4</title>
<g id="a_node2"><a xlink:href="$ServerDaemon_8cpp.html" xlink:title="Domain/Server/ServerDaemon.cpp">
<polygon fill="#ffffff" stroke="#000000" points="0,-.5 0,-19.5 169,-19.5 169,-.5 0,-.5"/>
<text text-anchor="middle" x="84.5" y="-7.5" font-family="Helvetica,sans-Serif" font-size="10.00" fill="#000000">Domain/Server/ServerDaemon.cpp</text>
</a>
</g>
</g>
<!-- Node3&#45;&gt;Node4 -->
<g id="edge1" class="edge">
<title>Node3&#45;&gt;Node4</title>
<path fill="none" stroke="#191970" d="M228.0603,-53.4561C194.1009,-43.1765 146.7703,-28.8494 115.8876,-19.5011"/>
<polygon fill="#191970" stroke="#191970" points="227.1122,-56.8259 237.6974,-56.3733 229.1403,-50.1261 227.1122,-56.8259"/>
</g>
<!-- Node5 -->
<g id="node3" class="node">
<title>Node5</title>
<g id="a_node3"><a xlink:href="$ServerFactory_8cpp.html" xlink:title="Domain/Server/ServerFactory.cpp">
<polygon fill="#ffffff" stroke="#000000" points="187,-.5 187,-19.5 352,-19.5 352,-.5 187,-.5"/>
<text text-anchor="middle" x="269.5" y="-7.5" font-family="Helvetica,sans-Serif" font-size="10.00" fill="#000000">Domain/Server/ServerFactory.cpp</text>
</a>
</g>
</g>
<!-- Node3&#45;&gt;Node5 -->
<g id="edge2" class="edge">
<title>Node3&#45;&gt;Node5</title>
<path fill="none" stroke="#191970" d="M269.5,-46.1575C269.5,-37.155 269.5,-26.9199 269.5,-19.6427"/>
<polygon fill="#191970" stroke="#191970" points="266.0001,-46.2455 269.5,-56.2455 273.0001,-46.2456 266.0001,-46.2455"/>
</g>
<!-- Node6 -->
<g id="node4" class="node">
<title>Node6</title>
<g id="a_node4"><a xlink:href="$ServerUpdater_8cpp.html" xlink:title="Domain/Server/ServerUpdater.cpp">
<polygon fill="#ffffff" stroke="#000000" points="370,-.5 370,-19.5 537,-19.5 537,-.5 370,-.5"/>
<text text-anchor="middle" x="453.5" y="-7.5" font-family="Helvetica,sans-Serif" font-size="10.00" fill="#000000">Domain/Server/ServerUpdater.cpp</text>
</a>
</g>
</g>
<!-- Node3&#45;&gt;Node6 -->
<g id="edge3" class="edge">
<title>Node3&#45;&gt;Node6</title>
<path fill="none" stroke="#191970" d="M310.7157,-53.4561C344.4916,-43.1765 391.5663,-28.8494 422.282,-19.5011"/>
<polygon fill="#191970" stroke="#191970" points="309.6784,-50.1132 301.1307,-56.3733 311.7166,-56.8099 309.6784,-50.1132"/>
</g>
</g>
</svg>
