<?xml version="1.0" encoding="UTF-8" standalone="no"?>
<!DOCTYPE svg PUBLIC "-//W3C//DTD SVG 1.1//EN"
 "http://www.w3.org/Graphics/SVG/1.1/DTD/svg11.dtd">
<!-- Generated by graphviz version 2.40.1 (20161225.0304)
 -->
<!-- Title: Domain/Server/ServerFactory.h Pages: 1 -->
<svg width="664pt" height="151pt"
 viewBox="0.00 0.00 663.50 151.00" xmlns="http://www.w3.org/2000/svg" xmlns:xlink="http://www.w3.org/1999/xlink">
<g id="graph0" class="graph" transform="scale(1 1) rotate(0) translate(4 147)">
<title>Domain/Server/ServerFactory.h</title>
<polygon fill="#ffffff" stroke="transparent" points="-4,4 -4,-147 659.5,-147 659.5,4 -4,4"/>
<!-- Node0 -->
<g id="node1" class="node">
<title>Node0</title>
<polygon fill="#bfbfbf" stroke="#000000" points="172,-123.5 172,-142.5 327,-142.5 327,-123.5 172,-123.5"/>
<text text-anchor="middle" x="249.5" y="-130.5" font-family="Helvetica,sans-Serif" font-size="10.00" fill="#000000">Domain/Server/ServerFactory.h</text>
</g>
<!-- Node1 -->
<g id="node2" class="node">
<title>Node1</title>
<g id="a_node2"><a xlink:href="$ForwardDeclarations_8h.html" xlink:title="Asteroids/ForwardDeclarations.h">
<polygon fill="#ffffff" stroke="#000000" points="170,-.5 170,-19.5 329,-19.5 329,-.5 170,-.5"/>
<text text-anchor="middle" x="249.5" y="-7.5" font-family="Helvetica,sans-Serif" font-size="10.00" fill="#000000">Asteroids/ForwardDeclarations.h</text>
</a>
</g>
</g>
<!-- Node0&#45;&gt;Node1 -->
<g id="edge1" class="edge">
<title>Node0&#45;&gt;Node1</title>
<path fill="none" stroke="#191970" d="M221.8041,-123.4275C205.4537,-116.1781 186.1261,-104.4435 176.5,-87 169.8432,-74.9371 169.8432,-68.0629 176.5,-56 184.3964,-41.6908 198.8211,-31.2233 212.7754,-23.9219"/>
<polygon fill="#191970" stroke="#191970" points="214.314,-27.0657 221.8041,-19.5725 211.276,-20.7593 214.314,-27.0657"/>
</g>
<!-- Node2 -->
<g id="node3" class="node">
<title>Node2</title>
<g id="a_node3"><a xlink:href="$ServerFactoryInterface_8h.html" xlink:title="Asteroids/Domain/Server\l/ServerFactoryInterface.h">
<polygon fill="#ffffff" stroke="#000000" points="185.5,-56.5 185.5,-86.5 313.5,-86.5 313.5,-56.5 185.5,-56.5"/>
<text text-anchor="start" x="193.5" y="-74.5" font-family="Helvetica,sans-Serif" font-size="10.00" fill="#000000">Asteroids/Domain/Server</text>
<text text-anchor="middle" x="249.5" y="-63.5" font-family="Helvetica,sans-Serif" font-size="10.00" fill="#000000">/ServerFactoryInterface.h</text>
</a>
</g>
</g>
<!-- Node0&#45;&gt;Node2 -->
<g id="edge2" class="edge">
<title>Node0&#45;&gt;Node2</title>
<path fill="none" stroke="#191970" d="M249.5,-123.3906C249.5,-116.2234 249.5,-106.0862 249.5,-96.671"/>
<polygon fill="#191970" stroke="#191970" points="253.0001,-96.5446 249.5,-86.5446 246.0001,-96.5446 253.0001,-96.5446"/>
</g>
<!-- Node4 -->
<g id="node5" class="node">
<title>Node4</title>
<g id="a_node5"><a xlink:href="$ServerDaemonInterface_8h.html" xlink:title="Asteroids/Domain/Server\l/ServerDaemonInterface.h">
<polygon fill="#ffffff" stroke="#000000" points="332,-56.5 332,-86.5 463,-86.5 463,-56.5 332,-56.5"/>
<text text-anchor="start" x="340" y="-74.5" font-family="Helvetica,sans-Serif" font-size="10.00" fill="#000000">Asteroids/Domain/Server</text>
<text text-anchor="middle" x="397.5" y="-63.5" font-family="Helvetica,sans-Serif" font-size="10.00" fill="#000000">/ServerDaemonInterface.h</text>
</a>
</g>
</g>
<!-- Node0&#45;&gt;Node4 -->
<g id="edge5" class="edge">
<title>Node0&#45;&gt;Node4</title>
<path fill="none" stroke="#191970" d="M272.625,-123.3906C293.7678,-114.6049 325.6497,-101.3567 351.9064,-90.446"/>
<polygon fill="#191970" stroke="#191970" points="353.4037,-93.614 361.2951,-86.5446 350.7176,-87.1499 353.4037,-93.614"/>
</g>
<!-- Node6 -->
<g id="node7" class="node">
<title>Node6</title>
<g id="a_node7"><a xlink:href="$ServerUpdaterInterface_8h.html" xlink:title="Asteroids/Domain/Server\l/ServerUpdaterInterface.h">
<polygon fill="#ffffff" stroke="#000000" points="0,-56.5 0,-86.5 129,-86.5 129,-56.5 0,-56.5"/>
<text text-anchor="start" x="8" y="-74.5" font-family="Helvetica,sans-Serif" font-size="10.00" fill="#000000">Asteroids/Domain/Server</text>
<text text-anchor="middle" x="64.5" y="-63.5" font-family="Helvetica,sans-Serif" font-size="10.00" fill="#000000">/ServerUpdaterInterface.h</text>
</a>
</g>
</g>
<!-- Node0&#45;&gt;Node6 -->
<g id="edge9" class="edge">
<title>Node0&#45;&gt;Node6</title>
<path fill="none" stroke="#191970" d="M220.5938,-123.3906C193.5857,-114.4123 152.5585,-100.7735 119.3431,-89.7316"/>
<polygon fill="#191970" stroke="#191970" points="120.3496,-86.378 109.7561,-86.5446 118.1414,-93.0205 120.3496,-86.378"/>
</g>
<!-- Node7 -->
<g id="node8" class="node">
<title>Node7</title>
<g id="a_node8"><a xlink:href="$HACCS__REPORT__INTERFACE_8h.html" xlink:title="Asteroids/Domain/Server\l/HACCS_REPORT_INTERFACE.h">
<polygon fill="#ffffff" stroke="#000000" points="481.5,-56.5 481.5,-86.5 655.5,-86.5 655.5,-56.5 481.5,-56.5"/>
<text text-anchor="start" x="489.5" y="-74.5" font-family="Helvetica,sans-Serif" font-size="10.00" fill="#000000">Asteroids/Domain/Server</text>
<text text-anchor="middle" x="568.5" y="-63.5" font-family="Helvetica,sans-Serif" font-size="10.00" fill="#000000">/HACCS_REPORT_INTERFACE.h</text>
</a>
</g>
</g>
<!-- Node0&#45;&gt;Node7 -->
<g id="edge11" class="edge">
<title>Node0&#45;&gt;Node7</title>
<path fill="none" stroke="#191970" d="M298.9937,-123.4581C347.3826,-114.1292 422.1085,-99.7228 480.6125,-88.4438"/>
<polygon fill="#191970" stroke="#191970" points="481.4384,-91.8491 490.595,-86.5193 480.1132,-84.9757 481.4384,-91.8491"/>
</g>
<!-- Node2&#45;&gt;Node1 -->
<g id="edge3" class="edge">
<title>Node2&#45;&gt;Node1</title>
<path fill="none" stroke="#191970" d="M249.5,-56.2977C249.5,-48.3834 249.5,-38.6043 249.5,-30.0759"/>
<polygon fill="#191970" stroke="#191970" points="253.0001,-29.8469 249.5,-19.8469 246.0001,-29.847 253.0001,-29.8469"/>
</g>
<!-- Node3 -->
<g id="node4" class="node">
<title>Node3</title>
<polygon fill="#ffffff" stroke="#bfbfbf" points="371.5,-.5 371.5,-19.5 423.5,-19.5 423.5,-.5 371.5,-.5"/>
<text text-anchor="middle" x="397.5" y="-7.5" font-family="Helvetica,sans-Serif" font-size="10.00" fill="#000000">memory</text>
</g>
<!-- Node2&#45;&gt;Node3 -->
<g id="edge4" class="edge">
<title>Node2&#45;&gt;Node3</title>
<path fill="none" stroke="#191970" d="M285.7049,-56.4554C309.9658,-46.374 341.6356,-33.2139 365.0712,-23.4755"/>
<polygon fill="#191970" stroke="#191970" points="366.6739,-26.5997 374.5653,-19.5303 363.9877,-20.1356 366.6739,-26.5997"/>
</g>
<!-- Node4&#45;&gt;Node1 -->
<g id="edge6" class="edge">
<title>Node4&#45;&gt;Node1</title>
<path fill="none" stroke="#191970" d="M361.2951,-56.4554C337.0342,-46.374 305.3644,-33.2139 281.9288,-23.4755"/>
<polygon fill="#191970" stroke="#191970" points="283.0123,-20.1356 272.4347,-19.5303 280.3261,-26.5997 283.0123,-20.1356"/>
</g>
<!-- Node4&#45;&gt;Node3 -->
<g id="edge7" class="edge">
<title>Node4&#45;&gt;Node3</title>
<path fill="none" stroke="#191970" d="M397.5,-56.2977C397.5,-48.3834 397.5,-38.6043 397.5,-30.0759"/>
<polygon fill="#191970" stroke="#191970" points="401.0001,-29.8469 397.5,-19.8469 394.0001,-29.847 401.0001,-29.8469"/>
</g>
<!-- Node5 -->
<g id="node6" class="node">
<title>Node5</title>
<polygon fill="#ffffff" stroke="#bfbfbf" points="465,-.5 465,-19.5 506,-19.5 506,-.5 465,-.5"/>
<text text-anchor="middle" x="485.5" y="-7.5" font-family="Helvetica,sans-Serif" font-size="10.00" fill="#000000">string</text>
</g>
<!-- Node4&#45;&gt;Node5 -->
<g id="edge8" class="edge">
<title>Node4&#45;&gt;Node5</title>
<path fill="none" stroke="#191970" d="M419.2528,-56.2977C432.6968,-46.9022 449.9011,-34.8787 463.4078,-25.4395"/>
<polygon fill="#191970" stroke="#191970" points="465.4811,-28.2605 471.6729,-19.6633 461.4712,-22.5228 465.4811,-28.2605"/>
</g>
<!-- Node6&#45;&gt;Node1 -->
<g id="edge10" class="edge">
<title>Node6&#45;&gt;Node1</title>
<path fill="none" stroke="#191970" d="M109.7561,-56.4554C140.8946,-46.104 181.7969,-32.5067 211.2955,-22.7004"/>
<polygon fill="#191970" stroke="#191970" points="212.4463,-26.0063 220.8316,-19.5303 210.238,-19.3637 212.4463,-26.0063"/>
</g>
<!-- Node7&#45;&gt;Node1 -->
<g id="edge12" class="edge">
<title>Node7&#45;&gt;Node1</title>
<path fill="none" stroke="#191970" d="M490.4638,-56.4554C434.4365,-45.6539 360.0774,-31.3182 308.857,-21.4434"/>
<polygon fill="#191970" stroke="#191970" points="309.4155,-17.9867 298.9337,-19.5303 308.0903,-24.8602 309.4155,-17.9867"/>
</g>
<!-- Node7&#45;&gt;Node3 -->
<g id="edge15" class="edge">
<title>Node7&#45;&gt;Node3</title>
<path fill="none" stroke="#191970" d="M526.6687,-56.4554C498.0488,-46.1623 460.5055,-32.6599 433.2754,-22.8666"/>
<polygon fill="#191970" stroke="#191970" points="434.34,-19.53 423.7455,-19.4392 431.9709,-26.117 434.34,-19.53"/>
</g>
<!-- Node7&#45;&gt;Node5 -->
<g id="edge13" class="edge">
<title>Node7&#45;&gt;Node5</title>
<path fill="none" stroke="#191970" d="M547.9831,-56.2977C535.5018,-47.0495 519.5841,-35.2551 506.9386,-25.8853"/>
<polygon fill="#191970" stroke="#191970" points="508.9078,-22.9882 498.7894,-19.8469 504.7404,-28.6126 508.9078,-22.9882"/>
</g>
<!-- Node8 -->
<g id="node9" class="node">
<title>Node8</title>
<polygon fill="#ffffff" stroke="#bfbfbf" points="546.5,-.5 546.5,-19.5 590.5,-19.5 590.5,-.5 546.5,-.5"/>
<text text-anchor="middle" x="568.5" y="-7.5" font-family="Helvetica,sans-Serif" font-size="10.00" fill="#000000">vector</text>
</g>
<!-- Node7&#45;&gt;Node8 -->
<g id="edge14" class="edge">
<title>Node7&#45;&gt;Node8</title>
<path fill="none" stroke="#191970" d="M568.5,-56.2977C568.5,-48.3834 568.5,-38.6043 568.5,-30.0759"/>
<polygon fill="#191970" stroke="#191970" points="572.0001,-29.8469 568.5,-19.8469 565.0001,-29.847 572.0001,-29.8469"/>
</g>
</g>
</svg>
