<?xml version="1.0" encoding="UTF-8" standalone="no"?>
<!DOCTYPE svg PUBLIC "-//W3C//DTD SVG 1.1//EN"
 "http://www.w3.org/Graphics/SVG/1.1/DTD/svg11.dtd">
<!-- Generated by graphviz version 2.40.1 (20161225.0304)
 -->
<!-- Title: UI/ServerTextUI/ServerTextUIInterface.h Pages: 1 -->
<svg width="304pt" height="162pt"
 viewBox="0.00 0.00 304.00 162.00" xmlns="http://www.w3.org/2000/svg" xmlns:xlink="http://www.w3.org/1999/xlink">
<g id="graph0" class="graph" transform="scale(1 1) rotate(0) translate(4 158)">
<title>UI/ServerTextUI/ServerTextUIInterface.h</title>
<polygon fill="#ffffff" stroke="transparent" points="-4,4 -4,-158 300,-158 300,4 -4,4"/>
<!-- Node2 -->
<g id="node1" class="node">
<title>Node2</title>
<polygon fill="#bfbfbf" stroke="#000000" points="43,-123.5 43,-153.5 183,-153.5 183,-123.5 43,-123.5"/>
<text text-anchor="start" x="51" y="-141.5" font-family="Helvetica,sans-Serif" font-size="10.00" fill="#000000">UI/ServerTextUI/ServerText</text>
<text text-anchor="middle" x="113" y="-130.5" font-family="Helvetica,sans-Serif" font-size="10.00" fill="#000000">UIInterface.h</text>
</g>
<!-- Node3 -->
<g id="node2" class="node">
<title>Node3</title>
<g id="a_node2"><a xlink:href="$main-server_8cpp.html" xlink:title="main&#45;server.cpp">
<polygon fill="#ffffff" stroke="#000000" points="0,-67.5 0,-86.5 86,-86.5 86,-67.5 0,-67.5"/>
<text text-anchor="middle" x="43" y="-74.5" font-family="Helvetica,sans-Serif" font-size="10.00" fill="#000000">main&#45;server.cpp</text>
</a>
</g>
</g>
<!-- Node2&#45;&gt;Node3 -->
<g id="edge1" class="edge">
<title>Node2&#45;&gt;Node3</title>
<path fill="none" stroke="#191970" d="M88.0156,-116.5494C76.4529,-106.3907 63.2976,-94.8329 54.2079,-86.8469"/>
<polygon fill="#191970" stroke="#191970" points="85.8741,-119.3269 95.6966,-123.2977 90.4942,-114.0681 85.8741,-119.3269"/>
</g>
<!-- Node4 -->
<g id="node3" class="node">
<title>Node4</title>
<g id="a_node3"><a xlink:href="$ServerTextUI_8h.html" xlink:title="UI/ServerTextUI/ServerTextUI.h">
<polygon fill="#ffffff" stroke="#000000" points="104,-67.5 104,-86.5 262,-86.5 262,-67.5 104,-67.5"/>
<text text-anchor="middle" x="183" y="-74.5" font-family="Helvetica,sans-Serif" font-size="10.00" fill="#000000">UI/ServerTextUI/ServerTextUI.h</text>
</a>
</g>
</g>
<!-- Node2&#45;&gt;Node4 -->
<g id="edge2" class="edge">
<title>Node2&#45;&gt;Node4</title>
<path fill="none" stroke="#191970" d="M137.9844,-116.5494C149.5471,-106.3907 162.7024,-94.8329 171.7921,-86.8469"/>
<polygon fill="#191970" stroke="#191970" points="135.5058,-114.0681 130.3034,-123.2977 140.1259,-119.3269 135.5058,-114.0681"/>
</g>
<!-- Node5 -->
<g id="node4" class="node">
<title>Node5</title>
<g id="a_node4"><a xlink:href="$ServerTextUI_8cpp.html" xlink:title="UI/ServerTextUI/ServerText\lUI.cpp">
<polygon fill="#ffffff" stroke="#000000" points="46,-.5 46,-30.5 186,-30.5 186,-.5 46,-.5"/>
<text text-anchor="start" x="54" y="-18.5" font-family="Helvetica,sans-Serif" font-size="10.00" fill="#000000">UI/ServerTextUI/ServerText</text>
<text text-anchor="middle" x="116" y="-7.5" font-family="Helvetica,sans-Serif" font-size="10.00" fill="#000000">UI.cpp</text>
</a>
</g>
</g>
<!-- Node4&#45;&gt;Node5 -->
<g id="edge3" class="edge">
<title>Node4&#45;&gt;Node5</title>
<path fill="none" stroke="#191970" d="M165.0108,-60.4875C154.8588,-51.1689 142.2679,-39.6116 132.39,-30.5446"/>
<polygon fill="#191970" stroke="#191970" points="162.7975,-63.2068 172.5313,-67.3906 167.531,-58.0499 162.7975,-63.2068"/>
</g>
<!-- Node6 -->
<g id="node5" class="node">
<title>Node6</title>
<g id="a_node5"><a xlink:href="$UIFactory_8cpp.html" xlink:title="UI/UIFactory.cpp">
<polygon fill="#ffffff" stroke="#000000" points="204,-6 204,-25 296,-25 296,-6 204,-6"/>
<text text-anchor="middle" x="250" y="-13" font-family="Helvetica,sans-Serif" font-size="10.00" fill="#000000">UI/UIFactory.cpp</text>
</a>
</g>
</g>
<!-- Node4&#45;&gt;Node6 -->
<g id="edge4" class="edge">
<title>Node4&#45;&gt;Node6</title>
<path fill="none" stroke="#191970" d="M200.9231,-60.5482C213.1993,-49.2798 229.0655,-34.716 239.3837,-25.2449"/>
<polygon fill="#191970" stroke="#191970" points="198.469,-58.0499 193.4688,-67.3906 203.2025,-63.2068 198.469,-58.0499"/>
</g>
</g>
</svg>
