<?xml version="1.0" encoding="UTF-8" standalone="no"?>
<!DOCTYPE svg PUBLIC "-//W3C//DTD SVG 1.1//EN"
 "http://www.w3.org/Graphics/SVG/1.1/DTD/svg11.dtd">
<!-- Generated by graphviz version 2.40.1 (20161225.0304)
 -->
<!-- Title: UI/ServerTextUI/ServerTextUI.h Pages: 1 -->
<svg width="258pt" height="95pt"
 viewBox="0.00 0.00 258.00 95.00" xmlns="http://www.w3.org/2000/svg" xmlns:xlink="http://www.w3.org/1999/xlink">
<g id="graph0" class="graph" transform="scale(1 1) rotate(0) translate(4 91)">
<title>UI/ServerTextUI/ServerTextUI.h</title>
<polygon fill="#ffffff" stroke="transparent" points="-4,4 -4,-91 254,-91 254,4 -4,4"/>
<!-- Node5 -->
<g id="node1" class="node">
<title>Node5</title>
<polygon fill="#bfbfbf" stroke="#000000" points="58,-67.5 58,-86.5 216,-86.5 216,-67.5 58,-67.5"/>
<text text-anchor="middle" x="137" y="-74.5" font-family="Helvetica,sans-Serif" font-size="10.00" fill="#000000">UI/ServerTextUI/ServerTextUI.h</text>
</g>
<!-- Node6 -->
<g id="node2" class="node">
<title>Node6</title>
<g id="a_node2"><a xlink:href="$ServerTextUI_8cpp.html" xlink:title="UI/ServerTextUI/ServerText\lUI.cpp">
<polygon fill="#ffffff" stroke="#000000" points="0,-.5 0,-30.5 140,-30.5 140,-.5 0,-.5"/>
<text text-anchor="start" x="8" y="-18.5" font-family="Helvetica,sans-Serif" font-size="10.00" fill="#000000">UI/ServerTextUI/ServerText</text>
<text text-anchor="middle" x="70" y="-7.5" font-family="Helvetica,sans-Serif" font-size="10.00" fill="#000000">UI.cpp</text>
</a>
</g>
</g>
<!-- Node5&#45;&gt;Node6 -->
<g id="edge1" class="edge">
<title>Node5&#45;&gt;Node6</title>
<path fill="none" stroke="#191970" d="M119.0108,-60.4875C108.8588,-51.1689 96.2679,-39.6116 86.39,-30.5446"/>
<polygon fill="#191970" stroke="#191970" points="116.7975,-63.2068 126.5313,-67.3906 121.531,-58.0499 116.7975,-63.2068"/>
</g>
<!-- Node7 -->
<g id="node3" class="node">
<title>Node7</title>
<g id="a_node3"><a xlink:href="$UIFactory_8cpp.html" xlink:title="UI/UIFactory.cpp">
<polygon fill="#ffffff" stroke="#000000" points="158,-6 158,-25 250,-25 250,-6 158,-6"/>
<text text-anchor="middle" x="204" y="-13" font-family="Helvetica,sans-Serif" font-size="10.00" fill="#000000">UI/UIFactory.cpp</text>
</a>
</g>
</g>
<!-- Node5&#45;&gt;Node7 -->
<g id="edge2" class="edge">
<title>Node5&#45;&gt;Node7</title>
<path fill="none" stroke="#191970" d="M154.9231,-60.5482C167.1993,-49.2798 183.0655,-34.716 193.3837,-25.2449"/>
<polygon fill="#191970" stroke="#191970" points="152.469,-58.0499 147.4688,-67.3906 157.2025,-63.2068 152.469,-58.0499"/>
</g>
</g>
</svg>
