<?xml version="1.0" encoding="UTF-8" standalone="no"?>
<!DOCTYPE svg PUBLIC "-//W3C//DTD SVG 1.1//EN"
 "http://www.w3.org/Graphics/SVG/1.1/DTD/svg11.dtd">
<!-- Generated by graphviz version 2.40.1 (20161225.0304)
 -->
<!-- Title: Domain/Server/ServerFactoryInterface.h Pages: 1 -->
<svg width="509pt" height="162pt"
 viewBox="0.00 0.00 508.50 162.00" xmlns="http://www.w3.org/2000/svg" xmlns:xlink="http://www.w3.org/1999/xlink">
<g id="graph0" class="graph" transform="scale(1 1) rotate(0) translate(4 158)">
<title>Domain/Server/ServerFactoryInterface.h</title>
<polygon fill="#ffffff" stroke="transparent" points="-4,4 -4,-158 504.5,-158 504.5,4 -4,4"/>
<!-- Node3 -->
<g id="node1" class="node">
<title>Node3</title>
<polygon fill="#bfbfbf" stroke="#000000" points="191.5,-123.5 191.5,-153.5 337.5,-153.5 337.5,-123.5 191.5,-123.5"/>
<text text-anchor="start" x="199.5" y="-141.5" font-family="Helvetica,sans-Serif" font-size="10.00" fill="#000000">Domain/Server/ServerFactory</text>
<text text-anchor="middle" x="264.5" y="-130.5" font-family="Helvetica,sans-Serif" font-size="10.00" fill="#000000">Interface.h</text>
</g>
<!-- Node4 -->
<g id="node2" class="node">
<title>Node4</title>
<g id="a_node2"><a xlink:href="$ServerDaemon_8cpp.html" xlink:title="Domain/Server/ServerDaemon.cpp">
<polygon fill="#ffffff" stroke="#000000" points="0,-62 0,-81 169,-81 169,-62 0,-62"/>
<text text-anchor="middle" x="84.5" y="-69" font-family="Helvetica,sans-Serif" font-size="10.00" fill="#000000">Domain/Server/ServerDaemon.cpp</text>
</a>
</g>
</g>
<!-- Node3&#45;&gt;Node4 -->
<g id="edge1" class="edge">
<title>Node3&#45;&gt;Node4</title>
<path fill="none" stroke="#191970" d="M214.3633,-119.838C180.4511,-107.2151 137.0758,-91.0699 110.0366,-81.0053"/>
<polygon fill="#191970" stroke="#191970" points="213.5117,-123.2556 224.1045,-123.4639 215.9536,-116.6953 213.5117,-123.2556"/>
</g>
<!-- Node5 -->
<g id="node3" class="node">
<title>Node5</title>
<g id="a_node3"><a xlink:href="$ServerFactory_8h.html" xlink:title="Domain/Server/ServerFactory.h">
<polygon fill="#ffffff" stroke="#000000" points="187,-62 187,-81 342,-81 342,-62 187,-62"/>
<text text-anchor="middle" x="264.5" y="-69" font-family="Helvetica,sans-Serif" font-size="10.00" fill="#000000">Domain/Server/ServerFactory.h</text>
</a>
</g>
</g>
<!-- Node3&#45;&gt;Node5 -->
<g id="edge2" class="edge">
<title>Node3&#45;&gt;Node5</title>
<path fill="none" stroke="#191970" d="M264.5,-113.1199C264.5,-101.9072 264.5,-89.4031 264.5,-81.055"/>
<polygon fill="#191970" stroke="#191970" points="261.0001,-113.2966 264.5,-123.2967 268.0001,-113.2967 261.0001,-113.2966"/>
</g>
<!-- Node8 -->
<g id="node6" class="node">
<title>Node8</title>
<g id="a_node6"><a xlink:href="$ServerTextUI_8cpp.html" xlink:title="UI/ServerTextUI/ServerText\lUI.cpp">
<polygon fill="#ffffff" stroke="#000000" points="360.5,-56.5 360.5,-86.5 500.5,-86.5 500.5,-56.5 360.5,-56.5"/>
<text text-anchor="start" x="368.5" y="-74.5" font-family="Helvetica,sans-Serif" font-size="10.00" fill="#000000">UI/ServerTextUI/ServerText</text>
<text text-anchor="middle" x="430.5" y="-63.5" font-family="Helvetica,sans-Serif" font-size="10.00" fill="#000000">UI.cpp</text>
</a>
</g>
</g>
<!-- Node3&#45;&gt;Node8 -->
<g id="edge5" class="edge">
<title>Node3&#45;&gt;Node8</title>
<path fill="none" stroke="#191970" d="M311.3525,-119.5897C337.2135,-109.1518 368.8931,-96.3654 393.0839,-86.6017"/>
<polygon fill="#191970" stroke="#191970" points="309.7168,-116.4754 301.7536,-123.4639 312.3368,-122.9667 309.7168,-116.4754"/>
</g>
<!-- Node6 -->
<g id="node4" class="node">
<title>Node6</title>
<g id="a_node4"><a xlink:href="$Factory_8cpp.html" xlink:title="Domain/Factory/Factory.cpp">
<polygon fill="#ffffff" stroke="#000000" points="108,-.5 108,-19.5 249,-19.5 249,-.5 108,-.5"/>
<text text-anchor="middle" x="178.5" y="-7.5" font-family="Helvetica,sans-Serif" font-size="10.00" fill="#000000">Domain/Factory/Factory.cpp</text>
</a>
</g>
</g>
<!-- Node5&#45;&gt;Node6 -->
<g id="edge3" class="edge">
<title>Node5&#45;&gt;Node6</title>
<path fill="none" stroke="#191970" d="M242.7812,-55.9685C226.7491,-44.5037 205.4396,-29.265 191.8431,-19.5419"/>
<polygon fill="#191970" stroke="#191970" points="240.8924,-58.9207 251.0625,-61.8906 244.9643,-53.2268 240.8924,-58.9207"/>
</g>
<!-- Node7 -->
<g id="node5" class="node">
<title>Node7</title>
<g id="a_node5"><a xlink:href="$ServerFactory_8cpp.html" xlink:title="Domain/Server/ServerFactory.cpp">
<polygon fill="#ffffff" stroke="#000000" points="267,-.5 267,-19.5 432,-19.5 432,-.5 267,-.5"/>
<text text-anchor="middle" x="349.5" y="-7.5" font-family="Helvetica,sans-Serif" font-size="10.00" fill="#000000">Domain/Server/ServerFactory.cpp</text>
</a>
</g>
</g>
<!-- Node5&#45;&gt;Node7 -->
<g id="edge4" class="edge">
<title>Node5&#45;&gt;Node7</title>
<path fill="none" stroke="#191970" d="M285.9662,-55.9685C301.8119,-44.5037 322.8736,-29.265 336.312,-19.5419"/>
<polygon fill="#191970" stroke="#191970" points="283.8314,-53.1931 277.7813,-61.8906 287.9347,-58.8643 283.8314,-53.1931"/>
</g>
</g>
</svg>
