<?xml version="1.0" encoding="UTF-8" standalone="no"?>
<!DOCTYPE svg PUBLIC "-//W3C//DTD SVG 1.1//EN"
 "http://www.w3.org/Graphics/SVG/1.1/DTD/svg11.dtd">
<!-- Generated by graphviz version 2.40.1 (20161225.0304)
 -->
<!-- Title: Domain/Server/ServerUpdaterInterface.h Pages: 1 -->
<svg width="704pt" height="151pt"
 viewBox="0.00 0.00 704.00 151.00" xmlns="http://www.w3.org/2000/svg" xmlns:xlink="http://www.w3.org/1999/xlink">
<g id="graph0" class="graph" transform="scale(1 1) rotate(0) translate(4 147)">
<title>Domain/Server/ServerUpdaterInterface.h</title>
<polygon fill="#ffffff" stroke="transparent" points="-4,4 -4,-147 700,-147 700,4 -4,4"/>
<!-- Node2 -->
<g id="node1" class="node">
<title>Node2</title>
<polygon fill="#bfbfbf" stroke="#000000" points="254.5,-112.5 254.5,-142.5 402.5,-142.5 402.5,-112.5 254.5,-112.5"/>
<text text-anchor="start" x="262.5" y="-130.5" font-family="Helvetica,sans-Serif" font-size="10.00" fill="#000000">Domain/Server/ServerUpdater</text>
<text text-anchor="middle" x="328.5" y="-119.5" font-family="Helvetica,sans-Serif" font-size="10.00" fill="#000000">Interface.h</text>
</g>
<!-- Node3 -->
<g id="node2" class="node">
<title>Node3</title>
<g id="a_node2"><a xlink:href="$ServerFactory_8h.html" xlink:title="Domain/Server/ServerFactory.h">
<polygon fill="#ffffff" stroke="#000000" points="164,-56.5 164,-75.5 319,-75.5 319,-56.5 164,-56.5"/>
<text text-anchor="middle" x="241.5" y="-63.5" font-family="Helvetica,sans-Serif" font-size="10.00" fill="#000000">Domain/Server/ServerFactory.h</text>
</a>
</g>
</g>
<!-- Node2&#45;&gt;Node3 -->
<g id="edge1" class="edge">
<title>Node2&#45;&gt;Node3</title>
<path fill="none" stroke="#191970" d="M298.6325,-106.3868C283.8733,-95.9535 266.7849,-83.8738 255.17,-75.6633"/>
<polygon fill="#191970" stroke="#191970" points="296.8082,-109.3834 306.9944,-112.2977 300.8489,-103.6673 296.8082,-109.3834"/>
</g>
<!-- Node6 -->
<g id="node5" class="node">
<title>Node6</title>
<g id="a_node5"><a xlink:href="$ServerUpdater_8h.html" xlink:title="Domain/Server/ServerUpdater.h">
<polygon fill="#ffffff" stroke="#000000" points="342.5,-56.5 342.5,-75.5 498.5,-75.5 498.5,-56.5 342.5,-56.5"/>
<text text-anchor="middle" x="420.5" y="-63.5" font-family="Helvetica,sans-Serif" font-size="10.00" fill="#000000">Domain/Server/ServerUpdater.h</text>
</a>
</g>
</g>
<!-- Node2&#45;&gt;Node6 -->
<g id="edge4" class="edge">
<title>Node2&#45;&gt;Node6</title>
<path fill="none" stroke="#191970" d="M359.6471,-106.6789C375.3532,-96.1797 393.6472,-83.9505 406.0444,-75.6633"/>
<polygon fill="#191970" stroke="#191970" points="357.61,-103.8305 351.2416,-112.2977 361.5003,-109.65 357.61,-103.8305"/>
</g>
<!-- Node4 -->
<g id="node3" class="node">
<title>Node4</title>
<g id="a_node3"><a xlink:href="$Factory_8cpp.html" xlink:title="Domain/Factory/Factory.cpp">
<polygon fill="#ffffff" stroke="#000000" points="0,-.5 0,-19.5 141,-19.5 141,-.5 0,-.5"/>
<text text-anchor="middle" x="70.5" y="-7.5" font-family="Helvetica,sans-Serif" font-size="10.00" fill="#000000">Domain/Factory/Factory.cpp</text>
</a>
</g>
</g>
<!-- Node3&#45;&gt;Node4 -->
<g id="edge2" class="edge">
<title>Node3&#45;&gt;Node4</title>
<path fill="none" stroke="#191970" d="M202.3852,-53.1905C171.0568,-42.9309 127.8129,-28.7691 99.5124,-19.5011"/>
<polygon fill="#191970" stroke="#191970" points="201.5114,-56.5872 212.1041,-56.3733 203.69,-49.9348 201.5114,-56.5872"/>
</g>
<!-- Node5 -->
<g id="node4" class="node">
<title>Node5</title>
<g id="a_node4"><a xlink:href="$ServerFactory_8cpp.html" xlink:title="Domain/Server/ServerFactory.cpp">
<polygon fill="#ffffff" stroke="#000000" points="159,-.5 159,-19.5 324,-19.5 324,-.5 159,-.5"/>
<text text-anchor="middle" x="241.5" y="-7.5" font-family="Helvetica,sans-Serif" font-size="10.00" fill="#000000">Domain/Server/ServerFactory.cpp</text>
</a>
</g>
</g>
<!-- Node3&#45;&gt;Node5 -->
<g id="edge3" class="edge">
<title>Node3&#45;&gt;Node5</title>
<path fill="none" stroke="#191970" d="M241.5,-46.1575C241.5,-37.155 241.5,-26.9199 241.5,-19.6427"/>
<polygon fill="#191970" stroke="#191970" points="238.0001,-46.2455 241.5,-56.2455 245.0001,-46.2456 238.0001,-46.2455"/>
</g>
<!-- Node6&#45;&gt;Node5 -->
<g id="edge6" class="edge">
<title>Node6&#45;&gt;Node5</title>
<path fill="none" stroke="#191970" d="M379.9805,-53.3235C347.1534,-43.0536 301.6224,-28.8093 271.8697,-19.5011"/>
<polygon fill="#191970" stroke="#191970" points="379.1399,-56.7278 389.7288,-56.3733 381.23,-50.0471 379.1399,-56.7278"/>
</g>
<!-- Node7 -->
<g id="node6" class="node">
<title>Node7</title>
<g id="a_node6"><a xlink:href="$ServerDaemon_8cpp.html" xlink:title="Domain/Server/ServerDaemon.cpp">
<polygon fill="#ffffff" stroke="#000000" points="342,-.5 342,-19.5 511,-19.5 511,-.5 342,-.5"/>
<text text-anchor="middle" x="426.5" y="-7.5" font-family="Helvetica,sans-Serif" font-size="10.00" fill="#000000">Domain/Server/ServerDaemon.cpp</text>
</a>
</g>
</g>
<!-- Node6&#45;&gt;Node7 -->
<g id="edge5" class="edge">
<title>Node6&#45;&gt;Node7</title>
<path fill="none" stroke="#191970" d="M422.626,-46.1575C423.5905,-37.155 424.6872,-26.9199 425.4669,-19.6427"/>
<polygon fill="#191970" stroke="#191970" points="419.1305,-45.9296 421.5451,-56.2455 426.0906,-46.6753 419.1305,-45.9296"/>
</g>
<!-- Node8 -->
<g id="node7" class="node">
<title>Node8</title>
<g id="a_node7"><a xlink:href="$ServerUpdater_8cpp.html" xlink:title="Domain/Server/ServerUpdater.cpp">
<polygon fill="#ffffff" stroke="#000000" points="529,-.5 529,-19.5 696,-19.5 696,-.5 529,-.5"/>
<text text-anchor="middle" x="612.5" y="-7.5" font-family="Helvetica,sans-Serif" font-size="10.00" fill="#000000">Domain/Server/ServerUpdater.cpp</text>
</a>
</g>
</g>
<!-- Node6&#45;&gt;Node8 -->
<g id="edge7" class="edge">
<title>Node6&#45;&gt;Node8</title>
<path fill="none" stroke="#191970" d="M463.5077,-53.4561C498.7521,-43.1765 547.8736,-28.8494 579.9247,-19.5011"/>
<polygon fill="#191970" stroke="#191970" points="462.126,-50.2132 453.506,-56.3733 464.086,-56.9332 462.126,-50.2132"/>
</g>
</g>
</svg>
