<?xml version="1.0" encoding="UTF-8" standalone="no"?>
<!DOCTYPE svg PUBLIC "-//W3C//DTD SVG 1.1//EN"
 "http://www.w3.org/Graphics/SVG/1.1/DTD/svg11.dtd">
<!-- Generated by graphviz version 2.40.1 (20161225.0304)
 -->
<!-- Title: TechnicalServices/Social/SocialMedia.h Pages: 1 -->
<svg width="359pt" height="162pt"
 viewBox="0.00 0.00 358.50 162.00" xmlns="http://www.w3.org/2000/svg" xmlns:xlink="http://www.w3.org/1999/xlink">
<g id="graph0" class="graph" transform="scale(1 1) rotate(0) translate(4 158)">
<title>TechnicalServices/Social/SocialMedia.h</title>
<polygon fill="#ffffff" stroke="transparent" points="-4,4 -4,-158 354.5,-158 354.5,4 -4,4"/>
<!-- Node0 -->
<g id="node1" class="node">
<title>Node0</title>
<polygon fill="#bfbfbf" stroke="#000000" points="108,-123.5 108,-153.5 235,-153.5 235,-123.5 108,-123.5"/>
<text text-anchor="start" x="116" y="-141.5" font-family="Helvetica,sans-Serif" font-size="10.00" fill="#000000">TechnicalServices/Social</text>
<text text-anchor="middle" x="171.5" y="-130.5" font-family="Helvetica,sans-Serif" font-size="10.00" fill="#000000">/SocialMedia.h</text>
</g>
<!-- Node1 -->
<g id="node2" class="node">
<title>Node1</title>
<g id="a_node2"><a xlink:href="$ForwardDeclarations_8h.html" xlink:title="Asteroids/ForwardDeclarations.h">
<polygon fill="#ffffff" stroke="#000000" points="0,-.5 0,-19.5 159,-19.5 159,-.5 0,-.5"/>
<text text-anchor="middle" x="79.5" y="-7.5" font-family="Helvetica,sans-Serif" font-size="10.00" fill="#000000">Asteroids/ForwardDeclarations.h</text>
</a>
</g>
</g>
<!-- Node0&#45;&gt;Node1 -->
<g id="edge1" class="edge">
<title>Node0&#45;&gt;Node1</title>
<path fill="none" stroke="#191970" d="M159.3287,-123.3786C151.26,-113.222 140.5356,-99.4665 131.5,-87 117.2322,-67.3146 101.7403,-44.1187 91.4112,-28.3694"/>
<polygon fill="#191970" stroke="#191970" points="94.1001,-26.0854 85.7041,-19.6234 88.2378,-29.9108 94.1001,-26.0854"/>
</g>
<!-- Node2 -->
<g id="node3" class="node">
<title>Node2</title>
<g id="a_node3"><a xlink:href="$SocialMediaInterface_8h.html" xlink:title="Asteroids/TechnicalServices\l/Social/SocialMediaInterface.h">
<polygon fill="#ffffff" stroke="#000000" points="148,-56.5 148,-86.5 297,-86.5 297,-56.5 148,-56.5"/>
<text text-anchor="start" x="156" y="-74.5" font-family="Helvetica,sans-Serif" font-size="10.00" fill="#000000">Asteroids/TechnicalServices</text>
<text text-anchor="middle" x="222.5" y="-63.5" font-family="Helvetica,sans-Serif" font-size="10.00" fill="#000000">/Social/SocialMediaInterface.h</text>
</a>
</g>
</g>
<!-- Node0&#45;&gt;Node2 -->
<g id="edge2" class="edge">
<title>Node0&#45;&gt;Node2</title>
<path fill="none" stroke="#191970" d="M183.0727,-123.2967C189.4629,-114.9016 197.5365,-104.2952 204.711,-94.8698"/>
<polygon fill="#191970" stroke="#191970" points="207.7012,-96.7201 210.9731,-86.6432 202.1312,-92.4803 207.7012,-96.7201"/>
</g>
<!-- Node3 -->
<g id="node4" class="node">
<title>Node3</title>
<polygon fill="#ffffff" stroke="#bfbfbf" points="177,-.5 177,-19.5 218,-19.5 218,-.5 177,-.5"/>
<text text-anchor="middle" x="197.5" y="-7.5" font-family="Helvetica,sans-Serif" font-size="10.00" fill="#000000">string</text>
</g>
<!-- Node0&#45;&gt;Node3 -->
<g id="edge7" class="edge">
<title>Node0&#45;&gt;Node3</title>
<path fill="none" stroke="#191970" d="M158.0635,-123.2893C144.9527,-106.4981 128.4712,-78.8233 139.5,-56 145.7828,-42.9981 157.7235,-32.5481 169.1451,-24.9145"/>
<polygon fill="#191970" stroke="#191970" points="171.0177,-27.8718 177.6759,-19.6305 167.3316,-21.9209 171.0177,-27.8718"/>
</g>
<!-- Node5 -->
<g id="node6" class="node">
<title>Node5</title>
<polygon fill="#ffffff" stroke="#bfbfbf" points="298.5,-.5 298.5,-19.5 350.5,-19.5 350.5,-.5 298.5,-.5"/>
<text text-anchor="middle" x="324.5" y="-7.5" font-family="Helvetica,sans-Serif" font-size="10.00" fill="#000000">memory</text>
</g>
<!-- Node0&#45;&gt;Node5 -->
<g id="edge8" class="edge">
<title>Node0&#45;&gt;Node5</title>
<path fill="none" stroke="#191970" d="M235.0844,-127.7328C260.6188,-120.325 288.2643,-107.8758 306.5,-87 320.2225,-71.2908 323.9967,-47.1054 324.7976,-30.0387"/>
<polygon fill="#191970" stroke="#191970" points="328.3048,-29.6062 324.9628,-19.5523 321.3057,-29.4959 328.3048,-29.6062"/>
</g>
<!-- Node2&#45;&gt;Node1 -->
<g id="edge3" class="edge">
<title>Node2&#45;&gt;Node1</title>
<path fill="none" stroke="#191970" d="M187.5183,-56.4554C164.1816,-46.419 133.7502,-33.3314 111.137,-23.6061"/>
<polygon fill="#191970" stroke="#191970" points="112.2292,-20.2659 101.6599,-19.5303 109.4636,-26.6965 112.2292,-20.2659"/>
</g>
<!-- Node2&#45;&gt;Node3 -->
<g id="edge4" class="edge">
<title>Node2&#45;&gt;Node3</title>
<path fill="none" stroke="#191970" d="M216.3202,-56.2977C212.9946,-48.1166 208.8589,-37.943 205.3121,-29.2179"/>
<polygon fill="#191970" stroke="#191970" points="208.511,-27.7927 201.5028,-19.8469 202.0263,-30.4288 208.511,-27.7927"/>
</g>
<!-- Node4 -->
<g id="node5" class="node">
<title>Node4</title>
<polygon fill="#ffffff" stroke="#bfbfbf" points="236.5,-.5 236.5,-19.5 280.5,-19.5 280.5,-.5 236.5,-.5"/>
<text text-anchor="middle" x="258.5" y="-7.5" font-family="Helvetica,sans-Serif" font-size="10.00" fill="#000000">vector</text>
</g>
<!-- Node2&#45;&gt;Node4 -->
<g id="edge5" class="edge">
<title>Node2&#45;&gt;Node4</title>
<path fill="none" stroke="#191970" d="M231.3989,-56.2977C236.2919,-47.9388 242.4026,-37.4997 247.5824,-28.6509"/>
<polygon fill="#191970" stroke="#191970" points="250.7047,-30.2452 252.7359,-19.8469 244.6635,-26.7089 250.7047,-30.2452"/>
</g>
<!-- Node2&#45;&gt;Node5 -->
<g id="edge6" class="edge">
<title>Node2&#45;&gt;Node5</title>
<path fill="none" stroke="#191970" d="M247.452,-56.4554C263.4259,-46.8241 284.0602,-34.3828 299.9543,-24.7996"/>
<polygon fill="#191970" stroke="#191970" points="301.937,-27.6912 308.6936,-19.5303 298.3226,-21.6965 301.937,-27.6912"/>
</g>
</g>
</svg>
