<?xml version="1.0" encoding="UTF-8" standalone="no"?>
<!DOCTYPE svg PUBLIC "-//W3C//DTD SVG 1.1//EN"
 "http://www.w3.org/Graphics/SVG/1.1/DTD/svg11.dtd">
<!-- Generated by graphviz version 2.40.1 (20161225.0304)
 -->
<!-- Title: Domain/Store/STORE_ITEM.h Pages: 1 -->
<svg width="262pt" height="106pt"
 viewBox="0.00 0.00 262.00 106.00" xmlns="http://www.w3.org/2000/svg" xmlns:xlink="http://www.w3.org/1999/xlink">
<g id="graph0" class="graph" transform="scale(1 1) rotate(0) translate(4 102)">
<title>Domain/Store/STORE_ITEM.h</title>
<polygon fill="#ffffff" stroke="transparent" points="-4,4 -4,-102 258,-102 258,4 -4,4"/>
<!-- Node5 -->
<g id="node1" class="node">
<title>Node5</title>
<polygon fill="#bfbfbf" stroke="#000000" points="72,-67.5 72,-97.5 186,-97.5 186,-67.5 72,-67.5"/>
<text text-anchor="start" x="80" y="-85.5" font-family="Helvetica,sans-Serif" font-size="10.00" fill="#000000">Domain/Store/STORE</text>
<text text-anchor="middle" x="129" y="-74.5" font-family="Helvetica,sans-Serif" font-size="10.00" fill="#000000">_ITEM.h</text>
</g>
<!-- Node6 -->
<g id="node2" class="node">
<title>Node6</title>
<g id="a_node2"><a xlink:href="$Store_8cpp.html" xlink:title="Domain/Store/Store.cpp">
<polygon fill="#ffffff" stroke="#000000" points="0,-6 0,-25 122,-25 122,-6 0,-6"/>
<text text-anchor="middle" x="61" y="-13" font-family="Helvetica,sans-Serif" font-size="10.00" fill="#000000">Domain/Store/Store.cpp</text>
</a>
</g>
</g>
<!-- Node5&#45;&gt;Node6 -->
<g id="edge1" class="edge">
<title>Node5&#45;&gt;Node6</title>
<path fill="none" stroke="#191970" d="M106.3705,-60.2032C94.2524,-48.2634 79.9564,-34.1776 70.6976,-25.055"/>
<polygon fill="#191970" stroke="#191970" points="103.99,-62.7713 113.5697,-67.2967 108.903,-57.785 103.99,-62.7713"/>
</g>
<!-- Node7 -->
<g id="node3" class="node">
<title>Node7</title>
<g id="a_node3"><a xlink:href="$STORE__ITEM_8cpp.html" xlink:title="Domain/Store/STORE\l_ITEM.cpp">
<polygon fill="#ffffff" stroke="#000000" points="140,-.5 140,-30.5 254,-30.5 254,-.5 140,-.5"/>
<text text-anchor="start" x="148" y="-18.5" font-family="Helvetica,sans-Serif" font-size="10.00" fill="#000000">Domain/Store/STORE</text>
<text text-anchor="middle" x="197" y="-7.5" font-family="Helvetica,sans-Serif" font-size="10.00" fill="#000000">_ITEM.cpp</text>
</a>
</g>
</g>
<!-- Node5&#45;&gt;Node7 -->
<g id="edge2" class="edge">
<title>Node5&#45;&gt;Node7</title>
<path fill="none" stroke="#191970" d="M151.6214,-60.2113C161.4767,-50.5009 172.7739,-39.3698 181.6308,-30.6432"/>
<polygon fill="#191970" stroke="#191970" points="149.097,-57.785 144.4303,-67.2967 154.01,-62.7713 149.097,-57.785"/>
</g>
</g>
</svg>
