<?xml version="1.0" encoding="UTF-8" standalone="no"?>
<!DOCTYPE svg PUBLIC "-//W3C//DTD SVG 1.1//EN"
 "http://www.w3.org/Graphics/SVG/1.1/DTD/svg11.dtd">
<!-- Generated by graphviz version 2.40.1 (20161225.0304)
 -->
<!-- Title: Domain/Store/STORE_ITEM.cpp Pages: 1 -->
<svg width="346pt" height="229pt"
 viewBox="0.00 0.00 346.00 229.00" xmlns="http://www.w3.org/2000/svg" xmlns:xlink="http://www.w3.org/1999/xlink">
<g id="graph0" class="graph" transform="scale(1 1) rotate(0) translate(4 225)">
<title>Domain/Store/STORE_ITEM.cpp</title>
<polygon fill="#ffffff" stroke="transparent" points="-4,4 -4,-225 342,-225 342,4 -4,4"/>
<!-- Node0 -->
<g id="node1" class="node">
<title>Node0</title>
<polygon fill="#bfbfbf" stroke="#000000" points="152.5,-190.5 152.5,-220.5 266.5,-220.5 266.5,-190.5 152.5,-190.5"/>
<text text-anchor="start" x="160.5" y="-208.5" font-family="Helvetica,sans-Serif" font-size="10.00" fill="#000000">Domain/Store/STORE</text>
<text text-anchor="middle" x="209.5" y="-197.5" font-family="Helvetica,sans-Serif" font-size="10.00" fill="#000000">_ITEM.cpp</text>
</g>
<!-- Node1 -->
<g id="node2" class="node">
<title>Node1</title>
<g id="a_node2"><a xlink:href="$STORE__ITEM_8h.html" xlink:title="Asteroids/Domain/Store\l/STORE_ITEM.h">
<polygon fill="#ffffff" stroke="#000000" points="44,-123.5 44,-153.5 165,-153.5 165,-123.5 44,-123.5"/>
<text text-anchor="start" x="52" y="-141.5" font-family="Helvetica,sans-Serif" font-size="10.00" fill="#000000">Asteroids/Domain/Store</text>
<text text-anchor="middle" x="104.5" y="-130.5" font-family="Helvetica,sans-Serif" font-size="10.00" fill="#000000">/STORE_ITEM.h</text>
</a>
</g>
</g>
<!-- Node0&#45;&gt;Node1 -->
<g id="edge1" class="edge">
<title>Node0&#45;&gt;Node1</title>
<path fill="none" stroke="#191970" d="M185.936,-190.4639C171.4473,-181.2188 152.6828,-169.2452 136.8183,-159.1222"/>
<polygon fill="#191970" stroke="#191970" points="138.6614,-156.1464 128.3487,-153.7177 134.896,-162.0474 138.6614,-156.1464"/>
</g>
<!-- Node6 -->
<g id="node7" class="node">
<title>Node6</title>
<polygon fill="#ffffff" stroke="#bfbfbf" points="183.5,-129 183.5,-148 235.5,-148 235.5,-129 183.5,-129"/>
<text text-anchor="middle" x="209.5" y="-136" font-family="Helvetica,sans-Serif" font-size="10.00" fill="#000000">sstream</text>
</g>
<!-- Node0&#45;&gt;Node6 -->
<g id="edge7" class="edge">
<title>Node0&#45;&gt;Node6</title>
<path fill="none" stroke="#191970" d="M209.5,-190.2967C209.5,-180.7699 209.5,-168.3954 209.5,-158.1306"/>
<polygon fill="#191970" stroke="#191970" points="213.0001,-158.0549 209.5,-148.055 206.0001,-158.055 213.0001,-158.0549"/>
</g>
<!-- Node7 -->
<g id="node8" class="node">
<title>Node7</title>
<polygon fill="#ffffff" stroke="#bfbfbf" points="253.5,-129 253.5,-148 303.5,-148 303.5,-129 253.5,-129"/>
<text text-anchor="middle" x="278.5" y="-136" font-family="Helvetica,sans-Serif" font-size="10.00" fill="#000000">iomanip</text>
</g>
<!-- Node0&#45;&gt;Node7 -->
<g id="edge8" class="edge">
<title>Node0&#45;&gt;Node7</title>
<path fill="none" stroke="#191970" d="M225.1572,-190.2967C235.9077,-179.8578 250.1794,-165.9997 261.2555,-155.2446"/>
<polygon fill="#191970" stroke="#191970" points="263.9237,-157.5323 268.6598,-148.055 259.0473,-152.5103 263.9237,-157.5323"/>
</g>
<!-- Node2 -->
<g id="node3" class="node">
<title>Node2</title>
<g id="a_node3"><a xlink:href="$ForwardDeclarations_8h.html" xlink:title="Asteroids/ForwardDeclarations.h">
<polygon fill="#ffffff" stroke="#000000" points="0,-.5 0,-19.5 159,-19.5 159,-.5 0,-.5"/>
<text text-anchor="middle" x="79.5" y="-7.5" font-family="Helvetica,sans-Serif" font-size="10.00" fill="#000000">Asteroids/ForwardDeclarations.h</text>
</a>
</g>
</g>
<!-- Node1&#45;&gt;Node2 -->
<g id="edge2" class="edge">
<title>Node1&#45;&gt;Node2</title>
<path fill="none" stroke="#191970" d="M72.0457,-123.3708C57.773,-114.8631 42.4669,-102.7522 34.5,-87 28.2817,-74.7053 29.2975,-68.7578 34.5,-56 39.2156,-44.4363 48.3927,-34.2008 57.2362,-26.3383"/>
<polygon fill="#191970" stroke="#191970" points="59.6496,-28.8842 65.1263,-19.8147 55.1891,-23.4894 59.6496,-28.8842"/>
</g>
<!-- Node3 -->
<g id="node4" class="node">
<title>Node3</title>
<g id="a_node4"><a xlink:href="$Domain_2Store_2Enums_2Enums_8h.html" xlink:title="Asteroids/Domain/Store\l/Enums/Enums.h">
<polygon fill="#ffffff" stroke="#000000" points="44,-56.5 44,-86.5 165,-86.5 165,-56.5 44,-56.5"/>
<text text-anchor="start" x="52" y="-74.5" font-family="Helvetica,sans-Serif" font-size="10.00" fill="#000000">Asteroids/Domain/Store</text>
<text text-anchor="middle" x="104.5" y="-63.5" font-family="Helvetica,sans-Serif" font-size="10.00" fill="#000000">/Enums/Enums.h</text>
</a>
</g>
</g>
<!-- Node1&#45;&gt;Node3 -->
<g id="edge3" class="edge">
<title>Node1&#45;&gt;Node3</title>
<path fill="none" stroke="#191970" d="M104.5,-123.2967C104.5,-115.5013 104.5,-105.7991 104.5,-96.9064"/>
<polygon fill="#191970" stroke="#191970" points="108.0001,-96.6431 104.5,-86.6432 101.0001,-96.6432 108.0001,-96.6431"/>
</g>
<!-- Node4 -->
<g id="node5" class="node">
<title>Node4</title>
<g id="a_node5"><a xlink:href="$STORE__ITEM__INTERFACE_8h.html" xlink:title="Asteroids/Domain/Store\l/STORE_ITEM_INTERFACE.h">
<polygon fill="#ffffff" stroke="#000000" points="183,-56.5 183,-86.5 338,-86.5 338,-56.5 183,-56.5"/>
<text text-anchor="start" x="191" y="-74.5" font-family="Helvetica,sans-Serif" font-size="10.00" fill="#000000">Asteroids/Domain/Store</text>
<text text-anchor="middle" x="260.5" y="-63.5" font-family="Helvetica,sans-Serif" font-size="10.00" fill="#000000">/STORE_ITEM_INTERFACE.h</text>
</a>
</g>
</g>
<!-- Node1&#45;&gt;Node4 -->
<g id="edge4" class="edge">
<title>Node1&#45;&gt;Node4</title>
<path fill="none" stroke="#191970" d="M139.5094,-123.4639C162.1113,-113.7567 191.7168,-101.0415 215.9847,-90.6188"/>
<polygon fill="#191970" stroke="#191970" points="217.5307,-93.764 225.3379,-86.6017 214.7682,-87.3321 217.5307,-93.764"/>
</g>
<!-- Node4&#45;&gt;Node2 -->
<g id="edge5" class="edge">
<title>Node4&#45;&gt;Node2</title>
<path fill="none" stroke="#191970" d="M216.2224,-56.4554C185.8896,-46.149 146.0871,-32.6249 117.2556,-22.8286"/>
<polygon fill="#191970" stroke="#191970" points="118.143,-19.4336 107.5486,-19.5303 115.8909,-26.0615 118.143,-19.4336"/>
</g>
<!-- Node5 -->
<g id="node6" class="node">
<title>Node5</title>
<polygon fill="#ffffff" stroke="#bfbfbf" points="240,-.5 240,-19.5 281,-19.5 281,-.5 240,-.5"/>
<text text-anchor="middle" x="260.5" y="-7.5" font-family="Helvetica,sans-Serif" font-size="10.00" fill="#000000">string</text>
</g>
<!-- Node4&#45;&gt;Node5 -->
<g id="edge6" class="edge">
<title>Node4&#45;&gt;Node5</title>
<path fill="none" stroke="#191970" d="M260.5,-56.2977C260.5,-48.3834 260.5,-38.6043 260.5,-30.0759"/>
<polygon fill="#191970" stroke="#191970" points="264.0001,-29.8469 260.5,-19.8469 257.0001,-29.847 264.0001,-29.8469"/>
</g>
</g>
</svg>
