<?xml version="1.0" encoding="UTF-8" standalone="no"?>
<!DOCTYPE svg PUBLIC "-//W3C//DTD SVG 1.1//EN"
 "http://www.w3.org/Graphics/SVG/1.1/DTD/svg11.dtd">
<!-- Generated by graphviz version 2.40.1 (20161225.0304)
 -->
<!-- Title: Domain/Store/StoreFactory.cpp Pages: 1 -->
<svg width="1074pt" height="229pt"
 viewBox="0.00 0.00 1073.99 229.00" xmlns="http://www.w3.org/2000/svg" xmlns:xlink="http://www.w3.org/1999/xlink">
<g id="graph0" class="graph" transform="scale(1 1) rotate(0) translate(4 225)">
<title>Domain/Store/StoreFactory.cpp</title>
<polygon fill="#ffffff" stroke="transparent" points="-4,4 -4,-225 1069.9897,-225 1069.9897,4 -4,4"/>
<!-- Node0 -->
<g id="node1" class="node">
<title>Node0</title>
<polygon fill="#bfbfbf" stroke="#000000" points="427.9897,-201.5 427.9897,-220.5 582.9897,-220.5 582.9897,-201.5 427.9897,-201.5"/>
<text text-anchor="middle" x="505.4897" y="-208.5" font-family="Helvetica,sans-Serif" font-size="10.00" fill="#000000">Domain/Store/StoreFactory.cpp</text>
</g>
<!-- Node1 -->
<g id="node2" class="node">
<title>Node1</title>
<g id="a_node2"><a xlink:href="$StoreFactory_8h.html" xlink:title="Asteroids/Domain/Store\l/StoreFactory.h">
<polygon fill="#ffffff" stroke="#000000" points="282.9897,-134.5 282.9897,-164.5 403.9897,-164.5 403.9897,-134.5 282.9897,-134.5"/>
<text text-anchor="start" x="290.9897" y="-152.5" font-family="Helvetica,sans-Serif" font-size="10.00" fill="#000000">Asteroids/Domain/Store</text>
<text text-anchor="middle" x="343.4897" y="-141.5" font-family="Helvetica,sans-Serif" font-size="10.00" fill="#000000">/StoreFactory.h</text>
</a>
</g>
</g>
<!-- Node0&#45;&gt;Node1 -->
<g id="edge1" class="edge">
<title>Node0&#45;&gt;Node1</title>
<path fill="none" stroke="#191970" d="M480.1772,-201.3906C456.8314,-192.5279 421.5235,-179.1239 392.6413,-168.1594"/>
<polygon fill="#191970" stroke="#191970" points="393.7106,-164.8217 383.1194,-164.5446 391.2261,-171.366 393.7106,-164.8217"/>
</g>
<!-- Node5 -->
<g id="node6" class="node">
<title>Node5</title>
<g id="a_node6"><a xlink:href="$Store_8h.html" xlink:title="Asteroids/Domain/Store\l/Store.h">
<polygon fill="#ffffff" stroke="#000000" points="127.9897,-134.5 127.9897,-164.5 248.9897,-164.5 248.9897,-134.5 127.9897,-134.5"/>
<text text-anchor="start" x="135.9897" y="-152.5" font-family="Helvetica,sans-Serif" font-size="10.00" fill="#000000">Asteroids/Domain/Store</text>
<text text-anchor="middle" x="188.4897" y="-141.5" font-family="Helvetica,sans-Serif" font-size="10.00" fill="#000000">/Store.h</text>
</a>
</g>
</g>
<!-- Node0&#45;&gt;Node5 -->
<g id="edge7" class="edge">
<title>Node0&#45;&gt;Node5</title>
<path fill="none" stroke="#191970" d="M456.3063,-201.4581C403.5356,-191.2203 319.2442,-174.8672 259.3305,-163.2436"/>
<polygon fill="#191970" stroke="#191970" points="259.6714,-159.7445 249.1879,-161.2758 258.3382,-166.6164 259.6714,-159.7445"/>
</g>
<!-- Node8 -->
<g id="node9" class="node">
<title>Node8</title>
<g id="a_node9"><a xlink:href="$PaymentHelper_8h.html" xlink:title="Asteroids/Domain/Store\l/PaymentHelper.h">
<polygon fill="#ffffff" stroke="#000000" points="667.9897,-134.5 667.9897,-164.5 788.9897,-164.5 788.9897,-134.5 667.9897,-134.5"/>
<text text-anchor="start" x="675.9897" y="-152.5" font-family="Helvetica,sans-Serif" font-size="10.00" fill="#000000">Asteroids/Domain/Store</text>
<text text-anchor="middle" x="728.4897" y="-141.5" font-family="Helvetica,sans-Serif" font-size="10.00" fill="#000000">/PaymentHelper.h</text>
</a>
</g>
</g>
<!-- Node0&#45;&gt;Node8 -->
<g id="edge14" class="edge">
<title>Node0&#45;&gt;Node8</title>
<path fill="none" stroke="#191970" d="M540.3335,-201.3906C573.3781,-192.2774 623.8331,-178.3627 664.1794,-167.2358"/>
<polygon fill="#191970" stroke="#191970" points="665.2282,-170.5773 673.9378,-164.5446 663.3671,-163.8292 665.2282,-170.5773"/>
</g>
<!-- Node11 -->
<g id="node12" class="node">
<title>Node11</title>
<g id="a_node12"><a xlink:href="$PAYMENT__RESULT__DETAILS_8h.html" xlink:title="Asteroids/Domain/Store\l/PAYMENT_RESULT_DETAILS.h">
<polygon fill="#ffffff" stroke="#000000" points="806.9897,-134.5 806.9897,-164.5 975.9897,-164.5 975.9897,-134.5 806.9897,-134.5"/>
<text text-anchor="start" x="814.9897" y="-152.5" font-family="Helvetica,sans-Serif" font-size="10.00" fill="#000000">Asteroids/Domain/Store</text>
<text text-anchor="middle" x="891.4897" y="-141.5" font-family="Helvetica,sans-Serif" font-size="10.00" fill="#000000">/PAYMENT_RESULT_DETAILS.h</text>
</a>
</g>
</g>
<!-- Node0&#45;&gt;Node11 -->
<g id="edge21" class="edge">
<title>Node0&#45;&gt;Node11</title>
<path fill="none" stroke="#191970" d="M567.2506,-201.4767C624.3067,-192.6396 711.7174,-179.0018 796.7599,-165.2726"/>
<polygon fill="#191970" stroke="#191970" points="797.535,-168.6928 806.8482,-163.6417 796.4178,-161.7825 797.535,-168.6928"/>
</g>
<!-- Node13 -->
<g id="node14" class="node">
<title>Node13</title>
<g id="a_node14"><a xlink:href="$POWERUP__ADDED__INFO_8h.html" xlink:title="Asteroids/Domain/Store\l/POWERUP_ADDED_INFO.h">
<polygon fill="#ffffff" stroke="#000000" points="429.9897,-134.5 429.9897,-164.5 580.9897,-164.5 580.9897,-134.5 429.9897,-134.5"/>
<text text-anchor="start" x="437.9897" y="-152.5" font-family="Helvetica,sans-Serif" font-size="10.00" fill="#000000">Asteroids/Domain/Store</text>
<text text-anchor="middle" x="505.4897" y="-141.5" font-family="Helvetica,sans-Serif" font-size="10.00" fill="#000000">/POWERUP_ADDED_INFO.h</text>
</a>
</g>
</g>
<!-- Node0&#45;&gt;Node13 -->
<g id="edge26" class="edge">
<title>Node0&#45;&gt;Node13</title>
<path fill="none" stroke="#191970" d="M505.4897,-201.3906C505.4897,-194.2234 505.4897,-184.0862 505.4897,-174.671"/>
<polygon fill="#191970" stroke="#191970" points="508.9898,-174.5446 505.4897,-164.5446 501.9898,-174.5446 508.9898,-174.5446"/>
</g>
<!-- Node2 -->
<g id="node3" class="node">
<title>Node2</title>
<g id="a_node3"><a xlink:href="$ForwardDeclarations_8h.html" xlink:title="Asteroids/ForwardDeclarations.h">
<polygon fill="#ffffff" stroke="#000000" points="537.9897,-.5 537.9897,-19.5 696.9897,-19.5 696.9897,-.5 537.9897,-.5"/>
<text text-anchor="middle" x="617.4897" y="-7.5" font-family="Helvetica,sans-Serif" font-size="10.00" fill="#000000">Asteroids/ForwardDeclarations.h</text>
</a>
</g>
</g>
<!-- Node1&#45;&gt;Node2 -->
<g id="edge2" class="edge">
<title>Node1&#45;&gt;Node2</title>
<path fill="none" stroke="#191970" d="M404.2462,-136.9983C475.6525,-122.2515 584.7478,-99.5292 586.4897,-98 606.2205,-80.6783 613.3934,-50.0127 616.0009,-29.8451"/>
<polygon fill="#191970" stroke="#191970" points="619.5112,-29.923 617.0499,-19.618 612.5477,-29.2087 619.5112,-29.923"/>
</g>
<!-- Node3 -->
<g id="node4" class="node">
<title>Node3</title>
<g id="a_node4"><a xlink:href="$StoreFactoryInterface_8h.html" xlink:title="Asteroids/Domain/Store\l/StoreFactoryInterface.h">
<polygon fill="#ffffff" stroke="#000000" points="190.4897,-62 190.4897,-92 312.4897,-92 312.4897,-62 190.4897,-62"/>
<text text-anchor="start" x="198.4897" y="-80" font-family="Helvetica,sans-Serif" font-size="10.00" fill="#000000">Asteroids/Domain/Store</text>
<text text-anchor="middle" x="251.4897" y="-69" font-family="Helvetica,sans-Serif" font-size="10.00" fill="#000000">/StoreFactoryInterface.h</text>
</a>
</g>
</g>
<!-- Node1&#45;&gt;Node3 -->
<g id="edge3" class="edge">
<title>Node1&#45;&gt;Node3</title>
<path fill="none" stroke="#191970" d="M324.4273,-134.478C311.2282,-124.0766 293.4606,-110.0749 278.7665,-98.4953"/>
<polygon fill="#191970" stroke="#191970" points="280.5484,-95.4434 270.5278,-92.0028 276.2157,-100.9414 280.5484,-95.4434"/>
</g>
<!-- Node4 -->
<g id="node5" class="node">
<title>Node4</title>
<polygon fill="#ffffff" stroke="#bfbfbf" points="155.4897,-.5 155.4897,-19.5 207.4897,-19.5 207.4897,-.5 155.4897,-.5"/>
<text text-anchor="middle" x="181.4897" y="-7.5" font-family="Helvetica,sans-Serif" font-size="10.00" fill="#000000">memory</text>
</g>
<!-- Node1&#45;&gt;Node4 -->
<g id="edge6" class="edge">
<title>Node1&#45;&gt;Node4</title>
<path fill="none" stroke="#191970" d="M282.8975,-138.4761C274.3694,-136.9546 265.7111,-135.4259 257.4897,-134 209.5434,-125.6841 72.9437,-135.1302 41.4897,-98 29.424,-83.757 30.5426,-71.1197 41.4897,-56 53.8326,-38.9524 108.1388,-24.8169 145.3703,-16.892"/>
<polygon fill="#191970" stroke="#191970" points="146.2856,-20.2768 155.3696,-14.8242 144.868,-13.4219 146.2856,-20.2768"/>
</g>
<!-- Node3&#45;&gt;Node2 -->
<g id="edge4" class="edge">
<title>Node3&#45;&gt;Node2</title>
<path fill="none" stroke="#191970" d="M298.3215,-61.9857C306.0159,-59.7978 313.9414,-57.7103 321.4897,-56 390.053,-40.4652 468.7415,-28.5103 527.7445,-20.6862"/>
<polygon fill="#191970" stroke="#191970" points="528.3213,-24.1406 537.7812,-19.3698 527.411,-17.2 528.3213,-24.1406"/>
</g>
<!-- Node3&#45;&gt;Node4 -->
<g id="edge5" class="edge">
<title>Node3&#45;&gt;Node4</title>
<path fill="none" stroke="#191970" d="M235.6056,-61.7967C224.6993,-51.3578 210.2207,-37.4997 198.9841,-26.7446"/>
<polygon fill="#191970" stroke="#191970" points="201.1168,-23.9411 191.4725,-19.555 196.2766,-28.998 201.1168,-23.9411"/>
</g>
<!-- Node5&#45;&gt;Node2 -->
<g id="edge8" class="edge">
<title>Node5&#45;&gt;Node2</title>
<path fill="none" stroke="#191970" d="M249.2491,-138.0202C257.3874,-136.5999 265.6338,-135.2204 273.4897,-134 397.4713,-114.7391 445.5487,-161.9621 553.4897,-98 560.7312,-93.709 588.911,-52.7382 605.3641,-28.2414"/>
<polygon fill="#191970" stroke="#191970" points="608.3793,-30.0287 611.0276,-19.7702 602.56,-26.1382 608.3793,-30.0287"/>
</g>
<!-- Node5&#45;&gt;Node4 -->
<g id="edge13" class="edge">
<title>Node5&#45;&gt;Node4</title>
<path fill="none" stroke="#191970" d="M127.6123,-140.0771C81.2609,-131.5132 23.0197,-117.2701 8.4897,-98 -2.7485,-83.0954 -2.888,-70.7984 8.4897,-56 25.0532,-34.4568 99.7173,-20.8808 145.3737,-14.4401"/>
<polygon fill="#191970" stroke="#191970" points="146.0375,-17.8821 155.4737,-13.0645 145.0928,-10.9461 146.0375,-17.8821"/>
</g>
<!-- Node6 -->
<g id="node7" class="node">
<title>Node6</title>
<g id="a_node7"><a xlink:href="$StoreInterface_8h.html" xlink:title="Asteroids/Domain/Store\l/StoreInterface.h">
<polygon fill="#ffffff" stroke="#000000" points="50.9897,-62 50.9897,-92 171.9897,-92 171.9897,-62 50.9897,-62"/>
<text text-anchor="start" x="58.9897" y="-80" font-family="Helvetica,sans-Serif" font-size="10.00" fill="#000000">Asteroids/Domain/Store</text>
<text text-anchor="middle" x="111.4897" y="-69" font-family="Helvetica,sans-Serif" font-size="10.00" fill="#000000">/StoreInterface.h</text>
</a>
</g>
</g>
<!-- Node5&#45;&gt;Node6 -->
<g id="edge9" class="edge">
<title>Node5&#45;&gt;Node6</title>
<path fill="none" stroke="#191970" d="M172.5353,-134.478C161.6947,-124.271 147.1721,-110.5971 135.0115,-99.1471"/>
<polygon fill="#191970" stroke="#191970" points="137.1037,-96.3097 127.4237,-92.0028 132.3051,-101.4062 137.1037,-96.3097"/>
</g>
<!-- Node6&#45;&gt;Node2 -->
<g id="edge10" class="edge">
<title>Node6&#45;&gt;Node2</title>
<path fill="none" stroke="#191970" d="M157.1178,-61.9806C165.173,-59.7119 173.5286,-57.5996 181.4897,-56 299.8691,-32.2145 438.957,-20.2437 527.6315,-14.5786"/>
<polygon fill="#191970" stroke="#191970" points="527.8933,-18.0692 537.6552,-13.9514 527.4561,-11.0828 527.8933,-18.0692"/>
</g>
<!-- Node6&#45;&gt;Node4 -->
<g id="edge11" class="edge">
<title>Node6&#45;&gt;Node4</title>
<path fill="none" stroke="#191970" d="M127.3738,-61.7967C138.2801,-51.3578 152.7587,-37.4997 163.9953,-26.7446"/>
<polygon fill="#191970" stroke="#191970" points="166.7028,-28.998 171.5069,-19.555 161.8626,-23.9411 166.7028,-28.998"/>
</g>
<!-- Node7 -->
<g id="node8" class="node">
<title>Node7</title>
<polygon fill="#ffffff" stroke="#bfbfbf" points="354.4897,-.5 354.4897,-19.5 398.4897,-19.5 398.4897,-.5 354.4897,-.5"/>
<text text-anchor="middle" x="376.4897" y="-7.5" font-family="Helvetica,sans-Serif" font-size="10.00" fill="#000000">vector</text>
</g>
<!-- Node6&#45;&gt;Node7 -->
<g id="edge12" class="edge">
<title>Node6&#45;&gt;Node7</title>
<path fill="none" stroke="#191970" d="M160.3388,-61.9392C167.4158,-59.8757 174.6262,-57.8373 181.4897,-56 238.4619,-40.749 305.5093,-25.5208 344.2923,-16.9757"/>
<polygon fill="#191970" stroke="#191970" points="345.4315,-20.3091 354.4497,-14.7483 343.9321,-13.4716 345.4315,-20.3091"/>
</g>
<!-- Node8&#45;&gt;Node2 -->
<g id="edge15" class="edge">
<title>Node8&#45;&gt;Node2</title>
<path fill="none" stroke="#191970" d="M775.6214,-134.2977C792.5292,-126.3094 809.7969,-114.6228 819.4897,-98 828.8925,-81.8745 831.1318,-70.5913 819.4897,-56 805.0655,-37.9218 754.1569,-26.3984 707.06,-19.4063"/>
<polygon fill="#191970" stroke="#191970" points="707.4767,-15.9304 697.0824,-17.9823 706.4876,-22.8602 707.4767,-15.9304"/>
</g>
<!-- Node9 -->
<g id="node10" class="node">
<title>Node9</title>
<g id="a_node10"><a xlink:href="$PaymentHelperInterface_8h.html" xlink:title="Asteroids/Domain/Store\l/PaymentHelperInterface.h">
<polygon fill="#ffffff" stroke="#000000" points="676.4897,-62 676.4897,-92 810.4897,-92 810.4897,-62 676.4897,-62"/>
<text text-anchor="start" x="684.4897" y="-80" font-family="Helvetica,sans-Serif" font-size="10.00" fill="#000000">Asteroids/Domain/Store</text>
<text text-anchor="middle" x="743.4897" y="-69" font-family="Helvetica,sans-Serif" font-size="10.00" fill="#000000">/PaymentHelperInterface.h</text>
</a>
</g>
</g>
<!-- Node8&#45;&gt;Node9 -->
<g id="edge16" class="edge">
<title>Node8&#45;&gt;Node9</title>
<path fill="none" stroke="#191970" d="M731.5977,-134.478C733.5486,-125.0487 736.1117,-112.6606 738.3586,-101.8005"/>
<polygon fill="#191970" stroke="#191970" points="741.787,-102.5046 740.3857,-92.0028 734.9321,-101.0863 741.787,-102.5046"/>
</g>
<!-- Node9&#45;&gt;Node2 -->
<g id="edge17" class="edge">
<title>Node9&#45;&gt;Node2</title>
<path fill="none" stroke="#191970" d="M715.2129,-61.9639C694.0717,-50.7222 665.3439,-35.4463 644.5113,-24.3686"/>
<polygon fill="#191970" stroke="#191970" points="646.0234,-21.2087 635.5508,-19.6039 642.7369,-27.3892 646.0234,-21.2087"/>
</g>
<!-- Node9&#45;&gt;Node4 -->
<g id="edge20" class="edge">
<title>Node9&#45;&gt;Node4</title>
<path fill="none" stroke="#191970" d="M676.2576,-68.9848C556.4665,-54.7036 310.0093,-25.3217 217.57,-14.3014"/>
<polygon fill="#191970" stroke="#191970" points="217.9287,-10.8195 207.5847,-13.111 217.1,-17.7702 217.9287,-10.8195"/>
</g>
<!-- Node9&#45;&gt;Node7 -->
<g id="edge19" class="edge">
<title>Node9&#45;&gt;Node7</title>
<path fill="none" stroke="#191970" d="M676.1763,-64.7112C596.7248,-50.2064 467.9068,-26.6892 408.441,-15.8331"/>
<polygon fill="#191970" stroke="#191970" points="408.9716,-12.3722 398.5056,-14.0192 407.7144,-19.2583 408.9716,-12.3722"/>
</g>
<!-- Node10 -->
<g id="node11" class="node">
<title>Node10</title>
<polygon fill="#ffffff" stroke="#bfbfbf" points="843.9897,-.5 843.9897,-19.5 884.9897,-19.5 884.9897,-.5 843.9897,-.5"/>
<text text-anchor="middle" x="864.4897" y="-7.5" font-family="Helvetica,sans-Serif" font-size="10.00" fill="#000000">string</text>
</g>
<!-- Node9&#45;&gt;Node10 -->
<g id="edge18" class="edge">
<title>Node9&#45;&gt;Node10</title>
<path fill="none" stroke="#191970" d="M770.6445,-61.9639C790.8553,-50.7728 818.2861,-35.5838 838.2696,-24.5186"/>
<polygon fill="#191970" stroke="#191970" points="840.0924,-27.5101 847.1453,-19.6039 836.7015,-21.3862 840.0924,-27.5101"/>
</g>
<!-- Node11&#45;&gt;Node2 -->
<g id="edge22" class="edge">
<title>Node11&#45;&gt;Node2</title>
<path fill="none" stroke="#191970" d="M886.8653,-134.1971C879.6693,-113.1234 863.7133,-75.5609 836.4897,-56 815.341,-40.804 756.2836,-28.9086 704.8215,-21.0242"/>
<polygon fill="#191970" stroke="#191970" points="705.0518,-17.5198 694.6439,-19.5011 704.0156,-24.4427 705.0518,-17.5198"/>
</g>
<!-- Node12 -->
<g id="node13" class="node">
<title>Node12</title>
<g id="a_node13"><a xlink:href="$PAYMENT__RESULT__DETAILS__INTERFACE_8h.html" xlink:title="Asteroids/Domain/Store\l/PAYMENT_RESULT_DETAILS\l_INTERFACE.h">
<polygon fill="#ffffff" stroke="#000000" points="904.9897,-56.5 904.9897,-97.5 1065.9897,-97.5 1065.9897,-56.5 904.9897,-56.5"/>
<text text-anchor="start" x="912.9897" y="-85.5" font-family="Helvetica,sans-Serif" font-size="10.00" fill="#000000">Asteroids/Domain/Store</text>
<text text-anchor="start" x="912.9897" y="-74.5" font-family="Helvetica,sans-Serif" font-size="10.00" fill="#000000">/PAYMENT_RESULT_DETAILS</text>
<text text-anchor="middle" x="985.4897" y="-63.5" font-family="Helvetica,sans-Serif" font-size="10.00" fill="#000000">_INTERFACE.h</text>
</a>
</g>
</g>
<!-- Node11&#45;&gt;Node12 -->
<g id="edge23" class="edge">
<title>Node11&#45;&gt;Node12</title>
<path fill="none" stroke="#191970" d="M910.9666,-134.478C922.4561,-125.6164 937.3338,-114.1416 950.7711,-103.7777"/>
<polygon fill="#191970" stroke="#191970" points="953.1276,-106.3803 958.9084,-97.5015 948.8525,-100.8374 953.1276,-106.3803"/>
</g>
<!-- Node12&#45;&gt;Node2 -->
<g id="edge24" class="edge">
<title>Node12&#45;&gt;Node2</title>
<path fill="none" stroke="#191970" d="M904.9551,-58.902C900.0656,-57.895 895.215,-56.9198 890.4897,-56 822.536,-42.7731 744.6278,-29.8683 689.4781,-21.1103"/>
<polygon fill="#191970" stroke="#191970" points="689.877,-17.6299 679.4528,-19.5241 688.783,-24.5439 689.877,-17.6299"/>
</g>
<!-- Node12&#45;&gt;Node10 -->
<g id="edge25" class="edge">
<title>Node12&#45;&gt;Node10</title>
<path fill="none" stroke="#191970" d="M948.1984,-56.3511C929.7396,-46.1301 907.8834,-34.0279 891.1335,-24.7532"/>
<polygon fill="#191970" stroke="#191970" points="892.3696,-21.4369 881.9257,-19.6546 888.9786,-27.5608 892.3696,-21.4369"/>
</g>
<!-- Node13&#45;&gt;Node2 -->
<g id="edge27" class="edge">
<title>Node13&#45;&gt;Node2</title>
<path fill="none" stroke="#191970" d="M575.4303,-134.4855C594.5526,-126.8299 613.1194,-115.3102 624.4897,-98 637.9787,-77.4644 631.8284,-48.139 625.3462,-29.0856"/>
<polygon fill="#191970" stroke="#191970" points="628.6105,-27.8221 621.8334,-19.6783 622.0528,-30.2708 628.6105,-27.8221"/>
</g>
<!-- Node14 -->
<g id="node15" class="node">
<title>Node14</title>
<g id="a_node15"><a xlink:href="$POWERUP__ADDED__INFO__INTERFACE_8h.html" xlink:title="Asteroids/Domain/Store\l/POWERUP_ADDED_INFO_INTERFACE.h">
<polygon fill="#ffffff" stroke="#000000" points="330.4897,-62 330.4897,-92 544.4897,-92 544.4897,-62 330.4897,-62"/>
<text text-anchor="start" x="338.4897" y="-80" font-family="Helvetica,sans-Serif" font-size="10.00" fill="#000000">Asteroids/Domain/Store</text>
<text text-anchor="middle" x="437.4897" y="-69" font-family="Helvetica,sans-Serif" font-size="10.00" fill="#000000">/POWERUP_ADDED_INFO_INTERFACE.h</text>
</a>
</g>
</g>
<!-- Node13&#45;&gt;Node14 -->
<g id="edge28" class="edge">
<title>Node13&#45;&gt;Node14</title>
<path fill="none" stroke="#191970" d="M491.4001,-134.478C481.9178,-124.3682 469.2455,-110.8572 458.5696,-99.4749"/>
<polygon fill="#191970" stroke="#191970" points="460.9553,-96.9022 451.5613,-92.0028 455.8496,-101.691 460.9553,-96.9022"/>
</g>
<!-- Node14&#45;&gt;Node2 -->
<g id="edge29" class="edge">
<title>Node14&#45;&gt;Node2</title>
<path fill="none" stroke="#191970" d="M477.8852,-61.9639C509.2684,-50.2824 552.3541,-34.2449 582.327,-23.0884"/>
<polygon fill="#191970" stroke="#191970" points="583.8023,-26.2739 591.9531,-19.5053 581.3603,-19.7136 583.8023,-26.2739"/>
</g>
<!-- Node14&#45;&gt;Node4 -->
<g id="edge30" class="edge">
<title>Node14&#45;&gt;Node4</title>
<path fill="none" stroke="#191970" d="M380.0383,-61.9639C330.1936,-48.9186 259.5924,-30.4409 217.3877,-19.3952"/>
<polygon fill="#191970" stroke="#191970" points="218.1151,-15.9677 207.5547,-16.8217 216.3427,-22.7397 218.1151,-15.9677"/>
</g>
</g>
</svg>
