<?xml version="1.0" encoding="UTF-8" standalone="no"?>
<!DOCTYPE svg PUBLIC "-//W3C//DTD SVG 1.1//EN"
 "http://www.w3.org/Graphics/SVG/1.1/DTD/svg11.dtd">
<!-- Generated by graphviz version 2.40.1 (20161225.0304)
 -->
<!-- Title: Domain/Store/Store.h Pages: 1 -->
<svg width="299pt" height="151pt"
 viewBox="0.00 0.00 298.50 151.00" xmlns="http://www.w3.org/2000/svg" xmlns:xlink="http://www.w3.org/1999/xlink">
<g id="graph0" class="graph" transform="scale(1 1) rotate(0) translate(4 147)">
<title>Domain/Store/Store.h</title>
<polygon fill="#ffffff" stroke="transparent" points="-4,4 -4,-147 294.5,-147 294.5,4 -4,4"/>
<!-- Node0 -->
<g id="node1" class="node">
<title>Node0</title>
<polygon fill="#bfbfbf" stroke="#000000" points="120,-123.5 120,-142.5 231,-142.5 231,-123.5 120,-123.5"/>
<text text-anchor="middle" x="175.5" y="-130.5" font-family="Helvetica,sans-Serif" font-size="10.00" fill="#000000">Domain/Store/Store.h</text>
</g>
<!-- Node1 -->
<g id="node2" class="node">
<title>Node1</title>
<g id="a_node2"><a xlink:href="$ForwardDeclarations_8h.html" xlink:title="Asteroids/ForwardDeclarations.h">
<polygon fill="#ffffff" stroke="#000000" points="0,-.5 0,-19.5 159,-19.5 159,-.5 0,-.5"/>
<text text-anchor="middle" x="79.5" y="-7.5" font-family="Helvetica,sans-Serif" font-size="10.00" fill="#000000">Asteroids/ForwardDeclarations.h</text>
</a>
</g>
</g>
<!-- Node0&#45;&gt;Node1 -->
<g id="edge1" class="edge">
<title>Node0&#45;&gt;Node1</title>
<path fill="none" stroke="#191970" d="M153.7272,-123.4817C138.2774,-115.7098 118.1202,-103.3442 105.5,-87 92.6082,-70.3041 85.9067,-46.8486 82.5619,-30.2224"/>
<polygon fill="#191970" stroke="#191970" points="85.9367,-29.2072 80.7478,-19.9701 79.0438,-30.427 85.9367,-29.2072"/>
</g>
<!-- Node2 -->
<g id="node3" class="node">
<title>Node2</title>
<g id="a_node3"><a xlink:href="$StoreInterface_8h.html" xlink:title="Asteroids/Domain/Store\l/StoreInterface.h">
<polygon fill="#ffffff" stroke="#000000" points="115,-56.5 115,-86.5 236,-86.5 236,-56.5 115,-56.5"/>
<text text-anchor="start" x="123" y="-74.5" font-family="Helvetica,sans-Serif" font-size="10.00" fill="#000000">Asteroids/Domain/Store</text>
<text text-anchor="middle" x="175.5" y="-63.5" font-family="Helvetica,sans-Serif" font-size="10.00" fill="#000000">/StoreInterface.h</text>
</a>
</g>
</g>
<!-- Node0&#45;&gt;Node2 -->
<g id="edge2" class="edge">
<title>Node0&#45;&gt;Node2</title>
<path fill="none" stroke="#191970" d="M175.5,-123.3906C175.5,-116.2234 175.5,-106.0862 175.5,-96.671"/>
<polygon fill="#191970" stroke="#191970" points="179.0001,-96.5446 175.5,-86.5446 172.0001,-96.5446 179.0001,-96.5446"/>
</g>
<!-- Node3 -->
<g id="node4" class="node">
<title>Node3</title>
<polygon fill="#ffffff" stroke="#bfbfbf" points="238.5,-.5 238.5,-19.5 290.5,-19.5 290.5,-.5 238.5,-.5"/>
<text text-anchor="middle" x="264.5" y="-7.5" font-family="Helvetica,sans-Serif" font-size="10.00" fill="#000000">memory</text>
</g>
<!-- Node0&#45;&gt;Node3 -->
<g id="edge6" class="edge">
<title>Node0&#45;&gt;Node3</title>
<path fill="none" stroke="#191970" d="M198.3505,-123.4626C213.9099,-115.8197 233.7428,-103.6206 245.5,-87 257.3877,-70.1949 261.8707,-46.7577 263.5432,-30.1657"/>
<polygon fill="#191970" stroke="#191970" points="267.0525,-30.1715 264.3086,-19.9382 260.072,-29.6491 267.0525,-30.1715"/>
</g>
<!-- Node2&#45;&gt;Node1 -->
<g id="edge3" class="edge">
<title>Node2&#45;&gt;Node1</title>
<path fill="none" stroke="#191970" d="M151.7697,-56.2977C136.9638,-46.8127 117.9772,-34.6495 103.1807,-25.1705"/>
<polygon fill="#191970" stroke="#191970" points="104.8925,-22.1105 94.5841,-19.6633 101.1165,-28.0047 104.8925,-22.1105"/>
</g>
<!-- Node2&#45;&gt;Node3 -->
<g id="edge4" class="edge">
<title>Node2&#45;&gt;Node3</title>
<path fill="none" stroke="#191970" d="M197.5,-56.2977C211.0968,-46.9022 228.4966,-34.8787 242.1567,-25.4395"/>
<polygon fill="#191970" stroke="#191970" points="244.2785,-28.2276 250.5158,-19.6633 240.2991,-22.4688 244.2785,-28.2276"/>
</g>
<!-- Node4 -->
<g id="node5" class="node">
<title>Node4</title>
<polygon fill="#ffffff" stroke="#bfbfbf" points="176.5,-.5 176.5,-19.5 220.5,-19.5 220.5,-.5 176.5,-.5"/>
<text text-anchor="middle" x="198.5" y="-7.5" font-family="Helvetica,sans-Serif" font-size="10.00" fill="#000000">vector</text>
</g>
<!-- Node2&#45;&gt;Node4 -->
<g id="edge5" class="edge">
<title>Node2&#45;&gt;Node4</title>
<path fill="none" stroke="#191970" d="M181.1854,-56.2977C184.245,-48.1166 188.0498,-37.943 191.3128,-29.2179"/>
<polygon fill="#191970" stroke="#191970" points="194.5927,-30.4394 194.8174,-19.8469 188.0362,-27.9873 194.5927,-30.4394"/>
</g>
</g>
</svg>
