<?xml version="1.0" encoding="UTF-8" standalone="no"?>
<!DOCTYPE svg PUBLIC "-//W3C//DTD SVG 1.1//EN"
 "http://www.w3.org/Graphics/SVG/1.1/DTD/svg11.dtd">
<!-- Generated by graphviz version 2.40.1 (20161225.0304)
 -->
<!-- Title: Domain/Store/StoreInterface.h Pages: 1 -->
<svg width="355pt" height="151pt"
 viewBox="0.00 0.00 355.00 151.00" xmlns="http://www.w3.org/2000/svg" xmlns:xlink="http://www.w3.org/1999/xlink">
<g id="graph0" class="graph" transform="scale(1 1) rotate(0) translate(4 147)">
<title>Domain/Store/StoreInterface.h</title>
<polygon fill="#ffffff" stroke="transparent" points="-4,4 -4,-147 351,-147 351,4 -4,4"/>
<!-- Node4 -->
<g id="node1" class="node">
<title>Node4</title>
<polygon fill="#bfbfbf" stroke="#000000" points="134.5,-123.5 134.5,-142.5 283.5,-142.5 283.5,-123.5 134.5,-123.5"/>
<text text-anchor="middle" x="209" y="-130.5" font-family="Helvetica,sans-Serif" font-size="10.00" fill="#000000">Domain/Store/StoreInterface.h</text>
</g>
<!-- Node5 -->
<g id="node2" class="node">
<title>Node5</title>
<g id="a_node2"><a xlink:href="$Store_8h.html" xlink:title="Domain/Store/Store.h">
<polygon fill="#ffffff" stroke="#000000" points="83.5,-62 83.5,-81 194.5,-81 194.5,-62 83.5,-62"/>
<text text-anchor="middle" x="139" y="-69" font-family="Helvetica,sans-Serif" font-size="10.00" fill="#000000">Domain/Store/Store.h</text>
</a>
</g>
</g>
<!-- Node4&#45;&gt;Node5 -->
<g id="edge1" class="edge">
<title>Node4&#45;&gt;Node5</title>
<path fill="none" stroke="#191970" d="M190.2743,-116.5482C177.4485,-105.2798 160.8719,-90.716 150.0917,-81.2449"/>
<polygon fill="#191970" stroke="#191970" points="188.2399,-119.4197 198.0625,-123.3906 192.8601,-114.161 188.2399,-119.4197"/>
</g>
<!-- Node8 -->
<g id="node5" class="node">
<title>Node8</title>
<g id="a_node5"><a xlink:href="$ClientTextUI_8cpp.html" xlink:title="UI/ClientTextUI/ClientText\lUI.cpp">
<polygon fill="#ffffff" stroke="#000000" points="213,-56.5 213,-86.5 347,-86.5 347,-56.5 213,-56.5"/>
<text text-anchor="start" x="221" y="-74.5" font-family="Helvetica,sans-Serif" font-size="10.00" fill="#000000">UI/ClientTextUI/ClientText</text>
<text text-anchor="middle" x="280" y="-63.5" font-family="Helvetica,sans-Serif" font-size="10.00" fill="#000000">UI.cpp</text>
</a>
</g>
</g>
<!-- Node4&#45;&gt;Node8 -->
<g id="edge4" class="edge">
<title>Node4&#45;&gt;Node8</title>
<path fill="none" stroke="#191970" d="M227.7444,-116.7637C238.5568,-107.398 252.0602,-95.7014 262.6314,-86.5446"/>
<polygon fill="#191970" stroke="#191970" points="225.3609,-114.1978 220.0938,-123.3906 229.944,-119.4888 225.3609,-114.1978"/>
</g>
<!-- Node6 -->
<g id="node3" class="node">
<title>Node6</title>
<g id="a_node3"><a xlink:href="$Store_8cpp.html" xlink:title="Domain/Store/Store.cpp">
<polygon fill="#ffffff" stroke="#000000" points="0,-.5 0,-19.5 122,-19.5 122,-.5 0,-.5"/>
<text text-anchor="middle" x="61" y="-7.5" font-family="Helvetica,sans-Serif" font-size="10.00" fill="#000000">Domain/Store/Store.cpp</text>
</a>
</g>
</g>
<!-- Node5&#45;&gt;Node6 -->
<g id="edge2" class="edge">
<title>Node5&#45;&gt;Node6</title>
<path fill="none" stroke="#191970" d="M118.8964,-55.6491C104.4035,-44.222 85.3194,-29.1749 73.1019,-19.5419"/>
<polygon fill="#191970" stroke="#191970" points="116.7927,-58.4475 126.8125,-61.8906 121.1268,-52.9506 116.7927,-58.4475"/>
</g>
<!-- Node7 -->
<g id="node4" class="node">
<title>Node7</title>
<g id="a_node4"><a xlink:href="$StoreFactory_8cpp.html" xlink:title="Domain/Store/StoreFactory.cpp">
<polygon fill="#ffffff" stroke="#000000" points="140.5,-.5 140.5,-19.5 295.5,-19.5 295.5,-.5 140.5,-.5"/>
<text text-anchor="middle" x="218" y="-7.5" font-family="Helvetica,sans-Serif" font-size="10.00" fill="#000000">Domain/Store/StoreFactory.cpp</text>
</a>
</g>
</g>
<!-- Node5&#45;&gt;Node7 -->
<g id="edge3" class="edge">
<title>Node5&#45;&gt;Node7</title>
<path fill="none" stroke="#191970" d="M159.3613,-55.6491C174.04,-44.222 193.3688,-29.1749 205.7429,-19.5419"/>
<polygon fill="#191970" stroke="#191970" points="157.0846,-52.9859 151.3438,-61.8906 161.3846,-58.5095 157.0846,-52.9859"/>
</g>
</g>
</svg>
