<?xml version="1.0" encoding="UTF-8" standalone="no"?>
<!DOCTYPE svg PUBLIC "-//W3C//DTD SVG 1.1//EN"
 "http://www.w3.org/Graphics/SVG/1.1/DTD/svg11.dtd">
<!-- Generated by graphviz version 2.40.1 (20161225.0304)
 -->
<!-- Title: Domain/Store/Store.cpp Pages: 1 -->
<svg width="561pt" height="218pt"
 viewBox="0.00 0.00 560.50 218.00" xmlns="http://www.w3.org/2000/svg" xmlns:xlink="http://www.w3.org/1999/xlink">
<g id="graph0" class="graph" transform="scale(1 1) rotate(0) translate(4 214)">
<title>Domain/Store/Store.cpp</title>
<polygon fill="#ffffff" stroke="transparent" points="-4,4 -4,-214 556.5,-214 556.5,4 -4,4"/>
<!-- Node0 -->
<g id="node1" class="node">
<title>Node0</title>
<polygon fill="#bfbfbf" stroke="#000000" points="149,-190.5 149,-209.5 271,-209.5 271,-190.5 149,-190.5"/>
<text text-anchor="middle" x="210" y="-197.5" font-family="Helvetica,sans-Serif" font-size="10.00" fill="#000000">Domain/Store/Store.cpp</text>
</g>
<!-- Node1 -->
<g id="node2" class="node">
<title>Node1</title>
<g id="a_node2"><a xlink:href="$Store_8h.html" xlink:title="Asteroids/Domain/Store\l/Store.h">
<polygon fill="#ffffff" stroke="#000000" points="80.5,-123.5 80.5,-153.5 201.5,-153.5 201.5,-123.5 80.5,-123.5"/>
<text text-anchor="start" x="88.5" y="-141.5" font-family="Helvetica,sans-Serif" font-size="10.00" fill="#000000">Asteroids/Domain/Store</text>
<text text-anchor="middle" x="141" y="-130.5" font-family="Helvetica,sans-Serif" font-size="10.00" fill="#000000">/Store.h</text>
</a>
</g>
</g>
<!-- Node0&#45;&gt;Node1 -->
<g id="edge1" class="edge">
<title>Node0&#45;&gt;Node1</title>
<path fill="none" stroke="#191970" d="M199.2188,-190.3906C190.2263,-182.3756 177.0669,-170.6466 165.5333,-160.3666"/>
<polygon fill="#191970" stroke="#191970" points="167.6733,-157.5855 157.8793,-153.5446 163.0156,-162.8111 167.6733,-157.5855"/>
</g>
<!-- Node6 -->
<g id="node7" class="node">
<title>Node6</title>
<g id="a_node7"><a xlink:href="$STORE__ITEM_8h.html" xlink:title="Asteroids/Domain/Store\l/STORE_ITEM.h">
<polygon fill="#ffffff" stroke="#000000" points="238.5,-123.5 238.5,-153.5 359.5,-153.5 359.5,-123.5 238.5,-123.5"/>
<text text-anchor="start" x="246.5" y="-141.5" font-family="Helvetica,sans-Serif" font-size="10.00" fill="#000000">Asteroids/Domain/Store</text>
<text text-anchor="middle" x="299" y="-130.5" font-family="Helvetica,sans-Serif" font-size="10.00" fill="#000000">/STORE_ITEM.h</text>
</a>
</g>
</g>
<!-- Node0&#45;&gt;Node6 -->
<g id="edge8" class="edge">
<title>Node0&#45;&gt;Node6</title>
<path fill="none" stroke="#191970" d="M223.9063,-190.3906C235.8398,-182.1444 253.4626,-169.9669 268.6377,-159.4807"/>
<polygon fill="#191970" stroke="#191970" points="270.9909,-162.1089 277.2282,-153.5446 267.0115,-156.3501 270.9909,-162.1089"/>
</g>
<!-- Node2 -->
<g id="node3" class="node">
<title>Node2</title>
<g id="a_node3"><a xlink:href="$ForwardDeclarations_8h.html" xlink:title="Asteroids/ForwardDeclarations.h">
<polygon fill="#ffffff" stroke="#000000" points="146.5,-.5 146.5,-19.5 305.5,-19.5 305.5,-.5 146.5,-.5"/>
<text text-anchor="middle" x="226" y="-7.5" font-family="Helvetica,sans-Serif" font-size="10.00" fill="#000000">Asteroids/ForwardDeclarations.h</text>
</a>
</g>
</g>
<!-- Node1&#45;&gt;Node2 -->
<g id="edge2" class="edge">
<title>Node1&#45;&gt;Node2</title>
<path fill="none" stroke="#191970" d="M151.0844,-123.2548C166.8291,-99.4524 197.1871,-53.5584 214.0217,-28.1084"/>
<polygon fill="#191970" stroke="#191970" points="216.9621,-30.0072 219.56,-19.7358 211.1238,-26.1453 216.9621,-30.0072"/>
</g>
<!-- Node3 -->
<g id="node4" class="node">
<title>Node3</title>
<g id="a_node4"><a xlink:href="$StoreInterface_8h.html" xlink:title="Asteroids/Domain/Store\l/StoreInterface.h">
<polygon fill="#ffffff" stroke="#000000" points="42.5,-56.5 42.5,-86.5 163.5,-86.5 163.5,-56.5 42.5,-56.5"/>
<text text-anchor="start" x="50.5" y="-74.5" font-family="Helvetica,sans-Serif" font-size="10.00" fill="#000000">Asteroids/Domain/Store</text>
<text text-anchor="middle" x="103" y="-63.5" font-family="Helvetica,sans-Serif" font-size="10.00" fill="#000000">/StoreInterface.h</text>
</a>
</g>
</g>
<!-- Node1&#45;&gt;Node3 -->
<g id="edge3" class="edge">
<title>Node1&#45;&gt;Node3</title>
<path fill="none" stroke="#191970" d="M132.3772,-123.2967C127.713,-115.0729 121.8453,-104.7272 116.5826,-95.4483"/>
<polygon fill="#191970" stroke="#191970" points="119.5665,-93.6148 111.5887,-86.6432 113.4777,-97.0683 119.5665,-93.6148"/>
</g>
<!-- Node4 -->
<g id="node5" class="node">
<title>Node4</title>
<polygon fill="#ffffff" stroke="#bfbfbf" points="0,-.5 0,-19.5 52,-19.5 52,-.5 0,-.5"/>
<text text-anchor="middle" x="26" y="-7.5" font-family="Helvetica,sans-Serif" font-size="10.00" fill="#000000">memory</text>
</g>
<!-- Node1&#45;&gt;Node4 -->
<g id="edge7" class="edge">
<title>Node1&#45;&gt;Node4</title>
<path fill="none" stroke="#191970" d="M82.7874,-123.4262C63.9462,-115.6344 44.8702,-104.0471 33,-87 21.4081,-70.3525 21.0629,-46.5262 22.7255,-29.7984"/>
<polygon fill="#191970" stroke="#191970" points="26.2425,-29.8997 24.0838,-19.5272 19.3029,-28.982 26.2425,-29.8997"/>
</g>
<!-- Node3&#45;&gt;Node2 -->
<g id="edge4" class="edge">
<title>Node3&#45;&gt;Node2</title>
<path fill="none" stroke="#191970" d="M133.0892,-56.4554C152.8019,-46.599 178.4002,-33.7999 197.7347,-24.1327"/>
<polygon fill="#191970" stroke="#191970" points="199.5603,-27.133 206.9394,-19.5303 196.4298,-20.872 199.5603,-27.133"/>
</g>
<!-- Node3&#45;&gt;Node4 -->
<g id="edge5" class="edge">
<title>Node3&#45;&gt;Node4</title>
<path fill="none" stroke="#191970" d="M83.9663,-56.2977C72.4985,-47.1384 57.9038,-35.4816 46.2281,-26.1562"/>
<polygon fill="#191970" stroke="#191970" points="48.3266,-23.3529 38.3287,-19.8469 43.9581,-28.8225 48.3266,-23.3529"/>
</g>
<!-- Node5 -->
<g id="node6" class="node">
<title>Node5</title>
<polygon fill="#ffffff" stroke="#bfbfbf" points="81,-.5 81,-19.5 125,-19.5 125,-.5 81,-.5"/>
<text text-anchor="middle" x="103" y="-7.5" font-family="Helvetica,sans-Serif" font-size="10.00" fill="#000000">vector</text>
</g>
<!-- Node3&#45;&gt;Node5 -->
<g id="edge6" class="edge">
<title>Node3&#45;&gt;Node5</title>
<path fill="none" stroke="#191970" d="M103,-56.2977C103,-48.3834 103,-38.6043 103,-30.0759"/>
<polygon fill="#191970" stroke="#191970" points="106.5001,-29.8469 103,-19.8469 99.5001,-29.847 106.5001,-29.8469"/>
</g>
<!-- Node6&#45;&gt;Node2 -->
<g id="edge9" class="edge">
<title>Node6&#45;&gt;Node2</title>
<path fill="none" stroke="#191970" d="M280.0524,-123.0693C269.5698,-113.634 257.0698,-100.759 249,-87 238.4477,-69.0084 232.3763,-45.7706 229.151,-29.5497"/>
<polygon fill="#191970" stroke="#191970" points="232.5742,-28.8104 227.3527,-19.5916 225.6856,-30.0545 232.5742,-28.8104"/>
</g>
<!-- Node7 -->
<g id="node8" class="node">
<title>Node7</title>
<g id="a_node8"><a xlink:href="$Domain_2Store_2Enums_2Enums_8h.html" xlink:title="Asteroids/Domain/Store\l/Enums/Enums.h">
<polygon fill="#ffffff" stroke="#000000" points="258.5,-56.5 258.5,-86.5 379.5,-86.5 379.5,-56.5 258.5,-56.5"/>
<text text-anchor="start" x="266.5" y="-74.5" font-family="Helvetica,sans-Serif" font-size="10.00" fill="#000000">Asteroids/Domain/Store</text>
<text text-anchor="middle" x="319" y="-63.5" font-family="Helvetica,sans-Serif" font-size="10.00" fill="#000000">/Enums/Enums.h</text>
</a>
</g>
</g>
<!-- Node6&#45;&gt;Node7 -->
<g id="edge10" class="edge">
<title>Node6&#45;&gt;Node7</title>
<path fill="none" stroke="#191970" d="M303.5383,-123.2967C305.9164,-115.3299 308.889,-105.3718 311.5907,-96.3213"/>
<polygon fill="#191970" stroke="#191970" points="314.973,-97.2265 314.4797,-86.6432 308.2655,-95.2242 314.973,-97.2265"/>
</g>
<!-- Node8 -->
<g id="node9" class="node">
<title>Node8</title>
<g id="a_node9"><a xlink:href="$STORE__ITEM__INTERFACE_8h.html" xlink:title="Asteroids/Domain/Store\l/STORE_ITEM_INTERFACE.h">
<polygon fill="#ffffff" stroke="#000000" points="397.5,-56.5 397.5,-86.5 552.5,-86.5 552.5,-56.5 397.5,-56.5"/>
<text text-anchor="start" x="405.5" y="-74.5" font-family="Helvetica,sans-Serif" font-size="10.00" fill="#000000">Asteroids/Domain/Store</text>
<text text-anchor="middle" x="475" y="-63.5" font-family="Helvetica,sans-Serif" font-size="10.00" fill="#000000">/STORE_ITEM_INTERFACE.h</text>
</a>
</g>
</g>
<!-- Node6&#45;&gt;Node8 -->
<g id="edge11" class="edge">
<title>Node6&#45;&gt;Node8</title>
<path fill="none" stroke="#191970" d="M338.4978,-123.4639C364.3359,-113.6278 398.2866,-100.7034 425.8647,-90.2049"/>
<polygon fill="#191970" stroke="#191970" points="427.2294,-93.4305 435.3299,-86.6017 424.7389,-86.8885 427.2294,-93.4305"/>
</g>
<!-- Node8&#45;&gt;Node2 -->
<g id="edge12" class="edge">
<title>Node8&#45;&gt;Node2</title>
<path fill="none" stroke="#191970" d="M414.0877,-56.4554C371.0837,-45.8339 314.2435,-31.7951 274.3459,-21.9408"/>
<polygon fill="#191970" stroke="#191970" points="275.1337,-18.5303 264.5862,-19.5303 273.4552,-25.3261 275.1337,-18.5303"/>
</g>
<!-- Node9 -->
<g id="node10" class="node">
<title>Node9</title>
<polygon fill="#ffffff" stroke="#bfbfbf" points="454.5,-.5 454.5,-19.5 495.5,-19.5 495.5,-.5 454.5,-.5"/>
<text text-anchor="middle" x="475" y="-7.5" font-family="Helvetica,sans-Serif" font-size="10.00" fill="#000000">string</text>
</g>
<!-- Node8&#45;&gt;Node9 -->
<g id="edge13" class="edge">
<title>Node8&#45;&gt;Node9</title>
<path fill="none" stroke="#191970" d="M475,-56.2977C475,-48.3834 475,-38.6043 475,-30.0759"/>
<polygon fill="#191970" stroke="#191970" points="478.5001,-29.8469 475,-19.8469 471.5001,-29.847 478.5001,-29.8469"/>
</g>
</g>
</svg>
