<?xml version="1.0" encoding="UTF-8" standalone="no"?>
<!DOCTYPE svg PUBLIC "-//W3C//DTD SVG 1.1//EN"
 "http://www.w3.org/Graphics/SVG/1.1/DTD/svg11.dtd">
<!-- Generated by graphviz version 2.40.1 (20161225.0304)
 -->
<!-- Title: TechnicalServices/TechnicalServicesFactory.h Pages: 1 -->
<svg width="295pt" height="162pt"
 viewBox="0.00 0.00 295.00 162.00" xmlns="http://www.w3.org/2000/svg" xmlns:xlink="http://www.w3.org/1999/xlink">
<g id="graph0" class="graph" transform="scale(1 1) rotate(0) translate(4 158)">
<title>TechnicalServices/TechnicalServicesFactory.h</title>
<polygon fill="#ffffff" stroke="transparent" points="-4,4 -4,-158 291,-158 291,4 -4,4"/>
<!-- Node0 -->
<g id="node1" class="node">
<title>Node0</title>
<polygon fill="#bfbfbf" stroke="#000000" points="67.5,-123.5 67.5,-153.5 209.5,-153.5 209.5,-123.5 67.5,-123.5"/>
<text text-anchor="start" x="75.5" y="-141.5" font-family="Helvetica,sans-Serif" font-size="10.00" fill="#000000">TechnicalServices/Technical</text>
<text text-anchor="middle" x="138.5" y="-130.5" font-family="Helvetica,sans-Serif" font-size="10.00" fill="#000000">ServicesFactory.h</text>
</g>
<!-- Node1 -->
<g id="node2" class="node">
<title>Node1</title>
<g id="a_node2"><a xlink:href="$ForwardDeclarations_8h.html" xlink:title="Asteroids/ForwardDeclarations.h">
<polygon fill="#ffffff" stroke="#000000" points="0,-.5 0,-19.5 159,-19.5 159,-.5 0,-.5"/>
<text text-anchor="middle" x="79.5" y="-7.5" font-family="Helvetica,sans-Serif" font-size="10.00" fill="#000000">Asteroids/ForwardDeclarations.h</text>
</a>
</g>
</g>
<!-- Node0&#45;&gt;Node1 -->
<g id="edge1" class="edge">
<title>Node0&#45;&gt;Node1</title>
<path fill="none" stroke="#191970" d="M124.4568,-123.3343C116.1217,-113.5991 105.9545,-100.3232 99.5,-87 90.6326,-68.6961 85.349,-45.9718 82.4603,-29.9691"/>
<polygon fill="#191970" stroke="#191970" points="85.8417,-28.9622 80.7632,-19.6639 78.9348,-30.0997 85.8417,-28.9622"/>
</g>
<!-- Node2 -->
<g id="node3" class="node">
<title>Node2</title>
<g id="a_node3"><a xlink:href="$TechnicalServicesFactoryInterface_8h.html" xlink:title="Asteroids/TechnicalServices\l/TechnicalServicesFactoryInterface.h">
<polygon fill="#ffffff" stroke="#000000" points="108,-56.5 108,-86.5 287,-86.5 287,-56.5 108,-56.5"/>
<text text-anchor="start" x="116" y="-74.5" font-family="Helvetica,sans-Serif" font-size="10.00" fill="#000000">Asteroids/TechnicalServices</text>
<text text-anchor="middle" x="197.5" y="-63.5" font-family="Helvetica,sans-Serif" font-size="10.00" fill="#000000">/TechnicalServicesFactoryInterface.h</text>
</a>
</g>
</g>
<!-- Node0&#45;&gt;Node2 -->
<g id="edge2" class="edge">
<title>Node0&#45;&gt;Node2</title>
<path fill="none" stroke="#191970" d="M151.888,-123.2967C159.4315,-114.7303 169.0027,-103.8614 177.4274,-94.2943"/>
<polygon fill="#191970" stroke="#191970" points="180.1829,-96.4612 184.165,-86.6432 174.9294,-91.835 180.1829,-96.4612"/>
</g>
<!-- Node2&#45;&gt;Node1 -->
<g id="edge3" class="edge">
<title>Node2&#45;&gt;Node1</title>
<path fill="none" stroke="#191970" d="M168.634,-56.4554C149.8089,-46.644 125.389,-33.9167 106.8708,-24.2653"/>
<polygon fill="#191970" stroke="#191970" points="108.2713,-21.0484 97.7858,-19.5303 105.036,-27.2559 108.2713,-21.0484"/>
</g>
<!-- Node3 -->
<g id="node4" class="node">
<title>Node3</title>
<polygon fill="#ffffff" stroke="#bfbfbf" points="176.5,-.5 176.5,-19.5 228.5,-19.5 228.5,-.5 176.5,-.5"/>
<text text-anchor="middle" x="202.5" y="-7.5" font-family="Helvetica,sans-Serif" font-size="10.00" fill="#000000">memory</text>
</g>
<!-- Node2&#45;&gt;Node3 -->
<g id="edge4" class="edge">
<title>Node2&#45;&gt;Node3</title>
<path fill="none" stroke="#191970" d="M198.736,-56.2977C199.3794,-48.3834 200.1744,-38.6043 200.8678,-30.0759"/>
<polygon fill="#191970" stroke="#191970" points="204.3775,-30.0977 201.6994,-19.8469 197.4005,-29.5304 204.3775,-30.0977"/>
</g>
</g>
</svg>
