<?xml version="1.0" encoding="UTF-8" standalone="no"?>
<!DOCTYPE svg PUBLIC "-//W3C//DTD SVG 1.1//EN"
 "http://www.w3.org/Graphics/SVG/1.1/DTD/svg11.dtd">
<!-- Generated by graphviz version 2.40.1 (20161225.0304)
 -->
<!-- Title: TechnicalServices/TechnicalServicesFactoryInterface.h Pages: 1 -->
<svg width="648pt" height="173pt"
 viewBox="0.00 0.00 647.50 173.00" xmlns="http://www.w3.org/2000/svg" xmlns:xlink="http://www.w3.org/1999/xlink">
<g id="graph0" class="graph" transform="scale(1 1) rotate(0) translate(4 169)">
<title>TechnicalServices/TechnicalServicesFactoryInterface.h</title>
<polygon fill="#ffffff" stroke="transparent" points="-4,4 -4,-169 643.5,-169 643.5,4 -4,4"/>
<!-- Node3 -->
<g id="node1" class="node">
<title>Node3</title>
<polygon fill="#bfbfbf" stroke="#000000" points="265.5,-134.5 265.5,-164.5 407.5,-164.5 407.5,-134.5 265.5,-134.5"/>
<text text-anchor="start" x="273.5" y="-152.5" font-family="Helvetica,sans-Serif" font-size="10.00" fill="#000000">TechnicalServices/Technical</text>
<text text-anchor="middle" x="336.5" y="-141.5" font-family="Helvetica,sans-Serif" font-size="10.00" fill="#000000">ServicesFactoryInterface.h</text>
</g>
<!-- Node4 -->
<g id="node2" class="node">
<title>Node4</title>
<g id="a_node2"><a xlink:href="$ServerDaemon_8cpp.html" xlink:title="Domain/Server/ServerDaemon.cpp">
<polygon fill="#ffffff" stroke="#000000" points="0,-73 0,-92 169,-92 169,-73 0,-73"/>
<text text-anchor="middle" x="84.5" y="-80" font-family="Helvetica,sans-Serif" font-size="10.00" fill="#000000">Domain/Server/ServerDaemon.cpp</text>
</a>
</g>
</g>
<!-- Node3&#45;&gt;Node4 -->
<g id="edge1" class="edge">
<title>Node3&#45;&gt;Node4</title>
<path fill="none" stroke="#191970" d="M270.2503,-131.886C222.2375,-119.1207 159.1622,-102.3507 120.2512,-92.0053"/>
<polygon fill="#191970" stroke="#191970" points="269.3827,-135.2768 279.9463,-134.4639 271.1814,-128.5119 269.3827,-135.2768"/>
</g>
<!-- Node5 -->
<g id="node3" class="node">
<title>Node5</title>
<g id="a_node3"><a xlink:href="$TechnicalServicesFactory_8h.html" xlink:title="TechnicalServices/Technical\lServicesFactory.h">
<polygon fill="#ffffff" stroke="#000000" points="187.5,-67.5 187.5,-97.5 329.5,-97.5 329.5,-67.5 187.5,-67.5"/>
<text text-anchor="start" x="195.5" y="-85.5" font-family="Helvetica,sans-Serif" font-size="10.00" fill="#000000">TechnicalServices/Technical</text>
<text text-anchor="middle" x="258.5" y="-74.5" font-family="Helvetica,sans-Serif" font-size="10.00" fill="#000000">ServicesFactory.h</text>
</a>
</g>
</g>
<!-- Node3&#45;&gt;Node5 -->
<g id="edge2" class="edge">
<title>Node3&#45;&gt;Node5</title>
<path fill="none" stroke="#191970" d="M310.884,-127.4965C299.5016,-117.7193 286.3884,-106.4554 276.1294,-97.6432"/>
<polygon fill="#191970" stroke="#191970" points="308.9343,-130.4357 318.8006,-134.2967 313.4955,-125.1257 308.9343,-130.4357"/>
</g>
<!-- Node8 -->
<g id="node6" class="node">
<title>Node8</title>
<g id="a_node6"><a xlink:href="$ClientTextUI_8cpp.html" xlink:title="UI/ClientTextUI/ClientText\lUI.cpp">
<polygon fill="#ffffff" stroke="#000000" points="347.5,-67.5 347.5,-97.5 481.5,-97.5 481.5,-67.5 347.5,-67.5"/>
<text text-anchor="start" x="355.5" y="-85.5" font-family="Helvetica,sans-Serif" font-size="10.00" fill="#000000">UI/ClientTextUI/ClientText</text>
<text text-anchor="middle" x="414.5" y="-74.5" font-family="Helvetica,sans-Serif" font-size="10.00" fill="#000000">UI.cpp</text>
</a>
</g>
</g>
<!-- Node3&#45;&gt;Node8 -->
<g id="edge5" class="edge">
<title>Node3&#45;&gt;Node8</title>
<path fill="none" stroke="#191970" d="M362.116,-127.4965C373.4984,-117.7193 386.6116,-106.4554 396.8706,-97.6432"/>
<polygon fill="#191970" stroke="#191970" points="359.5045,-125.1257 354.1994,-134.2967 364.0657,-130.4357 359.5045,-125.1257"/>
</g>
<!-- Node9 -->
<g id="node7" class="node">
<title>Node9</title>
<g id="a_node7"><a xlink:href="$ServerTextUI_8cpp.html" xlink:title="UI/ServerTextUI/ServerText\lUI.cpp">
<polygon fill="#ffffff" stroke="#000000" points="499.5,-67.5 499.5,-97.5 639.5,-97.5 639.5,-67.5 499.5,-67.5"/>
<text text-anchor="start" x="507.5" y="-85.5" font-family="Helvetica,sans-Serif" font-size="10.00" fill="#000000">UI/ServerTextUI/ServerText</text>
<text text-anchor="middle" x="569.5" y="-74.5" font-family="Helvetica,sans-Serif" font-size="10.00" fill="#000000">UI.cpp</text>
</a>
</g>
</g>
<!-- Node3&#45;&gt;Node9 -->
<g id="edge6" class="edge">
<title>Node3&#45;&gt;Node9</title>
<path fill="none" stroke="#191970" d="M398.4563,-131.6842C435.4145,-121.0568 481.8311,-107.7095 516.9822,-97.6017"/>
<polygon fill="#191970" stroke="#191970" points="397.433,-128.3366 388.7897,-134.4639 399.3676,-135.064 397.433,-128.3366"/>
</g>
<!-- Node6 -->
<g id="node4" class="node">
<title>Node6</title>
<g id="a_node4"><a xlink:href="$Factory_8cpp.html" xlink:title="Domain/Factory/Factory.cpp">
<polygon fill="#ffffff" stroke="#000000" points="108,-6 108,-25 249,-25 249,-6 108,-6"/>
<text text-anchor="middle" x="178.5" y="-13" font-family="Helvetica,sans-Serif" font-size="10.00" fill="#000000">Domain/Factory/Factory.cpp</text>
</a>
</g>
</g>
<!-- Node5&#45;&gt;Node6 -->
<g id="edge3" class="edge">
<title>Node5&#45;&gt;Node6</title>
<path fill="none" stroke="#191970" d="M232.2798,-60.5406C217.9383,-48.5296 200.9044,-34.2637 189.9089,-25.055"/>
<polygon fill="#191970" stroke="#191970" points="230.433,-63.5592 240.3468,-67.2967 234.9275,-58.1927 230.433,-63.5592"/>
</g>
<!-- Node7 -->
<g id="node5" class="node">
<title>Node7</title>
<g id="a_node5"><a xlink:href="$TechnicalServicesFactory_8cpp.html" xlink:title="TechnicalServices/Technical\lServicesFactory.cpp">
<polygon fill="#ffffff" stroke="#000000" points="267.5,-.5 267.5,-30.5 409.5,-30.5 409.5,-.5 267.5,-.5"/>
<text text-anchor="start" x="275.5" y="-18.5" font-family="Helvetica,sans-Serif" font-size="10.00" fill="#000000">TechnicalServices/Technical</text>
<text text-anchor="middle" x="338.5" y="-7.5" font-family="Helvetica,sans-Serif" font-size="10.00" fill="#000000">ServicesFactory.cpp</text>
</a>
</g>
</g>
<!-- Node5&#45;&gt;Node7 -->
<g id="edge4" class="edge">
<title>Node5&#45;&gt;Node7</title>
<path fill="none" stroke="#191970" d="M284.4333,-60.7808C296.1856,-50.9383 309.7944,-39.541 320.4186,-30.6432"/>
<polygon fill="#191970" stroke="#191970" points="282.0725,-58.1927 276.6532,-67.2967 286.567,-63.5592 282.0725,-58.1927"/>
</g>
</g>
</svg>
