<?xml version="1.0" encoding="UTF-8" standalone="no"?>
<!DOCTYPE svg PUBLIC "-//W3C//DTD SVG 1.1//EN"
 "http://www.w3.org/Graphics/SVG/1.1/DTD/svg11.dtd">
<!-- Generated by graphviz version 2.40.1 (20161225.0304)
 -->
<!-- Title: TechnicalServices/TechnicalServicesFactory.cpp Pages: 1 -->
<svg width="1150pt" height="229pt"
 viewBox="0.00 0.00 1150.43 229.00" xmlns="http://www.w3.org/2000/svg" xmlns:xlink="http://www.w3.org/1999/xlink">
<g id="graph0" class="graph" transform="scale(1 1) rotate(0) translate(4 225)">
<title>TechnicalServices/TechnicalServicesFactory.cpp</title>
<polygon fill="#ffffff" stroke="transparent" points="-4,4 -4,-225 1146.4267,-225 1146.4267,4 -4,4"/>
<!-- Node0 -->
<g id="node1" class="node">
<title>Node0</title>
<polygon fill="#bfbfbf" stroke="#000000" points="383.5,-190.5 383.5,-220.5 525.5,-220.5 525.5,-190.5 383.5,-190.5"/>
<text text-anchor="start" x="391.5" y="-208.5" font-family="Helvetica,sans-Serif" font-size="10.00" fill="#000000">TechnicalServices/Technical</text>
<text text-anchor="middle" x="454.5" y="-197.5" font-family="Helvetica,sans-Serif" font-size="10.00" fill="#000000">ServicesFactory.cpp</text>
</g>
<!-- Node1 -->
<g id="node2" class="node">
<title>Node1</title>
<g id="a_node2"><a xlink:href="$TechnicalServicesFactory_8h.html" xlink:title="Asteroids/TechnicalServices\l/TechnicalServicesFactory.h">
<polygon fill="#ffffff" stroke="#000000" points="538,-123.5 538,-153.5 679,-153.5 679,-123.5 538,-123.5"/>
<text text-anchor="start" x="546" y="-141.5" font-family="Helvetica,sans-Serif" font-size="10.00" fill="#000000">Asteroids/TechnicalServices</text>
<text text-anchor="middle" x="608.5" y="-130.5" font-family="Helvetica,sans-Serif" font-size="10.00" fill="#000000">/TechnicalServicesFactory.h</text>
</a>
</g>
</g>
<!-- Node0&#45;&gt;Node1 -->
<g id="edge1" class="edge">
<title>Node0&#45;&gt;Node1</title>
<path fill="none" stroke="#191970" d="M489.0606,-190.4639C511.3727,-180.7567 540.5987,-168.0415 564.5554,-157.6188"/>
<polygon fill="#191970" stroke="#191970" points="566.0152,-160.8006 573.7887,-153.6017 563.2226,-154.3818 566.0152,-160.8006"/>
</g>
<!-- Node5 -->
<g id="node6" class="node">
<title>Node5</title>
<g id="a_node6"><a xlink:href="$Databaser_8h.html" xlink:title="Asteroids/TechnicalServices\l/Persistence/Databaser.h">
<polygon fill="#ffffff" stroke="#000000" points="159,-123.5 159,-153.5 300,-153.5 300,-123.5 159,-123.5"/>
<text text-anchor="start" x="167" y="-141.5" font-family="Helvetica,sans-Serif" font-size="10.00" fill="#000000">Asteroids/TechnicalServices</text>
<text text-anchor="middle" x="229.5" y="-130.5" font-family="Helvetica,sans-Serif" font-size="10.00" fill="#000000">/Persistence/Databaser.h</text>
</a>
</g>
</g>
<!-- Node0&#45;&gt;Node5 -->
<g id="edge6" class="edge">
<title>Node0&#45;&gt;Node5</title>
<path fill="none" stroke="#191970" d="M404.0056,-190.4639C370.2528,-180.4131 325.6708,-167.1375 290.0175,-156.5208"/>
<polygon fill="#191970" stroke="#191970" points="290.7976,-153.1013 280.2146,-153.6017 288.7998,-159.8101 290.7976,-153.1013"/>
</g>
<!-- Node10 -->
<g id="node11" class="node">
<title>Node10</title>
<g id="a_node11"><a xlink:href="$CreditCardProcessorInterface_8h.html" xlink:title="Asteroids/TechnicalServices\l/Financial/CreditCardProcessorInterface.h">
<polygon fill="#ffffff" stroke="#000000" points="264.5,-56.5 264.5,-86.5 464.5,-86.5 464.5,-56.5 264.5,-56.5"/>
<text text-anchor="start" x="272.5" y="-74.5" font-family="Helvetica,sans-Serif" font-size="10.00" fill="#000000">Asteroids/TechnicalServices</text>
<text text-anchor="middle" x="364.5" y="-63.5" font-family="Helvetica,sans-Serif" font-size="10.00" fill="#000000">/Financial/CreditCardProcessorInterface.h</text>
</a>
</g>
</g>
<!-- Node0&#45;&gt;Node10 -->
<g id="edge13" class="edge">
<title>Node0&#45;&gt;Node10</title>
<path fill="none" stroke="#191970" d="M469.8037,-190.3748C485.2967,-173.1721 505.0498,-144.6651 490.5,-123 480.8081,-108.5684 466.2821,-98.1782 450.5005,-90.6986"/>
<polygon fill="#191970" stroke="#191970" points="451.6578,-87.3857 441.0905,-86.6224 448.8754,-93.8089 451.6578,-87.3857"/>
</g>
<!-- Node11 -->
<g id="node12" class="node">
<title>Node11</title>
<g id="a_node12"><a xlink:href="$MastercardProcessor_8h.html" xlink:title="Asteroids/TechnicalServices\l/Financial/MastercardProcessor.h">
<polygon fill="#ffffff" stroke="#000000" points="318,-123.5 318,-153.5 481,-153.5 481,-123.5 318,-123.5"/>
<text text-anchor="start" x="326" y="-141.5" font-family="Helvetica,sans-Serif" font-size="10.00" fill="#000000">Asteroids/TechnicalServices</text>
<text text-anchor="middle" x="399.5" y="-130.5" font-family="Helvetica,sans-Serif" font-size="10.00" fill="#000000">/Financial/MastercardProcessor.h</text>
</a>
</g>
</g>
<!-- Node0&#45;&gt;Node11 -->
<g id="edge16" class="edge">
<title>Node0&#45;&gt;Node11</title>
<path fill="none" stroke="#191970" d="M442.0196,-190.2967C435.0579,-181.816 426.2436,-171.0785 418.4476,-161.5817"/>
<polygon fill="#191970" stroke="#191970" points="420.9812,-159.1517 411.931,-153.6432 415.5707,-163.5932 420.9812,-159.1517"/>
</g>
<!-- Node12 -->
<g id="node13" class="node">
<title>Node12</title>
<g id="a_node13"><a xlink:href="$VisaProcessor_8h.html" xlink:title="Asteroids/TechnicalServices\l/Financial/VisaProcessor.h">
<polygon fill="#ffffff" stroke="#000000" points="0,-123.5 0,-153.5 141,-153.5 141,-123.5 0,-123.5"/>
<text text-anchor="start" x="8" y="-141.5" font-family="Helvetica,sans-Serif" font-size="10.00" fill="#000000">Asteroids/TechnicalServices</text>
<text text-anchor="middle" x="70.5" y="-130.5" font-family="Helvetica,sans-Serif" font-size="10.00" fill="#000000">/Financial/VisaProcessor.h</text>
</a>
</g>
</g>
<!-- Node0&#45;&gt;Node12 -->
<g id="edge19" class="edge">
<title>Node0&#45;&gt;Node12</title>
<path fill="none" stroke="#191970" d="M383.2273,-194.0129C323.6513,-184.2851 236.1862,-169.7123 150.9597,-154.2437"/>
<polygon fill="#191970" stroke="#191970" points="151.583,-150.7997 141.1177,-152.4515 150.3288,-157.6865 151.583,-150.7997"/>
</g>
<!-- Node13 -->
<g id="node14" class="node">
<title>Node13</title>
<g id="a_node14"><a xlink:href="$SocialMedia_8h.html" xlink:title="Asteroids/TechnicalServices\l/Social/SocialMedia.h">
<polygon fill="#ffffff" stroke="#000000" points="880,-123.5 880,-153.5 1021,-153.5 1021,-123.5 880,-123.5"/>
<text text-anchor="start" x="888" y="-141.5" font-family="Helvetica,sans-Serif" font-size="10.00" fill="#000000">Asteroids/TechnicalServices</text>
<text text-anchor="middle" x="950.5" y="-130.5" font-family="Helvetica,sans-Serif" font-size="10.00" fill="#000000">/Social/SocialMedia.h</text>
</a>
</g>
</g>
<!-- Node0&#45;&gt;Node13 -->
<g id="edge22" class="edge">
<title>Node0&#45;&gt;Node13</title>
<path fill="none" stroke="#191970" d="M525.5647,-195.9005C616.6686,-183.5942 774.2429,-162.3089 869.7784,-149.4039"/>
<polygon fill="#191970" stroke="#191970" points="870.5268,-152.8347 879.9682,-148.0275 869.5897,-145.8977 870.5268,-152.8347"/>
</g>
<!-- Node2 -->
<g id="node3" class="node">
<title>Node2</title>
<g id="a_node3"><a xlink:href="$ForwardDeclarations_8h.html" xlink:title="Asteroids/ForwardDeclarations.h">
<polygon fill="#ffffff" stroke="#000000" points="413,-.5 413,-19.5 572,-19.5 572,-.5 413,-.5"/>
<text text-anchor="middle" x="492.5" y="-7.5" font-family="Helvetica,sans-Serif" font-size="10.00" fill="#000000">Asteroids/ForwardDeclarations.h</text>
</a>
</g>
</g>
<!-- Node1&#45;&gt;Node2 -->
<g id="edge2" class="edge">
<title>Node1&#45;&gt;Node2</title>
<path fill="none" stroke="#191970" d="M566.6454,-123.2837C548.9789,-114.9833 529.527,-103.0663 516.5,-87 503.1725,-70.5632 497.2165,-46.6988 494.5733,-29.9045"/>
<polygon fill="#191970" stroke="#191970" points="497.9909,-29.0465 493.2227,-19.5853 491.0501,-29.955 497.9909,-29.0465"/>
</g>
<!-- Node3 -->
<g id="node4" class="node">
<title>Node3</title>
<g id="a_node4"><a xlink:href="$TechnicalServicesFactoryInterface_8h.html" xlink:title="Asteroids/TechnicalServices\l/TechnicalServicesFactoryInterface.h">
<polygon fill="#ffffff" stroke="#000000" points="743,-56.5 743,-86.5 922,-86.5 922,-56.5 743,-56.5"/>
<text text-anchor="start" x="751" y="-74.5" font-family="Helvetica,sans-Serif" font-size="10.00" fill="#000000">Asteroids/TechnicalServices</text>
<text text-anchor="middle" x="832.5" y="-63.5" font-family="Helvetica,sans-Serif" font-size="10.00" fill="#000000">/TechnicalServicesFactoryInterface.h</text>
</a>
</g>
</g>
<!-- Node1&#45;&gt;Node3 -->
<g id="edge3" class="edge">
<title>Node1&#45;&gt;Node3</title>
<path fill="none" stroke="#191970" d="M658.77,-123.4639C692.3728,-113.4131 736.7566,-100.1375 772.2515,-89.5208"/>
<polygon fill="#191970" stroke="#191970" points="773.4332,-92.8206 782.0108,-86.6017 771.4272,-86.1142 773.4332,-92.8206"/>
</g>
<!-- Node3&#45;&gt;Node2 -->
<g id="edge4" class="edge">
<title>Node3&#45;&gt;Node2</title>
<path fill="none" stroke="#191970" d="M749.3266,-56.4554C689.3622,-45.6089 609.696,-31.1987 555.0834,-21.3202"/>
<polygon fill="#191970" stroke="#191970" points="555.6513,-17.8662 545.1879,-19.5303 554.4052,-24.7544 555.6513,-17.8662"/>
</g>
<!-- Node4 -->
<g id="node5" class="node">
<title>Node4</title>
<polygon fill="#ffffff" stroke="#bfbfbf" points="1026.5,-.5 1026.5,-19.5 1078.5,-19.5 1078.5,-.5 1026.5,-.5"/>
<text text-anchor="middle" x="1052.5" y="-7.5" font-family="Helvetica,sans-Serif" font-size="10.00" fill="#000000">memory</text>
</g>
<!-- Node3&#45;&gt;Node4 -->
<g id="edge5" class="edge">
<title>Node3&#45;&gt;Node4</title>
<path fill="none" stroke="#191970" d="M886.3181,-56.4554C926.8409,-45.1274 981.2687,-29.9124 1016.6122,-20.0323"/>
<polygon fill="#191970" stroke="#191970" points="1017.8007,-23.3343 1026.4892,-17.2712 1015.9161,-16.5927 1017.8007,-23.3343"/>
</g>
<!-- Node5&#45;&gt;Node2 -->
<g id="edge7" class="edge">
<title>Node5&#45;&gt;Node2</title>
<path fill="none" stroke="#191970" d="M227.5765,-123.4107C226.1302,-104.8816 226.826,-73.7368 244.5,-56 266.5326,-33.8891 340.9368,-22.1391 402.5494,-16.0674"/>
<polygon fill="#191970" stroke="#191970" points="403.0837,-19.5325 412.7092,-15.1053 402.4237,-12.5637 403.0837,-19.5325"/>
</g>
<!-- Node6 -->
<g id="node7" class="node">
<title>Node6</title>
<g id="a_node7"><a xlink:href="$DatabaserInterface_8h.html" xlink:title="Asteroids/TechnicalServices\l/Persistence/DatabaserInterface.h">
<polygon fill="#ffffff" stroke="#000000" points="558.5,-56.5 558.5,-86.5 724.5,-86.5 724.5,-56.5 558.5,-56.5"/>
<text text-anchor="start" x="566.5" y="-74.5" font-family="Helvetica,sans-Serif" font-size="10.00" fill="#000000">Asteroids/TechnicalServices</text>
<text text-anchor="middle" x="641.5" y="-63.5" font-family="Helvetica,sans-Serif" font-size="10.00" fill="#000000">/Persistence/DatabaserInterface.h</text>
</a>
</g>
</g>
<!-- Node5&#45;&gt;Node6 -->
<g id="edge8" class="edge">
<title>Node5&#45;&gt;Node6</title>
<path fill="none" stroke="#191970" d="M300.109,-124.5C302.9413,-123.9848 305.7467,-123.4828 308.5,-123 389.2035,-108.8482 481.2762,-94.7662 548.1208,-84.9136"/>
<polygon fill="#191970" stroke="#191970" points="548.8262,-88.3476 558.2108,-83.4302 547.808,-81.422 548.8262,-88.3476"/>
</g>
<!-- Node6&#45;&gt;Node2 -->
<g id="edge9" class="edge">
<title>Node6&#45;&gt;Node2</title>
<path fill="none" stroke="#191970" d="M605.0505,-56.4554C580.6256,-46.374 548.7419,-33.2139 525.1479,-23.4755"/>
<polygon fill="#191970" stroke="#191970" points="526.1687,-20.1104 515.5897,-19.5303 523.4979,-26.5809 526.1687,-20.1104"/>
</g>
<!-- Node7 -->
<g id="node8" class="node">
<title>Node7</title>
<polygon fill="#ffffff" stroke="#bfbfbf" points="734,-.5 734,-19.5 775,-19.5 775,-.5 734,-.5"/>
<text text-anchor="middle" x="754.5" y="-7.5" font-family="Helvetica,sans-Serif" font-size="10.00" fill="#000000">string</text>
</g>
<!-- Node6&#45;&gt;Node7 -->
<g id="edge10" class="edge">
<title>Node6&#45;&gt;Node7</title>
<path fill="none" stroke="#191970" d="M669.1429,-56.4554C687.0049,-46.734 710.1268,-34.15 727.7995,-24.5317"/>
<polygon fill="#191970" stroke="#191970" points="729.8787,-27.3849 736.989,-19.5303 726.5325,-21.2365 729.8787,-27.3849"/>
</g>
<!-- Node8 -->
<g id="node9" class="node">
<title>Node8</title>
<polygon fill="#ffffff" stroke="#bfbfbf" points="907.5,-.5 907.5,-19.5 951.5,-19.5 951.5,-.5 907.5,-.5"/>
<text text-anchor="middle" x="929.5" y="-7.5" font-family="Helvetica,sans-Serif" font-size="10.00" fill="#000000">vector</text>
</g>
<!-- Node6&#45;&gt;Node8 -->
<g id="edge11" class="edge">
<title>Node6&#45;&gt;Node8</title>
<path fill="none" stroke="#191970" d="M711.9527,-56.4554C771.1532,-43.8136 853.0237,-26.3309 897.5423,-16.8243"/>
<polygon fill="#191970" stroke="#191970" points="898.4496,-20.2095 907.4982,-14.6983 896.9877,-13.3639 898.4496,-20.2095"/>
</g>
<!-- Node9 -->
<g id="node10" class="node">
<title>Node9</title>
<polygon fill="#ffffff" stroke="#bfbfbf" points="624,-.5 624,-19.5 659,-19.5 659,-.5 624,-.5"/>
<text text-anchor="middle" x="641.5" y="-7.5" font-family="Helvetica,sans-Serif" font-size="10.00" fill="#000000">map</text>
</g>
<!-- Node6&#45;&gt;Node9 -->
<g id="edge12" class="edge">
<title>Node6&#45;&gt;Node9</title>
<path fill="none" stroke="#191970" d="M641.5,-56.2977C641.5,-48.3834 641.5,-38.6043 641.5,-30.0759"/>
<polygon fill="#191970" stroke="#191970" points="645.0001,-29.8469 641.5,-19.8469 638.0001,-29.847 645.0001,-29.8469"/>
</g>
<!-- Node10&#45;&gt;Node2 -->
<g id="edge14" class="edge">
<title>Node10&#45;&gt;Node2</title>
<path fill="none" stroke="#191970" d="M395.8123,-56.4554C416.5138,-46.509 443.4523,-33.5659 463.6353,-23.8686"/>
<polygon fill="#191970" stroke="#191970" points="465.1667,-27.0159 472.6645,-19.5303 462.1352,-20.7064 465.1667,-27.0159"/>
</g>
<!-- Node10&#45;&gt;Node7 -->
<g id="edge15" class="edge">
<title>Node10&#45;&gt;Node7</title>
<path fill="none" stroke="#191970" d="M459.9047,-56.4554C546.1285,-42.8586 667.8651,-23.6617 723.9863,-14.8118"/>
<polygon fill="#191970" stroke="#191970" points="724.6597,-18.2489 733.9924,-13.2339 723.5693,-11.3344 724.6597,-18.2489"/>
</g>
<!-- Node11&#45;&gt;Node2 -->
<g id="edge17" class="edge">
<title>Node11&#45;&gt;Node2</title>
<path fill="none" stroke="#191970" d="M326.2711,-123.4626C278.307,-110.2663 229.0133,-88.1219 255.5,-56 274.2159,-33.3022 343.6702,-21.6654 402.5898,-15.784"/>
<polygon fill="#191970" stroke="#191970" points="403.0754,-19.2536 412.6979,-14.82 402.4108,-12.2853 403.0754,-19.2536"/>
</g>
<!-- Node11&#45;&gt;Node10 -->
<g id="edge18" class="edge">
<title>Node11&#45;&gt;Node10</title>
<path fill="none" stroke="#191970" d="M391.558,-123.2967C387.3067,-115.1586 381.97,-104.9425 377.162,-95.7386"/>
<polygon fill="#191970" stroke="#191970" points="380.1431,-93.8861 372.4106,-86.6432 373.9386,-97.1273 380.1431,-93.8861"/>
</g>
<!-- Node12&#45;&gt;Node2 -->
<g id="edge20" class="edge">
<title>Node12&#45;&gt;Node2</title>
<path fill="none" stroke="#191970" d="M93.4991,-123.3421C123.0404,-104.5928 176.4824,-73.0679 226.5,-56 283.5867,-36.5198 350.5069,-25.0001 402.9436,-18.3603"/>
<polygon fill="#191970" stroke="#191970" points="403.3971,-21.831 412.8951,-17.1366 402.5426,-14.8834 403.3971,-21.831"/>
</g>
<!-- Node12&#45;&gt;Node10 -->
<g id="edge21" class="edge">
<title>Node12&#45;&gt;Node10</title>
<path fill="none" stroke="#191970" d="M136.4793,-123.4639C181.6044,-113.1803 241.5426,-99.5209 288.6415,-88.7875"/>
<polygon fill="#191970" stroke="#191970" points="289.5147,-92.1783 298.487,-86.5438 287.9593,-85.3533 289.5147,-92.1783"/>
</g>
<!-- Node13&#45;&gt;Node2 -->
<g id="edge23" class="edge">
<title>Node13&#45;&gt;Node2</title>
<path fill="none" stroke="#191970" d="M879.8639,-136.0312C780.098,-131.443 603.9837,-118.9701 549.5,-87 526.5031,-73.5058 509.9558,-46.7166 500.7986,-28.5753"/>
<polygon fill="#191970" stroke="#191970" points="503.945,-27.0418 496.4776,-19.5259 497.6282,-30.0581 503.945,-27.0418"/>
</g>
<!-- Node13&#45;&gt;Node4 -->
<g id="edge30" class="edge">
<title>Node13&#45;&gt;Node4</title>
<path fill="none" stroke="#191970" d="M1021.2173,-127.95C1067.6148,-119.4167 1122.2485,-105.7337 1136.5,-87 1144.8419,-76.0346 1143.5232,-67.8534 1136.5,-56 1126.0593,-38.3787 1106.2161,-27.0647 1088.4371,-20.0681"/>
<polygon fill="#191970" stroke="#191970" points="1089.4394,-16.709 1078.845,-16.6126 1087.0669,-23.2947 1089.4394,-16.709"/>
</g>
<!-- Node13&#45;&gt;Node7 -->
<g id="edge29" class="edge">
<title>Node13&#45;&gt;Node7</title>
<path fill="none" stroke="#191970" d="M951.4022,-123.2134C951.6133,-104.7752 949.0222,-74.0182 931.5,-56 911.3663,-35.2964 830.468,-20.7887 785.3318,-14.1258"/>
<polygon fill="#191970" stroke="#191970" points="785.611,-10.6302 775.2155,-12.6755 784.6176,-17.5593 785.611,-10.6302"/>
</g>
<!-- Node14 -->
<g id="node15" class="node">
<title>Node14</title>
<g id="a_node15"><a xlink:href="$SocialMediaInterface_8h.html" xlink:title="Asteroids/TechnicalServices\l/Social/SocialMediaInterface.h">
<polygon fill="#ffffff" stroke="#000000" points="978,-56.5 978,-86.5 1127,-86.5 1127,-56.5 978,-56.5"/>
<text text-anchor="start" x="986" y="-74.5" font-family="Helvetica,sans-Serif" font-size="10.00" fill="#000000">Asteroids/TechnicalServices</text>
<text text-anchor="middle" x="1052.5" y="-63.5" font-family="Helvetica,sans-Serif" font-size="10.00" fill="#000000">/Social/SocialMediaInterface.h</text>
</a>
</g>
</g>
<!-- Node13&#45;&gt;Node14 -->
<g id="edge24" class="edge">
<title>Node13&#45;&gt;Node14</title>
<path fill="none" stroke="#191970" d="M973.3908,-123.4639C987.3352,-114.3044 1005.3567,-102.4667 1020.6762,-92.4038"/>
<polygon fill="#191970" stroke="#191970" points="1022.8961,-95.1333 1029.3327,-86.7177 1019.053,-89.2826 1022.8961,-95.1333"/>
</g>
<!-- Node14&#45;&gt;Node2 -->
<g id="edge25" class="edge">
<title>Node14&#45;&gt;Node2</title>
<path fill="none" stroke="#191970" d="M977.9816,-61.6807C962.6192,-59.7333 946.5411,-57.7512 931.5,-56 810.7487,-41.9414 671.0764,-27.6425 582.3007,-18.7996"/>
<polygon fill="#191970" stroke="#191970" points="582.5646,-15.3087 572.2673,-17.8018 581.8719,-22.2743 582.5646,-15.3087"/>
</g>
<!-- Node14&#45;&gt;Node4 -->
<g id="edge28" class="edge">
<title>Node14&#45;&gt;Node4</title>
<path fill="none" stroke="#191970" d="M1052.5,-56.2977C1052.5,-48.3834 1052.5,-38.6043 1052.5,-30.0759"/>
<polygon fill="#191970" stroke="#191970" points="1056.0001,-29.8469 1052.5,-19.8469 1049.0001,-29.847 1056.0001,-29.8469"/>
</g>
<!-- Node14&#45;&gt;Node7 -->
<g id="edge26" class="edge">
<title>Node14&#45;&gt;Node7</title>
<path fill="none" stroke="#191970" d="M979.601,-56.4554C917.2566,-43.589 830.614,-25.7081 785.1489,-16.3252"/>
<polygon fill="#191970" stroke="#191970" points="785.806,-12.8871 775.3049,-14.2936 784.3911,-19.7426 785.806,-12.8871"/>
</g>
<!-- Node14&#45;&gt;Node8 -->
<g id="edge27" class="edge">
<title>Node14&#45;&gt;Node8</title>
<path fill="none" stroke="#191970" d="M1022.4108,-56.4554C1002.6981,-46.599 977.0998,-33.7999 957.7653,-24.1327"/>
<polygon fill="#191970" stroke="#191970" points="959.0702,-20.872 948.5606,-19.5303 955.9397,-27.133 959.0702,-20.872"/>
</g>
</g>
</svg>
