<?xml version="1.0" encoding="UTF-8" standalone="no"?>
<!DOCTYPE svg PUBLIC "-//W3C//DTD SVG 1.1//EN"
 "http://www.w3.org/Graphics/SVG/1.1/DTD/svg11.dtd">
<!-- Generated by graphviz version 2.40.1 (20161225.0304)
 -->
<!-- Title: UI/ClientTextUI/Enums/Enums.h Pages: 1 -->
<svg width="252pt" height="162pt"
 viewBox="0.00 0.00 252.00 162.00" xmlns="http://www.w3.org/2000/svg" xmlns:xlink="http://www.w3.org/1999/xlink">
<g id="graph0" class="graph" transform="scale(1 1) rotate(0) translate(4 158)">
<title>UI/ClientTextUI/Enums/Enums.h</title>
<polygon fill="#ffffff" stroke="transparent" points="-4,4 -4,-158 248,-158 248,4 -4,4"/>
<!-- Node1 -->
<g id="node1" class="node">
<title>Node1</title>
<polygon fill="#bfbfbf" stroke="#000000" points="72.5,-123.5 72.5,-153.5 191.5,-153.5 191.5,-123.5 72.5,-123.5"/>
<text text-anchor="start" x="80.5" y="-141.5" font-family="Helvetica,sans-Serif" font-size="10.00" fill="#000000">UI/ClientTextUI/Enums</text>
<text text-anchor="middle" x="132" y="-130.5" font-family="Helvetica,sans-Serif" font-size="10.00" fill="#000000">/Enums.h</text>
</g>
<!-- Node2 -->
<g id="node2" class="node">
<title>Node2</title>
<g id="a_node2"><a xlink:href="$ClientTextUI_8h.html" xlink:title="UI/ClientTextUI/ClientTextUI.h">
<polygon fill="#ffffff" stroke="#000000" points="56,-67.5 56,-86.5 208,-86.5 208,-67.5 56,-67.5"/>
<text text-anchor="middle" x="132" y="-74.5" font-family="Helvetica,sans-Serif" font-size="10.00" fill="#000000">UI/ClientTextUI/ClientTextUI.h</text>
</a>
</g>
</g>
<!-- Node1&#45;&gt;Node2 -->
<g id="edge1" class="edge">
<title>Node1&#45;&gt;Node2</title>
<path fill="none" stroke="#191970" d="M132,-113.2849C132,-103.9858 132,-93.9883 132,-86.8469"/>
<polygon fill="#191970" stroke="#191970" points="128.5001,-113.2977 132,-123.2977 135.5001,-113.2978 128.5001,-113.2977"/>
</g>
<!-- Node3 -->
<g id="node3" class="node">
<title>Node3</title>
<g id="a_node3"><a xlink:href="$ClientTextUI_8cpp.html" xlink:title="UI/ClientTextUI/ClientText\lUI.cpp">
<polygon fill="#ffffff" stroke="#000000" points="0,-.5 0,-30.5 134,-30.5 134,-.5 0,-.5"/>
<text text-anchor="start" x="8" y="-18.5" font-family="Helvetica,sans-Serif" font-size="10.00" fill="#000000">UI/ClientTextUI/ClientText</text>
<text text-anchor="middle" x="67" y="-7.5" font-family="Helvetica,sans-Serif" font-size="10.00" fill="#000000">UI.cpp</text>
</a>
</g>
</g>
<!-- Node2&#45;&gt;Node3 -->
<g id="edge2" class="edge">
<title>Node2&#45;&gt;Node3</title>
<path fill="none" stroke="#191970" d="M114.5478,-60.4875C104.6988,-51.1689 92.4838,-39.6116 82.9008,-30.5446"/>
<polygon fill="#191970" stroke="#191970" points="112.1743,-63.0602 121.8438,-67.3906 116.9853,-57.9754 112.1743,-63.0602"/>
</g>
<!-- Node4 -->
<g id="node4" class="node">
<title>Node4</title>
<g id="a_node4"><a xlink:href="$UIFactory_8cpp.html" xlink:title="UI/UIFactory.cpp">
<polygon fill="#ffffff" stroke="#000000" points="152,-6 152,-25 244,-25 244,-6 152,-6"/>
<text text-anchor="middle" x="198" y="-13" font-family="Helvetica,sans-Serif" font-size="10.00" fill="#000000">UI/UIFactory.cpp</text>
</a>
</g>
</g>
<!-- Node2&#45;&gt;Node4 -->
<g id="edge3" class="edge">
<title>Node2&#45;&gt;Node4</title>
<path fill="none" stroke="#191970" d="M149.6556,-60.5482C161.7485,-49.2798 177.3779,-34.716 187.5421,-25.2449"/>
<polygon fill="#191970" stroke="#191970" points="147.2426,-58.0127 142.3125,-67.3906 152.0147,-63.134 147.2426,-58.0127"/>
</g>
</g>
</svg>
