<?xml version="1.0" encoding="UTF-8" standalone="no"?>
<!DOCTYPE svg PUBLIC "-//W3C//DTD SVG 1.1//EN"
 "http://www.w3.org/Graphics/SVG/1.1/DTD/svg11.dtd">
<!-- Generated by graphviz version 2.40.1 (20161225.0304)
 -->
<!-- Title: UI/UIFactory.h Pages: 1 -->
<svg width="280pt" height="140pt"
 viewBox="0.00 0.00 279.50 140.00" xmlns="http://www.w3.org/2000/svg" xmlns:xlink="http://www.w3.org/1999/xlink">
<g id="graph0" class="graph" transform="scale(1 1) rotate(0) translate(4 136)">
<title>UI/UIFactory.h</title>
<polygon fill="#ffffff" stroke="transparent" points="-4,4 -4,-136 275.5,-136 275.5,4 -4,4"/>
<!-- Node0 -->
<g id="node1" class="node">
<title>Node0</title>
<polygon fill="#bfbfbf" stroke="#000000" points="93.5,-112.5 93.5,-131.5 175.5,-131.5 175.5,-112.5 93.5,-112.5"/>
<text text-anchor="middle" x="134.5" y="-119.5" font-family="Helvetica,sans-Serif" font-size="10.00" fill="#000000">UI/UIFactory.h</text>
</g>
<!-- Node1 -->
<g id="node2" class="node">
<title>Node1</title>
<g id="a_node2"><a xlink:href="$ForwardDeclarations_8h.html" xlink:title="Asteroids/ForwardDeclarations.h">
<polygon fill="#ffffff" stroke="#000000" points="0,-.5 0,-19.5 159,-19.5 159,-.5 0,-.5"/>
<text text-anchor="middle" x="79.5" y="-7.5" font-family="Helvetica,sans-Serif" font-size="10.00" fill="#000000">Asteroids/ForwardDeclarations.h</text>
</a>
</g>
</g>
<!-- Node0&#45;&gt;Node1 -->
<g id="edge1" class="edge">
<title>Node0&#45;&gt;Node1</title>
<path fill="none" stroke="#191970" d="M124.9743,-112.1898C116.8877,-103.3706 105.5108,-89.7278 98.5,-76 91.0432,-61.3988 86.1153,-43.4424 83.151,-29.9473"/>
<polygon fill="#191970" stroke="#191970" points="86.5189,-28.9425 81.1104,-19.8322 79.6572,-30.3269 86.5189,-28.9425"/>
</g>
<!-- Node2 -->
<g id="node3" class="node">
<title>Node2</title>
<g id="a_node3"><a xlink:href="$UIFactoryInterface_8h.html" xlink:title="Asteroids/UI/UIFactoryInterface.h">
<polygon fill="#ffffff" stroke="#000000" points="107.5,-56.5 107.5,-75.5 271.5,-75.5 271.5,-56.5 107.5,-56.5"/>
<text text-anchor="middle" x="189.5" y="-63.5" font-family="Helvetica,sans-Serif" font-size="10.00" fill="#000000">Asteroids/UI/UIFactoryInterface.h</text>
</a>
</g>
</g>
<!-- Node0&#45;&gt;Node2 -->
<g id="edge2" class="edge">
<title>Node0&#45;&gt;Node2</title>
<path fill="none" stroke="#191970" d="M144.0803,-112.2455C152.0458,-104.1352 163.5641,-92.4075 173.0079,-82.7919"/>
<polygon fill="#191970" stroke="#191970" points="175.5195,-85.2297 180.0295,-75.6427 170.5253,-80.3247 175.5195,-85.2297"/>
</g>
<!-- Node2&#45;&gt;Node1 -->
<g id="edge3" class="edge">
<title>Node2&#45;&gt;Node1</title>
<path fill="none" stroke="#191970" d="M170.3395,-56.2455C152.9889,-47.4125 127.2099,-34.2887 107.5417,-24.2758"/>
<polygon fill="#191970" stroke="#191970" points="108.9405,-21.0605 98.441,-19.6427 105.7647,-27.2986 108.9405,-21.0605"/>
</g>
<!-- Node3 -->
<g id="node4" class="node">
<title>Node3</title>
<polygon fill="#ffffff" stroke="#bfbfbf" points="176.5,-.5 176.5,-19.5 228.5,-19.5 228.5,-.5 176.5,-.5"/>
<text text-anchor="middle" x="202.5" y="-7.5" font-family="Helvetica,sans-Serif" font-size="10.00" fill="#000000">memory</text>
</g>
<!-- Node2&#45;&gt;Node3 -->
<g id="edge4" class="edge">
<title>Node2&#45;&gt;Node3</title>
<path fill="none" stroke="#191970" d="M191.7644,-56.2455C193.4794,-48.8579 195.8912,-38.4689 197.9944,-29.4087"/>
<polygon fill="#191970" stroke="#191970" points="201.4095,-30.1751 200.2615,-19.6427 194.5908,-28.5922 201.4095,-30.1751"/>
</g>
</g>
</svg>
