<?xml version="1.0" encoding="UTF-8" standalone="no"?>
<!DOCTYPE svg PUBLIC "-//W3C//DTD SVG 1.1//EN"
 "http://www.w3.org/Graphics/SVG/1.1/DTD/svg11.dtd">
<!-- Generated by graphviz version 2.40.1 (20161225.0304)
 -->
<!-- Title: Domain/Game/Actors/Vector.cpp Pages: 1 -->
<svg width="416pt" height="162pt"
 viewBox="0.00 0.00 416.00 162.00" xmlns="http://www.w3.org/2000/svg" xmlns:xlink="http://www.w3.org/1999/xlink">
<g id="graph0" class="graph" transform="scale(1 1) rotate(0) translate(4 158)">
<title>Domain/Game/Actors/Vector.cpp</title>
<polygon fill="#ffffff" stroke="transparent" points="-4,4 -4,-158 412,-158 412,4 -4,4"/>
<!-- Node0 -->
<g id="node1" class="node">
<title>Node0</title>
<polygon fill="#bfbfbf" stroke="#000000" points="225,-123.5 225,-153.5 336,-153.5 336,-123.5 225,-123.5"/>
<text text-anchor="start" x="233" y="-141.5" font-family="Helvetica,sans-Serif" font-size="10.00" fill="#000000">Domain/Game/Actors</text>
<text text-anchor="middle" x="280.5" y="-130.5" font-family="Helvetica,sans-Serif" font-size="10.00" fill="#000000">/Vector.cpp</text>
</g>
<!-- Node1 -->
<g id="node2" class="node">
<title>Node1</title>
<g id="a_node2"><a xlink:href="$Vector_8h.html" xlink:title="Asteroids/Domain/Game\l/Actors/Vector.h">
<polygon fill="#ffffff" stroke="#000000" points="76.5,-56.5 76.5,-86.5 200.5,-86.5 200.5,-56.5 76.5,-56.5"/>
<text text-anchor="start" x="84.5" y="-74.5" font-family="Helvetica,sans-Serif" font-size="10.00" fill="#000000">Asteroids/Domain/Game</text>
<text text-anchor="middle" x="138.5" y="-63.5" font-family="Helvetica,sans-Serif" font-size="10.00" fill="#000000">/Actors/Vector.h</text>
</a>
</g>
</g>
<!-- Node0&#45;&gt;Node1 -->
<g id="edge1" class="edge">
<title>Node0&#45;&gt;Node1</title>
<path fill="none" stroke="#191970" d="M248.6324,-123.4639C228.3125,-113.8763 201.7738,-101.3545 179.8395,-91.0052"/>
<polygon fill="#191970" stroke="#191970" points="181.2899,-87.8196 170.7525,-86.7177 178.3028,-94.1503 181.2899,-87.8196"/>
</g>
<!-- Node4 -->
<g id="node5" class="node">
<title>Node4</title>
<g id="a_node5"><a xlink:href="$Domain_2Game_2Defines_8h.html" xlink:title="Asteroids/Domain/Game\l/Defines.h">
<polygon fill="#ffffff" stroke="#000000" points="218.5,-56.5 218.5,-86.5 342.5,-86.5 342.5,-56.5 218.5,-56.5"/>
<text text-anchor="start" x="226.5" y="-74.5" font-family="Helvetica,sans-Serif" font-size="10.00" fill="#000000">Asteroids/Domain/Game</text>
<text text-anchor="middle" x="280.5" y="-63.5" font-family="Helvetica,sans-Serif" font-size="10.00" fill="#000000">/Defines.h</text>
</a>
</g>
</g>
<!-- Node0&#45;&gt;Node4 -->
<g id="edge4" class="edge">
<title>Node0&#45;&gt;Node4</title>
<path fill="none" stroke="#191970" d="M280.5,-123.2967C280.5,-115.5013 280.5,-105.7991 280.5,-96.9064"/>
<polygon fill="#191970" stroke="#191970" points="284.0001,-96.6431 280.5,-86.6432 277.0001,-96.6432 284.0001,-96.6431"/>
</g>
<!-- Node5 -->
<g id="node6" class="node">
<title>Node5</title>
<polygon fill="#ffffff" stroke="#bfbfbf" points="361,-62 361,-81 408,-81 408,-62 361,-62"/>
<text text-anchor="middle" x="384.5" y="-69" font-family="Helvetica,sans-Serif" font-size="10.00" fill="#000000">math.h</text>
</g>
<!-- Node0&#45;&gt;Node5 -->
<g id="edge5" class="edge">
<title>Node0&#45;&gt;Node5</title>
<path fill="none" stroke="#191970" d="M303.8396,-123.4639C320.8179,-112.526 343.7242,-97.769 360.7882,-86.7759"/>
<polygon fill="#191970" stroke="#191970" points="363.0814,-89.462 369.5924,-81.1039 359.2904,-83.5774 363.0814,-89.462"/>
</g>
<!-- Node2 -->
<g id="node3" class="node">
<title>Node2</title>
<g id="a_node3"><a xlink:href="$ForwardDeclarations_8h.html" xlink:title="Asteroids/ForwardDeclarations.h">
<polygon fill="#ffffff" stroke="#000000" points="0,-.5 0,-19.5 159,-19.5 159,-.5 0,-.5"/>
<text text-anchor="middle" x="79.5" y="-7.5" font-family="Helvetica,sans-Serif" font-size="10.00" fill="#000000">Asteroids/ForwardDeclarations.h</text>
</a>
</g>
</g>
<!-- Node1&#45;&gt;Node2 -->
<g id="edge2" class="edge">
<title>Node1&#45;&gt;Node2</title>
<path fill="none" stroke="#191970" d="M123.9157,-56.2977C115.47,-47.4941 104.8108,-36.3833 96.0516,-27.2529"/>
<polygon fill="#191970" stroke="#191970" points="98.3952,-24.6402 88.9466,-19.8469 93.3439,-29.4862 98.3952,-24.6402"/>
</g>
<!-- Node3 -->
<g id="node4" class="node">
<title>Node3</title>
<polygon fill="#ffffff" stroke="#bfbfbf" points="176.5,-.5 176.5,-19.5 220.5,-19.5 220.5,-.5 176.5,-.5"/>
<text text-anchor="middle" x="198.5" y="-7.5" font-family="Helvetica,sans-Serif" font-size="10.00" fill="#000000">vector</text>
</g>
<!-- Node1&#45;&gt;Node3 -->
<g id="edge3" class="edge">
<title>Node1&#45;&gt;Node3</title>
<path fill="none" stroke="#191970" d="M153.3315,-56.2977C161.9204,-47.4941 172.7602,-36.3833 181.6679,-27.2529"/>
<polygon fill="#191970" stroke="#191970" points="184.4152,-29.4489 188.8932,-19.8469 179.4047,-24.5606 184.4152,-29.4489"/>
</g>
</g>
</svg>
